<?xml version="1.0" encoding="utf-8"?>
<!-- Generator: Adobe Illustrator 21.0.0, SVG Export Plug-In . SVG Version: 6.00 Build 0)  -->
<svg version="1.1" xmlns="http://www.w3.org/2000/svg" xmlns:xlink="http://www.w3.org/1999/xlink" x="0px" y="0px" viewBox="0 0 1190.1 481.2" enable-background="new 0 0 1190.1 481.2" xml:space="preserve">
	<g>
		<path fill="#859894" d="M298.1,240.2h-19.4v-50.4l-12.6,12.7L255,191l26.3-25.9h16.8L298.1,240.2L298.1,240.2z"/>
		<path fill="#859894" d="M339.7,241.6c-8.9,0-16.4-1.8-22.6-5.4c-6.2-3.6-9.3-8.9-9.3-15.8c0-4.1,1.4-7.9,4.2-11.3c2.8-3.4,6.5-5.9,11-7.7c-9.3-3.5-14-9.4-14-17.5c0-4.6,1.6-8.4,4.7-11.6c3.2-3.1,7-5.3,11.4-6.6s9.3-1.9,14.5-1.9c5.3,0,10.1,0.6,14.5,1.9c4.4,1.3,8.2,3.5,11.4,6.6c3.2,3.1,4.7,7,4.7,11.6c0,8.1-4.7,13.9-14.1,17.5c4.6,1.7,8.3,4.3,11.1,7.7c2.8,3.4,4.2,7.1,4.2,11.3c0,4.7-1.6,8.6-4.7,11.9c-3.1,3.3-7,5.7-11.7,7.1C350.5,240.9,345.3,241.6,339.7,241.6z M339.7,224.4c3.5,0,6.4-0.6,8.7-1.9c2.3-1.2,3.4-2.9,3.4-4.9s-1.3-3.7-3.9-5s-5.4-2.1-8.3-2.5c-3,0.4-5.8,1.2-8.3,2.5c-2.6,1.3-3.8,2.9-3.8,5s1.1,3.7,3.4,4.9C333.2,223.8,336.1,224.4,339.7,224.4z M339.7,193.9c2.8-0.4,5.3-1.1,7.5-2.3s3.3-2.6,3.3-4.3c0-2-1-3.5-2.9-4.6c-2-1.1-4.6-1.6-7.9-1.6s-6,0.5-7.9,1.6c-2,1.1-3,2.6-3,4.6c0,1.7,1.1,3.2,3.4,4.3C334.4,192.7,336.9,193.5,339.7,193.9z"/>
		<path fill="#859894" d="M424,238.3c-4.2,2.2-8.9,3.3-14.3,3.3c-5.3,0-10.1-1.1-14.3-3.3s-7.6-5.1-10.1-8.8c-2.6-3.7-4.5-7.8-5.9-12.3c-1.3-4.5-2-9.4-2-14.5c0-6.9,1.1-13.2,3.4-18.9s5.9-10.4,10.9-14.2s11-5.6,18-5.6s13,1.9,18,5.6c5,3.8,8.6,8.5,10.9,14.2s3.4,12,3.4,18.9c0,5.1-0.7,9.9-2,14.5c-1.3,4.5-3.3,8.7-5.9,12.3C431.5,233.2,428.1,236.1,424,238.3zM409.7,224.4c8.4,0,12.6-7.3,12.6-21.8c0-14.4-4.2-21.6-12.6-21.6s-12.6,7.2-12.6,21.6C397.1,217.2,401.3,224.4,409.7,224.4z"/>
		<path fill="#859894" d="M565.8,240.2h-19.4v-49.7l-18.9,49.7h-8.6l-19-49.7v49.7h-19.4V165h26.9l15.8,41.5l15.7-41.5h26.9V240.2z"/>
		<path fill="#859894" d="M598.7,240.2h-19.4V165h19.4V240.2z"/>
		<path fill="#859894" d="M661.5,240.2h-49.6V165h19.4v58.3h30.2L661.5,240.2L661.5,240.2z"/>
		<path fill="#859894" d="M720.7,240.2h-49.6V165h19.4v58.3h30.2L720.7,240.2L720.7,240.2z"/>
		<path fill="#859894" d="M750,240.2h-19.4V165H750V240.2z"/>
		<path fill="#859894" d="M828.7,230.6c-7.6,7.3-17.2,10.9-28.7,10.9c-11.6,0-21.2-3.6-28.8-10.9c-7.6-7.3-11.4-16.6-11.4-28c0-11.3,3.8-20.7,11.4-28c7.6-7.3,17.2-10.9,28.8-10.9s21.2,3.6,28.7,10.9c7.6,7.3,11.4,16.6,11.4,28C840.1,214,836.3,223.4,828.7,230.6z M785.1,218.2c3.8,4.1,8.7,6.2,14.8,6.2s11-2.1,14.8-6.2c3.8-4.1,5.6-9.3,5.6-15.6c0-6.2-1.9-11.4-5.6-15.6c-3.8-4.1-8.7-6.2-14.8-6.2s-11,2.1-14.8,6.2c-3.8,4.1-5.7,9.3-5.7,15.6C779.4,208.9,781.3,214.1,785.1,218.2z"/>
		<path fill="#859894" d="M919.8,240.2h-18.7l-31.8-43.5v43.5h-19.4V165h20l30.4,41.4V165h19.5V240.2z"/>
	</g>
	<g opacity="0.8">
		<path fill="#859894" d="M369.1,295.1h-6.3v-29.8h13.9c3.1,0,5.6,0.9,7.3,2.7c1.8,1.8,2.7,4.1,2.7,6.8c0,2.7-0.9,5-2.7,6.8s-4.2,2.7-7.3,2.7h-7.6V295.1z M375.8,278.9c1.3,0,2.3-0.4,3.2-1.1c0.8-0.7,1.2-1.7,1.2-2.9c0-1.2-0.4-2.2-1.2-2.9c-0.8-0.7-1.9-1.1-3.2-1.1h-6.7v8H375.8z"/>
		<path fill="#859894" d="M424,295.1h-7.2l-1.9-5h-12.8l-1.9,5H393l11.5-29.8h7.9L424,295.1z M413.2,284.5l-4.6-12.8l-4.6,12.8H413.2z"/>
		<path fill="#859894" d="M459.8,295.1h-7.3l-5.8-10.6H442v10.6h-6.3v-29.8h13.9c3.1,0,5.5,0.9,7.3,2.7c1.8,1.8,2.7,4.1,2.7,6.9c0,2.4-0.6,4.4-1.9,5.9s-2.8,2.5-4.6,2.9L459.8,295.1z M448.7,278.9c1.3,0,2.3-0.4,3.2-1.1c0.8-0.7,1.2-1.7,1.2-3c0-1.2-0.4-2.1-1.2-2.9c-0.8-0.7-1.9-1.1-3.2-1.1H442v8h6.7V278.9z"/>
		<path fill="#859894" d="M486.1,295.1h-6.4v-24.2H471v-5.6h23.7v5.6H486v24.2H486.1z"/>
		<path fill="#859894" d="M518,295.6c-5.3,0-9.5-1.6-12.7-4.7l3.5-5c2.6,2.7,5.7,4.1,9.5,4.1c1.7,0,2.9-0.3,3.8-1c0.9-0.6,1.3-1.4,1.3-2.3c0-0.8-0.4-1.5-1.3-2c-0.8-0.5-1.9-0.9-3.2-1.1s-2.6-0.6-4.1-1s-2.9-0.9-4.1-1.5c-1.3-0.6-2.3-1.5-3.2-2.7c-0.8-1.2-1.3-2.7-1.3-4.5c0-2.6,1-4.7,3.1-6.4c2.1-1.7,4.8-2.6,8.2-2.6c4.7,0,8.6,1.4,11.6,4.1l-3.5,4.7c-2.3-2.2-5.2-3.3-8.7-3.3c-1.3,0-2.3,0.3-3.1,0.8c-0.7,0.5-1.1,1.2-1.1,2.1c0,0.7,0.4,1.3,1.3,1.8c0.8,0.5,1.9,0.8,3.2,1.1c1.3,0.3,2.6,0.6,4.1,1s2.8,1,4.1,1.5s2.3,1.5,3.2,2.7c0.8,1.2,1.3,2.7,1.3,4.4c0,2.9-1,5.2-3.1,6.9C524.8,294.7,521.9,295.6,518,295.6z"/>
		<path fill="#859894" d="M569.8,295.1h-6.3v-29.8h13.9c3.1,0,5.6,0.9,7.3,2.7c1.8,1.8,2.7,4.1,2.7,6.8c0,2.7-0.9,5-2.7,6.8s-4.2,2.7-7.3,2.7h-7.6L569.8,295.1L569.8,295.1z M576.5,278.9c1.3,0,2.3-0.4,3.2-1.1c0.8-0.7,1.2-1.7,1.2-2.9c0-1.2-0.4-2.2-1.2-2.9c-0.8-0.7-1.9-1.1-3.2-1.1h-6.7v8H576.5z"/>
		<path fill="#859894" d="M621.3,295.1h-21.1v-29.8h21.1v5.6h-14.7v6.2H621v5.6h-14.4v6.8h14.7V295.1z"/>
		<path fill="#859894" d="M659.4,295.1H652l-5.8-10.6h-4.6v10.6h-6.3v-29.8h13.9c3.1,0,5.5,0.9,7.3,2.7c1.8,1.8,2.7,4.1,2.7,6.9c0,2.4-0.6,4.4-1.9,5.9s-2.8,2.5-4.6,2.9L659.4,295.1z M648.2,278.9c1.3,0,2.3-0.4,3.2-1.1c0.8-0.7,1.2-1.7,1.2-3c0-1.2-0.4-2.1-1.2-2.9c-0.8-0.7-1.9-1.1-3.2-1.1h-6.7v8h6.7V278.9z"/>
		<path fill="#859894" d="M707.8,295.1h-6.3v-12.2l-11.4-17.6h7.2l7.4,11.9l7.4-11.9h7.2l-11.4,17.6v12.2H707.8z"/>
		<path fill="#859894" d="M752,295.1h-21.1v-29.8H752v5.6h-14.7v6.2h14.4v5.6h-14.4v6.8H752V295.1z"/>
		<path fill="#859894" d="M793.6,295.1h-7.2l-1.9-5h-12.8l-1.9,5h-7.2l11.5-29.8h7.9L793.6,295.1z M782.8,284.5l-4.6-12.8l-4.6,12.8H782.8z"/>
		<path fill="#859894" d="M829.4,295.1h-7.3l-5.8-10.6h-4.6v10.6h-6.3v-29.8h13.9c3.1,0,5.5,0.9,7.3,2.7c1.8,1.8,2.7,4.1,2.7,6.9c0,2.4-0.6,4.4-1.9,5.9s-2.8,2.5-4.6,2.9L829.4,295.1z M818.3,278.9c1.3,0,2.3-0.4,3.2-1.1c0.8-0.7,1.2-1.7,1.2-3c0-1.2-0.4-2.1-1.2-2.9c-0.8-0.7-1.9-1.1-3.2-1.1h-6.7v8h6.7V278.9z"/>
	</g>
	<g class='180-row 180-row-1'>
		<path fill="#859894" d="M102.5,13.5H65.8c-3.2,0-5.7-2.6-5.7-5.7l0,0c0-3.2,2.6-5.7,5.7-5.7h36.7c3.2,0,5.7,2.6,5.7,5.7l0,0C108.3,10.9,105.7,13.5,102.5,13.5z"/>
		<path fill="#859894" d="M222.7,12.2H186c-3.2,0-5.7-2.6-5.7-5.7l0,0c0-3.2,2.6-5.7,5.7-5.7h36.7c3.2,0,5.7,2.6,5.7,5.7l0,0C228.5,9.7,225.9,12.2,222.7,12.2z"/>
		<path fill="#859894" d="M463.1,12.2h-36.7c-3.2,0-5.7-2.6-5.7-5.7l0,0c0-3.2,2.6-5.7,5.7-5.7h36.7c3.2,0,5.7,2.6,5.7,5.7l0,0C468.9,9.7,466.3,12.2,463.1,12.2z"/>
		<path fill="#859894" d="M523.2,12.2h-36.7c-3.2,0-5.7-2.6-5.7-5.7l0,0c0-3.2,2.6-5.7,5.7-5.7h36.7c3.2,0,5.7,2.6,5.7,5.7l0,0C529,9.7,526.4,12.2,523.2,12.2z"/>
		<path fill="#859894" d="M583.3,12.2h-36.7c-3.2,0-5.7-2.6-5.7-5.7l0,0c0-3.2,2.6-5.7,5.7-5.7h36.7c3.2,0,5.7,2.6,5.7,5.7l0,0C589.1,9.7,586.5,12.2,583.3,12.2z"/>
		<path fill="#859894" d="M643.4,12.2h-36.7c-3.2,0-5.7-2.6-5.7-5.7l0,0c0-3.2,2.6-5.7,5.7-5.7h36.7c3.2,0,5.7,2.6,5.7,5.7l0,0C649.2,9.7,646.6,12.2,643.4,12.2z"/>
		<path fill="#859894" d="M703.6,12.2h-36.7c-3.2,0-5.7-2.6-5.7-5.7l0,0c0-3.2,2.6-5.7,5.7-5.7h36.7c3.2,0,5.7,2.6,5.7,5.7l0,0C709.3,9.7,706.7,12.2,703.6,12.2z"/>
		<path fill="#859894" d="M763.7,12.2H727c-3.2,0-5.7-2.6-5.7-5.7l0,0c0-3.2,2.6-5.7,5.7-5.7h36.7c3.2,0,5.7,2.6,5.7,5.7l0,0C769.4,9.7,766.8,12.2,763.7,12.2z"/>
		<path fill="#859894" d="M823.8,12.2h-36.7c-3.2,0-5.7-2.6-5.7-5.7l0,0c0-3.2,2.6-5.7,5.7-5.7h36.7c3.2,0,5.7,2.6,5.7,5.7l0,0C829.5,9.7,826.9,12.2,823.8,12.2z"/>
		<path fill="#859894" d="M883.9,12.2h-36.7c-3.2,0-5.7-2.6-5.7-5.7l0,0c0-3.2,2.6-5.7,5.7-5.7h36.7c3.2,0,5.7,2.6,5.7,5.7l0,0C889.6,9.7,887,12.2,883.9,12.2z"/>
		<path fill="#859894" d="M403,12.2h-36.7c-3.2,0-5.7-2.6-5.7-5.7l0,0c0-3.2,2.6-5.7,5.7-5.7H403c3.2,0,5.7,2.6,5.7,5.7l0,0C408.8,9.7,406.2,12.2,403,12.2z"/>
		<path fill="#859894" d="M944,12.2h-36.7c-3.2,0-5.7-2.6-5.7-5.7l0,0c0-3.2,2.6-5.7,5.7-5.7H944c3.2,0,5.7,2.6,5.7,5.7l0,0C949.7,9.7,947.1,12.2,944,12.2z"/>
		<path fill="#859894" d="M1004.1,12.2h-36.7c-3.2,0-5.7-2.6-5.7-5.7l0,0c0-3.2,2.6-5.7,5.7-5.7h36.7c3.2,0,5.7,2.6,5.7,5.7l0,0C1009.8,9.7,1007.2,12.2,1004.1,12.2z"/>
		<path fill="#859894" d="M1064.2,12.2h-36.7c-3.2,0-5.7-2.6-5.7-5.7l0,0c0-3.2,2.6-5.7,5.7-5.7h36.7c3.2,0,5.7,2.6,5.7,5.7l0,0C1069.9,9.7,1067.3,12.2,1064.2,12.2z"/>
		<path fill="#859894" d="M282.8,12.2h-36.7c-3.2,0-5.7-2.6-5.7-5.7l0,0c0-3.2,2.6-5.7,5.7-5.7h36.7c3.2,0,5.7,2.6,5.7,5.7l0,0C288.6,9.7,286,12.2,282.8,12.2z"/>
		<path fill="#859894" d="M342.9,12.2h-36.7c-3.2,0-5.7-2.6-5.7-5.7l0,0c0-3.2,2.6-5.7,5.7-5.7h36.7c3.2,0,5.7,2.6,5.7,5.7l0,0C348.7,9.7,346.1,12.2,342.9,12.2z"/>
		<path fill="#859894" d="M1124.3,11.5h-36.7c-3.2,0-5.7-2.6-5.7-5.7l0,0c0-3.2,2.6-5.7,5.7-5.7h36.7c3.2,0,5.7,2.6,5.7,5.7l0,0C1130,8.9,1127.4,11.5,1124.3,11.5z"/>
		<path fill="#859894" d="M162.5,13.5h-36.7c-3.2,0-5.7-2.6-5.7-5.7l0,0c0-3.2,2.6-5.7,5.7-5.7h36.7c3.2,0,5.7,2.6,5.7,5.7l0,0C168.2,10.9,165.7,13.5,162.5,13.5z"/>
	</g>
	<g class='180-row 180-row-2'>
		<path fill="#859894" d="M222.7,43.6H186c-3.2,0-5.7-2.6-5.7-5.7l0,0c0-3.2,2.6-5.7,5.7-5.7h36.7c3.2,0,5.7,2.6,5.7,5.7l0,0C228.5,41,225.9,43.6,222.7,43.6z"/>
		<path fill="#859894" d="M282.8,43.6h-36.7c-3.2,0-5.7-2.6-5.7-5.7l0,0c0-3.2,2.6-5.7,5.7-5.7h36.7c3.2,0,5.7,2.6,5.7,5.7l0,0C288.6,41,286,43.6,282.8,43.6z"/>
		<path fill="#859894" d="M342.9,43.6h-36.7c-3.2,0-5.7-2.6-5.7-5.7l0,0c0-3.2,2.6-5.7,5.7-5.7h36.7c3.2,0,5.7,2.6,5.7,5.7l0,0C348.7,41,346.1,43.6,342.9,43.6z"/>
		<path fill="#859894" d="M403,43.6h-36.7c-3.2,0-5.7-2.6-5.7-5.7l0,0c0-3.2,2.6-5.7,5.7-5.7H403c3.2,0,5.7,2.6,5.7,5.7l0,0C408.8,41,406.2,43.6,403,43.6z"/>
		<path fill="#859894" d="M463.1,43.6h-36.7c-3.2,0-5.7-2.6-5.7-5.7l0,0c0-3.2,2.6-5.7,5.7-5.7h36.7c3.2,0,5.7,2.6,5.7,5.7l0,0C468.9,41,466.3,43.6,463.1,43.6z"/>
		<path fill="#859894" d="M523.2,43.6h-36.7c-3.2,0-5.7-2.6-5.7-5.7l0,0c0-3.2,2.6-5.7,5.7-5.7h36.7c3.2,0,5.7,2.6,5.7,5.7l0,0C529,41,526.4,43.6,523.2,43.6z"/>
		<path fill="#859894" d="M583.3,43.6h-36.7c-3.2,0-5.7-2.6-5.7-5.7l0,0c0-3.2,2.6-5.7,5.7-5.7h36.7c3.2,0,5.7,2.6,5.7,5.7l0,0C589.1,41,586.5,43.6,583.3,43.6z"/>
		<path fill="#859894" d="M643.4,43.6h-36.7c-3.2,0-5.7-2.6-5.7-5.7l0,0c0-3.2,2.6-5.7,5.7-5.7h36.7c3.2,0,5.7,2.6,5.7,5.7l0,0C649.2,41,646.6,43.6,643.4,43.6z"/>
		<path fill="#859894" d="M703.6,43.6h-36.7c-3.2,0-5.7-2.6-5.7-5.7l0,0c0-3.2,2.6-5.7,5.7-5.7h36.7c3.2,0,5.7,2.6,5.7,5.7l0,0C709.3,41,706.7,43.6,703.6,43.6z"/>
		<path fill="#859894" d="M763.7,43.6H727c-3.2,0-5.7-2.6-5.7-5.7l0,0c0-3.2,2.6-5.7,5.7-5.7h36.7c3.2,0,5.7,2.6,5.7,5.7l0,0C769.4,41,766.8,43.6,763.7,43.6z"/>
		<path fill="#859894" d="M823.8,43.6h-36.7c-3.2,0-5.7-2.6-5.7-5.7l0,0c0-3.2,2.6-5.7,5.7-5.7h36.7c3.2,0,5.7,2.6,5.7,5.7l0,0C829.5,41,826.9,43.6,823.8,43.6z"/>
		<path fill="#859894" d="M883.9,43.6h-36.7c-3.2,0-5.7-2.6-5.7-5.7l0,0c0-3.2,2.6-5.7,5.7-5.7h36.7c3.2,0,5.7,2.6,5.7,5.7l0,0C889.6,41,887,43.6,883.9,43.6z"/>
		<path fill="#859894" d="M944,43.6h-36.7c-3.2,0-5.7-2.6-5.7-5.7l0,0c0-3.2,2.6-5.7,5.7-5.7H944c3.2,0,5.7,2.6,5.7,5.7l0,0C949.7,41,947.1,43.6,944,43.6z"/>
		<path fill="#859894" d="M1004.1,43.6h-36.7c-3.2,0-5.7-2.6-5.7-5.7l0,0c0-3.2,2.6-5.7,5.7-5.7h36.7c3.2,0,5.7,2.6,5.7,5.7l0,0C1009.8,41,1007.2,43.6,1004.1,43.6z"/>
		<path fill="#859894" d="M1064.2,43.6h-36.7c-3.2,0-5.7-2.6-5.7-5.7l0,0c0-3.2,2.6-5.7,5.7-5.7h36.7c3.2,0,5.7,2.6,5.7,5.7l0,0C1069.9,41,1067.3,43.6,1064.2,43.6z"/>
		<path fill="#859894" d="M1124.3,43.6h-36.7c-3.2,0-5.7-2.6-5.7-5.7l0,0c0-3.2,2.6-5.7,5.7-5.7h36.7c3.2,0,5.7,2.6,5.7,5.7l0,0C1130,41,1127.4,43.6,1124.3,43.6z"/>
		<path fill="#859894" d="M101.5,44.6H64.8c-3.2,0-5.7-2.6-5.7-5.7l0,0c0-3.2,2.6-5.7,5.7-5.7h36.7c3.2,0,5.7,2.6,5.7,5.7l0,0C107.3,42,104.7,44.6,101.5,44.6z"/>
		<path fill="#859894" d="M161.6,44.6h-36.7c-3.2,0-5.7-2.6-5.7-5.7l0,0c0-3.2,2.6-5.7,5.7-5.7h36.7c3.2,0,5.7,2.6,5.7,5.7l0,0C167.4,42,164.8,44.6,161.6,44.6z"/>
	</g>
	<g class='180-row 180-row-3'>
		<path fill="#859894" d="M101.5,76H64.8c-3.2,0-5.7-2.6-5.7-5.7l0,0c0-3.2,2.6-5.7,5.7-5.7h36.7c3.2,0,5.7,2.6,5.7,5.7l0,0C107.3,73.4,104.7,76,101.5,76z"/>
		<path fill="#859894" d="M161.6,76h-36.7c-3.2,0-5.7-2.6-5.7-5.7l0,0c0-3.2,2.6-5.7,5.7-5.7h36.7c3.2,0,5.7,2.6,5.7,5.7l0,0C167.4,73.4,164.8,76,161.6,76z"/>
		<path fill="#859894" d="M222.7,75H186c-3.2,0-5.7-2.6-5.7-5.7l0,0c0-3.2,2.6-5.7,5.7-5.7h36.7c3.2,0,5.7,2.6,5.7,5.7l0,0C228.5,72.4,225.9,75,222.7,75z"/>
		<path fill="#859894" d="M282.8,75h-36.7c-3.2,0-5.7-2.6-5.7-5.7l0,0c0-3.2,2.6-5.7,5.7-5.7h36.7c3.2,0,5.7,2.6,5.7,5.7l0,0C288.6,72.4,286,75,282.8,75z"/>
		<path fill="#859894" d="M342.9,75h-36.7c-3.2,0-5.7-2.6-5.7-5.7l0,0c0-3.2,2.6-5.7,5.7-5.7h36.7c3.2,0,5.7,2.6,5.7,5.7l0,0C348.7,72.4,346.1,75,342.9,75z"/>
		<path fill="#859894" d="M403,75h-36.7c-3.2,0-5.7-2.6-5.7-5.7l0,0c0-3.2,2.6-5.7,5.7-5.7H403c3.2,0,5.7,2.6,5.7,5.7l0,0C408.8,72.4,406.2,75,403,75z"/>
		<path fill="#859894" d="M463.1,75h-36.7c-3.2,0-5.7-2.6-5.7-5.7l0,0c0-3.2,2.6-5.7,5.7-5.7h36.7c3.2,0,5.7,2.6,5.7,5.7l0,0C468.9,72.4,466.3,75,463.1,75z"/>
		<path fill="#859894" d="M523.2,75h-36.7c-3.2,0-5.7-2.6-5.7-5.7l0,0c0-3.2,2.6-5.7,5.7-5.7h36.7c3.2,0,5.7,2.6,5.7,5.7l0,0C529,72.4,526.4,75,523.2,75z"/>
		<path fill="#859894" d="M583.3,75h-36.7c-3.2,0-5.7-2.6-5.7-5.7l0,0c0-3.2,2.6-5.7,5.7-5.7h36.7c3.2,0,5.7,2.6,5.7,5.7l0,0C589.1,72.4,586.5,75,583.3,75z"/>
		<path fill="#859894" d="M643.4,75h-36.7c-3.2,0-5.7-2.6-5.7-5.7l0,0c0-3.2,2.6-5.7,5.7-5.7h36.7c3.2,0,5.7,2.6,5.7,5.7l0,0C649.2,72.4,646.6,75,643.4,75z"/>
		<path fill="#859894" d="M703.6,75h-36.7c-3.2,0-5.7-2.6-5.7-5.7l0,0c0-3.2,2.6-5.7,5.7-5.7h36.7c3.2,0,5.7,2.6,5.7,5.7l0,0C709.3,72.4,706.7,75,703.6,75z"/>
		<path fill="#859894" d="M763.7,75H727c-3.2,0-5.7-2.6-5.7-5.7l0,0c0-3.2,2.6-5.7,5.7-5.7h36.7c3.2,0,5.7,2.6,5.7,5.7l0,0C769.4,72.4,766.8,75,763.7,75z"/>
		<path fill="#859894" d="M823.8,75h-36.7c-3.2,0-5.7-2.6-5.7-5.7l0,0c0-3.2,2.6-5.7,5.7-5.7h36.7c3.2,0,5.7,2.6,5.7,5.7l0,0C829.5,72.4,826.9,75,823.8,75z"/>
		<path fill="#859894" d="M883.9,75h-36.7c-3.2,0-5.7-2.6-5.7-5.7l0,0c0-3.2,2.6-5.7,5.7-5.7h36.7c3.2,0,5.7,2.6,5.7,5.7l0,0C889.6,72.4,887,75,883.9,75z"/>
		<path fill="#859894" d="M944,75h-36.7c-3.2,0-5.7-2.6-5.7-5.7l0,0c0-3.2,2.6-5.7,5.7-5.7H944c3.2,0,5.7,2.6,5.7,5.7l0,0C949.7,72.4,947.1,75,944,75z"/>
		<path fill="#859894" d="M1004.1,75h-36.7c-3.2,0-5.7-2.6-5.7-5.7l0,0c0-3.2,2.6-5.7,5.7-5.7h36.7c3.2,0,5.7,2.6,5.7,5.7l0,0C1009.8,72.4,1007.2,75,1004.1,75z"/>
		<path fill="#859894" d="M1064.2,75h-36.7c-3.2,0-5.7-2.6-5.7-5.7l0,0c0-3.2,2.6-5.7,5.7-5.7h36.7c3.2,0,5.7,2.6,5.7,5.7l0,0C1069.9,72.4,1067.3,75,1064.2,75z"/>
		<path fill="#859894" d="M1124.3,75h-36.7c-3.2,0-5.7-2.6-5.7-5.7l0,0c0-3.2,2.6-5.7,5.7-5.7h36.7c3.2,0,5.7,2.6,5.7,5.7l0,0C1130,72.4,1127.4,75,1124.3,75z"/>
	</g>
	<g class='180-row 180-row-4'>
		<path fill="#859894" d="M222.7,106.3H186c-3.2,0-5.7-2.6-5.7-5.7l0,0c0-3.2,2.6-5.7,5.7-5.7h36.7c3.2,0,5.7,2.6,5.7,5.7l0,0C228.5,103.8,225.9,106.3,222.7,106.3z"/>
		<path fill="#859894" d="M282.8,106.3h-36.7c-3.2,0-5.7-2.6-5.7-5.7l0,0c0-3.2,2.6-5.7,5.7-5.7h36.7c3.2,0,5.7,2.6,5.7,5.7l0,0C288.6,103.8,286,106.3,282.8,106.3z"/>
		<path fill="#859894" d="M342.9,106.3h-36.7c-3.2,0-5.7-2.6-5.7-5.7l0,0c0-3.2,2.6-5.7,5.7-5.7h36.7c3.2,0,5.7,2.6,5.7,5.7l0,0C348.7,103.8,346.1,106.3,342.9,106.3z"/>
		<path fill="#859894" d="M403,106.3h-36.7c-3.2,0-5.7-2.6-5.7-5.7l0,0c0-3.2,2.6-5.7,5.7-5.7H403c3.2,0,5.7,2.6,5.7,5.7l0,0C408.8,103.8,406.2,106.3,403,106.3z"/>
		<path fill="#859894" d="M463.1,106.3h-36.7c-3.2,0-5.7-2.6-5.7-5.7l0,0c0-3.2,2.6-5.7,5.7-5.7h36.7c3.2,0,5.7,2.6,5.7,5.7l0,0C468.9,103.8,466.3,106.3,463.1,106.3z"/>
		<path fill="#859894" d="M523.2,106.3h-36.7c-3.2,0-5.7-2.6-5.7-5.7l0,0c0-3.2,2.6-5.7,5.7-5.7h36.7c3.2,0,5.7,2.6,5.7,5.7l0,0C529,103.8,526.4,106.3,523.2,106.3z"/>
		<path fill="#859894" d="M583.3,106.3h-36.7c-3.2,0-5.7-2.6-5.7-5.7l0,0c0-3.2,2.6-5.7,5.7-5.7h36.7c3.2,0,5.7,2.6,5.7,5.7l0,0C589.1,103.8,586.5,106.3,583.3,106.3z"/>
		<path fill="#859894" d="M643.4,106.3h-36.7c-3.2,0-5.7-2.6-5.7-5.7l0,0c0-3.2,2.6-5.7,5.7-5.7h36.7c3.2,0,5.7,2.6,5.7,5.7l0,0C649.2,103.8,646.6,106.3,643.4,106.3z"/>
		<path fill="#859894" d="M703.6,106.3h-36.7c-3.2,0-5.7-2.6-5.7-5.7l0,0c0-3.2,2.6-5.7,5.7-5.7h36.7c3.2,0,5.7,2.6,5.7,5.7l0,0C709.3,103.8,706.7,106.3,703.6,106.3z"/>
		<path fill="#859894" d="M763.7,106.3H727c-3.2,0-5.7-2.6-5.7-5.7l0,0c0-3.2,2.6-5.7,5.7-5.7h36.7c3.2,0,5.7,2.6,5.7,5.7l0,0C769.4,103.8,766.8,106.3,763.7,106.3z"/>
		<path fill="#859894" d="M823.8,106.3h-36.7c-3.2,0-5.7-2.6-5.7-5.7l0,0c0-3.2,2.6-5.7,5.7-5.7h36.7c3.2,0,5.7,2.6,5.7,5.7l0,0C829.5,103.8,826.9,106.3,823.8,106.3z"/>
		<path fill="#859894" d="M883.9,106.3h-36.7c-3.2,0-5.7-2.6-5.7-5.7l0,0c0-3.2,2.6-5.7,5.7-5.7h36.7c3.2,0,5.7,2.6,5.7,5.7l0,0C889.6,103.8,887,106.3,883.9,106.3z"/>
		<path fill="#859894" d="M944,106.3h-36.7c-3.2,0-5.7-2.6-5.7-5.7l0,0c0-3.2,2.6-5.7,5.7-5.7H944c3.2,0,5.7,2.6,5.7,5.7l0,0C949.7,103.8,947.1,106.3,944,106.3z"/>
		<path fill="#859894" d="M102.5,106.3H65.8c-3.2,0-5.7-2.6-5.7-5.7l0,0c0-3.2,2.6-5.7,5.7-5.7h36.7c3.2,0,5.7,2.6,5.7,5.7l0,0C108.3,103.8,105.7,106.3,102.5,106.3z"/>
		<path fill="#859894" d="M162.6,106.3h-36.7c-3.2,0-5.7-2.6-5.7-5.7l0,0c0-3.2,2.6-5.7,5.7-5.7h36.7c3.2,0,5.7,2.6,5.7,5.7l0,0C168.4,103.8,165.8,106.3,162.6,106.3z"/>
		<path fill="#859894" d="M1064.2,106.3h-36.7c-3.2,0-5.7-2.6-5.7-5.7l0,0c0-3.2,2.6-5.7,5.7-5.7h36.7c3.2,0,5.7,2.6,5.7,5.7l0,0C1069.9,103.8,1067.3,106.3,1064.2,106.3z"/>
		<path fill="#859894" d="M1124.3,106.3h-36.7c-3.2,0-5.7-2.6-5.7-5.7l0,0c0-3.2,2.6-5.7,5.7-5.7h36.7c3.2,0,5.7,2.6,5.7,5.7l0,0C1130,103.8,1127.4,106.3,1124.3,106.3z"/>
		<path fill="#859894" d="M1005.2,106.3h-36.7c-3.2,0-5.7-2.6-5.7-5.7l0,0c0-3.2,2.6-5.7,5.7-5.7h36.7c3.2,0,5.7,2.6,5.7,5.7l0,0C1011,103.8,1008.4,106.3,1005.2,106.3z"/>
	</g>
	<g class='180-row 180-row-5'>
		<path fill="#859894" d="M1064.2,137.7h-36.7c-3.2,0-5.7-2.6-5.7-5.7l0,0c0-3.2,2.6-5.7,5.7-5.7h36.7c3.2,0,5.7,2.6,5.7,5.7l0,0C1069.9,135.1,1067.3,137.7,1064.2,137.7z"/>
		<path fill="#859894" d="M1124.3,137.7h-36.7c-3.2,0-5.7-2.6-5.7-5.7l0,0c0-3.2,2.6-5.7,5.7-5.7h36.7c3.2,0,5.7,2.6,5.7,5.7l0,0C1130,135.1,1127.4,137.7,1124.3,137.7z"/>
		<path fill="#859894" d="M102.5,137.7H65.8c-3.2,0-5.7-2.6-5.7-5.7l0,0c0-3.2,2.6-5.7,5.7-5.7h36.7c3.2,0,5.7,2.6,5.7,5.7l0,0C108.3,135.1,105.7,137.7,102.5,137.7z"/>
		<path fill="#859894" d="M162.6,137.7h-36.7c-3.2,0-5.7-2.6-5.7-5.7l0,0c0-3.2,2.6-5.7,5.7-5.7h36.7c3.2,0,5.7,2.6,5.7,5.7l0,0C168.4,135.1,165.8,137.7,162.6,137.7z"/>
	</g>
	<g class='180-row 180-row-6'>
		<path fill="#859894" d="M1184.4,169.1h-36.7c-3.2,0-5.7-2.6-5.7-5.7l0,0c0-3.2,2.6-5.7,5.7-5.7h36.7c3.2,0,5.7,2.6,5.7,5.7l0,0C1190.1,166.5,1187.5,169.1,1184.4,169.1z"/>
		<path fill="#859894" d="M162.6,169.1h-36.7c-3.2,0-5.7-2.6-5.7-5.7l0,0c0-3.2,2.6-5.7,5.7-5.7h36.7c3.2,0,5.7,2.6,5.7,5.7l0,0C168.4,166.5,165.8,169.1,162.6,169.1z"/>
		<path fill="#859894" d="M1064.2,169.1h-36.7c-3.2,0-5.7-2.6-5.7-5.7l0,0c0-3.2,2.6-5.7,5.7-5.7h36.7c3.2,0,5.7,2.6,5.7,5.7l0,0C1069.9,166.5,1067.3,169.1,1064.2,169.1z"/>
		<path fill="#859894" d="M1124.3,169.1h-36.7c-3.2,0-5.7-2.6-5.7-5.7l0,0c0-3.2,2.6-5.7,5.7-5.7h36.7c3.2,0,5.7,2.6,5.7,5.7l0,0C1130,166.5,1127.4,169.1,1124.3,169.1z"/>
		<path fill="#859894" d="M102.5,169.1H65.8c-3.2,0-5.7-2.6-5.7-5.7l0,0c0-3.2,2.6-5.7,5.7-5.7h36.7c3.2,0,5.7,2.6,5.7,5.7l0,0C108.3,166.5,105.7,169.1,102.5,169.1z"/>
		<path fill="#859894" d="M42.4,169.1H5.7c-3.2,0-5.7-2.6-5.7-5.7l0,0c0-3.2,2.6-5.7,5.7-5.7h36.7c3.2,0,5.7,2.6,5.7,5.7l0,0C48.2,166.5,45.6,169.1,42.4,169.1z"/>
	</g>
	<g class='180-row 180-row-7'>
		<path fill="#859894" d="M1184.4,200.5h-36.7c-3.2,0-5.7-2.6-5.7-5.7l0,0c0-3.2,2.6-5.7,5.7-5.7h36.7c3.2,0,5.7,2.6,5.7,5.7l0,0C1190.1,197.9,1187.5,200.5,1184.4,200.5z"/>
		<path fill="#859894" d="M102.5,200.5H65.8c-3.2,0-5.7-2.6-5.7-5.7l0,0c0-3.2,2.6-5.7,5.7-5.7h36.7c3.2,0,5.7,2.6,5.7,5.7l0,0C108.3,198,105.7,200.5,102.5,200.5z"/>
		<path fill="#859894" d="M162.6,200.5h-36.7c-3.2,0-5.7-2.6-5.7-5.7l0,0c0-3.2,2.6-5.7,5.7-5.7h36.7c3.2,0,5.7,2.6,5.7,5.7l0,0C168.4,198,165.8,200.5,162.6,200.5z"/>
		<path fill="#859894" d="M1064.2,200.5h-36.7c-3.2,0-5.7-2.6-5.7-5.7l0,0c0-3.2,2.6-5.7,5.7-5.7h36.7c3.2,0,5.7,2.6,5.7,5.7l0,0C1069.9,198,1067.3,200.5,1064.2,200.5z"/>
		<path fill="#859894" d="M1124.3,200.5h-36.7c-3.2,0-5.7-2.6-5.7-5.7l0,0c0-3.2,2.6-5.7,5.7-5.7h36.7c3.2,0,5.7,2.6,5.7,5.7l0,0C1130,198,1127.4,200.5,1124.3,200.5z"/>
		<path fill="#859894" d="M42.4,200.5H5.7c-3.2,0-5.7-2.6-5.7-5.7l0,0c0-3.2,2.6-5.7,5.7-5.7h36.7c3.2,0,5.7,2.6,5.7,5.7l0,0C48.2,197.9,45.6,200.5,42.4,200.5z"/>
	</g>
	<g class='180-row 180-row-8'>
		<path fill="#859894" d="M102.5,230.2H65.8c-3.2,0-5.7-2.6-5.7-5.7l0,0c0-3.2,2.6-5.7,5.7-5.7h36.7c3.2,0,5.7,2.6,5.7,5.7l0,0C108.3,227.6,105.7,230.2,102.5,230.2z"/>
		<path fill="#859894" d="M162.6,230.2h-36.7c-3.2,0-5.7-2.6-5.7-5.7l0,0c0-3.2,2.6-5.7,5.7-5.7h36.7c3.2,0,5.7,2.6,5.7,5.7l0,0C168.4,227.6,165.8,230.2,162.6,230.2z"/>
		<path fill="#859894" d="M1064.2,230.2h-36.7c-3.2,0-5.7-2.6-5.7-5.7l0,0c0-3.2,2.6-5.7,5.7-5.7h36.7c3.2,0,5.7,2.6,5.7,5.7l0,0C1069.9,227.6,1067.3,230.2,1064.2,230.2z"/>
		<path fill="#859894" d="M1124.3,230.2h-36.7c-3.2,0-5.7-2.6-5.7-5.7l0,0c0-3.2,2.6-5.7,5.7-5.7h36.7c3.2,0,5.7,2.6,5.7,5.7l0,0C1130,227.6,1127.4,230.2,1124.3,230.2z"/>
		<path fill="#859894" d="M42.4,230.2H5.7c-3.2,0-5.7-2.6-5.7-5.7l0,0c0-3.2,2.6-5.7,5.7-5.7h36.7c3.2,0,5.7,2.6,5.7,5.7l0,0C48.2,227.7,45.6,230.2,42.4,230.2z"/>
		<path fill="#859894" d="M1184.4,230.2h-36.7c-3.2,0-5.7-2.6-5.7-5.7l0,0c0-3.2,2.6-5.7,5.7-5.7h36.7c3.2,0,5.7,2.6,5.7,5.7l0,0C1190.1,227.7,1187.5,230.2,1184.4,230.2z"/>
	</g>
	<g class='180-row 180-row-9'>
		<path fill="#859894" d="M42.4,260.7H5.7c-3.2,0-5.7-2.6-5.7-5.7l0,0c0-3.2,2.6-5.7,5.7-5.7h36.7c3.2,0,5.7,2.6,5.7,5.7l0,0C48.2,258.1,45.6,260.7,42.4,260.7z"/>
		<path fill="#859894" d="M102.5,260.7H65.8c-3.2,0-5.7-2.6-5.7-5.7l0,0c0-3.2,2.6-5.7,5.7-5.7h36.7c3.2,0,5.7,2.6,5.7,5.7l0,0C108.3,258.2,105.7,260.7,102.5,260.7z"/>
		<path fill="#859894" d="M162.6,260.7h-36.7c-3.2,0-5.7-2.6-5.7-5.7l0,0c0-3.2,2.6-5.7,5.7-5.7h36.7c3.2,0,5.7,2.6,5.7,5.7l0,0C168.4,258.2,165.8,260.7,162.6,260.7z"/>
		<path fill="#859894" d="M1064.2,260.7h-36.7c-3.2,0-5.7-2.6-5.7-5.7l0,0c0-3.2,2.6-5.7,5.7-5.7h36.7c3.2,0,5.7,2.6,5.7,5.7l0,0C1069.9,258.2,1067.3,260.7,1064.2,260.7z"/>
		<path fill="#859894" d="M1124.3,260.7h-36.7c-3.2,0-5.7-2.6-5.7-5.7l0,0c0-3.2,2.6-5.7,5.7-5.7h36.7c3.2,0,5.7,2.6,5.7,5.7l0,0C1130,258.2,1127.4,260.7,1124.3,260.7z"/>
		<path fill="#859894" d="M1184.4,260.7h-36.7c-3.2,0-5.7-2.6-5.7-5.7l0,0c0-3.2,2.6-5.7,5.7-5.7h36.7c3.2,0,5.7,2.6,5.7,5.7l0,0C1190.1,258.1,1187.5,260.7,1184.4,260.7z"/>
	</g>
	<g class='180-row 180-row-10'>
		<path fill="#859894" d="M1184.4,292h-36.7c-3.2,0-5.7-2.6-5.7-5.7l0,0c0-3.2,2.6-5.7,5.7-5.7h36.7c3.2,0,5.7,2.6,5.7,5.7l0,0C1190.1,289.5,1187.5,292,1184.4,292z"/>
		<path fill="#859894" d="M42.4,292H5.7c-3.2,0-5.7-2.6-5.7-5.7l0,0c0-3.2,2.6-5.7,5.7-5.7h36.7c3.2,0,5.7,2.6,5.7,5.7l0,0C48.2,289.5,45.6,292,42.4,292z"/>
		<path fill="#859894" d="M102.5,292H65.8c-3.2,0-5.7-2.6-5.7-5.7l0,0c0-3.2,2.6-5.7,5.7-5.7h36.7c3.2,0,5.7,2.6,5.7,5.7l0,0C108.3,289.4,105.7,292,102.5,292z"/>
		<path fill="#859894" d="M162.6,292h-36.7c-3.2,0-5.7-2.6-5.7-5.7l0,0c0-3.2,2.6-5.7,5.7-5.7h36.7c3.2,0,5.7,2.6,5.7,5.7l0,0C168.4,289.4,165.8,292,162.6,292z"/>
		<path fill="#859894" d="M1064.2,292h-36.7c-3.2,0-5.7-2.6-5.7-5.7l0,0c0-3.2,2.6-5.7,5.7-5.7h36.7c3.2,0,5.7,2.6,5.7,5.7l0,0C1069.9,289.4,1067.3,292,1064.2,292z"/>
		<path fill="#859894" d="M1124.3,292h-36.7c-3.2,0-5.7-2.6-5.7-5.7l0,0c0-3.2,2.6-5.7,5.7-5.7h36.7c3.2,0,5.7,2.6,5.7,5.7l0,0C1130,289.4,1127.4,292,1124.3,292z"/>
	</g>
	<g class='180-row 180-row-11'>
		<path fill="#859894" d="M102.5,323.4H65.8c-3.2,0-5.7-2.6-5.7-5.7l0,0c0-3.2,2.6-5.7,5.7-5.7h36.7c3.2,0,5.7,2.6,5.7,5.7l0,0C108.3,320.8,105.7,323.4,102.5,323.4z"/>
		<path fill="#859894" d="M162.6,323.4h-36.7c-3.2,0-5.7-2.6-5.7-5.7l0,0c0-3.2,2.6-5.7,5.7-5.7h36.7c3.2,0,5.7,2.6,5.7,5.7l0,0C168.4,320.8,165.8,323.4,162.6,323.4z"/>
		<path fill="#859894" d="M1065.3,323.4h-36.7c-3.2,0-5.7-2.6-5.7-5.7l0,0c0-3.2,2.6-5.7,5.7-5.7h36.7c3.2,0,5.7,2.6,5.7,5.7l0,0C1071.1,320.8,1068.5,323.4,1065.3,323.4z"/>
		<path fill="#859894" d="M1125.4,323.4h-36.7c-3.2,0-5.7-2.6-5.7-5.7l0,0c0-3.2,2.6-5.7,5.7-5.7h36.7c3.2,0,5.7,2.6,5.7,5.7l0,0C1131.2,320.8,1128.6,323.4,1125.4,323.4z"/>
	</g>
	<g class='180-row 180-row-12'>
		<path fill="#859894" d="M102.5,354.7H65.8c-3.2,0-5.7-2.6-5.7-5.7l0,0c0-3.2,2.6-5.7,5.7-5.7h36.7c3.2,0,5.7,2.6,5.7,5.7l0,0C108.3,352.2,105.7,354.7,102.5,354.7z"/>
		<path fill="#859894" d="M162.6,354.7h-36.7c-3.2,0-5.7-2.6-5.7-5.7l0,0c0-3.2,2.6-5.7,5.7-5.7h36.7c3.2,0,5.7,2.6,5.7,5.7l0,0C168.4,352.2,165.8,354.7,162.6,354.7z"/>
		<path fill="#859894" d="M222.7,354.7H186c-3.2,0-5.7-2.6-5.7-5.7l0,0c0-3.2,2.6-5.7,5.7-5.7h36.7c3.2,0,5.7,2.6,5.7,5.7l0,0C228.5,352.2,225.9,354.7,222.7,354.7z"/>
		<path fill="#859894" d="M282.8,354.7h-36.7c-3.2,0-5.7-2.6-5.7-5.7l0,0c0-3.2,2.6-5.7,5.7-5.7h36.7c3.2,0,5.7,2.6,5.7,5.7l0,0C288.6,352.2,286,354.7,282.8,354.7z"/>
		<path fill="#859894" d="M342.9,354.7h-36.7c-3.2,0-5.7-2.6-5.7-5.7l0,0c0-3.2,2.6-5.7,5.7-5.7h36.7c3.2,0,5.7,2.6,5.7,5.7l0,0C348.7,352.2,346.1,354.7,342.9,354.7z"/>
		<path fill="#859894" d="M403,354.7h-36.7c-3.2,0-5.7-2.6-5.7-5.7l0,0c0-3.2,2.6-5.7,5.7-5.7H403c3.2,0,5.7,2.6,5.7,5.7l0,0C408.8,352.2,406.2,354.7,403,354.7z"/>
		<path fill="#859894" d="M463.1,354.7h-36.7c-3.2,0-5.7-2.6-5.7-5.7l0,0c0-3.2,2.6-5.7,5.7-5.7h36.7c3.2,0,5.7,2.6,5.7,5.7l0,0C468.9,352.2,466.3,354.7,463.1,354.7z"/>
		<path fill="#859894" d="M523.2,354.7h-36.7c-3.2,0-5.7-2.6-5.7-5.7l0,0c0-3.2,2.6-5.7,5.7-5.7h36.7c3.2,0,5.7,2.6,5.7,5.7l0,0C529,352.2,526.4,354.7,523.2,354.7z"/>
		<path fill="#859894" d="M583.3,354.7h-36.7c-3.2,0-5.7-2.6-5.7-5.7l0,0c0-3.2,2.6-5.7,5.7-5.7h36.7c3.2,0,5.7,2.6,5.7,5.7l0,0C589.1,352.2,586.5,354.7,583.3,354.7z"/>
		<path fill="#859894" d="M643.4,354.7h-36.7c-3.2,0-5.7-2.6-5.7-5.7l0,0c0-3.2,2.6-5.7,5.7-5.7h36.7c3.2,0,5.7,2.6,5.7,5.7l0,0C649.2,352.2,646.6,354.7,643.4,354.7z"/>
		<path fill="#859894" d="M703.6,354.7h-36.7c-3.2,0-5.7-2.6-5.7-5.7l0,0c0-3.2,2.6-5.7,5.7-5.7h36.7c3.2,0,5.7,2.6,5.7,5.7l0,0C709.3,352.2,706.7,354.7,703.6,354.7z"/>
		<path fill="#859894" d="M763.7,354.7H727c-3.2,0-5.7-2.6-5.7-5.7l0,0c0-3.2,2.6-5.7,5.7-5.7h36.7c3.2,0,5.7,2.6,5.7,5.7l0,0C769.4,352.2,766.8,354.7,763.7,354.7z"/>
		<path fill="#859894" d="M823.8,354.7h-36.7c-3.2,0-5.7-2.6-5.7-5.7l0,0c0-3.2,2.6-5.7,5.7-5.7h36.7c3.2,0,5.7,2.6,5.7,5.7l0,0C829.5,352.2,826.9,354.7,823.8,354.7z"/>
		<path fill="#859894" d="M883.9,354.7h-36.7c-3.2,0-5.7-2.6-5.7-5.7l0,0c0-3.2,2.6-5.7,5.7-5.7h36.7c3.2,0,5.7,2.6,5.7,5.7l0,0C889.6,352.2,887,354.7,883.9,354.7z"/>
		<path fill="#859894" d="M944,354.7h-36.7c-3.2,0-5.7-2.6-5.7-5.7l0,0c0-3.2,2.6-5.7,5.7-5.7H944c3.2,0,5.7,2.6,5.7,5.7l0,0C949.7,352.2,947.1,354.7,944,354.7z"/>
		<path fill="#859894" d="M1005.2,354.7h-36.7c-3.2,0-5.7-2.6-5.7-5.7l0,0c0-3.2,2.6-5.7,5.7-5.7h36.7c3.2,0,5.7,2.6,5.7,5.7l0,0C1011,352.2,1008.4,354.7,1005.2,354.7z"/>
		<path fill="#859894" d="M1065.3,354.7h-36.7c-3.2,0-5.7-2.6-5.7-5.7l0,0c0-3.2,2.6-5.7,5.7-5.7h36.7c3.2,0,5.7,2.6,5.7,5.7l0,0C1071.1,352.2,1068.5,354.7,1065.3,354.7z"/>
		<path fill="#859894" d="M1125.4,354.7h-36.7c-3.2,0-5.7-2.6-5.7-5.7l0,0c0-3.2,2.6-5.7,5.7-5.7h36.7c3.2,0,5.7,2.6,5.7,5.7l0,0C1131.2,352.2,1128.6,354.7,1125.4,354.7z"/>
	</g>
	<g class='180-row 180-row-13'>
		<path fill="#859894" d="M102.5,386.1H65.8c-3.2,0-5.7-2.6-5.7-5.7l0,0c0-3.2,2.6-5.7,5.7-5.7h36.7c3.2,0,5.7,2.6,5.7,5.7l0,0C108.3,383.5,105.7,386.1,102.5,386.1z"/>
		<path fill="#859894" d="M162.6,386.1h-36.7c-3.2,0-5.7-2.6-5.7-5.7l0,0c0-3.2,2.6-5.7,5.7-5.7h36.7c3.2,0,5.7,2.6,5.7,5.7l0,0C168.4,383.5,165.8,386.1,162.6,386.1z"/>
		<path fill="#859894" d="M222.7,386.1H186c-3.2,0-5.7-2.6-5.7-5.7l0,0c0-3.2,2.6-5.7,5.7-5.7h36.7c3.2,0,5.7,2.6,5.7,5.7l0,0C228.5,383.5,225.9,386.1,222.7,386.1z"/>
		<path fill="#859894" d="M282.8,386.1h-36.7c-3.2,0-5.7-2.6-5.7-5.7l0,0c0-3.2,2.6-5.7,5.7-5.7h36.7c3.2,0,5.7,2.6,5.7,5.7l0,0C288.6,383.5,286,386.1,282.8,386.1z"/>
		<path fill="#859894" d="M342.9,386.1h-36.7c-3.2,0-5.7-2.6-5.7-5.7l0,0c0-3.2,2.6-5.7,5.7-5.7h36.7c3.2,0,5.7,2.6,5.7,5.7l0,0C348.7,383.5,346.1,386.1,342.9,386.1z"/>
		<path fill="#859894" d="M403,386.1h-36.7c-3.2,0-5.7-2.6-5.7-5.7l0,0c0-3.2,2.6-5.7,5.7-5.7H403c3.2,0,5.7,2.6,5.7,5.7l0,0C408.8,383.5,406.2,386.1,403,386.1z"/>
		<path fill="#859894" d="M463.1,386.1h-36.7c-3.2,0-5.7-2.6-5.7-5.7l0,0c0-3.2,2.6-5.7,5.7-5.7h36.7c3.2,0,5.7,2.6,5.7,5.7l0,0C468.9,383.5,466.3,386.1,463.1,386.1z"/>
		<path fill="#859894" d="M523.2,386.1h-36.7c-3.2,0-5.7-2.6-5.7-5.7l0,0c0-3.2,2.6-5.7,5.7-5.7h36.7c3.2,0,5.7,2.6,5.7,5.7l0,0C529,383.5,526.4,386.1,523.2,386.1z"/>
		<path fill="#859894" d="M583.3,386.1h-36.7c-3.2,0-5.7-2.6-5.7-5.7l0,0c0-3.2,2.6-5.7,5.7-5.7h36.7c3.2,0,5.7,2.6,5.7,5.7l0,0C589.1,383.5,586.5,386.1,583.3,386.1z"/>
		<path fill="#859894" d="M643.4,386.1h-36.7c-3.2,0-5.7-2.6-5.7-5.7l0,0c0-3.2,2.6-5.7,5.7-5.7h36.7c3.2,0,5.7,2.6,5.7,5.7l0,0C649.2,383.5,646.6,386.1,643.4,386.1z"/>
		<path fill="#859894" d="M703.6,386.1h-36.7c-3.2,0-5.7-2.6-5.7-5.7l0,0c0-3.2,2.6-5.7,5.7-5.7h36.7c3.2,0,5.7,2.6,5.7,5.7l0,0C709.3,383.5,706.7,386.1,703.6,386.1z"/>
		<path fill="#859894" d="M763.7,386.1H727c-3.2,0-5.7-2.6-5.7-5.7l0,0c0-3.2,2.6-5.7,5.7-5.7h36.7c3.2,0,5.7,2.6,5.7,5.7l0,0C769.4,383.5,766.8,386.1,763.7,386.1z"/>
		<path fill="#859894" d="M823.8,386.1h-36.7c-3.2,0-5.7-2.6-5.7-5.7l0,0c0-3.2,2.6-5.7,5.7-5.7h36.7c3.2,0,5.7,2.6,5.7,5.7l0,0C829.5,383.5,826.9,386.1,823.8,386.1z"/>
		<path fill="#859894" d="M883.9,386.1h-36.7c-3.2,0-5.7-2.6-5.7-5.7l0,0c0-3.2,2.6-5.7,5.7-5.7h36.7c3.2,0,5.7,2.6,5.7,5.7l0,0C889.6,383.5,887,386.1,883.9,386.1z"/>
		<path fill="#859894" d="M944,386.1h-36.7c-3.2,0-5.7-2.6-5.7-5.7l0,0c0-3.2,2.6-5.7,5.7-5.7H944c3.2,0,5.7,2.6,5.7,5.7l0,0C949.7,383.5,947.1,386.1,944,386.1z"/>
		<path fill="#859894" d="M1005.2,386.1h-36.7c-3.2,0-5.7-2.6-5.7-5.7l0,0c0-3.2,2.6-5.7,5.7-5.7h36.7c3.2,0,5.7,2.6,5.7,5.7l0,0C1011,383.5,1008.4,386.1,1005.2,386.1z"/>
		<path fill="#859894" d="M1065.3,386.1h-36.7c-3.2,0-5.7-2.6-5.7-5.7l0,0c0-3.2,2.6-5.7,5.7-5.7h36.7c3.2,0,5.7,2.6,5.7,5.7l0,0C1071.1,383.5,1068.5,386.1,1065.3,386.1z"/>
		<path fill="#859894" d="M1125.4,386.1h-36.7c-3.2,0-5.7-2.6-5.7-5.7l0,0c0-3.2,2.6-5.7,5.7-5.7h36.7c3.2,0,5.7,2.6,5.7,5.7l0,0C1131.2,383.5,1128.6,386.1,1125.4,386.1z"/>
	</g>
	<g class='180-row 180-row-14'>
		<path fill="#859894" d="M523.2,417.5h-36.7c-3.2,0-5.7-2.6-5.7-5.7l0,0c0-3.2,2.6-5.7,5.7-5.7h36.7c3.2,0,5.7,2.6,5.7,5.7l0,0C529,414.9,526.4,417.5,523.2,417.5z"/>
		<path fill="#859894" d="M583.3,417.5h-36.7c-3.2,0-5.7-2.6-5.7-5.7l0,0c0-3.2,2.6-5.7,5.7-5.7h36.7c3.2,0,5.7,2.6,5.7,5.7l0,0C589.1,414.9,586.5,417.5,583.3,417.5z"/>
		<path fill="#859894" d="M643.4,417.5h-36.7c-3.2,0-5.7-2.6-5.7-5.7l0,0c0-3.2,2.6-5.7,5.7-5.7h36.7c3.2,0,5.7,2.6,5.7,5.7l0,0C649.2,414.9,646.6,417.5,643.4,417.5z"/>
		<path fill="#859894" d="M703.6,417.5h-36.7c-3.2,0-5.7-2.6-5.7-5.7l0,0c0-3.2,2.6-5.7,5.7-5.7h36.7c3.2,0,5.7,2.6,5.7,5.7l0,0C709.3,414.9,706.7,417.5,703.6,417.5z"/>
		<path fill="#859894" d="M763.7,417.5H727c-3.2,0-5.7-2.6-5.7-5.7l0,0c0-3.2,2.6-5.7,5.7-5.7h36.7c3.2,0,5.7,2.6,5.7,5.7l0,0C769.4,414.9,766.8,417.5,763.7,417.5z"/>
		<path fill="#859894" d="M823.8,417.5h-36.7c-3.2,0-5.7-2.6-5.7-5.7l0,0c0-3.2,2.6-5.7,5.7-5.7h36.7c3.2,0,5.7,2.6,5.7,5.7l0,0C829.5,414.9,826.9,417.5,823.8,417.5z"/>
		<path fill="#859894" d="M883.9,417.5h-36.7c-3.2,0-5.7-2.6-5.7-5.7l0,0c0-3.2,2.6-5.7,5.7-5.7h36.7c3.2,0,5.7,2.6,5.7,5.7l0,0C889.6,414.9,887,417.5,883.9,417.5z"/>
		<path fill="#859894" d="M944,417.5h-36.7c-3.2,0-5.7-2.6-5.7-5.7l0,0c0-3.2,2.6-5.7,5.7-5.7H944c3.2,0,5.7,2.6,5.7,5.7l0,0C949.7,414.9,947.1,417.5,944,417.5z"/>
		<path fill="#859894" d="M282.8,417.5h-36.7c-3.2,0-5.7-2.6-5.7-5.7l0,0c0-3.2,2.6-5.7,5.7-5.7h36.7c3.2,0,5.7,2.6,5.7,5.7l0,0C288.6,414.9,286,417.5,282.8,417.5z"/>
		<path fill="#859894" d="M342.9,417.5h-36.7c-3.2,0-5.7-2.6-5.7-5.7l0,0c0-3.2,2.6-5.7,5.7-5.7h36.7c3.2,0,5.7,2.6,5.7,5.7l0,0C348.7,414.9,346.1,417.5,342.9,417.5z"/>
		<path fill="#859894" d="M403,417.5h-36.7c-3.2,0-5.7-2.6-5.7-5.7l0,0c0-3.2,2.6-5.7,5.7-5.7H403c3.2,0,5.7,2.6,5.7,5.7l0,0C408.8,414.9,406.2,417.5,403,417.5z"/>
		<path fill="#859894" d="M463.1,417.5h-36.7c-3.2,0-5.7-2.6-5.7-5.7l0,0c0-3.2,2.6-5.7,5.7-5.7h36.7c3.2,0,5.7,2.6,5.7,5.7l0,0C468.9,414.9,466.3,417.5,463.1,417.5z"/>
		<path fill="#859894" d="M1006.2,417.5h-36.7c-3.2,0-5.7-2.6-5.7-5.7l0,0c0-3.2,2.6-5.7,5.7-5.7h36.7c3.2,0,5.7,2.6,5.7,5.7l0,0C1012,414.9,1009.4,417.5,1006.2,417.5z"/>
		<path fill="#859894" d="M1066.3,417.5h-36.7c-3.2,0-5.7-2.6-5.7-5.7l0,0c0-3.2,2.6-5.7,5.7-5.7h36.7c3.2,0,5.7,2.6,5.7,5.7l0,0C1072.1,414.9,1069.5,417.5,1066.3,417.5z"/>
		<path fill="#859894" d="M1126.4,417.5h-36.7c-3.2,0-5.7-2.6-5.7-5.7l0,0c0-3.2,2.6-5.7,5.7-5.7h36.7c3.2,0,5.7,2.6,5.7,5.7l0,0C1132.2,414.9,1129.6,417.5,1126.4,417.5z"/>
		<path fill="#859894" d="M101.5,418.5H64.8c-3.2,0-5.7-2.6-5.7-5.7l0,0c0-3.2,2.6-5.7,5.7-5.7h36.7c3.2,0,5.7,2.6,5.7,5.7l0,0C107.3,415.9,104.7,418.5,101.5,418.5z"/>
		<path fill="#859894" d="M161.6,418.5h-36.7c-3.2,0-5.7-2.6-5.7-5.7l0,0c0-3.2,2.6-5.7,5.7-5.7h36.7c3.2,0,5.7,2.6,5.7,5.7l0,0C167.4,415.9,164.8,418.5,161.6,418.5z"/>
		<path fill="#859894" d="M221.7,418.5H185c-3.2,0-5.7-2.6-5.7-5.7l0,0c0-3.2,2.6-5.7,5.7-5.7h36.7c3.2,0,5.7,2.6,5.7,5.7l0,0C227.5,415.9,224.9,418.5,221.7,418.5z"/>
	</g>
	<g class='180-row 180-row-15'>
		<path fill="#859894" d="M281.6,447.8h-36.7c-3.2,0-5.7-2.6-5.7-5.7l0,0c0-3.2,2.6-5.7,5.7-5.7h36.7c3.2,0,5.7,2.6,5.7,5.7l0,0C287.3,445.3,284.7,447.8,281.6,447.8z"/>
		<path fill="#859894" d="M161.6,447.8h-36.7c-3.2,0-5.7-2.6-5.7-5.7l0,0c0-3.2,2.6-5.7,5.7-5.7h36.7c3.2,0,5.7,2.6,5.7,5.7l0,0C167.4,445.3,164.8,447.8,161.6,447.8z"/>
		<path fill="#859894" d="M102.5,448.8H65.8c-3.2,0-5.7-2.6-5.7-5.7l0,0c0-3.2,2.6-5.7,5.7-5.7h36.7c3.2,0,5.7,2.6,5.7,5.7l0,0C108.3,446.3,105.7,448.8,102.5,448.8z"/>
		<path fill="#859894" d="M763.7,448.8H727c-3.2,0-5.7-2.6-5.7-5.7l0,0c0-3.2,2.6-5.7,5.7-5.7h36.7c3.2,0,5.7,2.6,5.7,5.7l0,0C769.4,446.3,766.8,448.8,763.7,448.8z"/>
		<path fill="#859894" d="M823.8,448.8h-36.7c-3.2,0-5.7-2.6-5.7-5.7l0,0c0-3.2,2.6-5.7,5.7-5.7h36.7c3.2,0,5.7,2.6,5.7,5.7l0,0C829.5,446.3,826.9,448.8,823.8,448.8z"/>
		<path fill="#859894" d="M883.9,448.8h-36.7c-3.2,0-5.7-2.6-5.7-5.7l0,0c0-3.2,2.6-5.7,5.7-5.7h36.7c3.2,0,5.7,2.6,5.7,5.7l0,0C889.6,446.3,887,448.8,883.9,448.8z"/>
		<path fill="#859894" d="M403,448.8h-36.7c-3.2,0-5.7-2.6-5.7-5.7l0,0c0-3.2,2.6-5.7,5.7-5.7H403c3.2,0,5.7,2.6,5.7,5.7l0,0C408.8,446.3,406.2,448.8,403,448.8z"/>
		<path fill="#859894" d="M943.8,448.8h-36.7c-3.2,0-5.7-2.6-5.7-5.7l0,0c0-3.2,2.6-5.7,5.7-5.7h36.7c3.2,0,5.7,2.6,5.7,5.7l0,0C949.5,446.3,947,448.8,943.8,448.8z"/>
		<path fill="#859894" d="M221.7,446.8H185c-3.2,0-5.7-2.6-5.7-5.7l0,0c0-3.2,2.6-5.7,5.7-5.7h36.7c3.2,0,5.7,2.6,5.7,5.7l0,0C227.5,444.3,224.9,446.8,221.7,446.8z"/>
		<path fill="#859894" d="M1126.4,447.8h-36.7c-3.2,0-5.7-2.6-5.7-5.7l0,0c0-3.2,2.6-5.7,5.7-5.7h36.7c3.2,0,5.7,2.6,5.7,5.7l0,0C1132.1,445.3,1129.6,447.8,1126.4,447.8z"/>
		<path fill="#859894" d="M1006.2,448.8h-36.7c-3.2,0-5.7-2.6-5.7-5.7l0,0c0-3.2,2.6-5.7,5.7-5.7h36.7c3.2,0,5.7,2.6,5.7,5.7l0,0C1012,446.3,1009.4,448.8,1006.2,448.8z"/>
		<path fill="#859894" d="M342.9,448.8h-36.7c-3.2,0-5.7-2.6-5.7-5.7l0,0c0-3.2,2.6-5.7,5.7-5.7h36.7c3.2,0,5.7,2.6,5.7,5.7l0,0C348.7,446.3,346.1,448.8,342.9,448.8z"/>
		<path fill="#859894" d="M463.1,448.8h-36.7c-3.2,0-5.7-2.6-5.7-5.7l0,0c0-3.2,2.6-5.7,5.7-5.7h36.7c3.2,0,5.7,2.6,5.7,5.7l0,0C468.9,446.3,466.3,448.8,463.1,448.8z"/>
		<path fill="#859894" d="M523.2,448.8h-36.7c-3.2,0-5.7-2.6-5.7-5.7l0,0c0-3.2,2.6-5.7,5.7-5.7h36.7c3.2,0,5.7,2.6,5.7,5.7l0,0C529,446.3,526.4,448.8,523.2,448.8z"/>
		<path fill="#859894" d="M583.3,448.8h-36.7c-3.2,0-5.7-2.6-5.7-5.7l0,0c0-3.2,2.6-5.7,5.7-5.7h36.7c3.2,0,5.7,2.6,5.7,5.7l0,0C589.1,446.3,586.5,448.8,583.3,448.8z"/>
		<path fill="#859894" d="M643.4,448.8h-36.7c-3.2,0-5.7-2.6-5.7-5.7l0,0c0-3.2,2.6-5.7,5.7-5.7h36.7c3.2,0,5.7,2.6,5.7,5.7l0,0C649.2,446.3,646.6,448.8,643.4,448.8z"/>
		<path fill="#859894" d="M703.6,448.8h-36.7c-3.2,0-5.7-2.6-5.7-5.7l0,0c0-3.2,2.6-5.7,5.7-5.7h36.7c3.2,0,5.7,2.6,5.7,5.7l0,0C709.3,446.3,706.7,448.8,703.6,448.8z"/>
		<path fill="#859894" d="M1066.3,447.8h-36.7c-3.2,0-5.7-2.6-5.7-5.7l0,0c0-3.2,2.6-5.7,5.7-5.7h36.7c3.2,0,5.7,2.6,5.7,5.7l0,0C1072.1,445.3,1069.5,447.8,1066.3,447.8z"/>
	</g>
	<g class='180-row 180-row-16'>
		<path fill="#859894" d="M1128.3,481.2h-36.7c-3.2,0-5.7-2.6-5.7-5.7l0,0c0-3.2,2.6-5.7,5.7-5.7h36.7c3.2,0,5.7,2.6,5.7,5.7l0,0C1134.1,478.6,1131.5,481.2,1128.3,481.2z"/>
		<path fill="#859894" d="M102.5,480.2H65.8c-3.2,0-5.7-2.6-5.7-5.7l0,0c0-3.2,2.6-5.7,5.7-5.7h36.7c3.2,0,5.7,2.6,5.7,5.7l0,0C108.3,477.6,105.7,480.2,102.5,480.2z"/>
		<path fill="#859894" d="M341.9,480.2h-36.7c-3.2,0-5.7-2.6-5.7-5.7l0,0c0-3.2,2.6-5.7,5.7-5.7h36.7c3.2,0,5.7,2.6,5.7,5.7l0,0C347.7,477.6,345.1,480.2,341.9,480.2z"/>
		<path fill="#859894" d="M402.6,480.2h-36.7c-3.2,0-5.7-2.6-5.7-5.7l0,0c0-3.2,2.6-5.7,5.7-5.7h36.7c3.2,0,5.7,2.6,5.7,5.7l0,0C408.3,477.6,405.8,480.2,402.6,480.2z"/>
		<path fill="#859894" d="M162.5,481.2h-36.7c-3.2,0-5.7-2.6-5.7-5.7l0,0c0-3.2,2.6-5.7,5.7-5.7h36.7c3.2,0,5.7,2.6,5.7,5.7l0,0C168.2,478.6,165.7,481.2,162.5,481.2z"/>
		<path fill="#859894" d="M464.1,480.2h-36.7c-3.2,0-5.7-2.6-5.7-5.7l0,0c0-3.2,2.6-5.7,5.7-5.7h36.7c3.2,0,5.7,2.6,5.7,5.7l0,0C469.9,477.6,467.3,480.2,464.1,480.2z"/>
		<path fill="#859894" d="M1007.5,481h-36.7c-3.2,0-5.7-2.6-5.7-5.7l0,0c0-3.2,2.6-5.7,5.7-5.7h36.7c3.2,0,5.7,2.6,5.7,5.7l0,0C1013.2,478.4,1010.7,481,1007.5,481z"/>
		<path fill="#859894" d="M884.9,481h-36.7c-3.2,0-5.7-2.6-5.7-5.7l0,0c0-3.2,2.6-5.7,5.7-5.7h36.7c3.2,0,5.7,2.6,5.7,5.7l0,0C890.6,478.4,888,481,884.9,481z"/>
		<path fill="#859894" d="M703.6,481h-36.7c-3.2,0-5.7-2.6-5.7-5.7l0,0c0-3.2,2.6-5.7,5.7-5.7h36.7c3.2,0,5.7,2.6,5.7,5.7l0,0C709.3,478.4,706.7,481,703.6,481z"/>
		<path fill="#859894" d="M763.7,481H727c-3.2,0-5.7-2.6-5.7-5.7l0,0c0-3.2,2.6-5.7,5.7-5.7h36.7c3.2,0,5.7,2.6,5.7,5.7l0,0C769.4,478.4,766.8,481,763.7,481z"/>
		<path fill="#859894" d="M823.8,481h-36.7c-3.2,0-5.7-2.6-5.7-5.7l0,0c0-3.2,2.6-5.7,5.7-5.7h36.7c3.2,0,5.7,2.6,5.7,5.7l0,0C829.5,478.4,826.9,481,823.8,481z"/>
		<path fill="#859894" d="M523.9,481h-36.7c-3.2,0-5.7-2.6-5.7-5.7l0,0c0-3.2,2.6-5.7,5.7-5.7h36.7c3.2,0,5.7,2.6,5.7,5.7l0,0C529.6,478.4,527.1,481,523.9,481z"/>
		<path fill="#859894" d="M221.7,480.2H185c-3.2,0-5.7-2.6-5.7-5.7l0,0c0-3.2,2.6-5.7,5.7-5.7h36.7c3.2,0,5.7,2.6,5.7,5.7l0,0C227.5,477.6,224.9,480.2,221.7,480.2z"/>
		<path fill="#859894" d="M1066.3,481.2h-36.7c-3.2,0-5.7-2.6-5.7-5.7l0,0c0-3.2,2.6-5.7,5.7-5.7h36.7c3.2,0,5.7,2.6,5.7,5.7l0,0C1072.1,478.6,1069.5,481.2,1066.3,481.2z"/>
		<path fill="#859894" d="M281.8,480.2h-36.7c-3.2,0-5.7-2.6-5.7-5.7l0,0c0-3.2,2.6-5.7,5.7-5.7h36.7c3.2,0,5.7,2.6,5.7,5.7l0,0C287.6,477.6,285,480.2,281.8,480.2z"/>
		<path fill="#859894" d="M643.4,481h-36.7c-3.2,0-5.7-2.6-5.7-5.7l0,0c0-3.2,2.6-5.7,5.7-5.7h36.7c3.2,0,5.7,2.6,5.7,5.7l0,0C649.2,478.4,646.6,481,643.4,481z"/>
		<path fill="#859894" d="M944.5,481h-36.7c-3.2,0-5.7-2.6-5.7-5.7l0,0c0-3.2,2.6-5.7,5.7-5.7h36.7c3.2,0,5.7,2.6,5.7,5.7l0,0C950.2,478.4,947.6,481,944.5,481z"/>
		<path fill="#859894" d="M583.3,481h-36.7c-3.2,0-5.7-2.6-5.7-5.7l0,0c0-3.2,2.6-5.7,5.7-5.7h36.7c3.2,0,5.7,2.6,5.7,5.7l0,0C589.1,478.4,586.5,481,583.3,481z"/>
	</g>
</svg>
