<?xml version="1.0" encoding="utf-8"?>
<!-- Generator: Adobe Illustrator 20.1.0, SVG Export Plug-In . SVG Version: 6.00 Build 0)  -->
<svg version="1.1" id="Layer_1" xmlns="http://www.w3.org/2000/svg" xmlns:xlink="http://www.w3.org/1999/xlink" x="0px" y="0px"
	 viewBox="0 0 357.4 244.1" enable-background="new 0 0 357.4 244.1" xml:space="preserve">
<g>
	<g>
		<path fill="#004B85" d="M127.6,85.6h-24.2l29-66.3H90.7V0h67.1v15.3L127.6,85.6z"/>
		<path fill="#004B85" d="M199.5,87.1c-14.5,0-25.9-4.1-34.4-12.4L177,59.1c6.1,5.6,13.5,8.5,22.2,8.5c4.4,0,7.9-0.9,10.3-2.8
			c2.4-1.9,3.7-4.2,3.7-7.1c0-3-1.2-5.4-3.5-7.2c-2.3-1.8-5.6-2.7-9.9-2.7c-6.8,0-12.4,2.1-16.9,6.4l-15.3-3.7V0h62.1v19.2h-40v16.5
			c4.7-4.5,10.8-6.8,18.3-6.8c7.6,0,14.1,2.5,19.5,7.6c5.4,5.1,8.1,11.8,8.1,20.2c0,9.2-3.3,16.6-9.8,22.1
			C219.4,84.4,210.6,87.1,199.5,87.1z"/>
	</g>
	<g opacity="0.8">
		<path fill="#004B85" d="M53.9,129.2c-3.6,0-6.6-1.1-9-3.4c-2.4-2.2-3.6-5.1-3.6-8.6c0-3.5,1.2-6.4,3.6-8.6c2.4-2.2,5.4-3.3,9-3.3
			c2.6,0,4.7,0.6,6.3,1.8c1.6,1.2,2.9,2.7,3.8,4.4l-5.1,2.5c-0.4-0.9-1-1.7-2-2.4c-0.9-0.6-1.9-1-3-1c-1.9,0-3.4,0.6-4.6,1.9
			c-1.2,1.3-1.8,2.9-1.8,4.8c0,1.9,0.6,3.5,1.8,4.8c1.2,1.3,2.8,1.9,4.6,1.9c1.1,0,2.1-0.3,3-1c0.9-0.6,1.6-1.4,2-2.4L64,123
			c-0.9,1.8-2.1,3.2-3.8,4.4C58.5,128.6,56.4,129.2,53.9,129.2z"/>
		<path fill="#004B85" d="M92.6,126.6c-1.8,1.8-4.6,2.7-8.1,2.7s-6.3-0.9-8.2-2.7c-1.9-1.8-2.8-4.2-2.8-7.1v-13.8h6.1v13.6
			c0,1.4,0.4,2.6,1.3,3.4c0.8,0.9,2.1,1.3,3.6,1.3c1.6,0,2.7-0.4,3.6-1.3c0.8-0.9,1.3-2,1.3-3.4v-13.6h6v13.8
			C95.4,122.4,94.5,124.8,92.6,126.6z"/>
		<path fill="#004B85" d="M115.1,129.2c-4.2,0-7.7-1.2-10.3-3.7l3.2-4.7c2,2,4.5,3.1,7.4,3.1c1,0,1.8-0.2,2.4-0.5
			c0.6-0.3,0.9-0.8,0.9-1.4c0-0.5-0.3-0.8-1-1.1c-0.6-0.3-1.5-0.5-2.4-0.7c-1-0.2-2-0.4-3.1-0.7s-2.2-0.7-3.1-1.2
			c-1-0.5-1.8-1.2-2.4-2.2c-0.6-1-1-2.2-1-3.6c0-2.1,0.8-3.8,2.5-5.2c1.6-1.4,3.9-2.1,6.7-2.1c3.8,0,6.9,1.1,9.4,3.2L121,113
			c-1.9-1.6-4.2-2.4-6.8-2.4c-1.7,0-2.5,0.5-2.5,1.6c0,0.5,0.5,0.9,1.4,1.2c0.9,0.3,2,0.6,3.3,0.9c1.3,0.3,2.6,0.6,3.8,1
			c1.3,0.4,2.4,1.2,3.3,2.2c0.9,1.1,1.4,2.4,1.4,4c0,2.4-0.8,4.2-2.5,5.6C120.6,128.5,118.2,129.2,115.1,129.2z"/>
		<path fill="#004B85" d="M145.1,128.8h-6v-18h-6.5v-5.2h18.9v5.2h-6.5V128.8z"/>
		<path fill="#004B85" d="M180.6,125.9c-2.3,2.2-5.3,3.4-8.9,3.4c-3.6,0-6.5-1.1-8.9-3.4c-2.3-2.2-3.5-5.1-3.5-8.6
			c0-3.5,1.2-6.4,3.5-8.6s5.3-3.4,8.9-3.4c3.6,0,6.5,1.1,8.9,3.4c2.3,2.2,3.5,5.1,3.5,8.6C184.1,120.8,183,123.6,180.6,125.9z
			 M167.2,122c1.2,1.3,2.7,1.9,4.6,1.9c1.9,0,3.4-0.6,4.5-1.9c1.2-1.3,1.7-2.9,1.7-4.8c0-1.9-0.6-3.5-1.7-4.8
			c-1.2-1.3-2.7-1.9-4.5-1.9c-1.9,0-3.4,0.6-4.6,1.9s-1.8,2.9-1.8,4.8C165.4,119.2,166,120.8,167.2,122z"/>
		<path fill="#004B85" d="M220.4,128.8h-6v-15.3l-5.8,15.3h-2.6l-5.9-15.3v15.3h-6v-23.2h8.3l4.9,12.8l4.8-12.8h8.3V128.8z"/>
		<path fill="#004B85" d="M248.5,128.8h-17v-23.2h17v5.2h-11v3.6h10.8v5.2h-10.8v3.9h11V128.8z"/>
		<path fill="#004B85" d="M278.7,128.8h-6.8l-3.9-7.8h-3.1v7.8h-6v-23.2h11.6c2.5,0,4.5,0.7,5.9,2.2c1.4,1.5,2.2,3.3,2.2,5.5
			c0,1.9-0.5,3.4-1.4,4.5c-0.9,1.2-2,2-3.3,2.4L278.7,128.8z M269.6,115.8c0.8,0,1.5-0.2,2.1-0.7c0.5-0.4,0.8-1.1,0.8-1.8
			c0-0.8-0.3-1.4-0.8-1.8c-0.5-0.4-1.2-0.7-2.1-0.7h-4.7v5H269.6z"/>
		<path fill="#004B85" d="M297.4,129.2c-4.2,0-7.7-1.2-10.3-3.7l3.2-4.7c2,2,4.5,3.1,7.4,3.1c1,0,1.8-0.2,2.4-0.5
			c0.6-0.3,0.9-0.8,0.9-1.4c0-0.5-0.3-0.8-1-1.1c-0.6-0.3-1.5-0.5-2.4-0.7c-1-0.2-2-0.4-3.1-0.7s-2.2-0.7-3.1-1.2
			c-1-0.5-1.8-1.2-2.4-2.2c-0.6-1-1-2.2-1-3.6c0-2.1,0.8-3.8,2.5-5.2c1.6-1.4,3.9-2.1,6.7-2.1c3.8,0,6.9,1.1,9.4,3.2l-3.3,4.5
			c-1.9-1.6-4.2-2.4-6.8-2.4c-1.7,0-2.5,0.5-2.5,1.6c0,0.5,0.5,0.9,1.4,1.2c0.9,0.3,2,0.6,3.3,0.9c1.3,0.3,2.6,0.6,3.8,1
			c1.3,0.4,2.4,1.2,3.3,2.2c0.9,1.1,1.4,2.4,1.4,4c0,2.4-0.8,4.2-2.5,5.6C302.9,128.5,300.5,129.2,297.4,129.2z"/>
	</g>
	<g opacity="0.8">
		<path fill="#336F9D" d="M25.1,202h-5v-16.7L13.6,202h-2.2l-6.5-16.7V202H0v-23.2h6.9l5.6,14.5l5.6-14.5h6.9V202z"/>
		<path fill="#336F9D" d="M47.6,202.4c-3.5,0-6.4-1.1-8.7-3.4c-2.3-2.2-3.4-5.1-3.4-8.6c0-3.5,1.1-6.4,3.4-8.6s5.2-3.4,8.7-3.4
			c3.5,0,6.4,1.1,8.7,3.4c2.3,2.3,3.4,5.1,3.4,8.6c0,3.5-1.1,6.3-3.4,8.6C54,201.3,51.1,202.4,47.6,202.4z M42.5,195.9
			c1.3,1.4,3,2.2,5.1,2.2c2.1,0,3.8-0.7,5.1-2.2s1.9-3.3,1.9-5.5c0-2.2-0.6-4-1.9-5.5s-3-2.2-5.1-2.2c-2.1,0-3.8,0.7-5.1,2.2
			s-1.9,3.3-1.9,5.5C40.6,192.7,41.2,194.5,42.5,195.9z"/>
		<path fill="#336F9D" d="M78.4,202.4c-4.1,0-7.4-1.2-9.9-3.7l2.7-3.9c2,2.1,4.5,3.2,7.4,3.2c1.3,0,2.3-0.2,3-0.7
			c0.7-0.5,1-1.1,1-1.8c0-0.6-0.3-1.1-1-1.5c-0.7-0.4-1.5-0.7-2.5-0.9c-1-0.2-2.1-0.4-3.2-0.8c-1.2-0.3-2.2-0.7-3.2-1.2
			c-1-0.4-1.8-1.1-2.5-2.1c-0.7-0.9-1-2.1-1-3.5c0-2,0.8-3.7,2.4-5c1.6-1.4,3.7-2,6.4-2c3.7,0,6.7,1.1,9,3.2l-2.7,3.7
			c-1.8-1.7-4.1-2.5-6.7-2.5c-1,0-1.8,0.2-2.4,0.6c-0.6,0.4-0.9,1-0.9,1.7c0,0.6,0.3,1,1,1.4c0.7,0.4,1.5,0.7,2.5,0.9
			c1,0.2,2,0.5,3.2,0.8c1.1,0.3,2.2,0.7,3.2,1.2c1,0.5,1.8,1.2,2.5,2.1c0.7,1,1,2.1,1,3.5c0,2.2-0.8,4-2.4,5.4
			C83.7,201.8,81.4,202.4,78.4,202.4z"/>
		<path fill="#336F9D" d="M107.8,202h-5v-18.8h-6.8v-4.3h18.5v4.3h-6.7V202z"/>
		<path fill="#336F9D" d="M139.2,202h-14.8v-23.2h5v18.8h9.8V202z"/>
		<path fill="#336F9D" d="M156.5,202h-4.9v-9.5l-8.9-13.7h5.6l5.7,9.3l5.7-9.3h5.6l-8.9,13.7V202z"/>
		<path fill="#336F9D" d="M213.2,202H208l-4.1-15.9l-4,15.9h-5.2l-6.6-23.2h5.5l4.1,16.7l4.4-16.7h3.9l4.4,16.7l4.1-16.7h5.5
			L213.2,202z"/>
		<path fill="#336F9D" d="M234,202h-4.9v-23.2h4.9V202z"/>
		<path fill="#336F9D" d="M255.9,202h-5v-18.8h-6.8v-4.3h18.5v4.3h-6.7V202z"/>
		<path fill="#336F9D" d="M293.6,202h-5v-9.8h-10.9v9.8h-4.9v-23.2h4.9v9.1h10.9v-9.1h5V202z"/>
		<path fill="#336F9D" d="M310,202h-4.9v-23.2h4.9V202z"/>
		<path fill="#336F9D" d="M342.3,202h-4.8l-11-15.1V202h-4.9v-23.2h5.1l10.7,14.6v-14.6h4.9V202z"/>
		<path fill="#336F9D" d="M67.9,244.1c-2,0-3.8-0.3-5.4-1s-2.8-1.6-3.7-2.7l2.6-3.3c0.8,0.8,1.7,1.5,2.9,1.9s2.3,0.7,3.5,0.7
			c1.4,0,2.5-0.3,3.2-0.8s1.1-1.3,1.1-2.1c0-0.9-0.4-1.6-1.1-2c-0.7-0.4-1.9-0.6-3.5-0.6c-1.5,0-2.4,0-2.9,0.1v-4.4
			c0.3,0,1.2,0,2.9,0c2.9,0,4.3-0.8,4.3-2.5c0-0.9-0.4-1.6-1.2-2s-1.8-0.7-3.1-0.7c-2.3,0-4.2,0.8-5.9,2.4l-2.5-3.1
			c2.2-2.5,5.1-3.7,8.9-3.7c2.7,0,4.8,0.6,6.4,1.7c1.6,1.1,2.3,2.7,2.3,4.6c0,1.4-0.5,2.6-1.5,3.5c-1,0.9-2.2,1.5-3.6,1.8
			c1.4,0.1,2.6,0.7,3.7,1.7c1.1,1,1.7,2.3,1.7,3.9c0,2-0.8,3.7-2.5,4.9S70.7,244.1,67.9,244.1z"/>
		<path fill="#336F9D" d="M101.6,242.3c-1.5,1.2-3.3,1.8-5.4,1.8c-2.1,0-3.9-0.6-5.4-1.8c-1.5-1.2-2.6-2.7-3.2-4.4
			c-0.6-1.8-1-3.7-1-5.8c0-2.1,0.3-4,1-5.8c0.6-1.8,1.7-3.2,3.2-4.4c1.5-1.2,3.3-1.8,5.4-1.8c2.1,0,3.9,0.6,5.4,1.8s2.6,2.7,3.2,4.4
			s1,3.7,1,5.8c0,2.1-0.3,4-1,5.8S103.1,241.1,101.6,242.3z M92.7,237.7c0.7,1.4,1.9,2.1,3.5,2.1c1.6,0,2.7-0.7,3.5-2.1
			c0.7-1.4,1.1-3.2,1.1-5.5c0-2.3-0.4-4.2-1.1-5.5s-1.9-2-3.5-2c-1.6,0-2.7,0.7-3.5,2.1c-0.7,1.4-1.1,3.2-1.1,5.5
			C91.6,234.4,92,236.3,92.7,237.7z"/>
		<path fill="#336F9D" d="M130,242.3c-1.5,1.2-3.3,1.8-5.4,1.8c-2.1,0-3.9-0.6-5.4-1.8c-1.5-1.2-2.6-2.7-3.2-4.4
			c-0.6-1.8-1-3.7-1-5.8c0-2.1,0.3-4,1-5.8c0.6-1.8,1.7-3.2,3.2-4.4c1.5-1.2,3.3-1.8,5.4-1.8c2.1,0,3.9,0.6,5.4,1.8s2.6,2.7,3.2,4.4
			s1,3.7,1,5.8c0,2.1-0.3,4-1,5.8S131.5,241.1,130,242.3z M121.2,237.7c0.7,1.4,1.9,2.1,3.5,2.1c1.6,0,2.7-0.7,3.5-2.1
			c0.7-1.4,1.1-3.2,1.1-5.5c0-2.3-0.4-4.2-1.1-5.5s-1.9-2-3.5-2c-1.6,0-2.7,0.7-3.5,2.1c-0.7,1.4-1.1,3.2-1.1,5.5
			C120.1,234.4,120.5,236.3,121.2,237.7z"/>
		<path fill="#336F9D" d="M185.6,243.7h-5V227l-6.5,16.7H172l-6.5-16.7v16.7h-4.9v-23.2h6.9l5.6,14.5l5.6-14.5h6.9V243.7z"/>
		<path fill="#336F9D" d="M202.1,243.7h-4.9v-23.2h4.9V243.7z"/>
		<path fill="#336F9D" d="M228.2,243.7h-14.8v-23.2h5v18.8h9.8V243.7z"/>
		<path fill="#336F9D" d="M254.8,243.7h-16.4v-23.2h16.4v4.3h-11.5v4.9h11.2v4.3h-11.2v5.3h11.5V243.7z"/>
		<path fill="#336F9D" d="M273.9,244.1c-4.1,0-7.4-1.2-9.9-3.7l2.7-3.9c2,2.1,4.5,3.2,7.4,3.2c1.3,0,2.3-0.2,3-0.7
			c0.7-0.5,1-1.1,1-1.8c0-0.6-0.3-1.1-1-1.5c-0.7-0.4-1.5-0.7-2.5-0.9c-1-0.2-2.1-0.4-3.2-0.8c-1.2-0.3-2.2-0.7-3.2-1.2
			c-1-0.4-1.8-1.1-2.5-2.1c-0.7-0.9-1-2.1-1-3.5c0-2,0.8-3.7,2.4-5c1.6-1.4,3.7-2,6.4-2c3.7,0,6.7,1.1,9,3.2l-2.7,3.7
			c-1.8-1.7-4.1-2.5-6.7-2.5c-1,0-1.8,0.2-2.4,0.6c-0.6,0.4-0.9,1-0.9,1.7c0,0.6,0.3,1,1,1.4c0.7,0.4,1.5,0.7,2.5,0.9
			c1,0.2,2,0.5,3.2,0.8c1.1,0.3,2.2,0.7,3.2,1.2c1,0.5,1.8,1.2,2.5,2.1c0.7,1,1,2.1,1,3.5c0,2.2-0.8,4-2.4,5.4
			C279.2,243.4,276.9,244.1,273.9,244.1z"/>
	</g>
	<g>
		<rect x="1.2" y="155.3" fill="#004B85" width="356.2" height="1.1"/>
	</g>
</g>
</svg>
