<?xml version="1.0" encoding="utf-8"?>
<!-- Generator: Adobe Illustrator 20.1.0, SVG Export Plug-In . SVG Version: 6.00 Build 0)  -->
<svg version="1.1" id="Layer_1" xmlns="http://www.w3.org/2000/svg" xmlns:xlink="http://www.w3.org/1999/xlink" x="0px" y="0px"
	 viewBox="0 0 447.3 342.2" enable-background="new 0 0 447.3 342.2" xml:space="preserve">
<g>
	<g>
		<path fill="#0581FF" d="M33.7,88.4c-10.3,0-18.9-2.7-25.9-8.2l9.5-16.9c4.6,3.8,10.1,5.6,16.4,5.6c6.1,0,10.9-1.9,14.6-5.7
			c3.6-3.8,5.5-8.4,5.5-13.8v-1c-2.1,2.9-5,5.3-8.9,7.1c-3.8,1.8-7.9,2.7-12.1,2.7c-8.2,0-15.2-2.5-21-7.5C6,45.6,3.1,38.7,3.1,30
			s3.2-15.9,9.6-21.6C19.1,2.8,27.3,0,37.2,0c12.9,0,22.6,4.1,29.1,12.3c6.5,8.2,9.8,18.8,9.8,31.9c0,13.6-3.8,24.4-11.4,32.3
			C57,84.4,46.7,88.4,33.7,88.4z M39.4,39.4c6,0,10.8-1.9,14.4-5.8c-0.3-3.9-1.6-7.3-4.1-10c-2.5-2.7-6.2-4.1-11.2-4.1
			c-3.8,0-7,1-9.4,3c-2.4,2-3.6,4.2-3.6,6.8c0,3.3,1.4,5.9,4.2,7.6C32.5,38.5,35.7,39.4,39.4,39.4z"/>
		<path fill="#0581FF" d="M112.9,88.4c-10.3,0-18.9-2.7-25.9-8.2l9.5-16.9c4.6,3.8,10.1,5.6,16.4,5.6c6.1,0,10.9-1.9,14.6-5.7
			c3.6-3.8,5.5-8.4,5.5-13.8v-1c-2.1,2.9-5,5.3-8.9,7.1c-3.8,1.8-7.9,2.7-12.1,2.7c-8.2,0-15.2-2.5-21-7.5c-5.8-5-8.7-11.9-8.7-20.6
			s3.2-15.9,9.6-21.6C98.3,2.8,106.4,0,116.4,0c12.9,0,22.6,4.1,29.1,12.3c6.5,8.2,9.8,18.8,9.8,31.9c0,13.6-3.8,24.4-11.4,32.3
			C136.2,84.4,125.9,88.4,112.9,88.4z M118.5,39.4c6,0,10.8-1.9,14.4-5.8c-0.3-3.9-1.6-7.3-4.1-10c-2.5-2.7-6.2-4.1-11.2-4.1
			c-3.8,0-7,1-9.4,3c-2.4,2-3.6,4.2-3.6,6.8c0,3.3,1.4,5.9,4.2,7.6C111.6,38.5,114.9,39.4,118.5,39.4z"/>
		<path fill="#0581FF" d="M182.5,84.8c-2.4,2.4-5.2,3.6-8.5,3.6c-3.3,0-6.1-1.2-8.5-3.6s-3.7-5.2-3.7-8.5c0-3.2,1.2-5.9,3.7-8.3
			c2.4-2.4,5.3-3.6,8.5-3.6c3.2,0,6.1,1.2,8.5,3.5c2.4,2.4,3.6,5.2,3.6,8.4C186.1,79.6,184.9,82.4,182.5,84.8z"/>
		<path fill="#0581FF" d="M231.7,88.5c-12.9,0-22.6-4.1-29.1-12.3c-6.5-8.2-9.8-18.8-9.8-31.9c0-13.6,3.8-24.4,11.5-32.3
			c7.7-8,18-11.9,31-11.9c10.3,0,18.9,2.7,25.9,8.2l-9.5,16.9c-4.6-3.8-10.1-5.6-16.4-5.6c-5.5,0-10.2,1.8-14.2,5.5
			c-4,3.6-6,8.3-6,14v1c2.1-2.9,5.1-5.3,9-7.1c3.8-1.8,7.9-2.7,12.1-2.7c8.2,0,15.2,2.5,21,7.5c5.8,5,8.7,11.9,8.7,20.6
			c0,8.8-3.2,16-9.6,21.6C249.8,85.7,241.6,88.5,231.7,88.5z M230.3,69c3.9,0,7.1-1,9.6-3c2.4-2,3.7-4.2,3.7-6.8
			c0-3.3-1.4-5.9-4.2-7.6c-2.8-1.7-6.1-2.6-9.8-2.6c-6,0-10.8,1.9-14.4,5.8c0.3,3.9,1.8,7.3,4.2,10C221.8,67.7,225.5,69,230.3,69z"
			/>
		<path fill="#0581FF" d="M293.8,43c-6.6,0-11.9-2-16-6.1c-4.1-4.1-6.2-9.1-6.2-15.2c0-6.2,2.1-11.3,6.2-15.4
			c4.1-4.1,9.4-6.2,16-6.2c6.8,0,12.2,2.1,16.4,6.2c4.1,4.1,6.2,9.2,6.2,15.4c0,6.1-2.1,11.1-6.2,15.2C306,40.9,300.5,43,293.8,43z
			 M287.5,28.7c1.6,1.7,3.7,2.5,6.2,2.5c2.6,0,4.7-0.8,6.4-2.5c1.7-1.7,2.5-4,2.5-7c0-3.1-0.8-5.5-2.5-7.2c-1.7-1.7-3.8-2.6-6.4-2.6
			c-2.6,0-4.6,0.9-6.2,2.6c-1.6,1.7-2.4,4.1-2.4,7.2C285.2,24.7,286,27,287.5,28.7z M296.5,87h-11.2L340,1.4h11.3L296.5,87z
			 M342.3,88.5c-6.7,0-12.1-2-16.2-6.1c-4.1-4.1-6.2-9.1-6.2-15.2c0-6.2,2.1-11.3,6.2-15.4c4.1-4.1,9.5-6.2,16.2-6.2
			c6.6,0,12,2.1,16.1,6.2c4.1,4.1,6.2,9.2,6.2,15.4c0,6.1-2.1,11.1-6.2,15.2C354.2,86.5,348.8,88.5,342.3,88.5z M336,74.3
			c1.6,1.6,3.7,2.4,6.3,2.4c2.6,0,4.7-0.8,6.3-2.4c1.6-1.6,2.4-4,2.4-7.1c0-3.1-0.8-5.5-2.4-7.2c-1.6-1.7-3.7-2.6-6.3-2.6
			c-2.6,0-4.7,0.9-6.3,2.6c-1.6,1.7-2.4,4.1-2.4,7.2C333.5,70.3,334.4,72.7,336,74.3z"/>
	</g>
	<g opacity="0.8">
		<path fill="#0581FF" d="M22.5,136c-2.3,2.2-5.3,3.4-8.9,3.4c-3.6,0-6.5-1.1-8.9-3.4c-2.3-2.2-3.5-5.1-3.5-8.6
			c0-3.5,1.2-6.4,3.5-8.6s5.3-3.4,8.9-3.4c3.6,0,6.5,1.1,8.9,3.4s3.5,5.1,3.5,8.6C26,130.9,24.9,133.8,22.5,136z M9.1,132.2
			c1.2,1.3,2.7,1.9,4.6,1.9c1.9,0,3.4-0.6,4.5-1.9s1.7-2.9,1.7-4.8c0-1.9-0.6-3.5-1.7-4.8s-2.7-1.9-4.5-1.9c-1.9,0-3.4,0.6-4.6,1.9
			c-1.2,1.3-1.8,2.9-1.8,4.8C7.4,129.3,7.9,130.9,9.1,132.2z"/>
		<path fill="#0581FF" d="M57.5,139h-5.8L42,125.6V139h-6v-23.2h6.1l9.4,12.7v-12.7h6V139z"/>
		<path fill="#0581FF" d="M95.6,139h-6v-18h-6.5v-5.2h18.9v5.2h-6.5V139z"/>
		<path fill="#0581FF" d="M117.9,139h-6v-23.2h6V139z"/>
		<path fill="#0581FF" d="M155.3,139h-6v-15.3l-5.8,15.3h-2.6l-5.9-15.3V139h-6v-23.2h8.3l4.9,12.8l4.8-12.8h8.3V139z"/>
		<path fill="#0581FF" d="M183.4,139h-17v-23.2h17v5.2h-11v3.6h10.8v5.2h-10.8v3.9h11V139z"/>
	</g>
	<g>
		<path fill="#0581FF" d="M61.7,278.2L4.1,254v-14.2l57.6-24.4v14l-44.1,17.6l44.1,17.3V278.2z"/>
		<path fill="#0581FF" d="M105.1,291.3c-10.1,0-18.7-2.1-25.7-6.2c-7.1-4.1-10.6-10.1-10.6-18c0-4.7,1.6-9,4.8-12.8
			s7.4-6.8,12.5-8.7c-10.6-4-15.9-10.6-15.9-19.9c0-5.2,1.8-9.6,5.4-13.1c3.6-3.5,7.9-6,13-7.5c5-1.5,10.6-2.2,16.5-2.2
			c6,0,11.5,0.7,16.5,2.2c5,1.5,9.4,4,13,7.5c3.6,3.5,5.4,7.9,5.4,13.1c0,9.2-5.3,15.9-16,19.9c5.2,2,9.4,4.9,12.6,8.7
			s4.8,8.1,4.8,12.8c0,5.3-1.8,9.8-5.3,13.6c-3.5,3.8-8,6.5-13.3,8.1C117.4,290.5,111.5,291.3,105.1,291.3z M105.1,271.8
			c4,0,7.3-0.7,9.9-2.1s3.9-3.3,3.9-5.6c0-2.3-1.5-4.2-4.4-5.6c-3-1.5-6.1-2.4-9.4-2.8c-3.4,0.4-6.6,1.4-9.5,2.8
			c-2.9,1.5-4.4,3.3-4.4,5.6c0,2.3,1.3,4.2,3.8,5.6C97.6,271.1,101,271.8,105.1,271.8z M105.1,237.1c3.2-0.4,6-1.3,8.5-2.6
			c2.5-1.3,3.8-3,3.8-4.9c0-2.2-1.1-4-3.3-5.2c-2.2-1.2-5.2-1.9-9-1.9c-3.8,0-6.8,0.6-9,1.9c-2.3,1.2-3.4,3-3.4,5.2
			c0,2,1.3,3.6,3.8,4.9C99,235.8,101.9,236.6,105.1,237.1z"/>
		<path fill="#0581FF" d="M207.3,289.8h-22.1v-85.6h42.8c9.2,0,16.5,2.7,21.8,8.1c5.3,5.4,8,12.2,8,20.3c0,8-2.7,14.8-8,20.2
			c-5.3,5.4-12.6,8.1-21.8,8.1h-20.8V289.8z M224.8,241.8c3.1,0,5.6-0.8,7.6-2.4c2-1.6,3-3.8,3-6.7s-1-5.1-3-6.7s-4.6-2.5-7.6-2.5
			h-17.4v18.3H224.8z"/>
		<path fill="#0581FF" d="M289.8,289.8h-22.1v-85.6h42.8c9.2,0,16.5,2.7,21.8,8.1c5.3,5.4,8,12.2,8,20.3c0,8-2.7,14.8-8,20.2
			c-5.3,5.4-12.6,8.1-21.8,8.1h-20.8V289.8z M307.2,241.8c3.1,0,5.6-0.8,7.6-2.4c2-1.6,3-3.8,3-6.7s-1-5.1-3-6.7
			c-2-1.7-4.6-2.5-7.6-2.5h-17.4v18.3H307.2z"/>
		<path fill="#0581FF" d="M447.3,289.8h-22.1v-56.6l-21.6,56.6H394l-21.7-56.6v56.6h-22.1v-85.6h30.7l18,47.2l17.8-47.2h30.7V289.8z
			"/>
	</g>
	<g opacity="0.8">
		<path fill="#0581FF" d="M25,341.8h-6.8l-1.1-3.3H7.9l-1.1,3.3H0l8.7-23.2h7.5L25,341.8z M15.4,333.2l-2.9-8.7l-3,8.7H15.4z"/>
		<path fill="#0581FF" d="M43.9,342.2c-3.6,0-6.6-1.1-9-3.4s-3.6-5.1-3.6-8.6c0-3.5,1.2-6.4,3.6-8.6s5.4-3.3,9-3.3
			c2.6,0,4.7,0.6,6.3,1.8c1.6,1.2,2.9,2.7,3.8,4.4l-5.1,2.5c-0.4-0.9-1-1.7-2-2.4c-0.9-0.6-1.9-1-3-1c-1.9,0-3.4,0.6-4.6,1.9
			s-1.8,2.9-1.8,4.8c0,1.9,0.6,3.5,1.8,4.8s2.8,1.9,4.6,1.9c1.1,0,2.1-0.3,3-1c0.9-0.6,1.6-1.4,2-2.4L54,336
			c-0.9,1.8-2.1,3.2-3.8,4.4C48.5,341.6,46.4,342.2,43.9,342.2z"/>
		<path fill="#0581FF" d="M74.8,342.2c-3.6,0-6.6-1.1-9-3.4c-2.4-2.2-3.6-5.1-3.6-8.6c0-3.5,1.2-6.4,3.6-8.6c2.4-2.2,5.4-3.3,9-3.3
			c2.6,0,4.7,0.6,6.3,1.8c1.6,1.2,2.9,2.7,3.8,4.4l-5.1,2.5c-0.4-0.9-1-1.7-2-2.4c-0.9-0.6-1.9-1-3-1c-1.9,0-3.4,0.6-4.6,1.9
			c-1.2,1.3-1.8,2.9-1.8,4.8c0,1.9,0.6,3.5,1.8,4.8c1.2,1.3,2.8,1.9,4.6,1.9c1.1,0,2.1-0.3,3-1c0.9-0.6,1.6-1.4,2-2.4l5.1,2.4
			c-0.9,1.8-2.1,3.2-3.8,4.4C79.5,341.6,77.4,342.2,74.8,342.2z"/>
		<path fill="#0581FF" d="M113.6,339.5c-1.8,1.8-4.6,2.7-8.1,2.7c-3.6,0-6.3-0.9-8.2-2.7c-1.9-1.8-2.8-4.2-2.8-7.1v-13.8h6.1v13.6
			c0,1.4,0.4,2.6,1.3,3.4c0.8,0.9,2.1,1.3,3.6,1.3c1.6,0,2.7-0.4,3.6-1.3c0.8-0.9,1.3-2,1.3-3.4v-13.6h6v13.8
			C116.3,335.4,115.4,337.8,113.6,339.5z"/>
		<path fill="#0581FF" d="M147.2,341.8h-6.8l-3.9-7.8h-3.1v7.8h-6v-23.2h11.6c2.5,0,4.5,0.7,5.9,2.2c1.4,1.5,2.2,3.3,2.2,5.5
			c0,1.9-0.5,3.4-1.4,4.5c-0.9,1.2-2,2-3.3,2.4L147.2,341.8z M138.2,328.8c0.8,0,1.5-0.2,2.1-0.7c0.5-0.4,0.8-1.1,0.8-1.8
			c0-0.8-0.3-1.4-0.8-1.8c-0.5-0.4-1.2-0.7-2.1-0.7h-4.7v5H138.2z"/>
		<path fill="#0581FF" d="M179.9,341.8h-6.8l-1.1-3.3h-9.1l-1.1,3.3h-6.8l8.7-23.2h7.5L179.9,341.8z M170.3,333.2l-2.9-8.7l-3,8.7
			H170.3z"/>
		<path fill="#0581FF" d="M198.8,342.2c-3.6,0-6.6-1.1-9-3.4c-2.4-2.2-3.6-5.1-3.6-8.6c0-3.5,1.2-6.4,3.6-8.6c2.4-2.2,5.4-3.3,9-3.3
			c2.6,0,4.7,0.6,6.3,1.8c1.6,1.2,2.9,2.7,3.8,4.4l-5.1,2.5c-0.4-0.9-1-1.7-2-2.4c-0.9-0.6-1.9-1-3-1c-1.9,0-3.4,0.6-4.6,1.9
			c-1.2,1.3-1.8,2.9-1.8,4.8c0,1.9,0.6,3.5,1.8,4.8c1.2,1.3,2.8,1.9,4.6,1.9c1.1,0,2.1-0.3,3-1c0.9-0.6,1.6-1.4,2-2.4l5.1,2.4
			c-0.9,1.8-2.1,3.2-3.8,4.4C203.4,341.6,201.3,342.2,198.8,342.2z"/>
		<path fill="#0581FF" d="M229.7,341.8h-6v-9.3l-8.8-13.8h6.7l5,8.5l5-8.5h6.8l-8.8,13.8V341.8z"/>
	</g>
</g>
</svg>
