<?xml version="1.0" encoding="utf-8"?>
<!-- Generator: Adobe Illustrator 16.0.0, SVG Export Plug-In . SVG Version: 6.00 Build 0)  -->
<!DOCTYPE svg PUBLIC "-//W3C//DTD SVG 1.1//EN" "http://www.w3.org/Graphics/SVG/1.1/DTD/svg11.dtd">
<svg version="1.1" id="athlete" xmlns="http://www.w3.org/2000/svg" xmlns:xlink="http://www.w3.org/1999/xlink" x="0px" y="0px"
	 width="792.5px" height="792px" viewBox="0 0 792.5 792" enable-background="new 0 0 792.5 792" xml:space="preserve" preserveAspectRatio="xMaxYMid">
	<g>
		<g id="right-back-forearm">
			<image overflow="visible" enable-background="new    " width="1000" height="667" xlink:href="athlete/parts/0Z4A5287.png"  transform="matrix(0.1308 -0.0926 0.0926 0.1308 439.627 348.9092)"></image>
		</g>

		<g id="left-outer-forearm">
			<image overflow="visible" enable-background="new    " width="1000" height="667" xlink:href="athlete/parts/0Z4A9676.png"  transform="matrix(-0.0836 0.3393 -0.3393 -0.0836 362.748 83.3525)"></image>
		</g>

		<g id="left-inner-thigh">
			<image overflow="visible" enable-background="new    " width="1000" height="563" xlink:href="athlete/parts/0Z4A9718.png"  transform="matrix(-0.0596 0.3059 -0.3059 -0.0596 279.0273 317.5938)"></image>
		</g>

		<g id="left-inner-bicep">
			<image overflow="visible" enable-background="new    " width="1000" height="563" xlink:href="athlete/parts/0Z4A9718.png"  transform="matrix(-0.1208 -0.0806 0.0806 -0.1208 309.5664 287.1943)"></image>
		</g>

		<g id="right-front-forearm">
			<image overflow="visible" enable-background="new    " width="1000" height="667" xlink:href="athlete/parts/0Z4A9709.png"  transform="matrix(-0.1331 0.1234 -0.1234 -0.1331 611.6523 353.253)"></image>
		</g>

		<g id="left-back-shin">
			<image overflow="visible" enable-background="new    " width="1000" height="667" xlink:href="athlete/parts/0Z4A9689.png"  transform="matrix(0.3943 -0.4184 0.4184 0.3943 -251.8985 645.037)"></image>
		</g>

		<g id="right-back-shin">
			<image overflow="visible" enable-background="new    " width="1000" height="667" xlink:href="athlete/parts/0Z4A9984.png"  transform="matrix(0.1686 -0.1171 0.1171 0.1686 162.6914 525.4913)"></image>
		</g>

		<g id="left-back-bicep">
			<image overflow="visible" enable-background="new    " width="1000" height="667" xlink:href="athlete/parts/0Z4A9984.png"  transform="matrix(0.1439 0.1464 -0.1464 0.1439 250.439 79.1885)"></image>
		</g>

		<g id="right-back-bicep">
			<image overflow="visible" enable-background="new    " width="1000" height="667" xlink:href="athlete/parts/0Z4A9720.png"  transform="matrix(0.124 0.1563 -0.1563 0.124 410.3574 234.1523)"></image>
		</g>

		<g id="left-shoulder">
			<image overflow="visible" enable-background="new    " width="1000" height="667" xlink:href="athlete/parts/0Z4A9714.png"  transform="matrix(0.0819 0.1263 -0.1263 0.0819 325.1836 155.7222)"></image>
		</g>

		<g id="middle-neck">
			<image overflow="visible" enable-background="new    " width="1000" height="1000" xlink:href="athlete/parts/0Z4A9651.png"  transform="matrix(0.0811 0.1258 -0.1258 0.0811 365.3028 191.9766)"></image>
		</g>

		<g id="right-back-thigh">
			<image overflow="visible" enable-background="new    " width="1000" height="667" xlink:href="athlete/parts/0Z4A9724.png"  transform="matrix(0.158 0.1135 -0.1135 0.158 226.8525 317.0381)"></image>
		</g>

		<g id="right-foot">
			<image overflow="visible" enable-background="new    " width="1000" height="1000" xlink:href="athlete/parts/0Z4A9646.png"  transform="matrix(0.0438 0.1597 0.1597 -0.0438 154.4956 471.2178)"></image>
		</g>

		<g id="left-top-torso" class="rotate">
			<image overflow="visible" enable-background="new    " width="1000" height="667" xlink:href="athlete/parts/0Z4A9670.png"  transform="matrix(0.2539 0 0 0.2539 169.9072 241.0205)"></image>
		</g>

		<g id="left-foot">
			<image overflow="visible" enable-background="new    " width="1000" height="667" xlink:href="athlete/parts/0Z4A9670.png"  transform="matrix(0.1051 0 0 0.1051 -0.5352 591.4316)"></image>
		</g>

		<g id="right-ab">
			<image overflow="visible" enable-background="new    " width="1000" height="667" xlink:href="athlete/parts/0Z4A5287.png"  transform="matrix(0.1822 -0.0852 0.0852 0.1822 221.7705 330.9141)"></image>
		</g>

		<g id="left-inner-forearm">
			<image overflow="visible" enable-background="new    " width="1000" height="667" xlink:href="athlete/parts/0Z4A9689.png"  transform="matrix(-0.129 0.4491 0.4491 0.129 104.3555 -48.1445)"></image>
		</g>

		<g id="right-elbow">
			<image overflow="visible" enable-background="new    " width="1000" height="667" xlink:href="athlete/parts/0Z4A9979.png"  transform="matrix(0.0336 0.2039 -0.2039 0.0336 523.0547 281.9873)"></image>
		</g>

		<g id="head">
			<image overflow="visible" enable-background="new    " width="1000" height="563" xlink:href="athlete/parts/0Z4A9727.png"  transform="matrix(0.2224 -0.128 0.128 0.2224 295.1202 224.4893)"></image>
		</g>

		<g id="left-bottom-torso">
			<image overflow="visible" enable-background="new    " width="1000" height="667" xlink:href="athlete/parts/0Z4A9672.png"  transform="matrix(0.2291 0 0 0.2291 119.378 290.7646)"></image>
		</g>

		<g id="left-heel">
			<image overflow="visible" enable-background="new    " width="1000" height="563" xlink:href="athlete/parts/0Z4A9683.png"  transform="matrix(0.1883 -0.409 0.409 0.1883 -157.4375 752.9248)"></image>
		</g>

		<g id="left-hip">
			<image overflow="visible" enable-background="new    " width="1000" height="667" xlink:href="athlete/parts/0Z4A4992.png"  transform="matrix(0.0635 0.1647 -0.1647 0.0635 214.6113 276.4937)"></image>
		</g>

		<g id="right-tricep">
			<image overflow="visible" enable-background="new    " width="1000" height="667" xlink:href="athlete/parts/0Z4A5148.png"  transform="matrix(0.1282 0.105 -0.105 0.1282 374.5703 273.4678)"></image>
		</g>

		<g id="left-hamstring">
			<image overflow="visible" enable-background="new    " width="1000" height="667" xlink:href="athlete/parts/0Z4A5271.png"  transform="matrix(0.0847 -0.2244 0.2244 0.0847 12.2617 543.6308)"></image>
		</g>

		<g id="left-quad">
			<image overflow="visible" enable-background="new    " width="1000" height="667" xlink:href="athlete/parts/0Z4A9721.png"  transform="matrix(0.0546 -0.1348 0.1348 0.0546 103.7886 523.96)"></image>
		</g>

		<g id="left-calf">
			<image overflow="visible" enable-background="new    " width="1000" height="667" id="_x30_Z4A9717" xlink:href="athlete/parts/0Z4A9717.png"  transform="matrix(-0.0641 0.1475 -0.1475 -0.0641 159.8447 524.3936)"></image>
		</g>

		<g id="right-front-thigh">
			<image overflow="visible" enable-background="new    " width="1000" height="667" xlink:href="athlete/parts/0Z4A9759.png"  transform="matrix(0.186 0.1367 -0.1367 0.186 217.0981 311.748)"></image>
		</g>

		<g id="right-front-bicep">
			<image overflow="visible" enable-background="new    " width="1000" height="667" xlink:href="athlete/parts/0Z4A9744.png"  transform="matrix(0.045 0.2264 -0.2264 0.045 466.292 234.6514)"></image>
		</g>

		<g id="left-elbow">
			<image overflow="visible" enable-background="new    " width="1000" height="667" xlink:href="athlete/parts/0Z4A4960.png"  transform="matrix(0.1623 0 0 0.1623 166.5732 115.8242)"></image>
		</g>

		<g id="right-knee">
			<image overflow="visible" enable-background="new    " width="1000" height="667" xlink:href="athlete/parts/HVAC Sub Assembly.png"  transform="matrix(-0.0453 0.1311 -0.1311 -0.0453 392.3965 443.2988)"></image>
		</g>

		<g id="right-front-collar">
			<image overflow="visible" enable-background="new    " width="1000" height="667" xlink:href="athlete/parts/0Z4A9954.png"  transform="matrix(0.0799 0 0 0.0799 354.5391 276.8438)"></image>
		</g>

		<g id="left-knee_1_">
			<image overflow="visible" enable-background="new    " width="1000" height="667" id="left-knee" xlink:href="athlete/parts/Alternator Cover.png"  transform="matrix(0.1814 0 0 0.1814 42.0171 456.9844)"></image>
		</g>
	</g>
</svg>
