<svg class='svg value-added' id="svg-value-added" data-name="Layer 1" xmlns="http://www.w3.org/2000/svg" viewBox="0 0 1270.17 790.65" enable-background="new 0 0 1270.17 790.65" preserveAspectRatio="xMidYMid">
	<title>full part</title>
	<g id="Layer_2" data-name="Layer 2">
		<g id="Layer_2-2" data-name="Layer 2-2">
			<path d="M233,456.2v-2a2.94,2.94,0,0,0-2.88-3H191c-1.69,0-4,1.31-4,3v24.39l-5.71,6.23a15.34,15.34,0,0,0,.27,21.63l13.51,13.38a15.14,15.14,0,0,0,21.41.06l.06-.06,12.39-12.32a22.47,22.47,0,0,0,18.72,10.69h.08c12.15,0,21.27-10.62,21.27-22.77V456.2Zm-16,48h-6V509a6,6,0,0,1-12,0v-4.8h-5.05a6,6,0,0,1,0-12H199v-6.32a6,6,0,0,1,12,0v6.32h6a6,6,0,0,1,0,12Zm30.13,4.36a12.93,12.93,0,1,1,12.93-12.93h0a12.93,12.93,0,0,1-12.9,12.93Z" fill="#474b51" stroke="#252525" stroke-miterlimit="10" stroke-width="2"/>
			<path d="M189.5,195.2c-12.15,0-22.5,9.6-22.5,21.75v.13c0,12.15,10.35,22.13,22.5,22.13H228v-44Zm-.2,34.11a12.93,12.93,0,1,1,12.93-12.93,12.93,12.93,0,0,1-12.93,12.93Z" fill="#474b51" stroke="#252525" stroke-miterlimit="10" stroke-width="2"/>
			<path d="M444.67,202.66a22.5,22.5,0,0,0-31.38-5.29h0l-24.9,17.72a64.07,64.07,0,0,1,12.78,12.73,134.18,134.18,0,0,1,14,23.41L439.38,234A22.5,22.5,0,0,0,444.67,202.66Zm-11.79,24.25a12.92,12.92,0,1,1,3-18l0,0a12.92,12.92,0,0,1-3,18Z" fill="#474b51" stroke="#252525" stroke-miterlimit="10" stroke-width="2"/>
			<path d="M437.91,289.76l-3.63,1.68-12-26q-.56-2-1.23-4.23l3.94-1.83-2.1-4.54-3.37,1.56c-8.22-24.54-17.37-29.43-30.08-42.09-9.47-9.43-33.68-15.42-45.57-18a59.25,59.25,0,0,0-12.69-1.12H281v-7h-4v4H244v-5h-5v8H225c-4.13,0-8,2.84-8,7v75L420,292l4.07,8.51,15.49-7.15Z" fill="#474b51" stroke="#252525" stroke-miterlimit="10" stroke-width="2"/>
			<path d="M450,404.2v-5h-8V371.87c0-3.74,1.87-7.48,2.75-11.12,1.41-5.82,2.91-11.89,2.92-18.14,0-40.94-32.22-75.1-73.13-76.86a69.79,69.79,0,0,0-10.07.29,13.29,13.29,0,0,1-12.74,9.56c-3.72,0-7-.27-9.47-2.72-5.3,1.85-10.78,4.31-16.39,4.31H197.77C191.82,277.2,184,279,184,285v5.23h-6v4h4v33h-5v5h7v67h-6v4h4v33h-5v5h7v4c0,12.15,12.85,25,25,25h74.81c2.31,0,1.19-1.12,1.19,1.19V485.2h-6v4h4v33h-5v5h7v10.11c0,1.6,4.3,5.89,5.89,5.89H378.1c1.6,0-.11-4.3-.11-5.89V527.2h7v-4h-4v-33h5v-5h-8V471.39c0-2.31,4.88-1.19,7.19-1.19H423c12.15,0,19-12.85,19-25v-4h7v-4h-4v-33Z" fill="#474b51" stroke="#252525" stroke-miterlimit="10" stroke-width="2"/>
			<rect x="222.59" y="396.08" width="46.36" height="52.78" rx="6.73" ry="6.73" fill="none" stroke="#252525" stroke-miterlimit="10" stroke-width="2"/>
			<circle cx="371.55" cy="342.56" r="34.56" fill="none" stroke="#252525" stroke-miterlimit="10" stroke-width="2"/>
			<circle cx="371.55" cy="342.56" r="20.26" fill="none" stroke="#252525" stroke-miterlimit="10" stroke-width="2"/>
			<circle cx="371.55" cy="342.56" r="6.36" fill="none" stroke="#252525" stroke-miterlimit="10" stroke-width="2"/>
			<path d="M359.57,326.25l-7.1-7.1a30.19,30.19,0,0,0-4.33,4.33l7.1,7.1A20.34,20.34,0,0,1,359.57,326.25Z" fill="#252525"/>
			<path d="M387.86,330.57l7.1-7.1a30.19,30.19,0,0,0-4.33-4.33l-7.1,7.1A20.34,20.34,0,0,1,387.86,330.57Z" fill="#252525"/>
			<path d="M351.29,344.2a19.5,19.5,0,0,1,.26-3h-10a29,29,0,0,0,0,6h10A19.5,19.5,0,0,1,351.29,344.2Z" fill="#252525"/>
			<path d="M370,322.3a19.5,19.5,0,0,1,3,.26v-10a29,29,0,0,0-6,0v10A19.51,19.51,0,0,1,370,322.3Z" fill="#252525"/>
			<path d="M370,362.82a19.51,19.51,0,0,1-3-.26v10a29,29,0,0,0,6,0v-10A19.5,19.5,0,0,1,370,362.82Z" fill="#252525"/>
			<path d="M355.24,354.54l-7.1,7.1a30.2,30.2,0,0,0,4.33,4.33l7.1-7.1A20.34,20.34,0,0,1,355.24,354.54Z" fill="#252525"/>
			<path d="M401.59,341.2h-10a17.75,17.75,0,0,1,0,6h10A29,29,0,0,0,401.59,341.2Z" fill="#252525"/>
			<path d="M383.53,358.87l7.1,7.1a30.2,30.2,0,0,0,4.33-4.33l-7.1-7.1A20.34,20.34,0,0,1,383.53,358.87Z" fill="#252525"/>
			<circle cx="371.55" cy="342.56" r="31.11" fill="none" stroke="#252525" stroke-miterlimit="10" stroke-width="2"/>
			<rect x="175.03" y="296.64" width="7.47" height="27.91" rx="2.71" ry="2.71" fill="#474b51" stroke="#252525" stroke-miterlimit="10" stroke-width="2"/>
			<rect x="247.54" y="172.95" width="27.91" height="18.75" rx="2.71" ry="2.71" fill="#474b51" stroke="#252525" stroke-miterlimit="10" stroke-width="2"/>
			<rect x="175.03" y="405.74" width="7.47" height="27.91" rx="2.71" ry="2.71" fill="#474b51" stroke="#252525" stroke-miterlimit="10" stroke-width="2"/>
			<rect x="275.95" y="491.36" width="7.47" height="27.91" rx="2.71" ry="2.71" fill="#474b51" stroke="#252525" stroke-miterlimit="10" stroke-width="2"/>
			<rect x="381.43" y="491.36" width="7.47" height="27.91" rx="2.71" ry="2.71" fill="#474b51" stroke="#252525" stroke-miterlimit="10" stroke-width="2"/>
			<rect x="445.45" y="405.74" width="7.47" height="27.91" rx="2.71" ry="2.71" fill="#474b51" stroke="#252525" stroke-miterlimit="10" stroke-width="2"/>
			<rect x="426.83" y="260.5" width="7.47" height="27.91" rx="2.71" ry="2.71" transform="translate(-74.4 198.86) rotate(-24)" fill="#474b51" stroke="#252525" stroke-miterlimit="10" stroke-width="2"/>
			<circle cx="351.97" cy="263.39" r="14.22" fill="#474b51" stroke="#252525" stroke-miterlimit="10" stroke-width="2"/>
			<rect x="222.59" y="396.08" width="46.36" height="52.78" rx="6.73" ry="6.73" fill="none" stroke="#252525" stroke-miterlimit="10" stroke-width="2"/>
			<path d="M1268,754.59l-6.43-23.24-64.88-234.49a110.1,110.1,0,0,0-9.67-23.75L957.56,56.55a35.21,35.21,0,0,0-39.8-17.07L867.84,52.62a53.43,53.43,0,0,1-23,.93L557.71,2.34a86,86,0,0,0-34.93,1l-371.89,88L142.2,95a57.93,57.93,0,0,0-81.91,70.68L7.4,334.2C6,339.14,1,347.26,1,352.41v57.2c0,16.06,10.44,31.51,21.53,43.13L259.81,699c12.09,12.66,31.09,17.89,48.09,13.72l32.36-7.9a56.1,56.1,0,0,0,61.42-15l329-80.74a17.28,17.28,0,0,1,19.84,9.71c12.47,28.3,49.06,94.2,127,120.62,100.57,34.09,174.64,6.34,174.64,6.34h0A278.35,278.35,0,0,0,1095,722l41.28,41.45a24.46,24.46,0,0,0,12,6.63l26.86,6a27.16,27.16,0,0,0,3.42,1l58,12.1A27.05,27.05,0,0,0,1268,754.59ZM959,105.68h0a11.37,11.37,0,0,1,15.41,4.42L1002,159.75a11.34,11.34,0,0,1-19.64,11.34l-.19-.34L954.65,121.1A11.37,11.37,0,0,1,959,105.68ZM880.61,75.09a6.51,6.51,0,1,1-6.51,6.51,6.51,6.51,0,0,1,6.51-6.51Zm-31.19,37.53a12.1,12.1,0,1,1-12.1,12.1h0A12.1,12.1,0,0,1,849.42,112.62Zm-23,147.48,78.67-61.26a10,10,0,0,1,6.53-2.1l105,4.09A10,10,0,0,1,1025,206l59.92,108a10,10,0,0,1-8.21,14.84l-206.93,11a10,10,0,0,1-9.13-4.89L824,273.09a10,10,0,0,1,2.44-13Zm-8.26,112.57a12,12,0,0,1-9.24,14.23l-18.27,3.88a12,12,0,0,1-14.23-9.24l-5.31-25a12,12,0,0,1,9.24-14.23l18.27-3.88a12,12,0,0,1,14.23,9.24ZM682.41,58A11.37,11.37,0,0,1,695,48.16L775.19,58a11.34,11.34,0,0,1-2,22.59l-.71-.09-80.15-9.84A11.37,11.37,0,0,1,682.41,58Zm-115-16.88a28.47,28.47,0,1,1-28.47,28.47h0a28.47,28.47,0,0,1,28.48-28.44ZM341.35,67.92l134.32-31a5.57,5.57,0,1,1,2.09,10.94l-.37.06a53.45,53.45,0,0,0-43.58,31.17,16,16,0,0,1-12.56,9.27L346.75,98a15.29,15.29,0,0,1-5.4-30.06Zm-9.51,74,7.28-8.83a22.48,22.48,0,0,1,17.68-8.18l71.47,1a22.48,22.48,0,0,1,15.82,6.83l9.84,10.15a10.32,10.32,0,0,1-7.57,17.5l-106.7-1.64a10.32,10.32,0,0,1-7.82-16.86ZM369.4,299.18a43.08,43.08,0,1,1-43.08,43.08h0A43.08,43.08,0,0,1,369.4,299.18ZM300.6,106.72a9,9,0,1,1-9,9A9,9,0,0,1,300.6,106.72Zm3.59,132.34a28.47,28.47,0,1,1-28.47-28.47,28.47,28.47,0,0,1,28.47,28.47ZM192.71,102.4l66-16C263.61,85.29,265,89,265,94v7c0,3.9.35,7.19-3.51,7.69l-67.67,9c-3.28.42-5.65-1.27-7.12-4.23C184.45,108.94,187.81,103.53,192.71,102.4ZM43.36,431a9,9,0,1,1,9-9h0A9,9,0,0,1,43.36,431ZM68.15,320l-8.55,3.93a8.7,8.7,0,0,1-6.91.77l-10-3.09a8.7,8.7,0,0,1-5.75-10.88v0l29.61-94.53c1.65-5.26,7.69-4.18,12.52-1.52,10.6,5.83,22.77,12.6,35.72,12.6h.2c6.88,0,11.15,4,7.52,9.83l-51.33,80.7C70.43,319,69.39,319.25,68.15,320Zm50.4-11.89,71-93.53a10,10,0,0,1,17.68,3.68l31.55,129.58a10,10,0,0,1-13,11.8L123.2,323.55a10,10,0,0,1-4.65-15.48ZM247.44,636.63a10,10,0,0,1-14.12.71q-.28-.25-.54-.52l-102-107.26a10,10,0,0,1-2-10.64l24.58-60.86a10,10,0,0,1,12.84-5.6L303.82,505.1a10,10,0,0,1,3.66,2.44l22.69,23.77a10,10,0,0,1,.18,13.61Zm181-375.89c-13.8-8.92-37.74-19.5-71.18-16.66a16.18,16.18,0,0,1-17.46-14.79q0-.32,0-.65A19.74,19.74,0,0,1,358,208.08c20.33-1.49,53.34-.49,81,16.25a24.4,24.4,0,0,1,10.14,29.6h0a14.05,14.05,0,0,1-20.73,6.8Zm54.75,388L459.3,654C453,655.66,443,650.87,443,644.33V626c0-4,6.19-7.7,9.94-9.24l16.77-6.1c5.51-2.27,12.65.75,14.3,6.47l5.87,19a9.79,9.79,0,0,1-6.32,12.32l-.44.13ZM482.5,110.1a9,9,0,1,1,9-9h0A9,9,0,0,1,482.5,110.1Zm25.36,161.77a6.51,6.51,0,1,1,6.51-6.51,6.51,6.51,0,0,1-6.51,6.51Zm99.77,340-61.56,15A10,10,0,0,1,534,619.52l0-.18-7.19-32.16A10,10,0,0,1,532.1,576l24.82-12.2a10,10,0,0,1,13.16,4.14,80.8,80.8,0,0,0,39.81,36.15,4.67,4.67,0,0,1-2.26,7.79ZM547.88,430.54l22.19-2.88A11.5,11.5,0,0,1,581.94,444l-17,35.85c-4.85,10.23-20,8-21.76-3.15l-5.18-33a11.5,11.5,0,0,1,9.61-13.12Zm75.36-65.82a51.44,51.44,0,0,0-1.1,6.49,6.19,6.19,0,0,1-4.86,5.38L537,393.91a6.22,6.22,0,0,1-7.39-4.78q-.05-.24-.08-.48L517.42,296.9a6.15,6.15,0,0,1,3.25-6.3h.07a6.28,6.28,0,0,1,6.54.44l93.53,67.3a6.16,6.16,0,0,1,2.43,6.37Zm19.88-29.78-.1.09a11.23,11.23,0,0,1-13.24.1l-94.7-65.87c-1.25-.9-5.07-2.34-5.07-3.88h0c0-14-7-25.57-20.33-27.88-2-.34-2-1.92-2.26-3.88l-10.76-87.4c-.27-2,1.29-4,3.17-4.81a45,45,0,0,0,14.23-9.82,4.76,4.76,0,0,1,5.48-1L609.25,175a4.6,4.6,0,0,1,2.43,3L647.3,323.26a11.17,11.17,0,0,1-4.18,11.67Zm30.35,50.75a9,9,0,1,1,9-9,9,9,0,0,1-9,9ZM718.91,297l-20,4.13a8.75,8.75,0,0,1-10.31-6.79L678.18,244A8.75,8.75,0,0,1,685,233.68l20-4.13a8.75,8.75,0,0,1,10.31,6.79l10.39,50.39A8.75,8.75,0,0,1,718.91,297ZM700.72,173.87a19,19,0,0,1-18.14-19.74h0A19,19,0,0,1,702.32,136L792,139.78a19,19,0,0,1,18.14,19.74h0a19,19,0,0,1-19.74,18.14Zm76,435.74-3.87-8.79a23.26,23.26,0,0,1,42.24-19.48l3.39,7a10,10,0,0,1-4.22,13.12l-23.6,12.87a10,10,0,0,1-13.58-3.94q-.21-.37-.38-.77ZM1070.7,721l-16.58,10.61s-71.25,26.71-168-6.1C839,709.51,807.6,678.57,787.8,651a10,10,0,0,1,2.29-14q.34-.25.71-.46l128.23-76a10,10,0,0,1,12.37,1.75,43.09,43.09,0,0,0,45.28,11.29,9.88,9.88,0,0,1,11.51,3.82l85.47,129.67a10,10,0,0,1-2.89,13.84Zm-49-139.22,8.6-7.73a23.11,23.11,0,0,1,31.42,33.89l-11.48,11a10,10,0,0,1-15.24-1.69l-15-22.5a10,10,0,0,1,1.67-13Zm-16.57-74.21a10,10,0,0,1-9.87-3.09,43,43,0,0,0-32.45-14.76q-1.83,0-3.61.15a10.08,10.08,0,0,1-9.6-4.87L885.69,377.19a10,10,0,0,1,8.07-15.08l205.37-11a10,10,0,0,1,9.28,5.13l55.12,99.36a10,10,0,0,1-6.36,14.56Zm183.34,106.57-34.78,10.33a12,12,0,0,1-14.92-8.09h0l-23-77.39a12,12,0,0,1,8.09-14.92h0l34.78-10.33a12,12,0,0,1,14.92,8.09h0l23,77.39a12,12,0,0,1-8.12,14.9ZM1212.9,766.8a9.88,9.88,0,1,1,9.88-9.88,9.88,9.88,0,0,1-9.88,9.88h0Z" fill="#474b51" stroke="#252525" stroke-miterlimit="10" stroke-width="2"/>
			<path d="M514.37,662.17l-48.13-196.3a38.61,38.61,0,0,1,28.32-46.68l.8-.19L645,385.68s-3.58-33.9,28.47-37.47l-56-235.48A23.43,23.43,0,0,1,642.72,84l173.79,18.1a21.85,21.85,0,0,0,23.87-18.52l4.46-30" fill="none" stroke="#252525" stroke-miterlimit="10" stroke-width="2"/>
			<path d="M3.5,364.62,78.79,344.5a85.72,85.72,0,0,1,53.35,3L468,478.78" fill="none" stroke="#252525" stroke-miterlimit="10" stroke-width="2"/>
			<path d="M1268,754.59l-31-112.06h0l-5-17.83-7.71,2.13,1.16,4.19-54.6,9.76a21.07,21.07,0,0,0-13.71,8.94c-11.66,17.34-45.54,60.71-108.22,88.76l3.27,7.3A278.32,278.32,0,0,0,1095,722l41.28,41.45a24.46,24.46,0,0,0,12,6.63l26.86,6a27.15,27.15,0,0,0,3.42,1l58,12.1A27.05,27.05,0,0,0,1268,754.59Zm-126.05,3.17L1104.4,720a3.35,3.35,0,0,1,.36-5c31.85-23.72,50.84-48.56,59.08-60.81a13,13,0,0,1,8.48-5.53l55.33-9.89,1.63,5.9h0L1253,730.59a4.46,4.46,0,0,1-5.3,5.51h-.08l-58-12.1a27,27,0,0,0-30.7,36.41,2.37,2.37,0,0,1-2.7,3.21l-6.2-1.38a16.47,16.47,0,0,1-8.12-4.48Zm118.87,8.51a19.15,19.15,0,0,1-22.56,14.87l-44.38-9.2-16.35-3.62A19,19,0,0,1,1188,731.81l58,12.1a18.84,18.84,0,0,1,14.3,12.81l.19.48h0a19.85,19.85,0,0,1,.28,9.08Z" fill="#252525"/>
			<circle cx="369.4" cy="342.25" r="43.08" fill="none" stroke="#252525" stroke-miterlimit="10" stroke-width="2"/>
			<circle cx="673.46" cy="376.68" r="28.47" fill="none" stroke="#252525" stroke-miterlimit="10" stroke-width="2"/>
			<circle cx="482.5" cy="101.1" r="24.96" fill="none" stroke="#252525" stroke-miterlimit="10" stroke-width="2"/>
			<circle cx="925.92" cy="76.14" r="28.47" fill="none" stroke="#252525" stroke-miterlimit="10" stroke-width="2"/>
			<circle cx="114.78" cy="146.03" r="57.91" fill="none" stroke="#252525" stroke-miterlimit="10" stroke-width="2"/>
			<path d="M42.11,459.42a1.62,1.62,0,0,1,1.2-2.73h0a34.74,34.74,0,1,0-24.16-9.83l-.08.08L183.9,619.36l5.78-5.53ZM16.76,424.18A26.68,26.68,0,1,1,41.18,448.6,26.68,26.68,0,0,1,16.76,424.18Z" fill="#252525"/>
			<path d="M105,176.66a32.3,32.3,0,0,1,0-61.25v-8.35c-18,4.55-30,20.3-30,39s12,34.43,30,39Z" fill="#252525"/>
			<path d="M125,107.05v8.35a32.3,32.3,0,0,1,0,61.25V185a40.31,40.31,0,0,0,0-78Z" fill="#252525"/>
			<path d="M955,548.76c-7-2.81-10.19-8.92-10.19-16s3.19-13.17,10.19-16v-6.23c-10,3.12-16,11.89-16,22.21s6,19.1,16,22.21Z" fill="#252525"/>
			<path d="M969,510.57v6.23c5,2.81,10.19,8.92,10.19,16S974,546,969,548.76V555c10-3.12,16-11.89,16-22.21S979,513.69,969,510.57Z" fill="#252525"/>
			<path d="M682.08,486.46l-5.27,5.27a46,46,0,0,1-64,64L607.59,561a53.33,53.33,0,0,0,74.48-74.48Z" fill="#252525"/>
			<path d="M601.34,544.16a46,46,0,0,1,64-64l5.27-5.27a53.33,53.33,0,0,0-74.48,74.48Z" fill="#252525"/>
			<path d="M324,654.22a36.16,36.16,0,0,1,65.61-22.49l7.83-2.68a44.16,44.16,0,0,0-81.27,27.86Z" fill="#252525"/>
			<path d="M403.92,648l-7.83,2.68a36.16,36.16,0,0,1-65.61,22.49l-7.83,2.68A44.16,44.16,0,0,0,403.92,648Z" fill="#252525"/>
			<circle cx="638.71" cy="517.82" r="72.54" fill="none" stroke="#252525" stroke-miterlimit="10" stroke-width="2"/>
			<circle cx="360.05" cy="652.51" r="55.94" transform="translate(-192.12 152) rotate(-18.92)" fill="none" stroke="#252525" stroke-miterlimit="10" stroke-width="2"/>
			<circle cx="961.74" cy="533.26" r="34.57" fill="none" stroke="#252525" stroke-miterlimit="10" stroke-width="2"/>
			<g class="gear gear-3">
				<path d="M960,344.31A190.46,190.46,0,1,0,1153.22,532C1151.68,426.75,1065.14,342.78,960,344.31Zm3.23,221.23a30.8,30.8,0,1,1,30.34-31.25h0a30.8,30.8,0,0,1-30.35,31.24h0Z" fill="#d8d8d8"/>
				<path d="M1169.84,533.48q0-1.75-.05-3.5a32.28,32.28,0,0,0-13.43-5.76q-.1-1.81-.23-3.62a32.28,32.28,0,0,0,12.59-7.42q-.18-1.74-.39-3.47a32.27,32.27,0,0,0-13.93-4.41q-.28-1.79-.58-3.58a32.27,32.27,0,0,0,11.8-8.62q-.35-1.71-.73-3.42a32.28,32.28,0,0,0-14.29-3q-.45-1.76-.93-3.51a32.27,32.27,0,0,0,10.9-9.73q-.52-1.67-1.06-3.33A32.27,32.27,0,0,0,1145,468.5q-.62-1.7-1.27-3.4a32.29,32.29,0,0,0,9.89-10.75q-.68-1.61-1.38-3.21a32.28,32.28,0,0,0-14.61-.18q-.78-1.64-1.6-3.26a32.28,32.28,0,0,0,8.79-11.67q-.83-1.54-1.69-3.06a32.27,32.27,0,0,0-14.56,1.25q-.94-1.55-1.91-3.08a32.28,32.28,0,0,0,7.61-12.48l-2-2.88a32.28,32.28,0,0,0-14.37,2.67q-1.09-1.45-2.2-2.88a32.29,32.29,0,0,0,6.35-13.16q-1.12-1.34-2.26-2.67a32.28,32.28,0,0,0-14,4.07q-1.23-1.34-2.47-2.65a32.27,32.27,0,0,0,5-13.72q-1.24-1.23-2.51-2.44a32.29,32.29,0,0,0-13.57,5.42q-1.35-1.21-2.72-2.4a32.29,32.29,0,0,0,3.66-14.15l-2.73-2.18a32.29,32.29,0,0,0-13,6.73q-1.46-1.07-2.95-2.12a32.28,32.28,0,0,0,2.25-14.44q-1.46-1-2.93-1.9a32.28,32.28,0,0,0-12.25,8q-1.56-.92-3.14-1.82a32.28,32.28,0,0,0,.83-14.59l-3.11-1.6a32.27,32.27,0,0,0-11.41,9.13q-1.65-.77-3.3-1.5a32.28,32.28,0,0,0-.61-14.6q-1.62-.66-3.25-1.29a32.27,32.27,0,0,0-10.46,10.2q-1.71-.6-3.43-1.17a32.29,32.29,0,0,0-2-14.47l-3.36-1a32.28,32.28,0,0,0-9.41,11.18q-1.76-.43-3.53-.83a32.27,32.27,0,0,0-3.44-14.2l-3.44-.63a32.28,32.28,0,0,0-8.27,12q-1.79-.26-3.6-.48a32.28,32.28,0,0,0-4.82-13.79l-3.48-.29a32.29,32.29,0,0,0-7,12.8q-1.81-.08-3.63-.12a32.28,32.28,0,0,0-6.15-13.26q-1.75,0-3.49,0a32.26,32.26,0,0,0-5.76,13.43l-3.62.23a32.28,32.28,0,0,0-7.42-12.59l-3.47.39a32.28,32.28,0,0,0-4.42,13.93q-1.79.28-3.58.59a32.28,32.28,0,0,0-8.62-11.8l-3.42.73a32.29,32.29,0,0,0-3,14.3q-1.76.45-3.51.93a32.28,32.28,0,0,0-9.73-10.9L898.18,338a32.29,32.29,0,0,0-1.61,14.52q-1.7.62-3.4,1.27a32.28,32.28,0,0,0-10.75-9.89l-3.21,1.38a32.28,32.28,0,0,0-.18,14.61q-1.64.78-3.26,1.6A32.28,32.28,0,0,0,864,352.71q-1.54.83-3.06,1.69a32.28,32.28,0,0,0,1.25,14.6q-1.55.94-3.08,1.91a32.29,32.29,0,0,0-12.48-7.61l-2.88,2a32.28,32.28,0,0,0,2.67,14.37q-1.45,1.09-2.88,2.2a32.29,32.29,0,0,0-13.16-6.35l-2.67,2.26a32.28,32.28,0,0,0,4.07,14q-1.34,1.22-2.65,2.47a32.28,32.28,0,0,0-13.72-5q-1.23,1.24-2.44,2.51a32.29,32.29,0,0,0,5.42,13.57q-1.21,1.35-2.4,2.72a32.28,32.28,0,0,0-14.15-3.66q-1.1,1.36-2.18,2.73a32.29,32.29,0,0,0,6.73,13q-1.07,1.46-2.12,2.94a32.28,32.28,0,0,0-14.44-2.25q-1,1.46-1.9,2.94a32.27,32.27,0,0,0,8,12.25q-.92,1.56-1.82,3.14a32.27,32.27,0,0,0-14.59-.83q-.81,1.55-1.6,3.11A32.27,32.27,0,0,0,787,452.77q-.77,1.64-1.5,3.3a32.28,32.28,0,0,0-14.6.61q-.66,1.62-1.29,3.25a32.29,32.29,0,0,0,10.2,10.46q-.6,1.71-1.17,3.43a32.27,32.27,0,0,0-14.47,2l-1,3.36a32.28,32.28,0,0,0,11.18,9.41q-.43,1.76-.83,3.53a32.29,32.29,0,0,0-14.2,3.44q-.33,1.72-.63,3.44a32.27,32.27,0,0,0,12,8.27q-.26,1.8-.48,3.6a32.27,32.27,0,0,0-13.79,4.82q-.16,1.74-.29,3.48a32.28,32.28,0,0,0,12.8,7q-.08,1.81-.13,3.63a32.28,32.28,0,0,0-13.15,6.2q0,1.75,0,3.5a32.28,32.28,0,0,0,13.43,5.76q.1,1.81.23,3.62a32.28,32.28,0,0,0-12.59,7.42q.18,1.74.39,3.47a32.29,32.29,0,0,0,13.93,4.41q.28,1.79.58,3.58a32.27,32.27,0,0,0-11.8,8.62q.35,1.71.73,3.42a32.29,32.29,0,0,0,14.3,3q.45,1.76.93,3.51a32.28,32.28,0,0,0-10.9,9.73q.52,1.67,1.06,3.33A32.27,32.27,0,0,0,780.53,601q.62,1.71,1.27,3.4a32.28,32.28,0,0,0-9.89,10.75q.68,1.61,1.38,3.21a32.27,32.27,0,0,0,14.61.18q.78,1.64,1.6,3.26a32.28,32.28,0,0,0-8.79,11.67q.83,1.54,1.69,3.06A32.27,32.27,0,0,0,797,635.3q.94,1.55,1.91,3.08a32.27,32.27,0,0,0-7.61,12.48l2,2.88a32.28,32.28,0,0,0,14.37-2.67q1.09,1.45,2.2,2.88a32.29,32.29,0,0,0-6.35,13.16q1.12,1.34,2.26,2.67a32.28,32.28,0,0,0,14-4.07q1.23,1.34,2.47,2.65a32.29,32.29,0,0,0-5,13.72q1.24,1.23,2.51,2.44a32.28,32.28,0,0,0,13.57-5.42q1.35,1.21,2.72,2.4a32.27,32.27,0,0,0-3.66,14.15l2.73,2.18a32.27,32.27,0,0,0,13-6.73q1.46,1.07,3,2.12a32.28,32.28,0,0,0-2.25,14.44q1.46,1,2.94,1.9a32.3,32.3,0,0,0,12.25-8q1.56.92,3.14,1.82a32.28,32.28,0,0,0-.83,14.59l3.11,1.6a32.28,32.28,0,0,0,11.41-9.13q1.64.77,3.3,1.5a32.28,32.28,0,0,0,.61,14.6q1.62.66,3.25,1.29a32.28,32.28,0,0,0,10.46-10.2q1.71.6,3.43,1.17a32.29,32.29,0,0,0,2,14.47l3.36,1a32.28,32.28,0,0,0,9.41-11.18q1.76.43,3.53.83a32.29,32.29,0,0,0,3.44,14.2q1.72.33,3.44.63a32.28,32.28,0,0,0,8.27-12q1.79.26,3.6.48A32.29,32.29,0,0,0,943.71,741l3.48.29a32.28,32.28,0,0,0,7-12.8q1.81.08,3.63.13A32.26,32.26,0,0,0,964,741.84l3.49,0a32.28,32.28,0,0,0,5.76-13.43q1.81-.1,3.62-.23a32.29,32.29,0,0,0,7.42,12.59l3.47-.39a32.29,32.29,0,0,0,4.42-13.93l3.58-.58a32.28,32.28,0,0,0,8.62,11.8l3.42-.73a32.27,32.27,0,0,0,3-14.3q1.76-.45,3.51-.93a32.28,32.28,0,0,0,9.73,10.9l3.33-1.06A32.29,32.29,0,0,0,1029,717l3.4-1.27a32.27,32.27,0,0,0,10.75,9.89l3.21-1.38a32.28,32.28,0,0,0,.18-14.61q1.64-.78,3.26-1.6a32.28,32.28,0,0,0,11.67,8.79q1.54-.83,3.06-1.69a32.28,32.28,0,0,0-1.25-14.56q1.55-.94,3.08-1.91a32.29,32.29,0,0,0,12.48,7.61l2.88-2a32.28,32.28,0,0,0-2.67-14.37q1.45-1.09,2.88-2.2a32.27,32.27,0,0,0,13.16,6.35l2.67-2.26a32.28,32.28,0,0,0-4.07-14q1.34-1.22,2.65-2.47a32.29,32.29,0,0,0,13.72,5q1.23-1.24,2.43-2.51a32.27,32.27,0,0,0-5.42-13.57q1.21-1.35,2.4-2.72a32.28,32.28,0,0,0,14.15,3.66q1.1-1.36,2.18-2.74a32.29,32.29,0,0,0-6.73-13q1.07-1.46,2.12-2.94a32.28,32.28,0,0,0,14.44,2.25q1-1.46,1.9-2.93a32.28,32.28,0,0,0-8-12.25q.93-1.56,1.82-3.14a32.27,32.27,0,0,0,14.59.83q.81-1.55,1.6-3.11a32.28,32.28,0,0,0-9.13-11.41q.77-1.64,1.5-3.3a32.27,32.27,0,0,0,14.6-.61q.66-1.62,1.29-3.25a32.28,32.28,0,0,0-10.2-10.46q.6-1.71,1.17-3.43a32.27,32.27,0,0,0,14.47-2l1-3.36a32.27,32.27,0,0,0-11.18-9.41q.43-1.76.83-3.53a32.28,32.28,0,0,0,14.2-3.44q.33-1.72.63-3.44a32.27,32.27,0,0,0-12-8.27q.26-1.8.48-3.6a32.29,32.29,0,0,0,13.8-4.82q.16-1.74.29-3.48a32.28,32.28,0,0,0-12.8-7q.08-1.81.13-3.63A32.28,32.28,0,0,0,1169.84,533.48ZM965.45,720.24c-102.37,1.49-186.7-80.41-188.2-182.78-1.19-81.26,50.18-151.14,122.61-177.26a102.92,102.92,0,0,1,93.21,12.09l2.55,1.78c35.67,25.11,50,69.38,62.76,116.37,4.05,15,7.77,29.65,8.74,44.89a94.77,94.77,0,0,1-11.66,51.07c-5.17,9.56-18.74,32-33,33.65-5.12.6-9.82-1.59-14.37-6.69-3-3.36-4.33-6.55-4.06-9.74.57-6.72,8.34-12.93,14.59-17.92l.29-.23c12.77-10.2,20.68-27.19,21.7-46.62,1-18.07-3.83-35.8-8.63-50.77-15.27-47.61-39.53-102.78-92-106.82-65.42-5-117.07,53.59-132.44,111.3-18,67.56,10.57,141.2,69.49,179.08a168.94,168.94,0,0,0,23.09,12.41,181.79,181.79,0,0,0,62.46,15.3c1.22.07,2.59.11,4,.15,1.09.06,2.18.1,3.25.14,1.25,0,2.46.08,3.65.16,1.49.12,3,.29,4.41.54a35.47,35.47,0,0,1,3.94,1c3.12,1.1,5.58,2.88,6.53,5.85.6,1.87.21,5.87-1.21,8.41a3.73,3.73,0,0,1-2,1.92l.33,1.34A187.16,187.16,0,0,1,965.45,720.24ZM979.68,467l-3-.76c-26.21-6.42-56.5,6.18-73.64,30.63-14.8,21.12-20.5,50.91-15.24,79.69,2.83,15.47,9.28,27.14,18.12,40.82h0c1,1.5,2,3,3,4.58,12.17,18.45,38.89,49.9,81.13,53.24,20.61,1.63,42.6-4.15,62.62-16.31a.16.16,0,0,0,.16-.08l.09-.08c1.95-1.19,3.88-2.42,5.79-3.73,20.91-14.37,37-34.21,45.25-55.88,11.9-31.19,14.56-64.13,7.7-95.27l-.15-.67c-1.72-7.8-3.67-16.63.72-22.49a11.78,11.78,0,0,1,13.36-3.68c6.44,2.64,9.38,10.69,11,16.51a142,142,0,0,1,5.22,47c-1.44,25.51-6,46.43-14.52,65.82a188.83,188.83,0,0,1-39.93,57.74c-20.86,20.26-48.68,32-82.66,34.86a49.66,49.66,0,0,1-14.14-.35l-.42-.09c-1.68-.37-3.32-.88-5.07-1.42l-1.69-.52a30.5,30.5,0,0,0-4.24-1.1l-.77-.16a40,40,0,0,0-4.64-.52c-2.39-.18-4.72-.24-6.8-.29h-.23a36.66,36.66,0,0,1-4.23-.45c-7.12-1.24-13.51-5.46-19.43-9.68-32.35-23-55.21-48.52-67.93-75.82-17.73-38-16.31-82.51,3.69-116,21.24-35.61,63.06-56.07,101.73-49.78,8.56,1.39,14.24,3.91,17.87,7.92,3.88,4.29,5,12,.79,15.94C994.63,470.86,987,468.89,979.68,467Zm11.93,251c2-3.55,2.68-9,1.6-12.35a13.54,13.54,0,0,0-.68-1.7,47.15,47.15,0,0,0,6.39.32c2.14,0,4.24-.17,6.28-.35,35.17-3,64-15.18,85.72-36.26a194,194,0,0,0,41-59.32c8.71-20,13.46-41.42,14.93-67.54a147,147,0,0,0-5.4-48.62c-1.94-6.83-5.5-16.3-14-19.77a16.76,16.76,0,0,0-19.26,5.31c-5.77,7.69-3.56,17.72-1.6,26.57l.15.67c6,27.12,4.47,55.67-4.28,83.16l-13.73-6.06a2.5,2.5,0,0,0-2.31,4.43l.31.14L1101,592.9c-.53,1.5-1.05,3-1.62,4.49-7.79,20.43-23.62,40-43.41,53.54q-1.85,1.27-3.72,2.46L1044,641.14a2.5,2.5,0,1,0-4.15,2.79l8.12,12c-18.52,10.72-38.61,15.77-57.44,14.27-17.23-1.36-50.18-9.8-77.36-51l-1.58-2.41,11.41-7.1a2.5,2.5,0,1,0-2.65-4.24l-11.47,7.17c-3-4.65-5.62-9.1-7.92-13.56l12.57-5.79a2.5,2.5,0,1,0-2-4.6l-.13.06-12.67,5.83a79.56,79.56,0,0,1-6-18.94c-5-27.49.37-55.87,14.42-75.92a72.1,72.1,0,0,1,6.84-8.34l10.4,9.25a2.5,2.5,0,1,0,3.32-3.74h0l-10.14-9c16.2-14.82,38.33-21.6,57.94-16.8l2,.5-2.29,10.49a2.5,2.5,0,0,0,4.89,1.06l2.25-10.33c7.18,1.71,14.73,2.65,20.36-2.54,5.24-4.83,6.33-15.46-.47-23-5.82-6.43-14.64-8.5-20.77-9.49-40.63-6.62-84.56,14.83-106.83,52.15-20.84,34.94-22.35,81.2-3.93,120.73,13.09,28.1,36.5,54.27,69.56,77.79,2,1.39,4,2.77,6,4.07a178.32,178.32,0,0,1-44.06-13,163.85,163.85,0,0,1-22.41-12C822.74,630.78,795,559.4,812.49,493.91,820.19,465,837,437,858.56,417.15c3.11-2.86,6.59-5.81,10.42-8.69l8.64,10.44a2.5,2.5,0,0,0,3.85-3.19L873,405.45a119.38,119.38,0,0,1,13.88-8.33l5.66,11.57a2.5,2.5,0,1,0,4.49-2.2h0L891.34,395a102.78,102.78,0,0,1,16.22-5.8L910.18,401a2.5,2.5,0,0,0,2.47,2,2.53,2.53,0,0,0,.51-.06,2.5,2.5,0,0,0,1.9-3v0L912.42,388a96,96,0,0,1,27.22-1.77c49.54,3.81,72.87,57.24,87.66,103.36,4.66,14.53,9.3,31.72,8.39,49-.95,18-8.18,33.66-19.83,43l-.29.23c-7,5.59-15.7,12.54-16.45,21.41-.39,4.56,1.4,9.1,5.31,13.48,5.63,6.32,11.92,9.12,18.68,8.33,16-1.86,29.89-23.5,36.78-36.24a99.76,99.76,0,0,0,12.24-53.8c-1-15.68-5-31.26-8.91-45.87-13-47.92-27.68-93.08-64.71-119.15-11.57-8.15-25-16.57-43.47-20.57q2.49-.1,5-.14c102.37-1.49,186.7,80.41,188.19,182.78C1149.6,625.53,1081.42,704,991.61,718Z" fill="#efefef"/>
			</g>
			<path d="M137.78,110.2a42.8,42.8,0,0,1-19.39,79L275,256.52a41.33,41.33,0,0,0,23.12,2.79c35.88-6,67.1,11,87.81,39.48A30.71,30.71,0,0,0,398.87,309l103,43.24L517,355.39l1.79-4.56-10.15-8.68,2.62-6.09,12.67,1.47,1.85-4.88-9-8.1,2.48-6.68,11.59,1.3q1-2.74,2-5.56l-8.8-7,2.28-6.63,11.24.44c2.62-7.43,5.23-15.06,7.71-22.62l-9.7-7,1.84-6.73,12.3-.52a38.52,38.52,0,0,0,1.17-4.11l-10.64-6.63,1.26-6.89,13.4-.12c.47-1.74.85-3.36,1.46-5.33l-11.32-7,1.16-5.75,13.34-1.87c.42-2.27.61-4.18,1-6.32l-6.63-4.13s-40.38-12-52.32-15.15c-15.72-4.21-30,3.46-39.79,15.31-10.48,12.7-26.1,18.45-41.5,10.26-20-10.64-17.15-28.85-17.15-28.85a30.39,30.39,0,0,0-23-28L131,106.78h0A37,37,0,0,1,137.78,110.2Z" fill="#474b51"/>
			<circle cx="115.17" cy="146.54" r="42.81" transform="translate(-70.1 166.85) rotate(-58.09)" fill="none" stroke="#252525" stroke-miterlimit="10" stroke-width="8"/>
			<path d="M137.78,110.2a42.8,42.8,0,0,1-19.39,79L275,256.52a41.33,41.33,0,0,0,23.12,2.79c35.88-6,67.1,11,87.81,39.48A30.71,30.71,0,0,0,398.87,309l103,43.24L517,355.39l1.79-4.56-10.15-8.68,2.62-6.09,12.67,1.47,1.85-4.88-9-8.1,2.48-6.68,11.59,1.3q1-2.74,2-5.56l-8.8-7,2.28-6.63,11.24.44c2.62-7.43,5.23-15.06,7.71-22.62l-9.7-7,1.84-6.73,12.3-.52a38.52,38.52,0,0,0,1.17-4.11l-10.64-6.63,1.26-6.89,13.4-.12c.47-1.74.85-3.36,1.46-5.33l-11.32-7,1.16-5.75,13.34-1.87c.42-2.27.61-4.18,1-6.32l-6.63-4.13s-40.38-12-52.32-15.15c-15.72-4.21-30,3.46-39.79,15.31-10.48,12.7-26.1,18.45-41.5,10.26-20-10.64-17.15-28.85-17.15-28.85a30.39,30.39,0,0,0-23-28L131,106.78h0A37,37,0,0,1,137.78,110.2Z" fill="none" stroke="#252525" stroke-miterlimit="10" stroke-width="2"/>
			<circle cx="347.4" cy="220.11" r="11.49" transform="translate(-23.08 398.66) rotate(-58.09)" fill="none" stroke="#252525" stroke-miterlimit="10" stroke-width="2"/>
			<circle cx="347.4" cy="220.11" r="21.35" transform="translate(-23.08 398.66) rotate(-58.09)" fill="none" stroke="#252525" stroke-miterlimit="10" stroke-width="2"/>
			<g class="gear gear-1">
				<path d="M318.17,525.93C419.61,554.4,524.93,495.25,553.4,393.81S522.71,187,421.27,158.58,214.52,189.26,186,290.7,216.73,497.46,318.17,525.93ZM446.82,236.14l8.61-11.85a5,5,0,0,1,7-1.1l.14.1a151.37,151.37,0,0,1,47.92,64.6,5,5,0,0,1-2.86,6.47l-.14.05-13.83,4.81a5,5,0,0,1-6.3-2.93A126.66,126.66,0,0,0,447.79,243,5,5,0,0,1,446.82,236.14ZM287.45,462.66l8.27-12.1a5,5,0,0,1,6.8-1.4,126.27,126.27,0,0,0,33.09,14.64q3.48,1,7,1.74a5,5,0,0,1,3.86,5.77l-2.6,14.42a5,5,0,0,1-5.81,4l-.14,0q-4.47-1-8.92-2.21a150.89,150.89,0,0,1-40.07-17.82,5,5,0,0,1-1.58-6.89Zm11.48-270.49a5,5,0,0,1,6.65,2.41l.06.13,4.54,10.46a5,5,0,0,1-2.45,6.5,144.7,144.7,0,0,0-82,144.16,5,5,0,0,1-4.33,5.43l-11.31,1.45a5,5,0,0,1-5.6-4.31l0-.16a166.11,166.11,0,0,1,94.42-166.07Z" fill="#474b51" stroke="#252525" stroke-miterlimit="10" stroke-width="2"/>
				<path d="M358.18,200l2,.59c38.56,11.72,63.91,43.4,88.59,77.62,17.77,24.63,39.69,57.41,51.47,92.46C513.4,409.75,511,444.2,493,473c-8.68,14-19.83,26.22-30.6,38.08l-3.7-3.36c10.63-11.69,21.62-23.78,30.06-37.36,17.35-27.91,19.56-60,6.74-98.13-11.57-34.42-33.22-66.78-50.79-91.13-24.16-33.49-48.92-64.49-86-75.76-14.85-4.49-20.32-1.31-24,4.89a13.06,13.06,0,0,0-1,10.62,11.39,11.39,0,0,0,6.35,7.12,35,35,0,0,0,9.33,2c1.34.16,2.74.33,4.12.55,18.76,3.05,30.6,16.81,42.06,30.11,2.59,3,5.28,6.13,8,9A516,516,0,0,1,443.48,318c13.11,18.07,21.61,32.38,27.57,46.41,7.53,17.74,10.9,35.15,10.3,53.23-1.28,39.11-27.68,72.62-65.69,83.38-36.89,10.45-79.85,6.34-114.91-11-17-8.4-26-23-28.3-45.89C267.17,392,287.61,348,307.18,310.77a22.25,22.25,0,0,0,2.73-6.92c.54-3.86-2.14-8.84-6.21-11.58-1.83-1.23-5.45-3-9-.9-3.32,1.92-5.5,5.59-7.46,9.18-12,22.06-33.1,65.44-39.31,108.15-6.67,45.83,5.26,78.7,35.46,97.7l-2.66,4.23C248.65,490.5,236,456,242.93,408c6.33-43.48,27.7-87.47,39.87-109.82,2.19-4,4.91-8.54,9.34-11.11s9.58-2.13,14.35,1.08c5.74,3.86,9.18,10.61,8.38,16.42a26.36,26.36,0,0,1-3.26,8.56C292.38,349.69,272.29,393,277.43,443.7c2.16,21.32,10,34.25,25.54,41.91,34,16.8,75.6,20.78,111.33,10.66,35.91-10.17,60.85-41.81,62.06-78.74,1.19-36.26-13.9-64.81-36.92-96.54A511,511,0,0,0,400,273c-2.75-3-5.46-6.1-8.09-9.15-10.87-12.62-22.1-25.67-39.07-28.44-1.27-.21-2.55-.36-3.91-.52a39.4,39.4,0,0,1-10.65-2.31,16.53,16.53,0,0,1-9.17-10.15,18.12,18.12,0,0,1,1.38-14.74C337.14,196.4,348,197.18,358.18,200Z" fill="#252525"/>
				<path d="M320,521c-98.64-27.42-156.46-129.78-129-228.42s129.78-156.46,228.42-129S575.88,293.36,548.42,392,418.67,548.41,320,521Zm-7.46,20.32,3.37.94A32.28,32.28,0,0,0,325.25,531q1.77.42,3.54.8a32.28,32.28,0,0,0,3.56,14.2l3.44.6A32.27,32.27,0,0,0,344,534.43q1.8.24,3.6.45a32.27,32.27,0,0,0,4.94,13.75q1.74.15,3.49.26A32.28,32.28,0,0,0,362.92,536q1.81.06,3.63.09a32.28,32.28,0,0,0,6.26,13.2q1.75,0,3.49-.08a32.26,32.26,0,0,0,5.64-13.48q1.81-.11,3.62-.26A32.28,32.28,0,0,0,393.09,548l3.47-.42a32.28,32.28,0,0,0,4.29-14q1.79-.29,3.57-.62a32.27,32.27,0,0,0,8.72,11.73l3.41-.76a32.27,32.27,0,0,0,2.9-14.32q1.75-.47,3.5-1a32.28,32.28,0,0,0,9.83,10.81q1.66-.53,3.32-1.09a32.27,32.27,0,0,0,1.49-14.54l3.39-1.3a32.28,32.28,0,0,0,10.84,9.8q1.6-.69,3.2-1.41a32.28,32.28,0,0,0,0-14.61q1.63-.8,3.24-1.63a32.28,32.28,0,0,0,11.75,8.69q1.53-.85,3-1.72a32.28,32.28,0,0,0-1.38-14.55q1.54-1,3.07-1.94a32.29,32.29,0,0,0,12.54,7.5l2.86-2a32.29,32.29,0,0,0-2.8-14.34q1.44-1.1,2.86-2.23a32.28,32.28,0,0,0,13.22,6.23l2.65-2.28a32.27,32.27,0,0,0-4.19-14q1.33-1.24,2.63-2.5a32.27,32.27,0,0,0,13.76,4.91q1.22-1.25,2.41-2.53a32.28,32.28,0,0,0-5.54-13.52q1.2-1.36,2.37-2.74a32.28,32.28,0,0,0,14.18,3.53q1.09-1.37,2.15-2.75A32.29,32.29,0,0,0,527,455.49q1.06-1.47,2.09-3a32.27,32.27,0,0,0,14.46,2.13q1-1.47,1.87-3a32.28,32.28,0,0,0-8.07-12.18q.91-1.57,1.79-3.15a32.29,32.29,0,0,0,14.6.7q.8-1.55,1.58-3.12a32.27,32.27,0,0,0-9.23-11.33q.75-1.65,1.47-3.32a32.27,32.27,0,0,0,14.59-.73q.64-1.63,1.26-3.26A32.28,32.28,0,0,0,553.18,405q.59-1.72,1.14-3.44a32.28,32.28,0,0,0,14.45-2.16q.48-1.68.94-3.37a32.28,32.28,0,0,0-11.26-9.31q.42-1.77.8-3.54a32.28,32.28,0,0,0,14.17-3.57q.32-1.72.6-3.44A32.27,32.27,0,0,0,561.9,368q.24-1.8.45-3.6a32.27,32.27,0,0,0,13.75-4.94q.15-1.74.26-3.49A32.29,32.29,0,0,0,563.5,349q.06-1.81.09-3.63a32.28,32.28,0,0,0,13.2-6.26q0-1.75-.08-3.49A32.26,32.26,0,0,0,563.23,330q-.11-1.81-.26-3.62a32.29,32.29,0,0,0,12.52-7.53q-.2-1.74-.42-3.47a32.28,32.28,0,0,0-14-4.29q-.29-1.79-.62-3.57a32.28,32.28,0,0,0,11.73-8.72q-.37-1.71-.76-3.41a32.27,32.27,0,0,0-14.32-2.9q-.47-1.75-1-3.5a32.28,32.28,0,0,0,10.9-9.8q-.53-1.66-1.09-3.32a32.28,32.28,0,0,0-14.54-1.49q-.63-1.7-1.3-3.39a32.28,32.28,0,0,0,9.8-10.84q-.69-1.6-1.41-3.2a32.28,32.28,0,0,0-14.61,0q-.8-1.63-1.63-3.24a32.28,32.28,0,0,0,8.69-11.75q-.85-1.53-1.72-3a32.28,32.28,0,0,0-14.55,1.38q-1-1.54-1.94-3.07a32.28,32.28,0,0,0,7.5-12.54l-2-2.86a32.28,32.28,0,0,0-14.34,2.8q-1.1-1.44-2.23-2.86a32.28,32.28,0,0,0,6.23-13.22q-1.13-1.33-2.28-2.65a32.28,32.28,0,0,0-14,4.19q-1.24-1.33-2.5-2.63a32.27,32.27,0,0,0,4.92-13.8q-1.25-1.22-2.53-2.41A32.28,32.28,0,0,0,498,196.78q-1.36-1.2-2.74-2.37a32.28,32.28,0,0,0,3.53-14.18q-1.37-1.09-2.75-2.15a32.29,32.29,0,0,0-13,6.83q-1.47-1.06-3-2.09a32.26,32.26,0,0,0,2.13-14.46q-1.47-.95-3-1.87A32.28,32.28,0,0,0,467,174.56q-1.57-.91-3.15-1.79a32.29,32.29,0,0,0,.7-14.6q-1.55-.8-3.12-1.58a32.27,32.27,0,0,0-11.33,9.23q-1.65-.75-3.32-1.47a32.27,32.27,0,0,0-.73-14.59l-3.26-1.26a32.28,32.28,0,0,0-10.37,10.29q-1.72-.59-3.44-1.14a32.28,32.28,0,0,0-2.16-14.45l-3.37-.94a32.28,32.28,0,0,0-9.31,11.26q-1.77-.42-3.54-.8A32.28,32.28,0,0,0,407,138.55l-3.44-.6a32.27,32.27,0,0,0-8.16,12.12q-1.8-.24-3.6-.45a32.27,32.27,0,0,0-4.94-13.75l-3.49-.26a32.29,32.29,0,0,0-6.94,12.86q-1.81-.06-3.63-.09a32.28,32.28,0,0,0-6.26-13.2l-3.49.08a32.27,32.27,0,0,0-5.64,13.48q-1.81.11-3.62.26a32.29,32.29,0,0,0-7.53-12.52l-3.47.42a32.28,32.28,0,0,0-4.29,14q-1.79.29-3.57.62a32.28,32.28,0,0,0-8.72-11.73l-3.41.76a32.27,32.27,0,0,0-2.9,14.32q-1.75.47-3.5,1A32.27,32.27,0,0,0,306.66,145q-1.66.53-3.32,1.09a32.28,32.28,0,0,0-1.49,14.54q-1.7.63-3.39,1.3a32.29,32.29,0,0,0-10.84-9.8q-1.6.69-3.2,1.41a32.29,32.29,0,0,0,0,14.61q-1.63.8-3.24,1.63a32.28,32.28,0,0,0-11.75-8.69q-1.53.85-3,1.72a32.28,32.28,0,0,0,1.38,14.55q-1.54,1-3.07,1.94a32.28,32.28,0,0,0-12.54-7.5l-2.86,2a32.28,32.28,0,0,0,2.8,14.34q-1.44,1.1-2.86,2.23A32.27,32.27,0,0,0,236,184.14l-2.65,2.28a32.28,32.28,0,0,0,4.19,14q-1.33,1.24-2.63,2.5a32.27,32.27,0,0,0-13.8-4.92q-1.22,1.25-2.41,2.53a32.27,32.27,0,0,0,5.54,13.52q-1.2,1.36-2.37,2.74a32.28,32.28,0,0,0-14.18-3.53q-1.09,1.37-2.15,2.75a32.28,32.28,0,0,0,6.84,12.91q-1.06,1.47-2.09,3a32.26,32.26,0,0,0-14.46-2.13q-.95,1.47-1.87,3a32.28,32.28,0,0,0,8,12.12q-.91,1.57-1.79,3.15a32.28,32.28,0,0,0-14.6-.7q-.8,1.55-1.58,3.12a32.27,32.27,0,0,0,9.23,11.33q-.75,1.65-1.47,3.32a32.27,32.27,0,0,0-14.59.73q-.64,1.63-1.26,3.26a32.28,32.28,0,0,0,10.3,10.37q-.59,1.72-1.14,3.44a32.28,32.28,0,0,0-14.45,2.16q-.48,1.68-.94,3.37A32.28,32.28,0,0,0,181,297.78q-.42,1.77-.8,3.54a32.28,32.28,0,0,0-14.2,3.57q-.31,1.72-.6,3.44a32.27,32.27,0,0,0,12.12,8.16q-.24,1.8-.45,3.6A32.27,32.27,0,0,0,163.34,325q-.15,1.74-.26,3.49a32.28,32.28,0,0,0,12.86,6.94q-.06,1.81-.09,3.63a32.28,32.28,0,0,0-13.2,6.26q0,1.75.08,3.49a32.27,32.27,0,0,0,13.48,5.64q.11,1.81.26,3.62a32.28,32.28,0,0,0-12.52,7.53q.2,1.74.42,3.47a32.28,32.28,0,0,0,14,4.29q.29,1.79.62,3.57a32.27,32.27,0,0,0-11.73,8.72q.37,1.71.76,3.41a32.27,32.27,0,0,0,14.32,2.9q.47,1.75,1,3.5a32.28,32.28,0,0,0-10.81,9.83q.53,1.66,1.09,3.32a32.27,32.27,0,0,0,14.54,1.49q.64,1.7,1.3,3.39a32.28,32.28,0,0,0-9.8,10.84q.69,1.6,1.41,3.2a32.29,32.29,0,0,0,14.61,0q.8,1.63,1.63,3.24a32.28,32.28,0,0,0-8.69,11.75q.85,1.53,1.72,3a32.28,32.28,0,0,0,14.55-1.38q1,1.54,1.94,3.07a32.29,32.29,0,0,0-7.5,12.54l2,2.86a32.28,32.28,0,0,0,14.34-2.8q1.1,1.44,2.23,2.86A32.27,32.27,0,0,0,211.61,476q1.13,1.33,2.28,2.65a32.28,32.28,0,0,0,14-4.19q1.24,1.33,2.5,2.63a32.27,32.27,0,0,0-4.91,13.76q1.25,1.22,2.53,2.41a32.27,32.27,0,0,0,13.52-5.54q1.36,1.2,2.74,2.37a32.28,32.28,0,0,0-3.53,14.18q1.37,1.09,2.75,2.15a32.28,32.28,0,0,0,12.91-6.84q1.47,1.06,3,2.09a32.27,32.27,0,0,0-2.13,14.46q1.47,1,3,1.87a32.28,32.28,0,0,0,12.18-8.07q1.57.91,3.15,1.79a32.28,32.28,0,0,0-.7,14.6q1.55.8,3.12,1.58a32.27,32.27,0,0,0,11.33-9.23q1.65.75,3.32,1.47a32.27,32.27,0,0,0,.73,14.59l3.26,1.26A32.28,32.28,0,0,0,307,525.71q1.72.59,3.44,1.14a32.28,32.28,0,0,0,2.13,14.46Z" fill="#252525"/>
				<circle cx="369.72" cy="342.25" r="44.04" fill="none" stroke="#252525" stroke-miterlimit="10" stroke-width="2"/>
				<circle cx="369.72" cy="342.25" r="34.07" fill="none" stroke="#252525" stroke-miterlimit="10" stroke-width="2"/>
				<path d="M522.39,414.19a2.5,2.5,0,0,1,.39.14l17.3,8.08a2.5,2.5,0,1,1-2.12,4.53l-17.3-8.08a2.5,2.5,0,0,1,1.72-4.67Z" fill="#252525"/>
				<path d="M229.65,436.36a2.5,2.5,0,0,1,1,4.28L215.47,454a2.5,2.5,0,1,1-3.31-3.75h0l15.18-13.41A2.5,2.5,0,0,1,229.65,436.36Z" fill="#252525"/>
				<path d="M358.17,146.33a2.5,2.5,0,0,1,1.82,2.2l2.25,26.32a2.51,2.51,0,0,1-5,.43h0L355,149a2.5,2.5,0,0,1,3.16-2.62Z" fill="#252525"/>
			</g>
			<g class="gear gear-2">
				<path d="M731.79,570.32a106.86,106.86,0,1,0-145.58,40.59,106.86,106.86,0,0,0,145.58-40.59Zm-141-79.49a55,55,0,1,1,20.94,74.91l-.07,0a55,55,0,0,1-20.82-74.88Z" fill="#474b51"/>
				<path d="M728.44,568.43A103,103,0,1,1,689.32,428.1,103,103,0,0,1,728.44,568.43Zm15.63,11.34q1.12-1.9,2.16-3.83a43.51,43.51,0,0,0-9.32-11.28q1.7-3.56,3.13-7.23a43.51,43.51,0,0,0,14.6-.92q.7-2.09,1.32-4.2a43.5,43.5,0,0,0-11.46-9.09q.92-3.83,1.56-7.73a43.51,43.51,0,0,0,14.09-3.93q.25-2.19.42-4.38a43.5,43.5,0,0,0-13.1-6.51q.1-3.94-.08-7.88a43.51,43.51,0,0,0,13-6.77q-.21-2.19-.5-4.37A43.51,43.51,0,0,0,745.7,498q-.72-3.88-1.72-7.69A43.49,43.49,0,0,0,755.25,481q-.66-2.1-1.4-4.17a43.51,43.51,0,0,0-14.61-.62q-1.51-3.64-3.28-7.17a43.5,43.5,0,0,0,9-11.49q-1.09-1.91-2.24-3.79a43.51,43.51,0,0,0-14.42,2.43q-2.23-3.25-4.7-6.33a43.5,43.5,0,0,0,6.5-13.1q-1.46-1.65-3-3.24a43.49,43.49,0,0,0-13.6,5.38q-2.86-2.71-5.91-5.22a43.52,43.52,0,0,0,3.64-14.17q-1.77-1.31-3.59-2.55a43.5,43.5,0,0,0-12.12,8q-3.36-2.06-6.87-3.87a43.49,43.49,0,0,0,.61-14.61q-2-.91-4-1.75A43.5,43.5,0,0,0,675,415.26q-3.72-1.32-7.52-2.36A43.51,43.51,0,0,0,665,398.48q-2.15-.47-4.31-.87A43.51,43.51,0,0,0,652.88,410q-3.91-.51-7.85-.74a43.51,43.51,0,0,0-5.38-13.6h-4.4a43.5,43.5,0,0,0-5.11,13.71q-3.93.31-7.83.9A43.51,43.51,0,0,0,614.22,398q-2.16.44-4.3,1a43.5,43.5,0,0,0-2.15,14.47Q604,414.63,600.3,416a43.51,43.51,0,0,0-10.45-10.23q-2,.88-4,1.83a43.51,43.51,0,0,0,.91,14.6q-3.47,1.88-6.79,4a43.5,43.5,0,0,0-12.35-7.84q-1.79,1.28-3.53,2.62A43.51,43.51,0,0,0,568,435.09q-3,2.56-5.8,5.33a43.5,43.5,0,0,0-13.71-5.1q-1.49,1.62-2.91,3.3a43.5,43.5,0,0,0,6.77,13q-2.4,3.13-4.57,6.42a43.51,43.51,0,0,0-14.47-2.14q-1.12,1.9-2.16,3.83A43.51,43.51,0,0,0,540.5,471q-1.7,3.56-3.13,7.23a43.5,43.5,0,0,0-14.6.92q-.7,2.09-1.32,4.2a43.51,43.51,0,0,0,11.46,9.09q-.92,3.83-1.56,7.73a43.5,43.5,0,0,0-14.09,3.93q-.25,2.19-.42,4.38a43.51,43.51,0,0,0,13.1,6.51q-.1,3.94.08,7.88a43.5,43.5,0,0,0-13,6.77q.21,2.19.5,4.37a43.49,43.49,0,0,0,14.16,3.65q.72,3.88,1.72,7.69a43.51,43.51,0,0,0-11.27,9.32q.66,2.1,1.4,4.17a43.5,43.5,0,0,0,14.61.62q1.51,3.64,3.28,7.17a43.5,43.5,0,0,0-9.09,11.46q1.09,1.91,2.24,3.79A43.51,43.51,0,0,0,549,579.46q2.23,3.25,4.7,6.33a43.51,43.51,0,0,0-6.5,13.1q1.46,1.65,3,3.24a43.5,43.5,0,0,0,13.6-5.38q2.86,2.71,5.91,5.22a43.5,43.5,0,0,0-3.64,14.17q1.77,1.31,3.59,2.55a43.49,43.49,0,0,0,12.19-8.09q3.36,2.06,6.87,3.87a43.5,43.5,0,0,0-.61,14.61q2,.91,4,1.75a43.52,43.52,0,0,0,10.24-10.44q3.72,1.32,7.52,2.36a43.48,43.48,0,0,0,2.44,14.42q2.15.47,4.31.87a43.5,43.5,0,0,0,7.84-12.34q3.91.51,7.85.75a43.51,43.51,0,0,0,5.38,13.6h4.4a43.5,43.5,0,0,0,5.11-13.71q3.93-.31,7.83-.9a43.5,43.5,0,0,0,8.09,12.18q2.16-.44,4.3-1a43.5,43.5,0,0,0,2.15-14.47q3.78-1.12,7.47-2.51a43.49,43.49,0,0,0,10.45,10.23q2-.88,4-1.83a43.5,43.5,0,0,0-.91-14.6q3.47-1.88,6.79-4a43.51,43.51,0,0,0,12.35,7.84q1.79-1.28,3.53-2.62a43.5,43.5,0,0,0-3.92-14.09q3-2.56,5.81-5.33a43.51,43.51,0,0,0,13.71,5.1q1.49-1.62,2.91-3.3A43.51,43.51,0,0,0,725,584q2.4-3.13,4.57-6.42A43.51,43.51,0,0,0,744.07,579.77Z" fill="#252525"/>
				<path d="M702.08,548.39l-10-5.62a58.92,58.92,0,0,0-24.46-76.31,61.06,61.06,0,0,0-18.37-6.63l1.38-11.28a4,4,0,0,0-7.94-1h0l-1.39,11.36A58.91,58.91,0,0,0,581,530.23l-10.94,3a4,4,0,1,0,2.15,7.71l11-3.07a58.94,58.94,0,0,0,105,11.83l9.9,5.58a4,4,0,1,0,3.93-7Zm-88.4,13.82a51,51,0,1,1,69.46-19.43l0,.07a50.63,50.63,0,0,1-68.84,19.69Z" fill="#252525"/>
			</g>
			<g class="arm">
				<path d="M566.85,439l-3.44-4,6-12.17-3.81-3-11.69,6.72-3.11-3,4.55-13-3.48-2.35L540.6,415.4l-4.07-3,3.92-13.1-18.07-12.39-10.7,8.83-3.68-2,1.77-14.23-3.54-1.72-10,9.11-3.83-2.06.94-13.82-4.11-2-9,10.58-4.12-2.4.77-13.67-4-1.28-8.19,9.21L377.24,523.3,324.5,631.61h0a42.94,42.94,0,1,1,72.17,45.94h0L499.18,551s14.89-18.62,15.68-20.47-1.74-8.28-3.94-16.76,2.52-21.67,3.39-26.55,12.77-18,17.13-21.19,14.29-6.49,22-7.15,14.33-1.57,14.33-1.57c9.9-6.08,14.9-22.13,14.9-22.13l-2.8-3.28Z" fill="#474b51"/>
				<path d="M566.85,439l-3.44-4,6-12.17-3.81-3-11.69,6.72-3.11-3,4.55-13-3.48-2.35L540.6,415.4l-4.07-3,3.92-13.1-18.07-12.39-10.7,8.83-3.68-2,1.77-14.23-3.54-1.72-10,9.11-3.83-2.06.94-13.82-4.11-2-9,10.58-4.12-2.4.77-13.67-4-1.28-8.19,9.21L377.24,523.3,324.5,631.61h0a42.94,42.94,0,1,1,72.17,45.94h0L499.18,551s14.89-18.62,15.68-20.47-1.74-8.28-3.94-16.76,2.52-21.67,3.39-26.55,12.77-18,17.13-21.19,14.29-6.49,22-7.15,14.33-1.57,14.33-1.57c9.9-6.08,14.9-22.13,14.9-22.13l-2.8-3.28Z" fill="none" stroke="#252525" stroke-miterlimit="10" stroke-width="2"/>
				<circle cx="362.63" cy="651.41" r="42.93" transform="translate(-335.99 391.09) rotate(-40.46)" fill="none" stroke="#252525" stroke-miterlimit="10" stroke-width="8"/>
				<circle cx="475.27" cy="459.79" r="10.45" transform="translate(-184.71 418.37) rotate(-40.46)" fill="none" stroke="#252525" stroke-miterlimit="10" stroke-width="2"/>
				<circle cx="475.27" cy="459.79" r="19.41" transform="translate(-184.71 418.37) rotate(-40.46)" fill="none" stroke="#252525" stroke-miterlimit="10" stroke-width="2"/>
			</g>
		</g>
	</g>
</svg>
