<?xml version="1.0" encoding="utf-8"?>
<!-- Generator: Adobe Illustrator 20.1.0, SVG Export Plug-In . SVG Version: 6.00 Build 0)  -->
<svg version="1.1" id="Layer_1" xmlns="http://www.w3.org/2000/svg" xmlns:xlink="http://www.w3.org/1999/xlink" x="0px" y="0px"
	 viewBox="0 0 260.1 130.3" enable-background="new 0 0 260.1 130.3" xml:space="preserve">
<g>
	<g>
		<g opacity="0.7">
			<defs>
				<path id="SVGID_76_" opacity="0.7" d="M282.4-186.7c-9,4.7-19.2,7-30.7,7c-11.5,0-21.7-2.3-30.7-7c-9-4.7-16.2-11-21.8-18.9
					c-5.6-7.9-9.8-16.8-12.6-26.5c-2.8-9.8-4.2-20.2-4.2-31.1c0-14.9,2.4-28.4,7.3-40.7c4.8-12.3,12.6-22.5,23.4-30.5
					c10.7-8.1,23.6-12.1,38.7-12.1c15,0,27.9,4,38.7,12.1c10.7,8.1,18.5,18.3,23.4,30.5c4.8,12.3,7.3,25.9,7.3,40.7
					c0,11-1.4,21.4-4.2,31.1c-2.8,9.8-7,18.6-12.6,26.5C298.6-197.7,291.4-191.4,282.4-186.7z M251.7-216.5
					c18.1,0,27.1-15.6,27.1-46.8c0-31-9.1-46.5-27.1-46.5c-18.1,0-27.1,15.5-27.1,46.5C224.6-232.1,233.6-216.5,251.7-216.5z"/>
			</defs>
			<clipPath id="SVGID_2_">
				<use xlink:href="#SVGID_76_"  overflow="visible"/>
			</clipPath>
		</g>
	</g>
</g>
<g>
	<g id="Icon_Triangle_Up_8_" opacity="0.85">
		<g>
			<polygon fill-rule="evenodd" clip-rule="evenodd" fill="#FFFFFF" points="130,0 0,130.3 260.1,130.3 			"/>
		</g>
	</g>
	<g opacity="0.9">
		<path fill="#859894" d="M85.2,100.3H95l0.8-6h-2l1.3-2h5.4l0.3,2h-2.6l-0.7,6h9.6l0.8-6h-1.6l-1.8-11h2.2l0.7-5H92.6l-0.7,5h2.2
			l-6,11h-2.1L85.2,100.3z M96.5,89.3l2.8-6.7l0.7,6.7H96.5z M118.1,100.3h6.1l0.8-6h-1.6l2.9-16h-6.9l-0.7,5h1.7l-0.7,3.8
			c-0.8-0.9-2-1.5-3.6-1.5c-4.3,0-7.6,3.3-7.6,8.4c0,3.9,2.3,6.4,5.6,6.4c1.6,0,2.9-0.4,4.3-1.5L118.1,100.3z M116.7,89.8
			c1.4,0,2.3,1,2.3,2.5c0,1.9-1.1,3.3-2.7,3.3c-1.5,0-2.5-1-2.5-2.6C113.8,91.1,114.9,89.8,116.7,89.8L116.7,89.8z M124.5,100.3h6.7
			l1.1-7h0.2l2.5,3h-1.5l-0.5,4h7.6l0.7-6H140l-2.6-2.3l3.2-1.7h1.5l0.7-5h-7.4l-0.6,4h1.4l-3.8,2.9l2.4-13.9h-7.1l-0.7,5h1.8
			l-2.3,11h-1.4L124.5,100.3z M152.7,95.1c-0.8,0.7-1.6,0.9-2.6,0.9c-1.6,0-2.6-1.7-2.6-2.7h9.7c0,0,0.1-0.6,0.1-1
			c0-4.5-2.6-7-6.9-7c-5,0-8.3,3.4-8.3,7.8c0,4.4,2.9,7,7.4,7c2.6,0,5-0.9,6.7-2.8L152.7,95.1z M147.7,92.3c0.4-2,1.2-2.7,2.6-2.7
			c1.3,0,2.2,1,2.2,2.3c0,0.1,0-0.5,0,0.5H147.7z M161.6,100.3h5.5l5.9-10h1.1l0.8-5h-7.6l-0.7,5h1.3l-2.7,5.2l-1.3-5.2h1.1l0.7-5
			h-7.4l-0.7,5h1.6L161.6,100.3z"/>
		<path fill="#859894" d="M173.2,82.3c0,0.5,0.4,0.8,0.9,0.8c0.5,0,0.8-0.4,0.8-0.8c0-0.5-0.4-0.9-0.9-0.9
			C173.6,81.4,173.2,81.8,173.2,82.3"/>
		<path fill="#859894" d="M172,81.3h0.7l0.3-3h-1.2l-0.1,0.7c-0.3-0.3-0.7-0.3-1.2-0.3c-1.2,0-2.1,1-2.1,2.3c0,1.3,0.9,2.2,2.1,2.2
			c0.8,0,1.6-0.3,2.1-0.9l-1.2-0.9c-0.2,0.3-0.5,0.4-0.8,0.4c-0.4,0-0.7-0.3-0.7-0.7c0-0.5,0.3-0.8,0.7-0.8c0.3,0,0.8,0.8,0.9,0.8"
			/>
		<path fill="#859894" d="M165.6,82.3h-0.4l0.2-1.3c0.1-0.4,0.3-0.7,0.6-0.7c0.2,0,0.3,0,0.3,0.2c0,0,0,0.1,0,0.2l-0.5,2.7h2.1
			l0.2-1h-0.5l0.2-1.6c0.1-0.4,0.1-0.7,0.1-0.8c0-0.6-0.3-0.9-1-0.9c-0.6,0-1.1-0.1-1.6,0.4l0.1-1h-1.9l-0.2,3h0.5l-0.3,1h-0.5
			l-0.2,1h2.5L165.6,82.3z"/>
		<polygon fill="#859894" points="162.5,82.3 161.9,82.3 162.6,78.3 163.2,78.3 163.4,76.3 160.6,76.3 160.3,78.3 161,78.3 
			160.3,82.3 159.7,82.3 159.4,83.3 162.3,83.3 		"/>
		<polygon fill-rule="evenodd" clip-rule="evenodd" fill="#859894" points="137,78.3 158.1,78.3 157.3,83.3 136.2,83.3 		"/>
	</g>
</g>
</svg>
