<?xml version="1.0" encoding="utf-8"?>
<!-- Generator: Adobe Illustrator 20.1.0, SVG Export Plug-In . SVG Version: 6.00 Build 0)  -->
<svg version="1.1" id="svg-performance" xmlns="http://www.w3.org/2000/svg" xmlns:xlink="http://www.w3.org/1999/xlink" x="0px" y="0px"
	 viewBox="0 0 1366 534" enable-background="new 0 0 1366 534" xml:space="preserve">
<image overflow="visible" width="1366" height="254" xlink:href="/timeline/timeline.png"  transform="matrix(1 0 0 1 0 280.2221)">
</image>
<g class="benchmark">
	<g class="text">
		<!-- x = x1 - 40 -->
		<!-- y = y2 - 80 -->
		<rect x="112.7" y="290" width="80" rx="3" ry="3" height="30" class="fill-blue-gray"/>
		<!-- x = x1 -->
		<!-- y = y2 - 58.5 -->
		<text x="152.7" y="311.5" text-anchor="middle" class="fill-white">1987</text>
		<!-- x = x1 -->
		<!-- y = y2 - 28 -->
		<text x="152.7" y="342" text-anchor="middle" class="fill-blue-gray">
			<tspan x="152.7" dy="0">Created</tspan>
			<tspan x="152.7" dy="16">"AMT Technology"</tspan>
		</text>
	</g>
	<line x1="152.7" x2="152.7" y1="484.2" y2="370" class="line"/>
	<g class="dot">
		<path fill="#FFFFFF" d="M152.7,484.2c-4.8,0-8.7,3.9-8.7,8.7s3.9,8.7,8.7,8.7s8.7-3.9,8.7-8.7S157.5,484.2,152.7,484.2z"/>
		<path fill="#40D1E3" d="M152.7,484.2c-4.8,0-8.7,3.9-8.7,8.7s3.9,8.7,8.7,8.7s8.7-3.9,8.7-8.7S157.5,484.2,152.7,484.2z
		 M152.7,499.9c-3.8,0-7-3.1-7-7c0-3.8,3.1-7,7-7c3.8,0,7,3.1,7,7C159.7,496.7,156.6,499.9,152.7,499.9z"/>
	</g>
</g>
<g class="benchmark">
	<g class="text">
		<!-- x = x1 - 40 -->
		<!-- y = y2 - 80 -->
		<rect x="345.6" y="275" width="80" rx="3" ry="3" height="30" class="fill-blue-gray"/>
		<!-- x = x1 -->
		<!-- y = y2 - 58.5 -->
		<text x="385.6" y="296.5" text-anchor="middle" class="fill-white">1993</text>
		<!-- x = x1 -->
		<!-- y = y2 - 28 -->
		<text x="385.6" y="327" text-anchor="middle" class="fill-blue-gray">
			<tspan x="385.6" dy="0">Opened Goodland, IN</tspan>
			<tspan x="385.6" dy="16">Facility</tspan>
		</text>
	</g>
	<line x1="385.6" x2="385.6" y1="453" y2="355" class="line"/>
	<g class="dot">
		<path fill="#FFFFFF" d="M385.6,446.1c-4.8,0-8.7,3.9-8.7,8.7c0,4.8,3.9,8.7,8.7,8.7s8.7-3.9,8.7-8.7
			C394.3,450,390.4,446.1,385.6,446.1z"/>
		<path fill="#40D1E3" d="M385.6,446.1c-4.8,0-8.7,3.9-8.7,8.7c0,4.8,3.9,8.7,8.7,8.7s8.7-3.9,8.7-8.7
			C394.3,450,390.4,446.1,385.6,446.1z M385.6,461.9c-3.8,0-7-3.1-7-7c0-3.8,3.1-7,7-7c3.8,0,7,3.1,7,7
			C392.6,458.7,389.4,461.9,385.6,461.9z"/>
	</g>
</g>
<g class="benchmark">
	<g class="text">
		<!-- x = x1 - 40 -->
		<!-- y = y2 - 80 -->
		<rect x="478.6" y="216" width="80" rx="3" ry="3" height="30" class="fill-blue-gray"/>
		<!-- x = x1 -->
		<!-- y = y2 - 58.5 -->
		<text x="518.6" y="237.5" text-anchor="middle" class="fill-white">1996</text>
		<!-- x = x1 -->
		<!-- y = y2 - 28 -->
		<text x="518.6" y="268" text-anchor="middle" class="fill-blue-gray">
			<tspan x="518.6" dy="0">Received TS</tspan>
			<tspan x="518.6" dy="16">Certification</tspan>
		</text>
	</g>
	<line x1="518.6" x2="518.6" y1="409.6" y2="296" class="line"/>
	<g class="dot">
		<path fill="#FFFFFF" d="M518.6,409.6c-4.8,0-8.7,3.9-8.7,8.7s3.9,8.7,8.7,8.7s8.7-3.9,8.7-8.7C527.3,413.5,523.4,409.6,518.6,409.6
			z"/>
		<path fill="#40D1E3" d="M518.6,409.6c-4.8,0-8.7,3.9-8.7,8.7s3.9,8.7,8.7,8.7s8.7-3.9,8.7-8.7C527.3,413.5,523.4,409.6,518.6,409.6
			z M518.6,425.3c-3.8,0-7-3.1-7-7c0-3.8,3.1-7,7-7c3.8,0,7,3.1,7,7C525.6,422.1,522.4,425.3,518.6,425.3z"/>
	</g>
</g>
<g class="benchmark">
	<g class="text">
		<!-- x = x1 - 40 -->
		<!-- y = y2 - 80 -->
		<rect x="738.8" y="194" width="80" rx="3" ry="3" height="30" class="fill-blue-gray"/>
		<!-- x = x1 -->
		<!-- y = y2 - 58.5 -->
		<text x="778.8" y="215.5" text-anchor="middle" class="fill-white">2001</text>
		<!-- x = x1 -->
		<!-- y = y2 - 28 -->
		<text x="778.8" y="246" text-anchor="middle" class="fill-blue-gray">
			<tspan x="778.8" dy="0">Reached First</tspan>
			<tspan x="778.8" dy="16">100 Employees</tspan>
		</text>
	</g>
	<line x1="778.8" x2="778.8" y1="393.8" y2="274" class="line"/>
	<g class="dot">
		<path fill="#FFFFFF" d="M779.8,393.8c-4.8,0-8.7,3.9-8.7,8.7s3.9,8.7,8.7,8.7c4.8,0,8.7-3.9,8.7-8.7
			C788.6,397.7,784.6,393.8,779.8,393.8z"/>
		<path fill="#40D1E3" d="M779.8,393.8c-4.8,0-8.7,3.9-8.7,8.7s3.9,8.7,8.7,8.7c4.8,0,8.7-3.9,8.7-8.7
			C788.6,397.7,784.6,393.8,779.8,393.8z M779.8,409.5c-3.8,0-7-3.1-7-7c0-3.8,3.1-7,7-7c3.8,0,7,3.1,7,7
			C786.9,406.3,783.6,409.5,779.8,409.5z"/>
	</g>
</g>
<g class="benchmark">
	<g class="text">
		<!-- x = x1 - 40 -->
		<!-- y = y2 - 80 -->
		<rect x="999.8" y="155" width="80" rx="3" ry="3" height="30" class="fill-blue-gray"/>
		<!-- x = x1 -->
		<!-- y = y2 - 58.5 -->
		<text x="1039.8" y="176.5" text-anchor="middle" class="fill-white">2007</text>
		<!-- x = x1 -->
		<!-- y = y2 - 28 -->
		<text x="1039.8" y="207" text-anchor="middle" class="fill-blue-gray">
			<tspan x="1039.8" dy="0">Opened</tspan>
			<tspan x="1039.8" dy="16">Monticello, IN</tspan>
		</text>
	</g>
	<line x1="1039.8" x2="1039.8" y1="365.2" y2="235" class="line"/>
	<g class="dot">
		<path fill="#FFFFFF" d="M1039.8,365.2c-4.8,0-8.7,3.9-8.7,8.7s3.9,8.7,8.7,8.7c4.8,0,8.7-3.9,8.7-8.7
			C1048.5,369.1,1044.7,365.2,1039.8,365.2z"/>
		<path fill="#40D1E3" d="M1039.8,365.2c-4.8,0-8.7,3.9-8.7,8.7s3.9,8.7,8.7,8.7c4.8,0,8.7-3.9,8.7-8.7
			C1048.5,369.1,1044.7,365.2,1039.8,365.2z M1039.8,380.9c-3.8,0-7-3.1-7-7c0-3.8,3.1-7,7-7c3.8,0,7,3.1,7,7
			C1046.8,377.7,1043.7,380.9,1039.8,380.9z"/>
	</g>
</g>
<g class="benchmark">
	<g class="text">
		<!-- x = x1 - 40 -->
		<!-- y = y2 - 80 -->
		<rect x="1188.5" y="120" width="80" rx="3" ry="3" height="30" class="fill-blue-gray"/>
		<!-- x = x1 -->
		<!-- y = y2 - 58.5 -->
		<text x="1228.5" y="141.5" text-anchor="middle" class="fill-white">2016</text>
		<!-- x = x1 -->
		<!-- y = y2 - 28 -->
		<text x="1228.5" y="172" text-anchor="middle" class="fill-blue-gray">
			<tspan x="1228.5" dy="0">Reached Top 100 Molders</tspan>
			<tspan x="1228.5" dy="16">in US, No. 93</tspan>
		</text>
	</g>
	<line x1="1228.5" x2="1228.5" y1="340.8" y2="200" class="line"/>
	<g class="dot">
		<path fill="#FFFFFF" d="M1228.5,340.8c-4.8,0-8.7,3.9-8.7,8.7c0,4.8,3.9,8.7,8.7,8.7c4.8,0,8.7-3.9,8.7-8.7
			C1237.3,344.8,1233.3,340.8,1228.5,340.8z"/>
		<path fill="#40D1E3" d="M1228.5,340.8c-4.8,0-8.7,3.9-8.7,8.7c0,4.8,3.9,8.7,8.7,8.7c4.8,0,8.7-3.9,8.7-8.7
			C1237.3,344.8,1233.3,340.8,1228.5,340.8z M1228.5,356.6c-3.8,0-7-3.1-7-7c0-3.8,3.1-7,7-7c3.8,0,7,3.1,7,7
			C1235.5,353.5,1232.3,356.6,1228.5,356.6z"/>
	</g>
</g>
</svg>
