<?xml version="1.0" encoding="utf-8"?>
<!-- Generator: Adobe Illustrator 21.0.0, SVG Export Plug-In . SVG Version: 6.00 Build 0)  -->
<svg version="1.1" id="Layer_1" xmlns="http://www.w3.org/2000/svg" xmlns:xlink="http://www.w3.org/1999/xlink" x="0px" y="0px"
	 viewBox="0 0 400.2 479.8" enable-background="new 0 0 400.2 479.8" xml:space="preserve">
<g>
	<g>
		<path fill="#859894" d="M364.3,479.8H0V33h364.3V479.8z M5,474.8h354.3V38H5V474.8z"/>
	</g>
	<g>
		<path fill="#859894" d="M400.2,446.8H35.9V0h364.3V446.8z M40.9,441.8h354.3V5H40.9V441.8z"/>
	</g>
	<g>
		<rect x="20.7" y="19.2" fill="#FFFFFF" width="359.3" height="441.8"/>
		<path fill="#0581FF" d="M385,466H15.7V14.2H385V466z M25.7,456H375V24.2H25.7V456z"/>
	</g>
	<g>
		<path fill="#859894" d="M91.9,92.7h-3.2L78.7,79v13.7h-3.4V73.5h3.4l9.8,13.3V73.5h3.4V92.7z"/>
		<path fill="#859894" d="M112,90.2c-1.8,1.9-4.2,2.8-7,2.8c-2.9,0-5.2-0.9-7-2.8c-1.8-1.9-2.8-4.2-2.8-7.1c0-2.9,0.9-5.2,2.8-7.1
			c1.8-1.9,4.2-2.8,7-2.8c2.9,0,5.2,0.9,7,2.8c1.8,1.9,2.8,4.2,2.8,7.1C114.8,86,113.9,88.4,112,90.2z M105,90c1.9,0,3.4-0.7,4.6-2
			c1.2-1.3,1.8-3,1.8-5c0-2-0.6-3.7-1.8-5c-1.2-1.3-2.7-2-4.6-2c-1.9,0-3.5,0.7-4.6,2s-1.7,3-1.7,5c0,2,0.6,3.7,1.7,5
			C101.5,89.4,103.1,90,105,90z"/>
		<path fill="#859894" d="M132.9,92.7h-3.9l-4.2-7.2h-3.4v7.2H118V73.5h8.4c1.9,0,3.4,0.6,4.6,1.7c1.2,1.1,1.7,2.6,1.7,4.3
			c0,1.6-0.4,2.9-1.3,3.9c-0.9,1-2,1.6-3.2,1.8L132.9,92.7z M126,82.6c1,0,1.7-0.3,2.4-0.8c0.6-0.6,0.9-1.3,0.9-2.2
			c0-0.9-0.3-1.6-0.9-2.2c-0.6-0.6-1.4-0.8-2.4-0.8h-4.6v6.1H126z"/>
		<path fill="#859894" d="M143.7,92.7h-3.4V76.5h-5.8v-3h15v3h-5.8V92.7z"/>
		<path fill="#859894" d="M169.1,92.7h-3.4v-8.4h-10v8.4h-3.4V73.5h3.4v7.8h10v-7.8h3.4V92.7z"/>
		<path fill="#859894" d="M197.8,92.7H194l-1.4-3.7h-8.8l-1.4,3.7h-3.8l7.5-19.2h4.2L197.8,92.7z M191.7,86l-3.4-9.1l-3.4,9.1H191.7
			z"/>
		<path fill="#859894" d="M219.8,92.7h-3.4V77.9l-5.9,14.8h-1.4l-5.9-14.8v14.8h-3.4V73.5h4.7l5.2,13.2l5.2-13.2h4.7V92.7z"/>
		<path fill="#859894" d="M237,92.7h-13.1V73.5H237v3h-9.8v4.9h9.6v3h-9.6v5.3h9.8V92.7z"/>
		<path fill="#859894" d="M255.3,92.7h-3.9l-4.2-7.2h-3.4v7.2h-3.4V73.5h8.4c1.9,0,3.4,0.6,4.6,1.7c1.2,1.1,1.7,2.6,1.7,4.3
			c0,1.6-0.4,2.9-1.3,3.9c-0.9,1-2,1.6-3.2,1.8L255.3,92.7z M248.5,82.6c1,0,1.7-0.3,2.4-0.8c0.6-0.6,0.9-1.3,0.9-2.2
			c0-0.9-0.3-1.6-0.9-2.2c-0.6-0.6-1.4-0.8-2.4-0.8h-4.6v6.1H248.5z"/>
		<path fill="#859894" d="M261.9,92.7h-3.4V73.5h3.4V92.7z"/>
		<path fill="#859894" d="M275.2,93c-2.9,0-5.3-0.9-7.2-2.8c-1.9-1.8-2.9-4.2-2.9-7.1c0-2.9,1-5.3,2.9-7.1s4.3-2.8,7.2-2.8
			c3.4,0,5.9,1.4,7.7,4.3l-2.8,1.5c-0.5-0.8-1.2-1.5-2-2c-0.9-0.5-1.8-0.8-2.8-0.8c-1.9,0-3.5,0.7-4.7,2s-1.9,3-1.9,5
			c0,2,0.6,3.6,1.9,5s2.8,2,4.7,2c1,0,1.9-0.3,2.8-0.8c0.9-0.5,1.5-1.2,2-2l2.9,1.4C281.1,91.6,278.5,93,275.2,93z"/>
		<path fill="#859894" d="M302.7,92.7h-3.8l-1.4-3.7h-8.8l-1.4,3.7h-3.8l7.5-19.2h4.2L302.7,92.7z M296.6,86l-3.4-9.1l-3.4,9.1
			H296.6z"/>
		<path fill="#859894" d="M305.7,75.8c0,1-0.2,1.9-0.7,2.7c-0.5,0.9-1.1,1.6-1.9,2.2l-1.4-1.1c0.5-0.3,0.9-0.7,1.3-1.2
			s0.7-1,0.7-1.5c-0.1,0-0.2,0.1-0.5,0.1c-0.5,0-0.9-0.2-1.2-0.5c-0.3-0.3-0.5-0.8-0.5-1.3c0-0.5,0.2-1,0.6-1.4
			c0.4-0.4,0.8-0.6,1.4-0.6c0.6,0,1.1,0.2,1.6,0.7C305.5,74.4,305.7,75,305.7,75.8z"/>
		<path fill="#859894" d="M315.7,93c-3.2,0-5.8-1-7.8-3l1.9-2.6c1.6,1.8,3.7,2.7,6.1,2.7c1.3,0,2.2-0.3,2.9-0.8
			c0.6-0.5,0.9-1.1,0.9-1.9c0-0.6-0.3-1.1-0.8-1.5s-1.2-0.7-2.1-0.9c-0.8-0.2-1.7-0.4-2.7-0.7c-1-0.3-1.9-0.6-2.7-0.9
			c-0.8-0.3-1.5-0.9-2.1-1.7c-0.5-0.8-0.8-1.7-0.8-2.8c0-1.6,0.6-3,1.9-4c1.3-1.1,3-1.6,5.1-1.6c2.9,0,5.3,0.9,7.2,2.7l-1.9,2.5
			c-1.5-1.5-3.3-2.2-5.6-2.2c-1,0-1.8,0.2-2.3,0.7c-0.6,0.4-0.9,1-0.9,1.7c0,0.5,0.2,0.9,0.6,1.2s0.9,0.6,1.6,0.8s1.4,0.4,2.2,0.6
			c0.8,0.2,1.6,0.4,2.4,0.7s1.5,0.6,2.2,1s1.2,0.9,1.6,1.7c0.4,0.7,0.6,1.6,0.6,2.5c0,1.7-0.6,3.1-1.9,4.3
			C320,92.5,318.1,93,315.7,93z"/>
	</g>
	<g>
		<path fill="#0581FF" d="M129,195.8h-23.4V139H84.9v-20.4h64.7V139H129V195.8z"/>
		<path fill="#0581FF" d="M223.8,186.1c-8.1,7.4-18.1,11.2-30.1,11.2c-12,0-22.1-3.7-30.1-11.2c-8.1-7.4-12.1-17-12.1-28.8
			c0-11.7,4-21.3,12.1-28.8c8.1-7.4,18.1-11.2,30.1-11.2c12,0,22.1,3.7,30.1,11.2c8.1,7.4,12.1,17,12.1,28.8
			C235.9,169,231.9,178.6,223.8,186.1z M180.3,171.1c3.4,3.7,7.9,5.6,13.4,5.6c5.5,0,9.9-1.9,13.4-5.6c3.4-3.7,5.1-8.3,5.1-13.8
			c0-5.5-1.7-10.1-5.1-13.8c-3.4-3.7-7.9-5.6-13.4-5.6c-5.5,0-9.9,1.9-13.4,5.6c-3.4,3.7-5.1,8.3-5.1,13.8
			C175.2,162.8,176.9,167.4,180.3,171.1z"/>
		<path fill="#0581FF" d="M267.6,195.8h-23.4v-77.2h41.2c8.7,0,15.5,2.5,20.4,7.6c4.9,5.1,7.3,11.4,7.3,18.9
			c0,7.5-2.5,13.8-7.3,18.8c-4.9,5.1-11.7,7.6-20.4,7.6h-17.8V195.8z M282.4,151.2c2.1,0,3.8-0.5,5.1-1.6c1.3-1,2-2.5,2-4.5
			c0-2-0.7-3.5-2-4.6c-1.3-1-3-1.6-5.1-1.6h-14.8v12.2H282.4z"/>
	</g>
	<g>
		<path fill="#859894" d="M166.3,410.5h-29.2V403c8.3-6,13.5-10,15.8-12.1c2.3-2.1,3.4-4.1,3.4-5.9c0-1.2-0.5-2.1-1.5-2.8
			c-1-0.7-2.2-1-3.7-1c-3.7,0-7,1.4-9.9,4.1l-5.3-6.4c1.9-2.1,4.2-3.6,6.9-4.7c2.7-1,5.4-1.5,8.2-1.5c4.4,0,8,1.1,10.9,3.4
			c2.8,2.3,4.2,5.2,4.2,8.9c0,2.8-1,5.6-3.1,8.2c-2.1,2.6-5.5,5.6-10.2,8.9h13.6V410.5z"/>
		<path fill="#859894" d="M193,409.6c-2.1,1.1-4.4,1.6-7.1,1.6c-2.6,0-5-0.5-7.1-1.6c-2.1-1.1-3.7-2.5-5-4.4
			c-1.3-1.8-2.3-3.9-2.9-6.1c-0.7-2.3-1-4.6-1-7.2c0-3.4,0.6-6.6,1.7-9.4c1.1-2.8,2.9-5.2,5.4-7c2.5-1.9,5.4-2.8,8.9-2.8
			s6.4,0.9,8.9,2.8c2.5,1.9,4.3,4.2,5.4,7c1.1,2.8,1.7,6,1.7,9.4c0,2.5-0.3,4.9-1,7.2c-0.7,2.3-1.6,4.3-2.9,6.1
			C196.8,407,195.1,408.5,193,409.6z M186,402.7c4.2,0,6.3-3.6,6.3-10.8c0-7.1-2.1-10.7-6.3-10.7s-6.3,3.6-6.3,10.7
			C179.7,399.1,181.8,402.7,186,402.7z"/>
		<path fill="#859894" d="M225,410.5h-9.6v-25l-6.3,6.3l-5.5-5.8l13-12.8h8.3V410.5z"/>
		<path fill="#859894" d="M246.7,411.2c-5.6,0-9.8-1.8-12.7-5.3c-2.8-3.6-4.2-8.2-4.2-13.9c0-5.9,1.7-10.6,5-14.1
			c3.3-3.5,7.8-5.2,13.5-5.2c4.5,0,8.2,1.2,11.3,3.6l-4.1,7.4c-2-1.6-4.4-2.5-7.1-2.5c-2.4,0-4.4,0.8-6.2,2.4
			c-1.7,1.6-2.6,3.6-2.6,6.1v0.4c0.9-1.3,2.2-2.3,3.9-3.1s3.4-1.2,5.2-1.2c3.6,0,6.6,1.1,9.1,3.3s3.8,5.2,3.8,9c0,3.8-1.4,7-4.2,9.4
			C254.6,410,251,411.2,246.7,411.2z M246.1,402.7c1.7,0,3.1-0.4,4.2-1.3c1.1-0.9,1.6-1.8,1.6-3c0-1.5-0.6-2.5-1.8-3.3
			c-1.2-0.7-2.6-1.1-4.3-1.1c-2.6,0-4.7,0.8-6.3,2.5c0.1,1.7,0.8,3.2,1.8,4.4C242.4,402.1,244,402.7,246.1,402.7z"/>
	</g>
	<g>
		<path fill="#0581FF" d="M97.7,244.8h-7.4v-27.5h7.4V244.8z"/>
		<path fill="#0581FF" d="M129.3,244.8h-7.1l-12.1-15.9v15.9h-7.4v-27.5h7.6l11.5,15.2v-15.2h7.4V244.8z"/>
		<path fill="#0581FF" d="M139.8,245.3c-3.3,0-5.9-0.8-7.8-2.5l3.1-5.4c1.3,1.1,2.7,1.6,4.1,1.6c1.2,0,2.1-0.3,2.8-1
			c0.7-0.7,1-1.6,1-2.7v-18h7.4v18.1c0,3.3-0.9,5.8-2.8,7.5C145.6,244.4,143.1,245.3,139.8,245.3z"/>
		<path fill="#0581FF" d="M176.4,244.8h-20.9v-27.5h20.9v6.2h-13.5v4.3h13.2v6.2h-13.2v4.7h13.5V244.8z"/>
		<path fill="#0581FF" d="M194.6,245.3c-4.4,0-8.1-1.3-11-4c-2.9-2.7-4.4-6.1-4.4-10.3c0-4.2,1.5-7.6,4.4-10.3c2.9-2.6,6.6-4,11-4
			c3.2,0,5.8,0.7,7.8,2.1c2,1.4,3.6,3.2,4.7,5.2l-6.3,2.9c-0.5-1.1-1.3-2.1-2.4-2.8c-1.1-0.8-2.4-1.2-3.7-1.2
			c-2.3,0-4.2,0.8-5.7,2.3c-1.5,1.5-2.2,3.4-2.2,5.7c0,2.3,0.7,4.1,2.2,5.7c1.5,1.5,3.4,2.3,5.7,2.3c1.3,0,2.6-0.4,3.7-1.2
			c1.1-0.8,1.9-1.7,2.4-2.8l6.3,2.9c-1.1,2.1-2.6,3.8-4.7,5.3S197.7,245.3,194.6,245.3z"/>
		<path fill="#0581FF" d="M223.9,244.8h-7.4v-21.3h-8v-6.2h23.3v6.2h-7.9V244.8z"/>
		<path fill="#0581FF" d="M242.7,244.8h-7.4v-27.5h7.4V244.8z"/>
		<path fill="#0581FF" d="M272.6,241.3c-2.9,2.7-6.5,4-10.9,4s-8-1.3-10.9-4c-2.9-2.7-4.3-6.1-4.3-10.2c0-4.2,1.4-7.6,4.3-10.2
			c2.9-2.7,6.5-4,10.9-4s8,1.3,10.9,4c2.9,2.7,4.3,6.1,4.3,10.2C276.9,235.2,275.4,238.6,272.6,241.3z M256,236.7
			c1.4,1.5,3.3,2.3,5.6,2.3c2.3,0,4.2-0.8,5.6-2.3c1.4-1.5,2.1-3.4,2.1-5.7c0-2.3-0.7-4.2-2.1-5.7c-1.4-1.5-3.3-2.3-5.6-2.3
			c-2.3,0-4.2,0.8-5.6,2.3c-1.4,1.5-2.2,3.4-2.2,5.7C253.9,233.3,254.6,235.2,256,236.7z"/>
		<path fill="#0581FF" d="M307.1,244.8H300l-12.1-15.9v15.9h-7.4v-27.5h7.6l11.5,15.2v-15.2h7.4V244.8z"/>
		<path fill="#0581FF" d="M145.1,281.7h-7.4v-18.2l-7.2,18.2h-3.2l-7.2-18.2v18.2h-7.4v-27.5h10.2l6,15.2l5.9-15.2h10.2V281.7z"/>
		<path fill="#0581FF" d="M174.9,278.2c-2.9,2.7-6.5,4-10.9,4s-8-1.3-10.9-4c-2.9-2.7-4.3-6.1-4.3-10.2c0-4.2,1.4-7.6,4.3-10.2
			c2.9-2.7,6.5-4,10.9-4s8,1.3,10.9,4c2.9,2.7,4.3,6.1,4.3,10.2C179.2,272.1,177.8,275.5,174.9,278.2z M158.4,273.7
			c1.4,1.5,3.3,2.3,5.6,2.3c2.3,0,4.2-0.8,5.6-2.3c1.4-1.5,2.1-3.4,2.1-5.7c0-2.3-0.7-4.2-2.1-5.7c-1.4-1.5-3.3-2.3-5.6-2.3
			c-2.3,0-4.2,0.8-5.6,2.3c-1.4,1.5-2.2,3.4-2.2,5.7C156.2,270.2,156.9,272.1,158.4,273.7z"/>
		<path fill="#0581FF" d="M201.6,281.7h-18.8v-27.5h7.4v21.3h11.5V281.7z"/>
		<path fill="#0581FF" d="M217.4,281.7h-12v-27.5h12c4.6,0,8.3,1.2,11.1,3.7c2.9,2.5,4.3,5.8,4.3,10s-1.4,7.6-4.3,10.1
			C225.6,280.5,221.9,281.7,217.4,281.7z M217.3,275.5c2.4,0,4.3-0.7,5.8-2.2c1.4-1.5,2.1-3.3,2.1-5.4c0-2.2-0.7-4-2.1-5.4
			c-1.4-1.4-3.3-2.1-5.8-2.1h-4.7v15.2H217.3z"/>
		<path fill="#0581FF" d="M257.3,281.7h-20.9v-27.5h20.9v6.2h-13.5v4.3H257v6.2h-13.2v4.7h13.5V281.7z"/>
		<path fill="#0581FF" d="M285.9,281.7h-8.4l-4.8-9.2H269v9.2h-7.4v-27.5h14.3c3.1,0,5.5,0.9,7.3,2.6c1.8,1.7,2.6,3.9,2.6,6.6
			c0,2.2-0.6,4-1.7,5.4c-1.1,1.4-2.5,2.3-4,2.9L285.9,281.7z M274.8,266.3c1,0,1.9-0.3,2.5-0.8c0.7-0.5,1-1.3,1-2.2
			c0-0.9-0.3-1.6-1-2.1c-0.7-0.5-1.5-0.8-2.5-0.8H269v5.9H274.8z"/>
	</g>
	<g>
		<g>
			<polygon fill="#859894" points="107.5,302.9 112,316.7 126.5,316.7 114.8,325.2 119.2,338.9 107.5,330.4 95.8,338.9 100.3,325.2 
				88.6,316.7 103,316.7 			"/>
		</g>
		<g>
			<polygon fill="#859894" points="151.4,302.9 155.9,316.7 170.4,316.7 158.6,325.2 163.1,338.9 151.4,330.4 139.7,338.9 
				144.2,325.2 132.5,316.7 146.9,316.7 			"/>
		</g>
		<g>
			<polygon fill="#859894" points="196.4,302.9 200.9,316.7 215.4,316.7 203.6,325.2 208.1,338.9 196.4,330.4 184.7,338.9 
				189.2,325.2 177.5,316.7 191.9,316.7 			"/>
		</g>
		<g>
			<polygon fill="#859894" points="242.9,302.9 247.4,316.7 261.9,316.7 250.2,325.2 254.6,338.9 242.9,330.4 231.2,338.9 
				235.7,325.2 224,316.7 238.4,316.7 			"/>
		</g>
		<g>
			<polygon fill="#859894" points="289.9,302.9 294.4,316.7 308.9,316.7 297.1,325.2 301.6,338.9 289.9,330.4 278.2,338.9 
				282.7,325.2 271,316.7 285.4,316.7 			"/>
		</g>
	</g>
</g>
</svg>
