<?xml version="1.0" encoding="utf-8"?>
<!-- Generator: Adobe Illustrator 20.1.0, SVG Export Plug-In . SVG Version: 6.00 Build 0)  -->
<svg version="1.1" id="Layer_1" xmlns="http://www.w3.org/2000/svg" xmlns:xlink="http://www.w3.org/1999/xlink" x="0px" y="0px"
	 viewBox="0 0 225 225" enable-background="new 0 0 225 225" xml:space="preserve">
<g>
	<g transform="matrix(1,0,0,1,-573.393,-481.359)">
		<g transform="matrix(1,0,0,1,-80,-22)">
			<g transform="matrix(1,0,0,1,80,22)">
				<path fill="#0581FF" d="M679.6,695.7c0,0.5,0.4,1,1,1l1.9,0c0.5,0,1-0.4,1-1l0-5.9c0-0.5-0.4-1-1-1l-1.9,0c-0.5,0-1,0.4-1,1
					L679.6,695.7z M640.6,680.7c0.3,0.1,0.5,0.3,0.8,0.4c0.3,0.1,0.6,0.3,0.8,0.4c0.8,0.4,1.7,0.8,2.5,1.2c2,0.9,3.9,1.7,5.9,2.5
					c2.1,0.8,4.2,1.5,6.3,2.2c1,0.3,1.9,0.6,2.9,0.8l0,0c0.4,0.2,0.4,0.2,0.7,0.5l0.1,0.4c0,0.5,0,0.5-0.2,0.9l-0.3,0.3
					c-0.1,0-0.3,0.1-0.4,0.1c-0.3,0-0.5-0.1-0.8-0.1c-0.2-0.1-0.4-0.1-0.6-0.2c-1-0.3-2-0.6-3-0.9c-4.1-1.3-8.1-2.8-12-4.6
					c-1-0.4-1.9-0.9-2.9-1.4c-0.3-0.1-0.6-0.3-0.9-0.4c-0.2-0.1-0.4-0.2-0.6-0.4c-0.1-0.1-0.1-0.3-0.2-0.4l-0.1-0.5l0.1-0.4l0.3-0.4
					l0.4-0.2l0.5-0.1C640.3,680.6,640.5,680.7,640.6,680.7z M702.3,675.2c0.2,0.1,0.3,0.1,0.5,0.2c0.1,0.1,0.1,0.1,0.2,0.2
					c0.3,0.4,0.3,0.8,0.1,1.2c0,0.1-0.1,0.2-0.1,0.2c-0.1,0.1-0.3,0.2-0.4,0.3c-0.1,0-0.2,0.1-0.2,0.1c-0.4,0.1-0.7,0.1-1.1,0.2
					c-1.4,0.3-2.7,0.5-4.1,0.7c-1.4,0.2-2.8,0.3-4.2,0.5l0,0c-0.1,0-0.2,0-0.3,0c-0.2,0-0.3-0.1-0.5-0.2c-0.4-0.2-0.6-0.7-0.5-1.1
					c0-0.1,0-0.2,0.1-0.3c0.1-0.2,0.2-0.3,0.3-0.4c0.1-0.1,0.3-0.2,0.4-0.3c0.1,0,0.2,0,0.3-0.1c0.4,0,0.7-0.1,1.1-0.1
					c1.4-0.1,2.9-0.3,4.3-0.5c1.3-0.2,2.5-0.4,3.7-0.7l0,0l0.3,0C702.2,675.2,702.2,675.2,702.3,675.2z M764.4,652.7
					c0.4,0.2,0.4,0.2,0.7,0.5l0.1,0.4l0,0.5l-0.2,0.4c-1.4,1.9-2.9,3.7-4.5,5.5c-2.7,3-5.5,5.9-8.5,8.6c-2.3,2-4.7,4-7.1,5.8
					c-1.2,0.9-2.5,1.8-3.7,2.6l-0.2,0.1c-0.4,0.2-0.4,0.2-0.9,0.2l-0.4-0.2c-0.1-0.1-0.2-0.2-0.3-0.3c-0.2-0.3-0.2-0.5-0.2-0.9
					l0.2-0.4c0.1-0.1,0.2-0.2,0.3-0.3c0,0,0.1-0.1,0.2-0.1c0.1-0.1,0.2-0.1,0.2-0.2c0.2-0.1,0.3-0.2,0.5-0.3c0.3-0.2,0.7-0.4,1-0.7
					c1.2-0.9,2.4-1.7,3.6-2.6c2.1-1.6,4.2-3.4,6.2-5.2c4.3-3.9,8.3-8.3,11.8-12.9l0.3-0.3l0.4-0.1
					C764.1,652.7,764.3,652.7,764.4,652.7z M651.9,669.7l0.3,0.1c0.3,0.1,0.6,0.3,0.9,0.4c2.1,0.9,4.3,1.7,6.6,2.5
					c2.4,0.8,4.9,1.5,7.4,2l0.3,0.1l0.2,0l0.2,0.1c0.1,0,0.2,0.1,0.2,0.1c0.1,0.1,0.2,0.2,0.3,0.4c0,0.1,0.1,0.2,0.1,0.2
					c0.1,0.4-0.1,0.9-0.4,1.2c-0.1,0.1-0.1,0.1-0.2,0.1c-0.2,0.1-0.3,0.1-0.5,0.1c-0.1,0-0.2,0-0.3,0c-0.3-0.1-0.7-0.2-1-0.2
					c-2.4-0.6-4.7-1.2-7-2c-2.4-0.8-4.9-1.7-7.2-2.7l-0.2-0.1c-0.2-0.1-0.3-0.1-0.5-0.2c-0.1-0.1-0.3-0.2-0.3-0.4
					c-0.2-0.4-0.2-0.9,0.1-1.2c0.1-0.1,0.1-0.1,0.2-0.2c0.1-0.1,0.1-0.1,0.2-0.1c0.2-0.1,0.3-0.1,0.5-0.1
					C651.7,669.7,651.8,669.7,651.9,669.7z M724.3,667.4c0.2,0.1,0.3,0.1,0.5,0.2c0.1,0.1,0.1,0.1,0.2,0.2c0.3,0.3,0.4,0.8,0.2,1.2
					c0,0.1-0.1,0.2-0.1,0.2c-0.1,0.2-0.2,0.2-0.4,0.3c-0.3,0.2-0.7,0.3-1,0.5c-2.4,1.2-4.8,2.3-7.3,3.2c-2.3,0.9-4.7,1.7-7.1,2.4
					l-0.1,0c-0.1,0-0.2,0-0.3,0c-0.2,0-0.4,0-0.5-0.1c-0.2-0.1-0.3-0.2-0.4-0.3c-0.1-0.1-0.1-0.1-0.2-0.2c-0.2-0.4-0.2-0.9,0.1-1.2
					c0.1-0.1,0.2-0.3,0.4-0.3c0.1,0,0.2-0.1,0.2-0.1c0.3-0.1,0.7-0.2,1-0.3c2.4-0.7,4.8-1.6,7.1-2.5c2.3-0.9,4.6-2,6.8-3.1l0.1,0
					c0.2-0.1,0.2-0.1,0.5-0.1C724.1,667.4,724.2,667.4,724.3,667.4z M637.6,661.7c0.3,0.1,0.3,0.1,0.5,0.2c0.2,0.2,0.5,0.3,0.7,0.5
					c1.1,0.8,2.2,1.5,3.4,2.2c1.2,0.7,2.3,1.4,3.5,2l0.2,0.1c0.1,0,0.1,0.1,0.2,0.2c0.1,0.1,0.2,0.3,0.3,0.4c0,0.1,0.1,0.2,0.1,0.3
					c0.1,0.4-0.1,0.9-0.5,1.2c-0.1,0.1-0.3,0.2-0.5,0.2c-0.2,0-0.4,0-0.5,0c-0.1,0-0.2-0.1-0.2-0.1c-0.3-0.2-0.6-0.3-0.9-0.5
					c-1.1-0.6-2.3-1.3-3.4-2c-1.2-0.8-2.5-1.6-3.7-2.4l-0.1-0.1c-0.2-0.2-0.2-0.2-0.4-0.4c0-0.1-0.1-0.2-0.1-0.2
					c-0.1-0.4,0-0.9,0.3-1.2c0.1-0.1,0.1-0.1,0.2-0.2c0.2-0.1,0.3-0.1,0.5-0.1C637.4,661.7,637.5,661.7,637.6,661.7z M598.1,638.3
					c0.1,0.1,0.3,0.1,0.4,0.2c0.2,0.2,0.3,0.4,0.4,0.6c0.1,0.3,0.3,0.5,0.4,0.8c0.2,0.3,0.4,0.7,0.6,1c0.8,1.4,1.5,2.7,2.4,4.1
					c1.8,3,3.8,5.8,5.9,8.6c2,2.6,4.2,5.1,6.4,7.5c1.1,1.2,2.2,2.3,3.4,3.4l0.1,0.1c0.3,0.4,0.3,0.4,0.4,0.8l-0.1,0.5l-0.2,0.4
					l-0.4,0.3c-0.4,0.1-0.4,0.1-0.9,0l-0.4-0.2c-4.9-4.6-9.3-9.8-13.1-15.3c-1.6-2.3-3.1-4.7-4.5-7.2c-0.7-1.2-1.4-2.5-2-3.7
					l-0.1-0.2c-0.1-0.4-0.2-0.5-0.1-0.9c0-0.1,0.1-0.3,0.2-0.4l0.4-0.3l0.4-0.1C597.8,638.3,597.9,638.3,598.1,638.3z M635.7,639.3
					c0.2,0.1,0.3,0.1,0.4,0.2c0.1,0,0.1,0.1,0.2,0.2c0.2,0.2,0.4,0.4,0.6,0.6c1,1.1,2.1,2.1,3.2,3.1c2.4,2.2,5,4.3,7.7,6.1
					c3.1,2.1,6.4,4,9.9,5.6c3.2,1.5,6.6,2.7,10,3.6c3.6,1,7.4,1.7,11.1,2.1c2.1,0.2,4.1,0.3,6.2,0.3l0.2,0h0.2l0.2,0
					c0.1,0,0.2,0,0.2,0.1c0.1,0.1,0.3,0.2,0.4,0.3c0.1,0.1,0.2,0.3,0.2,0.4c0.1,0.4,0,0.8-0.2,1.1c-0.1,0.1-0.1,0.1-0.2,0.2
					c-0.1,0.1-0.3,0.2-0.4,0.2c-0.1,0-0.2,0-0.2,0c-0.3,0-0.6,0-0.9,0c-2.1,0-4.3-0.2-6.4-0.4c-4-0.4-8-1.2-11.9-2.3
					c-3.8-1.1-7.5-2.5-11.1-4.3c-3.6-1.7-7-3.8-10.3-6.1c-2.5-1.8-4.8-3.7-7.1-5.8c-1.1-1-2.2-2.1-3.2-3.3l0,0
					c-0.1-0.2-0.2-0.2-0.2-0.4c-0.1-0.2-0.1-0.3-0.1-0.5c0-0.4,0.3-0.8,0.7-1c0.2-0.1,0.3-0.1,0.5-0.1
					C635.5,639.3,635.6,639.3,635.7,639.3z M745.9,625.1c0.2,0.1,0.3,0.1,0.5,0.2c0.3,0.2,0.5,0.6,0.5,1.1c0,0.2-0.1,0.3-0.1,0.5
					c-0.1,0.3-0.3,0.5-0.4,0.8c-0.8,1.4-1.6,2.8-2.5,4.1c-1.8,2.7-3.8,5.4-5.9,7.8c-2.9,3.4-6.2,6.4-9.7,9.2
					c-3.6,2.8-7.4,5.2-11.5,7.3c-3.3,1.7-6.8,3.1-10.4,4.2c-1.8,0.6-3.7,1.1-5.6,1.5l0,0c-0.1,0-0.2,0-0.2,0c-0.2,0-0.5-0.1-0.7-0.2
					c-0.1,0-0.1-0.1-0.2-0.2c-0.3-0.3-0.4-0.7-0.3-1.1c0-0.2,0.1-0.3,0.2-0.4c0.1-0.1,0.2-0.2,0.4-0.3c0.1,0,0.2-0.1,0.2-0.1
					c0.3-0.1,0.6-0.1,0.8-0.2c2.1-0.5,4.1-1.1,6.2-1.8c3.4-1.1,6.6-2.6,9.7-4.2c3.8-2,7.4-4.4,10.8-7.1c3.1-2.5,6-5.4,8.7-8.4
					c2.1-2.4,4-5,5.8-7.8c0.9-1.4,1.7-2.8,2.5-4.2l0,0c0-0.1,0.1-0.1,0.1-0.2c0.2-0.2,0.4-0.3,0.6-0.4c0.1,0,0.2,0,0.2,0
					C745.7,625.1,745.8,625.1,745.9,625.1z M751.3,645.4c0.2,0.1,0.3,0.1,0.5,0.2c0.3,0.3,0.5,0.7,0.4,1.2c-0.1,0.2-0.1,0.3-0.2,0.5
					c-0.2,0.3-0.5,0.6-0.7,0.9c-0.8,1-1.7,2-2.5,2.9c-1,1.1-2,2.1-3,3.2l-0.1,0.1c-0.1,0.1-0.1,0.1-0.2,0.2
					c-0.1,0.1-0.3,0.2-0.5,0.2c-0.2,0-0.4,0-0.5-0.1c-0.4-0.1-0.7-0.5-0.8-1c0-0.1,0-0.2,0-0.3c0-0.2,0.1-0.3,0.2-0.5
					c0-0.1,0.1-0.1,0.2-0.2c0.2-0.2,0.4-0.4,0.6-0.6c0.9-1,1.8-1.9,2.7-2.9c0.9-1.1,1.9-2.1,2.8-3.2l0-0.1c0.1-0.1,0.1-0.1,0.2-0.2
					c0.1-0.1,0.3-0.2,0.5-0.2c0.1,0,0.2,0,0.3,0C751.1,645.4,751.2,645.4,751.3,645.4z M610.4,630.1c0.1,0,0.2,0,0.2,0.1
					c0.2,0.1,0.3,0.2,0.4,0.3c0.1,0.1,0.1,0.1,0.1,0.2c0.2,0.3,0.3,0.6,0.5,0.9c1.1,2.1,2.3,4.2,3.6,6.3c1.4,2.2,2.8,4.3,4.4,6.3
					l0.1,0.2c0,0.1,0.1,0.1,0.1,0.2c0.1,0.2,0.1,0.3,0.1,0.5c0,0.4-0.3,0.9-0.7,1c-0.1,0-0.2,0.1-0.2,0.1c-0.2,0-0.4,0-0.5,0
					c-0.2,0-0.3-0.1-0.5-0.2c-0.1-0.1-0.1-0.1-0.2-0.2c-0.2-0.3-0.4-0.5-0.6-0.8c-1.6-2.2-3.2-4.4-4.6-6.8c-1.3-2.1-2.5-4.3-3.6-6.5
					l0,0c-0.1-0.2-0.1-0.3-0.1-0.5c0-0.4,0.3-0.9,0.7-1.1c0.2-0.1,0.3-0.1,0.5-0.1C610.3,630.1,610.4,630.1,610.4,630.1z
					 M763.2,625.3c0.2,0.1,0.3,0.1,0.5,0.2c0.3,0.2,0.5,0.5,0.5,0.9c0,0.2,0,0.3-0.1,0.5c-0.1,0.3-0.2,0.5-0.3,0.8
					c-1,2.3-2.1,4.6-3.3,6.9c-0.8,1.5-1.7,3-2.6,4.5c-0.5,0.8-1,1.6-1.6,2.4l0,0c-0.1,0.1-0.1,0.1-0.2,0.2c-0.1,0.1-0.3,0.2-0.5,0.3
					c-0.2,0.1-0.3,0.1-0.5,0c-0.1,0-0.2,0-0.3-0.1c-0.4-0.2-0.7-0.6-0.7-1c0-0.2,0-0.4,0.1-0.5c0-0.1,0.1-0.2,0.1-0.2
					c0.2-0.3,0.4-0.6,0.6-0.9c1.4-2.2,2.8-4.4,4-6.8c1.1-2.1,2.1-4.3,3.1-6.5l0-0.1c0-0.1,0.1-0.2,0.1-0.2c0.2-0.2,0.4-0.4,0.6-0.4
					c0.1,0,0.2,0,0.3,0C763,625.3,763.1,625.3,763.2,625.3z M722.9,610.5c-1-0.5-2.2-0.4-3.3,0.3L698,624.4
					c-0.6,0.4-0.8,1.2-0.4,1.8c0.4,0.6,1.2,0.8,1.8,0.4l21.5-13.5c0.5-0.3,0.7-0.3,0.7-0.2c0,0,0.2,0.2,0.2,0.8
					c0,1.4-1.1,3.4-2.3,4.2l-20.9,13.1c-1.1,0.7-2.1,0.9-2.8,0.5c-0.7-0.4-1-1.3-1-2.6c0-3.3,2.4-7.6,5.2-9.4l23.7-14.9
					c0.4-0.2,0.6-0.6,0.6-1.1c0-0.4-0.2-0.9-0.6-1.1l-45.6-28.8c-0.4-0.3-1-0.3-1.4,0l-24,15.1c-3.4,2.2-6.1,7-6.1,11v0.7
					c0,4,2.7,8.9,6.1,11l35.7,22.5c0.6,0.4,1.4,0.2,1.8-0.4c0.4-0.6,0.2-1.4-0.4-1.8l-35.7-22.5c-2.7-1.7-4.9-5.7-4.9-8.9v-0.7
					c0-3.1,2.2-7.2,4.9-8.9l23.3-14.7l43.2,27.2l-22,13.9c-3.6,2.3-6.4,7.3-6.4,11.6c0,2.3,0.8,4,2.4,4.9c0.6,0.3,1.3,0.5,2,0.5
					c1.1,0,2.2-0.4,3.4-1.1l20.9-13.1c2-1.2,3.5-4,3.5-6.3C724.4,612.2,723.8,611.1,722.9,610.5z M584.1,629.6
					c-0.5,0.2-0.7,0.8-0.5,1.3l0.7,1.8c0.2,0.5,0.8,0.7,1.3,0.5l5.4-2.3c0.5-0.2,0.7-0.8,0.5-1.3l-0.7-1.8c-0.2-0.5-0.8-0.7-1.3-0.5
					L584.1,629.6z M783.8,608.1l0.3,0.3l0.2,0.4c0,0.2,0,0.3,0,0.5c0,0-0.1,0.6-0.1,0.6c-0.1,0.5-0.2,1-0.3,1.5
					c-0.2,1.3-0.5,2.6-0.8,3.9c-0.7,3.3-1.6,6.6-2.7,9.8c-0.5,1.6-1.1,3.1-1.7,4.7l0,0c-0.2,0.4-0.2,0.4-0.6,0.6l-0.4,0.1l-0.5-0.1
					l-0.4-0.2l-0.3-0.4l-0.1-0.4c0-0.1,0-0.3,0.1-0.5c0,0,0,0,0,0c0-0.1,0.1-0.2,0.1-0.3c0.1-0.2,0.1-0.4,0.2-0.6
					c0.1-0.3,0.2-0.6,0.3-0.9c0.3-1,0.7-1.9,1-2.9c0.7-2,1.3-4,1.8-6.1c0.5-1.9,0.9-3.9,1.3-5.8c0.2-1.1,0.4-2.2,0.6-3.2l0-0.3
					l0.2-0.4l0.3-0.3c0.4-0.2,0.4-0.2,0.9-0.2C783.5,608,783.6,608.1,783.8,608.1z M634.6,624.9c-0.5,0.3-0.6,0.8-0.4,1.3l0.9,1.7
					c0.3,0.5,0.8,0.6,1.3,0.4l5.2-2.8c0.5-0.3,0.6-0.8,0.4-1.3l-0.9-1.7c-0.3-0.5-0.8-0.6-1.3-0.4L634.6,624.9z M604.6,614.8
					c0.1,0,0.2,0,0.3,0.1c0.2,0.1,0.4,0.3,0.6,0.5c0,0.1,0.1,0.2,0.1,0.2c0.1,0.3,0.2,0.6,0.3,0.9c0.4,1.3,0.8,2.6,1.2,3.8
					c0.5,1.3,0.9,2.7,1.5,4l0,0c0,0.1,0.1,0.2,0.1,0.3c0,0.2,0,0.4,0,0.5c0,0.1-0.1,0.2-0.1,0.2c-0.2,0.4-0.7,0.6-1.1,0.6
					c-0.2,0-0.3-0.1-0.5-0.2c-0.2-0.1-0.3-0.2-0.4-0.4c0-0.1-0.1-0.2-0.1-0.2c-0.1-0.3-0.3-0.7-0.4-1c-0.5-1.3-1-2.6-1.4-3.9
					c-0.4-1.3-0.8-2.6-1.2-4l0-0.2c0-0.2-0.1-0.3,0-0.5c0.1-0.3,0.3-0.7,0.6-0.8c0.2-0.1,0.3-0.1,0.5-0.1
					C604.4,614.8,604.5,614.8,604.6,614.8z M655.8,597.8c-0.4,0.6-0.2,1.4,0.4,1.8l31.3,19.5c0.2,0.1,0.4,0.2,0.7,0.2
					c0.4,0,0.9-0.2,1.1-0.6c0.4-0.6,0.2-1.4-0.4-1.8l-31.3-19.5C656.9,597,656.2,597.2,655.8,597.8z M593.3,611.2
					c-0.5,0.2-0.8,0.7-0.6,1.2l0.6,1.9c0.2,0.5,0.7,0.8,1.2,0.6l5.6-1.7c0.5-0.2,0.8-0.7,0.6-1.2l-0.6-1.9c-0.2-0.5-0.7-0.8-1.2-0.6
					L593.3,611.2z M692.8,614.2c0.4-0.6,0.2-1.4-0.4-1.8l-12.7-7.9c-0.6-0.4-1.4-0.2-1.8,0.4c-0.4,0.6-0.2,1.4,0.4,1.8l12.7,7.9
					c0.2,0.1,0.4,0.2,0.7,0.2C692.1,614.7,692.5,614.5,692.8,614.2z M618.3,604.1c0.1,0,0.2,0,0.2,0.1c0.3,0.1,0.6,0.4,0.7,0.7
					c0,0.1,0,0.2,0.1,0.2c0.1,0.3,0.1,0.6,0.2,1c0.2,0.9,0.3,1.8,0.5,2.7c0.2,1,0.5,2,0.8,3l0,0.1c0,0.1,0,0.2,0,0.2
					c0,0.2,0,0.5-0.2,0.7c-0.1,0.1-0.2,0.3-0.3,0.3c-0.1,0-0.1,0.1-0.2,0.1c-0.4,0.2-0.8,0.1-1.2-0.2c-0.1-0.1-0.2-0.2-0.3-0.4
					c0-0.1-0.1-0.2-0.1-0.2c-0.1-0.3-0.2-0.6-0.2-0.9c-0.3-1-0.5-2-0.7-2.9c-0.2-1-0.4-2-0.6-3l0-0.1c0-0.2,0-0.3,0-0.5
					c0.1-0.3,0.3-0.6,0.6-0.7c0.2-0.1,0.3-0.1,0.5-0.1C618.1,604.1,618.2,604.1,618.3,604.1z M684.9,601.1c-0.6-0.4-1.4-0.2-1.8,0.4
					c-0.4,0.6-0.2,1.4,0.4,1.8l12.6,7.9c0.2,0.1,0.4,0.2,0.7,0.2c0.4,0,0.8-0.2,1.1-0.6c0.4-0.6,0.2-1.4-0.4-1.8L684.9,601.1z
					 M701.9,608c0.4,0,0.8-0.2,1.1-0.6c0.4-0.6,0.2-1.4-0.4-1.8l-12.5-7.8c-0.6-0.4-1.4-0.2-1.8,0.4c-0.4,0.6-0.2,1.4,0.4,1.8
					l12.5,7.8C701.5,607.9,701.7,608,701.9,608z M753.8,598.4c0.2,0.1,0.3,0.1,0.4,0.2c0.3,0.2,0.5,0.5,0.5,0.8c0,0.1,0,0.2,0,0.2
					c0,0.3-0.1,0.6-0.1,0.9c-0.1,0.9-0.2,1.9-0.3,2.8c-0.1,1.1-0.3,2.2-0.5,3.2l0,0.1c0,0.1,0,0.2-0.1,0.2c-0.1,0.2-0.3,0.4-0.5,0.5
					c-0.1,0.1-0.3,0.1-0.5,0.2c-0.4,0.1-0.8-0.1-1.1-0.4c0-0.1-0.1-0.1-0.1-0.2c-0.1-0.1-0.1-0.3-0.1-0.5c0-0.1,0-0.2,0-0.2
					c0.1-0.3,0.1-0.6,0.2-0.9c0.2-0.9,0.3-1.8,0.4-2.7c0.1-1.1,0.2-2.1,0.3-3.2l0-0.1c0-0.2,0-0.3,0.1-0.5c0.2-0.3,0.4-0.5,0.8-0.6
					c0.1,0,0.2,0,0.2,0C753.6,598.4,753.7,598.4,753.8,598.4z M707.1,604.6c0.4,0,0.8-0.2,1.1-0.6c0.4-0.6,0.2-1.4-0.4-1.8
					l-29.6-18.7c-0.6-0.4-1.4-0.2-1.8,0.4c-0.4,0.6-0.2,1.4,0.4,1.8l29.6,18.6C706.6,604.5,706.8,604.6,707.1,604.6z M671.4,586.9
					l-10.6,6.7c-0.4,0.2-0.6,0.6-0.6,1.1c0,0.4,0.2,0.9,0.6,1.1l12.7,7.9c0.2,0.1,0.4,0.2,0.7,0.2c0.2,0,0.5-0.1,0.7-0.2l2.8-1.8
					c0.6-0.4,0.8-1.2,0.4-1.8c-0.4-0.6-1.2-0.8-1.8-0.4l-2.2,1.4l-10.3-6.4l8.2-5.2l10.1,6.3l-1.2,0.8c-0.6,0.4-0.8,1.2-0.4,1.8
					c0.4,0.6,1.2,0.8,1.8,0.4l2.9-1.9c0.4-0.2,0.6-0.6,0.6-1.1c0-0.4-0.2-0.8-0.6-1.1l-12.5-7.8
					C672.4,586.6,671.9,586.6,671.4,586.9z M769.7,591.1c0.1,0,0.2,0,0.2,0.1c0.3,0.1,0.6,0.4,0.6,0.8c0,0.1,0,0.2,0,0.3
					c0,0.4,0,0.7,0,1.1c0,1.3,0,2.7-0.1,4c-0.1,1.4-0.2,2.9-0.3,4.3l0,0.1c0,0.1,0,0.2-0.1,0.3c-0.1,0.2-0.1,0.3-0.3,0.4
					c-0.1,0.1-0.3,0.2-0.4,0.3c-0.1,0-0.2,0.1-0.3,0.1c-0.4,0.1-0.9-0.1-1.1-0.5c-0.1-0.1-0.2-0.3-0.2-0.5c0-0.1,0-0.2,0-0.3
					c0-0.3,0.1-0.6,0.1-0.9c0.1-1.3,0.2-2.6,0.2-3.9c0.1-1.5,0.1-2.9,0-4.4l0,0c0-0.2,0-0.3,0.1-0.5c0.1-0.3,0.4-0.6,0.8-0.6
					c0.1,0,0.2,0,0.3,0C769.6,591.1,769.7,591.1,769.7,591.1z M614.3,589.3c-0.5,0-1,0.4-1,0.9l-0.1,1.9c0,0.5,0.4,1,0.9,1l5.8,0.5
					c0.5,0,1-0.4,1-0.9l0.1-1.9c0-0.5-0.4-1-0.9-1L614.3,589.3z M604,573.2c0.2,0.1,0.3,0.1,0.5,0.2c0.3,0.2,0.4,0.6,0.4,0.9
					c0,0.1,0,0.2,0,0.3c-0.1,0.3-0.1,0.6-0.2,0.8c-0.6,2.5-1,5.1-1.4,7.6c-0.3,2.3-0.5,4.7-0.6,7.1l0,0.3l0,0.2l0,0.3
					c0,0.1-0.1,0.2-0.1,0.2c-0.1,0.2-0.2,0.3-0.3,0.4c-0.1,0.1-0.1,0.1-0.2,0.1c-0.4,0.2-0.9,0.1-1.2-0.2c-0.1-0.1-0.1-0.1-0.2-0.2
					c-0.1-0.1-0.2-0.3-0.2-0.5c0-0.1,0-0.2,0-0.3c0-0.3,0-0.7,0-1c0.1-2.5,0.4-5,0.7-7.5c0.4-2.5,0.8-5,1.4-7.5l0.1-0.3l0-0.1
					l0.1-0.2c0-0.1,0.1-0.2,0.1-0.2c0.2-0.2,0.4-0.3,0.7-0.4c0.1,0,0.2,0,0.3,0C603.8,573.2,603.9,573.2,604,573.2z M787.3,590.3
					c0.5,0,1-0.5,0.9-1l0-1.9c0-0.5-0.5-1-1-0.9l-5.9,0.1c-0.5,0-1,0.5-0.9,1l0,1.9c0,0.5,0.5,1,1,0.9L787.3,590.3z M766,568.1
					c0.1,0,0.2,0,0.3,0.1c0.2,0.1,0.5,0.3,0.6,0.5c0,0.1,0.1,0.2,0.1,0.2c0.1,0.3,0.2,0.7,0.3,1c0.7,2.4,1.3,4.8,1.8,7.3
					c0.5,2.6,0.9,5.1,1.2,7.7l0,0.2c0,0.1,0,0.2,0,0.3c0,0.2-0.1,0.3-0.2,0.5c0,0.1-0.1,0.1-0.2,0.2c-0.3,0.3-0.8,0.4-1.2,0.3
					c-0.2-0.1-0.3-0.2-0.4-0.3c-0.1-0.1-0.2-0.3-0.3-0.4c0-0.1,0-0.2-0.1-0.3c0-0.3-0.1-0.6-0.1-1c-0.3-2.4-0.7-4.9-1.2-7.3
					c-0.5-2.5-1.2-5.1-1.9-7.5l0,0c0-0.2-0.1-0.3,0-0.5c0.1-0.3,0.3-0.7,0.6-0.8c0.2-0.1,0.3-0.1,0.5-0.2
					C765.8,568.1,765.9,568.1,766,568.1z M648.7,535.4c0.2,0.1,0.3,0.1,0.4,0.2c0.3,0.3,0.5,0.7,0.4,1.1c0,0.2-0.1,0.3-0.2,0.5
					c-0.1,0.2-0.2,0.2-0.3,0.3c-0.3,0.2-0.5,0.3-0.8,0.5c-1.2,0.8-2.4,1.7-3.6,2.6c-2.6,2-5,4.1-7.2,6.4c-3.1,3.1-5.8,6.6-8.2,10.2
					c-2.2,3.3-4.1,6.9-5.6,10.6c-1.5,3.5-2.6,7.1-3.5,10.8c-0.4,1.9-0.8,3.8-1.1,5.8l0,0.1c0,0.1,0,0.2-0.1,0.2
					c-0.1,0.2-0.1,0.3-0.3,0.4c-0.3,0.3-0.7,0.4-1.1,0.3c-0.1,0-0.2,0-0.2-0.1c-0.1-0.1-0.3-0.2-0.4-0.3c-0.2-0.2-0.3-0.4-0.3-0.7
					c0-0.1,0-0.2,0-0.2c0-0.3,0.1-0.7,0.1-1c0.3-1.9,0.7-3.7,1.1-5.5c0.8-3.5,1.9-6.9,3.3-10.1c1.8-4.3,4-8.4,6.5-12.2
					c2.8-4.1,5.9-7.9,9.5-11.3c2.5-2.4,5.2-4.6,8-6.7c0.6-0.4,1.3-0.9,1.9-1.3c0.2-0.1,0.3-0.2,0.5-0.3c0.1-0.1,0.2-0.1,0.3-0.2
					c0.2-0.1,0.3-0.1,0.5-0.1C648.6,535.4,648.7,535.4,648.7,535.4z M708.1,574.3l-12.1,6.1l-0.1,0.1c0,0-0.1,0-0.1,0
					c-0.1,0-0.3,0-0.4,0c-0.4,0-0.8-0.3-1-0.7c0-0.1-0.1-0.2-0.1-0.4c0,0,0-0.1,0-0.1l0.3-4.9c-1.1,0-2.3,0-3.4,0
					c-0.1,0-0.2,0-0.2,0c-0.6,0-1.3-0.2-1.9-0.4c-0.8-0.3-1.6-0.8-2.2-1.5c-0.6-0.6-1.1-1.4-1.3-2.2c-0.2-0.6-0.3-1.3-0.3-1.9
					c0-3.3,0-6.7,0-10c0-0.7,0.1-1.3,0.3-1.9c0.3-0.8,0.7-1.6,1.3-2.2c0.6-0.7,1.4-1.2,2.3-1.5c0.5-0.2,0.9-0.3,1.4-0.3
					c0.2,0,0.4,0,0.6,0c9.4-0.1,18.8-0.1,28.2,0c0.2,0,0.4,0,0.6,0c0.5,0.1,0.9,0.2,1.4,0.3c0.9,0.3,1.8,0.9,2.4,1.6
					c0.5,0.6,1,1.3,1.2,2.1c0.2,0.6,0.3,1.3,0.3,1.9c0,3.3,0,6.7,0,10c0,0.2,0,0.5,0,0.7c-0.1,0.5-0.2,0.9-0.3,1.3
					c-0.3,0.7-0.7,1.4-1.2,2c-0.7,0.7-1.5,1.3-2.5,1.7c-0.6,0.2-1.3,0.3-2,0.3H708.1z M695.9,571.9l0.1,0c0,0,0.1,0,0.1,0
					c0.1,0,0.2,0,0.2,0.1c0.3,0.1,0.5,0.4,0.6,0.8c0,0.1,0,0.2,0,0.3c0,0,0,0.1,0,0.1l-0.3,4.1l10.5-5.3l0.1,0c0.1,0,0.1,0,0.2-0.1
					c0.1,0,0.1,0,0.2,0c3.9,0,7.8,0.1,11.7,0c0.4,0,0.8-0.1,1.2-0.2c0.6-0.2,1-0.6,1.4-1c0.3-0.4,0.6-0.8,0.8-1.3
					c0.1-0.4,0.2-0.8,0.2-1.2c0-3.3,0.1-6.7,0-10c0-0.4-0.1-0.8-0.2-1.2c-0.4-1-1.2-1.8-2.2-2.2c-0.4-0.1-0.8-0.2-1.2-0.2
					c-9.4-0.1-18.8,0-28.1,0c-0.4,0-0.9,0.1-1.3,0.2c-0.6,0.2-1.1,0.6-1.5,1.1c-0.3,0.4-0.5,0.8-0.7,1.2c-0.1,0.4-0.2,0.8-0.2,1.2
					c0,3.3-0.1,6.7,0,10c0,0.4,0.1,0.8,0.2,1.2c0.1,0.3,0.3,0.7,0.5,1c0.4,0.6,1,1,1.7,1.3c0.4,0.1,0.8,0.2,1.2,0.2h0.1H695.9z
					 M609.3,557.7c0.2,0.1,0.3,0.1,0.5,0.2c0.3,0.2,0.5,0.6,0.5,0.9c0,0.2,0,0.3-0.1,0.5c-0.2,0.3-0.3,0.7-0.4,1
					c-0.5,1.2-1,2.4-1.5,3.6c-0.5,1.3-1,2.6-1.4,3.9l0,0.1c0,0.1-0.1,0.2-0.1,0.2c-0.1,0.2-0.2,0.3-0.4,0.4
					c-0.1,0.1-0.3,0.2-0.5,0.2c-0.1,0-0.2,0-0.3,0c-0.4,0-0.8-0.3-1-0.8c-0.1-0.2-0.1-0.3-0.1-0.5c0-0.1,0-0.2,0.1-0.3
					c0.1-0.3,0.2-0.6,0.3-0.9c0.5-1.3,1-2.7,1.5-4c0.5-1.3,1.1-2.6,1.7-3.9l0-0.1c0-0.1,0.1-0.2,0.1-0.2c0.2-0.2,0.4-0.4,0.6-0.4
					c0.1,0,0.2,0,0.3,0C609.1,557.7,609.2,557.7,609.3,557.7z M706.9,527.8l0.2,0.1c0.3,0.1,0.7,0.2,1,0.3c1.8,0.6,3.6,1.3,5.3,2.1
					c3.4,1.5,6.7,3.3,9.8,5.3c3.5,2.3,6.8,4.9,9.8,7.7c3.4,3.2,6.6,6.8,9.3,10.7c1.9,2.7,3.6,5.5,5.1,8.4c0.7,1.4,1.4,2.9,2,4.4
					l0.1,0.2c0,0.1,0.1,0.2,0.1,0.2c0,0.2,0,0.5-0.1,0.7c-0.2,0.4-0.5,0.6-1,0.7c-0.1,0-0.2,0-0.2,0c-0.2,0-0.3-0.1-0.5-0.2
					c-0.1-0.1-0.3-0.2-0.4-0.3c0-0.1-0.1-0.1-0.1-0.2c-0.1-0.3-0.3-0.6-0.4-0.9c-0.6-1.4-1.2-2.7-1.9-4c-1.4-2.8-3.1-5.4-4.9-7.9
					c-2.4-3.4-5.1-6.6-8.1-9.5c-3.1-3-6.6-5.8-10.3-8.1c-3.2-2.1-6.5-3.8-10-5.3c-1.7-0.7-3.4-1.4-5.2-2l-0.2-0.1
					c-0.1,0-0.2-0.1-0.2-0.1c-0.1-0.1-0.3-0.2-0.4-0.3c-0.2-0.3-0.3-0.8-0.1-1.2c0.1-0.1,0.2-0.3,0.3-0.4c0.1-0.1,0.3-0.2,0.4-0.2
					c0.1,0,0.2,0,0.2,0C706.8,527.8,706.9,527.8,706.9,527.8z M706.5,564.4v2.5c0,0.6-0.3,1.2-0.6,1.2h-1.1c-0.3,0-0.6-0.5-0.6-1.2
					v-2.5h-2.5c-0.6,0-1.2-0.3-1.2-0.6v-1.1c0-0.3,0.5-0.6,1.2-0.6h2.5v-2.5c0-0.6,0.3-1.2,0.6-1.2h1.1c0.3,0,0.6,0.5,0.6,1.2v2.5
					h2.5c0.6,0,1.2,0.3,1.2,0.6v1.1c0,0.3-0.5,0.6-1.2,0.6H706.5z M603.8,538.2l0.3,0.3l0.2,0.4l0,0.5l-0.2,0.4
					c-0.2,0.3-0.3,0.5-0.5,0.8c-0.2,0.3-0.3,0.5-0.5,0.8c-0.5,0.8-1,1.6-1.5,2.4c-1.1,1.9-2.2,3.8-3.2,5.8c-0.9,1.8-1.8,3.7-2.6,5.6
					c-0.4,0.9-0.8,1.9-1.2,2.8l-0.1,0.2c-0.2,0.4-0.2,0.4-0.6,0.6l-0.4,0.1l-0.4-0.1l-0.4-0.2l-0.3-0.4l-0.1-0.4
					c0-0.1,0-0.3,0.1-0.4c0-0.1,0.1-0.2,0.1-0.2c0-0.1,0.1-0.2,0.1-0.3c0.2-0.5,0.4-1,0.6-1.5c0.5-1.3,1.1-2.5,1.7-3.7
					c1.4-3.1,3-6.1,4.8-9c0.8-1.4,1.7-2.7,2.6-4.1l0,0c0.3-0.3,0.3-0.3,0.7-0.5l0.5,0C603.5,538.1,603.6,538.2,603.8,538.2z
					 M777.7,556.8c0.5-0.2,0.8-0.7,0.6-1.2l-0.7-1.8c-0.2-0.5-0.7-0.8-1.2-0.6l-5.5,2c-0.5,0.2-0.8,0.7-0.6,1.2l0.7,1.8
					c0.2,0.5,0.7,0.8,1.2,0.6L777.7,556.8z M749.1,537.6c0.2,0.1,0.3,0.1,0.5,0.2c0.1,0.1,0.1,0.1,0.2,0.2c0.2,0.3,0.4,0.5,0.7,0.8
					c1,1.2,2,2.4,2.9,3.6c0.8,1,1.5,2.1,2.3,3.1l0,0c0,0.1,0.1,0.2,0.1,0.2c0.1,0.2,0.1,0.3,0.1,0.5c0,0.2-0.1,0.3-0.2,0.5
					c0,0.1-0.1,0.1-0.2,0.2c-0.3,0.3-0.8,0.5-1.2,0.3c-0.2-0.1-0.3-0.1-0.5-0.3c-0.1-0.1-0.1-0.1-0.2-0.2c-0.2-0.3-0.4-0.6-0.6-0.8
					c-0.8-1.1-1.7-2.3-2.5-3.4c-0.8-1-1.7-2.1-2.5-3.1l0,0c-0.1-0.2-0.2-0.2-0.2-0.5c0-0.1,0-0.2,0-0.3c0-0.4,0.2-0.9,0.6-1.1
					c0.2-0.1,0.3-0.1,0.5-0.1C748.9,537.6,749,537.6,749.1,537.6z M616.4,539.7c-0.4-0.3-1-0.2-1.4,0.2l-1.1,1.6
					c-0.3,0.4-0.2,1,0.2,1.4l4.7,3.5c0.4,0.3,1,0.2,1.4-0.2l1.1-1.6c0.3-0.4,0.2-1-0.2-1.4L616.4,539.7z M635.6,525.4
					c0.2,0.1,0.3,0.1,0.5,0.2c0.3,0.3,0.5,0.8,0.4,1.2c0,0.1-0.1,0.2-0.1,0.2c-0.1,0.2-0.2,0.2-0.3,0.4c-0.2,0.2-0.5,0.4-0.7,0.5
					c-1.9,1.5-3.8,3-5.6,4.6c-2,1.8-3.9,3.7-5.6,5.6l0,0c-0.1,0.1-0.1,0.1-0.2,0.2c-0.1,0.1-0.3,0.2-0.5,0.2c-0.1,0-0.2,0-0.3,0
					c-0.4,0-0.8-0.3-1-0.7c-0.1-0.2-0.1-0.3-0.1-0.5c0-0.2,0.1-0.3,0.1-0.5c0-0.1,0.1-0.1,0.2-0.2c0.2-0.3,0.5-0.5,0.7-0.8
					c1.8-1.9,3.6-3.7,5.5-5.4c1.9-1.7,3.9-3.3,5.9-4.9l0.1-0.1c0.1,0,0.1-0.1,0.2-0.1c0.2-0.1,0.3-0.1,0.5-0.1
					C635.5,525.3,635.6,525.4,635.6,525.4z M731.4,522.3c0.3,0.1,0.3,0.1,0.5,0.2c0.3,0.2,0.6,0.4,0.9,0.6c2.2,1.5,4.4,3.1,6.4,4.8
					c1.9,1.6,3.8,3.2,5.6,5l0,0c0.1,0.1,0.1,0.1,0.2,0.2c0.1,0.1,0.2,0.3,0.2,0.5c0,0.1,0,0.2,0,0.3c0,0.4-0.3,0.8-0.8,1
					c-0.2,0.1-0.3,0.1-0.5,0.1c-0.2,0-0.3-0.1-0.5-0.2c-0.1,0-0.1-0.1-0.2-0.2c-0.2-0.2-0.5-0.5-0.8-0.7c-1.8-1.7-3.7-3.4-5.7-4.9
					c-2-1.6-4-3-6.1-4.4l0,0c-0.2-0.1-0.2-0.2-0.4-0.4c0-0.1-0.1-0.2-0.1-0.2c-0.1-0.4,0-0.9,0.3-1.2c0.1-0.1,0.1-0.1,0.2-0.2
					c0.2-0.1,0.3-0.1,0.5-0.2C731.2,522.3,731.3,522.3,731.4,522.3z M732,505.3c1.7,0.9,3.4,1.9,5.1,2.9c6.1,3.6,11.7,7.9,16.9,12.8
					c2,1.8,3.8,3.7,5.6,5.7c0.8,0.9,1.6,1.8,2.4,2.8l0.1,0.2c0.2,0.4,0.2,0.4,0.3,0.9l-0.1,0.4l-0.3,0.4l-0.4,0.2l-0.5,0l-0.4-0.1
					c-0.1-0.1-0.2-0.2-0.4-0.3c0,0-0.1-0.1-0.1-0.1c-0.1-0.1-0.1-0.2-0.2-0.2c-0.1-0.2-0.3-0.3-0.4-0.5c-0.2-0.2-0.4-0.5-0.6-0.7
					c-1.3-1.5-2.7-3-4.1-4.4c-2.7-2.7-5.6-5.3-8.6-7.7c-3.4-2.7-7-5.2-10.8-7.4c-1.5-0.9-3.1-1.8-4.7-2.6l0,0l-0.4-0.3l-0.2-0.4
					l0-0.5l0.1-0.4l0.3-0.4l0.4-0.2l0.5,0C731.7,505.3,731.8,505.3,732,505.3z M685.7,524.4c0.1,0,0.1,0,0.2,0c0.2,0,0.3,0,0.4,0
					c0.2,0.1,0.5,0.2,0.6,0.4c0.1,0.1,0.2,0.3,0.2,0.4c0.1,0.4,0,0.8-0.3,1.1c-0.1,0.1-0.1,0.1-0.2,0.2c-0.1,0.1-0.3,0.2-0.4,0.2
					c-0.1,0-0.2,0-0.2,0c-0.3,0-0.6,0-0.8,0c-0.9,0-1.9,0-2.8,0.1c-1.1,0-2.1,0.1-3.2,0.2l0,0c-0.1,0-0.2,0-0.2,0
					c-0.2,0-0.3-0.1-0.5-0.2c-0.4-0.2-0.6-0.6-0.6-1c0-0.1,0-0.2,0-0.2c0-0.2,0.1-0.3,0.2-0.4c0.1-0.2,0.4-0.3,0.6-0.4
					c0.1,0,0.2,0,0.2,0c0.3,0,0.6-0.1,0.9-0.1c0.9-0.1,1.8-0.1,2.7-0.2c0.9,0,1.8-0.1,2.7-0.1C685.4,524.4,685.5,524.4,685.7,524.4z
					 M649.6,516.9c0.2,0.1,0.3,0.1,0.5,0.2c0.3,0.3,0.5,0.7,0.4,1.2c0,0.1,0,0.2-0.1,0.2c0,0.1-0.1,0.2-0.1,0.2
					c-0.1,0.2-0.2,0.2-0.4,0.3c-0.3,0.1-0.5,0.3-0.8,0.4c-1.2,0.6-2.4,1.2-3.5,1.8c-1.2,0.6-2.3,1.3-3.4,2l-0.2,0.1l-0.1,0.1
					l-0.2,0.1c-0.1,0-0.2,0-0.3,0.1c-0.2,0-0.4,0-0.5-0.1c-0.1,0-0.2-0.1-0.2-0.1c-0.4-0.2-0.6-0.7-0.5-1.1c0-0.1,0-0.2,0.1-0.3
					c0.1-0.2,0.2-0.3,0.3-0.4c0.1-0.1,0.1-0.1,0.2-0.2c0.3-0.2,0.5-0.3,0.8-0.5c1.2-0.7,2.3-1.4,3.5-2c1.2-0.7,2.4-1.3,3.6-1.9
					l0.2-0.1c0.1-0.1,0.2-0.1,0.4-0.1c0.1,0,0.2,0,0.3,0C649.4,516.9,649.5,516.9,649.6,516.9z M650.3,500.7l0.4,0.3l0.2,0.4
					l0.1,0.4l-0.1,0.4c-0.1,0.1-0.2,0.3-0.3,0.4c-0.2,0.2-0.3,0.2-0.5,0.3c-0.3,0.1-0.5,0.2-0.8,0.3c-0.4,0.1-0.7,0.3-1.1,0.4
					c-1.5,0.6-3.1,1.3-4.6,2c-3,1.4-6,3-8.8,4.7c-2.9,1.7-5.7,3.6-8.3,5.7c-1.4,1-2.7,2.1-4,3.2l0,0l-0.4,0.2l-0.5,0.1
					c-0.4-0.1-0.4-0.1-0.8-0.4l-0.2-0.4c-0.1-0.5,0-0.5,0.1-0.9l0.3-0.4c1.6-1.4,3.3-2.7,5.1-4c4.6-3.4,9.6-6.4,14.7-9
					c1.8-0.9,3.6-1.7,5.5-2.5c0.9-0.4,1.9-0.8,2.8-1.1l0.3-0.1l0.1,0l0.5-0.1C650,500.6,650.2,500.6,650.3,500.7z M719.6,513.8
					c0.3-0.5,0.1-1.1-0.4-1.3l-1.7-1c-0.5-0.3-1.1-0.1-1.3,0.4l-2.9,5.1c-0.3,0.5-0.1,1.1,0.4,1.3l1.7,1c0.5,0.3,1.1,0.1,1.3-0.4
					L719.6,513.8z M697.4,509.6c2.7,0.4,5.5,0.9,8.1,1.6c0.9,0.2,1.8,0.4,2.6,0.7l0,0c0.1,0,0.2,0.1,0.2,0.1
					c0.2,0.1,0.3,0.2,0.4,0.3c0.1,0.1,0.2,0.3,0.2,0.5c0,0.1,0,0.2,0,0.3c0,0.4-0.3,0.8-0.7,1c-0.2,0.1-0.3,0.1-0.5,0.1
					c-0.1,0-0.2,0-0.3,0c-0.3-0.1-0.7-0.2-1-0.3c-1.5-0.4-3.1-0.8-4.7-1.1c-1.6-0.3-3.1-0.6-4.7-0.8l-0.1,0c-0.1,0-0.2,0-0.3-0.1
					c-0.2-0.1-0.3-0.2-0.4-0.3c-0.1-0.1-0.1-0.1-0.2-0.2c-0.2-0.4-0.2-0.9,0-1.2c0-0.1,0.1-0.1,0.2-0.2c0.1-0.1,0.3-0.2,0.4-0.3
					c0.1,0,0.2,0,0.3-0.1C697.2,509.6,697.3,509.6,697.4,509.6z M685.7,508.7c1.4,0,2.8,0,4.3,0.1l0.3,0c0.1,0,0.2,0,0.4,0.1
					c0.2,0,0.3,0.1,0.5,0.3c0.1,0.1,0.1,0.1,0.2,0.2c0.3,0.4,0.3,0.9,0.1,1.2c-0.1,0.2-0.2,0.3-0.3,0.4c-0.1,0.1-0.3,0.2-0.5,0.2
					c-0.1,0-0.2,0-0.3,0c-0.3,0-0.6,0-0.9,0c-2.4-0.1-4.8-0.1-7.2,0c-2.6,0.1-5.3,0.3-7.9,0.7l-0.1,0c-0.1,0-0.2,0-0.3,0
					c-0.2,0-0.3-0.1-0.5-0.2c-0.4-0.2-0.6-0.7-0.6-1.1c0-0.1,0-0.2,0.1-0.3c0.1-0.2,0.1-0.3,0.3-0.4c0.1-0.1,0.3-0.2,0.4-0.3
					c0.1,0,0.2,0,0.3-0.1c0.3,0,0.6-0.1,0.9-0.1c1.6-0.2,3.3-0.4,5-0.5c1.8-0.1,3.7-0.2,5.6-0.2
					C685.3,508.7,685.5,508.7,685.7,508.7z M661.1,491.8c-0.1-0.5-0.6-0.9-1.1-0.7l-1.9,0.4c-0.5,0.1-0.9,0.6-0.7,1.1l1.2,5.7
					c0.1,0.5,0.6,0.9,1.1,0.7l1.9-0.4c0.5-0.1,0.9-0.6,0.7-1.1L661.1,491.8z"/>
			</g>
		</g>
	</g>
</g>
</svg>
