<?xml version="1.0" encoding="utf-8"?>
<!-- Generator: Adobe Illustrator 20.1.0, SVG Export Plug-In . SVG Version: 6.00 Build 0)  -->
<svg version="1.1" id="Layer_1" xmlns="http://www.w3.org/2000/svg" xmlns:xlink="http://www.w3.org/1999/xlink" x="0px" y="0px"
	 viewBox="0 0 225 225" enable-background="new 0 0 225 225" xml:space="preserve">
<g>
	<g transform="matrix(1,0,0,1,-108.779,-475.866)">
		<g transform="matrix(1,0,0,1,-446,160)">
			<g transform="matrix(1,0,0,1,446,-160)">
				<path fill="#0581FF" d="M215.4,681.3l-7.7-12.4c-0.4-0.7-1-1-1.8-1c-0.4,0-0.7,0.1-1,0.3c-0.3,0.2-0.5,0.4-0.7,0.7
					c-0.8,1.3-1.8,2.4-3.3,3.4c-1.9,1.2-4.2,1.9-6.6,2.6c-2.6,0.8-5.2,1.6-7.6,3.1c-2,1.3-3.6,2.8-4.7,4.8c-0.4,0.6-0.4,1.5,0.1,2.2
					l7.6,12.3c0.4,0.7,1,1,1.8,1c0.4,0,0.7-0.1,1-0.3c0.3-0.2,0.5-0.4,0.7-0.7c0.8-1.3,1.8-2.4,3.3-3.4c1.9-1.2,4.2-1.9,6.6-2.6
					c2.6-0.8,5.2-1.6,7.6-3.1c2-1.3,3.5-2.8,4.7-4.8C215.7,682.8,215.7,682,215.4,681.3z M191.4,696.1c-2.5-4.1-5.1-8.3-7.6-12.3
					c5-8.5,17.2-5.3,22.2-13.8c2.5,4.1,5.1,8.3,7.6,12.3C208.6,690.9,196.4,687.6,191.4,696.1z M195.9,688.9
					c-0.7,0.3-1.4,0.7-2.2,1.2c-0.7,0.4-1.3,0.9-1.8,1.4l-0.9,0.7c-0.2,0.2-0.2,0.4-0.1,0.6c0.2,0.3,0.5,0.3,0.7,0.2l0.1-0.1
					l0.8-0.8c0.5-0.4,1.1-0.9,1.7-1.3c0.7-0.4,1.3-0.7,2.1-1.1l0.1-0.1c0.3-0.2,0.3-0.5,0.2-0.7
					C196.5,688.9,196.2,688.8,195.9,688.9z M198.1,685.8c0,0,0.1,0.1,0.2,0.1c0.1,0.1,0.3,0.2,0.4,0.3c0.2,0,0.3,0.1,0.5,0.1
					c0.2,0,0.5,0,0.8-0.2c-0.4-0.7-0.8-1.5-1.3-2.4c-0.8,0.2-1.6,0.2-2.2,0.1c-0.6-0.1-1.2-0.4-1.5-0.9c-0.2-0.4-0.4-0.7-0.4-1
					c0-0.3,0-0.6,0.2-1c0.1-0.3,0.3-0.6,0.5-1c0.2-0.3,0.5-0.6,0.8-0.8c-0.1-0.1-0.1-0.1-0.2-0.2c-0.1,0-0.1-0.2-0.1-0.3
					c0-0.2,0.1-0.2,0.1-0.3c0.1-0.1,0.3-0.1,0.3-0.1c0.2,0,0.2,0.1,0.3,0.1c0.1,0,0.1,0.1,0.2,0.2c0.2-0.2,0.5-0.3,0.8-0.4
					c0.3-0.1,0.7-0.2,1-0.2c0.3,0,0.6,0.1,0.9,0.2c0.3,0.1,0.5,0.3,0.6,0.6c0.1,0.3,0.1,0.4,0.1,0.7c0,0.2-0.1,0.3-0.3,0.4
					c-0.2,0.1-0.3,0.1-0.5,0c-0.1-0.1-0.2-0.1-0.3-0.1l0,0c-0.1,0-0.2-0.1-0.3-0.1c-0.2-0.1-0.4-0.2-0.7-0.2c-0.2-0.1-0.5,0-0.7,0.1
					c0.4,0.7,0.8,1.5,1.2,2.2c0.2,0,0.3-0.1,0.5-0.1l0.1,0c0.2,0,0.3-0.1,0.5-0.1c0.3-0.1,0.7-0.1,1,0c0.3,0,0.7,0.2,1,0.3
					c0.3,0.1,0.6,0.4,0.9,0.8c0.2,0.3,0.3,0.6,0.4,1.1c0.1,0.3,0,0.6-0.1,0.9c-0.1,0.4-0.3,0.7-0.6,1.1c-0.2,0.3-0.6,0.7-0.9,1
					c0.1,0.2,0.3,0.4,0.4,0.6c0.1,0.1,0.1,0.2,0.1,0.3c0,0.1-0.1,0.2-0.1,0.3c-0.1,0.1-0.3,0.1-0.3,0.1c-0.2,0-0.2-0.1-0.3-0.1
					c-0.1-0.2-0.3-0.4-0.4-0.6c-0.5,0.3-0.9,0.4-1.3,0.5c-0.4,0.1-0.8,0-1.1-0.1c-0.3-0.1-0.6-0.2-0.9-0.4c-0.3-0.1-0.5-0.3-0.6-0.6
					c-0.1-0.3-0.1-0.5-0.1-0.7c0.1-0.2,0.2-0.4,0.3-0.5s0.4-0.2,0.5-0.1c0.2,0,0.2,0.1,0.4,0.2C198,685.7,198.1,685.8,198.1,685.8
					L198.1,685.8z M200,684.6c0.2,0.3,0.4,0.7,0.6,1c0.1-0.1,0.3-0.2,0.4-0.4c0.1-0.1,0.2-0.3,0.3-0.5c0.1-0.1,0.1-0.3,0.1-0.5
					c0-0.2-0.1-0.3-0.2-0.5c-0.1-0.2-0.2-0.3-0.4-0.4c-0.2-0.1-0.4-0.1-0.5-0.1c-0.1,0-0.2,0-0.2,0l0,0c-0.1,0-0.1,0-0.2,0
					c-0.2,0-0.3,0.1-0.5,0.1c0.2,0.3,0.4,0.7,0.6,1L200,684.6z M196.8,682.2c-0.3-0.1-0.5-0.2-0.7-0.5c-0.1-0.1-0.1-0.3-0.2-0.4
					c0-0.2,0-0.3,0-0.5c0-0.2,0.1-0.3,0.3-0.4c0.1-0.1,0.2-0.3,0.4-0.4c0.4,0.7,0.7,1.3,1.1,2C197.4,682.2,197,682.3,196.8,682.2z
					 M206,673.2c0.2,0,0.3,0.1,0.4,0.3c0.1,0.2,0,0.5-0.2,0.7l-0.9,0.7c-0.5,0.4-1.2,0.9-1.8,1.3c-0.7,0.5-1.5,0.8-2.2,1.2
					c-0.2,0.2-0.5,0.1-0.7-0.2c-0.2-0.2-0.1-0.5,0.2-0.7c0,0,0.1,0,0.1,0l0,0c0,0,0,0,0.1,0c0.7-0.3,1.3-0.6,2-1
					c0.7-0.4,1.2-0.8,1.7-1.3l0.9-0.7c0-0.1,0.1-0.1,0.1-0.1C205.8,673.2,205.9,673.2,206,673.2L206,673.2z M246,671.9l0.3,0.3
					l0.2,0.4c0,0.4,0,0.4-0.1,0.8l-0.3,0.3c-0.1,0.1-0.2,0.1-0.4,0.2c0,0-0.1,0-0.1,0c-0.2,0-0.3,0.1-0.5,0.1
					c-0.4,0.1-0.8,0.2-1.3,0.3c-1.4,0.3-2.9,0.7-4.4,0.9c-3.5,0.7-7.1,1.1-10.7,1.3c-1.8,0.1-3.7,0.2-5.5,0.2l-0.1,0l-0.4-0.1
					l-0.3-0.2c-0.2-0.3-0.2-0.3-0.3-0.7l0.1-0.4l0.2-0.3l0.3-0.2c0.1,0,0.3-0.1,0.4-0.1c0,0,0.1,0,0.1,0c0.1,0,0.2,0,0.3,0
					c0.2,0,0.3,0,0.5,0c0.3,0,0.7,0,1,0c1.1,0,2.2-0.1,3.3-0.1c2.3-0.1,4.6-0.4,6.9-0.7c2.2-0.3,4.4-0.7,6.6-1.2
					c1.1-0.2,2.2-0.5,3.2-0.8l0.1,0l0.4,0C245.7,671.8,245.9,671.9,246,671.9z M293.1,667.9c0.3,0.4,0.8,0.4,1.2,0.1l1.3-1.1
					c0.4-0.3,0.4-0.8,0.1-1.2l-3.4-3.9c-0.3-0.4-0.8-0.4-1.2-0.1l-1.3,1.1c-0.4,0.3-0.4,0.8-0.1,1.2L293.1,667.9z M275.4,665.3
					c0.3,0.4,0.8,0.5,1.2,0.2l1.4-1c0.4-0.3,0.5-0.8,0.2-1.2l-3-4.2c-0.3-0.4-0.8-0.5-1.2-0.2l-1.4,1c-0.4,0.3-0.5,0.8-0.2,1.2
					L275.4,665.3z M162.8,649.5c0.1,0.1,0.2,0.1,0.3,0.2c0.1,0.1,0.1,0.1,0.2,0.2c0.1,0.1,0.3,0.2,0.4,0.4c0.2,0.2,0.4,0.4,0.6,0.6
					c0.8,0.8,1.7,1.6,2.5,2.3c1.7,1.5,3.4,2.9,5.2,4.2c1.8,1.4,3.7,2.7,5.6,3.9c1,0.6,2,1.3,3.1,1.9l0.1,0c0.3,0.3,0.3,0.3,0.5,0.6
					l0,0.4c-0.1,0.4-0.1,0.4-0.4,0.7l-0.4,0.2l-0.4,0l-0.4-0.1c-4.4-2.5-8.5-5.4-12.4-8.7c-1.3-1.1-2.5-2.1-3.7-3.3
					c-0.6-0.6-1.2-1.1-1.8-1.7l-0.2-0.2c-0.2-0.3-0.2-0.3-0.3-0.7l0.1-0.4c0.1-0.1,0.1-0.2,0.2-0.3c0.3-0.3,0.4-0.2,0.7-0.3
					C162.6,649.4,162.7,649.4,162.8,649.5z M201.9,658.4c0.2,0.1,0.5,0.2,0.7,0.2c0.3,0.1,0.6,0.2,0.9,0.3c1.8,0.5,3.6,0.9,5.4,1.3
					c2.1,0.4,4.3,0.8,6.4,1l0.2,0l0.1,0l0.2,0c0.1,0,0.1,0.1,0.2,0.1c0.1,0.1,0.2,0.2,0.3,0.3c0.2,0.3,0.2,0.8,0,1.1
					c0,0.1-0.1,0.1-0.1,0.2c-0.1,0.1-0.1,0.1-0.2,0.1c-0.1,0.1-0.3,0.1-0.4,0.2c-0.1,0-0.2,0-0.2,0c-0.3,0-0.6-0.1-0.8-0.1
					c-2.4-0.3-4.7-0.7-7.1-1.2c-2-0.4-4-1-6-1.6l-0.2-0.1c-0.1,0-0.2-0.1-0.3-0.1c-0.1-0.1-0.2-0.2-0.3-0.3c0-0.1-0.1-0.1-0.1-0.2
					c0-0.1,0-0.1-0.1-0.2c-0.1-0.4,0.1-0.8,0.4-1c0.1-0.1,0.3-0.1,0.4-0.2c0.1,0,0.2,0,0.2,0C201.8,658.4,201.9,658.4,201.9,658.4z
					 M252,656.1c0.2,0.1,0.2,0.1,0.4,0.2c0.1,0.1,0.1,0.1,0.2,0.2c0.2,0.3,0.3,0.7,0.1,1.1c0,0.1-0.1,0.1-0.1,0.2
					c-0.1,0.2-0.2,0.2-0.4,0.3c-0.2,0.1-0.5,0.2-0.7,0.3c-2.2,0.9-4.4,1.6-6.6,2.3c-2.1,0.6-4.2,1.2-6.4,1.6l-0.2,0
					c-0.1,0-0.2,0-0.2,0c-0.2,0-0.3,0-0.4-0.1c-0.1,0-0.1-0.1-0.2-0.1c-0.3-0.2-0.4-0.7-0.3-1c0-0.1,0.1-0.3,0.2-0.4
					c0.1-0.1,0.2-0.2,0.4-0.3c0.1,0,0.1,0,0.2-0.1c0.3-0.1,0.5-0.1,0.8-0.2c2.1-0.4,4.1-1,6.2-1.6c2.2-0.7,4.3-1.4,6.4-2.3l0.1,0
					c0.2-0.1,0.2-0.1,0.4-0.1C251.8,656.1,251.9,656.1,252,656.1z M178.4,646.1c0.2,0.1,0.2,0.1,0.4,0.2c0.2,0.2,0.4,0.4,0.7,0.5
					c1.7,1.3,3.6,2.6,5.4,3.8c1.9,1.2,3.8,2.3,5.8,3.3l0.2,0.1c0.1,0.1,0.1,0.1,0.2,0.2c0.1,0.1,0.2,0.3,0.2,0.4c0,0.1,0,0.2,0,0.2
					c0,0.1,0,0.2,0,0.2c-0.1,0.4-0.4,0.7-0.8,0.8c-0.2,0-0.3,0-0.5,0c-0.1,0-0.1-0.1-0.2-0.1c-0.3-0.1-0.5-0.3-0.8-0.4
					c-2-1-3.9-2.1-5.7-3.3c-1.9-1.2-3.7-2.5-5.5-3.9l-0.2-0.1c-0.1-0.1-0.2-0.2-0.3-0.4c0-0.1-0.1-0.1-0.1-0.2c-0.1-0.4,0-0.8,0.4-1
					c0.1,0,0.1-0.1,0.2-0.1c0.2-0.1,0.2-0.1,0.4-0.1C178.3,646.1,178.4,646.1,178.4,646.1z M274,641.7c0.2,0.1,0.3,0,0.4,0.2
					c0.3,0.2,0.5,0.6,0.4,1c0,0.1,0,0.2-0.1,0.2c-0.1,0.2-0.1,0.2-0.3,0.4c-0.2,0.2-0.5,0.4-0.7,0.6c-1.7,1.5-3.4,2.9-5.1,4.3
					c-1.8,1.4-3.6,2.6-5.5,3.8l-0.2,0.1c-0.1,0-0.1,0.1-0.2,0.1c-0.1,0.1-0.3,0.1-0.5,0.1c-0.1,0-0.2,0-0.2-0.1
					c-0.4-0.1-0.6-0.5-0.7-0.9c0-0.2,0-0.3,0.1-0.5c0.1-0.1,0.1-0.3,0.2-0.4c0.1-0.1,0.1-0.1,0.2-0.1c0.2-0.1,0.5-0.3,0.7-0.4
					c1.9-1.2,3.7-2.5,5.5-3.9c1.7-1.3,3.4-2.8,5-4.2l0,0c0.2-0.1,0.2-0.2,0.4-0.2c0.1,0,0.2,0,0.2,0
					C273.9,641.7,273.9,641.7,274,641.7z M298.5,632.3c0.3,0.3,0.3,0.3,0.5,0.6l0,0.4c0,0.1-0.1,0.3-0.1,0.4c0,0.1-0.1,0.1-0.1,0.2
					c-0.1,0.2-0.2,0.3-0.3,0.5c-0.2,0.4-0.5,0.8-0.7,1.2c-0.7,1.2-1.5,2.4-2.3,3.5c-2,2.9-4.1,5.6-6.5,8.2c-1.3,1.4-2.6,2.8-3.9,4.1
					l-0.1,0.1l-0.3,0.2l-0.4,0.1l-0.4-0.1l-0.3-0.2c-0.2-0.3-0.2-0.3-0.3-0.7l0.1-0.4c0.1-0.1,0.1-0.2,0.2-0.3
					c0-0.1,0.1-0.1,0.1-0.1c0.2-0.2,0.4-0.4,0.6-0.6c0.2-0.2,0.4-0.4,0.6-0.6c0.8-0.8,1.6-1.7,2.4-2.5c1.6-1.7,3-3.5,4.4-5.4
					c1.3-1.7,2.5-3.4,3.6-5.1c0.6-1,1.3-2,1.9-3l0.1-0.2c0.3-0.3,0.3-0.3,0.6-0.5l0.4,0C298.2,632.2,298.3,632.2,298.5,632.3z
					 M165.7,602.2c0.1,0,0.1,0,0.2,0.1c0.2,0.1,0.3,0.3,0.4,0.5c0,0.1,0,0.1,0.1,0.2c0.1,0.3,0.1,0.5,0.2,0.8
					c0.2,0.9,0.5,1.7,0.7,2.6c0.5,1.5,1,3.1,1.6,4.6c1.7,4.3,4,8.5,6.7,12.3c3.7,5.2,8.3,9.8,13.5,13.6c4.8,3.4,10,6.2,15.6,8.1
					c2.8,1,5.7,1.7,8.6,2.2c2.9,0.5,5.9,0.8,8.9,0.9c5.2,0.1,10.4-0.5,15.5-1.7c5.7-1.4,11.1-3.7,16.1-6.7c4-2.4,7.7-5.3,11-8.5
					c1.2-1.2,2.3-2.4,3.4-3.6c0.5-0.6,1.1-1.3,1.6-1.9l0,0c0-0.1,0.1-0.1,0.1-0.2c0.1-0.1,0.2-0.2,0.4-0.2c0.3-0.1,0.7,0,1,0.2
					c0.1,0,0.1,0.1,0.1,0.2c0.1,0.1,0.1,0.3,0.2,0.4c0,0.2,0,0.4-0.1,0.6c0,0.1-0.1,0.1-0.1,0.2c-0.2,0.2-0.3,0.4-0.5,0.6
					c-1.6,1.9-3.2,3.8-5,5.5c-3.5,3.4-7.4,6.4-11.6,8.8c-5.2,3.1-10.9,5.3-16.8,6.7c-5.4,1.3-10.9,1.8-16.4,1.5
					c-2.9-0.1-5.9-0.5-8.8-1c-3.1-0.6-6.2-1.4-9.2-2.5c-5.8-2.1-11.3-5.1-16.2-8.8c-5.1-3.9-9.6-8.6-13.3-13.9
					c-2.7-3.9-4.9-8.1-6.6-12.5c-0.7-1.7-1.3-3.5-1.8-5.3c-0.2-0.8-0.4-1.6-0.6-2.4l0-0.1c0-0.2,0-0.2,0-0.4
					c0.1-0.4,0.3-0.7,0.7-0.8c0.2-0.1,0.2-0.1,0.4-0.1C165.6,602.1,165.6,602.2,165.7,602.2z M149.8,646.9c-0.4,0.3-0.4,0.8-0.1,1.2
					l1.1,1.3c0.3,0.4,0.8,0.4,1.2,0.1l4-3.2c0.4-0.3,0.4-0.8,0.1-1.2l-1.1-1.3c-0.3-0.4-0.8-0.4-1.2-0.1L149.8,646.9z M321.5,602.5
					l-13.6,3.5c-1.4,0.4-2.3,1.8-1.9,3.2l5.7,22c0.4,1.4,1.8,2.3,3.2,1.9l13.6-3.5c1.4-0.4,2.3-1.8,1.9-3.2l-5.7-22
					C324.3,603,322.9,602.1,321.5,602.5z M156.3,617.2c0.1,0,0.1,0,0.2,0.1c0.1,0.1,0.3,0.2,0.3,0.3c0,0.1,0.1,0.1,0.1,0.2
					c0.1,0.2,0.2,0.5,0.3,0.7c0.9,1.9,1.8,3.8,2.8,5.7c1.1,2,2.3,4,3.6,5.9l0,0.1c0,0.1,0.1,0.1,0.1,0.2c0.1,0.1,0.1,0.3,0.1,0.4
					c0,0.4-0.3,0.7-0.6,0.9c-0.1,0-0.1,0-0.2,0.1c-0.2,0-0.3,0-0.5,0c-0.1,0-0.3-0.1-0.4-0.2c-0.1-0.1-0.1-0.1-0.1-0.2
					c-0.2-0.3-0.4-0.5-0.5-0.8c-1.2-1.9-2.4-3.8-3.5-5.7c-1.1-2-2-4-2.9-6l-0.1-0.1c-0.1-0.2-0.1-0.2-0.1-0.4c0-0.4,0.3-0.7,0.6-0.9
					c0.2-0.1,0.2-0.1,0.4-0.1C156.1,617.2,156.2,617.2,156.3,617.2z M328.6,626.8c0.1,0.5-0.2,0.9-0.6,1l-13.6,3.5
					c-0.5,0.1-0.9-0.2-1-0.6L313,629l15.2-3.9L328.6,626.8z M321.8,628.1c0.1,0.2-0.1,0.5-0.3,0.6l-0.8,0.2
					c-0.2,0.1-0.5-0.1-0.6-0.3c-0.1-0.2,0.1-0.5,0.3-0.6l0.8-0.2C321.5,627.8,321.7,627.9,321.8,628.1z M328,624.2l-15.2,3.9
					l-4.3-16.9l15.2-3.9L328,624.2z M293.7,611c0.1,0,0.1,0.1,0.2,0.1c0.3,0.2,0.4,0.4,0.5,0.7c0,0.2,0,0.3,0,0.5
					c-0.1,0.3-0.2,0.6-0.3,0.9c-0.4,1-0.7,2.1-1.1,3.1c-0.8,2-1.6,4-2.6,5.9c-0.4,0.8-0.8,1.6-1.3,2.4c-0.1,0.3-0.3,0.5-0.4,0.8
					c-0.1,0.1-0.1,0.2-0.2,0.3c-0.3,0.3-0.7,0.4-1,0.3c-0.1,0-0.1-0.1-0.2-0.1c-0.1,0-0.1-0.1-0.2-0.1c-0.1-0.1-0.2-0.2-0.3-0.4
					c-0.1-0.2-0.1-0.5,0-0.7c0-0.1,0.1-0.1,0.1-0.2c0.1-0.2,0.3-0.5,0.4-0.7c1-1.9,2-3.8,2.8-5.8c0.9-2.1,1.7-4.2,2.4-6.4l0.1-0.2
					c0-0.1,0.1-0.1,0.1-0.2c0.2-0.2,0.4-0.3,0.6-0.3c0.1,0,0.2,0,0.2,0C293.6,610.9,293.6,610.9,293.7,611z M217,604.5
					c-6.2,0-12.5,0-18.7-0.1c-0.2,0-0.4,0-0.5,0c-0.4,0-0.8-0.1-1.2-0.3c-0.7-0.3-1.4-0.7-1.9-1.3c-0.5-0.5-0.9-1.2-1.2-1.9
					c-0.2-0.5-0.3-1.1-0.3-1.7c-0.1-10.6-0.1-21.2,0-31.9c0-0.6,0.1-1.1,0.3-1.7c0.3-0.8,0.7-1.4,1.3-2c0.5-0.5,1.1-0.9,1.8-1.1
					c0.4-0.1,0.7-0.2,1.1-0.3c0.2,0,0.4,0,0.6,0c16.8-0.3,33.6-0.1,50.4,0c0.2,0,0.4,0,0.5,0c0.4,0,0.8,0.1,1.2,0.3
					c0.7,0.2,1.3,0.6,1.8,1.1c0.6,0.6,1.1,1.3,1.3,2c0.1,0.4,0.2,0.7,0.3,1.1c0,0.2,0,0.4,0,0.6c0.1,10.6,0.1,21.2,0,31.9
					c0,0.2,0,0.4,0,0.6c0,0.4-0.1,0.8-0.3,1.1c-0.3,0.8-0.7,1.5-1.3,2c-0.5,0.5-1.1,0.9-1.8,1.1c-0.5,0.2-1.1,0.3-1.7,0.3
					c-6.2,0-12.5,0.1-18.7,0.1v6.3h6.5l0.1,0c0.1,0,0.1,0,0.2,0c0.1,0,0.2,0,0.3,0.1c0.4,0.2,0.8,0.5,1,1c0.1,0.1,0.1,0.3,0.1,0.4
					c0,0.1,0,0.1,0,0.2c0,0.7,0,1.4,0,2.1c0,0.2,0,0.4-0.1,0.6c-0.2,0.5-0.6,0.9-1,1c-0.2,0.1-0.4,0.1-0.6,0.1h-25.9
					c-0.2,0-0.4,0-0.6-0.1c-0.5-0.2-0.9-0.6-1-1c-0.1-0.2-0.1-0.4-0.1-0.6v-2.1c0-0.2,0-0.4,0.1-0.6c0.2-0.5,0.6-0.9,1-1
					c0.2-0.1,0.4-0.1,0.6-0.1h6.5V604.5z M219.1,604.5v6.6l0,0.1c0,0.1,0,0.1,0,0.2c0,0.1-0.1,0.3-0.1,0.4c-0.2,0.5-0.6,0.8-1.1,1
					c-0.2,0-0.3,0.1-0.5,0.1h-6.5v1.4h25.2v-1.4h-6.5c-0.2,0-0.4,0-0.6-0.1c-0.5-0.2-0.9-0.6-1-1c-0.1-0.2-0.1-0.4-0.1-0.6v-6.6
					C225,604.5,222,604.5,219.1,604.5z M137.5,588.7l0.3,0.2l0.2,0.3c0,0.1,0.1,0.3,0.1,0.4c0,0,0,0.1,0,0.1c0,0.1,0,0.2,0,0.3
					c0,0.2,0,0.3,0,0.5c0,0.3,0,0.7,0,1c0,1.1,0.1,2.2,0.2,3.3c0.2,2.4,0.4,4.8,0.8,7.1c0.3,2.1,0.7,4.2,1.2,6.3
					c0.2,1.1,0.5,2.2,0.8,3.2l0,0l0,0.4l-0.1,0.4l-0.3,0.3l-0.4,0.2c-0.4,0-0.4,0-0.8-0.1l-0.3-0.3c-0.1-0.1-0.1-0.2-0.2-0.4
					c0,0,0,0,0,0c0-0.1,0-0.2-0.1-0.3c0-0.2-0.1-0.3-0.1-0.5c-0.1-0.4-0.2-0.8-0.3-1.3c-0.3-1.4-0.6-2.7-0.9-4.1
					c-0.7-3.6-1.2-7.3-1.4-10.9c-0.1-1.8-0.2-3.5-0.2-5.3l0-0.1c0-0.1,0-0.3,0.1-0.4c0.1-0.3,0.3-0.4,0.6-0.6l0.4-0.1
					C137.2,588.7,137.4,588.7,137.5,588.7z M281.5,603.2c0.2,0,0.2,0,0.4,0.1c0.2,0.2,0.4,0.4,0.5,0.7c0,0.2,0,0.2,0,0.4
					c-0.1,0.3-0.1,0.6-0.2,0.8c-0.2,0.8-0.4,1.6-0.7,2.3c-0.3,0.9-0.6,1.8-0.9,2.6l-0.1,0.1c0,0.1-0.1,0.1-0.1,0.2
					c-0.1,0.1-0.2,0.2-0.3,0.3c-0.3,0.2-0.7,0.2-1,0.1c-0.1,0-0.1-0.1-0.2-0.1c-0.1-0.1-0.2-0.2-0.3-0.3c-0.1-0.2-0.1-0.4-0.1-0.6
					c0-0.1,0-0.1,0.1-0.2c0.1-0.3,0.2-0.5,0.3-0.8c0.3-0.8,0.5-1.6,0.8-2.4c0.2-0.8,0.5-1.6,0.7-2.4l0-0.1c0-0.1,0-0.1,0.1-0.2
					c0.1-0.3,0.4-0.5,0.6-0.5c0.1,0,0.1,0,0.2,0C281.3,603.2,281.4,603.2,281.5,603.2z M323.4,606.5l-15.2,3.9l-0.4-1.7
					c-0.1-0.5,0.2-0.9,0.6-1l13.6-3.5c0.5-0.1,0.9,0.2,1,0.6L323.4,606.5z M317.2,606.7c0.1,0.2-0.1,0.5-0.3,0.6l-2.5,0.7
					c-0.2,0.1-0.5-0.1-0.6-0.3s0.1-0.5,0.3-0.6l2.6-0.7C316.8,606.4,317.1,606.5,317.2,606.7z M150.3,591.4c0.1,0,0.1,0,0.2,0.1
					c0.3,0.1,0.5,0.4,0.6,0.7c0,0.1,0,0.2,0,0.2c0,0.3,0,0.5,0,0.8c0.1,2.2,0.3,4.3,0.6,6.4c0.3,2.3,0.8,4.5,1.3,6.7l0,0
					c0,0.1,0,0.2,0,0.2c0,0.2,0,0.3-0.1,0.4c-0.1,0.1-0.2,0.3-0.3,0.4c-0.3,0.2-0.7,0.3-1.1,0.1c-0.1,0-0.1-0.1-0.2-0.1
					c-0.1-0.1-0.2-0.2-0.3-0.4c0-0.1-0.1-0.1-0.1-0.2c-0.1-0.3-0.1-0.6-0.2-0.9c-0.5-2.2-0.9-4.5-1.2-6.7c-0.3-2.2-0.5-4.4-0.6-6.6
					l0-0.1c0-0.1,0-0.2,0-0.2c0.1-0.3,0.3-0.6,0.5-0.7c0.2-0.1,0.2-0.1,0.4-0.1C150.1,591.4,150.2,591.4,150.3,591.4z M229,602.6
					c6.6,0,13.1,0,19.7-0.2c0.4,0,0.7-0.1,1-0.2c0.9-0.3,1.5-1,1.9-1.9c0.1-0.3,0.2-0.7,0.2-1.1c0.1-10.6,0.2-21.2,0-31.9
					c0-0.3-0.1-0.7-0.2-1c-0.3-0.9-1-1.6-1.9-1.9c-0.3-0.1-0.7-0.2-1.1-0.2c-16.7-0.1-33.5,0-50.2,0c-0.4,0-0.7,0.1-1.1,0.2
					c-0.9,0.3-1.6,1-1.9,1.9c-0.1,0.3-0.2,0.7-0.2,1.1c-0.1,10.6-0.2,21.2,0,31.9c0,0.4,0.1,0.7,0.2,1c0.2,0.6,0.6,1.1,1.1,1.4
					c0.3,0.2,0.5,0.3,0.8,0.5c0.3,0.1,0.7,0.2,1,0.2c6.6,0,13.1,0.1,19.7,0.1c0.1,0,0.1,0,0.2-0.1c0.2-0.1,0.3-0.1,0.5-0.1
					c3.2,0,6.4-0.1,9.6,0c0.1,0,0.1,0,0.2,0C228.7,602.4,228.8,602.5,229,602.6C229,602.5,229,602.5,229,602.6z M297.1,584.7
					c0.1,0,0.1,0,0.2,0.1c0.3,0.1,0.5,0.4,0.6,0.7c0,0.1,0,0.2,0,0.2c0,0.3,0,0.6,0,1c0.1,2.3,0.1,4.7-0.1,7c-0.1,2-0.3,4.1-0.6,6.1
					l0,0.2c0,0.1,0,0.3-0.1,0.4c-0.1,0.1-0.1,0.3-0.3,0.4c-0.1,0.1-0.1,0.1-0.2,0.1c-0.3,0.2-0.8,0.2-1.1,0
					c-0.1-0.1-0.2-0.2-0.3-0.3c-0.1-0.1-0.1-0.3-0.1-0.4c0-0.1,0-0.2,0-0.2c0-0.3,0.1-0.6,0.1-0.9c0.3-2.3,0.5-4.6,0.6-6.9
					c0.1-2.1,0.1-4.2,0-6.3l0,0c0-0.2,0-0.3,0.1-0.4c0.1-0.3,0.4-0.5,0.7-0.6c0.1,0,0.2,0,0.2,0C296.9,584.7,297,584.7,297.1,584.7z
					 M248.4,600.2h-49.7c-0.1,0-0.2,0-0.3,0c-0.2,0-0.3-0.1-0.5-0.3c-0.1-0.1-0.1-0.1-0.2-0.2c-0.2-0.3-0.1-0.8,0.1-1.1
					c0.1-0.1,0.2-0.2,0.3-0.3c0.1-0.1,0.3-0.1,0.4-0.1c0,0,0.1,0,0.1,0h49.7c0,0,0.1,0,0.1,0c0,0,0.1,0,0.1,0
					c0.2,0.1,0.3,0.2,0.5,0.3c0.1,0.1,0.1,0.1,0.2,0.2c0.2,0.3,0.1,0.8-0.1,1.1c-0.1,0.1-0.2,0.2-0.3,0.3c-0.1,0.1-0.3,0.1-0.4,0.1
					C248.4,600.2,248.4,600.2,248.4,600.2z M307.8,567.1l0.3,0.3l0.2,0.4c1.3,5,2.1,10,2.5,15.1c0.2,2.4,0.3,4.7,0.2,7.1l0,0.3
					l0,0.1l-0.1,0.4l-0.2,0.3l-0.3,0.2l-0.4,0.1l-0.4-0.1l-0.3-0.2l-0.2-0.3c0-0.1-0.1-0.3-0.1-0.4c0,0,0,0,0,0c0-0.1,0-0.2,0-0.3
					c0-0.2,0-0.3,0-0.5c0-0.3,0-0.7,0-1c0-1.2-0.1-2.4-0.1-3.6c-0.1-2.2-0.3-4.4-0.6-6.6c-0.3-2.3-0.7-4.6-1.2-6.8
					c-0.2-1-0.4-2-0.7-3l0-0.1c0-0.4,0-0.4,0.1-0.8l0.3-0.3l0.4-0.2l0.4,0C307.5,567,307.7,567.1,307.8,567.1z M222.2,579.9l-1,5.9
					h0.6l-0.3,1.5h-2.1l0.1-0.4c-0.5,0.4-0.9,0.6-1.5,0.6c-1.1,0-1.9-0.9-1.9-2.2c0-1.8,1.1-2.9,2.6-2.9c0.5,0,1,0.2,1.2,0.5
					l0.2-1.4h-0.6l0.3-1.5H222.2z M231.4,585.6c-0.3,0.3-0.6,0.4-0.9,0.4c-0.5,0-0.9-0.3-0.9-0.9h3.4c0-0.1,0-0.3,0-0.4
					c0-1.6-0.9-2.5-2.4-2.5c-1.7,0-2.9,1.2-2.9,2.7c0,1.5,1,2.4,2.6,2.4c0.9,0,1.7-0.3,2.3-1L231.4,585.6z M224.4,584.6l1.3-1h-0.5
					l0.2-1.2h2.5l-0.2,1.5h-0.5l-1.1,0.9l0.9,1.1h0.5l-0.2,1.5h-2.6l0.2-1.2h0.5l-0.9-1h-0.1l-0.4,2.2h-2.3l0.3-1.5h0.5l0.8-4.5
					h-0.6l0.2-1.5h2.5L224.4,584.6z M215.7,579.8l-0.2,1.5h-0.8l0.6,4.5h0.6l-0.3,1.5h-3.3l0.2-1.5h0.9l-0.1-1.1h-1.9l-0.5,1.1h0.7
					l-0.3,1.5H208l0.3-1.5h0.8l2.1-4.5h-0.8l0.2-1.5H215.7z M235.8,582.4l-0.3,1.5h-0.4l0.4,1.8l1-1.8h-0.5l0.3-1.5h2.6l-0.3,1.5
					h-0.4l-2,3.4h-1.9l-0.8-3.4H233l0.3-1.5H235.8z M218.9,583.8c0.5,0,0.8,0.3,0.8,0.9c0,0.6-0.4,1.1-1,1.1c-0.5,0-0.9-0.3-0.9-0.9
					C217.9,584.2,218.3,583.8,218.9,583.8z M159,581.2c-0.5,0-0.9,0.3-0.9,0.8l-0.1,1.7c0,0.5,0.3,0.9,0.8,0.9l5.1,0.2
					c0.5,0,0.9-0.3,0.9-0.8l0.1-1.7c0-0.5-0.3-0.9-0.8-0.9L159,581.2z M231.3,584.4c0,0,0-0.1,0-0.1c0-0.4-0.3-0.7-0.8-0.7
					c-0.5,0-0.8,0.3-0.9,0.8H231.3z M213.1,583.5l-0.2-2.3l-1,2.3H213.1z M238.5,581.2c0,0.2,0.1,0.3,0.3,0.3c0.2,0,0.3-0.1,0.3-0.3
					c0-0.2-0.1-0.3-0.3-0.3C238.6,580.9,238.5,581,238.5,581.2z M238.3,580.6h-0.4c0-0.1-0.1-0.2-0.2-0.2c-0.1,0-0.3,0.1-0.3,0.3
					c0,0.2,0.1,0.3,0.2,0.3c0.1,0,0.2,0,0.3-0.1l0.4,0.3c-0.2,0.2-0.4,0.3-0.7,0.3c-0.4,0-0.7-0.3-0.7-0.7c0-0.4,0.3-0.8,0.7-0.8
					c0.2,0,0.3,0,0.4,0.1l0-0.1h0.4L238.3,580.6z M233,581.5h-7.3l0.3-1.6h7.3L233,581.5z M235.1,579.3l-0.1,0.4h-0.2l-0.2,1.3h0.2
					l-0.1,0.4h-1l0.1-0.4h0.2l0.2-1.3H234l0.1-0.4H235.1z M235.8,580l0,0.2c0.2-0.2,0.3-0.2,0.5-0.2c0.2,0,0.3,0.1,0.3,0.3
					c0,0,0,0.1,0,0.2l-0.1,0.5h0.2l-0.1,0.4h-0.7l0.2-0.9c0,0,0,0,0,0c0-0.1,0-0.1-0.1-0.1c-0.1,0-0.2,0.1-0.2,0.2l-0.1,0.4h0.2
					l-0.1,0.4h-0.9l0.1-0.4h0.2l0.1-0.6h-0.2l0.1-0.4H235.8z M128.1,548.4c-4.9,0.5-8.4,4.6-8.2,9.3c-4.7,0.7-8.2,4.9-7.7,9.7
					c0.4,5,4.7,8.6,9.7,8.1c1.4-0.1,14.6-1.3,14.6-1.3c1.5-0.1,2.7-1.6,2.6-3.1c0,0-1.2-14.5-1.2-14.6
					C137.3,551.6,133,548,128.1,548.4z M135.9,556.7l1.1,14.6c0,0.5-0.4,1-0.8,1l-14.6,1.4c-3.9,0.3-7.3-2.5-7.6-6.4
					c-0.3-3.8,2.4-7.1,6.2-7.7l1.7-0.2l-0.1-1.7c-0.2-3.8,2.7-7,6.5-7.4C132,550,135.4,552.9,135.9,556.7z M157.9,555.7
					c0.2,0.1,0.2,0.1,0.4,0.2c0.2,0.2,0.4,0.5,0.4,0.8c0,0.2,0,0.3-0.1,0.4c-0.1,0.3-0.3,0.6-0.4,0.9c-1,2-1.8,4.1-2.6,6.2
					c-0.7,2-1.4,4-1.9,6.1l0,0c0,0.1,0,0.1-0.1,0.2c-0.1,0.1-0.2,0.3-0.3,0.3s-0.3,0.2-0.4,0.2c-0.1,0-0.2,0-0.2,0
					c-0.4,0-0.7-0.3-0.9-0.6c-0.1-0.1-0.1-0.3-0.1-0.4c0-0.1,0-0.2,0-0.2c0.1-0.3,0.2-0.6,0.3-0.9c0.6-2.2,1.3-4.3,2.1-6.5
					c0.8-2.1,1.7-4.1,2.7-6.1l0-0.1c0-0.1,0.1-0.1,0.1-0.2c0.1-0.2,0.3-0.3,0.6-0.4c0.1,0,0.2,0,0.2,0
					C157.7,555.7,157.8,555.7,157.9,555.7z M117.6,564.1c-1.4,1.7-1.2,4.2,0.5,5.7c0.2,0.1,0.5,0.1,0.7-0.1c0.1-0.2,0.1-0.5-0.1-0.7
					c-1.3-1.1-1.5-3.1-0.4-4.4c0.1-0.2,0.1-0.5-0.1-0.7C118,563.9,117.8,563.9,117.6,564.1z M286.3,549.9c0.1,0,0.2,0,0.2,0.1
					c0.1,0.1,0.3,0.1,0.4,0.2c0.1,0.1,0.1,0.1,0.1,0.2c0.2,0.3,0.3,0.6,0.5,0.8c1.2,2,2.3,4,3.3,6.1c0.9,2,1.8,4,2.5,6l0,0.1
					c0,0.1,0,0.1,0.1,0.2c0,0.2,0,0.3,0,0.5c0,0.1-0.1,0.3-0.2,0.4c-0.3,0.3-0.7,0.4-1.1,0.3c-0.1,0-0.1-0.1-0.2-0.1
					c-0.1-0.1-0.2-0.2-0.3-0.3c0-0.1-0.1-0.1-0.1-0.2c-0.1-0.2-0.2-0.5-0.3-0.7c-0.8-2.1-1.7-4.2-2.7-6.2c-1-2-2-3.9-3.1-5.7l0-0.1
					c-0.1-0.2-0.1-0.2-0.1-0.4c0-0.4,0.2-0.8,0.5-1c0.2-0.1,0.2-0.1,0.4-0.1C286.1,549.9,286.2,549.9,286.3,549.9z M311.6,555.4
					c0.4-0.2,0.7-0.6,0.5-1.1l-0.6-1.6c-0.2-0.4-0.6-0.7-1.1-0.5l-4.8,1.8c-0.4,0.2-0.7,0.6-0.5,1.1l0.6,1.6
					c0.2,0.4,0.6,0.7,1.1,0.5L311.6,555.4z M223.7,528.5c1.9,0,3.8,0.1,5.6,0.3c3.5,0.3,7,1,10.4,1.9c3.7,1,7.3,2.4,10.7,4.1
					c3.7,1.8,7.1,4,10.4,6.5c2.6,2,5,4.2,7.2,6.7c1,1.1,2,2.3,3,3.5l0,0c0,0.1,0.1,0.1,0.1,0.2c0.1,0.1,0.1,0.3,0.1,0.4
					c0,0.1,0,0.3-0.1,0.4c0,0.1-0.1,0.1-0.1,0.2c-0.2,0.3-0.6,0.5-0.9,0.5c-0.2,0-0.4-0.1-0.6-0.2c-0.1,0-0.1-0.1-0.2-0.2
					c-0.2-0.2-0.4-0.5-0.6-0.7c-1.3-1.6-2.7-3.1-4.2-4.6c-2.7-2.7-5.7-5.1-8.9-7.2c-2.8-1.9-5.8-3.5-8.9-4.8c-2.7-1.2-5.6-2.2-8.5-3
					c-8.4-2.2-17.4-2.5-25.9-0.9c-3.6,0.7-7.1,1.7-10.4,3c-1.8,0.7-3.5,1.5-5.2,2.3l0,0c-0.1,0-0.1,0.1-0.2,0.1c-0.1,0-0.3,0-0.4,0
					c-0.1,0-0.3-0.1-0.4-0.2c-0.3-0.2-0.5-0.5-0.5-0.9c0-0.1,0-0.1,0-0.2c0.1-0.2,0.2-0.4,0.3-0.5c0.1,0,0.1-0.1,0.2-0.1
					c0.2-0.1,0.5-0.2,0.7-0.4c1.5-0.7,3-1.4,4.6-2c2.9-1.1,5.9-2.1,8.9-2.7c2.7-0.6,5.4-1,8.1-1.2c1.6-0.1,3.2-0.2,4.9-0.2
					C223.3,528.5,223.5,528.5,223.7,528.5z M181.9,545.7c0.2,0.1,0.2,0.1,0.4,0.2c0.1,0,0.1,0.1,0.1,0.2c0.2,0.3,0.3,0.7,0.2,1
					c-0.1,0.2-0.1,0.2-0.2,0.4c-0.2,0.2-0.4,0.4-0.5,0.5c-0.6,0.6-1.1,1.2-1.7,1.8c-0.6,0.7-1.2,1.3-1.7,2l-0.1,0.1
					c-0.1,0.1-0.1,0.1-0.2,0.2c-0.1,0.1-0.2,0.2-0.4,0.2c-0.1,0-0.3,0-0.4,0c-0.1,0-0.1,0-0.2-0.1c-0.3-0.1-0.6-0.4-0.6-0.8
					c0-0.2,0-0.4,0.1-0.6c0-0.1,0.1-0.1,0.1-0.2c0.2-0.2,0.4-0.5,0.6-0.7c0.6-0.7,1.2-1.4,1.8-2c0.6-0.6,1.2-1.2,1.8-1.8l0,0
					c0.1,0,0.1-0.1,0.2-0.1c0.1-0.1,0.3-0.1,0.4-0.2c0.1,0,0.1,0,0.2,0C181.7,545.7,181.8,545.7,181.9,545.7z M162.2,527.8
					c0.3,0.2,0.3,0.2,0.6,0.5l0.1,0.4l-0.1,0.4l-0.2,0.3c-0.2,0.2-0.4,0.4-0.6,0.6c-0.2,0.2-0.4,0.4-0.5,0.6
					c-0.9,0.9-1.7,1.8-2.5,2.8c-1.4,1.6-2.7,3.3-4,5c-1.4,1.8-2.6,3.7-3.8,5.6c-0.6,1-1.2,2-1.8,3.1l0,0c-0.3,0.3-0.3,0.3-0.6,0.5
					l-0.4,0l-0.4-0.1l-0.3-0.3l-0.2-0.4l0-0.4c0-0.1,0.1-0.3,0.1-0.4c0,0,0,0,0,0c0.1-0.2,0.2-0.3,0.3-0.5c0.2-0.4,0.5-0.8,0.7-1.2
					c0.8-1.3,1.6-2.6,2.4-3.8c2-3,4.2-5.9,6.5-8.6c1.2-1.4,2.4-2.7,3.7-4l0,0l0.3-0.2l0.4-0.1C161.9,527.7,162.1,527.7,162.2,527.8z
					 M173.6,534.5c0.2,0.1,0.3,0,0.4,0.2c0.3,0.2,0.5,0.6,0.4,1c0,0.1,0,0.2-0.1,0.2c-0.1,0.2-0.1,0.2-0.3,0.4
					c-0.2,0.2-0.4,0.3-0.6,0.5c-1.6,1.5-3.1,3.1-4.5,4.7c-1.5,1.7-2.9,3.5-4.2,5.3l0,0c-0.1,0.1-0.1,0.1-0.2,0.2
					c-0.1,0.1-0.3,0.2-0.4,0.2c-0.1,0-0.1,0-0.2,0c-0.4,0-0.8-0.2-0.9-0.5c-0.1-0.1-0.1-0.3-0.1-0.4c0-0.2,0-0.3,0.1-0.4
					c0-0.1,0.1-0.1,0.1-0.2c0.2-0.2,0.4-0.5,0.5-0.7c1.4-1.9,2.9-3.7,4.4-5.4c1.5-1.6,3-3.2,4.6-4.6l0.1-0.1c0.1,0,0.1-0.1,0.2-0.1
					c0.2-0.1,0.2-0.1,0.4-0.1C173.4,534.5,173.5,534.5,173.6,534.5z M268.8,530.2c0.2,0.1,0.2,0.1,0.4,0.2c0.2,0.2,0.4,0.3,0.7,0.5
					c1.8,1.4,3.5,2.9,5.1,4.4c1.6,1.5,3.2,3.2,4.6,4.9l0.1,0.2c0,0.1,0.1,0.1,0.1,0.2c0.1,0.1,0.1,0.3,0.1,0.4c0,0.2,0,0.3-0.1,0.4
					c0,0.1-0.1,0.1-0.1,0.2c-0.2,0.3-0.6,0.5-1,0.4c-0.2,0-0.3-0.1-0.4-0.2c-0.1,0-0.1-0.1-0.2-0.2c-0.2-0.2-0.4-0.4-0.6-0.6
					c-1.5-1.7-3.1-3.3-4.7-4.8c-1.5-1.4-3.2-2.8-4.8-4.1l-0.1-0.1c-0.1-0.1-0.2-0.2-0.3-0.4c0-0.1-0.1-0.1-0.1-0.2
					c-0.1-0.4,0-0.8,0.3-1c0.1,0,0.1-0.1,0.2-0.1c0.2-0.1,0.2-0.1,0.4-0.1C268.6,530.2,268.7,530.2,268.8,530.2z M178.6,525.9
					c-0.3-0.4-0.8-0.4-1.2-0.1l-1.3,1.1c-0.4,0.3-0.4,0.8-0.1,1.2l3.3,3.9c0.3,0.4,0.8,0.4,1.2,0.1l1.3-1.1c0.4-0.3,0.4-0.8,0.1-1.2
					L178.6,525.9z M266,512.8c4.5,2.5,8.8,5.4,12.9,8.7c1.8,1.4,3.5,2.9,5.1,4.5c0.8,0.7,1.6,1.5,2.3,2.3l0.1,0.1
					c0.1,0.1,0.2,0.2,0.2,0.3c0.1,0.3,0.1,0.5,0,0.8c-0.1,0.1-0.2,0.2-0.2,0.3l-0.3,0.2l-0.4,0.1l-0.4-0.1c-0.1-0.1-0.2-0.1-0.3-0.2
					c0,0-0.1-0.1-0.1-0.1c-0.1-0.1-0.1-0.1-0.2-0.2c-0.1-0.1-0.2-0.3-0.4-0.4c-0.2-0.2-0.4-0.4-0.6-0.6c-0.8-0.7-1.5-1.5-2.3-2.2
					c-1.5-1.4-3.1-2.7-4.7-4c-3.7-2.9-7.6-5.5-11.7-7.8l-0.3-0.3c-0.2-0.4-0.2-0.4-0.2-0.8l0.1-0.4l0.3-0.3l0.4-0.2l0.4,0
					C265.7,512.7,265.8,512.8,266,512.8z M266.2,524.5c0.3-0.4,0.2-0.9-0.2-1.2l-1.4-1c-0.4-0.3-0.9-0.2-1.2,0.2l-3,4.1
					c-0.3,0.4-0.2,0.9,0.2,1.2l1.4,1c0.4,0.3,0.9,0.2,1.2-0.2L266.2,524.5z M205.6,517c0.1,0,0.1,0,0.2,0.1c0.1,0.1,0.3,0.2,0.4,0.3
					c0.3,0.3,0.3,0.7,0.1,1.1c0,0.1-0.1,0.1-0.1,0.2c0,0.1-0.1,0.1-0.2,0.2c-0.2,0.1-0.2,0.1-0.4,0.2c-0.3,0.1-0.6,0.2-0.9,0.2
					c-2.2,0.6-4.3,1.3-6.5,2.1c-2,0.7-3.9,1.6-5.8,2.5l-0.1,0c-0.1,0-0.1,0.1-0.2,0.1c-0.2,0-0.3,0-0.5,0c-0.2,0-0.3-0.1-0.4-0.2
					c-0.1,0-0.1-0.1-0.2-0.2c-0.2-0.3-0.3-0.7-0.1-1.1c0.1-0.1,0.2-0.3,0.3-0.4c0.1,0,0.1-0.1,0.2-0.1c0.2-0.1,0.5-0.2,0.7-0.3
					c2.1-1,4.3-1.9,6.4-2.6c2.1-0.8,4.3-1.4,6.5-2l0,0l0.2,0C205.4,517,205.5,517,205.6,517z M237.3,516c2,0.4,3.9,0.8,5.8,1.3
					c2,0.6,4.1,1.2,6,1.9l0.1,0c0.1,0,0.1,0.1,0.2,0.1c0.1,0.1,0.2,0.2,0.3,0.3c0,0.1,0.1,0.1,0.1,0.2c0.1,0.4,0,0.8-0.3,1.1
					c-0.1,0.1-0.2,0.2-0.4,0.2c-0.1,0-0.3,0.1-0.5,0c-0.1,0-0.1,0-0.2-0.1c-0.3-0.1-0.5-0.2-0.8-0.3c-1.7-0.6-3.5-1.2-5.2-1.6
					c-1.8-0.5-3.6-0.9-5.4-1.3l-0.2,0c-0.1,0-0.1,0-0.2-0.1c-0.1-0.1-0.3-0.2-0.4-0.3c0-0.1-0.1-0.1-0.1-0.2s-0.1-0.1-0.1-0.2
					c-0.1-0.4,0-0.8,0.3-1c0.1-0.1,0.3-0.2,0.4-0.2c0.1,0,0.2,0,0.2,0C237.2,516,237.2,516,237.3,516z M223.7,514.7
					c2,0,3.9,0.1,5.8,0.2c0.5,0,1.1,0.1,1.6,0.2c0.2,0,0.3,0,0.5,0.1c0.2,0,0.3,0,0.5,0.1c0.1,0,0.1,0.1,0.2,0.1
					c0.3,0.2,0.5,0.6,0.5,1c0,0.1,0,0.2-0.1,0.2c-0.1,0.1-0.1,0.3-0.2,0.4c-0.2,0.2-0.4,0.3-0.6,0.3c-0.1,0-0.2,0-0.2,0
					c-0.3,0-0.6-0.1-0.9-0.1c-2.2-0.2-4.4-0.3-6.6-0.4c-2.2,0-4.3,0.1-6.5,0.2l-0.1,0c-0.1,0-0.2,0-0.2,0c-0.2,0-0.3-0.1-0.4-0.2
					c-0.1,0-0.1-0.1-0.2-0.1c-0.3-0.3-0.4-0.7-0.2-1.1c0.1-0.1,0.1-0.3,0.3-0.4c0.1-0.1,0.2-0.2,0.4-0.2c0.1,0,0.1,0,0.2,0
					c0.3,0,0.5,0,0.8-0.1c0.8-0.1,1.5-0.1,2.3-0.1c0.8,0,1.5,0,2.3-0.1C223.1,514.7,223.4,514.7,223.7,514.7z M184.2,502.4
					c-0.2-0.4-0.8-0.5-1.2-0.3l-1.4,0.9c-0.4,0.2-0.5,0.8-0.3,1.2l2.7,4.4c0.2,0.4,0.8,0.5,1.2,0.3l1.4-0.9c0.4-0.2,0.5-0.8,0.3-1.2
					L184.2,502.4z M222.7,501.9c0.1,0.1,0.2,0.1,0.3,0.2c0.3,0.3,0.2,0.4,0.3,0.7l-0.1,0.4l-0.2,0.3l-0.3,0.2
					c-0.1,0-0.3,0.1-0.4,0.1c-0.1,0-0.1,0-0.2,0c-0.1,0-0.2,0-0.3,0c-0.2,0-0.3,0-0.5,0c-0.3,0-0.7,0-1,0c-1,0-2.1,0.1-3.1,0.2
					c-2.3,0.2-4.6,0.4-6.9,0.8c-2.3,0.4-4.5,0.8-6.8,1.3c-1.1,0.3-2.2,0.5-3.2,0.8l0,0c-0.4,0-0.4,0-0.8-0.1l-0.3-0.3l-0.2-0.4
					l0-0.4l0.1-0.4l0.3-0.3c0.1-0.1,0.2-0.1,0.4-0.2c0,0,0,0,0,0c0.1,0,0.2,0,0.3-0.1c0.2,0,0.3-0.1,0.5-0.1
					c0.4-0.1,0.8-0.2,1.3-0.3c1.4-0.3,2.7-0.7,4.1-0.9c3.5-0.7,7.1-1.2,10.7-1.5c1.8-0.1,3.7-0.2,5.5-0.3l0.2,0
					C222.4,501.8,222.6,501.9,222.7,501.9z M263.5,487.6l-4.2-5.7c-0.3-0.4-0.8-0.7-1.3-0.7l-17.4-2.6c-0.5-0.1-1,0.1-1.5,0.3
					l-5.6,4.2c-0.4,0.3-0.7,0.8-0.7,1.3c-0.1,0.5,0,0.9,0.3,1.4l11.5,16.5c0.3,0.4,0.8,0.8,1.4,0.9c0.5,0.1,1.1-0.1,1.6-0.5
					l15.8-12.4c0.4-0.3,0.6-0.8,0.7-1.2C263.9,488.5,263.8,488,263.5,487.6z M251.6,488.1l4.7,0.7l-8.9,10.9L251.6,488.1z
					 M250.6,488l-4.3,11.7l-0.6-12.5L250.6,488z M244.7,487.1l0.6,12.3l-5.3-13L244.7,487.1z M257.5,489l3.4,0.5l-11.1,8.7
					L257.5,489z M243.4,497.3l-8-11.6l3.4,0.5L243.4,497.3z M257.8,488.1l-2.2-3l2.5-1.5l3.8,5.2L257.8,488.1L257.8,488.1z
					 M251.9,487.2l2.7-1.6l1.7,2.3L251.9,487.2z M250.5,487l-4.3-0.6l2.4-1.4L250.5,487z M249.4,484.3l3-1.8l1.7,2.3l-2.8,1.7
					L249.4,484.3z M242.5,483.7l2.1,2.3l-4.4-0.7L242.5,483.7z M245.4,485.6l-2.1-2.4l2.3-1.7l2.3,2.6L245.4,485.6z M239.9,480.8
					l1.9,2.2l-3,2.2l-4.1-0.6L239.9,480.8z M253.6,482.5l3.4,0.5l-2.1,1.3L253.6,482.5z M248.7,483.6l-1.9-2.1l4.3,0.6L248.7,483.6z
					 M242.6,482.4l-1.6-1.8l3.4,0.5L242.6,482.4z"/>
			</g>
		</g>
	</g>
</g>
</svg>
