<?xml version="1.0" encoding="utf-8"?>
<!-- Generator: Adobe Illustrator 20.1.0, SVG Export Plug-In . SVG Version: 6.00 Build 0)  -->
<svg version="1.1" id="Layer_1" xmlns="http://www.w3.org/2000/svg" xmlns:xlink="http://www.w3.org/1999/xlink" x="0px" y="0px"
	 viewBox="0 0 225 225" enable-background="new 0 0 225 225" xml:space="preserve">
<g>
	<g transform="matrix(1,0,0,1,-339.106,-120.082)">
		<path fill="#0581FF" d="M454.4,333.2c0.2,0.3,0.2,0.4,0.3,0.8l-0.1,0.4c-0.1,0.1-0.1,0.3-0.2,0.4c-0.2,0.2-0.4,0.3-0.8,0.3
			c-0.1,0-0.2,0-0.3,0c-0.2,0-0.4,0-0.6,0c-1,0-1.9,0-2.9-0.1l-0.3,0c-0.2,0-0.4,0-0.6-0.1c-0.1-0.1-0.2-0.2-0.3-0.2l-0.2-0.4
			c-0.1-0.4-0.1-0.4,0-0.8l0.2-0.3c0.1-0.1,0.2-0.2,0.4-0.2c0.2-0.1,0.4-0.1,0.6-0.1c0.2,0,0.4,0,0.6,0c0.3,0,0.6,0,0.9,0
			c0.8,0,1.7,0,2.5,0l0.4,0.1C454.1,333.1,454.2,333.1,454.4,333.2z M469,331.7c0.3,0.2,0.5,0.2,0.7,0.5c0.1,0.1,0.1,0.3,0.1,0.4
			l0,0.4c-0.2,0.3-0.2,0.5-0.5,0.7c-0.2,0.1-0.5,0.2-0.8,0.2c-0.4,0.1-0.8,0.1-1.2,0.2c-2.3,0.3-4.6,0.6-6.9,0.7l-0.2,0l-0.4-0.1
			l-0.4-0.2l-0.3-0.3l-0.1-0.4l0.1-0.4l0.2-0.4l0.3-0.3l0.4-0.1c0.4,0,0.7-0.1,1.1-0.1c0.3,0,0.6-0.1,0.9-0.1
			c1.1-0.1,2.3-0.2,3.4-0.4c1-0.1,2-0.3,3-0.4l0.1,0C468.7,331.7,468.8,331.7,469,331.7z M488.5,332.1c0.2,0.5,0.7,0.7,1.2,0.5
			l1.7-0.6c0.5-0.2,0.7-0.7,0.5-1.2l-1.9-5.1c-0.2-0.5-0.7-0.7-1.2-0.5l-1.7,0.6c-0.5,0.2-0.7,0.7-0.5,1.2L488.5,332.1z
			 M410.1,322.8c0.3,0.1,0.6,0.3,0.8,0.4c0.3,0.1,0.5,0.3,0.8,0.4c1,0.5,2,0.9,3,1.3c1,0.4,2,0.8,3,1.2l0.2,0.1
			c0.3,0.2,0.4,0.2,0.6,0.6c0.1,0.1,0.1,0.3,0.1,0.4l-0.1,0.4l-0.2,0.4l-0.3,0.2c-0.1,0-0.3,0.1-0.4,0.1c-0.3,0-0.4-0.1-0.6-0.2
			c-0.1,0-0.2-0.1-0.3-0.1c-0.5-0.2-0.9-0.4-1.4-0.6c-2.1-0.8-4.1-1.8-6.1-2.8l0,0l-0.3-0.3l-0.2-0.4c-0.1-0.4-0.1-0.4,0.1-0.8
			l0.3-0.3l0.4-0.2l0.4-0.1C409.8,322.8,409.9,322.8,410.1,322.8z M503.5,319.4l0.4,0.2l0.3,0.3c0.1,0.4,0.1,0.4,0.1,0.8l-0.2,0.4
			c-0.1,0.1-0.2,0.2-0.3,0.3c0,0-0.5,0.3-0.5,0.3c-0.3,0.2-0.5,0.3-0.8,0.5c-0.8,0.4-1.6,0.9-2.4,1.3l-0.1,0.1l-0.4,0.1l-0.4,0
			c-0.4-0.2-0.4-0.2-0.6-0.5l-0.1-0.4l0-0.4l0.2-0.4c0.1-0.1,0.2-0.2,0.3-0.3c0,0,0.1-0.1,0.1-0.1c0.1,0,0.2-0.1,0.3-0.1
			c0.2-0.1,0.3-0.2,0.5-0.3c0.3-0.1,0.5-0.3,0.8-0.4c0.5-0.3,1-0.6,1.5-0.9l0.3-0.1l0.2-0.1l0.4-0.1
			C503.2,319.4,503.4,319.4,503.5,319.4z M496.6,308.4c0.2,0.1,0.3,0.1,0.5,0.2c0.3,0.2,0.4,0.6,0.4,0.9c0,0.1,0,0.2-0.1,0.3
			c0,0.1-0.1,0.2-0.1,0.2c-0.1,0.2-0.2,0.2-0.4,0.4c-0.3,0.2-0.5,0.3-0.8,0.5c-1.1,0.6-2.2,1.2-3.3,1.8c-2.2,1.1-4.4,2.1-6.7,3.1
			c-8.9,3.6-18.4,5.7-27.9,6.3c-4.5,0.3-8.9,0.2-13.4-0.3c-2.3-0.2-4.6-0.5-6.8-1l-0.3,0c-0.1,0-0.2,0-0.4-0.1
			c-0.2-0.1-0.3-0.2-0.4-0.3c-0.1-0.1-0.1-0.1-0.1-0.2c-0.1-0.3-0.1-0.7,0.1-1c0-0.1,0.1-0.1,0.2-0.2c0.1-0.1,0.1-0.1,0.2-0.2
			c0.2-0.1,0.3-0.1,0.5-0.2c0.1,0,0.2,0,0.3,0c0.3,0.1,0.6,0.1,0.9,0.2c2.2,0.4,4.4,0.7,6.7,0.9c4.3,0.4,8.7,0.5,13.1,0.2
			c9.4-0.6,18.7-2.8,27.5-6.4c2.2-0.9,4.4-1.9,6.5-3c1.1-0.6,2.2-1.2,3.2-1.8l0.1-0.1c0.2-0.1,0.2-0.1,0.5-0.1
			C496.4,308.4,496.5,308.4,496.6,308.4z M400.7,317.6c0.3,0.2,0.6,0.4,0.9,0.5c0.3,0.2,0.5,0.3,0.8,0.5c0.7,0.4,1.3,0.8,2,1.2l0,0
			l0.3,0.3l0.2,0.4l0,0.4l-0.1,0.4c-0.3,0.3-0.3,0.3-0.7,0.5l-0.4,0c-0.1,0-0.3-0.1-0.4-0.1c0,0,0,0,0,0c-0.1-0.1-0.2-0.1-0.3-0.2
			c-0.1-0.1-0.2-0.1-0.3-0.2c-0.3-0.2-0.5-0.3-0.8-0.5c-0.8-0.5-1.5-0.9-2.3-1.4l-0.1-0.1l-0.3-0.3l-0.2-0.4c0-0.4,0-0.4,0.1-0.8
			l0.3-0.3l0.4-0.2l0.4,0C400.4,317.5,400.6,317.5,400.7,317.6z M417.3,312l0.2,0.1c0.2,0.1,0.5,0.2,0.7,0.3
			c1.9,0.8,3.7,1.6,5.7,2.3c1.8,0.7,3.7,1.3,5.6,1.8l0,0c0.1,0,0.2,0.1,0.2,0.1c0.2,0.1,0.3,0.2,0.4,0.4c0.2,0.3,0.2,0.7,0.1,1
			c0,0.1-0.1,0.2-0.1,0.2c-0.1,0.1-0.1,0.1-0.2,0.2c-0.1,0.1-0.1,0.1-0.2,0.1c-0.2,0.1-0.3,0.1-0.5,0.1c-0.1,0-0.2,0-0.3,0
			c-0.3-0.1-0.7-0.2-1-0.3c-1.9-0.6-3.8-1.2-5.7-2c-1.9-0.7-3.7-1.5-5.5-2.3l-0.1,0c-0.2-0.1-0.3-0.1-0.4-0.3
			c-0.1-0.1-0.1-0.1-0.1-0.2c0-0.1-0.1-0.2-0.1-0.3c-0.1-0.3,0.1-0.7,0.3-1c0.1-0.1,0.1-0.1,0.2-0.2c0.2-0.1,0.3-0.1,0.5-0.1
			C417.2,312,417.2,312,417.3,312z M516.2,310.8c0.3,0.3,0.3,0.3,0.5,0.6l0,0.4l-0.1,0.4l-0.3,0.3c-2.3,1.8-4.6,3.6-7,5.2l0,0
			L509,318l-0.4,0c-0.3-0.1-0.5-0.1-0.7-0.5c-0.1-0.1-0.1-0.3-0.2-0.4l0-0.4c0.1-0.1,0.1-0.3,0.2-0.4c0.1-0.2,0.4-0.4,0.6-0.5
			c0.2-0.1,0.3-0.2,0.5-0.3c0.2-0.2,0.5-0.3,0.7-0.5c1-0.7,1.9-1.4,2.8-2.1c0.9-0.7,1.7-1.3,2.5-2l0,0c0.4-0.2,0.4-0.2,0.8-0.2
			C516,310.7,516.1,310.8,516.2,310.8z M523.6,293.3C523.6,293.3,523.6,293.3,523.6,293.3c0.2,0,0.2,0,0.3,0.1l1.4,0.7
			c0.1-0.1,0.2-0.1,0.2-0.1c0.1-0.1,0.1-0.1,0.2-0.1c0.3-0.2,0.6-0.4,1-0.5c0.3-0.2,0.7-0.3,1-0.4l0,0l0.3-1.5l0-0.1
			c0,0,0-0.1,0-0.1c0-0.1,0.1-0.1,0.1-0.2c0.1-0.2,0.2-0.3,0.4-0.3c0.1,0,0.1,0,0.2-0.1c0.1,0,0.2-0.1,0.4-0.1
			c0.3-0.1,0.7-0.1,1-0.2c0.7-0.1,1.4-0.1,2.1-0.1c0.1,0,0.2,0,0.4,0c0.1,0,0.2,0,0.3,0c0.2,0.1,0.4,0.2,0.5,0.4
			c0,0,0.1,0.1,0.1,0.2c0,0,0,0.1,0,0.1l0.5,1.5c0.1,0,0.2,0,0.3,0.1c0.1,0,0.1,0,0.2,0.1c0.4,0.1,0.7,0.2,1,0.3s0.7,0.3,1,0.4l0,0
			l1.3-0.9l0.1,0c0,0,0.1,0,0.1,0c0.1,0,0.1,0,0.2-0.1c0.2,0,0.4,0,0.5,0c0.1,0,0.1,0,0.2,0.1c0.1,0.1,0.2,0.1,0.3,0.2
			c0.3,0.2,0.5,0.4,0.8,0.6c0.6,0.4,1.1,0.9,1.6,1.4c0.1,0.1,0.2,0.2,0.2,0.3c0.1,0.1,0.1,0.2,0.2,0.2c0.1,0.2,0.1,0.4,0.1,0.6
			c0,0.1,0,0.1,0,0.2c0,0,0,0.1,0,0.1l-0.7,1.4c0.1,0.1,0.1,0.2,0.1,0.2c0.1,0.1,0.1,0.1,0.1,0.2c0.2,0.3,0.4,0.6,0.5,1
			c0.2,0.3,0.3,0.7,0.4,1l0,0l1.5,0.3l0.1,0c0.1,0,0.1,0,0.2,0.1c0.2,0.1,0.3,0.2,0.4,0.4c0,0.1,0.1,0.1,0.1,0.2c0,0,0,0.1,0,0.1
			c0,0.1,0.1,0.2,0.1,0.4c0.1,0.3,0.1,0.7,0.2,1c0.1,0.7,0.1,1.4,0.1,2.1c0,0.1,0,0.2,0,0.4c0,0.1,0,0.2,0,0.3
			c-0.1,0.2-0.2,0.4-0.4,0.5c0,0-0.1,0.1-0.2,0.1c0,0-0.1,0-0.1,0l-1.5,0.5c0,0.1,0,0.2-0.1,0.3c0,0.1,0,0.1-0.1,0.2
			c-0.1,0.4-0.2,0.7-0.3,1c-0.1,0.3-0.3,0.7-0.4,1l0,0l0.9,1.3l0,0.1c0,0.1,0,0.1,0.1,0.2c0.1,0.2,0.1,0.4,0,0.5
			c0,0.1,0,0.1-0.1,0.2c0,0,0,0.1,0,0.1c-0.1,0.1-0.1,0.2-0.2,0.3c-0.3,0.5-0.7,0.9-1.1,1.4c-0.4,0.4-0.7,0.8-1.1,1.1l-0.1,0.1
			c-0.1,0.1-0.2,0.1-0.2,0.2c-0.2,0.1-0.4,0.1-0.6,0.1c-0.1,0-0.1,0-0.2,0c0,0-0.1,0-0.1,0l-1.4-0.7c-0.1,0.1-0.2,0.1-0.2,0.1
			c-0.1,0.1-0.1,0.1-0.2,0.1c-0.3,0.2-0.6,0.4-1,0.5c-0.3,0.2-0.7,0.3-1,0.4l0,0l-0.3,1.5l0,0.1c0,0,0,0.1,0,0.1
			c0,0.1-0.1,0.1-0.1,0.2c-0.1,0.2-0.2,0.3-0.4,0.3c-0.1,0-0.1,0-0.2,0.1c-0.1,0-0.2,0.1-0.4,0.1c-0.3,0.1-0.7,0.1-1,0.2
			c-0.7,0.1-1.4,0.1-2.1,0.1c-0.1,0-0.2,0-0.4,0c-0.1,0-0.2,0-0.3,0c-0.2-0.1-0.4-0.2-0.5-0.4c0,0-0.1-0.1-0.1-0.2c0,0,0-0.1,0-0.1
			l-0.5-1.5c-0.1,0-0.2,0-0.3-0.1c-0.1,0-0.1,0-0.2-0.1c-0.4-0.1-0.7-0.2-1-0.3c-0.3-0.1-0.7-0.3-1-0.4l0,0l-1.3,0.9l-0.1,0
			c0,0-0.1,0-0.1,0c-0.1,0-0.1,0-0.2,0.1c-0.2,0-0.4,0-0.5,0c-0.1,0-0.1,0-0.2-0.1c-0.1-0.1-0.2-0.1-0.3-0.2
			c-0.3-0.2-0.5-0.4-0.8-0.6c-0.6-0.4-1.1-0.9-1.5-1.4c-0.1-0.1-0.2-0.2-0.3-0.3c-0.1-0.1-0.1-0.2-0.2-0.2c-0.1-0.2-0.1-0.4-0.1-0.6
			c0-0.1,0-0.1,0-0.2c0,0,0-0.1,0-0.1l0.7-1.4c-0.1-0.1-0.1-0.2-0.1-0.2c-0.1-0.1-0.1-0.1-0.1-0.2c-0.2-0.3-0.4-0.6-0.5-1
			c-0.2-0.3-0.3-0.7-0.4-1l0,0l-1.5-0.3l-0.1,0c0,0-0.1,0-0.1,0c-0.1,0-0.1-0.1-0.2-0.1c-0.2-0.1-0.3-0.2-0.3-0.4
			c0-0.1,0-0.1-0.1-0.2c0-0.1-0.1-0.2-0.1-0.4c-0.1-0.3-0.1-0.7-0.2-1c-0.1-0.7-0.1-1.4-0.1-2.1c0-0.1,0-0.2,0-0.4
			c0-0.1,0-0.2,0-0.3c0.1-0.2,0.2-0.4,0.4-0.5c0,0,0.1-0.1,0.2-0.1c0,0,0.1,0,0.1,0l1.5-0.5c0-0.1,0-0.2,0.1-0.3
			c0-0.1,0-0.1,0.1-0.2c0.1-0.4,0.2-0.7,0.3-1c0.1-0.3,0.3-0.7,0.4-1l0,0l-0.9-1.3l0-0.1c0,0,0-0.1,0-0.1c0-0.1,0-0.1-0.1-0.2
			c0-0.2,0-0.4,0-0.5c0-0.1,0-0.1,0.1-0.2c0.1-0.1,0.1-0.2,0.2-0.3c0.3-0.5,0.7-0.9,1.1-1.4c0.4-0.4,0.7-0.8,1.1-1.1l0.1-0.1
			c0.1-0.1,0.2-0.1,0.2-0.2c0.1-0.1,0.2-0.1,0.3-0.1C523.4,293.3,523.4,293.3,523.6,293.3C523.5,293.3,523.5,293.3,523.6,293.3z
			 M530.7,292.2c-0.3,0-0.6,0.1-1,0.1l0,0l-0.3,1.4l0,0.1c0,0.1,0,0.1-0.1,0.2c-0.1,0.2-0.2,0.3-0.4,0.4c-0.1,0-0.1,0-0.2,0.1
			c-0.1,0-0.2,0.1-0.3,0.1c-0.5,0.2-0.9,0.4-1.4,0.6c-0.4,0.2-0.8,0.5-1.2,0.8l-0.1,0.1c-0.1,0-0.1,0-0.2,0.1
			c-0.2,0.1-0.4,0.1-0.5,0c-0.1,0-0.1,0-0.2-0.1l-1.3-0.6c-0.5,0.5-1,1-1.4,1.6l0,0l0.8,1.2l0,0.1c0,0.1,0,0.1,0.1,0.2
			c0.1,0.2,0.1,0.4,0,0.5c0,0.1,0,0.1-0.1,0.2c0,0.1-0.1,0.2-0.1,0.3c-0.2,0.4-0.4,0.9-0.5,1.3c-0.1,0.4-0.2,0.8-0.3,1.3l0,0.1
			l0,0.1l0,0.1c0,0.1,0,0.1-0.1,0.2c-0.1,0.2-0.2,0.3-0.4,0.4c-0.1,0-0.1,0-0.2,0.1l-1.4,0.5c0,0.7,0,1.4,0.2,2.2l0,0l1.4,0.3l0.1,0
			c0.1,0,0.1,0,0.2,0.1c0.2,0.1,0.3,0.2,0.4,0.4c0,0.1,0,0.1,0.1,0.2c0,0.1,0.1,0.2,0.1,0.3c0.2,0.5,0.4,0.9,0.6,1.4
			c0.2,0.4,0.5,0.8,0.8,1.2l0,0.1c0,0.1,0,0.1,0.1,0.2c0.1,0.2,0.1,0.4,0,0.5c0,0.1,0,0.1-0.1,0.2l-0.6,1.3c0.5,0.5,1,1,1.6,1.4l0,0
			l1.2-0.8l0.1,0c0.1,0,0.1,0,0.2-0.1c0.2-0.1,0.4-0.1,0.5,0c0.1,0,0.1,0,0.2,0.1c0.1,0,0.2,0.1,0.3,0.1c0.5,0.2,0.9,0.4,1.4,0.6
			c0.5,0.1,0.9,0.2,1.4,0.3l0.1,0c0.1,0,0.1,0,0.2,0.1c0.2,0.1,0.3,0.2,0.4,0.4c0,0.1,0,0.1,0.1,0.2l0.5,1.4c0.7,0,1.4,0,2.2-0.2
			l0,0l0.3-1.4l0-0.1c0-0.1,0-0.1,0.1-0.2c0.1-0.2,0.2-0.3,0.4-0.4c0.1,0,0.1,0,0.2-0.1c0.1,0,0.2-0.1,0.3-0.1
			c0.5-0.2,0.9-0.4,1.4-0.6c0.4-0.2,0.8-0.5,1.2-0.8l0.1,0c0.1,0,0.1,0,0.2-0.1c0.2-0.1,0.4-0.1,0.5,0c0.1,0,0.1,0,0.2,0.1l1.3,0.6
			c0.5-0.5,1-1.1,1.4-1.6l0,0l-0.8-1.2l0-0.1c0-0.1,0-0.1-0.1-0.2c-0.1-0.2-0.1-0.4,0-0.5c0-0.1,0-0.1,0.1-0.2
			c0-0.1,0.1-0.2,0.1-0.3c0.2-0.4,0.4-0.9,0.5-1.3c0.1-0.4,0.2-0.8,0.3-1.3l0-0.1l0-0.1l0-0.1c0-0.1,0-0.1,0.1-0.2
			c0.1-0.2,0.2-0.3,0.4-0.4c0.1,0,0.1,0,0.2-0.1l1.4-0.5c0-0.7,0-1.4-0.1-2.2l0,0l-1.4-0.3l-0.1,0c-0.1,0-0.1,0-0.2-0.1
			c-0.2-0.1-0.3-0.2-0.4-0.4c0-0.1,0-0.1-0.1-0.2c0-0.1-0.1-0.2-0.1-0.3c-0.2-0.5-0.4-0.9-0.6-1.4c-0.2-0.4-0.5-0.8-0.8-1.2
			l-0.1-0.1c0-0.1,0-0.1-0.1-0.2c-0.1-0.2-0.1-0.4,0-0.5c0-0.1,0-0.1,0.1-0.2l0.6-1.3c-0.5-0.5-1-1-1.6-1.4l0,0l-1.2,0.8l-0.1,0
			c-0.1,0-0.1,0-0.2,0.1c-0.2,0.1-0.4,0.1-0.5,0c-0.1,0-0.1,0-0.2-0.1c-0.1,0-0.2-0.1-0.3-0.1c-0.5-0.2-0.9-0.4-1.4-0.6
			c-0.5-0.1-0.9-0.2-1.4-0.3l-0.1,0c-0.1,0-0.1,0-0.2-0.1c-0.2-0.1-0.3-0.2-0.4-0.4c0-0.1,0-0.1-0.1-0.2l-0.5-1.4c-0.3,0-0.7,0-1,0
			C530.8,292.2,530.8,292.2,530.7,292.2z M531.2,296.7c0.3,0,0.7,0,1,0c0.7,0.1,1.3,0.2,2,0.4c0.8,0.3,1.5,0.7,2.1,1.3
			c0.6,0.5,1.1,1.1,1.5,1.8c0.3,0.6,0.6,1.2,0.8,1.8c0.2,0.7,0.3,1.5,0.2,2.2c0,0.7-0.2,1.4-0.5,2.1c-0.3,0.8-0.8,1.5-1.3,2.2
			c-0.6,0.7-1.3,1.2-2.1,1.6c-0.8,0.4-1.7,0.6-2.6,0.7c-0.9,0.1-1.8,0-2.7-0.3c-0.8-0.3-1.6-0.7-2.3-1.3c-0.7-0.5-1.2-1.2-1.6-1.9
			c-0.4-0.6-0.6-1.3-0.8-2c-0.2-0.7-0.2-1.5-0.1-2.2c0.1-0.7,0.2-1.3,0.5-1.9c0.3-0.7,0.7-1.4,1.2-1.9c0.5-0.6,1.2-1.2,1.9-1.6
			c0.6-0.3,1.2-0.6,1.9-0.7c0.3-0.1,0.6-0.1,1-0.2C531.1,296.7,531.1,296.7,531.2,296.7z M454.7,306.9c0.2,0.1,0.2,0.1,0.4,0.3
			c0.1,0.1,0.1,0.1,0.1,0.2c0.2,0.4,0.1,0.8-0.1,1.1c0,0.1-0.1,0.1-0.2,0.2c-0.1,0.1-0.3,0.2-0.4,0.2c-0.1,0-0.2,0-0.2,0
			c-0.3,0-0.6,0-1,0c-2.1,0-4.1-0.1-6.2-0.3c-2-0.2-4-0.4-6-0.7l0,0c-0.1,0-0.2,0-0.2-0.1c-0.2-0.1-0.3-0.2-0.4-0.3
			c-0.1-0.1-0.2-0.3-0.2-0.4c-0.1-0.4,0-0.8,0.3-1.1c0.1-0.1,0.1-0.1,0.2-0.1c0.1-0.1,0.3-0.1,0.5-0.1c0.1,0,0.2,0,0.2,0
			c0.3,0.1,0.6,0.1,0.9,0.1c1.9,0.3,3.9,0.5,5.9,0.7c2,0.1,4,0.2,6,0.2h0l0.2,0C454.5,306.9,454.6,306.9,454.7,306.9z M531.2,298.6
			c-0.2,0-0.5,0.1-0.7,0.1c-0.5,0.1-0.9,0.3-1.4,0.5c-0.9,0.5-1.7,1.3-2.2,2.3c-0.2,0.5-0.4,1-0.5,1.6c-0.1,0.6-0.1,1.2,0.1,1.8
			c0.1,0.5,0.3,1,0.6,1.5c0.3,0.5,0.7,1,1.2,1.4c0.5,0.4,1.1,0.7,1.7,0.9c0.6,0.2,1.3,0.3,2,0.2c0.7,0,1.3-0.2,1.9-0.5
			c0.6-0.3,1.1-0.7,1.5-1.2c0.4-0.5,0.8-1,1-1.6c0.2-0.5,0.3-1,0.4-1.6c0-0.6,0-1.2-0.2-1.8c-0.1-0.5-0.4-1-0.7-1.5
			c-0.6-0.9-1.5-1.6-2.5-2c-0.5-0.2-0.9-0.3-1.4-0.3c-0.2,0-0.5,0-0.7,0C531.2,298.6,531.2,298.6,531.2,298.6z M469.5,305.1
			c0.1,0,0.2,0,0.2,0.1c0.1,0.1,0.3,0.2,0.4,0.3c0.1,0.1,0.1,0.1,0.1,0.2c0,0.1,0.1,0.2,0.1,0.2c0.1,0.4-0.1,0.8-0.4,1.1
			c-0.2,0.1-0.2,0.1-0.4,0.2c-0.3,0.1-0.6,0.1-0.9,0.2c-1.2,0.3-2.4,0.5-3.6,0.7c-1.2,0.2-2.5,0.4-3.7,0.5l-0.2,0
			c-0.2,0-0.3,0-0.5,0c-0.2,0-0.3-0.1-0.5-0.2c-0.1-0.1-0.3-0.2-0.3-0.3c-0.2-0.4-0.2-0.8,0-1.2c0-0.1,0.1-0.1,0.2-0.2
			c0.1-0.1,0.3-0.2,0.4-0.3c0.1,0,0.2,0,0.2-0.1c0.3,0,0.6-0.1,0.9-0.1c1.2-0.1,2.4-0.3,3.6-0.5c1.3-0.2,2.6-0.5,4-0.8l0,0l0.2,0
			C469.4,305.1,469.5,305.1,469.5,305.1z M381.2,305.1c-0.4,0.3-0.4,0.9,0,1.3l1.3,1.3c0.3,0.4,0.9,0.4,1.3,0l3.9-3.8
			c0.4-0.3,0.4-0.9,0-1.3l-1.3-1.3c-0.3-0.4-0.9-0.4-1.3,0L381.2,305.1z M428.8,302.6l0.2,0.1c0.3,0.1,0.5,0.2,0.8,0.3
			c1.1,0.4,2.2,0.7,3.4,1.1c1.3,0.4,2.7,0.7,4,1l0.2,0.1c0.1,0,0.1,0.1,0.2,0.1c0.1,0.1,0.2,0.2,0.3,0.4c0,0.1,0.1,0.2,0.1,0.2
			c0.1,0.4-0.1,0.8-0.4,1.1c-0.1,0.1-0.1,0.1-0.2,0.1c-0.1,0.1-0.3,0.1-0.5,0.1c-0.1,0-0.2,0-0.2,0c-0.3-0.1-0.6-0.1-0.8-0.2
			c-1.8-0.4-3.5-0.9-5.3-1.5c-0.5-0.2-1-0.3-1.5-0.5c-0.2-0.1-0.4-0.1-0.6-0.2c-0.1,0-0.1,0-0.2-0.1c-0.2-0.1-0.3-0.1-0.4-0.3
			c-0.1-0.1-0.1-0.1-0.1-0.2c-0.2-0.4-0.2-0.8,0-1.2c0-0.1,0.1-0.1,0.2-0.2c0.1-0.1,0.3-0.2,0.4-0.3c0.1,0,0.2,0,0.2-0.1
			C428.6,302.6,428.7,302.6,428.8,302.6z M485.9,299.3c0.2,0.1,0.3,0.1,0.4,0.2c0.1,0,0.1,0.1,0.2,0.2c0.3,0.3,0.3,0.8,0.1,1.1
			c0,0.1-0.1,0.1-0.1,0.2c-0.1,0.2-0.2,0.2-0.4,0.3c-0.3,0.1-0.5,0.3-0.8,0.4c-1.9,0.9-3.8,1.7-5.8,2.5c-1.8,0.7-3.7,1.3-5.6,1.9
			l-0.1,0c-0.1,0-0.2,0-0.2,0c-0.2,0-0.3,0-0.5-0.1c-0.2-0.1-0.3-0.2-0.4-0.3c-0.3-0.3-0.4-0.8-0.2-1.1c0-0.1,0.1-0.1,0.1-0.2
			c0.1-0.1,0.2-0.2,0.4-0.3c0.1,0,0.1-0.1,0.2-0.1c0.3-0.1,0.5-0.2,0.8-0.2c1.8-0.6,3.6-1.2,5.4-1.9c2-0.8,3.9-1.6,5.8-2.6l0.2-0.1
			l0.2,0C485.7,299.3,485.8,299.3,485.9,299.3z M411.6,293.6c0.2,0.1,0.2,0.1,0.4,0.2c0.3,0.2,0.5,0.4,0.8,0.5
			c1.4,1,2.9,1.9,4.4,2.8c1.9,1.1,3.9,2.2,5.9,3.1l0.2,0.1c0.1,0.1,0.1,0.1,0.2,0.2c0.1,0.1,0.2,0.3,0.2,0.4c0,0.1,0,0.2,0,0.2
			c0,0.4-0.2,0.8-0.6,1c-0.1,0-0.1,0.1-0.2,0.1c-0.2,0-0.3,0-0.5,0c-0.1,0-0.2-0.1-0.2-0.1c-0.3-0.1-0.5-0.2-0.8-0.4
			c-1.8-0.9-3.6-1.8-5.3-2.8c-1.8-1-3.5-2.2-5.2-3.4l-0.1-0.1c-0.2-0.1-0.2-0.2-0.3-0.4c-0.2-0.4-0.2-0.8,0.1-1.2
			c0-0.1,0.1-0.1,0.2-0.2c0.1-0.1,0.1-0.1,0.2-0.1c0.2-0.1,0.3-0.1,0.5-0.1C411.4,293.6,411.5,293.6,411.6,293.6z M498.7,291.2
			c0.2,0.1,0.3,0.1,0.4,0.2c0.3,0.3,0.5,0.7,0.4,1.1c0,0.1,0,0.2-0.1,0.2c-0.1,0.2-0.2,0.2-0.3,0.4c-0.2,0.2-0.5,0.4-0.7,0.6
			c-1.1,0.8-2.1,1.6-3.2,2.4c-1,0.7-2.1,1.4-3.2,2.1l-0.1,0.1c-0.1,0-0.1,0.1-0.2,0.1c-0.2,0.1-0.3,0.1-0.5,0c-0.1,0-0.2,0-0.2-0.1
			c-0.4-0.1-0.7-0.5-0.7-0.9c0-0.2,0-0.3,0.1-0.5c0.1-0.2,0.1-0.3,0.3-0.4c0.1-0.1,0.1-0.1,0.2-0.1c0.3-0.2,0.6-0.3,0.8-0.5
			c1.1-0.7,2.2-1.4,3.2-2.2c1-0.7,2-1.4,2.9-2.2l0,0c0.2-0.1,0.2-0.2,0.4-0.2c0.1,0,0.2,0,0.2,0
			C498.5,291.2,498.6,291.2,498.7,291.2z M371.1,288.7c0.1,0.1,0.3,0.1,0.4,0.2c0.2,0.1,0.2,0.2,0.4,0.4c0.1,0.1,0.1,0.2,0.2,0.2
			c0.1,0.2,0.2,0.3,0.3,0.5c0.2,0.2,0.3,0.5,0.5,0.7c0.6,0.9,1.2,1.8,1.9,2.6c0.6,0.9,1.3,1.7,2,2.6l0.2,0.2
			c0.2,0.4,0.2,0.4,0.2,0.8l-0.1,0.4c-0.3,0.3-0.3,0.3-0.6,0.5l-0.4,0c-0.1,0-0.3-0.1-0.4-0.1c-0.2-0.1-0.3-0.3-0.5-0.5
			c-0.1-0.1-0.1-0.2-0.2-0.2c-0.3-0.4-0.6-0.8-0.9-1.2c-1.3-1.7-2.6-3.5-3.8-5.4l-0.1-0.1c-0.1-0.1-0.1-0.3-0.2-0.4
			c-0.1-0.4,0-0.5,0.2-0.8l0.3-0.3l0.4-0.2C370.8,288.7,371,288.7,371.1,288.7z M401.6,285.2c0.1,0,0.2,0,0.2,0.1
			c0.2,0.1,0.2,0.1,0.4,0.3c0.2,0.2,0.4,0.4,0.6,0.6c0.9,0.9,1.8,1.7,2.7,2.5c1,0.9,2,1.7,3,2.5l0.1,0.1c0.1,0.1,0.1,0.1,0.2,0.2
			c0.1,0.1,0.2,0.3,0.2,0.4c0,0.2,0,0.3,0,0.5c-0.1,0.4-0.4,0.7-0.8,0.8c-0.1,0-0.2,0-0.2,0c-0.2,0-0.3,0-0.5-0.1
			c-0.1,0-0.1-0.1-0.2-0.1c-0.2-0.2-0.4-0.3-0.6-0.5c-1-0.8-1.9-1.6-2.9-2.5c-1-0.9-1.9-1.8-2.9-2.8l-0.2-0.2
			c-0.1-0.2-0.2-0.2-0.3-0.4c0-0.1,0-0.2-0.1-0.2c0-0.4,0.2-0.8,0.5-1c0.2-0.1,0.2-0.1,0.5-0.2C401.4,285.2,401.5,285.2,401.6,285.2
			z M432.7,271.7C432.8,271.7,432.8,271.7,432.7,271.7c0.2,0,0.2,0,0.2,0.1c0.1,0.1,0.1,0.1,0.3,0.1c0.2,0.1,0.5,0.2,0.7,0.3
			c0,0,0.2,0.1,0.2,0.1c0.1,0.1,0.2,0.1,0.3,0.2c0.1,0.1,0.1,0.2,0.2,0.3c0,0.1,0,0.1,0.1,0.2l0.4,1.7c0.1,0.1,0.1,0.1,0.2,0.2
			c0.1,0.1,0.2,0.1,0.3,0.2c0.1,0.1,0.2,0.2,0.2,0.2l0,0l1.7,0.2l0.1,0c0.1,0,0.1,0,0.2,0c0.1,0,0.3,0.1,0.4,0.2
			c0.1,0.1,0.1,0.1,0.2,0.2c0.1,0.1,0.1,0.1,0.2,0.3c0.1,0.2,0.3,0.4,0.4,0.7c0,0,0.1,0.1,0.1,0.2c0,0.1,0.1,0.2,0.1,0.3
			c0,0.1,0,0.2,0,0.3c0,0.1,0,0.1-0.1,0.2l-0.6,1.6c0,0.1,0,0.2,0.1,0.3c0,0.1,0.1,0.2,0.1,0.3c0,0.1,0,0.2,0.1,0.3l0,0l1.3,1.2
			l0.1,0.1c0.1,0.1,0.1,0.1,0.2,0.2c0.1,0.1,0.1,0.3,0.1,0.4c0,0.1,0,0.1,0,0.2c0,0.2,0,0.2,0,0.3c0,0.3,0,0.5-0.1,0.8
			c0,0.1,0,0.2,0,0.2c0,0.1-0.1,0.2-0.1,0.3c-0.1,0.1-0.1,0.2-0.2,0.3c-0.1,0.1-0.1,0.1-0.1,0.1l-1.5,0.9c0,0.1-0.1,0.2-0.1,0.3
			c0,0.1-0.1,0.2-0.1,0.3c0,0.1-0.1,0.2-0.1,0.3l0,0l0.3,1.7l0,0.1c0,0.1,0,0.2,0,0.3c0,0.1-0.1,0.3-0.1,0.4c0,0.1,0,0.1-0.1,0.1
			c-0.1,0.1-0.1,0.1-0.2,0.2c-0.2,0.2-0.3,0.4-0.5,0.6c0,0-0.1,0.1-0.2,0.2c-0.1,0.1-0.2,0.1-0.3,0.2c-0.1,0-0.2,0.1-0.3,0.1
			c-0.1,0-0.1,0-0.2,0l-1.7-0.1c-0.1,0-0.1,0.1-0.2,0.1c-0.1,0.1-0.2,0.1-0.3,0.2c-0.1,0.1-0.2,0.1-0.3,0.2l0,0l-0.7,1.6l0,0.1
			c0,0.1-0.1,0.1-0.2,0.2c-0.1,0.1-0.2,0.2-0.3,0.2c-0.1,0-0.1,0-0.2,0.1c-0.1,0-0.1,0-0.3,0.1c-0.3,0.1-0.5,0.1-0.8,0.2
			c-0.1,0-0.2,0-0.2,0c-0.1,0-0.2,0-0.3,0c-0.1,0-0.2-0.1-0.3-0.1c-0.1,0-0.1-0.1-0.1-0.1l-1.3-1.1c-0.1,0-0.2,0-0.3,0
			c-0.1,0-0.2,0-0.3,0c-0.1,0-0.2,0-0.3,0l0,0l-1.5,0.9l-0.1,0c-0.1,0-0.1,0-0.2,0.1c-0.1,0-0.3,0.1-0.4,0c-0.1,0-0.2,0-0.2-0.1
			c-0.1-0.1-0.1-0.1-0.3-0.1c-0.2-0.1-0.5-0.2-0.7-0.3c0,0-0.2-0.1-0.2-0.1c-0.1-0.1-0.2-0.1-0.3-0.2c-0.1-0.1-0.1-0.2-0.2-0.3
			c0-0.1,0-0.1-0.1-0.2l-0.4-1.7c-0.1-0.1-0.1-0.1-0.2-0.2c-0.1-0.1-0.2-0.1-0.3-0.2c-0.1-0.1-0.2-0.2-0.2-0.2l0,0l-1.7-0.2l-0.1,0
			c-0.1,0-0.1,0-0.2,0c-0.1,0-0.3-0.1-0.4-0.2c-0.1-0.1-0.1-0.1-0.2-0.2c-0.1-0.1-0.1-0.1-0.2-0.3c-0.1-0.2-0.3-0.4-0.4-0.7
			c0,0-0.1-0.1-0.1-0.2c0-0.1-0.1-0.2-0.1-0.3c0-0.1,0-0.2,0-0.3c0-0.1,0-0.1,0.1-0.2l0.6-1.6c0-0.1,0-0.2-0.1-0.3
			c0-0.1-0.1-0.2-0.1-0.3c0-0.1,0-0.2-0.1-0.3l0,0l-1.3-1.2l-0.1-0.1c-0.1-0.1-0.1-0.1-0.2-0.2c-0.1-0.1-0.1-0.3-0.1-0.4
			c0-0.1,0-0.1,0-0.2c0-0.2,0-0.2,0-0.3c0-0.3,0-0.5,0.1-0.8c0-0.1,0-0.2,0-0.2c0-0.1,0.1-0.2,0.1-0.3c0.1-0.1,0.1-0.2,0.2-0.3
			c0.1-0.1,0.1-0.1,0.1-0.1l1.5-0.9c0-0.1,0.1-0.2,0.1-0.3c0-0.1,0.1-0.2,0.1-0.3c0-0.1,0.1-0.2,0.1-0.3l0,0l-0.3-1.7l0-0.1
			c0-0.1,0-0.1,0-0.2c0-0.1,0-0.3,0.1-0.4c0-0.1,0.1-0.1,0.1-0.2c0.1-0.1,0.1-0.1,0.2-0.2c0.2-0.2,0.3-0.4,0.5-0.6
			c0,0,0.1-0.1,0.2-0.2c0.1-0.1,0.2-0.1,0.3-0.2c0.1,0,0.2-0.1,0.3-0.1c0.1,0,0.1,0,0.2,0l1.7,0.1c0.1,0,0.1-0.1,0.2-0.1
			c0.1-0.1,0.2-0.1,0.3-0.2c0.1-0.1,0.2-0.1,0.3-0.2l0,0l0.7-1.6l0-0.1c0-0.1,0.1-0.1,0.2-0.2c0.1-0.1,0.2-0.2,0.3-0.2
			c0.1,0,0.1,0,0.2-0.1c0.1,0,0.1,0,0.3-0.1c0.3-0.1,0.5-0.1,0.8-0.2c0.1,0,0.2,0,0.2,0c0.1,0,0.2,0,0.3,0c0.1,0,0.2,0.1,0.3,0.1
			c0.1,0,0.1,0.1,0.1,0.1l1.3,1.1c0.1,0,0.2,0,0.3,0c0.1,0,0.2,0,0.3,0c0.1,0,0.2,0,0.3,0l0,0l1.5-0.9l0.1,0c0.1,0,0.2-0.1,0.2-0.1
			C432.5,271.7,432.6,271.7,432.7,271.7C432.7,271.7,432.7,271.7,432.7,271.7z M430.7,206.4c0-0.1,0-0.2,0-0.3
			c0.2-1.6,0.6-3.2,1.1-4.7c1.1-3.2,2.9-6,5.3-8.4c2.3-2.3,5.2-4.1,8.3-5.3c1.5-0.5,3.1-0.9,4.7-1.1c0.9-0.1,1.7-0.2,2.6-0.2
			c0.1,0,0.3,0,0.4,0c0.9,0,1.7,0.1,2.6,0.2c1.6,0.2,3.2,0.6,4.7,1.1c3.2,1.1,6,2.9,8.4,5.3c2.4,2.4,4.2,5.3,5.3,8.4
			c0.5,1.5,0.9,3.1,1.1,4.7c0,0.1,0,0.2,0,0.3c0.4,0,0.8,0.1,1.2,0.1l0.4,0c0.2,0,0.4,0,0.6,0.1c0.3,0.1,0.5,0.3,0.7,0.6
			c0,0.1,0.1,0.2,0.1,0.3c0,0,0,0.1,0,0.1v4c0,0,0,0.1,0,0.1c0,0.1,0,0.2-0.1,0.2c0,0.1-0.1,0.2-0.1,0.2c-0.1,0.1-0.1,0.2-0.2,0.3
			c0.1,0.3,0.1,0.5,0.2,0.8c0.1,0.7,0.2,1.4,0.2,2.1c0,0.7-0.1,1.3-0.4,1.9c-0.3,0.9-0.8,1.6-1.5,2.3c-0.3,0.3-0.6,0.5-0.9,0.7
			c0,0.9-0.1,1.8-0.2,2.7c-0.3,2-0.9,4-1.7,5.8c-1,2.1-2.3,4.1-3.9,5.9c0.8,0,1.7,0,2.5,0c0.8,0,1.5,0.1,2.3,0.2
			c1.4,0.2,2.8,0.6,4.1,1.1c1.9,0.8,3.7,2,5.1,3.4c0.9,0.9,1.8,1.9,2.4,3c0.7,1.2,1.3,2.4,1.7,3.7c0.3,1.1,0.5,2.2,0.6,3.3
			c0,0.3,0,0.6,0.1,0.9c0,0.1,0,0.2,0,0.3c0,0,0,0.1,0,0.1c0.6,8.1,0.1,16.3,0,24.5c0,0.2,0,0.4,0,0.7c0,0.5-0.1,0.9-0.2,1.4
			c-0.1,0.5-0.2,0.9-0.4,1.3c-0.1,0.3-0.2,0.6-0.4,0.9c-0.9,1.8-2.3,3.3-3.9,4.6c-0.2,0.2-0.5,0.4-0.7,0.6c-0.4,0.3-0.8,0.6-1.2,0.9
			c-0.7,0.5-1.3,0.9-2,1.3c-0.9,0.5-1.7,0.9-2.6,1.4c-1.1,0.5-2.2,0.9-3.3,1.3c-1.4,0.5-2.8,0.9-4.2,1.2c-1.9,0.5-3.8,0.8-5.7,1.1
			c-2.7,0.4-5.5,0.6-8.3,0.6c-0.8,0-1.5,0-2.3,0c-0.3,0-0.6,0-1,0c-0.1,0-0.3,0-0.4,0c-0.1,0-0.2-0.1-0.3-0.1
			c-0.1-0.1-0.2-0.1-0.3-0.2c-0.3-0.3-0.4-0.7-0.2-1.1c0-0.1,0.1-0.2,0.2-0.3c0.1-0.2,0.3-0.3,0.6-0.4c0.1,0,0.2,0,0.3,0
			c0.3,0,0.6,0,0.9,0c0.8,0,1.7,0,2.5,0c1.7,0,3.3-0.1,5-0.3c2-0.2,4-0.5,6-0.8c1.5-0.3,3-0.6,4.5-1.1c1.2-0.3,2.4-0.8,3.6-1.2
			c0.9-0.4,1.8-0.8,2.7-1.2c0.8-0.4,1.6-0.9,2.4-1.4c0.5-0.3,0.9-0.6,1.3-0.9c0.3-0.2,0.6-0.5,1-0.7c0.2-0.2,0.5-0.4,0.7-0.6
			c0.2-0.2,0.4-0.3,0.5-0.5c1.1-1.1,2.1-2.4,2.7-3.9c0.1-0.3,0.2-0.6,0.3-0.9c0.1-0.6,0.2-1.1,0.2-1.7c0-8.2,0.1-16.4,0-24.6
			c0-0.5,0-0.9-0.1-1.4c-0.1-0.9-0.3-1.7-0.5-2.5c-0.7-2.2-2-4.2-3.7-5.8c-1.3-1.2-2.7-2.2-4.3-2.8c-1.1-0.5-2.3-0.8-3.6-1
			c-0.7-0.1-1.3-0.1-2-0.1c-1.6,0-3.2,0-4.8,0c-1.8,1.5-3.8,2.7-6,3.6c-2.4,1-4.9,1.5-7.5,1.6c-2.4,0.1-4.8-0.2-7.1-0.9
			c-2.1-0.6-4.1-1.5-5.9-2.7c-0.7-0.5-1.5-1-2.1-1.6c-1.4,0-2.9,0-4.3,0c-0.6,0-1.3,0.1-1.9,0.1c-1.2,0.2-2.4,0.5-3.6,1
			c-1.6,0.7-3.1,1.6-4.3,2.8c-1.7,1.6-3,3.6-3.7,5.8c-0.3,0.9-0.5,1.8-0.6,2.7c0,0.4-0.1,0.9-0.1,1.3v0.1v21.2l0,0.2
			c0,0.1,0,0.1,0,0.2c-0.1,0.2-0.1,0.3-0.3,0.4c-0.3,0.3-0.7,0.4-1.1,0.3c-0.1,0-0.2-0.1-0.3-0.2c-0.1-0.1-0.2-0.1-0.2-0.2
			c-0.1-0.1-0.2-0.3-0.2-0.5c0-0.1,0-0.1,0-0.2c0-7.1-0.1-14.3,0-21.4c0-0.5,0-1.1,0.1-1.6c0.1-1,0.3-2,0.7-3c0.4-1.2,1-2.4,1.7-3.5
			c0.7-1.2,1.6-2.3,2.7-3.2c1.5-1.4,3.2-2.5,5-3.2c1.3-0.5,2.6-0.9,3.9-1.1c0.8-0.1,1.5-0.2,2.3-0.2c0.7,0,1.3,0,2,0
			c-0.3-0.4-0.7-0.8-1-1.1c-1.5-1.8-2.6-3.9-3.5-6.1c-0.6-1.6-1-3.2-1.2-4.8c-0.1-0.7-0.2-1.5-0.2-2.3c-0.3-0.2-0.7-0.4-1-0.7
			c-0.3-0.3-0.6-0.6-0.8-0.9c-0.2-0.3-0.4-0.6-0.5-0.9c-0.3-0.6-0.4-1.2-0.5-1.8c-0.1-0.5-0.1-1.1,0-1.6c0.1-0.6,0.2-1.3,0.3-1.9
			c0,0-0.1-0.1-0.1-0.1l0,0c0,0-0.1-0.1-0.1-0.1c-0.1-0.1-0.1-0.2-0.1-0.3c0-0.1,0-0.1,0-0.3v-4c0,0,0-0.1,0-0.1
			c0-0.1,0-0.2,0.1-0.3c0.1-0.3,0.4-0.5,0.7-0.6c0.1,0,0.1,0,0.3-0.1c0.5,0,1-0.1,1.5-0.1C430.5,206.5,430.6,206.4,430.7,206.4z
			 M441.5,289.3c0.2,0,0.5,0.1,0.7,0.1c0.3,0,0.6,0.1,0.9,0.1c0.7,0.1,1.4,0.2,2.1,0.3c0.8,0.1,1.6,0.2,2.5,0.2l0.2,0
			c0.1,0,0.1,0,0.2,0c0.1,0,0.2,0.1,0.3,0.1c0.1,0.1,0.2,0.1,0.3,0.2c0.1,0.1,0.1,0.2,0.2,0.3c0.1,0.3,0.1,0.7-0.1,1
			c-0.1,0.1-0.1,0.2-0.2,0.3c-0.2,0.1-0.4,0.2-0.6,0.3c-0.1,0-0.1,0-0.2,0c-0.3,0-0.5,0-0.8-0.1c-0.9-0.1-1.9-0.2-2.8-0.3
			c-0.9-0.1-1.9-0.3-2.8-0.4l-0.1,0c-0.1,0-0.1,0-0.2,0c-0.2-0.1-0.3-0.1-0.4-0.3c-0.1-0.1-0.1-0.2-0.2-0.3
			c-0.2-0.4-0.1-0.8,0.1-1.1c0.1-0.1,0.1-0.2,0.2-0.2c0.1-0.1,0.3-0.2,0.5-0.2c0.1,0,0.1,0,0.2,0
			C441.4,289.3,441.4,289.3,441.5,289.3z M435.9,288C435.9,288,435.9,288,435.9,288l-0.3-1.6c0-0.1,0-0.2,0-0.2c0-0.1,0-0.2,0-0.2
			c0-0.1,0-0.1,0.1-0.2c0.1-0.1,0.1-0.3,0.2-0.4c0.2-0.3,0.3-0.6,0.4-1l0-0.1c0-0.1,0.1-0.1,0.1-0.2c0-0.1,0.1-0.1,0.2-0.2
			c0.1,0,0.1-0.1,0.1-0.1l1.4-0.9c0,0,0,0,0,0l-1.2-1.1c-0.1-0.1-0.1-0.1-0.1-0.1c-0.1-0.1-0.1-0.1-0.1-0.2c0-0.1-0.1-0.2-0.1-0.2
			c0-0.1,0-0.3-0.1-0.4c-0.1-0.3-0.1-0.7-0.3-1l0-0.1c0-0.1,0-0.2,0-0.2c0-0.1,0-0.2,0-0.2c0-0.1,0-0.1,0-0.2l0.6-1.5c0,0,0,0,0,0
			l-1.6-0.2c-0.1,0-0.1,0-0.2,0c-0.1,0-0.2-0.1-0.2-0.1c-0.1,0-0.1-0.1-0.2-0.1c-0.1-0.1-0.2-0.2-0.3-0.3c-0.3-0.2-0.5-0.5-0.8-0.7
			l-0.1-0.1c-0.1,0-0.1-0.1-0.1-0.1c-0.1-0.1-0.1-0.1-0.1-0.2c0-0.1-0.1-0.2-0.1-0.2l-0.4-1.6c0,0,0,0,0,0l-1.4,0.8
			c-0.1,0-0.1,0-0.2,0.1c-0.1,0-0.2,0-0.2,0.1c-0.1,0-0.2,0-0.2,0c-0.1,0-0.3,0-0.4-0.1c-0.3,0-0.7-0.1-1-0.1l-0.1,0
			c-0.1,0-0.2,0-0.2,0c-0.1,0-0.2-0.1-0.2-0.1c-0.1,0-0.1-0.1-0.1-0.1l-1.2-1c0,0,0,0,0,0l-0.7,1.5c0,0.1-0.1,0.1-0.1,0.2
			c-0.1,0.1-0.1,0.1-0.2,0.2c-0.1,0-0.1,0.1-0.1,0.1c-0.1,0.1-0.3,0.1-0.4,0.2c-0.3,0.2-0.6,0.4-0.9,0.6l-0.1,0
			c-0.1,0-0.1,0-0.1,0.1c-0.1,0-0.2,0.1-0.2,0.1c-0.1,0-0.2,0-0.2,0l-1.6-0.1c0,0,0,0,0,0l0.3,1.6c0,0.1,0,0.1,0,0.2
			c0,0.1,0,0.2,0,0.2c0,0.1,0,0.2-0.1,0.2c-0.1,0.1-0.1,0.3-0.2,0.4c-0.2,0.3-0.3,0.6-0.4,1l0,0.1c0,0.1-0.1,0.1-0.1,0.2
			c0,0.1-0.1,0.1-0.2,0.2c-0.1,0-0.1,0.1-0.1,0.1l-1.4,0.9c0,0,0,0,0,0l1.2,1.1c0.1,0.1,0.1,0.1,0.1,0.1c0.1,0.1,0.1,0.1,0.1,0.2
			c0,0.1,0.1,0.2,0.1,0.2c0,0.1,0,0.3,0.1,0.4c0.1,0.3,0.1,0.7,0.3,1l0,0.1c0,0.1,0,0.2,0,0.2c0,0.1,0,0.2,0,0.2c0,0.1,0,0.1,0,0.2
			l-0.6,1.5c0,0,0,0,0,0l1.6,0.2c0.1,0,0.1,0,0.2,0c0.1,0,0.2,0.1,0.2,0.1c0.1,0,0.1,0.1,0.2,0.1c0.1,0.1,0.2,0.2,0.3,0.3
			c0.3,0.2,0.5,0.5,0.8,0.7l0.1,0.1c0.1,0.1,0.1,0.1,0.1,0.1c0.1,0.1,0.1,0.1,0.1,0.2c0,0.1,0.1,0.2,0.1,0.2l0.4,1.6c0,0,0,0,0,0
			l1.4-0.8c0.1,0,0.1-0.1,0.2-0.1c0.1,0,0.2,0,0.2,0c0.1,0,0.1,0,0.2,0c0.1,0,0.3,0,0.4,0.1c0.3,0,0.7,0.1,1,0.1l0.1,0
			c0.1,0,0.1,0,0.2,0c0.1,0,0.2,0,0.2,0.1c0.1,0,0.1,0.1,0.2,0.1l1.2,1c0,0,0,0,0,0l0.7-1.5c0-0.1,0-0.1,0.1-0.1
			c0-0.1,0.1-0.1,0.2-0.2c0.1-0.1,0.1-0.1,0.2-0.1c0.1-0.1,0.3-0.1,0.4-0.2c0.3-0.2,0.6-0.4,0.9-0.6l0.1,0c0.1,0,0.1-0.1,0.2-0.1
			c0.1,0,0.2,0,0.2-0.1c0.1,0,0.1,0,0.2,0C434.8,287.9,435.4,288,435.9,288z M510.9,278.9c0.2,0.1,0.3,0.1,0.4,0.2
			c0.3,0.3,0.5,0.7,0.4,1.1c0,0.2-0.1,0.3-0.2,0.4c-0.2,0.3-0.4,0.5-0.6,0.8c-1.3,1.6-2.6,3.1-3.9,4.5c-1.4,1.5-2.9,2.9-4.5,4.3l0,0
			c-0.1,0-0.1,0.1-0.2,0.1c-0.1,0.1-0.3,0.1-0.5,0.1c-0.1,0-0.2,0-0.2,0c-0.4-0.1-0.7-0.4-0.9-0.8c0-0.2-0.1-0.3,0-0.5
			c0-0.2,0.1-0.3,0.2-0.4c0-0.1,0.1-0.1,0.2-0.2c0.2-0.2,0.4-0.4,0.7-0.6c1.4-1.3,2.8-2.7,4.1-4.1c1.4-1.5,2.7-3,3.9-4.6l0.1-0.1
			c0.1-0.1,0.1-0.1,0.2-0.2c0.1-0.1,0.3-0.2,0.4-0.2c0.1,0,0.2,0,0.2,0C510.7,278.9,510.8,278.9,510.9,278.9z M367.6,229.7
			c0.1,0,0.2,0,0.3,0.1c0.3,0.1,0.6,0.4,0.6,0.8c0,0.1,0,0.2,0,0.3c0,0.3,0,0.6,0,0.9c-0.1,1.4-0.1,2.8-0.1,4.2
			c0,2.7,0.2,5.5,0.5,8.2c1,9.2,3.5,18.3,7.4,26.7c1.8,3.8,3.8,7.5,6.1,11c1.1,1.7,2.3,3.4,3.6,5.1l0.1,0.1c0,0.1,0.1,0.1,0.1,0.2
			c0.1,0.2,0.1,0.3,0.1,0.5c0,0.1,0,0.2,0,0.3c-0.1,0.3-0.4,0.6-0.7,0.7c-0.1,0-0.2,0-0.3,0c-0.1,0-0.2,0-0.3,0
			c-0.2,0-0.3-0.1-0.5-0.2c-0.1-0.1-0.1-0.1-0.2-0.2c-0.2-0.2-0.4-0.5-0.6-0.7c-1.3-1.8-2.6-3.6-3.8-5.5c-2.2-3.5-4.2-7.1-5.9-10.9
			c-3.9-8.7-6.4-18-7.4-27.4c-0.3-2.9-0.4-5.8-0.4-8.6c0-1.4,0-2.9,0.1-4.3l0-0.1c0-0.1,0-0.2,0-0.3c0.1-0.3,0.4-0.6,0.7-0.7
			c0.1,0,0.2,0,0.3,0C367.4,229.7,367.5,229.7,367.6,229.7z M539.9,282.8l0.3,0.3l0.2,0.4l0,0.4l-0.1,0.4c-0.7,1.2-1.4,2.5-2.2,3.7
			l-0.1,0.1l-0.3,0.3l-0.4,0.2l-0.4,0l-0.4-0.2l-0.3-0.3l-0.2-0.4c0-0.1,0-0.3,0-0.4c0-0.2,0.1-0.3,0.2-0.5c0.2-0.3,0.3-0.5,0.5-0.8
			c0.2-0.3,0.3-0.5,0.5-0.8c0.4-0.7,0.8-1.4,1.2-2l0,0c0.2-0.3,0.3-0.4,0.7-0.5c0.1,0,0.3,0,0.4,0
			C539.7,282.7,539.8,282.7,539.9,282.8z M429.3,276.7c0.2,0,0.5,0,0.7,0.1c0.5,0.1,1,0.2,1.5,0.5c0.6,0.3,1.2,0.7,1.7,1.2
			c0.8,0.9,1.3,1.9,1.4,3.1c0.1,0.5,0,1.1-0.1,1.6c-0.1,0.6-0.3,1.2-0.6,1.7c-0.3,0.5-0.6,0.9-1,1.3c-0.5,0.4-1,0.8-1.6,1
			c-0.6,0.3-1.3,0.4-2,0.4c-0.7,0-1.5-0.1-2.2-0.4c-0.6-0.3-1.2-0.7-1.7-1.2c-0.5-0.5-0.9-1.1-1.1-1.7c-0.2-0.6-0.4-1.2-0.4-1.8
			c0-0.5,0-1.1,0.1-1.6c0.2-0.8,0.6-1.6,1.2-2.3c0.6-0.7,1.3-1.2,2.2-1.5c0.6-0.2,1.1-0.3,1.7-0.3
			C429.1,276.7,429.2,276.7,429.3,276.7z M429.2,278.9c-0.3,0-0.7,0.1-1,0.2c-0.6,0.2-1.1,0.5-1.5,1c-0.3,0.4-0.5,0.8-0.6,1.3
			c-0.1,0.3-0.1,0.6-0.1,0.9c0,0.4,0.1,0.8,0.2,1.1c0.2,0.4,0.4,0.7,0.7,1c0.3,0.3,0.6,0.5,1,0.7c0.4,0.2,0.9,0.3,1.3,0.3
			c0.4,0,0.8-0.1,1.2-0.2c0.4-0.1,0.7-0.3,1-0.6c0.2-0.2,0.4-0.5,0.6-0.7c0.2-0.3,0.3-0.7,0.4-1.1c0.1-0.3,0.1-0.6,0-0.9
			c-0.1-0.7-0.4-1.3-0.8-1.9c-0.3-0.3-0.6-0.6-1-0.7C430.2,279,429.7,278.9,429.2,278.9C429.2,278.9,429.2,278.9,429.2,278.9z
			 M365.7,279.4l0.4,0.2l0.3,0.3c0.2,0.3,0.3,0.6,0.5,1c0.1,0.3,0.3,0.5,0.4,0.8c0.3,0.5,0.6,1,0.9,1.6l0.1,0.3l0.1,0.2l0.1,0.4
			l0,0.4l-0.2,0.4l-0.3,0.3l-0.4,0.1l-0.4,0l-0.4-0.2c-0.1-0.1-0.2-0.2-0.3-0.3c0-0.1-0.1-0.1-0.1-0.2c-0.1-0.3-0.3-0.5-0.4-0.8
			c-0.3-0.6-0.7-1.2-1-1.9c-0.1-0.3-0.3-0.5-0.4-0.8c-0.1-0.2-0.2-0.3-0.2-0.6c0-0.1,0-0.3,0-0.4l0.2-0.4c0.3-0.3,0.3-0.3,0.7-0.4
			C365.4,279.4,365.6,279.4,365.7,279.4z M389.9,269.7c0.1,0,0.2,0,0.2,0.1c0.2,0.1,0.3,0.2,0.4,0.3c0.1,0.1,0.1,0.1,0.1,0.2
			c0.1,0.3,0.3,0.5,0.4,0.8c1,1.7,2,3.3,3.1,4.9c1.1,1.7,2.4,3.3,3.6,4.8l0,0c0,0.1,0.1,0.1,0.1,0.2c0.1,0.1,0.1,0.3,0.1,0.5
			c0,0.2,0,0.3-0.1,0.5c-0.2,0.4-0.6,0.6-1,0.6c-0.1,0-0.2,0-0.2,0c-0.2,0-0.3-0.1-0.4-0.2c-0.1,0-0.1-0.1-0.2-0.2
			c-0.2-0.2-0.4-0.5-0.6-0.7c-1.3-1.6-2.4-3.2-3.6-4.8c-1.2-1.7-2.3-3.5-3.3-5.3l0,0c-0.1-0.2-0.1-0.2-0.1-0.5c0-0.4,0.2-0.8,0.6-1
			c0.2-0.1,0.3-0.1,0.5-0.1C389.8,269.6,389.8,269.6,389.9,269.7z M532.3,268.7c0.2,0.1,0.3,0.1,0.4,0.3c0.3,0.2,0.4,0.6,0.3,1
			c0,0.1,0,0.2-0.1,0.3c-0.1,0.3-0.2,0.5-0.4,0.8c-0.8,1.8-1.7,3.6-2.7,5.4c-1,1.8-2,3.6-3.2,5.4l0,0c-0.1,0.1-0.1,0.1-0.2,0.2
			c-0.1,0.1-0.3,0.2-0.5,0.3c-0.1,0-0.2,0-0.3,0c-0.1,0-0.2,0-0.3,0c-0.1,0-0.2,0-0.2-0.1c-0.3-0.2-0.5-0.5-0.6-0.8
			c0-0.2,0-0.4,0-0.5c0-0.1,0.1-0.2,0.1-0.2c0.2-0.3,0.4-0.6,0.6-0.9c1-1.7,2-3.4,2.9-5.1c0.9-1.7,1.8-3.5,2.6-5.3l0-0.1
			c0-0.1,0.1-0.2,0.1-0.2c0.2-0.2,0.4-0.4,0.7-0.4c0.1,0,0.2,0,0.3,0C532.1,268.6,532.2,268.6,532.3,268.7z M546.2,269l0.4,0.2
			l0.2,0.3l0.1,0.4l-0.1,0.4c-0.6,1.5-1.2,3-1.8,4.5c-0.5,1.2-1.1,2.4-1.6,3.6l0,0l-0.3,0.3l-0.4,0.2c-0.4,0.1-0.4,0.1-0.8,0
			l-0.3-0.3l-0.2-0.4l-0.1-0.4c0-0.1,0.1-0.3,0.1-0.4c0,0,0,0,0,0c0-0.1,0.1-0.2,0.1-0.3c0.1-0.2,0.2-0.4,0.3-0.5
			c0.1-0.3,0.3-0.5,0.4-0.8c0.4-0.9,0.8-1.8,1.2-2.7c0.5-1.2,1-2.4,1.4-3.5l0.2-0.4l0.3-0.2l0.4-0.1
			C545.9,268.9,546.1,268.9,546.2,269z M519,266.1c0.2,0.1,0.3,0.1,0.4,0.2c0.3,0.2,0.4,0.5,0.4,0.9c0,0.2,0,0.3-0.1,0.5
			c-0.1,0.2-0.2,0.5-0.4,0.7c-0.6,1.2-1.2,2.4-1.9,3.5c-0.6,1.1-1.3,2.2-2,3.2l-0.1,0.1c-0.1,0.1-0.1,0.1-0.2,0.2
			c-0.1,0.1-0.3,0.2-0.4,0.3c-0.1,0-0.2,0-0.2,0.1c-0.4,0-0.8-0.2-1-0.5c-0.1-0.1-0.1-0.3-0.2-0.5c0-0.2,0-0.3,0.1-0.5
			c0-0.1,0.1-0.1,0.1-0.2c0.1-0.2,0.3-0.5,0.4-0.7c0.7-1.1,1.4-2.2,2-3.3c0.6-1.1,1.2-2.2,1.7-3.3l0.1-0.1c0-0.1,0.1-0.1,0.1-0.2
			c0.2-0.2,0.4-0.3,0.6-0.4c0.1,0,0.2,0,0.2,0C518.8,266,518.9,266,519,266.1z M361.7,264.6c0-0.2-0.1-0.4-0.3-0.6
			c-0.7-0.4-1.5-0.7-2.4-0.8c-0.2,0-0.5,0.1-0.6,0.2c-0.1,0.1-0.3,0.3-0.4,0.4c-0.1,0.1-0.3,0.2-0.4,0.2c-0.9,0.2-1.7,0.6-2.4,1.2
			c-0.1,0.1-0.3,0.2-0.4,0.2c-0.2,0-0.4,0-0.6,0c-0.2,0-0.4,0.1-0.6,0.3c-0.4,0.7-0.7,1.5-0.8,2.4c0,0.2,0.1,0.5,0.2,0.6
			c0.1,0.1,0.3,0.3,0.4,0.4c0.1,0.1,0.2,0.3,0.2,0.4c0.2,0.9,0.6,1.7,1.2,2.4c0.1,0.1,0.2,0.3,0.2,0.4c0,0.2,0,0.4,0,0.6
			c0,0.2,0.1,0.4,0.3,0.6c0.7,0.4,1.5,0.7,2.4,0.8c0.2,0,0.5-0.1,0.6-0.2c0.1-0.1,0.3-0.3,0.4-0.4c0.1-0.1,0.3-0.2,0.4-0.2
			c0.9-0.2,1.7-0.6,2.4-1.2c0.1-0.1,0.3-0.2,0.4-0.2c0.2,0,0.4,0,0.6,0c0.2,0,0.4-0.1,0.6-0.3c0.4-0.7,0.7-1.5,0.8-2.4
			c0-0.2-0.1-0.5-0.2-0.6c-0.1-0.1-0.3-0.3-0.4-0.4c-0.1-0.1-0.2-0.3-0.2-0.4c-0.2-0.9-0.6-1.7-1.2-2.4c-0.1-0.1-0.2-0.3-0.2-0.4
			C361.7,265,361.7,264.8,361.7,264.6z M359.3,266.3L359.3,266.3c1.4,0.5,2.1,2,1.7,3.4l0,0c-0.5,1.4-2,2.1-3.4,1.7l0,0
			c-1.4-0.5-2.1-2-1.7-3.4l0,0C356.4,266.5,357.9,265.8,359.3,266.3z M474.6,256.2c0.1,0,0.3,0,0.4,0c0.3,0,0.6,0.1,0.9,0.2
			c0.5,0.2,0.9,0.5,1.3,0.8c0.4,0.4,0.7,0.9,0.9,1.4c0.1,0.3,0.2,0.5,0.2,0.8c0,0.1,0,0.3,0,0.4c0,1.8,0,3.7,0,5.5
			c0,0.1,0,0.3,0,0.4c0,0.3-0.1,0.6-0.2,0.8c-0.2,0.5-0.5,1-0.9,1.4c-0.4,0.4-0.8,0.7-1.4,0.9c-0.3,0.1-0.6,0.2-0.9,0.2
			c-0.1,0-0.3,0-0.4,0c-4,0.1-8,0-12,0c-0.1,0-0.3,0-0.4,0c-0.3,0-0.6-0.1-0.8-0.2c-0.5-0.2-1-0.5-1.4-0.8c-0.4-0.4-0.7-0.8-0.9-1.4
			c-0.1-0.3-0.2-0.6-0.2-0.9c0-0.1,0-0.3,0-0.4c0-1.8,0-3.7,0-5.5c0-0.1,0-0.3,0-0.4c0-0.3,0.1-0.6,0.2-0.8c0.2-0.5,0.5-1,0.9-1.4
			c0.4-0.4,0.8-0.7,1.4-0.9c0.3-0.1,0.6-0.2,0.9-0.2c0.1,0,0.3,0,0.4,0C466.5,256.1,470.5,256.1,474.6,256.2z M558,268.4
			c0.5,0.1,1-0.1,1.1-0.6l0.5-1.7c0.1-0.5-0.1-1-0.6-1.1l-5.2-1.6c-0.5-0.1-1,0.1-1.1,0.6l-0.5,1.7c-0.1,0.5,0.1,1,0.6,1.1
			L558,268.4z M384.5,257.8c0.1,0,0.2,0,0.2,0.1c0.2,0.1,0.4,0.2,0.6,0.4c0,0.1,0.1,0.1,0.1,0.2c0.1,0.3,0.2,0.6,0.3,0.8
			c0.4,1.2,0.9,2.5,1.4,3.7c0.5,1.1,1,2.3,1.5,3.4l0,0c0,0.1,0.1,0.1,0.1,0.2c0,0.2,0,0.3,0,0.5c0,0.2-0.1,0.3-0.2,0.4
			c-0.3,0.3-0.7,0.5-1.1,0.4c-0.1,0-0.2,0-0.2-0.1c-0.1-0.1-0.3-0.2-0.4-0.3c-0.1-0.1-0.1-0.1-0.1-0.2c-0.1-0.3-0.3-0.6-0.4-0.8
			c-1-2.1-1.9-4.3-2.7-6.4c-0.1-0.2-0.2-0.4-0.2-0.6c-0.1-0.1-0.1-0.3-0.1-0.4c0-0.2,0-0.5,0.2-0.7c0-0.1,0.1-0.1,0.2-0.2
			c0.1-0.1,0.1-0.1,0.2-0.2c0.2-0.1,0.2-0.1,0.5-0.2C384.4,257.8,384.5,257.8,384.5,257.8z M462.6,258.4c-0.2,0-0.4,0-0.6,0.1
			c-0.4,0.2-0.8,0.5-1,1c-0.1,0.2-0.1,0.3-0.1,0.5c0,1.8,0,3.7,0,5.5c0,0.2,0,0.4,0.1,0.5c0.2,0.4,0.5,0.8,0.9,1
			c0.2,0.1,0.4,0.1,0.6,0.1c4,0,8,0,12,0c0.2,0,0.4,0,0.5-0.1c0.4-0.2,0.8-0.5,1-0.9c0.1-0.2,0.1-0.4,0.1-0.6c0-1.8,0-3.7,0-5.5
			c0-0.2,0-0.4-0.1-0.6c-0.2-0.4-0.5-0.8-1-0.9c-0.2-0.1-0.3-0.1-0.5-0.1C470.5,258.3,466.5,258.4,462.6,258.4z M524.7,249.7
			c0.1,0,0.2,0,0.2,0.1c0.3,0.1,0.5,0.4,0.6,0.7c0,0.2,0,0.3,0,0.5c-0.1,0.3-0.1,0.5-0.2,0.8c-0.2,1-0.5,1.9-0.7,2.9
			c-0.5,1.9-1.1,3.8-1.8,5.6c-0.3,0.8-0.6,1.6-0.9,2.3c-0.1,0.2-0.2,0.4-0.3,0.6c0,0.1-0.1,0.1-0.1,0.2c-0.1,0.1-0.1,0.2-0.2,0.4
			c0,0.1-0.1,0.1-0.2,0.2c-0.3,0.3-0.8,0.3-1.1,0.2c-0.1,0-0.1-0.1-0.2-0.1c-0.1-0.1-0.2-0.2-0.3-0.4c-0.1-0.2-0.2-0.5-0.1-0.7
			c0-0.1,0-0.2,0.1-0.2c0.1-0.3,0.2-0.5,0.3-0.8c0.8-1.9,1.5-3.8,2.1-5.8c0.6-1.8,1.1-3.7,1.5-5.6l0-0.1c0-0.1,0-0.2,0.1-0.2
			c0.1-0.3,0.4-0.5,0.7-0.6c0.1,0,0.2,0,0.2,0C524.5,249.7,524.6,249.7,524.7,249.7z M532.9,201.1c0.1,0,0.2,0,0.2,0.1
			c0.2,0.1,0.3,0.2,0.4,0.3c0.1,0.1,0.1,0.2,0.1,0.2c0.1,0.3,0.2,0.6,0.3,0.8c0.5,1.3,1,2.6,1.5,3.9c1,2.8,1.8,5.7,2.5,8.6
			c1.6,6.8,2.4,13.9,2.4,20.9c-0.1,5.7-0.7,11.3-1.8,16.9c-0.4,2.1-0.9,4.1-1.5,6.1c-0.3,1-0.6,2-0.9,3l0,0c0,0.1-0.1,0.2-0.1,0.2
			c-0.1,0.1-0.2,0.3-0.4,0.4c-0.1,0-0.2,0.1-0.2,0.1c-0.1,0-0.2,0-0.3,0c-0.1,0-0.2,0-0.3,0c-0.3-0.1-0.6-0.3-0.8-0.6
			c-0.1-0.2-0.1-0.3-0.1-0.5c0-0.1,0-0.2,0.1-0.3c0.1-0.3,0.2-0.7,0.3-1c0.3-0.9,0.5-1.8,0.8-2.7c0.5-1.8,0.9-3.6,1.3-5.5
			c1.1-5.2,1.7-10.6,1.7-16c0.1-7.1-0.7-14.2-2.4-21.2c-0.7-2.8-1.5-5.6-2.5-8.4c-0.5-1.4-1-2.7-1.5-4l0-0.1
			c-0.1-0.2-0.1-0.3-0.1-0.5c0-0.4,0.2-0.7,0.5-0.8c0.2-0.1,0.3-0.1,0.5-0.1C532.7,201,532.8,201.1,532.9,201.1z M344.2,256.1
			c-0.5,0.1-0.8,0.6-0.7,1.1l0.4,1.7c0.1,0.5,0.6,0.8,1.1,0.7l5.3-1.2c0.5-0.1,0.8-0.6,0.7-1.1l-0.4-1.7c-0.1-0.5-0.6-0.8-1.1-0.7
			L344.2,256.1z M380.8,238.7c0.1,0,0.2,0,0.2,0.1c0.3,0.1,0.5,0.4,0.6,0.7c0,0.1,0,0.2,0,0.2c0,0.3,0,0.6,0.1,0.9
			c0.1,1.9,0.4,3.8,0.7,5.6c0.3,2,0.7,4,1.2,5.9l0.1,0.2c0,0.1,0,0.2,0,0.2c0,0.2,0,0.3-0.1,0.5c-0.2,0.4-0.6,0.6-1,0.6
			c-0.1,0-0.2,0-0.2,0c-0.2,0-0.3-0.1-0.4-0.2c-0.1-0.1-0.2-0.2-0.3-0.4c0-0.1-0.1-0.2-0.1-0.2c-0.1-0.3-0.1-0.6-0.2-0.9
			c-0.5-1.9-0.8-3.9-1.1-5.9c-0.3-2-0.5-4-0.7-6l0-0.2c0-0.1,0-0.2,0-0.2c0.1-0.3,0.3-0.6,0.5-0.8c0.2-0.1,0.3-0.1,0.5-0.1
			C380.6,238.7,380.7,238.7,380.8,238.7z M554.6,253.7c0.5,0.1,0.9-0.3,1-0.8l0.3-1.8c0.1-0.5-0.3-0.9-0.8-1l-5.4-0.8
			c-0.5-0.1-0.9,0.3-1,0.8l-0.3,1.8c-0.1,0.5,0.3,0.9,0.8,1L554.6,253.7z M354.9,239.9c0.4,0.2,0.4,0.2,0.6,0.6l0.1,0.4
			c0,0.4,0,0.7,0.1,1.1c0,0.3,0,0.6,0.1,0.9c0.1,1.1,0.2,2.3,0.3,3.4c0.1,1,0.3,2,0.4,3.1l0,0.1c0,0.4,0,0.4-0.2,0.8l-0.3,0.3
			c-0.4,0.1-0.4,0.1-0.8,0.1l-0.4-0.2l-0.3-0.3l-0.1-0.4c-0.4-2.8-0.7-5.7-0.9-8.6l0-0.2c0-0.4,0-0.5,0.3-0.8
			c0.1-0.1,0.2-0.2,0.3-0.3l0.4-0.1C354.6,239.9,354.8,239.9,354.9,239.9z M526.4,234.6c0.1,0,0.2,0,0.2,0.1
			c0.3,0.1,0.5,0.4,0.6,0.7c0,0.1,0,0.2,0,0.2c0,0.3,0,0.5,0,0.8c0,1.3-0.1,2.5-0.2,3.8c-0.1,1.2-0.2,2.5-0.4,3.7l0,0.2
			c0,0.2,0,0.3-0.1,0.5c-0.1,0.2-0.1,0.3-0.3,0.4c-0.3,0.3-0.7,0.4-1.1,0.2c-0.1,0-0.1-0.1-0.2-0.1c-0.1-0.1-0.3-0.2-0.3-0.3
			c-0.1-0.1-0.1-0.3-0.2-0.5c0-0.1,0-0.2,0-0.2c0-0.3,0.1-0.6,0.1-0.9c0.1-1.3,0.3-2.6,0.3-3.9c0.1-1.1,0.1-2.3,0.1-3.5l0-0.2l0-0.1
			l0-0.2c0-0.1,0-0.2,0.1-0.2c0.1-0.3,0.4-0.5,0.7-0.6c0.1,0,0.2,0,0.2,0C526.2,234.6,526.3,234.6,526.4,234.6z M453.1,210.7
			c0,0-0.1,0-0.1,0c-0.1,0-0.2,0.1-0.2,0.1c-0.1,0.1-0.1,0.1-0.2,0.2c0,0,0,0,0,0.1c0,0,0,0.1-0.1,0.1c-0.1,0.2-0.1,0.3-0.1,0.5
			c0,0.1-0.1,0.3-0.1,0.4c-0.1,0.3-0.1,0.7-0.2,1c-0.1,0.4-0.2,0.8-0.3,1.2c-0.1,0.5-0.3,1-0.5,1.4c-0.2,0.5-0.6,1-0.9,1.5
			c-0.2,0.2-0.4,0.4-0.6,0.6c-0.3,0.2-0.6,0.4-1,0.6c-0.3,0.1-0.6,0.2-0.9,0.2c-0.2,0-0.5,0.1-0.7,0.1c-1.8,0.2-3.6,0.3-5.4,0.3
			c-1.6,0-3.2-0.1-4.8-0.3c-0.1,0-0.1,0-0.2,0c-0.4-0.1-0.7-0.2-1.1-0.3c-0.2-0.1-0.3-0.2-0.5-0.2c-0.1-0.1-0.3-0.1-0.4-0.2
			c-0.5-0.3-0.9-0.5-1.4-0.8c-0.2-0.2-0.5-0.3-0.7-0.5c0,1,0,2,0,3.1c0,0.8,0.1,1.6,0.2,2.4c0.2,1.5,0.6,3,1.1,4.5
			c0.7,1.9,1.7,3.6,2.9,5.2c1.3,1.7,2.9,3.3,4.8,4.5c1.7,1.1,3.6,2,5.5,2.6c2.1,0.6,4.4,0.9,6.6,0.8c2.3-0.1,4.6-0.6,6.8-1.4
			c2.3-0.9,4.5-2.3,6.3-4.1c1.9-1.8,3.5-4,4.6-6.4c0.8-1.7,1.3-3.4,1.6-5.2c0.1-1,0.2-2,0.2-2.9c0-0.1,0-0.1,0-0.2c0-1,0-1.9,0-2.9
			c-0.4,0.3-0.9,0.6-1.3,0.9c-0.3,0.2-0.7,0.4-1,0.6c-0.3,0.2-0.6,0.3-0.9,0.4c-0.3,0.1-0.7,0.2-1,0.3c-0.2,0-0.5,0.1-0.7,0.1
			c-1.7,0.2-3.4,0.3-5.2,0.3c-1.1,0-2.3-0.1-3.4-0.2c-0.6-0.1-1.1-0.1-1.7-0.2c-0.1,0-0.1,0-0.2,0c-0.3-0.1-0.7-0.2-1-0.4
			c-0.2-0.1-0.5-0.3-0.7-0.5c-0.2-0.2-0.4-0.4-0.6-0.6c-0.3-0.4-0.6-0.9-0.8-1.3c-0.2-0.4-0.4-0.9-0.5-1.3c-0.1-0.3-0.2-0.7-0.2-1
			c-0.1-0.5-0.2-1.1-0.3-1.6c0-0.1,0-0.2-0.1-0.3c0-0.2-0.1-0.3-0.1-0.5c0-0.1-0.1-0.1-0.1-0.2c0,0,0,0,0,0l0,0c0,0,0,0,0,0
			c0,0,0,0,0,0c0-0.1-0.1-0.2-0.2-0.2C453.2,210.7,453.2,210.7,453.1,210.7C453.1,210.7,453.1,210.7,453.1,210.7L453.1,210.7z
			 M552.6,232.8l0.4,0.2l0.2,0.3c0,0.1,0.1,0.3,0.1,0.4c0,0.1,0,0.2,0,0.3c0,0.3,0,0.6,0,1c0,0.9,0,1.7,0,2.6l0,0.3
			c0,0.2,0,0.4-0.1,0.6c-0.1,0.1-0.2,0.2-0.2,0.3l-0.4,0.2l-0.4,0.1l-0.4-0.1l-0.3-0.2l-0.2-0.4c0-0.1-0.1-0.3-0.1-0.4
			c0-0.1,0-0.2,0-0.2c0-0.2,0-0.4,0-0.6c0-0.3,0-0.6,0-0.9c0-0.6,0-1.3,0-1.9l0-0.3l0-0.3l0.1-0.4c0.2-0.4,0.2-0.4,0.6-0.6l0.4-0.1
			C552.3,232.8,552.4,232.8,552.6,232.8z M381,225.7c0.1,0,0.2,0,0.2,0.1c0.3,0.1,0.6,0.4,0.7,0.7c0.1,0.2,0.1,0.3,0.1,0.5
			c0,0.3-0.1,0.6-0.1,0.9c-0.1,1.2-0.2,2.4-0.3,3.6c-0.1,1.2-0.1,2.5-0.1,3.7v0.2l0,0.1l0,0.2c0,0.1,0,0.2-0.1,0.2
			c-0.1,0.1-0.2,0.3-0.3,0.4c-0.1,0.1-0.1,0.1-0.2,0.1c-0.4,0.2-0.8,0.1-1.1-0.1c-0.1-0.1-0.1-0.1-0.2-0.2c-0.1-0.1-0.2-0.3-0.2-0.4
			c0-0.1,0-0.2,0-0.2c0-0.3,0-0.6,0-0.8c0-1.3,0-2.5,0.1-3.8c0.1-1.3,0.2-2.5,0.3-3.7l0-0.2c0-0.1,0-0.3,0.1-0.4
			c0.1-0.3,0.4-0.6,0.7-0.7c0.1,0,0.2,0,0.2-0.1C380.9,225.7,380.9,225.7,381,225.7z M355,229.1c0.3,0.3,0.3,0.3,0.6,0.6l0.1,0.4
			c0,0.3,0,0.5,0,0.8c0,0.3,0,0.6,0,0.9c0,0.8,0,1.7,0,2.5v0l-0.1,0.4l-0.2,0.4l-0.4,0.2l-0.4,0.1c-0.4-0.1-0.4-0.1-0.8-0.3
			l-0.2-0.4c0-0.1-0.1-0.3-0.1-0.4c0-0.1,0-0.2,0-0.3c0-0.3,0-0.6,0-1c0-0.9,0-1.7,0.1-2.6l0-0.3c0-0.3,0-0.3,0.1-0.6l0.3-0.3
			l0.4-0.2l0.4-0.1C354.7,229.1,354.8,229.1,355,229.1z M524.5,217.4c0.1,0,0.2,0,0.2,0.1c0.2,0.1,0.4,0.3,0.5,0.5
			c0,0.1,0.1,0.2,0.1,0.2c0.1,0.3,0.1,0.6,0.2,0.8c0.4,2,0.8,3.9,1.1,5.9c0.3,2.1,0.5,4.2,0.6,6.3l0,0c0,0.1,0,0.2,0,0.2
			c0,0.2-0.1,0.3-0.2,0.4c-0.2,0.3-0.7,0.5-1.1,0.4c-0.1,0-0.2,0-0.2-0.1c-0.1-0.1-0.3-0.2-0.4-0.3s-0.2-0.3-0.2-0.4
			c0-0.1,0-0.2,0-0.2c0-0.3,0-0.6-0.1-0.9c-0.1-2-0.3-3.9-0.6-5.9c-0.3-1.9-0.6-3.8-1.1-5.7l0-0.2c0-0.2,0-0.3,0-0.5
			c0.1-0.3,0.3-0.6,0.6-0.7c0.2-0.1,0.3-0.1,0.5-0.1C524.3,217.4,524.4,217.4,524.5,217.4z M459.6,226.1c0.1,0,0.1,0,0.1,0
			c0.1,0,0.2,0.1,0.3,0.1c0.4,0.2,0.6,0.6,0.6,1c0,0.1,0,0.3-0.1,0.4c0,0.1-0.1,0.3-0.2,0.4c-0.3,0.6-0.9,0.9-1.5,1.2
			c-0.1,0-0.2,0.1-0.3,0.1c-0.2,0.1-0.3,0.1-0.5,0.1c-0.7,0.2-1.4,0.3-2.1,0.4c-0.8,0.1-1.7,0.1-2.5,0.2c-1.3,0-2.5,0-3.8,0
			c-1,0-2-0.1-3-0.2l-0.1,0c-0.1,0-0.1,0-0.1,0c-0.2,0-0.3-0.1-0.5-0.2c-0.1-0.1-0.2-0.2-0.2-0.3c-0.2-0.3-0.2-0.7,0-1
			c0-0.1,0.1-0.2,0.2-0.2c0.1-0.1,0.2-0.2,0.3-0.3c0.1-0.1,0.2-0.1,0.4-0.1c0.1,0,0.1,0,0.1,0c0.1,0,0.2,0,0.4,0c0.2,0,0.3,0,0.5,0
			c1.6,0.1,3.2,0.2,4.8,0.2c1.2,0,2.3,0,3.5-0.2c0.4,0,0.8-0.1,1.2-0.2c0.3-0.1,0.6-0.1,0.9-0.2c0.2-0.1,0.4-0.1,0.5-0.2
			c0.1,0,0.2-0.1,0.2-0.2c0,0,0,0,0-0.1c0-0.1,0.1-0.1,0.1-0.2c0.1-0.2,0.3-0.4,0.6-0.5c0.1,0,0.2,0,0.3-0.1
			C459.6,226.1,459.6,226.1,459.6,226.1z M551.1,217.7l0.4,0.2l0.3,0.3c0,0.1,0.1,0.3,0.1,0.4c0,0,0,0.1,0,0.1c0,0.1,0,0.2,0.1,0.3
			c0,0.2,0.1,0.4,0.1,0.6c0.1,0.5,0.2,1,0.2,1.6c0.3,2,0.5,4,0.7,6l0,0.2c0,0.4-0.1,0.4-0.3,0.8l-0.3,0.3l-0.4,0.1l-0.4,0l-0.4-0.2
			l-0.3-0.3c0-0.1-0.1-0.3-0.1-0.4c0-0.1,0-0.1,0-0.2c0-0.1,0-0.2,0-0.3c0-0.2,0-0.4-0.1-0.6c0-0.3-0.1-0.6-0.1-0.9
			c-0.1-1.1-0.2-2.3-0.4-3.4c-0.1-1-0.3-2-0.5-3l0-0.1l0-0.4l0.2-0.4l0.3-0.3l0.4-0.1C550.8,217.7,550.9,217.7,551.1,217.7z
			 M371.4,208.4c0.2,0.1,0.3,0.1,0.5,0.2c0.3,0.2,0.4,0.6,0.4,0.9c0,0.1,0,0.2,0,0.3c-0.1,0.3-0.2,0.6-0.3,0.8
			c-0.6,2-1.1,3.9-1.6,5.9c-0.4,1.8-0.8,3.7-1.1,5.6l0,0.2c0,0.1,0,0.2-0.1,0.3c-0.1,0.2-0.2,0.3-0.3,0.4c-0.3,0.2-0.6,0.3-1,0.2
			c-0.1,0-0.2-0.1-0.2-0.1c-0.1,0-0.1-0.1-0.2-0.2c-0.1-0.1-0.1-0.1-0.2-0.2c-0.1-0.1-0.2-0.3-0.2-0.5c0-0.1,0-0.2,0-0.3
			c0-0.3,0.1-0.6,0.2-0.9c0.3-2,0.7-4,1.2-5.9c0.5-2,1-3.9,1.6-5.8l0-0.1c0-0.1,0.1-0.2,0.1-0.2c0.1-0.2,0.4-0.4,0.6-0.5
			c0.1,0,0.2,0,0.3,0C371.2,208.4,371.3,208.4,371.4,208.4z M385.9,206.8c0.2,0.1,0.3,0.1,0.4,0.2c0.3,0.2,0.4,0.5,0.5,0.8
			c0,0.2,0,0.3-0.1,0.5c-0.1,0.3-0.2,0.6-0.4,0.9c-0.7,1.8-1.3,3.6-1.9,5.4c-0.5,1.8-1,3.7-1.4,5.6l0,0.2l0,0.1l-0.1,0.2
			c0,0.1-0.1,0.1-0.1,0.2c-0.1,0.1-0.2,0.2-0.4,0.3c-0.4,0.2-0.8,0.1-1.1-0.1c-0.1,0-0.1-0.1-0.2-0.2c-0.1-0.1-0.1-0.1-0.1-0.2
			c-0.1-0.1-0.1-0.3-0.1-0.5c0-0.1,0-0.2,0-0.2c0.1-0.3,0.1-0.5,0.2-0.8c0.4-2,1-4,1.6-6c0.6-1.9,1.3-3.9,2-5.8l0-0.1
			c0-0.1,0.1-0.1,0.1-0.2c0.1-0.2,0.3-0.4,0.6-0.4c0.1,0,0.2,0,0.2,0C385.7,206.8,385.8,206.8,385.9,206.8z M355.2,203.3
			c-0.1-0.2-0.3-0.3-0.6-0.3c-0.1,0-0.3,0-0.4,0c-0.2,0-0.5,0.1-0.6,0.3c-0.1,0.1-0.2,0.3-0.3,0.4c-0.1,0.1-0.2,0.2-0.3,0.2l0,0
			c-0.1,0-0.3,0-0.4-0.1c-0.1-0.1-0.3-0.2-0.4-0.3c-0.2-0.1-0.5-0.1-0.7,0c-0.1,0.1-0.3,0.1-0.4,0.2c-0.2,0.1-0.4,0.3-0.4,0.5
			c0,0.2,0,0.4-0.1,0.5c0,0.1-0.1,0.3-0.2,0.3c0,0,0,0,0,0c-0.1,0.1-0.2,0.1-0.4,0.1c-0.1,0-0.3,0-0.5,0c-0.2,0-0.5,0.1-0.6,0.3
			c-0.1,0.1-0.2,0.2-0.3,0.3c-0.1,0.2-0.2,0.4-0.1,0.7c0.1,0.2,0.1,0.4,0.2,0.5c0,0.1,0,0.3,0,0.4c0,0,0,0,0,0
			c-0.1,0.1-0.2,0.2-0.3,0.3c-0.1,0.1-0.3,0.1-0.5,0.2c-0.2,0.1-0.4,0.3-0.5,0.5c0,0.1-0.1,0.3-0.1,0.4c0,0.2,0,0.5,0.2,0.6
			c0.1,0.1,0.3,0.3,0.4,0.4c0.1,0.1,0.1,0.2,0.1,0.4v0c0,0.1-0.1,0.3-0.1,0.4c-0.1,0.1-0.2,0.3-0.4,0.4c-0.2,0.2-0.2,0.4-0.2,0.6
			c0,0.1,0.1,0.3,0.1,0.4c0.1,0.2,0.2,0.4,0.4,0.5c0.2,0.1,0.4,0.1,0.5,0.2c0.1,0,0.2,0.1,0.3,0.3l0,0c0.1,0.1,0.1,0.3,0,0.4
			c0,0.1-0.1,0.3-0.2,0.5c-0.1,0.2,0,0.5,0.1,0.7c0.1,0.1,0.2,0.2,0.3,0.3c0.2,0.2,0.4,0.3,0.6,0.2c0.2,0,0.4,0,0.5,0
			c0.1,0,0.3,0,0.4,0.1c0,0,0,0,0,0c0.1,0.1,0.2,0.2,0.2,0.3c0,0.1,0,0.3,0.1,0.5c0,0.2,0.2,0.4,0.4,0.5c0.1,0.1,0.3,0.1,0.4,0.2
			c0.2,0.1,0.5,0.1,0.7,0c0.1-0.1,0.3-0.2,0.4-0.3c0.1-0.1,0.3-0.1,0.4-0.1c0,0,0,0,0,0c0.1,0,0.3,0.1,0.3,0.2
			c0.1,0.1,0.2,0.3,0.3,0.4c0.1,0.2,0.3,0.3,0.6,0.3c0.1,0,0.3,0,0.4,0c0.2,0,0.5-0.1,0.6-0.3c0.1-0.1,0.2-0.3,0.3-0.4
			c0.1-0.1,0.2-0.2,0.3-0.2c0,0,0,0,0,0c0.1,0,0.3,0,0.4,0.1c0.1,0.1,0.3,0.2,0.4,0.3c0.2,0.1,0.5,0.1,0.7,0
			c0.1-0.1,0.3-0.1,0.4-0.2c0.2-0.1,0.4-0.3,0.4-0.5c0-0.2,0-0.4,0.1-0.5c0-0.1,0.1-0.3,0.2-0.3c0,0,0,0,0,0
			c0.1-0.1,0.2-0.1,0.4-0.1c0.1,0,0.3,0,0.5,0c0.2,0,0.5-0.1,0.6-0.2c0.1-0.1,0.2-0.2,0.3-0.3c0.1-0.2,0.2-0.4,0.1-0.7
			c-0.1-0.2-0.1-0.4-0.2-0.5c0-0.1,0-0.3,0-0.4c0,0,0,0,0,0c0.1-0.1,0.2-0.2,0.3-0.3c0.1-0.1,0.3-0.1,0.5-0.2
			c0.2-0.1,0.4-0.3,0.4-0.5c0-0.1,0.1-0.3,0.1-0.4c0-0.2,0-0.5-0.2-0.6c-0.1-0.1-0.3-0.3-0.4-0.4c-0.1-0.1-0.1-0.2-0.1-0.4
			c0,0,0,0,0,0c0-0.1,0.1-0.3,0.1-0.4c0.1-0.1,0.2-0.3,0.4-0.4c0.2-0.2,0.2-0.4,0.2-0.6c0-0.1-0.1-0.3-0.1-0.4
			c-0.1-0.2-0.2-0.4-0.4-0.5c-0.2-0.1-0.4-0.1-0.5-0.2c-0.1,0-0.2-0.1-0.3-0.3c0,0,0,0,0,0c-0.1-0.1-0.1-0.3,0-0.4
			c0-0.1,0.1-0.3,0.2-0.5c0.1-0.2,0-0.5-0.1-0.7c-0.1-0.1-0.2-0.2-0.3-0.3c-0.2-0.2-0.4-0.3-0.6-0.3c-0.2,0-0.4,0-0.5,0
			c-0.1,0-0.3,0-0.4-0.1c0,0,0,0,0,0c-0.1-0.1-0.2-0.2-0.2-0.3c0-0.1,0-0.3-0.1-0.5c0-0.2-0.2-0.4-0.4-0.5c-0.1-0.1-0.3-0.1-0.4-0.2
			c-0.2-0.1-0.5-0.1-0.7,0c-0.1,0.1-0.3,0.2-0.4,0.3c-0.1,0.1-0.3,0.1-0.4,0.1c0,0,0,0,0,0c-0.1,0-0.2-0.1-0.3-0.2
			C355.4,203.6,355.3,203.5,355.2,203.3z M430,214.4c-0.1,0.8,0,1.6,0.2,2.3c0.1,0.1,0.1,0.3,0.2,0.4c0.1,0.1,0.1,0.2,0.2,0.3
			c0-0.8,0-1.6,0-2.5C430.4,214.8,430.3,214.6,430,214.4C430.1,214.4,430,214.4,430,214.4z M476.1,214.4c-0.2,0.2-0.4,0.4-0.6,0.5
			c0,0.8,0,1.6,0,2.4c0.1-0.1,0.2-0.3,0.2-0.4c0.1-0.1,0.1-0.2,0.2-0.4C476.1,215.9,476.2,215.1,476.1,214.4z M452.5,207.7
			c-1,0-2,0-3,0c-2,0-4,0.1-6,0.2c-4.5,0.2-9,0.4-13.4,0.8v2.6c0.3,0.3,0.5,0.6,0.8,0.8c0.4,0.4,0.9,0.9,1.4,1.3
			c1.3,1.1,2.7,2.1,4.2,2.9c0.1,0,0.1,0,0.1,0.1c0.1,0.1,0.2,0.1,0.4,0.1c0.1,0,0.2,0.1,0.4,0.1c0.2,0,0.4,0,0.5,0.1
			c0.9,0.1,1.7,0.2,2.6,0.2c1.4,0.1,2.9,0,4.3,0c0.6,0,1.3-0.1,1.9-0.1c0.2,0,0.4,0,0.6-0.1c0.1,0,0.3,0,0.4,0c0,0,0.1,0,0.1,0
			c0.2,0,0.4-0.1,0.5-0.2c0.1-0.1,0.1-0.1,0.2-0.2c0.1-0.1,0.1-0.2,0.2-0.2c0.3-0.3,0.5-0.7,0.7-1.2c0.1-0.4,0.3-0.7,0.3-1.1
			c0.1-0.3,0.1-0.5,0.2-0.8c0.1-0.4,0.1-0.7,0.2-1.1c0-0.1,0-0.2,0.1-0.3c0.1-0.5,0.2-0.9,0.4-1.3l0,0c0,0,0.1-0.1,0.1-0.1
			c0-0.1,0.1-0.1,0.1-0.2c0.1-0.2,0.2-0.3,0.4-0.5c0.3-0.3,0.8-0.6,1.2-0.7c0.7-0.2,1.4-0.1,2,0.2c0.3,0.2,0.6,0.4,0.8,0.7
			c0.1,0.1,0.2,0.2,0.2,0.4c0,0,0,0.1,0.1,0.1c0,0,0,0,0,0c0,0,0,0.1,0.1,0.1c0.2,0.4,0.3,0.9,0.4,1.4c0.1,0.4,0.1,0.8,0.2,1.1
			c0,0.1,0.1,0.3,0.1,0.4c0,0.2,0.1,0.5,0.2,0.7c0.2,0.7,0.5,1.4,1,2c0.1,0.1,0.1,0.1,0.2,0.2c0.1,0.1,0.1,0.1,0.2,0.2
			c0.2,0.2,0.4,0.3,0.7,0.3c0.2,0,0.4,0.1,0.7,0.1c1.6,0.2,3.2,0.3,4.8,0.3c1.6,0,3.3-0.1,4.9-0.4c0.1,0,0.1,0,0.2,0
			c0.2,0,0.3-0.1,0.4-0.1c0.1,0,0.2-0.1,0.3-0.1c0.1-0.1,0.3-0.1,0.4-0.2c0.5-0.2,0.9-0.5,1.3-0.8c0.9-0.6,1.7-1.2,2.5-1.9
			c0.8-0.7,1.5-1.4,2.2-2.1l0,0v-2.6c-0.5,0-1.1-0.1-1.6-0.1c-3.8-0.3-7.7-0.5-11.5-0.7c-2.7-0.1-5.5-0.2-8.2-0.2
			C454,207.7,453.2,207.7,452.5,207.7z M445.3,211.2c1,0,1.8,0.8,1.8,1.8c0,1-0.8,1.8-1.8,1.8s-1.8-0.8-1.8-1.8
			C443.5,212,444.3,211.2,445.3,211.2z M460.8,211.2c1,0,1.8,0.8,1.8,1.8c0,1-0.8,1.8-1.8,1.8c-1,0-1.8-0.8-1.8-1.8
			C459,212,459.8,211.2,460.8,211.2z M354.4,205.9L354.4,205.9c2.3,0,4.2,1.9,4.2,4.2l0,0c0,2.3-1.9,4.2-4.2,4.2l0,0
			c-2.3,0-4.2-1.9-4.2-4.2l0,0C350.1,207.9,352,205.9,354.4,205.9z M519.5,203.1c0.1,0,0.2,0,0.2,0.1c0.1,0.1,0.3,0.2,0.4,0.3
			c0,0.1,0.1,0.1,0.1,0.2c0.1,0.3,0.2,0.5,0.4,0.8c0.5,1.2,1,2.3,1.5,3.5c0.5,1.3,1,2.5,1.4,3.8l0,0.1c0,0.1,0,0.2,0,0.2
			c0,0.2,0,0.3-0.1,0.5c-0.1,0.2-0.1,0.3-0.3,0.4c-0.3,0.3-0.7,0.4-1.1,0.2c-0.1,0-0.1-0.1-0.2-0.1c-0.1-0.1-0.3-0.2-0.3-0.3
			c0-0.1-0.1-0.1-0.1-0.2c-0.1-0.3-0.2-0.6-0.3-0.9c-0.4-1.2-0.8-2.3-1.3-3.5c-0.5-1.2-1-2.4-1.6-3.6l-0.1-0.2c0-0.2,0-0.3,0-0.5
			c0.1-0.3,0.3-0.6,0.6-0.7c0.2-0.1,0.3-0.1,0.5-0.1C519.3,203.1,519.4,203.1,519.5,203.1z M455.5,210.1L455.5,210.1
			C455.5,210.2,455.5,210.1,455.5,210.1C455.5,210.1,455.5,210.1,455.5,210.1C455.5,210.1,455.5,210.1,455.5,210.1
			C455.5,210.1,455.5,210.1,455.5,210.1z M455.5,210.1L455.5,210.1L455.5,210.1C455.4,210.1,455.5,210.1,455.5,210.1z M473.1,206.3
			c-0.2-1.4-0.5-2.8-1-4.2c-1.1-3-2.8-5.7-5.1-7.9c-2-1.9-4.5-3.5-7.1-4.4c-1.4-0.5-2.8-0.8-4.3-1c-0.7-0.1-1.5-0.1-2.2-0.2
			c-0.2,0-0.3,0-0.5,0c-0.8,0-1.6,0.1-2.3,0.1c-1.5,0.2-2.9,0.5-4.3,1c-2.8,1-5.5,2.7-7.6,4.8c-2.1,2.1-3.8,4.7-4.8,7.6
			c-0.5,1.4-0.8,2.8-1,4.2c0.2,0,0.4,0,0.6,0c0-0.2,0.1-0.4,0.1-0.6c0-0.2,0.1-0.4,0.1-0.5c0-0.1,0.1-0.2,0.1-0.4
			c0.3-0.8,0.7-1.5,1.4-2c0.1-0.1,0.2-0.2,0.4-0.2c0.2-0.1,0.3-0.1,0.5-0.2c0.2-0.1,0.5-0.1,0.8-0.1c0.2,0,0.4,0.1,0.7,0.1
			c0.8,0.1,1.6,0.2,2.4,0.2c1.7,0.1,3.4,0.1,5.1,0c3.7-0.2,7.3-1.1,10.6-2.7c1.4-0.7,2.8-1.5,4-2.5c0.4-0.3,0.7-0.6,1.1-0.9
			c0.3-0.3,0.6-0.6,0.9-0.9c0,0,0-0.1,0.1-0.1c0.1-0.1,0.1-0.1,0.2-0.2c0.1-0.1,0.3-0.2,0.4-0.2c0.1,0,0.1,0,0.2,0c0,0,0.1,0,0.1,0
			c0.1,0,0.1,0,0.2,0.1c0.3,0.1,0.5,0.3,0.6,0.6c0,0.1,0.1,0.2,0.1,0.3c0,0.1,0,0.1,0,0.2c0,0.1,0.1,0.2,0.1,0.4
			c0.3,0.9,0.6,1.7,1.1,2.4c0.4,0.6,0.8,1.1,1.3,1.5c0.2,0.1,0.3,0.3,0.5,0.4c0.1,0.1,0.2,0.1,0.4,0.2c0.1,0.1,0.1,0.1,0.3,0.2
			c0.3,0.2,0.5,0.3,0.8,0.5c0.8,0.6,1.5,1.2,2.1,2c0.4,0.5,0.7,1,1,1.5c0.2,0.3,0.3,0.6,0.4,1C472.2,206.2,472.7,206.2,473.1,206.3z
			 M469.3,206c-0.1-0.2-0.3-0.4-0.4-0.7c-0.6-0.8-1.3-1.5-2.2-2.1c-0.2-0.1-0.4-0.2-0.6-0.4c-0.1-0.1-0.3-0.2-0.4-0.2
			c-0.1,0-0.2-0.1-0.2-0.1c-0.3-0.2-0.5-0.3-0.7-0.5c-1-0.9-1.8-2-2.3-3.2c-0.1-0.2-0.2-0.4-0.3-0.6l0-0.1c-0.1,0.1-0.2,0.2-0.4,0.3
			c-0.1,0.1-0.2,0.2-0.3,0.3c-0.6,0.5-1.3,1-2,1.5c-0.6,0.4-1.3,0.8-1.9,1.2c-0.5,0.3-1.1,0.6-1.7,0.8c-3.8,1.7-7.9,2.5-12,2.6
			c-1.6,0-3.1,0-4.7-0.1c-0.5,0-1-0.1-1.5-0.1c-0.2,0-0.4-0.1-0.6-0.1c-0.1,0-0.1,0-0.2,0c0,0,0,0-0.1,0c-0.1,0-0.2,0.1-0.2,0.2
			c-0.1,0.1-0.2,0.3-0.3,0.4c-0.1,0.2-0.2,0.5-0.3,0.8c0,0.1-0.1,0.2-0.1,0.3c1.7-0.1,3.5-0.2,5.2-0.3c2.3-0.1,4.6-0.2,6.9-0.2
			c1.3,0,2.5,0,3.8,0c0.8,0,1.5,0,2.3,0c1,0,2,0,3,0c2.3,0,4.5,0.1,6.8,0.2C465.6,205.8,467.5,205.9,469.3,206z M391.7,195.2
			c0.2,0,0.3,0,0.5,0.2c0.3,0.2,0.5,0.6,0.5,1c0,0.2-0.1,0.3-0.2,0.5c-0.2,0.3-0.3,0.5-0.5,0.8c-0.6,1-1.3,2.1-1.8,3.2
			c-0.6,1.1-1.2,2.3-1.8,3.5l-0.1,0.2c-0.1,0.1-0.1,0.1-0.2,0.2c-0.1,0.1-0.3,0.2-0.4,0.2c-0.1,0-0.2,0-0.2,0c-0.4,0-0.8-0.2-1-0.6
			c0-0.1-0.1-0.1-0.1-0.2c0-0.2,0-0.3,0-0.5c0-0.1,0.1-0.2,0.1-0.2c0.1-0.3,0.3-0.5,0.4-0.8c0.6-1.2,1.2-2.4,1.9-3.6
			c0.6-1.1,1.3-2.2,1.9-3.3l0.1-0.1c0.1-0.1,0.1-0.1,0.2-0.2c0.1-0.1,0.3-0.2,0.4-0.3c0.1,0,0.2,0,0.2-0.1
			C391.6,195.2,391.7,195.2,391.7,195.2z M510.3,188.4c0.1,0,0.2,0,0.2,0.1c0.2,0.1,0.2,0.1,0.4,0.3c0.2,0.2,0.4,0.4,0.5,0.7
			c1.3,1.6,2.5,3.3,3.6,5c1.1,1.7,2.1,3.4,3.1,5.2l0.1,0.1c0,0.1,0.1,0.1,0.1,0.2c0,0.2,0.1,0.3,0,0.5c-0.1,0.4-0.4,0.7-0.8,0.9
			c-0.1,0-0.2,0-0.2,0c-0.2,0-0.3,0-0.5-0.1c-0.1-0.1-0.3-0.2-0.4-0.3c-0.1-0.1-0.1-0.1-0.1-0.2c-0.2-0.3-0.3-0.6-0.5-0.9
			c-0.8-1.4-1.7-2.9-2.6-4.2c-1.3-1.9-2.6-3.8-4-5.6l-0.1-0.2c-0.1-0.2-0.1-0.3-0.1-0.5c0-0.4,0.2-0.8,0.6-1
			c0.2-0.1,0.3-0.1,0.5-0.1C510.1,188.4,510.2,188.4,510.3,188.4z M365.5,189.6c0.3,0.3,0.3,0.3,0.5,0.6l0.1,0.4
			c0,0.1-0.1,0.3-0.1,0.4c0,0,0,0,0,0.1c0,0.1-0.1,0.2-0.1,0.3c-0.1,0.2-0.2,0.4-0.3,0.5c-0.1,0.3-0.3,0.5-0.4,0.8
			c-0.5,1-0.9,2-1.4,3c-0.4,1-0.9,2-1.3,3l-0.1,0.2l-0.2,0.4l-0.3,0.2l-0.4,0.1l-0.4-0.1c-0.1-0.1-0.3-0.1-0.4-0.2
			c-0.3-0.3-0.3-0.4-0.3-0.8l0.1-0.4c0.7-1.7,1.4-3.3,2.1-4.9c0.5-1,1-2,1.5-3l0-0.1c0.3-0.3,0.3-0.3,0.6-0.5l0.4-0.1
			C365.2,189.5,365.3,189.5,365.5,189.6z M404.3,180.3c0.2,0.1,0.3,0.1,0.4,0.2c0.3,0.2,0.5,0.7,0.5,1.1c0,0.1,0,0.2-0.1,0.2
			c-0.1,0.2-0.1,0.2-0.3,0.4c-0.2,0.2-0.5,0.5-0.7,0.7c-1.3,1.2-2.6,2.5-3.8,3.8c-1.4,1.6-2.8,3.2-4.1,4.9l-0.2,0.2
			c-0.1,0-0.1,0.1-0.2,0.1c-0.1,0.1-0.3,0.1-0.5,0.1c-0.1,0-0.2,0-0.2,0c-0.4-0.1-0.7-0.4-0.8-0.8c0-0.1,0-0.2,0-0.2
			c0-0.2,0-0.3,0.1-0.5c0-0.1,0.1-0.1,0.1-0.2c0.2-0.2,0.3-0.5,0.5-0.7c1.2-1.6,2.5-3.1,3.9-4.6c1.4-1.5,2.9-3,4.4-4.4l0.1-0.1
			c0.1,0,0.1-0.1,0.2-0.1c0.2-0.1,0.3-0.1,0.5-0.1C404.1,180.3,404.2,180.3,404.3,180.3z M538.4,183.3c0.1,0.1,0.3,0.1,0.4,0.2
			c0.2,0.2,0.3,0.4,0.5,0.6c0.2,0.3,0.3,0.5,0.5,0.8c0.5,0.9,1,1.7,1.5,2.6l0.1,0.1c0.1,0.4,0.1,0.4,0.1,0.8l-0.2,0.4l-0.3,0.3
			l-0.4,0.1c-0.1,0-0.3,0-0.4,0c-0.1,0-0.3-0.1-0.4-0.2c-0.2-0.2-0.2-0.3-0.3-0.4c0-0.1-0.1-0.2-0.1-0.3c-0.1-0.2-0.2-0.3-0.3-0.5
			c-0.1-0.3-0.3-0.5-0.4-0.8c-0.4-0.7-0.8-1.4-1.2-2l0,0l-0.1-0.4l0-0.4l0.2-0.4l0.3-0.3l0.4-0.1
			C538.1,183.2,538.3,183.2,538.4,183.3z M521.1,175.1c-0.1-0.3-0.4-0.6-0.7-0.6c0,0-0.1,0-0.1,0c-0.3,0-0.6,0.2-0.7,0.6
			c0,0,0,0,0,0c-0.1,0.3-0.3,0.5-0.5,0.6c-0.1,0-0.2,0.1-0.3,0.1c-0.3,0.1-0.6,0-0.7-0.2c0,0,0,0,0,0c-0.2-0.3-0.6-0.3-0.9-0.2
			c0,0-0.1,0-0.1,0.1c-0.3,0.2-0.4,0.5-0.3,0.8c0,0,0,0,0,0c0.1,0.3,0,0.6-0.2,0.7c-0.1,0.1-0.2,0.2-0.2,0.2
			c-0.2,0.2-0.5,0.3-0.7,0.2c0,0,0,0,0,0c-0.3-0.1-0.7,0-0.8,0.3c0,0,0,0.1-0.1,0.1c-0.2,0.3-0.1,0.7,0.2,0.9c0,0,0,0,0,0
			c0.2,0.2,0.3,0.5,0.2,0.7c0,0.1-0.1,0.2-0.1,0.3c-0.1,0.3-0.3,0.5-0.6,0.5c0,0,0,0,0,0c-0.3,0.1-0.6,0.4-0.6,0.7c0,0,0,0.1,0,0.1
			c0,0.3,0.2,0.6,0.6,0.7c0,0,0,0,0,0c0.3,0.1,0.5,0.3,0.6,0.5c0,0.1,0.1,0.2,0.1,0.3c0.1,0.3,0,0.6-0.2,0.7c0,0,0,0,0,0
			c-0.3,0.2-0.3,0.6-0.2,0.9c0,0,0,0.1,0.1,0.1c0.2,0.3,0.5,0.4,0.8,0.3c0,0,0,0,0,0c0.3-0.1,0.6,0,0.7,0.2c0.1,0.1,0.2,0.2,0.2,0.2
			c0.2,0.2,0.3,0.5,0.2,0.7c0,0,0,0,0,0c-0.1,0.3,0,0.7,0.3,0.8c0,0,0.1,0,0.1,0.1c0.3,0.2,0.7,0.1,0.9-0.2c0,0,0,0,0,0
			c0.2-0.2,0.5-0.3,0.7-0.2c0.1,0,0.2,0.1,0.3,0.1c0.3,0.1,0.5,0.3,0.5,0.6c0,0,0,0,0,0c0.1,0.3,0.4,0.6,0.7,0.6c0,0,0.1,0,0.1,0
			c0.3,0,0.6-0.2,0.7-0.6c0,0,0,0,0,0c0.1-0.3,0.3-0.5,0.5-0.6c0.1,0,0.2-0.1,0.3-0.1c0.3-0.1,0.6,0,0.7,0.2c0,0,0,0,0,0
			c0.2,0.3,0.6,0.3,0.9,0.2c0,0,0.1,0,0.1-0.1c0.3-0.2,0.4-0.5,0.3-0.8c0,0,0,0,0,0c-0.1-0.3,0-0.6,0.2-0.7c0.1-0.1,0.2-0.2,0.2-0.2
			c0.2-0.2,0.5-0.3,0.7-0.2c0,0,0,0,0,0c0.3,0.1,0.7,0,0.8-0.3c0,0,0-0.1,0.1-0.1c0.2-0.3,0.1-0.7-0.2-0.9c0,0,0,0,0,0
			c-0.2-0.2-0.3-0.5-0.2-0.7c0-0.1,0.1-0.2,0.1-0.3c0.1-0.3,0.3-0.5,0.6-0.5c0,0,0,0,0,0c0.3-0.1,0.6-0.4,0.6-0.7c0,0,0-0.1,0-0.1
			c0-0.3-0.2-0.6-0.6-0.7c0,0,0,0,0,0c-0.3-0.1-0.5-0.3-0.6-0.5c0-0.1-0.1-0.2-0.1-0.3c-0.1-0.3,0-0.6,0.2-0.7c0,0,0,0,0,0
			c0.3-0.2,0.3-0.6,0.2-0.9c0,0,0-0.1-0.1-0.1c-0.2-0.3-0.5-0.4-0.8-0.3c0,0,0,0,0,0c-0.3,0.1-0.6,0-0.7-0.2
			c-0.1-0.1-0.2-0.2-0.2-0.2c-0.2-0.2-0.3-0.5-0.2-0.7c0,0,0,0,0,0c0.1-0.3,0-0.7-0.3-0.8c0,0-0.1,0-0.1-0.1
			c-0.3-0.2-0.7-0.1-0.9,0.2c0,0,0,0,0,0c-0.2,0.2-0.5,0.3-0.7,0.2c-0.1,0-0.2-0.1-0.3-0.1C521.3,175.6,521.1,175.4,521.1,175.1
			C521.1,175.1,521.1,175.1,521.1,175.1z M371,180.2l0.3,0.3l0.2,0.4l0,0.4l-0.2,0.4c-0.2,0.3-0.4,0.6-0.6,0.9
			c-0.2,0.2-0.3,0.5-0.5,0.7c-0.4,0.7-0.8,1.3-1.2,2l-0.3,0.3c-0.3,0.2-0.4,0.3-0.8,0.2c-0.1,0-0.3-0.1-0.4-0.1l-0.3-0.3
			c-0.2-0.4-0.2-0.4-0.2-0.8l0.1-0.4c0.7-1.2,1.5-2.4,2.2-3.6l0.1-0.2l0.3-0.3l0.4-0.2l0.4,0C370.7,180.1,370.9,180.2,371,180.2z
			 M499.6,177.6c0.2,0.1,0.2,0.1,0.4,0.2c0.2,0.2,0.5,0.4,0.7,0.6c1,0.8,1.9,1.6,2.8,2.5c1,0.9,1.9,1.8,2.8,2.8l0.1,0.1
			c0,0.1,0.1,0.1,0.1,0.2c0.1,0.1,0.1,0.3,0.2,0.5c0,0.4-0.2,0.8-0.5,1c-0.1,0-0.1,0.1-0.2,0.1c-0.2,0.1-0.3,0.1-0.5,0
			c-0.2,0-0.3-0.1-0.5-0.2c-0.1,0-0.1-0.1-0.2-0.2c-0.2-0.2-0.4-0.4-0.7-0.7c-0.9-0.9-1.7-1.7-2.6-2.5c-1-0.9-1.9-1.7-2.9-2.5
			l-0.1,0c-0.1-0.2-0.2-0.2-0.3-0.4c0-0.1-0.1-0.2-0.1-0.2c0-0.1,0-0.2,0-0.2c0-0.4,0.3-0.8,0.6-1c0.2-0.1,0.3-0.1,0.5-0.1
			C499.5,177.6,499.6,177.6,499.6,177.6z M520.3,177.6L520.3,177.6c1.9,0,3.4,1.5,3.4,3.4l0,0c0,1.9-1.5,3.4-3.4,3.4l0,0
			c-1.9,0-3.4-1.5-3.4-3.4l0,0C516.9,179.2,518.4,177.6,520.3,177.6z M382.8,178.1c-0.4-0.3-1-0.1-1.2,0.3l-1,1.5
			c-0.3,0.4-0.1,1,0.3,1.2l4.6,2.9c0.4,0.3,1,0.1,1.2-0.3l1-1.5c0.3-0.4,0.1-1-0.3-1.2L382.8,178.1z M529.9,171
			c0.1,0.1,0.2,0.2,0.3,0.3c0,0,0,0,0,0c0.1,0.1,0.1,0.2,0.2,0.2c0.1,0.2,0.3,0.3,0.4,0.5c0.4,0.5,0.8,0.9,1.1,1.4
			c1.2,1.6,2.4,3.2,3.6,4.8l0,0c0.2,0.4,0.2,0.4,0.2,0.8l-0.2,0.4c-0.3,0.3-0.3,0.4-0.7,0.5c-0.1,0-0.3,0-0.4,0l-0.4-0.2
			c-0.1-0.1-0.2-0.2-0.3-0.3c0,0,0,0,0,0c-0.1-0.1-0.1-0.2-0.2-0.2c-0.1-0.2-0.2-0.3-0.3-0.5c-0.2-0.2-0.3-0.5-0.5-0.7
			c-0.6-0.9-1.3-1.7-1.9-2.6c-0.7-0.9-1.5-1.8-2.2-2.8l0,0c-0.1-0.1-0.2-0.2-0.2-0.4c-0.1-0.4,0-0.5,0.1-0.8l0.3-0.3
			c0.4-0.2,0.4-0.2,0.8-0.2C529.6,170.9,529.7,170.9,529.9,171z M414.8,172.4c0.2,0.1,0.3,0.1,0.4,0.3c0.1,0.1,0.1,0.1,0.2,0.2
			c0.2,0.3,0.2,0.8,0,1.2c-0.1,0.2-0.2,0.2-0.3,0.3c-0.3,0.2-0.5,0.3-0.8,0.5c-1.1,0.7-2.2,1.4-3.2,2.2c-1,0.7-2,1.5-2.9,2.2
			l-0.1,0.1c-0.1,0-0.1,0.1-0.2,0.1c-0.1,0.1-0.3,0.1-0.5,0.1c-0.2,0-0.3,0-0.5-0.1c-0.1,0-0.1-0.1-0.2-0.1
			c-0.3-0.3-0.5-0.7-0.4-1.1c0-0.2,0.1-0.3,0.2-0.4c0-0.1,0.1-0.1,0.2-0.2c0.3-0.2,0.5-0.4,0.8-0.6c1-0.8,2-1.5,3-2.3
			c1.1-0.8,2.2-1.5,3.3-2.2l0,0c0.1,0,0.1-0.1,0.2-0.1c0.2-0.1,0.3-0.1,0.5-0.1C414.6,172.4,414.7,172.4,414.8,172.4z M485,168.3
			l0.2,0.1c0.3,0.1,0.6,0.3,0.9,0.4c0.9,0.4,1.7,0.9,2.6,1.3c1.7,0.9,3.4,1.9,5,3c0.7,0.4,1.4,0.9,2,1.4c0.2,0.2,0.5,0.3,0.7,0.5
			c0.1,0.1,0.2,0.2,0.3,0.3c0.1,0.1,0.1,0.1,0.1,0.2c0.2,0.4,0.2,0.8-0.1,1.2c0,0.1-0.1,0.1-0.2,0.2c-0.1,0.1-0.3,0.2-0.4,0.2
			c-0.2,0.1-0.5,0-0.7,0c-0.1,0-0.1-0.1-0.2-0.1c-0.2-0.2-0.4-0.3-0.7-0.5c-1.6-1.2-3.3-2.3-5.1-3.3c-1.7-1-3.4-1.9-5.2-2.8l-0.1,0
			c-0.1,0-0.1-0.1-0.2-0.1c-0.1-0.1-0.2-0.2-0.3-0.4c0-0.1-0.1-0.1-0.1-0.2c0-0.1,0-0.2,0-0.2c0-0.4,0.2-0.8,0.6-1
			c0.2-0.1,0.3-0.1,0.5-0.1C484.8,168.3,484.9,168.3,485,168.3z M453.5,148c2,0,3.9,0.1,5.9,0.2c4.1,0.3,8.1,0.9,12.1,1.7
			c4.3,0.9,8.5,2.2,12.6,3.7c2.1,0.8,4.2,1.7,6.3,2.7l0.2,0.1c0.1,0.1,0.3,0.1,0.4,0.2c0.1,0.1,0.2,0.3,0.3,0.4
			c0,0.1,0.1,0.2,0.1,0.3s0,0.2,0,0.3c0,0.4-0.2,0.7-0.5,0.9c-0.1,0-0.2,0.1-0.2,0.1c-0.2,0-0.3,0.1-0.5,0c-0.1,0-0.2-0.1-0.2-0.1
			c-0.3-0.1-0.6-0.3-0.9-0.4c-0.9-0.4-1.9-0.8-2.8-1.2c-2-0.8-4-1.6-6-2.3c-5.7-1.9-11.6-3.2-17.5-3.9c-6.2-0.7-12.4-0.7-18.6,0
			c-10.9,1.2-21.5,4.5-31.1,9.7c-4.7,2.5-9.1,5.5-13.2,8.8c-2.3,1.9-4.5,3.9-6.6,6l-0.2,0.2c-0.2,0.1-0.3,0.1-0.5,0.2
			c-0.1,0-0.2,0-0.3,0c-0.3-0.1-0.6-0.3-0.8-0.6c0-0.1-0.1-0.2-0.1-0.2c0-0.1,0-0.2,0-0.3c0-0.2,0.1-0.3,0.2-0.5
			c0-0.1,0.1-0.1,0.2-0.2c0.2-0.2,0.5-0.5,0.7-0.7c1.9-1.8,3.8-3.6,5.9-5.3c3.9-3.2,8.1-6.1,12.5-8.6c9.3-5.2,19.6-8.7,30.1-10.2
			c2.6-0.4,5.2-0.6,7.9-0.8c1.3-0.1,2.7-0.1,4-0.1C453,148,453.3,148,453.5,148z M432.3,164.3c0.1,0,0.2,0,0.2,0.1
			c0.2,0.1,0.3,0.2,0.4,0.3c0.1,0.1,0.1,0.1,0.1,0.2c0,0.1,0.1,0.1,0.1,0.2c0.1,0.4,0,0.8-0.3,1.1c-0.2,0.1-0.2,0.2-0.4,0.2
			c-0.3,0.1-0.6,0.2-0.9,0.3c-1.9,0.6-3.7,1.3-5.6,2c-1.8,0.7-3.6,1.6-5.3,2.5l0,0c-0.1,0-0.1,0.1-0.2,0.1c-0.2,0-0.3,0-0.5,0
			c-0.1,0-0.2,0-0.2-0.1c-0.4-0.2-0.6-0.5-0.6-1c0-0.2,0-0.3,0.1-0.5c0.1-0.1,0.2-0.3,0.3-0.4c0.1-0.1,0.1-0.1,0.2-0.1
			c0.3-0.1,0.6-0.3,0.8-0.4c1.8-0.9,3.7-1.7,5.5-2.5c1.9-0.8,3.8-1.4,5.8-2l0.1,0l0.2,0C432.2,164.3,432.2,164.3,432.3,164.3z
			 M498.2,160.6l0.2,0.1c0.3,0.2,0.5,0.3,0.8,0.5c0.8,0.5,1.6,1,2.4,1.6c1.7,1.1,3.3,2.3,4.9,3.5c0.6,0.5,1.2,1,1.8,1.5
			c0.2,0.2,0.4,0.3,0.6,0.5c0.1,0.1,0.3,0.2,0.4,0.4c0.1,0.1,0.1,0.1,0.1,0.2c0.1,0.3,0.1,0.7-0.1,1c0,0.1-0.1,0.1-0.2,0.2
			c-0.1,0.1-0.3,0.2-0.5,0.3c-0.3,0.1-0.5,0-0.8-0.1c-0.1,0-0.1-0.1-0.2-0.1c-0.3-0.2-0.5-0.4-0.8-0.6c-1.5-1.2-3.1-2.4-4.7-3.6
			c-1.6-1.1-3.2-2.2-4.9-3.2l-0.1-0.1c-0.2-0.1-0.2-0.2-0.4-0.4c0-0.1-0.1-0.2-0.1-0.2c-0.1-0.3,0-0.7,0.2-1
			c0.1-0.1,0.1-0.1,0.2-0.2c0.1-0.1,0.1-0.1,0.2-0.1c0.2-0.1,0.3-0.1,0.5-0.1C498.1,160.6,498.2,160.6,498.2,160.6z M470.7,163.2
			c1.8,0.4,3.6,0.9,5.4,1.5c1,0.3,2,0.7,3,1l0,0c0.1,0,0.1,0.1,0.2,0.1c0.1,0.1,0.3,0.2,0.3,0.3c0.2,0.4,0.2,0.8,0,1.2
			c0,0.1-0.1,0.1-0.2,0.2c-0.1,0.1-0.3,0.2-0.4,0.2c-0.2,0.1-0.3,0.1-0.5,0c-0.1,0-0.2,0-0.2-0.1c-0.3-0.1-0.6-0.2-0.9-0.3
			c-1.2-0.4-2.4-0.8-3.6-1.2c-1.2-0.4-2.4-0.7-3.6-1l-0.1,0c-0.1,0-0.2,0-0.2-0.1c-0.1-0.1-0.3-0.2-0.4-0.3c0-0.1-0.1-0.1-0.1-0.2
			c-0.2-0.4-0.1-0.8,0.1-1.1c0.1-0.1,0.1-0.1,0.2-0.2c0.1-0.1,0.3-0.2,0.4-0.2c0.1,0,0.2,0,0.2,0
			C470.6,163.2,470.7,163.2,470.7,163.2z M445.2,161.7c0.1,0,0.2,0.1,0.2,0.1c0.1,0.1,0.3,0.2,0.3,0.3c0,0.1,0.1,0.1,0.1,0.2
			c0.1,0.4,0,0.8-0.3,1.1c-0.1,0.1-0.1,0.1-0.2,0.2c-0.2,0.1-0.2,0.1-0.5,0.2c-0.3,0-0.6,0.1-0.9,0.1c-1.3,0.2-2.5,0.4-3.8,0.6
			c-1.2,0.2-2.5,0.5-3.7,0.8l-0.1,0c-0.1,0-0.2,0-0.2,0c-0.2,0-0.3,0-0.5-0.1c-0.1-0.1-0.3-0.2-0.4-0.3c-0.3-0.3-0.3-0.8-0.1-1.1
			c0-0.1,0.1-0.1,0.1-0.2c0.1-0.1,0.2-0.2,0.4-0.3c0.1,0,0.2-0.1,0.2-0.1c0.3-0.1,0.6-0.1,1-0.2c1.2-0.3,2.4-0.5,3.6-0.7
			c1.2-0.2,2.4-0.4,3.7-0.5l0.2,0c0.2,0,0.2,0,0.4,0C445.1,161.7,445.2,161.7,445.2,161.7z M453.5,161.2c2.1,0,4.3,0.1,6.4,0.3
			c2.2,0.2,4.3,0.5,6.5,0.9l0.1,0c0.1,0,0.2,0,0.2,0.1c0.1,0.1,0.3,0.2,0.4,0.3c0.1,0.1,0.1,0.1,0.1,0.2c0.2,0.4,0.2,0.8-0.1,1.2
			c-0.1,0.1-0.2,0.2-0.4,0.3c-0.1,0.1-0.3,0.1-0.5,0.1c-0.1,0-0.2,0-0.2,0c-0.3-0.1-0.6-0.1-0.9-0.2c-2.2-0.4-4.5-0.6-6.7-0.8
			c-2.3-0.2-4.6-0.2-6.9-0.2l0,0c-0.1,0-0.2,0-0.2,0c-0.2,0-0.3-0.1-0.4-0.2c-0.3-0.2-0.5-0.7-0.4-1.1c0-0.1,0-0.2,0.1-0.2
			c0.1-0.1,0.2-0.3,0.3-0.4c0.1-0.1,0.3-0.2,0.4-0.2c0.1,0,0.2,0,0.2,0c0.3,0,0.7,0,1,0C452.7,161.2,453.1,161.1,453.5,161.2z
			 M399.6,151.1l0.4,0.2l0.3,0.3l0.2,0.4l0,0.4l-0.2,0.4l-0.3,0.3c-0.3,0.2-0.6,0.4-0.9,0.6c-0.2,0.2-0.5,0.3-0.7,0.5
			c-0.9,0.6-1.8,1.2-2.6,1.9c-0.9,0.6-1.7,1.3-2.6,1.9l-0.2,0.1c-0.4,0.2-0.4,0.2-0.8,0.2l-0.4-0.1l-0.3-0.3l-0.2-0.4
			c0-0.4-0.1-0.5,0.1-0.8c0.1-0.2,0.3-0.3,0.4-0.5c0.1-0.1,0.2-0.1,0.2-0.2c0.3-0.2,0.6-0.5,1-0.7c1.8-1.4,3.7-2.7,5.7-4l0.1-0.1
			l0.4-0.2C399.3,151.1,399.4,151.1,399.6,151.1z M501.6,147.6c1.3,0.7,2.5,1.4,3.7,2.2l0.1,0l0.3,0.3l0.2,0.4c0,0.1,0,0.3,0,0.4
			c0,0.3-0.2,0.5-0.4,0.7c-0.1,0.1-0.3,0.1-0.4,0.2l-0.4,0c-0.1,0-0.3-0.1-0.4-0.1c0,0,0,0-0.1,0c-0.1-0.1-0.2-0.1-0.3-0.2
			c-0.2-0.1-0.3-0.2-0.5-0.3c-0.3-0.2-0.5-0.3-0.8-0.5c-0.7-0.4-1.4-0.8-2.1-1.2l-0.1,0c-0.3-0.3-0.3-0.3-0.5-0.6l0-0.4
			c0-0.1,0.1-0.3,0.1-0.4c0.2-0.3,0.3-0.3,0.6-0.5l0.4,0C501.4,147.5,501.5,147.5,501.6,147.6z M409.1,145.7
			c0.4,0.2,0.4,0.2,0.6,0.5l0.1,0.4c-0.1,0.4-0.1,0.4-0.3,0.8l-0.3,0.3c-0.3,0.2-0.7,0.3-1,0.5c-0.3,0.1-0.5,0.3-0.8,0.4
			c-0.6,0.3-1.2,0.7-1.8,1l-0.2,0.1c-0.1,0-0.3,0.1-0.4,0.1c-0.3,0-0.6,0-0.8-0.2c-0.1-0.1-0.2-0.2-0.3-0.3l-0.1-0.4l0-0.4l0.2-0.4
			c0.1-0.1,0.2-0.2,0.3-0.3c0.1,0,0.1-0.1,0.2-0.1c0.2-0.1,0.4-0.2,0.5-0.3c0.4-0.2,0.9-0.5,1.3-0.7c0.4-0.2,0.9-0.5,1.3-0.7
			c0.1,0,0.2-0.1,0.3-0.1c0.1,0,0.1-0.1,0.2-0.1c0.1,0,0.3-0.1,0.4-0.1C408.8,145.7,409,145.7,409.1,145.7z M424.6,131.9
			c0.1,0,0.2,0,0.3,0.1c0.1,0,0.1,0.1,0.2,0.1c0.1,0.1,0.1,0.1,0.2,0.2c0.4,0.4,0.8,0.8,1.2,1.2c0.4,0.4,0.7,0.9,0.9,1.4
			c0.1,0.2,0.3,0.5,0.4,0.7l0,0.1c0,0.1,0,0.1,0,0.2c0,0.2,0,0.4,0,0.6c0,0.1-0.1,0.2-0.1,0.2l-0.6,0.9c0,0.1,0,0.1,0,0.2
			c0,0.1,0,0.1,0.1,0.3c0.1,0.4,0.1,0.9,0.1,1.4c0,0.3,0,0.6,0,1c0,0.2,0,0.4-0.1,0.5l0,0l0.6,0.9l0,0.1c0,0.1,0,0.1,0.1,0.1
			c0.1,0.2,0.1,0.4,0.1,0.6c0,0.1,0,0.2-0.1,0.2c0,0.1,0,0.1-0.1,0.3c-0.2,0.5-0.5,1-0.8,1.5c-0.3,0.5-0.6,0.9-1,1.3
			c-0.2,0.2-0.4,0.4-0.6,0.6l-0.1,0.1c-0.1,0-0.1,0.1-0.1,0.1c-0.2,0.1-0.4,0.1-0.5,0.1c-0.1,0-0.2,0-0.2,0l-1.1-0.3
			c-0.1,0-0.1,0.1-0.2,0.1c-0.1,0.1-0.1,0.1-0.2,0.1c-0.4,0.2-0.9,0.4-1.4,0.6c-0.4,0.1-0.9,0.2-1.3,0.3l0,0l-0.7,0.9l-0.1,0.1
			c-0.1,0.1-0.1,0.1-0.2,0.2c-0.2,0.1-0.3,0.2-0.5,0.2c-0.1,0-0.1,0-0.2,0c-0.1,0-0.1,0-0.3,0c-0.6,0-1.1-0.1-1.6-0.3
			c-0.5-0.1-1.1-0.3-1.6-0.6c-0.2-0.1-0.5-0.2-0.7-0.4l-0.1,0c-0.1,0-0.1-0.1-0.2-0.2c-0.1-0.1-0.2-0.3-0.3-0.5c0-0.1,0-0.1,0-0.2
			l-0.1-1.1c0,0-0.1-0.1-0.1-0.1c-0.1-0.1-0.1-0.1-0.2-0.2c-0.4-0.3-0.7-0.7-1-1.1c-0.3-0.4-0.5-0.8-0.7-1.2l0,0l-1-0.4l-0.1,0
			c-0.1,0-0.1,0-0.1-0.1c-0.2-0.1-0.3-0.2-0.4-0.4c0-0.1-0.1-0.1-0.1-0.2c0-0.1,0-0.1-0.1-0.3c-0.1-0.5-0.2-1.1-0.2-1.6
			c0-0.6,0-1.1,0-1.7c0-0.3,0.1-0.5,0.1-0.8l0-0.1c0-0.1,0.1-0.2,0.1-0.2c0.1-0.2,0.2-0.3,0.4-0.4c0.1,0,0.1,0,0.1-0.1l1-0.4
			c0-0.1,0-0.1,0.1-0.2c0.1-0.1,0.1-0.1,0.1-0.2c0.2-0.4,0.4-0.8,0.7-1.2c0.3-0.4,0.6-0.8,1-1.1l0,0l0-1.1l0-0.1c0-0.1,0-0.1,0-0.2
			c0-0.2,0.1-0.4,0.3-0.5c0.1-0.1,0.1-0.1,0.2-0.2c0.1-0.1,0.1-0.1,0.2-0.1c0.5-0.3,1-0.5,1.5-0.7c0.5-0.2,1-0.4,1.6-0.5
			c0.3-0.1,0.5-0.1,0.8-0.1l0.1,0c0.1,0,0.2,0,0.2,0c0.2,0,0.4,0.1,0.5,0.2c0.1,0,0.1,0.1,0.1,0.1l0.7,0.8c0.1,0,0.1,0,0.2,0
			c0.1,0,0.1,0,0.3,0c0.4,0.1,0.9,0.2,1.3,0.3c0.3,0.1,0.6,0.2,0.9,0.3c0.2,0.1,0.3,0.2,0.5,0.2l0,0l1.1-0.3l0.1,0
			c0.1,0,0.1,0,0.2,0C424.4,131.9,424.4,131.9,424.6,131.9C424.5,131.9,424.6,131.9,424.6,131.9z M487.7,141.2
			c1.3,0.5,2.6,1,3.9,1.5c1.2,0.5,2.4,1,3.6,1.6l0.3,0.1c0.3,0.1,0.3,0.2,0.6,0.4l0.2,0.4c0.1,0.4,0.1,0.4,0,0.8l-0.3,0.3
			c-0.4,0.2-0.4,0.2-0.8,0.3l-0.4-0.1c-0.3-0.1-0.5-0.2-0.8-0.4c-0.3-0.1-0.5-0.2-0.8-0.4c-1-0.4-2-0.9-3-1.3
			c-1.1-0.4-2.2-0.9-3.3-1.3l-0.4-0.2l-0.2-0.3l-0.1-0.4c0.1-0.4,0.1-0.4,0.3-0.8l0.3-0.2l0.4-0.1
			C487.4,141.1,487.5,141.2,487.7,141.2z M417.8,132.4c-0.3,0.1-0.6,0.1-0.8,0.2c-0.4,0.1-0.8,0.3-1.2,0.5l0,1c0,0.1,0,0.1,0,0.2
			c0,0.1-0.1,0.3-0.1,0.4c0,0.1-0.1,0.1-0.2,0.2c-0.1,0.1-0.1,0.1-0.2,0.2c-0.1,0.1-0.3,0.3-0.4,0.4c-0.3,0.3-0.5,0.7-0.8,1
			c-0.2,0.3-0.3,0.7-0.5,1l0,0.1c0,0.1,0,0.1-0.1,0.1c-0.1,0.1-0.2,0.2-0.3,0.3c-0.1,0-0.1,0.1-0.2,0.1l-0.9,0.4
			c0,0.4-0.1,0.8-0.1,1.1c0,0.4,0.1,0.8,0.1,1.1l0.9,0.3c0.1,0,0.2,0.1,0.2,0.1c0.1,0.1,0.2,0.2,0.3,0.3c0,0.1,0.1,0.1,0.1,0.1
			c0,0.1,0.1,0.2,0.1,0.3c0.1,0.2,0.2,0.4,0.3,0.5c0.2,0.4,0.5,0.7,0.8,1c0.3,0.3,0.5,0.5,0.8,0.7l0.1,0.1c0.1,0.1,0.1,0.1,0.1,0.1
			c0.1,0.1,0.2,0.2,0.2,0.4c0,0.1,0,0.2,0,0.2l0.1,1c0.3,0.2,0.7,0.3,1.1,0.4c0.4,0.1,0.7,0.2,1.1,0.2l0.6-0.8
			c0-0.1,0.1-0.1,0.1-0.1c0.1-0.1,0.2-0.2,0.3-0.2c0.1,0,0.2-0.1,0.2-0.1c0.1,0,0.2,0,0.3,0c0.2,0,0.4-0.1,0.6-0.1
			c0.5-0.1,0.9-0.2,1.3-0.4c0.3-0.1,0.6-0.3,0.9-0.5l0.1,0c0.1,0,0.1-0.1,0.2-0.1c0.1,0,0.3-0.1,0.4,0c0.1,0,0.1,0,0.2,0l0.9,0.2
			c0.3-0.3,0.5-0.6,0.7-0.9c0.2-0.3,0.4-0.6,0.6-1l-0.6-0.8c0-0.1-0.1-0.1-0.1-0.1c-0.1-0.1-0.1-0.3-0.1-0.4c0-0.1,0-0.2,0-0.2
			c0-0.1,0-0.2,0.1-0.3c0-0.2,0.1-0.4,0.1-0.6c0-0.4,0-0.9,0-1.3c0-0.4-0.1-0.7-0.2-1.1l0-0.1c0-0.1,0-0.2,0-0.2
			c0-0.1,0-0.3,0.1-0.4c0-0.1,0-0.1,0.1-0.1l0.5-0.8c-0.2-0.3-0.4-0.7-0.6-1c-0.2-0.3-0.5-0.6-0.8-0.8l-0.9,0.3c-0.1,0-0.2,0-0.2,0
			c-0.1,0-0.3,0-0.4-0.1c-0.1,0-0.1,0-0.2-0.1c-0.1,0-0.2-0.1-0.3-0.1c-0.2-0.1-0.4-0.2-0.5-0.3c-0.4-0.2-0.8-0.3-1.2-0.4
			c-0.4-0.1-0.7-0.1-1.1-0.1l-0.1,0c-0.1,0-0.1,0-0.2,0c-0.1,0-0.3-0.1-0.4-0.2c-0.1,0-0.1-0.1-0.2-0.2L417.8,132.4
			C417.8,132.3,417.8,132.4,417.8,132.4z M419.3,135.6c0.2,0,0.3,0,0.5,0c0.4,0.1,0.8,0.2,1.1,0.4c0.4,0.2,0.8,0.5,1.2,0.9
			c0.3,0.3,0.5,0.7,0.7,1.1c0.1,0.4,0.2,0.8,0.3,1.2c0,0.5-0.1,1-0.3,1.5c-0.2,0.6-0.6,1.1-1.1,1.6c-0.3,0.2-0.6,0.4-1,0.6
			c-0.5,0.2-1,0.3-1.5,0.3c-0.5,0-0.9-0.1-1.4-0.3c-0.4-0.2-0.8-0.4-1.2-0.7c-0.3-0.3-0.6-0.6-0.8-0.9c-0.2-0.3-0.3-0.7-0.4-1.1
			c-0.1-0.4-0.1-0.7-0.1-1.1c0.1-0.8,0.4-1.6,1-2.2c0.3-0.4,0.7-0.7,1.2-0.9c0.3-0.2,0.7-0.3,1.1-0.3c0.2,0,0.3,0,0.5,0
			C419.2,135.6,419.2,135.6,419.3,135.6z M419.2,137.8c-0.2,0-0.5,0.1-0.7,0.2c-0.2,0.1-0.4,0.2-0.5,0.4c-0.3,0.4-0.5,0.9-0.4,1.4
			c0,0.2,0.1,0.4,0.2,0.5c0.1,0.1,0.2,0.3,0.3,0.4c0.1,0.1,0.3,0.2,0.5,0.3c0.2,0.1,0.4,0.1,0.6,0.1c0.2,0,0.4,0,0.6-0.1
			c0.2-0.1,0.3-0.1,0.5-0.3c0.4-0.3,0.6-0.8,0.6-1.3c0-0.2,0-0.4-0.1-0.5c-0.1-0.2-0.2-0.4-0.3-0.5c-0.1-0.2-0.3-0.3-0.5-0.4
			c-0.2-0.1-0.4-0.2-0.7-0.2C419.3,137.8,419.2,137.8,419.2,137.8z M475.5,133.6c0.1-0.5-0.2-1-0.7-1.1l-1.7-0.4
			c-0.5-0.1-1,0.2-1.1,0.7l-1.2,5.3c-0.1,0.5,0.2,1,0.7,1.1l1.7,0.4c0.5,0.1,1-0.2,1.1-0.7L475.5,133.6z M448.7,135.3l0.4,0.2
			l0.3,0.3l0.1,0.4l-0.1,0.4l-0.2,0.4l-0.3,0.3c-0.1,0-0.3,0.1-0.4,0.1c0,0-0.1,0-0.1,0c-0.1,0-0.2,0-0.3,0c-0.2,0-0.4,0-0.6,0
			c-0.3,0-0.6,0-0.9,0.1c-1,0.1-2.1,0.2-3.1,0.3c-1.1,0.1-2.3,0.2-3.4,0.4l-0.1,0c-0.4,0-0.4,0-0.8-0.2l-0.3-0.3l-0.1-0.4l0-0.4
			c0.2-0.4,0.2-0.4,0.5-0.7l0.4-0.1c2.9-0.4,5.7-0.7,8.6-0.8l0.1,0C448.4,135.2,448.6,135.3,448.7,135.3z M453.6,135.1
			c0.4,0,0.9,0,1.3,0c0.1,0,0.2,0,0.3,0c0.1,0,0.2,0,0.3,0c0.1,0,0.3,0.1,0.4,0.1l0.3,0.2l0.2,0.4l0.1,0.4l-0.1,0.4l-0.2,0.3
			l-0.4,0.2l-0.4,0.1c-0.3,0-0.6,0-0.9,0c-0.3,0-0.6,0-0.9,0l-0.3,0l-0.4-0.1l-0.4-0.2l-0.2-0.4l-0.1-0.4l0.1-0.4
			c0.2-0.3,0.2-0.4,0.6-0.6l0.4-0.1C453.4,135.1,453.5,135.1,453.6,135.1z"/>
	</g>
</g>
</svg>
