<?xml version="1.0" encoding="utf-8"?>
<!-- Generator: Adobe Illustrator 20.1.0, SVG Export Plug-In . SVG Version: 6.00 Build 0)  -->
<svg version="1.1" id="Layer_1" xmlns="http://www.w3.org/2000/svg" xmlns:xlink="http://www.w3.org/1999/xlink" x="0px" y="0px"
	 viewBox="0 0 225 225" enable-background="new 0 0 225 225" xml:space="preserve">
<g>
	<g transform="matrix(1,0,0,1,-348.038,-621.995)">
		<g>
			<path fill="#0581FF" d="M469.6,827.7L469.6,827.7c0.2,0,0.4,0,0.5,0c0.3,0,0.6,0.1,0.8,0.2c0.6,0.2,1.2,0.6,1.6,1.1
				c0.3,0.4,0.5,0.8,0.7,1.2c0.1,0.3,0.2,0.5,0.2,0.8c0,0.1,0,0.3,0,0.4c0,1.9,0,3.8,0,5.7c0,0.1,0,0.3,0,0.4c0,0.3-0.1,0.6-0.2,0.8
				c-0.2,0.5-0.4,1-0.8,1.3c-0.4,0.4-0.9,0.8-1.4,1c-0.3,0.1-0.6,0.2-0.9,0.2c-0.1,0-0.3,0-0.4,0c-6.3,0.1-12.5,0-18.8,0
				c-0.1,0-0.3,0-0.4,0c-0.3,0-0.6-0.1-0.8-0.2c-0.4-0.1-0.8-0.3-1.1-0.6c-0.5-0.4-1-1-1.2-1.6c-0.1-0.3-0.2-0.6-0.2-0.9
				c0-0.1,0-0.3,0-0.4c0-1.9,0-3.8,0-5.7c0-0.1,0-0.3,0-0.4c0-0.3,0.1-0.6,0.2-0.8c0.2-0.5,0.4-0.9,0.7-1.3c0.4-0.5,1-0.9,1.6-1.1
				c0.3-0.1,0.6-0.2,0.9-0.2c0.1,0,0.3,0,0.4,0h5.8l2.1-4.2l0-0.1c0-0.1,0.1-0.1,0.1-0.2c0.1-0.1,0.3-0.2,0.5-0.3c0.1,0,0.1,0,0.2,0
				c0,0,0.1,0,0.1,0c0,0,0.1,0,0.1,0c0.1,0,0.1,0,0.2,0c0.1,0,0.2,0.1,0.3,0.2c0.1,0.1,0.1,0.1,0.1,0.1l3.8,4.4H469.6z M458.3,829.3
				c0,0.1,0,0.1-0.1,0.2c-0.1,0.2-0.3,0.3-0.5,0.4c-0.1,0-0.1,0-0.2,0c0,0-0.1,0-0.1,0c-2.1,0-4.3,0-6.4,0c-0.2,0-0.4,0-0.6,0.1
				c-0.5,0.2-0.8,0.6-1,1c-0.1,0.2-0.1,0.4-0.1,0.6c0,1.9,0,3.8,0,5.7c0,0.2,0,0.4,0.1,0.6c0.2,0.5,0.6,0.8,1,1
				c0.2,0.1,0.4,0.1,0.6,0.1c6.3,0.1,12.5,0.1,18.8,0c0.2,0,0.4,0,0.6-0.1c0.5-0.2,0.8-0.5,1-1c0.1-0.2,0.1-0.4,0.1-0.6
				c0-1.9,0-3.8,0-5.7c0-0.2,0-0.4-0.1-0.6c-0.2-0.5-0.6-0.9-1-1c-0.2-0.1-0.4-0.1-0.6-0.1h-5.8c-0.1,0-0.1,0-0.2,0
				c-0.2,0-0.3-0.1-0.4-0.2c-0.1-0.1-0.1-0.1-0.1-0.1l-3.1-3.6C459.4,827,458.8,828.1,458.3,829.3z M414,814.3
				c0.1-0.4,0.1-0.4,0.4-0.7l0.4-0.2l0.4,0l0.4,0.1c0.3,0.1,0.5,0.3,0.8,0.4c0.2,0.1,0.5,0.3,0.7,0.4c1.1,0.6,2.2,1.2,3.4,1.7
				c2,1,4,1.8,6,2.6c2.2,0.8,4.3,1.6,6.5,2.3c1.2,0.4,2.3,0.7,3.5,1l0,0c0.4,0.2,0.4,0.2,0.6,0.5l0.1,0.4l0,0.4l-0.2,0.4l-0.3,0.3
				l-0.4,0.1c-0.1,0-0.3,0-0.4,0c0,0,0,0,0,0c-0.2,0-0.4-0.1-0.6-0.1c-0.5-0.1-0.9-0.3-1.4-0.4c-1.5-0.4-2.9-0.9-4.4-1.4
				c-3.5-1.2-6.9-2.6-10.1-4.2c-1.7-0.8-3.3-1.7-4.9-2.6l-0.1,0l-0.3-0.3l-0.2-0.4C414,814.6,414,814.5,414,814.3z M480.4,822.5
				l0.1-0.4l0.3-0.3c0.1-0.1,0.2-0.1,0.4-0.2c0,0,0.1,0,0.1,0c0.1,0,0.2,0,0.3-0.1c0.2,0,0.3-0.1,0.5-0.1c0.3-0.1,0.7-0.2,1-0.3
				c1.1-0.3,2.2-0.7,3.2-1c2.3-0.8,4.6-1.7,6.8-2.7c2-0.9,3.9-1.8,5.9-2.8c1-0.5,2-1.1,3-1.6l0,0l0.4-0.1l0.4,0l0.4,0.2l0.3,0.3
				c0.1,0.4,0.1,0.4,0.1,0.8l-0.2,0.4c-0.1,0.1-0.2,0.2-0.3,0.3c0,0,0,0,0,0c-0.1,0-0.2,0.1-0.2,0.1c-0.2,0.1-0.3,0.2-0.5,0.3
				c-0.4,0.2-0.8,0.4-1.2,0.7c-1.2,0.7-2.5,1.3-3.8,2c-3.4,1.6-6.8,3.1-10.4,4.3c-1.7,0.6-3.4,1.1-5.1,1.6l-0.1,0
				c-0.1,0-0.3,0-0.4,0c-0.4,0-0.4-0.2-0.7-0.4l-0.2-0.4C480.4,822.8,480.4,822.7,480.4,822.5z M442.6,811.2c0-0.2,0-0.3,0.1-0.5
				c0.1-0.3,0.4-0.5,0.7-0.6c0.2-0.1,0.3,0,0.5,0c0.3,0.1,0.6,0.1,1,0.2c2.3,0.4,4.5,0.7,6.8,0.9c2.2,0.2,4.3,0.3,6.5,0.3h0
				c0.1,0,0.2,0,0.2,0c0.2,0,0.3,0.1,0.4,0.2c0.1,0.1,0.2,0.2,0.3,0.4c0,0.1,0.1,0.1,0.1,0.2c0.1,0.4-0.1,0.8-0.4,1
				c-0.1,0.1-0.3,0.2-0.4,0.2c-0.1,0-0.2,0-0.2,0c-0.3,0-0.6,0-1,0c-2.3,0-4.6-0.2-6.9-0.4c-2.3-0.2-4.5-0.6-6.7-1l-0.1,0
				c-0.1,0-0.2,0-0.2-0.1c-0.2-0.1-0.4-0.3-0.5-0.5c0-0.1-0.1-0.1-0.1-0.2C442.6,811.4,442.6,811.3,442.6,811.2z M479.6,809.3
				c0-0.1,0-0.2,0-0.2c0-0.3,0.2-0.6,0.5-0.7c0.1,0,0.1-0.1,0.2-0.1c0.3-0.1,0.5-0.2,0.7-0.2c2.1-0.7,4.1-1.5,6.2-2.3
				c2.1-0.9,4.2-1.9,6.3-3l0,0c0.1,0,0.1-0.1,0.2-0.1c0.1,0,0.3-0.1,0.5,0c0.2,0,0.3,0.1,0.4,0.2c0.3,0.2,0.5,0.6,0.4,1
				c0,0.1,0,0.2-0.1,0.2c-0.1,0.1-0.2,0.3-0.3,0.4c-0.1,0.1-0.1,0.1-0.2,0.1c-0.3,0.2-0.6,0.3-0.8,0.4c-2,1.1-4.1,2.1-6.3,3
				c-2.1,0.9-4.2,1.6-6.4,2.3l-0.1,0c-0.1,0-0.2,0-0.2,0c-0.3,0-0.6-0.1-0.8-0.3c-0.1-0.2-0.2-0.2-0.2-0.4
				C479.6,809.4,479.6,809.3,479.6,809.3z M417.6,801.4c0-0.2,0-0.3,0.1-0.5c0.1-0.4,0.5-0.6,0.9-0.7c0.1,0,0.2,0,0.2,0
				c0.2,0,0.3,0.1,0.4,0.2c0.2,0.1,0.4,0.3,0.7,0.4c1.9,1.2,3.8,2.2,5.8,3.2c2.1,1,4.2,1.9,6.3,2.8l0,0c0.1,0,0.1,0.1,0.2,0.1
				c0.1,0.1,0.2,0.2,0.3,0.3c0,0.1,0.1,0.1,0.1,0.2c0.1,0.4,0,0.8-0.3,1.1c-0.1,0.1-0.2,0.2-0.4,0.2c-0.1,0-0.3,0.1-0.5,0
				c-0.1,0-0.2,0-0.2-0.1c-0.3-0.1-0.6-0.2-0.9-0.3c-2.2-0.9-4.4-1.8-6.5-2.9c-2-1-3.9-2.1-5.8-3.3l-0.1-0.1c-0.1,0-0.1-0.1-0.2-0.1
				c-0.1-0.1-0.2-0.2-0.2-0.4C417.7,801.5,417.6,801.5,417.6,801.4z M467.4,803.4c0.1,0.5,0.6,0.8,1,0.7l1.7-0.4
				c0.5-0.1,0.8-0.6,0.7-1l-1.1-5.1c-0.1-0.5-0.6-0.8-1-0.7l-1.7,0.4c-0.5,0.1-0.8,0.6-0.7,1L467.4,803.4z M383.3,799.4
				c-0.3,0.3-0.3,0.9,0,1.2l1.2,1.2c0.3,0.3,0.9,0.3,1.2,0l3.6-3.8c0.3-0.3,0.3-0.9,0-1.2l-1.2-1.2c-0.3-0.3-0.9-0.3-1.2,0
				L383.3,799.4z M407.8,798.7c-0.3,0.4-0.2,0.9,0.2,1.2l1.4,1c0.4,0.3,0.9,0.2,1.2-0.2l3-4.3c0.3-0.4,0.2-0.9-0.2-1.2l-1.4-1
				c-0.4-0.3-0.9-0.2-1.2,0.2L407.8,798.7z M503.4,796.6c0-0.1,0-0.2,0-0.2c0-0.2,0.1-0.3,0.2-0.4c0-0.1,0.1-0.1,0.2-0.2
				c0.2-0.2,0.4-0.3,0.6-0.5c1.7-1.3,3.3-2.8,4.8-4.2c1.7-1.6,3.3-3.4,4.9-5.1l0,0c0.1-0.1,0.1-0.1,0.2-0.2c0.1-0.1,0.3-0.2,0.4-0.2
				c0.4-0.1,0.8,0.1,1,0.4c0,0.1,0.1,0.1,0.1,0.2c0.1,0.1,0.1,0.3,0.1,0.5s0,0.3-0.1,0.4c0,0.1-0.1,0.1-0.1,0.2
				c-0.2,0.2-0.4,0.5-0.6,0.7c-1.5,1.7-3.1,3.3-4.7,4.9c-1.7,1.6-3.4,3.1-5.2,4.5l-0.1,0.1c-0.2,0.1-0.2,0.2-0.4,0.2
				c-0.4,0.1-0.8-0.1-1-0.4c-0.1-0.2-0.1-0.2-0.2-0.4C503.4,796.8,503.4,796.7,503.4,796.6z M534.3,795.1c0.4,0.3,0.9,0.2,1.2-0.2
				l1-1.4c0.3-0.4,0.2-0.9-0.2-1.2l-4.2-3c-0.4-0.3-0.9-0.2-1.2,0.2l-1,1.4c-0.3,0.4-0.2,0.9,0.2,1.2L534.3,795.1z M426.5,790.3
				c0-0.2,0-0.2,0.1-0.4c0-0.1,0.1-0.1,0.1-0.2c0.2-0.3,0.6-0.5,1-0.4c0.2,0,0.2,0.1,0.4,0.1c0.2,0.1,0.4,0.3,0.7,0.4
				c0.7,0.4,1.5,0.8,2.2,1.2c0.8,0.4,1.6,0.8,2.4,1.2l0.2,0.1c0.1,0,0.1,0.1,0.2,0.1c0.1,0.1,0.2,0.2,0.3,0.3
				c0.1,0.1,0.1,0.3,0.1,0.4c0,0.1,0,0.1,0,0.2c0,0.4-0.3,0.7-0.6,0.8c-0.2,0.1-0.4,0.1-0.6,0.1c-0.1,0-0.1,0-0.2-0.1
				c-0.3-0.1-0.6-0.3-0.8-0.4c-0.8-0.4-1.7-0.8-2.5-1.2c-0.8-0.4-1.5-0.8-2.3-1.3l-0.1,0c-0.1,0-0.1-0.1-0.2-0.1
				c-0.1-0.1-0.2-0.2-0.3-0.4c0-0.1,0-0.1-0.1-0.2C426.5,790.4,426.5,790.4,426.5,790.3z M486.1,791.3c0-0.1,0-0.1,0-0.2
				c0.1-0.2,0.2-0.4,0.3-0.5c0.1,0,0.1-0.1,0.2-0.1c0.2-0.1,0.5-0.3,0.7-0.4c0.8-0.5,1.6-0.9,2.4-1.4c1.4-0.9,2.8-1.8,4.1-2.8
				c3.8-2.8,7.3-6.1,10.3-9.8c4.1-5,7.5-10.7,9.8-16.8c2.1-5.6,3.4-11.5,3.8-17.4c0.2-3,0.2-6-0.1-9c-0.3-3-0.8-6-1.5-9
				c-1.3-5.1-3.2-10.1-5.7-14.7c-2.9-5.2-6.5-10-10.8-14.1c-3.4-3.3-7.2-6.1-11.3-8.5c-1.4-0.8-2.9-1.6-4.4-2.3
				c-0.8-0.4-1.5-0.7-2.3-1l0,0c-0.1,0-0.1-0.1-0.2-0.1c-0.1-0.1-0.2-0.2-0.3-0.3c-0.2-0.3-0.2-0.7,0-1c0-0.1,0.1-0.1,0.1-0.2
				c0.1-0.1,0.2-0.2,0.3-0.3c0.2-0.1,0.4-0.1,0.6-0.1c0.1,0,0.1,0,0.2,0.1c0.2,0.1,0.5,0.2,0.7,0.3c2.3,1,4.6,2.2,6.7,3.5
				c4.3,2.5,8.2,5.6,11.7,9.1c4.4,4.3,8.1,9.3,11,14.7c2.7,4.9,4.6,10.3,5.8,15.7c0.7,2.9,1.1,5.9,1.3,8.9c0.2,3.2,0.2,6.5,0,9.7
				c-0.5,6.3-2,12.5-4.4,18.3c-2.5,6.1-5.9,11.7-10.2,16.7c-3.1,3.7-6.7,6.9-10.5,9.8c-1.5,1.1-3.1,2.2-4.7,3.1
				c-0.7,0.4-1.4,0.8-2.2,1.2l-0.1,0.1c-0.2,0.1-0.2,0.1-0.4,0.1c-0.4,0-0.7-0.1-0.9-0.4c-0.1-0.2-0.1-0.2-0.2-0.4
				C486.1,791.4,486.1,791.4,486.1,791.3z M392,774.5c0-0.1,0-0.2,0-0.2c0-0.2,0.1-0.3,0.2-0.4c0.2-0.3,0.6-0.5,1-0.4
				c0.1,0,0.2,0,0.2,0.1c0.1,0,0.1,0.1,0.2,0.1c0.2,0.1,0.2,0.2,0.3,0.3c0.1,0.3,0.3,0.5,0.5,0.8c1.2,2,2.4,3.9,3.7,5.8
				c1.2,1.7,2.6,3.4,4,5.1l0.1,0.1c0,0.1,0.1,0.1,0.1,0.2c0.1,0.1,0.1,0.3,0.1,0.4s0,0.3-0.1,0.5c0,0.1-0.1,0.1-0.1,0.2
				c-0.2,0.3-0.6,0.5-1,0.4c-0.2,0-0.3-0.1-0.4-0.2c-0.1,0-0.1-0.1-0.2-0.2c-0.2-0.2-0.3-0.4-0.5-0.6c-1.5-1.8-2.9-3.7-4.3-5.6
				c-1.3-1.9-2.5-3.8-3.6-5.8l0,0l-0.1-0.2C392.1,774.7,392,774.6,392,774.5z M372.6,761.7c0-0.1,0.1-0.3,0.1-0.4
				c0.2-0.3,0.3-0.3,0.6-0.5l0.4,0l0.4,0.1l0.3,0.3c0.1,0.1,0.1,0.2,0.2,0.4c0,0,0,0.1,0,0.2c0,0.1,0,0.2,0.1,0.3
				c0,0.2,0.1,0.3,0.1,0.5c0.1,0.3,0.2,0.7,0.3,1c0.3,1,0.6,2,1,3c0.8,2.2,1.6,4.4,2.6,6.6c0.9,2.1,2,4.3,3.1,6.3
				c0.5,1,1.1,2,1.7,2.9l0,0c0.1,0.4,0.1,0.4,0.1,0.8l-0.2,0.4l-0.3,0.3l-0.4,0.1l-0.4,0l-0.4-0.2c-0.1-0.1-0.2-0.2-0.3-0.3
				c0,0,0,0,0,0c0-0.1-0.1-0.2-0.1-0.2c-0.1-0.2-0.2-0.3-0.3-0.5c-0.2-0.4-0.4-0.8-0.7-1.2c-0.7-1.2-1.4-2.5-2-3.8
				c-1.6-3.3-3.1-6.6-4.3-10.1c-0.6-1.8-1.2-3.6-1.7-5.4l0-0.2C372.7,762,372.6,761.8,372.6,761.7z M533.3,781.7
				c0-0.1,0.1-0.3,0.1-0.4c0-0.1,0.1-0.2,0.1-0.2c0.1-0.2,0.2-0.3,0.3-0.5c0.1-0.2,0.3-0.5,0.4-0.7c0.6-1,1.1-2.1,1.6-3.1
				c1-2,2-4.1,2.8-6.2c0.9-2.1,1.6-4.3,2.3-6.5c0.4-1.2,0.7-2.3,1-3.5l0-0.1c0.2-0.4,0.2-0.4,0.5-0.6l0.4-0.1c0.4,0,0.4,0,0.8,0.2
				l0.3,0.3l0.1,0.4l0,0.4c-1.3,5-3.1,9.8-5.2,14.5c-0.7,1.5-1.4,3-2.2,4.5c-0.4,0.7-0.8,1.5-1.2,2.2l-0.1,0.2
				c-0.3,0.3-0.3,0.3-0.6,0.5l-0.4,0c-0.1,0-0.3-0.1-0.4-0.1c-0.3-0.2-0.3-0.3-0.5-0.6C533.4,781.9,533.3,781.8,533.3,781.7z
				 M398.5,753.7c-0.5-1.8-0.9-3.7-1.2-5.6c-0.6-3.6-0.9-7.2-0.9-10.8c0-3.9,0.4-7.8,1.2-11.6c0.8-4.1,2.1-8.1,3.7-11.9
				c1.3-3.1,2.9-6,4.6-8.9c0.8-1.3,1.7-2.6,2.6-3.8l0,0c0-0.1,0.1-0.1,0.1-0.2c0.1-0.1,0.2-0.2,0.4-0.2c0.1,0,0.3-0.1,0.4,0
				c0.1,0,0.1,0,0.2,0c0.3,0.1,0.6,0.4,0.7,0.8c0,0.2,0,0.4-0.1,0.6c0,0.1-0.1,0.1-0.1,0.2c-0.2,0.2-0.4,0.5-0.5,0.7
				c-1.2,1.7-2.3,3.5-3.4,5.3c-1.9,3.4-3.5,6.9-4.8,10.6c-1.1,3.3-1.9,6.6-2.4,10c-0.5,3-0.7,6.1-0.7,9.1c0,8.9,2.1,17.7,5.9,25.7
				c1.6,3.3,3.5,6.5,5.7,9.4c1.1,1.6,2.4,3.1,3.7,4.5l0,0c0,0.1,0.1,0.1,0.1,0.2c0.1,0.1,0.1,0.3,0.1,0.4c0,0.1,0,0.3,0,0.4
				c-0.1,0.4-0.4,0.6-0.8,0.7c-0.1,0-0.1,0-0.2,0c-0.2,0-0.4-0.1-0.6-0.2c-0.1,0-0.1-0.1-0.2-0.1c-0.2-0.2-0.4-0.4-0.5-0.6
				c-1.1-1.3-2.2-2.6-3.2-3.9c-1.9-2.5-3.6-5.2-5-8c-1.3-2.5-2.4-5-3.4-7.6c-0.6-1.5-1.1-3.1-1.5-4.7
				C398.6,754.1,398.6,753.9,398.5,753.7z M470,699.2l26.9,15.6c0,0,0,0,0,0c0.3,0.2,0.5,0.5,0.5,0.9c0,0,0,0,0,0v41.8l0,0
				c0,0.4-0.2,0.7-0.5,0.9c0,0,0,0,0,0l-36.2,20.9l0,0c-0.3,0.2-0.7,0.2-1,0l0,0l-36.2-20.9c0,0,0,0,0,0c-0.3-0.2-0.5-0.5-0.5-0.9
				c0,0,0,0,0,0v-41.8c0,0,0,0,0,0c0-0.4,0.2-0.7,0.5-0.9c0,0,0,0,0,0l36.2-20.9l0,0c0.3-0.2,0.7-0.2,1,0h0l4.4,2.5l4.9-2.8V699.2z
				 M435.5,723.4l-10.3-6c0,13.1,0,26.2,0,39.4l34.1,19.7v-39.4L435.5,723.4z M474.9,729.3l-13.6,7.8v39.4l34.1-19.7v-39.4
				L474.9,729.3z M525.9,767.2c0-0.2,0-0.2,0.1-0.5c0.1-0.3,0.2-0.5,0.3-0.8c0.9-2.1,1.6-4.2,2.3-6.3c0.7-2.2,1.2-4.3,1.7-6.6
				l0.1-0.2c0-0.1,0.1-0.1,0.1-0.2c0.1-0.1,0.2-0.2,0.4-0.3c0.1,0,0.1-0.1,0.2-0.1c0.1,0,0.2,0,0.2,0c0.4,0,0.8,0.2,0.9,0.6
				c0.1,0.1,0.1,0.3,0.1,0.4c0,0.1,0,0.2,0,0.2c-0.1,0.3-0.1,0.6-0.2,0.9c-0.5,2.2-1.1,4.4-1.8,6.5c-0.7,2.2-1.5,4.3-2.4,6.5
				l-0.1,0.2c-0.1,0.2-0.1,0.2-0.3,0.4c-0.1,0.1-0.1,0.1-0.2,0.1c-0.3,0.2-0.8,0.2-1.1-0.1c-0.1,0-0.1-0.1-0.2-0.2
				c-0.1-0.2-0.1-0.2-0.2-0.4C525.9,767.4,525.9,767.3,525.9,767.2z M385,757.4c-0.5-1.9-0.9-3.9-1.3-5.8c-0.1-0.6-0.2-1.1-0.3-1.7
				c0-0.2,0-0.3-0.1-0.5c0-0.2-0.1-0.3,0-0.5c0-0.1,0-0.2,0-0.2c0.1-0.4,0.4-0.7,0.8-0.7c0.1,0,0.2,0,0.2,0c0.2,0,0.3,0.1,0.4,0.1
				c0.2,0.1,0.4,0.3,0.4,0.5c0,0.1,0,0.1,0.1,0.2c0,0.3,0.1,0.6,0.1,0.9c0.4,2.2,0.8,4.4,1.4,6.6c0.6,2.1,1.2,4.3,1.9,6.3l0,0.1
				c0,0.1,0,0.1,0.1,0.2c0,0.2,0,0.3,0,0.5c0,0.1-0.1,0.1-0.1,0.2c-0.2,0.3-0.6,0.5-1,0.5c-0.2,0-0.3-0.1-0.4-0.1
				c-0.1-0.1-0.2-0.2-0.3-0.3c0-0.1-0.1-0.1-0.1-0.2c-0.1-0.2-0.2-0.5-0.3-0.7c-0.3-0.7-0.5-1.5-0.7-2.2c-0.2-0.7-0.5-1.5-0.7-2.3
				C385.2,758,385.1,757.7,385,757.4z M483.2,738c-0.4-0.2-0.8-0.3-1.2-0.5c0,0-0.1,0-0.1-0.1c-0.1-0.1-0.1-0.3-0.1-0.4
				c0,0,0-0.1,0.1-0.1c1.1-0.9,2.3-1.8,3.5-2.7c0,0,0.1,0,0.1-0.1c0,0,0,0,0.1,0c0,0,0.1,0,0.1,0c0.1,0,0.2,0.1,0.2,0.2
				c0.4,1.4,0.7,2.9,0.9,4.3c0,0,0,0.1,0,0.1c0,0.1-0.2,0.2-0.3,0.2c0,0-0.1,0-0.1,0c-0.4-0.1-0.8-0.3-1.2-0.4l-3.2,9.3
				c0,0.1-0.1,0.2-0.1,0.2c-0.2,0.2-0.4,0.4-0.7,0.4c-0.1,0-0.2,0-0.3,0c0,0-0.1,0-0.1,0l-3.3-0.6l-4.5,11l0,0.1
				c0,0.1,0,0.1-0.1,0.2c-0.1,0.2-0.3,0.3-0.5,0.4c-0.1,0-0.2,0-0.4,0c-0.3,0-0.6-0.2-0.8-0.5c-0.1-0.1-0.1-0.2-0.1-0.3
				c0-0.1,0-0.2-0.1-0.3c0-0.1,0-0.2,0-0.4c0,0,0-0.1,0-0.1l4.9-11.8c0,0,0-0.1,0-0.1c0-0.1,0.1-0.1,0.1-0.2
				c0.2-0.2,0.4-0.4,0.7-0.4c0.1,0,0.1,0,0.2,0c0,0,0.1,0,0.1,0l3.3,0.5L483.2,738z M369,726.7c0.4,0,0.7,0,1.1,0.1
				c0.8,0.1,1.6,0.3,2.4,0.7c1,0.5,2,1.1,2.7,2c0.8,0.8,1.4,1.7,1.8,2.7c0.4,0.9,0.6,1.8,0.6,2.8c0.1,0.9,0,1.9-0.3,2.8
				c-0.3,1.1-0.8,2.1-1.4,3c-0.8,1.1-1.9,2.1-3.2,2.7c-0.8,0.4-1.7,0.7-2.5,0.8l1.6,5.4c0,0,0,0.1,0,0.1c0,0.1,0,0.3,0,0.4
				c0,0.1,0,0.2-0.1,0.3c-0.2,0.4-0.5,0.6-0.9,0.6c-0.1,0-0.3,0-0.4-0.1c-0.1,0-0.1,0-0.2-0.1l-10.5-6.5c-0.1,0-0.2,0-0.3,0
				c-0.1,0-0.1,0-0.2,0c-0.3,0-0.7-0.1-1-0.1c-0.7-0.1-1.3-0.4-1.9-0.6c-1.3-0.6-2.5-1.6-3.4-2.8c-0.6-0.8-1.1-1.8-1.4-2.8
				c-0.3-0.9-0.4-1.9-0.3-2.9c0-1,0.3-2,0.6-2.9c0.4-1,1-1.9,1.7-2.7c0.8-0.8,1.7-1.5,2.7-2c0.8-0.4,1.6-0.6,2.5-0.7
				c0.4-0.1,0.7-0.1,1.1-0.1C363,726.6,366,726.6,369,726.7z M556.1,739.1l-10,10.2l-0.1,0.1c-0.1,0.1-0.1,0.1-0.2,0.1
				c-0.1,0.1-0.2,0.1-0.4,0.1c-0.1,0-0.2,0-0.3,0c-0.3-0.1-0.6-0.2-0.7-0.5c0-0.1-0.1-0.2-0.1-0.3c0-0.1,0-0.3,0-0.4
				c0,0,0-0.1,0-0.1l2.5-9.4c-0.1,0-0.2,0-0.2,0c-0.1,0-0.2,0-0.2-0.1c-0.2-0.1-0.5-0.1-0.7-0.2c-0.5-0.2-0.9-0.4-1.3-0.7
				c-0.8-0.6-1.6-1.3-2.1-2.2c-0.4-0.6-0.6-1.3-0.8-2c-0.2-0.7-0.2-1.4-0.1-2.2c0.1-0.7,0.3-1.4,0.5-2c0.3-0.8,0.8-1.5,1.4-2
				c0.6-0.6,1.3-1.1,2.1-1.5c0.6-0.3,1.2-0.5,1.9-0.5c0.3,0,0.6-0.1,0.9-0.1c5,0,9.9,0,14.9,0c0.3,0,0.6,0,0.9,0.1
				c0.7,0.1,1.3,0.3,1.9,0.6c0.8,0.4,1.5,0.9,2.1,1.5c0.6,0.6,1,1.4,1.4,2.2c0.3,0.7,0.4,1.5,0.5,2.3c0,0.7-0.1,1.4-0.3,2.1
				c-0.2,0.7-0.5,1.4-1,2c-0.4,0.6-0.9,1.1-1.5,1.5c-0.5,0.4-1.1,0.7-1.7,1c-0.5,0.2-1.1,0.3-1.7,0.4c-0.3,0-0.5,0-0.8,0H556.1z
				 M360.1,728.7c-0.3,0-0.6,0-0.9,0.1c-0.5,0.1-1.1,0.2-1.6,0.4c-1.2,0.5-2.3,1.3-3,2.4c-0.4,0.6-0.8,1.3-1,2.1
				c-0.2,0.7-0.3,1.5-0.2,2.2c0,0.8,0.2,1.5,0.5,2.2c0.3,0.8,0.8,1.5,1.4,2.1c0.6,0.6,1.3,1.1,2.1,1.5c0.6,0.3,1.2,0.5,1.9,0.5
				c0.3,0,0.6,0.1,0.9,0.1l0.1,0c0,0,0.1,0,0.1,0c0.1,0,0.1,0,0.2,0.1c0.1,0,0.1,0,0.2,0.1l8.4,5.2l-1.2-4l0-0.1c0,0,0-0.1,0-0.1
				c0-0.1,0-0.2,0-0.3c0.1-0.4,0.3-0.7,0.6-0.8c0.1,0,0.2-0.1,0.3-0.1c0.1,0,0.1,0,0.2,0c0.1,0,0.1,0,0.2,0c0.1,0,0.2,0,0.3,0
				c0.3,0,0.6-0.1,0.8-0.1c0.5-0.1,1-0.3,1.5-0.5c1-0.5,1.9-1.2,2.6-2.1c0.4-0.6,0.8-1.3,1-2c0.2-0.7,0.3-1.4,0.3-2.2
				c0-0.8-0.2-1.5-0.5-2.2c-0.3-0.8-0.8-1.5-1.3-2.1c-0.6-0.6-1.3-1.2-2.1-1.5c-0.6-0.3-1.2-0.5-1.9-0.6c-0.3,0-0.6-0.1-0.9-0.1
				C366,728.7,363,728.7,360.1,728.7z M548.2,727.4c-0.2,0-0.4,0-0.6,0c-0.4,0-0.8,0.1-1.1,0.3c-0.8,0.3-1.5,0.9-2.1,1.6
				c-0.3,0.4-0.6,1-0.8,1.5c-0.2,0.5-0.2,1.1-0.2,1.6c0,0.5,0.1,1.1,0.3,1.6c0.2,0.6,0.6,1.1,1,1.5c0.4,0.4,0.9,0.8,1.5,1.1
				c0.4,0.2,0.8,0.3,1.3,0.4c0.2,0,0.4,0,0.7,0l0.1,0c0,0,0.1,0,0.1,0c0.1,0,0.2,0.1,0.3,0.1c0.3,0.2,0.5,0.5,0.5,0.8
				c0,0.1,0,0.2,0,0.3c0,0,0,0.1,0,0.1l-1.8,6.7l7.5-7.7l0.1-0.1c0.1-0.1,0.1-0.1,0.2-0.1c0.1-0.1,0.3-0.1,0.4-0.1c0,0,0.1,0,0.1,0
				c2.4,0,4.9,0,7.3,0c0.2,0,0.4,0,0.6,0c0.4-0.1,0.8-0.2,1.1-0.3c0.9-0.3,1.6-1,2.1-1.7c0.3-0.4,0.5-0.9,0.7-1.4
				c0.1-0.5,0.2-1,0.2-1.6c0-0.5-0.1-1.1-0.3-1.6c-0.2-0.6-0.5-1.1-1-1.5c-0.4-0.5-0.9-0.8-1.5-1.1c-0.4-0.2-0.9-0.3-1.3-0.4
				c-0.2,0-0.4,0-0.6,0C558.1,727.4,553.1,727.4,548.2,727.4z M382.7,743.6c-0.1-2-0.2-4-0.2-6.1c0-2.2,0.1-4.3,0.3-6.4l0-0.1
				c0-0.1,0-0.2,0-0.2c0-0.1,0.1-0.3,0.2-0.4c0.1-0.1,0.1-0.1,0.2-0.1c0.3-0.2,0.8-0.2,1.1,0c0.1,0.1,0.2,0.2,0.3,0.3
				c0.1,0.1,0.1,0.3,0.2,0.4c0,0.1,0,0.2,0,0.2c0,0.3,0,0.5-0.1,0.8c-0.1,1.9-0.2,3.7-0.2,5.6c0,1.9,0.1,3.8,0.2,5.7l0,0.2
				c0,0.1,0,0.2,0,0.2c0,0.2-0.1,0.3-0.2,0.4c0,0.1-0.1,0.1-0.2,0.2s-0.1,0.1-0.2,0.1c-0.3,0.2-0.8,0.2-1.1,0
				c-0.1-0.1-0.2-0.2-0.3-0.3c0-0.1-0.1-0.1-0.1-0.2C382.7,743.8,382.7,743.7,382.7,743.6z M531.8,740.9c0-0.3,0-0.5,0-0.8
				c0-0.3,0-0.6,0-0.9c0-1.9,0-3.8-0.1-5.6c-0.1-2.2-0.4-4.4-0.7-6.6l0-0.2l0-0.1l0-0.2c0-0.1,0-0.2,0-0.2c0-0.1,0.1-0.3,0.2-0.4
				c0.3-0.3,0.7-0.4,1.1-0.3c0.1,0,0.1,0.1,0.2,0.1c0.1,0,0.1,0.1,0.2,0.1c0.1,0.1,0.2,0.2,0.3,0.4c0,0.1,0,0.1,0.1,0.2
				c0,0.3,0.1,0.6,0.1,0.8c0.3,2.4,0.6,4.8,0.7,7.3c0.1,2.1,0.1,4.2,0,6.3l0,0.2c0,0.1,0,0.2,0,0.3c0,0.2-0.1,0.3-0.2,0.4
				c-0.1,0.1-0.1,0.1-0.2,0.2c-0.1,0-0.1,0.1-0.2,0.1c-0.4,0.2-0.8,0.1-1.1-0.2c-0.1-0.1-0.2-0.2-0.3-0.4c0-0.1,0-0.1-0.1-0.2
				C531.8,741.1,531.8,741,531.8,740.9z M463.1,697.6l-2.8-1.6c-11.4,6.6-22.7,13.1-34.1,19.7l10.3,6l23.8,13.7l13.6-7.8l20.5-11.8
				L470,701.6v5.7c0,0,0.1,0,0.2,0c0.3,0,0.7,0,1,0.1c0.3,0,0.5,0.1,0.7,0.2c0.2,0,0.3,0.1,0.5,0.2c0.1,0,0.2,0.1,0.3,0.1
				c0.6,0.3,1.2,0.8,1.5,1.4c0,0.1,0.1,0.2,0.1,0.3c0,0.2,0,0.3,0,0.5c0,0.1,0,0.2,0,0.3l0,0c0,0,0,0.1,0,0.1c0,0.1-0.1,0.2-0.1,0.3
				c-0.1,0.3-0.3,0.6-0.5,0.8c-0.2,0.2-0.4,0.4-0.7,0.6c-0.1,0.1-0.2,0.2-0.4,0.2c-6.1,3.6-12.2,7.1-18.4,10.6
				c-0.2,0.1-0.4,0.2-0.6,0.3c-0.6,0.3-1.2,0.4-1.9,0.5c-0.5,0.1-1.1,0.1-1.6,0.1c-0.8,0-1.5-0.1-2.2-0.4c-0.4-0.1-0.7-0.3-1-0.6
				c-0.1-0.1-0.2-0.2-0.3-0.3l0,0l0,0c-0.1-0.1-0.1-0.2-0.2-0.3c-0.1-0.2-0.2-0.4-0.3-0.6c0-0.2-0.1-0.3-0.1-0.5c0-0.1,0-0.3,0-0.4
				c0.1-0.7,0.6-1.2,1.1-1.6c0.1-0.1,0.2-0.1,0.2-0.2c0.1-0.1,0.2-0.2,0.4-0.2c1.4-0.8,2.7-1.6,4.1-2.4V704L463.1,697.6z
				 M451.9,719.5c-1,0.6-2.1,1.2-3.1,1.8c-0.4,0.3-0.9,0.6-1.1,1.1c0.1,0,0.1,0.1,0.2,0.1c0.2,0.1,0.4,0.2,0.7,0.3
				c0.4,0.1,0.8,0.2,1.2,0.3c0.5,0.1,1.1,0.1,1.6,0c0.2,0,0.4-0.1,0.6-0.1V719.5z M468.7,713.8V696c-5.1,3-10.2,5.9-15.3,8.9v17.8
				c0,0,0.1,0,0.1,0c0.1-0.1,0.3-0.1,0.4-0.2C458.8,719.5,463.7,716.7,468.7,713.8z M451.9,717.5c-1.2,0.7-2.4,1.4-3.6,2.1
				c-0.1,0.1-0.3,0.2-0.4,0.2c-0.1,0.1-0.2,0.1-0.3,0.2c-0.1,0.1-0.1,0.1-0.2,0.2c-0.3,0.3-0.5,0.7-0.5,1.1c0,0.1,0,0.1,0,0.2
				c0,0.1,0,0.2,0.1,0.2c0,0,0,0,0,0.1c0.3-0.5,0.8-0.8,1.3-1.1c1.2-0.7,2.4-1.4,3.6-2.1V717.5z M383.4,713c-0.4-0.2-0.9,0-1.1,0.5
				l-0.6,1.6c-0.2,0.4,0,0.9,0.5,1.1l4.9,1.9c0.4,0.2,0.9,0,1.1-0.5l0.6-1.6c0.2-0.4,0-0.9-0.5-1.1L383.4,713z M372,716.3
				c1.3-5.1,3-10.1,5.2-14.9c0.9-2.1,2-4.2,3.1-6.2c0.5-1,1.1-1.9,1.6-2.9l0.1-0.1c0.1-0.1,0.2-0.2,0.3-0.3c0.2-0.2,0.5-0.2,0.8-0.2
				c0.1,0,0.3,0.1,0.4,0.1l0.3,0.3l0.2,0.4l0,0.4c0,0.1-0.1,0.3-0.1,0.4c0,0-0.1,0.1-0.1,0.1c0,0.1-0.1,0.2-0.1,0.2
				c-0.1,0.2-0.2,0.3-0.3,0.5c-0.1,0.2-0.3,0.5-0.4,0.7c-0.5,0.9-1.1,1.9-1.6,2.8c-1,1.8-1.9,3.7-2.7,5.6c-1.9,4.4-3.4,8.9-4.6,13.6
				l-0.2,0.4c-0.3,0.3-0.3,0.3-0.7,0.4l-0.4,0l-0.4-0.2l-0.3-0.3l-0.1-0.4C372,716.6,372,716.5,372,716.3z M533.5,694.1l0.2-0.4
				l0.3-0.3c0.4-0.1,0.4-0.1,0.8-0.1l0.4,0.2c0.1,0.1,0.2,0.2,0.3,0.3c0,0,0,0,0,0.1c0.1,0.2,0.2,0.3,0.3,0.5
				c0.2,0.4,0.4,0.8,0.6,1.2c0.7,1.3,1.4,2.7,2.1,4c1.6,3.3,2.9,6.7,4.1,10.1c0.6,1.8,1.1,3.6,1.6,5.4l0,0.1l0,0.4l-0.1,0.4
				c-0.3,0.3-0.3,0.3-0.6,0.5l-0.4,0l-0.4-0.1l-0.3-0.3c-0.1-0.1-0.1-0.2-0.2-0.4c0,0,0-0.1,0-0.1c0-0.1,0-0.2-0.1-0.3
				c0-0.2-0.1-0.3-0.1-0.5c-0.1-0.3-0.2-0.7-0.3-1c-0.3-1.1-0.7-2.2-1-3.2c-0.7-2.2-1.6-4.4-2.5-6.6c-0.9-2.1-1.8-4.1-2.9-6.1
				c-0.5-1-1.1-2-1.6-3l0-0.1l-0.1-0.4C533.5,694.4,533.5,694.2,533.5,694.1z M470,713c0.7-0.4,1.5-0.9,2.2-1.3
				c0.4-0.3,0.9-0.6,1.1-1.1c-0.1,0-0.1-0.1-0.2-0.1c-0.3-0.2-0.5-0.3-0.8-0.4c-0.5-0.2-1.1-0.2-1.6-0.3c-0.1,0-0.2,0-0.3,0
				c-0.1,0-0.3,0-0.4,0V713z M388.3,709c0-0.2,0-0.2,0.1-0.5c0.1-0.3,0.2-0.5,0.3-0.8c0.9-2.1,1.9-4.2,3-6.2c1.1-2,2.3-3.9,3.5-5.8
				l0.1-0.2c0.1-0.1,0.1-0.1,0.2-0.2c0.1-0.1,0.3-0.2,0.4-0.2c0.1,0,0.3-0.1,0.5,0c0.1,0,0.2,0,0.2,0.1c0.4,0.1,0.6,0.5,0.7,0.9
				c0,0.2,0,0.3-0.1,0.5c0,0.1-0.1,0.1-0.1,0.2c-0.2,0.2-0.3,0.5-0.5,0.7c-1.3,1.9-2.4,3.9-3.5,5.9c-1,1.9-1.9,3.8-2.8,5.8l-0.1,0.1
				c-0.1,0.2-0.1,0.2-0.3,0.4c-0.1,0.1-0.1,0.1-0.2,0.1c-0.3,0.2-0.8,0.2-1.1-0.1c-0.1,0-0.1-0.1-0.2-0.2c-0.1-0.2-0.1-0.2-0.2-0.4
				C388.3,709.2,388.3,709.1,388.3,709z M470,708.2v0.9c0.1,0,0.3,0,0.4,0c0.1,0,0.1,0,0.2,0c0.7,0,1.3,0.1,2,0.3
				c0.3,0.1,0.6,0.2,0.9,0.4c-0.1-0.4-0.4-0.7-0.7-0.9c-0.1,0-0.1-0.1-0.2-0.1c-0.1,0-0.2-0.1-0.3-0.1c-0.1,0-0.2-0.1-0.3-0.1
				c-0.1-0.1-0.3-0.1-0.4-0.1c-0.2,0-0.4-0.1-0.6-0.1c-0.3,0-0.5-0.1-0.8-0.1C470.2,708.2,470.1,708.2,470,708.2z M516.4,692.4
				c0-0.2,0-0.3,0.1-0.4c0-0.1,0.1-0.1,0.1-0.2c0.3-0.3,0.7-0.4,1.1-0.3c0.1,0,0.1,0,0.2,0.1c0.2,0.1,0.2,0.1,0.4,0.3
				c0.2,0.2,0.3,0.4,0.5,0.6c1.4,1.9,2.8,3.8,4,5.9c1.2,1.9,2.2,3.8,3.2,5.8l0.1,0.2c0,0.1,0.1,0.1,0.1,0.2c0,0.2,0,0.3,0,0.5
				c0,0.1,0,0.1-0.1,0.2c-0.2,0.4-0.5,0.6-0.9,0.6c-0.2,0-0.3,0-0.5-0.1c-0.1-0.1-0.3-0.2-0.4-0.3c0-0.1-0.1-0.1-0.1-0.2
				c-0.1-0.3-0.3-0.5-0.4-0.8c-1-1.9-2.1-3.8-3.2-5.6c-1.2-1.9-2.5-3.8-3.9-5.7l-0.1-0.1c-0.1-0.2-0.1-0.2-0.2-0.4
				C516.4,692.5,516.4,692.5,516.4,692.4z M403.1,686.6c0-0.1,0-0.2,0-0.2c0-0.2,0.1-0.3,0.1-0.4c0-0.1,0.1-0.1,0.1-0.2
				c0.2-0.2,0.5-0.5,0.7-0.7c1.6-1.7,3.4-3.3,5.1-4.8c1.7-1.4,3.4-2.8,5.2-4.1l0.1-0.1c0.1,0,0.1-0.1,0.2-0.1
				c0.1-0.1,0.3-0.1,0.5-0.1c0.2,0,0.3,0.1,0.4,0.1c0.3,0.2,0.6,0.6,0.5,1c0,0.1,0,0.2,0,0.2c0,0.1-0.1,0.3-0.2,0.4
				c-0.1,0.1-0.1,0.1-0.2,0.2c-0.2,0.1-0.4,0.3-0.6,0.4c-1.9,1.3-3.6,2.8-5.4,4.3c-1.7,1.5-3.3,3-4.8,4.6l-0.1,0.1
				c-0.2,0.1-0.2,0.2-0.4,0.3c-0.4,0.1-0.8,0.1-1.1-0.2c-0.2-0.1-0.2-0.2-0.3-0.4C403.1,686.8,403.1,686.7,403.1,686.6z
				 M496.4,674.5c0-0.2,0-0.3,0-0.5c0.1-0.4,0.5-0.6,0.9-0.7c0.1,0,0.2,0,0.2,0c0.2,0,0.3,0.1,0.4,0.1c0.3,0.2,0.5,0.3,0.8,0.5
				c1.9,1.2,3.8,2.5,5.6,3.9c1.8,1.4,3.5,2.9,5.2,4.4l0.1,0.1c0.1,0.1,0.1,0.1,0.2,0.2c0.1,0.1,0.1,0.3,0.2,0.4c0,0.1,0,0.2,0,0.2
				c0,0.4-0.3,0.7-0.7,0.9c-0.1,0.1-0.3,0.1-0.5,0.1c-0.2,0-0.3-0.1-0.4-0.1c-0.1,0-0.1-0.1-0.2-0.1c-0.2-0.2-0.4-0.4-0.6-0.6
				c-1.7-1.5-3.5-3-5.3-4.4c-1.8-1.3-3.6-2.6-5.5-3.7l0,0c-0.2-0.1-0.2-0.1-0.3-0.3c0-0.1-0.1-0.1-0.1-0.2
				C496.5,674.7,496.5,674.6,496.4,674.5z M456.7,677.3c0-0.2,0-0.2,0-0.4c0.1-0.3,0.3-0.5,0.6-0.6c0.2-0.1,0.2-0.1,0.4-0.1
				c0.3,0,0.6,0,0.9,0c0.8,0,1.6,0,2.5,0.1c0.9,0,1.9,0.1,2.8,0.2l0.2,0c0.1,0,0.1,0,0.2,0c0.1,0,0.3,0.1,0.4,0.2
				c0.3,0.2,0.4,0.6,0.3,1c0,0.1,0,0.1-0.1,0.2c-0.1,0.1-0.1,0.3-0.3,0.4c-0.2,0.1-0.4,0.2-0.6,0.3c-0.1,0-0.1,0-0.2,0
				c-0.3,0-0.6-0.1-0.9-0.1c-0.9-0.1-1.7-0.1-2.6-0.1c-0.9,0-1.7,0-2.6,0l-0.1,0c-0.1,0-0.1,0-0.2,0c-0.3-0.1-0.5-0.2-0.7-0.5
				c0-0.1-0.1-0.1-0.1-0.2C456.7,677.4,456.7,677.4,456.7,677.3z M519.3,667c0.3-0.4,0.3-0.9-0.1-1.2l-1.3-1.1
				c-0.4-0.3-0.9-0.3-1.2,0.1l-3.3,4c-0.3,0.4-0.3,0.9,0.1,1.2l1.3,1.1c0.4,0.3,0.9,0.3,1.2-0.1L519.3,667z M434.4,666.9
				c0-0.1,0-0.2,0-0.2c0-0.3,0.2-0.6,0.5-0.8c0.1,0,0.1-0.1,0.2-0.1c0.3-0.1,0.6-0.2,0.9-0.3c2.3-0.7,4.6-1.3,6.9-1.8
				c2-0.4,4.1-0.7,6.2-1l0.2,0c0.1,0,0.3,0,0.4,0c0.2,0,0.3,0.1,0.4,0.2c0.1,0,0.1,0.1,0.2,0.1c0.3,0.3,0.4,0.7,0.2,1.1
				c-0.1,0.1-0.1,0.3-0.2,0.4c-0.1,0.1-0.2,0.2-0.4,0.2c-0.1,0-0.2,0-0.2,0.1c-0.3,0-0.6,0.1-0.9,0.1c-2.3,0.3-4.6,0.7-6.9,1.2
				c-2.1,0.5-4.2,1-6.2,1.7l0,0c-0.2,0-0.3,0.1-0.5,0c-0.3,0-0.6-0.2-0.8-0.5c0-0.1-0.1-0.1-0.1-0.2
				C434.5,667,434.4,666.9,434.4,666.9z M401.8,660.4c-0.3-0.4-0.8-0.5-1.2-0.2l-1.4,1c-0.4,0.3-0.5,0.8-0.2,1.2l3,4.2
				c0.3,0.4,0.8,0.5,1.2,0.2l1.4-1c0.4-0.3,0.5-0.8,0.2-1.2L401.8,660.4z M461.1,663.3c0-0.1,0-0.2,0-0.2c0.1-0.3,0.3-0.6,0.6-0.7
				c0.2-0.1,0.3-0.1,0.5-0.1c0.3,0,0.6,0,0.9,0.1c1.1,0.1,2.2,0.2,3.3,0.3c2.2,0.2,4.4,0.6,6.5,1c0.9,0.2,1.8,0.4,2.7,0.6
				c0.3,0.1,0.6,0.1,0.9,0.2c0.1,0,0.3,0.1,0.4,0.1c0.4,0.2,0.6,0.6,0.6,0.9c0,0.1,0,0.2,0,0.2c0,0.1,0,0.1-0.1,0.2
				c-0.1,0.1-0.2,0.3-0.3,0.4c-0.2,0.1-0.4,0.2-0.7,0.2c-0.1,0-0.2,0-0.2,0c-0.3-0.1-0.6-0.1-0.8-0.2c-2.1-0.5-4.3-0.9-6.5-1.2
				c-2.3-0.3-4.6-0.6-6.9-0.7l-0.2,0c-0.1,0-0.1-0.1-0.2-0.1c-0.2-0.1-0.4-0.3-0.5-0.5c0-0.1,0-0.1-0.1-0.2
				C461.1,663.4,461.1,663.4,461.1,663.3z M480.7,653c0.2-0.4,0.2-0.4,0.5-0.6l0.4-0.1c0.1,0,0.3,0,0.4,0c0.1,0,0.1,0,0.2,0.1
				c0.2,0.1,0.4,0.1,0.6,0.2c0.5,0.1,0.9,0.3,1.4,0.4c1.4,0.4,2.7,0.9,4.1,1.3c3.3,1.2,6.6,2.6,9.8,4.2c1.7,0.9,3.4,1.8,5.1,2.8
				l0.2,0.1l0.3,0.3l0.2,0.4l0,0.4l-0.1,0.4c-0.3,0.3-0.3,0.3-0.6,0.5l-0.4,0c-0.1,0-0.3-0.1-0.4-0.1c-0.1,0-0.1-0.1-0.2-0.1
				c-0.2-0.1-0.5-0.3-0.7-0.4c-0.2-0.1-0.5-0.3-0.7-0.4c-1-0.6-2.1-1.1-3.1-1.7c-2.1-1.1-4.3-2.1-6.4-2.9c-2-0.8-4-1.5-6-2.2
				c-1.2-0.4-2.3-0.7-3.5-1.1l-0.2-0.1c-0.4-0.2-0.4-0.2-0.6-0.5l-0.1-0.4C480.7,653.3,480.7,653.1,480.7,653z M414.3,661l0.2-0.4
				l0.3-0.3c4.5-2.5,9.3-4.7,14.2-6.4c2.3-0.8,4.6-1.5,6.9-2.1l0.3-0.1l0,0l0.4,0l0.4,0.1l0.3,0.3l0.2,0.4l0,0.4l-0.1,0.4l-0.3,0.3
				c-0.1,0.1-0.2,0.1-0.4,0.2c0,0,0,0,0,0c-0.1,0-0.2,0-0.3,0.1c-0.2,0-0.3,0.1-0.5,0.1c-0.3,0.1-0.7,0.2-1,0.3
				c-1.2,0.3-2.3,0.7-3.5,1.1c-2.2,0.7-4.3,1.5-6.4,2.4c-2.2,0.9-4.3,1.9-6.4,2.9c-0.9,0.5-1.8,1-2.8,1.5l-0.1,0.1
				c-0.4,0.1-0.4,0.1-0.8,0.1l-0.4-0.2l-0.3-0.3l-0.1-0.4C414.3,661.2,414.3,661.1,414.3,661z M517.2,648.9c0.3-0.4,0.2-0.9-0.2-1.2
				l-1.4-1c-0.4-0.3-0.9-0.2-1.2,0.2l-2.9,4.3c-0.3,0.4-0.2,0.9,0.2,1.2l1.4,1c0.4,0.3,0.9,0.2,1.2-0.2L517.2,648.9z M465.5,645.6
				l-7.9,6.4l-0.1,0.1c0,0-0.1,0-0.1,0c-0.1,0.1-0.2,0.1-0.4,0.1c-0.1,0-0.2,0-0.3,0c-0.4-0.1-0.7-0.3-0.8-0.6
				c0-0.1-0.1-0.2-0.1-0.4c0,0,0-0.1,0-0.1l0.4-5.5c-0.1,0-0.3,0-0.4,0c-0.1,0-0.2,0-0.3,0c-0.5,0-1-0.2-1.5-0.4
				c-0.7-0.3-1.3-0.7-1.7-1.2c-0.4-0.5-0.8-1-1-1.7c-0.2-0.5-0.3-1-0.3-1.6c0-2.7,0-5.3,0-8c0-0.5,0.1-1.1,0.3-1.6
				c0.2-0.6,0.5-1.1,0.9-1.6c0.5-0.6,1.2-1.1,2-1.4c0.4-0.1,0.7-0.2,1.1-0.3c0.2,0,0.3,0,0.5,0c5.5,0,11.1,0,16.6,0
				c0.2,0,0.3,0,0.5,0c0.4,0,0.8,0.1,1.1,0.3c0.8,0.3,1.5,0.8,2,1.4c0.4,0.5,0.7,1,0.9,1.6c0.2,0.5,0.3,1,0.3,1.6c0,2.6,0,5.3,0,7.9
				c0,0.6-0.1,1.1-0.3,1.6c-0.3,0.8-0.8,1.6-1.5,2.1c-0.5,0.4-1,0.7-1.6,0.9c-0.5,0.2-1,0.3-1.6,0.3H465.5z M457.4,643.5
				L457.4,643.5c0.1,0,0.2,0,0.2,0c0.1,0,0.2,0.1,0.3,0.1c0.3,0.1,0.5,0.4,0.5,0.7c0,0.1,0,0.1,0,0.2c0,0,0,0.1,0,0.1l-0.3,4.3
				l6.4-5.2l0.1-0.1c0,0,0,0,0.1,0c0.1-0.1,0.2-0.1,0.3-0.1c0.1,0,0.1,0,0.2,0c2.5,0,4.9,0,7.4,0c0.3,0,0.6-0.1,0.9-0.2
				c0.8-0.3,1.4-0.9,1.7-1.7c0.1-0.3,0.2-0.6,0.2-0.9c0-2.6,0.1-5.3,0-7.9c0-0.3-0.1-0.6-0.2-0.9c-0.3-0.8-0.9-1.4-1.7-1.7
				c-0.3-0.1-0.6-0.2-0.9-0.2c-5.5,0-11,0-16.5,0c-0.3,0-0.7,0.1-1,0.2c-0.8,0.3-1.4,0.9-1.7,1.7c-0.1,0.3-0.2,0.6-0.2,0.9
				c0,2.6,0,5.3,0,7.9c0,0.3,0.1,0.6,0.2,0.9c0.3,0.8,0.9,1.4,1.7,1.7c0.3,0.1,0.6,0.2,0.9,0.2h0H457.4z"/>
		</g>
	</g>
</g>
</svg>
