<?xml version="1.0" encoding="utf-8"?>
<svg version="1.1" id="svg-two-shot" xmlns:x="&ns_extend;" xmlns:i="&ns_ai;" xmlns:graph="&ns_graphs;"
	 xmlns="http://www.w3.org/2000/svg" xmlns:xlink="http://www.w3.org/1999/xlink" x="0px" y="0px" viewBox="0 0 940.4 929.1"
	 enable-background="new 0 0 940.4 929.1" xml:space="preserve">

	<g id="Layer_1_1_">
		<title>part2</title>
		<g id="Layer_2">
			<g id="black_color">
				<path fill="#004B85" d="M881.8,348.9l51.2-58.2c19.6-22.2-5.9-55.2-32.3-41.9l-43,21.6l0.1,0.3l-0.5,0.1
					C808.1,158.1,702.7,75.4,576.9,57.9l-0.6-0.8c0-0.2,0-0.4-0.1-0.5L551,14.2c-7.8-13.1-24.8-17.4-37.9-9.6
					c-4,2.4-7.3,5.7-9.6,9.6l-25.2,42.3v0.1l-0.9,1.1C349.6,75.3,242.8,160,194.3,275l-6.4-3.2c-26.5-13.3-51.9,19.6-32.3,41.9
					l19.3,21.9c-5.2,23.4-8.1,47.3-8.6,71.2H43c-22.3,0-42,16.9-42,39.1v10.8h11v56H1v21c0,22.3,19.8,42,42,42h35.5
					c2.8,2.7,4.5,6.3,4.9,10.2l1.6,14.9c0.4,4-0.6,7.9-2.8,11.2l-0.4,0.6L47.3,625C34,629.8,27,644.4,31.7,657.8l44.7,125.6
					c4.8,13.3,19.4,20.3,32.8,15.6l135.1-48.1c60.9,76.8,150.5,125.4,248,134.7l10.5,25.6c9.1,22.4,40.6,23,50.5,1l12.1-27h-0.5
					C642.3,877,715,843.8,772,790.6l0.4-0.1l-0.3,0.3l60.2,9.3c15.1,2.5,29.3-7.6,31.8-22.7c0.8-4.5,0.4-9.1-1.1-13.5l-20.8-59
					l-0.8-3c29.7-53.3,45.2-113.4,45.1-174.4h0.3V414.2l0,0c0-21.8-1.9-43.5-5.8-64.9l0.3-1.2C881.6,348.3,881.7,348.6,881.8,348.9
					z M909.9,264.9c5.2,0,9.4,4.2,9.4,9.4c0,5.2-4.2,9.4-9.4,9.4s-9.4-4.2-9.4-9.4l0,0C900.5,269.1,904.6,264.9,909.9,264.9
					C909.8,264.9,909.8,264.9,909.9,264.9L909.9,264.9L909.9,264.9z M169.4,297.3c0-5.2,4.2-9.4,9.4-9.4c3.9,0,7.3,2.4,8.7,6
					c-1.3,3.8-2.6,7.5-3.8,11.4c-4.4,2.7-10.2,1.4-12.9-3C169.8,300.7,169.3,299,169.4,297.3L169.4,297.3z M63.6,565.8
					C47.1,565.8,33,552,33,535.5v-90.7c0-16.8,14.4-30,31.2-30H166v112.7c0,12.8,1.4,25.4,2.7,38.4H63.6V565.8z M120.8,781.8
					c-8.8,3.1-18.6-1.5-21.7-10.3L56.8,652.7c-3.1-8.8,1.5-18.5,10.3-21.7l105.7-37.6c9.9,53.3,31.8,103.6,64,147.2L120.8,781.8z
					 M765.3,473.3l42.1-9.1c5.4-1.2,10.7,2.3,11.9,7.7l0,0l0.1,0.3c3.1,17.3,4.7,34.9,4.7,52.5c0,4.7-0.1,9.4-0.3,14
					c-0.3,5.5-5,9.8-10.5,9.5l0,0H813l-42.9-3.5c-2.7-0.2-4.8-2.6-4.6-5.3c0.3-4.9,0.5-9.8,0.5-14.7c0-15.3-1.5-30.5-4.3-45.6
					C760.9,476.5,762.6,473.9,765.3,473.3z M527.2,12.8c11.4,0,20.7,9.2,20.7,20.6c0,1.6-0.2,3.3-0.6,4.8
					c-5.2,11.1-18.4,16-29.6,10.8c-4.7-2.2-8.6-6-10.8-10.8c-2.6-11.1,4.2-22.3,15.3-24.9C523.9,13,525.5,12.8,527.2,12.8
					L527.2,12.8z M330,175.6c39-21.9,82.3-36.8,127.8-44.8h138.8c46.7,8,90.5,23.7,129.5,46.6v95.8c-54-43.6-124.2-69.6-199.6-69.6
					c-74,0-141.4,25.1-196.4,67.2v-95.2L330,175.6L330,175.6z M349.7,758.9c-2.7,0.4-5.4-0.3-7.5-2c-24.2-19.3-45.3-42.3-62.4-68.1
					c-3-4.6-1.7-10.8,2.9-13.8l0.2-0.2c10.7-6.6,28.6-17.6,36.7-22.6c2.3-1.4,5.4-0.7,6.8,1.6c14.7,22.8,33.2,43,54.7,59.7
					c2.2,1.7,2.6,4.7,1,6.9L356.4,755C354.8,757.1,352.4,758.5,349.7,758.9z M528.8,907.6c-4.9,0-8.9-4-8.9-8.9s4-8.9,8.9-8.9
					s8.9,4,8.9,8.9l0,0l0,0C537.7,903.7,533.7,907.6,528.8,907.6z M622.6,802.6c-1.2,2.4-3.3,4.3-5.9,5.1
					c-77.6,24.5-161.8,16.1-233-23.2c-4.8-2.7-6.5-8.8-3.8-13.6l0.1-0.2l22.1-37c1.4-2.4,4.5-3.1,6.8-1.7c8,4.6,16.2,8.7,24.7,12.3
					l-1.3,13.1c-1.8,17.6,21.8,25.1,30.5,9.7l6.1-10.9c44,11,90.3,9.3,133.4-5c2.6-0.9,5.4,0.5,6.3,3.1c3.2,9,10.2,28.7,14.4,40.6
					C624,797.4,623.8,800.2,622.6,802.6L622.6,802.6z M686.3,745.5c2,3.3,0.8,7.6-2.5,9.6c-3.1,1.8-7,1-9.1-1.9l-23.1-35
					c-0.8,0.5-1.7,1.1-2.6,1.6l-1.1,0.7c-1.1,0.7-2.1,1.3-3.2,1.9l-1.2,0.7c-1.1,0.7-2.2,1.3-3.2,1.9l-1,0.6
					c-1.2,0.7-2.3,1.3-3.5,1.9l-0.4,0.2c-62,33.1-135.6,36.1-200.1,8.2l-0.3,0.6c-19.5-8.6-37.8-20-54.2-33.6l0.2-0.2
					c-39.7-32.6-67.4-77.4-78.8-127.5l0,0c-0.4-2-0.9-4-1.2-5.9l-0.1-0.5c-0.4-1.8-0.7-3.6-1-5.4l-0.2-1c-0.3-1.7-0.5-3.3-0.8-5
					l-0.2-1.3c-0.2-1.6-0.4-3.1-0.6-4.7c-0.1-0.5-0.1-1-0.2-1.6c-0.2-1.5-0.3-3-0.4-4.5c0-0.6-0.1-1.2-0.2-1.8s-0.1-1.3-0.2-1.9
					l-38.8,2.5c-3.5,0.3-6.7-2.3-7-5.8l0,0c0-0.1,0-0.2,0-0.3c0-3.6,2.4-6.7,6-7l38.9-2.4c0-1.2-0.3-2.4-0.3-3.7v-0.2
					c0-1.4,0.3-3.1,0.4-4.1c0-0.8,0.3-1.6,0.4-2.4V517c0.1-1.8,0.1-3.6,0.2-5.4c0-0.3,0-0.6,0.1-0.9c0.1-2,0.3-4,0.4-5.9v-0.4
					c10.3-117.6,109.1-210,229.4-210c39.7-0.1,78.8,10.2,113.3,29.8l0,0c1.3,0.8,2.7,1.5,4,2.3l0.4,0.2c1.3,0.8,2.5,1.5,3.8,2.3
					l0.4,0.3c1.3,0.8,2.5,1.6,3.8,2.4l0.2,0.1c4.3,2.8,8.5,5.7,12.6,8.8l26.2-30.8c2.5-3,7-3.3,10-0.8s3.3,7,0.8,10l-25.9,30.5
					l3,2.6l0.5,0.4c1.1,1,2.2,1.9,3.2,2.9l0.3,0.3c5.9,5.4,11.4,11.1,16.7,17.1l0,0c32.3,36.7,52,82.8,56.2,131.6h0.2
					c1.9,21.3,0.8,42.7-3.2,63.7h-0.2c-9.2,48.1-33.6,92.1-69.6,125.4l-0.8,0.7c-0.9,0.9-1.9,1.7-2.8,2.5l-1,0.9l-2.8,2.4l-1,0.9
					l-2.9,2.4l-0.9,0.7c-1,0.8-2,1.7-3.1,2.5l-0.4,0.3c-1.6,1.2-3.2,2.4-4.8,3.6L686.3,745.5z M751.6,718.8
					c-3.6,4.2-10,4.6-14.1,0.9l-0.2-0.2l-31.6-29.3c-2-1.9-2.1-5-0.3-7c6.3-7.1,12.2-14.6,17.7-22.4l13.1,3.7
					c17.1,4.8,28.5-17.2,14.8-28.4l-9-7.4c9.1-18.8,15.7-38.7,19.6-59.2c0.5-2.7,3.1-4.5,5.7-4l42.5,7.2c5.4,0.9,9.1,6.1,8.2,11.5
					v0.3C807.8,634.3,784.9,680.5,751.6,718.8L751.6,718.8z M841.6,750c10.2,5.2,14.2,17.8,9,27.9c-5.2,10.2-17.8,14.2-27.9,9
					c-2.8-1.5-5.3-3.6-7.2-6.1c-5.2-11.1-0.3-24.4,10.8-29.5C831,749,836.5,748.6,841.6,750L841.6,750z"/>
				<path fill="#004B85" d="M696.1,591.9c13.8-34.6,16.5-72.5,8-108.7h-0.2c-6.1-26-17.9-50.3-34.5-71.3c-1-1.2-2-2.4-3-3.6
					l-0.4-0.5c-0.9-1-1.8-2.1-2.7-3.1l-0.6-0.6c-0.9-1-1.7-1.9-2.6-2.9l-0.6-0.7c-0.9-0.9-1.8-1.9-2.6-2.8l-0.7-0.7
					c-0.9-0.9-1.9-1.9-2.8-2.8l-0.6-0.5c-1.1-1-2.1-2-3.2-3l-0.2-0.2c-2.4-2.2-4.8-4.3-7.3-6.3l-0.1-0.1c-1.1-0.9-2.3-1.9-3.5-2.8
					l-0.9-0.7l-2.8-2.1l-1.2-0.9l-2.5-1.8l-1.4-1l-2.5-1.7l-1.5-1c-0.8-0.5-1.6-1.1-2.5-1.6l-1.5-0.9c-0.8-0.5-1.7-1-2.6-1.5
					l-1.5-0.9c-0.9-0.5-1.9-1.1-2.8-1.6l-1.2-0.7c-1.4-0.7-2.8-1.5-4.1-2.2c-54.5-27.8-119.3-26.4-172.5,3.9l0.2,0.4
					c-14.7,8.3-28.2,18.6-40.1,30.7l-0.1-0.1c-26.3,26.8-43.6,61.1-49.6,98.1c-0.2,1.1-0.3,2.1-0.5,3.2l-0.1,0.7
					c-0.1,1-0.3,2-0.4,3.1c0,0.2,0,0.5-0.1,0.7c-0.1,0.5-0.1,1-0.1,1.5c-0.1,1.1-0.2,2.2-0.3,3.4c0,0.3,0,0.6-0.1,0.9
					c0,0.3-0.1,0.7-0.1,1c-0.1,0.7-0.1,1.4-0.1,2.1c0,0.7-0.1,1.5-0.1,2.2s-0.1,1.2-0.1,1.9v1.1c0,0.7,0,1.4-0.1,2.1v1.3
					c0,1.2-0.1,2.5-0.1,3.7l-0.1,0.1l0,0c0,14.1,1.7,28.1,5,41.7c0.1,0.2,0.2,0.5,0.2,0.8v0.1c0.5,1.9,1,3.8,1.5,5.7
					C373,649.9,443.4,706.4,527,706.4c36.8,0,72.7-11.2,103-32.1h0.1c1.3-0.9,2.6-1.8,3.8-2.7l0.1-0.1c1.3-0.9,2.5-1.9,3.8-2.8l0,0
					c25.8-19.9,45.8-46.4,57.9-76.7L696.1,591.9z M579,669.2l-1.4-5.3c-0.7-2.7-3.4-4.3-6.1-3.6l0,0l0,0l-22.1,5.7
					c-2.7,0.7-4.3,3.4-3.6,6.1l0,0l0,0l1.2,4.8c-6.6,0.9-13.3,1.3-19.9,1.3c-24.8,0-49.2-6-71.1-17.5l3.2-4.8
					c1.5-2.3,0.9-5.4-1.4-6.9l0,0l0,0L439,636.4c-2.3-1.5-5.4-0.9-6.9,1.4l0,0l0,0l-3.2,4.8c-23.2-19.3-40.1-45-48.8-73.9l9.6,0.7
					h0.1c1.6,0.1,3-1.1,3.1-2.7c0-0.3,0-0.7-0.1-1c-2.2-7.1-3.8-14.5-4.8-21.8c-0.4-2.7-2.6-4.9-5.4-5.1l-8.3-0.6
					c-0.4-4.4-0.6-8.9-0.6-13.5c0-11.9,1.4-23.8,4.1-35.4l8.4,0.6c2.8,0.2,5.3-1.6,6.1-4.2c2.1-7.2,4.7-14.2,7.9-20.9
					c0.7-1.4,0.1-3.1-1.4-3.8c-0.3-0.1-0.6-0.2-1-0.3l0,0l-9.7-0.7c12.4-26.5,32-48.9,56.5-64.6l3.4,6.5c1.3,2.4,4.3,3.4,6.8,2.1
					l20.2-10.6c2.4-1.3,3.4-4.3,2.1-6.8l-3.1-5.9c30-11.1,62.6-12.5,93.5-4.2l-2.3,6.2c-1,2.6,0.3,5.5,2.9,6.4l0,0l0,0l21.3,8.1
					c2.6,1,5.5-0.3,6.4-2.9l0,0l0,0l2.2-5.9c37,19.2,64.6,52.7,76.5,92.6l-9.9-0.7l0,0c-1.6-0.1-2.9,1.1-3,2.7c0,0.3,0,0.7,0.1,1
					c2.1,7.1,3.7,14.4,4.8,21.8c0.4,2.8,2.6,4.9,5.4,5.1l8.4,0.6c0.4,4.3,0.6,8.7,0.6,13.2c0,12-1.4,24-4.2,35.7l-8.5-0.6
					c-2.8-0.2-5.3,1.6-6.1,4.2c-2.1,7.2-4.8,14.2-8,20.9c-0.7,1.4-0.1,3.2,1.4,3.8c0.3,0.1,0.6,0.2,1,0.3h0.1l9.8,0.7
					C648.8,626.7,617.5,655.3,579,669.2z"/>
			</g>
			<g id="white_color">
				<g>
					<g>
						<g>
							<g>
								<g>
									<g>
										<g>
											<g>
												<g>
													<g>
														<g>
															<defs>
																<rect id="SVGID_1_" x="200" y="250" width="600" height="550"/>
															</defs>
															<clipPath id="SVGID_2_">
																<use xlink:href="#SVGID_1_"  overflow="visible"/>
															</clipPath>
															<path clip-path="url(#SVGID_2_)" fill="#FFFFFF" d="M756.5,504.5h-0.2c-4.2-48.7-23.9-94.8-56.2-131.5l0,0
																c-5.3-6-10.8-11.7-16.7-17.1l-0.3-0.3c-1.1-1-2.1-1.9-3.2-2.9l-0.5-0.4c-1-0.9-2-1.7-3-2.6l25.9-30.5
																c2.5-3,2.2-7.5-0.8-10s-7.5-2.2-10,0.8l0,0l0,0l-26.2,30.8c-4.1-3.1-8.3-6-12.6-8.8l-0.2-0.1
																c-1.3-0.8-2.5-1.6-3.8-2.4l-0.4-0.3c-1.3-0.8-2.5-1.6-3.8-2.3l-0.4-0.2c-1.3-0.8-2.7-1.5-4-2.3l0,0
																c-34.5-19.5-73.5-29.8-113.2-29.7c-120.3,0-219.1,92.4-229.4,210v0.4c-0.2,2-0.3,3.9-0.4,5.9c0,0.3,0,0.6-0.1,0.9
																c-0.1,1.8-0.2,3.6-0.2,5.4v1.2c0,0.8-0.3,1.6-0.4,2.4c0,1-0.4,2.7-0.4,4.1v0.2c0,1.3,0.3,2.4,0.3,3.7l-38.9,2.4
																c-3.6,0.2-6,3.3-6,7c0.1,3.5,3.1,6.3,6.7,6.2l0,0h0.3l38.8-2.5c0,0.6,0.1,1.3,0.2,1.9s0.1,1.2,0.2,1.8
																c0.1,1.5,0.3,3,0.4,4.5c0.1,0.5,0.1,1,0.2,1.6c0.2,1.6,0.4,3.2,0.6,4.7l0.2,1.3c0.2,1.7,0.5,3.4,0.8,5l0.2,1
																c0.3,1.8,0.6,3.6,1,5.4l0.1,0.5c0.4,2,0.8,4,1.2,5.9l0,0c11.3,50.1,39,94.9,78.7,127.5l-0.2,0.2
																c16.4,13.6,34.7,24.9,54.2,33.6l0.3-0.6c64.4,27.9,138.1,25,200.1-8.1l0.4-0.2c1.2-0.6,2.3-1.3,3.5-1.9l1-0.6
																c1.1-0.6,2.2-1.2,3.2-1.9l1.2-0.7l3.2-1.9l1.2-0.7c0.9-0.5,1.7-1.1,2.6-1.6l23.1,35c2.3,3.1,6.7,3.7,9.8,1.4
																c2.9-2.1,3.7-6.1,1.9-9.1L663,710.4c1.6-1.2,3.2-2.4,4.8-3.6l0.4-0.3c1-0.8,2.1-1.6,3.1-2.5l0.9-0.7
																c1-0.8,1.9-1.6,2.9-2.4l1-0.9c0.9-0.8,1.9-1.6,2.8-2.4l1-0.9l2.8-2.5l0.8-0.7c35.9-33.3,60.3-77.2,69.5-125.4h0.2
																c4-21,5.1-42.4,3.2-63.7L756.5,504.5z M630,674.3L630,674.3c-10.8,7.4-22.3,13.6-34.4,18.6l0,0
																c-21.8,8.9-45.2,13.5-68.7,13.5c-83.6,0-154-56.5-175.2-133.4c-0.5-1.9-1-3.8-1.5-5.7v-0.1
																c-0.9-3.8-1.7-7.7-2.4-11.6l-0.1-0.6c-0.3-1.7-0.5-3.4-0.8-5.1c0-0.3-0.1-0.6-0.1-0.8c-0.5-3.8-0.9-7.5-1.2-11.4
																c0-0.5-0.1-1-0.1-1.4c-0.1-1.4-0.2-2.9-0.2-4.3c0-0.5,0-1.1-0.1-1.6c-0.1-1.9-0.1-3.8-0.1-5.7c0-1.4,0-2.8,0-4.2
																V519c0-0.9,0-1.8,0.1-2.7c0-0.6,0-1.2,0.1-1.9c0-0.7,0.1-1.5,0.1-2.2s0.1-1.4,0.1-2.1c0-0.3,0.1-0.7,0.1-1
																c0.2-1.9,0.4-3.8,0.6-5.7c0-0.2,0-0.5,0.1-0.7c0.1-1,0.3-2.1,0.4-3.1l0.1-0.7c0.2-1.1,0.3-2.1,0.5-3.2
																c6-37.1,23.3-71.4,49.6-98.2l0.1,0.1c11.9-12,25.4-22.4,40.1-30.7l-0.2-0.4c53.2-30.2,118-31.7,172.5-3.9
																c1.4,0.7,2.8,1.4,4.1,2.2l1.2,0.7c1,0.5,1.9,1.1,2.8,1.6l1.5,0.9c0.9,0.5,1.7,1,2.6,1.5l1.5,0.9l2.5,1.6l1.5,1
																l2.5,1.7l1.4,1c0.9,0.6,1.7,1.2,2.5,1.8l1.2,0.9c0.9,0.7,1.9,1.4,2.8,2.1l0.9,0.7c1.2,0.9,2.3,1.8,3.5,2.8l0.1,0.1
																c2.5,2,4.9,4.1,7.3,6.3l0.2,0.2c1.1,1,2.1,2,3.2,3l0.6,0.5c0.9,0.9,1.9,1.8,2.8,2.8l0.7,0.7
																c0.9,0.9,1.8,1.8,2.6,2.8l0.6,0.7c0.9,0.9,1.8,1.9,2.6,2.9l0.6,0.6c0.9,1,1.8,2.1,2.7,3.1l0.4,0.5
																c1,1.2,2,2.4,3,3.6c62.3,78.7,48.9,193-29.8,255.3c-0.6,0.5-1.2,0.9-1.7,1.4l0,0c-1.2,1-2.5,1.9-3.8,2.8l-0.1,0.1
																C632.6,672.5,631.3,673.4,630,674.3z"/>
														</g>
													</g>
												</g>
											</g>
										</g>
									</g>
								</g>
							</g>
						</g>
					</g>
				</g>
			</g>
			<g id="black_part">
				<path fill="none" stroke="#00CEFF" stroke-width="1.5" stroke-linecap="round" stroke-linejoin="round" d="M526.9,343
					c100.3,0,181.7,81.4,181.7,181.7s-81.4,181.7-181.7,181.7S345.2,625,345.2,524.7S426.6,343,526.9,343z"/>
				<path fill="none" stroke="#00CEFF" stroke-width="1.5" stroke-linecap="round" stroke-linejoin="round" d="M526.9,294.4
					c127.1,0,230.3,103.2,230.3,230.3S654,755,526.9,755S296.6,651.8,296.6,524.7S399.8,294.4,526.9,294.4z"/>
				<path fill="none" stroke="#00CEFF" stroke-width="1.5" stroke-linecap="round" stroke-linejoin="round" d="M526.9,349.5
					c96.7,0,175.2,78.5,175.2,175.2s-78.5,175.2-175.2,175.2s-175.2-78.5-175.2-175.2S430.2,349.5,526.9,349.5z"/>
				<path fill="none" stroke="#00CEFF" stroke-width="1.5" stroke-linecap="round" stroke-linejoin="round" d="M526.9,371.2
					c84.8,0,153.5,68.7,153.5,153.5s-68.7,153.5-153.5,153.5s-153.5-68.7-153.5-153.5l0,0C373.4,439.9,442.1,371.2,526.9,371.2z"/>
				<path fill="none" stroke="#00CEFF" stroke-width="1.5" stroke-linecap="round" stroke-linejoin="round" d="M526.9,220
					c168.1,0,304.6,136.5,304.6,304.7S695.1,829.4,526.9,829.4S222.3,692.8,222.3,524.7S358.8,220,526.9,220z"/>
				<path fill="none" stroke="#00CEFF" stroke-width="1.5" stroke-linecap="round" stroke-linejoin="round" d="M526.9,213.5
					c171.8,0,311.2,139.4,311.2,311.2S698.7,835.9,526.9,835.9S215.7,696.5,215.7,524.7S355.2,213.5,526.9,213.5z"/>
				<path fill="none" stroke="#00CEFF" stroke-width="1.5" stroke-linecap="round" stroke-linejoin="round" d="M526.9,203.6
					c177.2,0,321.1,143.9,321.1,321.1S704.1,845.8,526.9,845.8S205.8,701.9,205.8,524.7S349.7,203.6,526.9,203.6z"/>
				<path fill="none" stroke="#00CEFF" stroke-width="1.5" stroke-linecap="round" stroke-linejoin="round" d="M769.7,544.7
					c-2.7-0.2-4.8-2.6-4.6-5.3c0.3-4.9,0.5-9.8,0.5-14.7c0-15.3-1.5-30.5-4.3-45.6c-0.5-2.7,1.2-5.3,3.8-5.9l42.1-9.1
					c5.4-1.2,10.7,2.3,11.9,7.7l0,0l0.1,0.3c3.1,17.3,4.6,34.9,4.6,52.5c0,4.7-0.1,9.4-0.3,14c-0.3,5.5-4.9,9.8-10.4,9.5h-0.3
					L769.7,544.7z M761.4,569.5c0.5-2.7,3.1-4.5,5.7-4l42.5,7.2c5.4,0.9,9.1,6.1,8.2,11.5l0,0l-0.1,0.3
					c-10.2,49.7-33.1,95.9-66.3,134.3c-3.6,4.2-10,4.6-14.1,0.9l-0.2-0.2l-31.6-29.3c-2-1.9-2.1-5-0.3-7
					C733.9,651.2,753.3,611.9,761.4,569.5z M356.2,754.9c-3.3,4.4-9.5,5.4-14,2.1l0,0l-0.2-0.2c-24.2-19.3-45.3-42.3-62.4-68.1
					c-3-4.6-1.7-10.8,2.9-13.8l0.2-0.2c10.7-6.6,28.6-17.6,36.7-22.6c2.3-1.4,5.4-0.7,6.8,1.6c14.7,22.8,33.2,43,54.7,59.7
					c2.2,1.7,2.6,4.7,1,6.9L356.2,754.9z M401.9,733.8c1.4-2.3,4.4-3.1,6.8-1.8c58.8,33.5,129.1,40.5,193.4,19.2
					c2.6-0.9,5.4,0.5,6.3,3.1c3.2,9,10.2,28.7,14.4,40.6c1.8,5.2-0.9,10.9-6.1,12.8l0,0l-0.3,0.1c-77.6,24.5-161.8,16.1-233-23.2
					c-4.8-2.7-6.5-8.8-3.8-13.6l0.1-0.2C386.3,760,397,742,401.9,733.8L401.9,733.8z"/>
				<path fill="none" stroke="#00CEFF" stroke-width="2" stroke-linecap="round" stroke-linejoin="round" d="M869,416.9L869,416.9
					C869,228,715.4,74.7,526.5,74.7S184,228.1,184,416.9v107.8c0,188.9,153.7,342.2,342.6,342.2s342.3-153.3,342.3-342.2h0.1
					L869,416.9L869,416.9z"/>
				<path fill="none" stroke="#00CEFF" stroke-width="2" stroke-linecap="round" stroke-linejoin="round" d="M881,415.1L881,415.1
					C881,220,721.7,61.5,526.5,61.5S172,220,172,415.1v111.4c0,195.2,159.1,353.6,354.3,353.6s354.1-158.4,354.2-353.6h0.6
					L881,415.1L881,415.1z"/>
				<path fill="none" stroke="#00CEFF" stroke-width="2" stroke-linecap="round" stroke-linejoin="round" d="M887,414.2L887,414.2
					c0-198.6-161.9-359.8-360.5-359.8S166,215.6,166,414.2v113.3c0,198.5,161.8,359.8,360.3,359.8S886.5,726,886.5,527.5h0.5V414.2
					z"/>
				<path fill="none" stroke="#00CEFF" stroke-width="2" stroke-linecap="round" stroke-linejoin="round" d="M887,414.2L887,414.2
					c0-198.6-161.9-359.8-360.5-359.8S166,215.6,166,414.2v113.3c0,198.5,161.8,359.8,360.3,359.8S886.5,726,886.5,527.5h0.5V414.2
					z"/>
				
					<ellipse transform="matrix(0.6481 -0.7615 0.7615 0.6481 -293.7689 907.2532)" fill="none" stroke="#00CEFF" stroke-width="1.5" stroke-linecap="round" stroke-linejoin="round" cx="834.9" cy="771.5" rx="22.3" ry="22.3"/>
				<path fill="none" stroke="#00CEFF" stroke-width="1.5" stroke-linecap="round" stroke-linejoin="round" d="M845.2,752.7
					c8.8,7.4,9.9,20.5,2.5,29.2c-7.4,8.8-20.5,9.9-29.2,2.5c-1.3-1.1-2.4-2.3-3.4-3.6c5.1,11.2,18.4,16.1,29.5,10.9
					c11.2-5.1,16.1-18.4,10.9-29.5c-2.7-6-8-10.4-14.3-12.2C842.7,750.7,844,751.6,845.2,752.7z"/>
				<path fill="none" stroke="#00CEFF" stroke-width="1.5" stroke-linecap="round" stroke-linejoin="round" d="M841.3,702.6
					L841.3,702.6c-18.4,32.8-41.8,62.6-69.4,88.2l60.2,9.3c15.1,2.5,29.3-7.6,31.8-22.7c0.8-4.5,0.4-9.1-1.1-13.5L841.3,702.6z"/>
				
					<circle fill="none" stroke="#00CEFF" stroke-width="1.5" stroke-linecap="round" stroke-linejoin="round" cx="526.9" cy="28.9" r="22.3"/>
				<path fill="none" stroke="#00CEFF" stroke-width="1.5" stroke-linecap="round" stroke-linejoin="round" d="M506.2,33.6
					c-0.1-11.5,9.2-20.8,20.7-20.8s20.8,9.2,20.8,20.7c0,1.7-0.2,3.3-0.6,4.9c5.2-11.1,0.4-24.4-10.8-29.6s-24.4-0.4-29.6,10.8
					c-2.8,6-2.8,12.9,0,18.8C506.4,36.8,506.2,35.2,506.2,33.6z"/>
				<path fill="none" stroke="#00CEFF" stroke-width="1.5" stroke-linecap="round" stroke-linejoin="round" d="M478.3,57.7
					c32.3-4.4,65.1-4.4,97.5,0c0.4-0.3,0.5-0.7,0.2-1.1l-25.2-42.3C542.9,1.1,526-3.2,512.9,4.6c-4,2.4-7.3,5.7-9.6,9.6L478,56.6
					C477.8,57,477.9,57.4,478.3,57.7z"/>
				<path fill="none" stroke="#00CEFF" stroke-width="1.5" stroke-linecap="round" stroke-linejoin="round" d="M526.9,287.7
					c23.8,0,47.5,3.6,70.2,10.6h77c2.8,0,5-2.2,5-5c0-1.7-0.9-3.3-2.3-4.2c-11.8-7.6-24.2-14.3-37.1-20c-1.3-0.6-2.6-0.8-4-0.8
					H418.2c-1.4,0-2.7,0.3-4,0.8c-12.9,5.7-25.3,12.4-37.1,20c-2.3,1.5-3,4.6-1.5,6.9c0.9,1.4,2.5,2.3,4.2,2.3h77
					C479.5,291.3,503.1,287.7,526.9,287.7z"/>
				<path fill="none" stroke="#00CEFF" stroke-width="1.5" stroke-linecap="round" stroke-linejoin="round" d="M526.9,287.7
					c23.8,0,47.5,3.6,70.2,10.6h77c2.8,0,5-2.2,5-5c0-1.7-0.9-3.3-2.3-4.2c-11.8-7.6-24.2-14.3-37.1-20c-1.3-0.6-2.6-0.8-4-0.8
					H418.2c-1.4,0-2.7,0.3-4,0.8c-12.9,5.7-25.3,12.4-37.1,20c-2.3,1.5-3,4.6-1.5,6.9c0.9,1.4,2.5,2.3,4.2,2.3h77
					C479.5,291.3,503.1,287.7,526.9,287.7z"/>
				<path fill="none" stroke="#00CEFF" stroke-width="2" stroke-linecap="round" stroke-linejoin="round" d="M419.7,281.8
					c-1.4,0-2.7,0.3-4,0.9c-11.4,4.6-22.3,9.1-32.8,16.1h73.8c45.8-14.1,94.7-14.1,140.5,0h77v-0.2c-10.6-6.1-21.5-11.4-32.8-16
					c-1.3-0.5-2.6-0.8-4-0.8H419.7z"/>
				<path fill="none" stroke="#00CEFF" stroke-width="1.5" stroke-miterlimit="10" d="M690.7,353.5l-4.2,5
					c91.8,88,94.9,233.7,6.9,325.6c-6.1,6.3-12.5,12.3-19.2,17.9l3.6,5.5C778.6,624.2,793,475,709.8,374
					C703.8,366.8,697.4,359.9,690.7,353.5L690.7,353.5z"/>
				<path fill="none" stroke="#00CEFF" stroke-width="1.5" stroke-miterlimit="10" d="M639.6,725.7
					c-34.4,19.4-73.2,29.5-112.7,29.4c-117,0-213.7-87.4-228.5-200.4l-6.5,0.4c15,116.4,114.5,206.5,235,206.5
					c40.8,0.1,80.8-10.5,116.3-30.5L639.6,725.7z"/>
				<path fill="none" stroke="#00CEFF" stroke-width="1.5" stroke-miterlimit="10" d="M296.8,512.9
					c6.2-121.7,106.9-218.6,230.1-218.6c45.1-0.1,89.2,13.1,126.8,38l4.3-5c-38.8-25.9-84.4-39.6-131-39.6
					c-127,0-230.7,100.1-236.7,225.6L296.8,512.9z"/>
				<path fill="none" stroke="#00CEFF" stroke-width="1.5" stroke-miterlimit="10" d="M690.7,353.5l-4.2,5
					c91.8,88,94.9,233.7,6.9,325.6c-6.1,6.3-12.5,12.3-19.2,17.9l3.6,5.5C778.6,624.2,793,475,709.8,374
					C703.8,366.8,697.4,359.9,690.7,353.5L690.7,353.5z"/>
				<path fill="none" stroke="#00CEFF" stroke-width="1.5" stroke-miterlimit="10" d="M639.6,725.7
					c-34.4,19.4-73.2,29.5-112.7,29.4c-117,0-213.7-87.4-228.5-200.4l-6.5,0.4c15,116.4,114.5,206.5,235,206.5
					c40.8,0.1,80.8-10.5,116.3-30.5L639.6,725.7z"/>
				<path fill="none" stroke="#00CEFF" stroke-width="1.5" stroke-miterlimit="10" d="M296.8,512.9
					c6.2-121.7,106.9-218.6,230.1-218.6c45.1-0.1,89.2,13.1,126.8,38l4.3-5c-38.8-25.9-84.4-39.6-131-39.6
					c-127,0-230.7,100.1-236.7,225.6L296.8,512.9z"/>
				<path fill="none" stroke="#00CEFF" stroke-width="1.5" stroke-linecap="round" stroke-linejoin="round" d="M695.8,734.8
					l-21.8-33c-3.6,3-7.2,5.8-11,8.6l23.3,35.2c2,3.3,0.8,7.6-2.5,9.6c-3.1,1.8-7,1-9.1-1.9l-23.1-35c-3.9,2.5-7.9,4.9-12,7.2
					l21.4,32.3c6.4,9.6,19.3,12.3,29,5.9C699.5,757.3,702.1,744.4,695.8,734.8L695.8,734.8z"/>
				<path fill="none" stroke="#00CEFF" stroke-width="1.5" stroke-linecap="round" stroke-linejoin="round" d="M705.9,303.3
					L705.9,303.3c-8.8-7.5-22-6.4-29.5,2.4l0,0l0,0l-22.7,26.7c4,2.6,7.9,5.4,11.7,8.2l26.2-30.8c2.5-3,7-3.3,10-0.8s3.3,7,0.8,10
					l-25.9,30.5c3.4,2.9,6.7,5.9,10,9l21.9-25.7C715.8,324,714.7,310.8,705.9,303.3L705.9,303.3z"/>
				<path fill="none" stroke="#00CEFF" stroke-width="1.5" stroke-linecap="round" stroke-linejoin="round" d="M258.4,544
					c-3.6,0.2-6.8-2.5-7-6.1l0,0l0,0c-0.2-3.6,2.5-6.8,6.1-7l0,0l39.1-2.5v-3.8c0-4,0.1-7.9,0.3-11.8l-35.3,2.2
					c-11.5,0.7-20.3,10.7-19.6,22.2s10.7,20.3,22.2,19.6l34.4-2.2c-0.6-4.3-1-8.7-1.3-13.1L258.4,544z"/>
				<path fill="none" stroke="#00CEFF" stroke-width="1.5" stroke-miterlimit="10" d="M526.6,887.2c-11.6,0-23-0.5-34.3-1.6
					l10.3,25.4c9.1,22.4,40.6,22.9,50.5,0.8l11.9-26.6C552.2,886.6,539.4,887.2,526.6,887.2z"/>
				<path fill="none" stroke="#00CEFF" stroke-width="1.5" stroke-miterlimit="10" d="M556.2,886l-10.9,24.1
					c-6.8,15.1-28.3,14.9-34.6-0.5l-9.6-23.3c-3-0.2-6-0.5-9-0.8l10.5,25.6c9.1,22.4,40.6,23,50.5,1l12.1-27
					C562.2,885.5,559.2,885.8,556.2,886z"/>
				<circle fill="none" stroke="#00CEFF" stroke-width="1.5" stroke-miterlimit="10" cx="528.6" cy="898.8" r="8.9"/>
				<path fill="none" stroke="#00CEFF" stroke-width="2" stroke-linecap="round" stroke-linejoin="round" d="M526.4,203.6
					c75.4,0,145.6,26.1,199.6,69.6v-95.8c-39-22.8-83-38.6-129.7-46.6H457.5c-45.4,8-88.5,22.9-127.5,44.8v95.2
					C385,228.7,452.5,203.6,526.4,203.6z"/>
				<circle fill="none" stroke="#00CEFF" stroke-width="1.5" stroke-miterlimit="10" cx="909.6" cy="274.2" r="9.4"/>
				<path fill="none" stroke="#00CEFF" stroke-width="1.5" stroke-miterlimit="10" d="M900.4,248.8l-43,21.6
					c11,25.2,19.1,51.5,24.1,78.5l51.2-58.2C952.3,268.4,926.9,235.5,900.4,248.8z"/>
				<path fill="none" stroke="#00CEFF" stroke-width="1.5" stroke-miterlimit="10" d="M900.4,248.8l-43,21.6
					c11,25.2,19.1,51.5,24.1,78.5l51.2-58.2C952.3,268.4,926.9,235.5,900.4,248.8z"/>
				<path fill="none" stroke="#00CEFF" stroke-width="1.5" stroke-miterlimit="10" d="M901.1,255.4l-41.2,20.7
					c8.6,20.7,15.3,42.1,19.9,64l46.1-52.4C941,270.5,921.4,245.2,901.1,255.4z"/>
				<path fill="none" stroke="#00CEFF" stroke-width="1.5" stroke-miterlimit="10" d="M194.5,275.2l-6.8-3.4
					c-26.5-13.3-51.9,19.6-32.3,41.9l19.7,22.3C179.7,315.2,186.2,294.8,194.5,275.2z"/>
				<path fill="none" stroke="#00CEFF" stroke-width="1.5" stroke-miterlimit="10" d="M192.1,280.9l-5.1-2.5
					c-20.4-10.2-39.9,15.1-24.9,32.2l14.9,16.9C181,311.7,186,296.1,192.1,280.9z"/>
				<path fill="none" stroke="#00CEFF" stroke-width="1.5" stroke-miterlimit="10" d="M178.5,306.6c1.7,0,3.4-0.5,4.9-1.4
					c1.2-3.8,2.5-7.6,3.8-11.4c-1.9-4.8-7.3-7.2-12.1-5.4s-7.2,7.3-5.4,12.1C171.1,304.2,174.6,306.6,178.5,306.6L178.5,306.6z"/>
				<path fill="none" stroke="#00CEFF" stroke-width="2" stroke-miterlimit="10" d="M12,450.5c0-20,17-35.6,37-35.6h117.5
					c0-3,0-6,0.1-8H42.8C20.5,406.8,1,423.8,1,446v10.8h11V450.5z"/>
				<path fill="none" stroke="#00CEFF" stroke-width="2" stroke-miterlimit="10" d="M168.5,566.8H49c-20,0-37-17.4-37-37.4v-16.6H1
					v21c0,22.3,19.5,42,41.8,42h126.8C169.2,572.8,168.8,569.8,168.5,566.8z"/>
				<path fill="none" stroke="#00CEFF" stroke-width="2" stroke-miterlimit="10" d="M166,527.5V414.8H48.7
					c-19.8,0-36.7,15.5-36.7,35.3v79.7c0,19.8,16.9,36.1,36.7,36.1h119.9C167,553.1,166.1,540.3,166,527.5z"/>
				<path fill="none" stroke="#00CEFF" stroke-width="2" stroke-miterlimit="10" d="M166,527.5V414.8H64c-16.8,0-31,13.2-31,30
					v90.7c0.2,16.7,13.7,30.2,30.4,30.4h105.1C167.2,552.8,166,540.2,166,527.5z"/>
				<path fill="none" stroke="#00CEFF" stroke-width="1.5" stroke-miterlimit="10" d="M236.6,740.5l-129.2,46
					c-8.8,3.1-18.6-1.5-21.7-10.3L43.3,657.4c-3.1-8.8,1.5-18.6,10.3-21.7l118.9-42.3c-0.8-4.1-1.5-8.2-2.1-12.3L47.1,625
					c-13.3,4.8-20.3,19.4-15.6,32.8l44.7,125.6C81,796.7,95.7,803.7,109,799l135.4-48.2C241.7,747.4,239.1,744,236.6,740.5z"/>
				<path fill="none" stroke="#00CEFF" stroke-width="1.5" stroke-miterlimit="10" d="M172.6,593.4L66.9,631
					c-8.8,3.2-13.5,12.9-10.3,21.7l42.3,118.8c3.2,8.8,12.9,13.5,21.7,10.3l116-41.3C204.4,697,182.5,646.6,172.6,593.4z"/>
				<path fill="none" stroke="#00CEFF" stroke-width="1.5" stroke-miterlimit="10" d="M77.8,575.3L77.8,575.3
					c3.1,2.8,5,6.6,5.5,10.7l1.6,14.9c0.4,4-0.6,7.9-2.8,11.2l-0.4,0.6l88.8-31.7l-0.9-5.7H77.8z"/>
				<path fill="none" stroke="#00CEFF" stroke-width="1.5" stroke-miterlimit="10" d="M751.8,636.2l-9.5-7.8
					c-5.5,11.3-11.8,22.1-18.9,32.4l13.7,3.8C754.1,669.3,765.5,647.4,751.8,636.2z"/>
				<path fill="none" stroke="#00CEFF" stroke-width="1.5" stroke-miterlimit="10" d="M432.5,744.2l-1.4,14.2
					c-1.8,17.6,21.8,25.1,30.5,9.7l6.6-11.8C456,753.2,444.1,749.2,432.5,744.2z"/>
				<path fill="none" stroke="#00CEFF" stroke-width="1.5" stroke-miterlimit="10" d="M597.6,388.4l-2.2,5.9
					c-1,2.6-3.9,3.9-6.4,2.9l0,0l0,0l-21.3-8.1c-2.6-1-3.9-3.9-2.9-6.4l0,0l0,0l2.3-6.2c-30.8-8.3-63.5-6.8-93.5,4.2l3.1,5.9
					c1.3,2.4,0.3,5.5-2.1,6.8L454.4,404c-2.4,1.3-5.5,0.3-6.8-2.1l-3.4-6.5c-71.4,45.6-92.4,140.5-46.7,212
					c8.5,13.3,19,25.2,31.1,35.3l3.2-4.8c1.5-2.3,4.6-2.9,6.9-1.4l0,0l0,0l18.9,12.7c2.3,1.6,2.9,4.7,1.3,6.9l-3.2,4.8
					c21.9,11.5,46.3,17.5,71.1,17.5c6.7,0,13.3-0.4,19.9-1.3l-1.2-4.8c-0.7-2.7,0.9-5.4,3.6-6.1l0,0l0,0l22.1-5.7
					c2.7-0.7,5.4,0.9,6.1,3.6l0,0l0,0l1.4,5.3C658.5,640.8,700,552.9,671.4,473C658.3,436.4,632,406.2,597.6,388.4L597.6,388.4z"/>
				<path fill="none" stroke="#00CEFF" stroke-width="1.5" stroke-linecap="round" stroke-linejoin="round" d="M361.4,537.2
					c-1.8-0.1-3.1-1.7-3-3.4l0,0l3.1-41.9c0.2-2.1,1.9-3.6,4-3.4l20.6,1.5c2.8,0.2,5.3-1.6,6.1-4.2c2.1-7.2,4.7-14.2,7.9-20.9
					c0.7-1.4,0.1-3.1-1.4-3.8c-0.3-0.1-0.6-0.2-1-0.3l0,0l-39.7-2.9c-13.8,34.6-16.5,72.5-8,108.7l39.6,2.9h0.1
					c1.6,0.1,3-1.1,3.1-2.7c0-0.3,0-0.7-0.1-1c-2.2-7.1-3.8-14.5-4.8-21.8c-0.4-2.7-2.6-4.9-5.4-5.1L361.4,537.2z"/>
				<path fill="none" stroke="#00CEFF" stroke-width="1.5" stroke-linecap="round" stroke-linejoin="round" d="M689.2,561.3
					c1.8,0.1,3.3-1.2,3.5-3l0,0l0,0l3.1-41.9c0.2-2.1-1.4-3.8-3.4-4l-20.6-1.5c-2.8-0.2-5-2.3-5.4-5.1c-1-7.4-2.6-14.7-4.8-21.8
					c-0.5-1.5,0.4-3.1,1.9-3.6c0.3-0.1,0.7-0.1,1-0.1l0,0l39.6,2.9c8.5,36.2,5.8,74.2-8,108.7l-39.6-2.9h-0.1
					c-1.6-0.1-2.8-1.5-2.6-3.1c0-0.3,0.1-0.7,0.3-1c3.2-6.7,5.9-13.7,8-20.9c0.8-2.7,3.3-4.4,6.1-4.2L689.2,561.3z"/>
			</g>
			<g id="white_part">
				<path fill="none" stroke="#00CEFF" stroke-width="1.5" stroke-linecap="round" stroke-linejoin="round" d="M526.9,343
					c100.3,0,181.7,81.4,181.7,181.7s-81.4,181.7-181.7,181.7S345.2,625,345.2,524.7S426.6,343,526.9,343z"/>
				<path fill="none" stroke="#00CEFF" stroke-width="1.5" stroke-linecap="round" stroke-linejoin="round" d="M526.9,294.4
					c127.1,0,230.3,103.2,230.3,230.3S654,755,526.9,755S296.6,651.8,296.6,524.7S399.8,294.4,526.9,294.4z"/>
				<path fill="#004B85" stroke="#00CEFF" stroke-width="1.5" stroke-linecap="round" stroke-linejoin="round" d="M395.7,367
					L395.7,367c3.2,4.1,2.7,10-1.2,13.5c-1.3,1.2-2.6,2.4-3.9,3.6c-2,1.9-2,5.1-0.1,7.1l0,0l0.1,0.1l6.6,6.4
					c11.9-12,25.4-22.3,40.1-30.7l-4.7-8c-1.4-2.4-4.5-3.2-6.8-1.8l0,0c-2.1,1.3-4.3,2.6-6.4,4c-4.3,2.8-10.1,1.9-13.3-2.2l0,0
					c-3.4-4.4-2.6-10.6,1.8-14c0.2-0.2,0.4-0.3,0.6-0.5c2.6-1.7,5.1-3.3,7.7-4.8c2.3-1.4,3.1-4.4,1.8-6.7l-4.6-8.3
					c-18.6,10.5-35.6,23.5-50.7,38.7l6.5,6.7c1.9,2,5.1,2,7.1,0.1c1.6-1.5,3.2-3,4.8-4.5c4.1-3.7,10.4-3.3,14.1,0.8L395.7,367z"/>
				<path fill="#004B85" stroke="#00CEFF" stroke-width="1.5" stroke-linecap="round" stroke-linejoin="round" d="M732.6,527.4
					L732.6,527.4c-5.2-0.2-9.4-4.4-9.6-9.6c-0.1-1.8-0.1-3.5-0.2-5.3c-0.2-2.8-2.5-4.9-5.3-4.7l0,0h-0.2l-9.2,0.9
					c1.5,16.8,0.6,33.8-2.5,50.4l9.2,1.6c2.7,0.5,5.3-1.3,5.8-4.1l0,0l0,0c0.4-2.5,0.8-5,1.1-7.5c0.6-5.1,5.1-8.9,10.2-8.8l0,0
					c5.5,0.2,9.8,4.9,9.5,10.4l0,0c0,0.3,0,0.5-0.1,0.8c-0.4,3-0.8,6-1.3,9c-0.5,2.7,1.3,5.2,3.9,5.8l9.3,1.9
					c4-21,5.1-42.4,3.2-63.7l-9.3,0.7c-2.7,0.2-4.8,2.6-4.6,5.3c0.1,2.2,0.2,4.4,0.3,6.6c0.1,5.5-4.2,10.1-9.7,10.3H732.6z"/>
				<path fill="#004B85" stroke="#00CEFF" stroke-width="1.5" stroke-linecap="round" stroke-linejoin="round" d="M413.2,696.3
					L413.2,696.3c2.8-4.4,1.7-10.2-2.5-13.3c-1.4-1-2.8-2.1-4.2-3.2c-2.2-1.7-2.5-4.8-0.9-7l0.1-0.2l6-7
					c13,10.8,27.5,19.7,42.9,26.6l-3.9,8.4c-1.2,2.5-4.1,3.6-6.6,2.5l0,0c-2.3-1.1-4.5-2.2-6.8-3.4c-4.6-2.4-10.2-0.9-13,3.5l0,0
					c-2.9,4.7-1.5,10.8,3.1,13.8l0,0c0.2,0.1,0.4,0.3,0.7,0.4c2.7,1.4,5.4,2.7,8.1,4c2.5,1.1,3.6,4,2.5,6.5l-3.8,8.7
					c-19.5-8.7-37.8-20-54.2-33.6l5.9-7.3c1.7-2.1,4.9-2.5,7-0.8c1.7,1.4,3.5,2.7,5.3,4c4.4,3.3,10.7,2.4,14-2.1l0,0
					C413,696.7,413.1,696.5,413.2,696.3z"/>
				<path fill="none" stroke="#00CEFF" stroke-width="1.5" stroke-miterlimit="10" d="M640.1,324.1l-30.5,38.7
					c23.2,11.9,43.6,28.6,59.8,49.1l30.7-39C683,353.4,662.7,336.9,640.1,324.1z"/>
				<path fill="none" stroke="#00CEFF" stroke-width="1.5" stroke-miterlimit="10" d="M345.2,524.7c0-9.7,0.8-19.4,2.3-28.9
					l-49.3,2.2c-3,25.8-1.7,51.9,4,77.2l49.5-2.2C347.4,557.3,345.2,541,345.2,524.7z"/>
				<path fill="none" stroke="#00CEFF" stroke-width="1.5" stroke-miterlimit="10" d="M686.5,690.7L659.4,649
					c-17.9,19-39.6,34-63.7,43.9l26.9,41.3C646.1,723.4,667.8,708.7,686.5,690.7z"/>
				<path fill="none" stroke="#00CEFF" stroke-width="1.5" stroke-miterlimit="10" d="M678.4,400.5
					c63.4,77.1,58.7,189.5-10.8,261.1l11.1,17.1c80.7-79.6,86.1-208,12.3-294.1L678.4,400.5z"/>
				<path fill="none" stroke="#00CEFF" stroke-width="1.5" stroke-miterlimit="10" d="M603.8,705.4c-21.5,9.2-44.4,14.4-67.8,15.4
					c-94.5,4.3-176.5-59-199-147.2l-20.2,0.9c23.3,99.2,114.7,171,220.1,166.2c26.9-1.2,53.3-7.5,77.9-18.4L603.8,705.4z"/>
				<path fill="none" stroke="#00CEFF" stroke-width="1.5" stroke-miterlimit="10" d="M333,496.4c13.4-91,89.7-162.9,185-167.2
					c34.9-1.7,69.6,6.1,100.5,22.5l12.5-15.9c-34.8-19.2-74.3-28.4-114-26.5c-106.3,4.9-191.2,86-204.3,188L333,496.4z"/>
			</g>
		</g>
		<circle id="pour-anchor" fill="none" cx="528.5" cy="524.7" r="0.5"/>
	</g>
	<g id="pour-1">
		<g id="pour-1-inner-2">
			<g>
				<defs>
					<path id="SVGID_3_" d="M338,574.4c3.7,14.2,10.8,34.6,24.8,56.4c14,21.7,29.7,36.6,41.1,45.8c-0.1-0.7,0-1.4,0.2-2.2
						s0.6-1.6,1.4-2.6l5.4-6.3c-10.5-8.7-24.8-22.4-37.5-42.2c-12.1-18.9-18.6-36.6-22.2-49.4L338,574.4z"/>
				</defs>
				<clipPath id="SVGID_4_">
					<use xlink:href="#SVGID_3_"  overflow="visible"/>
				</clipPath>
				<path clip-path="url(#SVGID_4_)" fill="#0581FF" d="M338,574.4c3.7,14.2,10.8,34.6,24.8,56.4c14,21.7,29.7,36.6,41.1,45.8
					c-0.1-0.7,0-1.4,0.2-2.2s0.6-1.6,1.4-2.6l5.4-6.3c-10.5-8.7-24.8-22.4-37.5-42.2c-12.1-18.9-18.6-36.6-22.2-49.4L338,574.4z"/>
			</g>
		</g>
		<g id="pour-1-inner-1">
			<g>
				<defs>
					<path id="SVGID_5_" d="M333.9,495.7c0.6-3.6,1.3-7.7,2.3-12.1c0.6-2.7,1.6-7.2,3.2-12.8c3.2-11,6.6-19.3,7.9-22.3
						c1.1-2.5,4-9.2,8.6-17.5c3.8-7,7.2-12.1,8.8-14.6c3.6-5.4,8.6-12.3,15.2-19.8c3.3-3.7,6.2-6.8,8.4-9.1c0,1,0.2,1.9,0.7,2.8
						c0.3,0.5,0.6,0.9,1,1.3l2.7,2.6l3.4,3.3c-0.8,0.8-1.8,1.8-2.9,3c0,0-1.9,2.1-3.9,4.3c-5.6,6.4-10.3,12.9-10.3,12.9
						c-1.5,2.1-5,7-8.9,13.6c-4,6.6-6.6,12.1-7.9,14.8c-2.8,5.8-6.6,14.6-10,25.8c-1.9,6.4-3.9,14.2-5.4,23.2L333.9,495.7z"/>
				</defs>
				<clipPath id="SVGID_6_">
					<use xlink:href="#SVGID_5_"  overflow="visible"/>
				</clipPath>
				<path clip-path="url(#SVGID_6_)" fill="#0581FF" d="M333.9,495.7c0.6-3.6,1.3-7.7,2.3-12.1c0.6-2.7,1.6-7.2,3.2-12.8
					c3.2-11,6.6-19.3,7.9-22.3c1.1-2.5,4-9.2,8.6-17.5c3.8-7,7.2-12.1,8.8-14.6c3.6-5.4,8.6-12.3,15.2-19.8
					c3.3-3.7,6.2-6.8,8.4-9.1c0,1,0.2,1.9,0.7,2.8c0.3,0.5,0.6,0.9,1,1.3l2.7,2.6l3.4,3.3c-0.8,0.8-1.8,1.8-2.9,3
					c0,0-1.9,2.1-3.9,4.3c-5.6,6.4-10.3,12.9-10.3,12.9c-1.5,2.1-5,7-8.9,13.6c-4,6.6-6.6,12.1-7.9,14.8c-2.8,5.8-6.6,14.6-10,25.8
					c-1.9,6.4-3.9,14.2-5.4,23.2L333.9,495.7z"/>
			</g>
		</g>
		<g id="pour-1-middle-2">
			<g>
				<defs>
					<path id="SVGID_7_" d="M343,636.6c11.2,18.4,25.2,35.2,41.4,49.4c4.4,3.9,8.9,7.5,13.6,11.1c2,1.5,4,2.9,6.6,3.1
						c2.4,0.1,5-0.8,6.8-2.5c3.1-3,3.6-8.2,1-11.8c-1.5-2.1-3.8-3.6-5.8-5.2c-2.3-1.8-4.6-3.7-6.9-5.7
						c-16.2-13.9-30.2-30.2-41.2-48.5c-5.9-9.8-11-20.1-15.1-30.8c-2.1-5.4-4-10.9-5.5-16.4c-0.3-1.2-1.3-4.9-1.3-4.9
						s-6.8,0.3-9.7,0.4c-3,0.1-6,0.3-9,0.4l0,0C322.9,597.1,331.5,617.6,343,636.6z"/>
				</defs>
				<clipPath id="SVGID_8_">
					<use xlink:href="#SVGID_7_"  overflow="visible"/>
				</clipPath>
				<path clip-path="url(#SVGID_8_)" fill="#0581FF" d="M343,636.6c11.2,18.4,25.2,35.2,41.4,49.4c4.4,3.9,8.9,7.5,13.6,11.1
					c2,1.5,4,2.9,6.6,3.1c2.4,0.1,5-0.8,6.8-2.5c3.1-3,3.6-8.2,1-11.8c-1.5-2.1-3.8-3.6-5.8-5.2c-2.3-1.8-4.6-3.7-6.9-5.7
					c-16.2-13.9-30.2-30.2-41.2-48.5c-5.9-9.8-11-20.1-15.1-30.8c-2.1-5.4-4-10.9-5.5-16.4c-0.3-1.2-1.3-4.9-1.3-4.9
					s-6.8,0.3-9.7,0.4c-3,0.1-6,0.3-9,0.4C322.9,597.1,331.5,617.6,343,636.6z"/>
			</g>
		</g>
		<g id="pour-1-middle-1">
			<g>
				<defs>
					<path id="SVGID_9_" d="M313.6,496.5c2.9-22.5,9.5-44.5,19.4-64.9c9.6-19.8,22.2-38.1,37.2-54c3.7-3.9,7.5-7.8,11.5-11.4
						c3.4-3,8.6-2.9,12,0c3.4,2.8,4.3,7.9,1.9,11.7c-1.4,2.2-3.7,4-5.6,5.8c-2,1.9-4,3.9-5.9,5.9c-15,15.6-27.1,33.9-36.2,53.5
						c-4.7,10.1-8.5,20.6-11.4,31.4c-1.5,5.6-2.7,11.2-3.7,16.8c-0.2,1.1-0.7,4.4-0.7,4.4s-7.3,0.3-10.2,0.5
						C319.3,496.3,316.5,496.4,313.6,496.5C315.3,483,314.2,496.5,313.6,496.5z"/>
				</defs>
				<clipPath id="SVGID_10_">
					<use xlink:href="#SVGID_9_"  overflow="visible"/>
				</clipPath>
				<path clip-path="url(#SVGID_10_)" fill="#0581FF" d="M313.6,496.5c2.9-22.5,9.5-44.5,19.4-64.9c9.6-19.8,22.2-38.1,37.2-54
					c3.7-3.9,7.5-7.8,11.5-11.4c3.4-3,8.6-2.9,12,0c3.4,2.8,4.3,7.9,1.9,11.7c-1.4,2.2-3.7,4-5.6,5.8c-2,1.9-4,3.9-5.9,5.9
					c-15,15.6-27.1,33.9-36.2,53.5c-4.7,10.1-8.5,20.6-11.4,31.4c-1.5,5.6-2.7,11.2-3.7,16.8c-0.2,1.1-0.7,4.4-0.7,4.4
					s-7.3,0.3-10.2,0.5C319.3,496.3,316.5,496.4,313.6,496.5C315.3,483,314.2,496.5,313.6,496.5z"/>
			</g>
		</g>
		<g id="pour-1-outer-2">
			<g>
				<defs>
					<path id="SVGID_11_" d="M302.9,576c1.2,4.8,2.3,9.6,3.8,14.4c1.4,4.7,3,9.4,4.7,14s3.6,9.2,5.6,13.7s4.2,8.9,6.5,13.3
						c2.1,4,4.3,8.1,6.7,11.9c2.8,4.5,5.7,9,8.7,13.3c2.8,4,5.7,7.8,8.8,11.6c2.8,3.6,5.8,7.1,8.9,10.4c3.2,3.6,6.6,7.1,10.1,10.4
						c3.8,3.6,7.7,7.2,11.7,10.7c0.8,0.7,1.6,1.3,2.4,2c1.2-1.5,2.4-3,3.7-4.5c1.6-2,3.1-3.9,5.9-4.1c-3.9-3.2-7.7-6.5-11.4-9.9
						c-3.6-3.4-7.1-6.9-10.5-10.6c-3.4-3.6-6.6-7.3-9.7-11.1c-3.2-4-6.4-8.1-9.3-12.3c-2.8-4-5.5-8.2-8.1-12.4
						c-2.6-4.4-5.1-8.8-7.5-13.4c-2.3-4.6-4.5-9.2-6.5-14c-1.9-4.4-3.6-8.8-5.1-13.3c-1.7-5-3.3-10-4.7-15.1
						c-0.3-1.1-0.6-2.3-0.9-3.5c-0.1-0.4-0.2-1.9-0.5-2.2c-0.1-0.1-0.5,0-0.6,0c-3.3,0.1-6.6,0.3-9.9,0.4
						C304.6,575.9,303.8,576,302.9,576z"/>
				</defs>
				<clipPath id="SVGID_12_">
					<use xlink:href="#SVGID_11_"  overflow="visible"/>
				</clipPath>
				<path clip-path="url(#SVGID_12_)" fill="#0581FF" d="M302.9,576c1.2,4.8,2.3,9.6,3.8,14.4c1.4,4.7,3,9.4,4.7,14
					s3.6,9.2,5.6,13.7s4.2,8.9,6.5,13.3c2.1,4,4.3,8.1,6.7,11.9c2.8,4.5,5.7,9,8.7,13.3c2.8,4,5.7,7.8,8.8,11.6
					c2.8,3.6,5.8,7.1,8.9,10.4c3.2,3.6,6.6,7.1,10.1,10.4c3.8,3.6,7.7,7.2,11.7,10.7c0.8,0.7,1.6,1.3,2.4,2c1.2-1.5,2.4-3,3.7-4.5
					c1.6-2,3.1-3.9,5.9-4.1c-3.9-3.2-7.7-6.5-11.4-9.9c-3.6-3.4-7.1-6.9-10.5-10.6c-3.4-3.6-6.6-7.3-9.7-11.1
					c-3.2-4-6.4-8.1-9.3-12.3c-2.8-4-5.5-8.2-8.1-12.4c-2.6-4.4-5.1-8.8-7.5-13.4c-2.3-4.6-4.5-9.2-6.5-14
					c-1.9-4.4-3.6-8.8-5.1-13.3c-1.7-5-3.3-10-4.7-15.1c-0.3-1.1-0.6-2.3-0.9-3.5c-0.1-0.4-0.2-1.9-0.5-2.2c-0.1-0.1-0.5,0-0.6,0
					c-3.3,0.1-6.6,0.3-9.9,0.4C304.6,575.9,303.8,576,302.9,576z"/>
			</g>
		</g>
		<g id="pour-1-outer-1">
			<g>
				<defs>
					<path id="SVGID_13_" d="M299,497.2l0.7-5.1l0.6-4l0.8-4.7l0.9-4.4l1.1-5.3l1.1-4.8l1.1-4.2l1.5-5.2l1.5-4.9l1.5-4.7l1.8-4.9
						l1.9-4.9l2-4.9l2.9-6.5l2.6-5.4l2.7-5.2l2.7-5l4.1-7.1l3-4.9l3.7-5.5l3.8-5.4l4-5.3l4.1-5.2l4.1-5l4.5-5l3.5-3.8l1.5-1.5
						l3.1,3.1l1.7,1.8l1.3,1.4c0.1,0.1,0.2,0.2,0.3,0.3c0.4,0.3,0.7,0.5,0.8,0.6c0.4,0.2,0.7,0.4,1,0.5c0.1,0,0.5,0.2,1,0.2
						c0.3,0.1,0.8,0.1,1.3,0.1l-0.9,0.9l-0.9,1l-1.4,1.4l-0.9,1l-1.2,1.2l-1.4,1.6l-1.7,1.9l-1.5,1.8l-1.1,1.3l-1.1,1.3l-1.2,1.5
						l-1.7,2.1l-2.3,2.9l-1.2,1.6l-1.4,1.9l-1.3,1.8l-1.2,1.7l-1.7,2.4l-1.6,2.3l-1.6,2.5l-2,3.2l-1.6,2.6l-1.6,2.6l-1.2,2
						l-1.2,2.2l-1.2,2.2l-1.3,2.5l-1,1.9l-1,2l-1.3,2.6l-1.4,2.8l-1.1,2.4l-1.5,3.3l-1.2,2.8l-1.1,2.6l-1,2.4l-0.8,2.1l-0.8,2.2
						l-1.1,3.1l-0.8,2.3l-1,2.9l-0.8,2.6l-0.7,2.2l-0.7,2.5l-2.2,8.3l-2.1,9.9l-1.4,8.6l-0.4,3.2L299,497.2z"/>
				</defs>
				<clipPath id="SVGID_14_">
					<use xlink:href="#SVGID_13_"  overflow="visible"/>
				</clipPath>
				<path clip-path="url(#SVGID_14_)" fill="#0581FF" d="M299,497.2l0.7-5.1l0.6-4l0.8-4.7l0.9-4.4l1.1-5.3l1.1-4.8l1.1-4.2
					l1.5-5.2l1.5-4.9l1.5-4.7l1.8-4.9l1.9-4.9l2-4.9l2.9-6.5l2.6-5.4l2.7-5.2l2.7-5l4.1-7.1l3-4.9l3.7-5.5l3.8-5.4l4-5.3l4.1-5.2
					l4.1-5l4.5-5l3.5-3.8l1.5-1.5l3.1,3.1l1.7,1.8l1.3,1.4c0.1,0.1,0.2,0.2,0.3,0.3c0.4,0.3,0.7,0.5,0.8,0.6c0.4,0.2,0.7,0.4,1,0.5
					c0.1,0,0.5,0.2,1,0.2c0.3,0.1,0.8,0.1,1.3,0.1l-0.9,0.9l-0.9,1l-1.4,1.4l-0.9,1l-1.2,1.2l-1.4,1.6l-1.7,1.9l-1.5,1.8l-1.1,1.3
					l-1.1,1.3l-1.2,1.5l-1.7,2.1l-2.3,2.9l-1.2,1.6l-1.4,1.9l-1.3,1.8l-1.2,1.7l-1.7,2.4l-1.6,2.3l-1.6,2.5l-2,3.2l-1.6,2.6
					l-1.6,2.6l-1.2,2l-1.2,2.2l-1.2,2.2l-1.3,2.5l-1,1.9l-1,2l-1.3,2.6l-1.4,2.8l-1.1,2.4l-1.5,3.3l-1.2,2.8l-1.1,2.6l-1,2.4
					l-0.8,2.1l-0.8,2.2l-1.1,3.1l-0.8,2.3l-1,2.9l-0.8,2.6l-0.7,2.2l-0.7,2.5l-2.2,8.3l-2.1,9.9l-1.4,8.6l-0.4,3.2L299,497.2z"/>
			</g>
		</g>
		<g id="pour-1-start">
			<g>
				<defs>
					<path id="SVGID_15_" d="M295.9,529.2c-11.9,0.8-23.7,1.6-35.6,2.3c-1.3,0.1-2.7,0-4,0.4c-1.8,0.5-3.3,2-3.9,3.8
						c-0.3,1.2-0.4,2.3-0.1,3.4c0.7,2.5,3.2,4.5,6,4.3c2.9-0.2,5.9-0.4,8.9-0.6c9.8-0.6,19.4-1.2,29.2-1.9"/>
				</defs>
				<clipPath id="SVGID_16_">
					<use xlink:href="#SVGID_15_"  overflow="visible"/>
				</clipPath>
				<path clip-path="url(#SVGID_16_)" fill="#0581FF" d="M295.9,529.2c-11.9,0.8-23.7,1.6-35.6,2.3c-1.3,0.1-2.7,0-4,0.4
					c-1.8,0.5-3.3,2-3.9,3.8c-0.3,1.2-0.4,2.3-0.1,3.4c0.7,2.5,3.2,4.5,6,4.3c2.9-0.2,5.9-0.4,8.9-0.6c9.8-0.6,19.4-1.2,29.2-1.9"
					/>
			</g>
		</g>
		<g id="pour-1-box">
			<g>
				<defs>
					<polygon id="SVGID_17_" points="298.9,498.7 305.1,498.4 312.7,498.1 322.1,497.7 333.1,497.2 344.1,496.7 346.6,496.6 
						346.1,500 345.6,504.2 345.2,508.1 344.8,513.2 344.5,517.8 344.4,522.6 344.4,527.9 344.5,531.6 344.7,536.1 345,539.7 
						345.3,543.2 345.8,547.2 346.2,550.6 346.8,554.2 347.4,557.6 347.9,560.6 348.7,564.4 349.5,567.4 350.3,570.8 350.7,572.3 
						346.7,572.5 342.9,572.6 337,572.9 326.5,573.3 320.1,573.6 315.2,573.9 306.2,574.3 302.8,574.4 301.6,568.7 300.4,562.2 
						299.4,555.5 298.8,549.9 298.2,543.6 297.9,540.8 297.6,533.9 297.4,529 297.4,522.9 297.6,515.6 297.8,510.2 298.3,504.4 
												"/>
				</defs>
				<clipPath id="SVGID_18_">
					<use xlink:href="#SVGID_17_"  overflow="visible"/>
				</clipPath>
				<polygon clip-path="url(#SVGID_18_)" fill="#0581FF" points="298.9,498.7 305.1,498.4 312.7,498.1 322.1,497.7 333.1,497.2 
					344.1,496.7 346.6,496.6 346.1,500 345.6,504.2 345.2,508.1 344.8,513.2 344.5,517.8 344.4,522.6 344.4,527.9 344.5,531.6 
					344.7,536.1 345,539.7 345.3,543.2 345.8,547.2 346.2,550.6 346.8,554.2 347.4,557.6 347.9,560.6 348.7,564.4 349.5,567.4 
					350.3,570.8 350.7,572.3 346.7,572.5 342.9,572.6 337,572.9 326.5,573.3 320.1,573.6 315.2,573.9 306.2,574.3 302.8,574.4 
					301.6,568.7 300.4,562.2 299.4,555.5 298.8,549.9 298.2,543.6 297.9,540.8 297.6,533.9 297.4,529 297.4,522.9 297.6,515.6 
					297.8,510.2 298.3,504.4 					"/>
			</g>
		</g>
	</g>
	<g id="pour-2">
		<g id="pour-2-inner-2">
			<g>
				<defs>
					<path id="SVGID_19_" d="M609.3,361.9c-14.8-7.5-47.2-21.3-90-19.5c-38.8,1.6-67.6,15.3-81.9,23.3l-4.1-7
						c-0.1-0.3-0.3-0.5-0.5-0.7c-0.2-0.3-0.4-0.5-0.6-0.7c-0.3-0.3-0.6-0.5-0.9-0.7s-0.7-0.4-1.1-0.5s-0.7-0.2-0.9-0.3
						c15.3-8.8,46.9-24.2,89.7-26c47.1-1.9,82.5,13.8,98.2,22L609.3,361.9z"/>
				</defs>
				<clipPath id="SVGID_20_">
					<use xlink:href="#SVGID_19_"  overflow="visible"/>
				</clipPath>
				<path clip-path="url(#SVGID_20_)" fill="#0581FF" d="M609.3,361.9c-14.8-7.5-47.2-21.3-90-19.5c-38.8,1.6-67.6,15.3-81.9,23.3
					l-4.1-7c-0.1-0.3-0.3-0.5-0.5-0.7c-0.2-0.3-0.4-0.5-0.6-0.7c-0.3-0.3-0.6-0.5-0.9-0.7s-0.7-0.4-1.1-0.5s-0.7-0.2-0.9-0.3
					c15.3-8.8,46.9-24.2,89.7-26c47.1-1.9,82.5,13.8,98.2,22L609.3,361.9z"/>
			</g>
		</g>
		<g id="pour-2-inner-1">
			<g>
				<defs>
					<path id="SVGID_21_" d="M678.4,401.7c8.1,10,17.5,23.4,25.5,40.5c12.2,26.1,16.3,49.9,17.7,66.2c-0.4-0.4-1-0.8-1.7-1
						c-0.1,0-0.9-0.3-1.6-0.3c-0.1,0-0.4,0-0.7,0c-0.1,0-0.3,0-0.3,0l-8.4,0.8c-1.5-15.1-5.5-36.5-16.4-59.9
						c-7-14.9-15-26.9-22.1-36L678.4,401.7z"/>
				</defs>
				<clipPath id="SVGID_22_">
					<use xlink:href="#SVGID_21_"  overflow="visible"/>
				</clipPath>
				<path clip-path="url(#SVGID_22_)" fill="#0581FF" d="M678.4,401.7c8.1,10,17.5,23.4,25.5,40.5c12.2,26.1,16.3,49.9,17.7,66.2
					c-0.4-0.4-1-0.8-1.7-1c-0.1,0-0.9-0.3-1.6-0.3c-0.1,0-0.4,0-0.7,0c-0.1,0-0.3,0-0.3,0l-8.4,0.8c-1.5-15.1-5.5-36.5-16.4-59.9
					c-7-14.9-15-26.9-22.1-36L678.4,401.7z"/>
			</g>
		</g>
		<g id="pour-2-middle-2">
			<g>
				<defs>
					<path id="SVGID_23_" d="M629.8,336c-17.6-9.5-59.5-28.9-115.2-25.8c-46.2,2.6-80.2,19.6-97.2,29.6l-7.4,4.7
						c-0.9,0.5-3,1.9-4.1,4.1c-0.4,0.7-0.6,1.5-0.7,1.5c-0.1,0.4-0.5,1.6-0.4,3.1c0.1,2.5,1.2,4.3,1.6,4.8c1.2,1.9,2.8,2.8,3.6,3.1
						c0.7,0.3,2.5,1.1,5,0.9c1.4-0.1,2.6-0.6,3.3-1c0,0,1.6-1,2.7-1.8c15-9.6,48.1-27.9,94.1-30.7c49.9-3.1,87.5,13.8,103.3,22.1
						l4.9-6.2L629.8,336z"/>
				</defs>
				<clipPath id="SVGID_24_">
					<use xlink:href="#SVGID_23_"  overflow="visible"/>
				</clipPath>
				<path clip-path="url(#SVGID_24_)" fill="#0581FF" d="M629.8,336c-17.6-9.5-59.5-28.9-115.2-25.8c-46.2,2.6-80.2,19.6-97.2,29.6
					l-7.4,4.7c-0.9,0.5-3,1.9-4.1,4.1c-0.4,0.7-0.6,1.5-0.7,1.5c-0.1,0.4-0.5,1.6-0.4,3.1c0.1,2.5,1.2,4.3,1.6,4.8
					c1.2,1.9,2.8,2.8,3.6,3.1c0.7,0.3,2.5,1.1,5,0.9c1.4-0.1,2.6-0.6,3.3-1c0,0,1.6-1,2.7-1.8c15-9.6,48.1-27.9,94.1-30.7
					c49.9-3.1,87.5,13.8,103.3,22.1l4.9-6.2L629.8,336z"/>
			</g>
		</g>
		<g id="pour-2-middle-1">
			<g>
				<defs>
					<path id="SVGID_25_" d="M691,385.8c10.6,12.5,22.2,28.9,31.7,49.6c6,13,17,40.6,19.1,76.4c0.1,2.3,0.2,4.2,0.2,5.5
						c0,2-0.6,3.7-1.7,5.3c-0.3,0.4-2.5,3.6-6.8,4c-3.9,0.4-6.6-2.1-7.1-2.6c-1.8-1.8-2.4-3.7-2.6-4.8c-0.1-0.3-0.1-1.3-0.2-2.7
						l-0.5-6.5c-1.3-16.7-5.3-41.5-18-68.5c-8.1-17.3-17.6-30.9-25.8-41l4-5.1l4.3-5.4L691,385.8z"/>
				</defs>
				<clipPath id="SVGID_26_">
					<use xlink:href="#SVGID_25_"  overflow="visible"/>
				</clipPath>
				<path clip-path="url(#SVGID_26_)" fill="#0581FF" d="M691,385.8c10.6,12.5,22.2,28.9,31.7,49.6c6,13,17,40.6,19.1,76.4
					c0.1,2.3,0.2,4.2,0.2,5.5c0,2-0.6,3.7-1.7,5.3c-0.3,0.4-2.5,3.6-6.8,4c-3.9,0.4-6.6-2.1-7.1-2.6c-1.8-1.8-2.4-3.7-2.6-4.8
					c-0.1-0.3-0.1-1.3-0.2-2.7l-0.5-6.5c-1.3-16.7-5.3-41.5-18-68.5c-8.1-17.3-17.6-30.9-25.8-41l4-5.1l4.3-5.4L691,385.8z"/>
			</g>
		</g>
		<g id="pour-2-outer-2">
			<g>
				<defs>
					<path id="SVGID_27_" d="M630.7,334.8c-17.3-9.4-56.5-27.7-109.2-26.4c-49.2,1.2-85.4,18.9-102.4,28.6c0.1-0.4,0.2-0.7,0.2-1.1
						s0-0.9,0-1.3s-0.1-0.8-0.3-1.2c-0.1-0.3-0.4-0.9-0.9-1.7l-3.9-7c18.2-10.2,55.8-28.1,106.6-29.5
						c57.2-1.5,99.7,18.9,118.1,29.1L630.7,334.8z"/>
				</defs>
				<clipPath id="SVGID_28_">
					<use xlink:href="#SVGID_27_"  overflow="visible"/>
				</clipPath>
				<path clip-path="url(#SVGID_28_)" fill="#0581FF" d="M630.7,334.8c-17.3-9.4-56.5-27.7-109.2-26.4
					c-49.2,1.2-85.4,18.9-102.4,28.6c0.1-0.4,0.2-0.7,0.2-1.1s0-0.9,0-1.3s-0.1-0.8-0.3-1.2c-0.1-0.3-0.4-0.9-0.9-1.7l-3.9-7
					c18.2-10.2,55.8-28.1,106.6-29.5c57.2-1.5,99.7,18.9,118.1,29.1L630.7,334.8z"/>
			</g>
		</g>
		<g id="pour-2-outer-1">
			<g>
				<defs>
					<path id="SVGID_29_" d="M700.1,374.1c12.8,14.7,30.3,38.6,42.5,71.8c8.1,22.2,11.5,42.3,12.9,57.9l-8.5,0.7
						c-0.5,0-1.1,0.1-1.7,0.4c-1.2,0.5-2,1.3-2.3,1.8c-1.3-14.9-4.5-34.5-12.4-56.2c-11.1-30.3-26.9-52.3-38.6-66L700.1,374.1z"/>
				</defs>
				<clipPath id="SVGID_30_">
					<use xlink:href="#SVGID_29_"  overflow="visible"/>
				</clipPath>
				<path clip-path="url(#SVGID_30_)" fill="#0581FF" d="M700.1,374.1c12.8,14.7,30.3,38.6,42.5,71.8c8.1,22.2,11.5,42.3,12.9,57.9
					l-8.5,0.7c-0.5,0-1.1,0.1-1.7,0.4c-1.2,0.5-2,1.3-2.3,1.8c-1.3-14.9-4.5-34.5-12.4-56.2c-11.1-30.3-26.9-52.3-38.6-66
					L700.1,374.1z"/>
			</g>
		</g>
		<g id="pour-2-start">
			<g>
				<defs>
					<path id="SVGID_31_" d="M666.4,340.5l25.4-29.9c1-1.3,2.3-2.2,3.8-2.5c1.7-0.4,3.2-0.1,4.6,0.7c1.2,0.8,2.1,1.7,2.7,3
						c0.5,1.1,0.6,2.2,0.4,3.4c-0.1,1.2-0.7,2.5-1.8,3.7l-25.1,29.5l-2.7-2.3l-2.4-2l-2.7-2.1L666.4,340.5z"/>
				</defs>
				<clipPath id="SVGID_32_">
					<use xlink:href="#SVGID_31_"  overflow="visible"/>
				</clipPath>
				<path clip-path="url(#SVGID_32_)" fill="#0581FF" d="M666.4,340.5l25.4-29.9c1-1.3,2.3-2.2,3.8-2.5c1.7-0.4,3.2-0.1,4.6,0.7
					c1.2,0.8,2.1,1.7,2.7,3c0.5,1.1,0.6,2.2,0.4,3.4c-0.1,1.2-0.7,2.5-1.8,3.7l-25.1,29.5l-2.7-2.3l-2.4-2l-2.7-2.1L666.4,340.5z"
					/>
			</g>
		</g>
		<g id="pour-2-box">
			<g>
				<defs>
					<path id="SVGID_33_" d="M640.3,325.1c8.8,5,18.7,11.4,28.9,19.5c12.3,9.7,22.2,19.6,29.9,28.4l-29.7,37.7
						c-6.7-8.3-15.8-18.2-27.8-27.9c-11.2-9-21.9-15.5-30.9-20.2L640.3,325.1z"/>
				</defs>
				<clipPath id="SVGID_34_">
					<use xlink:href="#SVGID_33_"  overflow="visible"/>
				</clipPath>
				<path clip-path="url(#SVGID_34_)" fill="#0581FF" d="M640.3,325.1c8.8,5,18.7,11.4,28.9,19.5c12.3,9.7,22.2,19.6,29.9,28.4
					l-29.7,37.7c-6.7-8.3-15.8-18.2-27.8-27.9c-11.2-9-21.9-15.5-30.9-20.2L640.3,325.1z"/>
			</g>
		</g>
	</g>
	<g id="pour-3">
		<g id="pour-3-inner-2">
			<g>
				<defs>
					<path id="SVGID_35_" d="M660.3,649.1c10-10.8,22.7-27.2,32.9-49.4c6.8-14.8,10.7-28.5,13-39.7l8.5,1.5c0.3,0,0.6,0.1,1,0.1
						c0.6,0,1-0.1,1.2-0.2c0.2,0,0.6-0.2,1.2-0.4c0.3-0.2,0.6-0.3,0.8-0.5c-2.3,12.6-6.5,28.4-14.3,45.6c-11.4,25-26,42.9-37,54.4
						L660.3,649.1z"/>
				</defs>
				<clipPath id="SVGID_36_">
					<use xlink:href="#SVGID_35_"  overflow="visible"/>
				</clipPath>
				<path clip-path="url(#SVGID_36_)" fill="#0581FF" d="M660.3,649.1c10-10.8,22.7-27.2,32.9-49.4c6.8-14.8,10.7-28.5,13-39.7
					l8.5,1.5c0.3,0,0.6,0.1,1,0.1c0.6,0,1-0.1,1.2-0.2c0.2,0,0.6-0.2,1.2-0.4c0.3-0.2,0.6-0.3,0.8-0.5
					c-2.3,12.6-6.5,28.4-14.3,45.6c-11.4,25-26,42.9-37,54.4L660.3,649.1z"/>
			</g>
		</g>
		<g id="pour-3-inner-1">
			<g>
				<defs>
					<path id="SVGID_37_" d="M602.7,705c-15.6,6.5-43.7,15.9-79.7,15.2c-33.4-0.7-59.4-9.8-74.6-16.4c0.1-0.1,0.3-0.2,0.5-0.3
						c0.4-0.2,0.6-0.4,0.8-0.5c0.2-0.1,0.7-0.6,1.2-1.3c0.2-0.3,0.4-0.6,0.6-1l0.5-1.2l0.8-1.6l0.5-1.2l0.6-1.4l0.8-1.6l0.5-1.1
						c14,6,37.4,13.9,67.4,14.6c32.6,0.8,58.2-7.4,72.8-13.3L602.7,705z"/>
				</defs>
				<clipPath id="SVGID_38_">
					<use xlink:href="#SVGID_37_"  overflow="visible"/>
				</clipPath>
				<path clip-path="url(#SVGID_38_)" fill="#0581FF" d="M602.7,705c-15.6,6.5-43.7,15.9-79.7,15.2c-33.4-0.7-59.4-9.8-74.6-16.4
					c0.1-0.1,0.3-0.2,0.5-0.3c0.4-0.2,0.6-0.4,0.8-0.5c0.2-0.1,0.7-0.6,1.2-1.3c0.2-0.3,0.4-0.6,0.6-1l0.5-1.2l0.8-1.6l0.5-1.2
					l0.6-1.4l0.8-1.6l0.5-1.1c14,6,37.4,13.9,67.4,14.6c32.6,0.8,58.2-7.4,72.8-13.3L602.7,705z"/>
			</g>
		</g>
		<g id="pour-3-middle-2">
			<g>
				<defs>
					<path id="SVGID_39_" d="M678.8,677.5c13.9-13.8,33.7-37.3,47.5-71.2c8.1-19.8,12-38,13.9-52.5l0.3-2.4c0.1-0.5,0.1-1.2,0-2.2
						c-0.1-0.8-0.3-2-1-3.3c-0.9-1.6-2-2.6-2.7-3.1c-1.8-1.3-3.5-1.6-4.1-1.6c-0.5-0.1-2.7-0.3-5.2,0.9c-0.9,0.5-2.5,1.4-3.6,3.2
						c-1.1,1.6-1.4,3.2-1.5,4c-1.8,13.9-5.6,32.3-14.2,52.4c-12,28.1-28.1,48-39.7,60.1L678.8,677.5z"/>
				</defs>
				<clipPath id="SVGID_40_">
					<use xlink:href="#SVGID_39_"  overflow="visible"/>
				</clipPath>
				<path clip-path="url(#SVGID_40_)" fill="#0581FF" d="M678.8,677.5c13.9-13.8,33.7-37.3,47.5-71.2c8.1-19.8,12-38,13.9-52.5
					l0.3-2.4c0.1-0.5,0.1-1.2,0-2.2c-0.1-0.8-0.3-2-1-3.3c-0.9-1.6-2-2.6-2.7-3.1c-1.8-1.3-3.5-1.6-4.1-1.6
					c-0.5-0.1-2.7-0.3-5.2,0.9c-0.9,0.5-2.5,1.4-3.6,3.2c-1.1,1.6-1.4,3.2-1.5,4c-1.8,13.9-5.6,32.3-14.2,52.4
					c-12,28.1-28.1,48-39.7,60.1L678.8,677.5z"/>
			</g>
		</g>
		<g id="pour-3-middle-1">
			<g>
				<defs>
					<path id="SVGID_41_" d="M613.7,722c-17.3,7.6-49.6,19.1-91.3,18.2c-45.1-1-79-16-96-25c-0.1-0.1-0.2-0.1-0.3-0.2
						c-0.1-0.2-0.3-0.3-0.4-0.5c-0.4-0.5-1-1.3-1.4-2.4c-0.4-0.9-0.9-2.6-0.6-4.7c0.3-2.1,1.2-3.5,1.6-4.1c1.3-1.8,2.8-2.7,3.6-3
						c0.5-0.2,2.5-1.1,5.1-0.8c1.4,0.2,2.4,0.7,2.9,0.9c2.5,1.2,6,2.7,10.6,4.7c15.3,6.7,41.5,16,75.3,16.8
						c36.6,0.8,65.1-8.7,80.8-15.4L613.7,722z"/>
				</defs>
				<clipPath id="SVGID_42_">
					<use xlink:href="#SVGID_41_"  overflow="visible"/>
				</clipPath>
				<path clip-path="url(#SVGID_42_)" fill="#0581FF" d="M613.7,722c-17.3,7.6-49.6,19.1-91.3,18.2c-45.1-1-79-16-96-25
					c-0.1-0.1-0.2-0.1-0.3-0.2c-0.1-0.2-0.3-0.3-0.4-0.5c-0.4-0.5-1-1.3-1.4-2.4c-0.4-0.9-0.9-2.6-0.6-4.7c0.3-2.1,1.2-3.5,1.6-4.1
					c1.3-1.8,2.8-2.7,3.6-3c0.5-0.2,2.5-1.1,5.1-0.8c1.4,0.2,2.4,0.7,2.9,0.9c2.5,1.2,6,2.7,10.6,4.7c15.3,6.7,41.5,16,75.3,16.8
					c36.6,0.8,65.1-8.7,80.8-15.4L613.7,722z"/>
			</g>
		</g>
		<g id="pour-3-outer-2">
			<g>
				<defs>
					<path id="SVGID_43_" d="M686.6,689.5c15.4-15,36.4-39.5,51.4-74.6c7.3-16.9,11.6-32.7,14.2-46.2l-7.8-1.6l-0.8-0.2
						c-0.7-0.2-1.2-0.4-1.6-0.7c-0.3-0.2-0.7-0.5-1.1-0.8c-0.3-0.2-0.5-0.5-0.9-1c-2.4,13.1-6.6,28.9-13.8,45.8
						c-13.8,32.1-32.7,54.6-46.6,68.5L686.6,689.5z"/>
				</defs>
				<clipPath id="SVGID_44_">
					<use xlink:href="#SVGID_43_"  overflow="visible"/>
				</clipPath>
				<path clip-path="url(#SVGID_44_)" fill="#0581FF" d="M686.6,689.5c15.4-15,36.4-39.5,51.4-74.6c7.3-16.9,11.6-32.7,14.2-46.2
					l-7.8-1.6l-0.8-0.2c-0.7-0.2-1.2-0.4-1.6-0.7c-0.3-0.2-0.7-0.5-1.1-0.8c-0.3-0.2-0.5-0.5-0.9-1c-2.4,13.1-6.6,28.9-13.8,45.8
					c-13.8,32.1-32.7,54.6-46.6,68.5L686.6,689.5z"/>
			</g>
		</g>
		<g id="pour-3-outer-1">
			<g>
				<defs>
					<path id="SVGID_45_" d="M621.5,733.9c-20.1,9-58.7,22.9-108.1,20c-33.2-1.9-59.7-10.8-77.2-18.3l3.3-7.5
						c0.1-0.3,0.3-0.7,0.4-1.2c0.1-0.3,0.1-0.7,0.1-1.2c0-0.3-0.1-0.7-0.2-1.1c-0.1-0.4-0.2-0.8-0.6-1.4
						c16.5,7.3,41.7,16.1,73.5,18.2c46.5,3.1,83-9.7,101.9-18L621.5,733.9z"/>
				</defs>
				<clipPath id="SVGID_46_">
					<use xlink:href="#SVGID_45_"  overflow="visible"/>
				</clipPath>
				<path clip-path="url(#SVGID_46_)" fill="#0581FF" d="M621.5,733.9c-20.1,9-58.7,22.9-108.1,20c-33.2-1.9-59.7-10.8-77.2-18.3
					l3.3-7.5c0.1-0.3,0.3-0.7,0.4-1.2c0.1-0.3,0.1-0.7,0.1-1.2c0-0.3-0.1-0.7-0.2-1.1c-0.1-0.4-0.2-0.8-0.6-1.4
					c16.5,7.3,41.7,16.1,73.5,18.2c46.5,3.1,83-9.7,101.9-18L621.5,733.9z"/>
			</g>
		</g>
		<g id="pour-3-start">
			<g>
				<defs>
					<path id="SVGID_47_" d="M652.6,718.6l22.6,34.3c0.6,0.9,1.4,1.5,2.3,2c1.8,0.8,3.5,0.8,5.2,0.1c1.2-0.5,2.2-1.4,2.9-2.7
						c0.5-0.9,0.8-1.9,0.8-3.3c-0.1-1.2-0.3-2.2-1.3-3.5l-22.4-33.9l-3.1,2.2l-3.5,2.4L652.6,718.6z"/>
				</defs>
				<clipPath id="SVGID_48_">
					<use xlink:href="#SVGID_47_"  overflow="visible"/>
				</clipPath>
				<path clip-path="url(#SVGID_48_)" fill="#0581FF" d="M652.6,718.6l22.6,34.3c0.6,0.9,1.4,1.5,2.3,2c1.8,0.8,3.5,0.8,5.2,0.1
					c1.2-0.5,2.2-1.4,2.9-2.7c0.5-0.9,0.8-1.9,0.8-3.3c-0.1-1.2-0.3-2.2-1.3-3.5l-22.4-33.9l-3.1,2.2l-3.5,2.4L652.6,718.6z"/>
			</g>
		</g>
		<g id="pour-3-box">
			<g>
				<defs>
					<path id="SVGID_49_" d="M685.5,690.6c-7.6,7.4-17.2,15.5-28.8,23.5c-12.2,8.4-23.8,14.6-33.8,19.2l-26.1-40
						c8.9-3.7,19.4-8.9,30.5-16.2c13.7-9.1,24.2-18.7,32-26.8L685.5,690.6z"/>
				</defs>
				<clipPath id="SVGID_50_">
					<use xlink:href="#SVGID_49_"  overflow="visible"/>
				</clipPath>
				<path clip-path="url(#SVGID_50_)" fill="#0581FF" d="M685.5,690.6c-7.6,7.4-17.2,15.5-28.8,23.5c-12.2,8.4-23.8,14.6-33.8,19.2
					l-26.1-40c8.9-3.7,19.4-8.9,30.5-16.2c13.7-9.1,24.2-18.7,32-26.8L685.5,690.6z"/>
			</g>
		</g>
	</g>
</svg>
