<?xml version="1.0" encoding="utf-8"?>
<!-- Generator: Adobe Illustrator 20.1.0, SVG Export Plug-In . SVG Version: 6.00 Build 0)  -->
<svg version="1.1" id="Layer_1" xmlns="http://www.w3.org/2000/svg" xmlns:xlink="http://www.w3.org/1999/xlink" x="0px" y="0px"
	 viewBox="0 0 1366 390" enable-background="new 0 0 1366 390" xml:space="preserve">
<g>
	<path fill="rgba(133, 152, 148, .2)" d="M-27.2,374.4h154.7l12.2-66.2h-32l20.7-47.9h84.6l5.2,47.9h-40.4l-10.8,66.2h151.4l12.7-66.2h-25.4
		l-28.7-205.6h34.8l10.8-66.2H90.4l-11.3,66.2h34.3l-95,205.6h-33.9L-27.2,374.4z M152,202.5l44.2-105.6l11.3,105.6H152z
		 M492.6,374.4H589l12.4-66.7h-25.5l45.1-271.4H511.9L500.1,103h27.3l-11.3,64.8c-12.7-14.6-31.5-21.6-56.4-21.6
		c-68.6,0-119.5,53.1-119.5,133.3c0,61.5,36.7,101,88,101c25.9,0,45.1-9,68.2-26.8L492.6,374.4z M470.5,215.7
		c22.6,0,36.2,15.5,36.2,39.9c0,29.6-17.4,52.1-43.3,52.1c-24.4,0-39-15.5-39-41.3C424.4,235.9,442.3,215.7,470.5,215.7L470.5,215.7
		z M593.3,374.4h106.3l17.4-100h3.8l39,47.4h-24l-7.5,52.6h120.4l11.3-66.7h-21.2L797,258.4l50.8-40.8h24.4l11.3-66.2H767.4
		l-9.4,54.9h22.6l-60.6,47.4l38.6-217.4H646.1L634.8,103h28.7l-36.2,204.7h-21.6L593.3,374.4z M1039.3,299.3
		c-13.2,11.7-25.4,17.4-40.4,17.4c-24.9,0-40.4-15.5-40.4-40.4h153.7c0.5-6.1,0.9-12.2,0.9-17.8c0-70.9-41.8-112.2-109.5-112.2
		c-78.5,0-130.3,53.1-130.3,123c0,69.5,45.7,110.9,117.6,110.9c41.8,0,78.5-15.1,105.8-44.2L1039.3,299.3z M960.8,243.9
		c5.6-25.4,19.3-37.6,40.9-37.6c20.7,0,34.3,12.7,34.3,32.9c0,1.4-0.5,2.8-0.5,4.7H960.8z M1179.1,374.4h87.4l92.6-155.9h17.9
		l12.2-67.1h-119.9l-11.8,67.1h21.2l-43.3,82.2l-20.2-82.2h16.9l11.8-67.1h-116.6l-11.8,67.1h25.5L1179.1,374.4z"/>
	<path fill="rgba(133, 152, 148, .2)" d="M1362.5,97.5c0,7.8,6.2,13.3,13.7,13.3c7.5,0,13.4-5.6,13.4-13.3c0-8.1-5.8-13.6-14.1-13.6
		C1368.8,83.9,1362.5,89.6,1362.5,97.5"/>
	<path fill="rgba(133, 152, 148, .2)" d="M1334.9,71.3h20.3l4.9-26.8h-18.8l-1.1,5.2c-5.5-4.7-11.8-6.8-19.3-6.8c-19.3,0-33.2,15.1-33.2,34.6
		c0,20,13.6,33.4,33.3,33.4c12.9,0,24.5-5.1,33-14.7l-18.5-14.1c-3,4.5-7.4,6.8-12.1,6.8c-6.4,0-11.2-4.8-11.2-11.8
		c0-7.7,4.8-13.3,11.6-13.3C1329.1,64,1332.9,66.4,1334.9,71.3"/>
	<path fill="rgba(133, 152, 148, .2)" d="M1242.3,90.1h-7l3-17.7c1.2-6.8,4.9-10,9.9-10c3.7,0,5.3,1.4,5.3,4.7c0,0.5,0,1.1-0.1,1.6l-7.3,40.8h32.5
		l3.4-19.4h-7.9l3.8-21.4c1-5.8,1.6-9.4,1.6-11.4c0-8.8-5.3-13.4-15.2-13.4c-8.8,0-17,3.8-24.8,11.4l1.8-10.8H1211l-3.4,19.6h7.8
		l-4.5,26h-8l-3.4,19.4h39.3L1242.3,90.1z"/>
	<polygon fill="rgba(133, 152, 148, .2)" points="1194.2,90.2 1184.9,90.2 1195.4,30.3 1204.8,30.3 1208.2,11 1163.3,11 1159.8,30.3 1169.7,30.3 
		1159.2,90.2 1149.3,90.2 1145.8,109.6 1190.8,109.6 	"/>
	<polygon fill-rule="evenodd" clip-rule="evenodd" fill="rgba(133, 152, 148, .2)" points="791.3,36.2 1125.3,36.2 1112.6,109.7 778.5,109.7 	"/>
</g>
</svg>
