<?xml version="1.0" encoding="utf-8"?>
<!-- Generator: Adobe Illustrator 20.1.0, SVG Export Plug-In . SVG Version: 6.00 Build 0)  -->
<svg version="1.1" id="Layer_1" xmlns="http://www.w3.org/2000/svg" xmlns:xlink="http://www.w3.org/1999/xlink" x="0px" y="0px"
	 viewBox="0 0 203 768" enable-background="new 0 0 203 768" xml:space="preserve">
<g>
	<path fill="#F2F2F2" d="M201,777.8v-85.3l-36-6.7v17.6l-27-11.4v-46.7l27-2.9v22.3l36,6v-83.5l-36-7v14L51,610v-19.2l-36-6v128
		l36,6.2v-18.9l114,52.4v18.7L201,777.8z M106,679l-58.2-24.4l58.2-6.2V679z M201,491.2v-53.1l-37-6.8v14.1L15,420.5v60.1l36,6.5
		v-15l35.3,6.2c-8,7-12.1,17.4-12.1,31.1c0,37.8,29.2,65.9,73.4,65.9c33.9,0,55.6-20.3,55.6-48.5c0-14.3-4.4-24.9-14.2-37.6
		L201,491.2z M112.3,503.4c0-12.4,8.5-20,22-20c16.3,0,28.7,9.6,28.7,23.8c0,13.5-8.5,21.5-22.8,21.5
		C123.5,528.8,112.3,519,112.3,503.4L112.3,503.4z M201,435.7v-58.6l-55-9.6v-2.1l26-21.5v13.2l29,4.1v-66.3l-37-6.2v11.7
		l-27.3,23.1l-22.7-28V282l-36-6.2v64l30,5.2v-12.4l26.5,33.4L15,344.7v61.9l36,6.2V397l113,20v11.9L201,435.7z M158.4,189.8
		c6.5,7.3,10.2,14,10.2,22.3c0,13.7-7.6,22.3-21.6,22.3v-84.7c-4-0.3-7.4-0.5-10.5-0.5c-39.1,0-62.2,23.1-62.2,60.4
		c0,43.3,29.1,71.8,67.7,71.8c38.3,0,61-25.2,61-64.8c0-23.1-8.4-43.3-24.4-58.3L158.4,189.8z M129,233.1
		c-14-3.1-21.3-10.6-21.3-22.5c0-11.4,7.3-18.9,18.4-18.9c0.8,0,1.9,0.3,2.9,0.3V233.1z M201,112.8V64.5l-86-51.1V3.6L78-3.1V63
		l37,6.5V57.8l45.3,23.8L115,92.8v-9.3L78,77v64.3l37,6.5v-14L201,112.8z"/>
	<path fill="#F2F2F2" d="M47.2,11.7c4.3,0,7.3-3.4,7.3-7.6c0-4.2-3.1-7.4-7.3-7.4c-4.5,0-7.5,3.2-7.5,7.8
		C39.7,8.2,42.8,11.7,47.2,11.7"/>
	<path fill="#F2F2F2" d="M34,27.7v-12L19,13v10.3l2.4,0.6c-2.6,3-4,6.5-4,10.6c0,10.6,8.2,18.3,19,18.3c11,0,18.4-7.5,18.4-18.4
		c0-7.1-2.8-13.5-8.1-18.2l-7.8,10.2c2.5,1.7,3.8,4.1,3.8,6.6c0,3.5-2.6,6.2-6.5,6.2c-4.2,0-7.1-2.6-7.1-6.4c0-2.9,1.6-4.8,4.7-5.9"
		/>
	<path fill="#F2F2F2" d="M45,77.9v3.8l-10.7-1.7c-3.8-0.7-6-2.7-6-5.4c0-2,0.5-2.9,2.3-2.9c0.3,0,1.1,0,1.4,0.1l23,4V57.9L45,56v4.4
		l-12.7-2.1c-3.2-0.5-5.7-0.9-6.7-0.9c-4.8,0-7.6,2.9-7.6,8.4c0,4.8,2.5,9.4,6.7,13.7l-5.6-1v16.8l11,1.9v-4.3l15,2.5v4.4l10,1.9
		V79.9L45,77.9z"/>
	<polygon fill="#F2F2F2" points="45,104.4 45,109.6 11,103.8 11,98.6 0,96.7 0,121.5 11,123.4 11,118 45,123.8 45,129.2 55,131.1 
		55,106.3 	"/>
	<polygon fill-rule="evenodd" clip-rule="evenodd" fill="#F2F2F2" points="15,326.6 15,142.5 55,149.4 55,333.6 	"/>
</g>
</svg>
