<?xml version="1.0" encoding="utf-8"?>
<!-- Generator: Adobe Illustrator 20.1.0, SVG Export Plug-In . SVG Version: 6.00 Build 0)  -->
<svg version="1.1" id="Layer_1" xmlns="http://www.w3.org/2000/svg" xmlns:xlink="http://www.w3.org/1999/xlink" x="0px" y="0px"
	 viewBox="0 0 142.3 26.6" enable-background="new 0 0 142.3 26.6" xml:space="preserve">
<g>
	<g id="Layer_2_16_">
		<g id="Layer_2-2_7_">
			<path fill="#FFFFFF" d="M18,5.4h2.1l0.6-4H7l-0.7,4h2L2.7,17.6h-2L0,21.4h9.2l0.7-3.8H8l1.2-2.8h5l0.3,2.8h-2.4l-0.6,3.8h9
				l0.8-3.8h-1.5L18,5.4z M10.6,11.4l2.6-6.3l0.7,6.3H10.6z"/>
			<path fill="#FFFFFF" d="M53.3,12.4L54,8.2h-6.9l-0.6,3.1h1.3l-3.6,2.9l2.3-12.8h-6.7l-0.7,4h1.7l-2.1,12.2h-3.1l2.7-16.1h-6.5
				l-0.7,4h1.6l-0.7,3.9C31.4,8.4,30.3,8,28.9,8c-4.1,0-7.1,3.1-7.1,7.9c0,3.6,2.2,6,5.2,6c1.5,0,2.7-0.6,4-1.7l-0.2,1.2h12.3l1-5.9
				h0.2l2.3,2.8h-1.4l-0.4,3.1h7.1l0.7-3.8h-1.3l-2.5-2.9l3-2.4H53.3z M29.1,17.6c-1.4,0-2.3-0.9-2.3-2.4c0-1.8,1.1-3,2.7-3
				c1.3,0,2.1,0.9,2.1,2.4C31.6,16.3,30.6,17.6,29.1,17.6z"/>
			<polygon fill="#FFFFFF" points="76.9,8.2 76.2,12.4 77.4,12.4 74.9,17.2 73.7,12.4 74.7,12.4 75.4,8.2 68.4,8.2 67.7,12.4 
				69.3,12.4 71.5,21.4 76.7,21.4 82.2,12.4 83.2,12.4 84,8.2 			"/>
			<path fill="#FFFFFF" d="M61.1,8c-4.7,0-7.7,3.1-7.7,7.3c0,4.1,2.7,6.6,7,6.6c2.5,0,4.7-0.9,6.3-2.6l-3.4-2.2
				c-0.8,0.7-1.5,1.1-2.4,1.1c-1.5,0-2.4-1-2.4-2.3h9.1c0-0.3,0.1-0.8,0.1-1.1C67.6,10.5,65.1,8,61.1,8z M63,14h-4.4
				c0.3-1.6,1.1-2.3,2.4-2.3c1.2,0,2,0.8,2,2C63,13.8,63,13.9,63,14z"/>
			<path fill="#FFFFFF" d="M82.4,5.1c0,0.4,0.3,0.8,0.8,0.8c0,0,0,0,0,0c0.4,0,0.8-0.3,0.8-0.8s-0.3-0.8-0.8-0.8c0,0,0,0-0.1,0
				C82.7,4.3,82.4,4.7,82.4,5.1"/>
			<path fill="#FFFFFF" d="M80.7,3.6h1.2L82.2,2h-1.1l-0.1,0.3c-0.3-0.3-0.7-0.4-1.2-0.4c-1.2,0-2,0.9-2,2.1s0.8,2,2,2
				c0.7,0,1.5-0.3,2-0.9l-1.1-0.8c-0.2,0.2-0.4,0.4-0.7,0.4c-0.4,0-0.7-0.3-0.7-0.7c0,0,0,0,0,0c0-0.5,0.3-0.8,0.7-0.8
				C80.4,3.1,80.7,3.3,80.7,3.6"/>
			<path fill="#FFFFFF" d="M75.3,4.7h-0.4l0.2-1c0.1-0.4,0.3-0.6,0.6-0.6c0.2,0,0.3,0.1,0.3,0.3c0,0,0,0.1,0,0.1l-0.4,2.4h1.9
				l0.2-1.2h-0.5l0.2-1.3c0-0.2,0.1-0.4,0.1-0.7c0-0.5-0.3-0.8-0.9-0.8c-0.5,0-1,0.2-1.5,0.7L75.2,2h-1.8l-0.2,1.2h0.5l-0.3,1.5
				h-0.5l-0.2,1.2H75L75.3,4.7z"/>
			<polygon fill="#FFFFFF" points="72.4,4.7 71.9,4.7 72.5,1.1 73,1.1 73.2,0 70.6,0 70.4,1.1 71,1.1 70.3,4.7 69.7,4.7 69.5,5.8 
				72.2,5.8 			"/>
			<polygon fill="#FFFFFF" points="48.5,1.5 68.3,1.5 67.6,5.9 47.8,5.9 			"/>
			<path fill="#FFFFFF" d="M88.1,3.8h10.1l-0.5,1.7h-8.4l-1.6,5.5h8.3l-0.5,1.7h-8.3l-2,7h8.3l-0.5,1.7H83L88.1,3.8z"/>
			<path fill="#FFFFFF" d="M113.4,3.3l-5.2,18.1h-1.7l0.6-2.2c-0.9,0.8-1.9,1.5-2.9,1.9c-1,0.4-2,0.6-3.1,0.7c-1.9,0-3.2-0.7-4.2-2
				c-0.9-1.3-1.1-3-0.6-4.9c0.5-1.9,1.7-3.5,3.4-4.8c1.7-1.3,3.5-2,5.4-2c1.1,0,2,0.2,2.7,0.7c0.8,0.5,1.4,1.2,1.7,2.1l2.1-7.5
				L113.4,3.3z M104.8,9.7c-1,0-1.9,0.2-2.8,0.7c-0.9,0.5-1.8,1.1-2.4,1.9c-0.7,0.8-1.2,1.7-1.5,2.6c-0.3,0.9-0.3,1.8,0,2.6
				c0.2,0.8,0.7,1.5,1.3,2c0.7,0.5,1.5,0.7,2.4,0.7c1,0,1.9-0.3,2.8-0.7c0.9-0.4,1.8-1.1,2.4-1.9c0.7-0.8,1.2-1.7,1.4-2.7
				c0.4-1.5,0.3-2.8-0.4-3.8C107.4,10.2,106.3,9.7,104.8,9.7L104.8,9.7z"/>
			<path fill="#FFFFFF" d="M126.4,8.4h1.7l-3,10.4c-0.5,1.8-1.1,3.2-1.6,4c-0.8,1.2-1.8,2.1-3.1,2.8c-1.3,0.7-2.8,1-4.2,1
				c-1,0-2-0.1-2.9-0.5c-0.8-0.3-1.4-0.7-1.8-1.3c-0.4-0.5-0.7-1.3-0.9-2.3h1.8c0.2,0.9,0.7,1.5,1.4,1.9c0.7,0.4,1.6,0.6,2.7,0.6
				c1.1,0,2.1-0.2,3.1-0.6c0.8-0.4,1.6-0.9,2.2-1.6c0.5-0.6,1-1.7,1.4-3.1l0.2-0.7c-0.8,0.8-1.8,1.4-2.9,1.8c-1,0.4-2,0.6-3.1,0.6
				c-1.1,0-2.2-0.3-3.1-0.9c-0.9-0.6-1.5-1.4-1.8-2.4c-0.3-1-0.3-2.1,0.1-3.3c0.4-1.3,1-2.4,1.9-3.4c0.9-1,2-1.9,3.2-2.5
				c1.1-0.6,2.4-0.9,3.6-0.9c0.9,0,1.8,0.2,2.6,0.6c0.7,0.4,1.4,1.1,1.9,2L126.4,8.4z M121,9.7c-1,0-2,0.2-2.9,0.7
				c-0.9,0.5-1.8,1.1-2.5,1.9c-0.7,0.8-1.2,1.7-1.5,2.6c-0.4,1.4-0.3,2.6,0.4,3.6s1.8,1.4,3.3,1.4c1.5,0,3-0.5,4.1-1.4
				c1.2-0.9,2.1-2.2,2.5-3.7c0.3-1,0.3-1.9,0.1-2.6c-0.2-0.8-0.7-1.4-1.3-1.8C122.7,9.9,121.9,9.7,121,9.7z"/>
			<path fill="#FFFFFF" d="M139.5,17.1l1.2,0.7c-0.6,0.8-1.4,1.6-2.2,2.2c-0.7,0.5-1.6,1-2.4,1.3c-0.9,0.3-1.8,0.4-2.7,0.4
				c-2.1,0-3.6-0.7-4.4-2.1c-0.8-1.4-1-3-0.4-4.7c0.5-1.7,1.4-3.1,2.8-4.4c1.8-1.6,3.7-2.5,5.9-2.5c2.2,0,3.8,0.8,4.6,2.5
				c0.6,1.2,0.7,2.7,0.2,4.5h-11.8c-0.4,1.5-0.3,2.8,0.4,3.7c0.7,1,1.7,1.5,3.1,1.5c0.7,0,1.4-0.1,2-0.3c0.7-0.2,1.3-0.5,1.9-0.9
				C138.3,18.4,138.9,17.8,139.5,17.1z M140.5,13.6c0-0.9-0.1-1.6-0.4-2.2c-0.3-0.6-0.8-1-1.3-1.3c-0.6-0.3-1.4-0.5-2.1-0.5
				c-1.3,0-2.5,0.4-3.7,1.2c-0.8,0.6-1.6,1.5-2.3,2.7L140.5,13.6z"/>
		</g>
	</g>
</g>
</svg>
