<?xml version="1.0" standalone="no"?>
<!DOCTYPE svg PUBLIC "-//W3C//DTD SVG 1.1//EN" "http://www.w3.org/Graphics/SVG/1.1/DTD/svg11.dtd" >
<svg xmlns="http://www.w3.org/2000/svg">
<metadata>Generated by IcoMoon</metadata>
<defs>
<font id="icomoon" horiz-adv-x="1024">
<font-face units-per-em="1024" ascent="960" descent="-64" />
<missing-glyph horiz-adv-x="1024" />
<glyph unicode="&#x20;" horiz-adv-x="512" d="" />
<glyph unicode="&#xe900;" glyph-name="close" d="M957.781 841.216l-52.565 52.565-393.216-393.216-393.216 393.216-52.565-52.565 393.216-393.216-393.216-393.216 52.565-52.565 393.216 393.216 393.216-393.216 52.565 52.565-393.216 393.216 393.216 393.216z" />
<glyph unicode="&#xe901;" glyph-name="community" d="M512 865.792c-229.376 0-417.792-188.416-417.792-417.792s188.416-417.792 417.792-417.792c229.376 0 417.792 188.416 417.792 417.792s-188.416 417.792-417.792 417.792zM782.336 716.288c-51.2-10.24-102.4-18.432-155.648-24.576-4.096 0-8.192 2.048-10.24 6.144-18.432 43.008-43.008 86.016-71.68 129.024-2.048 4.096 0 6.144 4.096 6.144 92.16-8.192 174.080-49.152 235.52-110.592 4.096-2.048 2.048-6.144-2.048-6.144zM593.92 660.992c4.096 0 8.192-2.048 10.24-6.144 22.528-61.44 34.816-122.88 38.912-184.32 0-4.096-4.096-8.192-8.192-8.192h-245.76c-4.096 0-8.192 4.096-6.144 8.192 2.048 61.44 14.336 122.88 38.912 184.32 2.048 4.096 6.144 6.144 10.24 6.144 26.624-2.048 55.296-2.048 81.92-2.048 24.576-2.048 53.248 0 79.872 2.048zM438.272 695.808c18.432 40.96 43.008 81.92 69.632 122.88 2.048 4.096 6.144 4.096 8.192 0 28.672-40.96 51.2-81.92 69.632-122.88 2.048-4.096 0-6.144-4.096-8.192-47.104-2.048-92.16-2.048-139.264 0-4.096 2.048-6.144 4.096-4.096 8.192zM421.888 235.008c-24.576 63.488-38.912 126.976-40.96 190.464 0 4.096 2.048 8.192 6.144 8.192h245.76c4.096 0 8.192-4.096 8.192-8.192-2.048-63.488-16.384-126.976-40.96-190.464-2.048-4.096-6.144-6.144-10.24-6.144-53.248 4.096-106.496 4.096-157.696 0-4.096 0-8.192 2.048-10.24 6.144zM583.68 192c-18.432-38.912-40.96-77.824-67.584-114.688-2.048-4.096-6.144-4.096-8.192 0-26.624 38.912-49.152 75.776-67.584 114.688-2.048 4.096 0 6.144 4.096 6.144 45.056 2.048 90.112 2.048 133.12 0 6.144 2.048 8.192-2.048 6.144-6.144zM344.064 462.336h-212.992c-4.096 0-8.192 4.096-6.144 8.192 4.096 81.92 34.816 155.648 81.92 217.088 2.048 4.096 8.192 4.096 12.288 4.096 55.296-12.288 110.592-22.528 165.888-26.624 4.096 0 6.144-4.096 4.096-8.192-22.528-61.44-34.816-122.88-36.864-186.368 0-4.096-4.096-8.192-8.192-8.192zM352.256 425.472c2.048-65.536 16.384-129.024 38.912-192.512 2.048-4.096 0-8.192-4.096-8.192-55.296-6.144-110.592-14.336-163.84-26.624-4.096 0-10.24 0-12.288 4.096-49.152 61.44-81.92 139.264-86.016 223.232 0 4.096 2.048 8.192 6.144 8.192h212.992c4.096 0 8.192-4.096 8.192-8.192zM409.6 189.952c18.432-40.96 40.96-81.92 69.632-122.88 2.048-4.096 0-6.144-4.096-6.144-88.064 8.192-169.984 47.104-231.424 104.448-2.048 2.048-2.048 6.144 2.048 6.144 49.152 10.24 100.352 18.432 151.552 22.528 6.144 2.048 10.24 0 12.288-4.096zM624.64 196.096c51.2-4.096 102.4-12.288 151.552-22.528 4.096 0 4.096-4.096 2.048-6.144-61.44-59.392-141.312-96.256-231.424-104.448-4.096 0-6.144 2.048-4.096 6.144 26.624 40.96 51.2 81.92 69.632 122.88 4.096 2.048 8.192 4.096 12.288 4.096zM632.832 232.96c24.576 63.488 36.864 129.024 38.912 192.512 0 4.096 4.096 8.192 8.192 8.192h212.992c4.096 0 8.192-4.096 6.144-8.192-4.096-83.968-36.864-161.792-86.016-223.232-2.048-4.096-8.192-4.096-12.288-4.096-53.248 12.288-108.544 20.48-163.84 26.624-4.096 0-6.144 4.096-4.096 8.192zM671.744 470.528c-2.048 61.44-14.336 124.928-36.864 186.368-2.048 4.096 0 8.192 4.096 8.192 55.296 6.144 112.64 14.336 165.888 26.624 4.096 0 10.24 0 12.288-4.096 47.104-61.44 77.824-135.168 81.92-217.088 0-4.096-2.048-8.192-6.144-8.192h-212.992c-4.096 0-8.192 4.096-8.192 8.192zM479.232 828.928c-28.672-43.008-53.248-86.016-71.68-129.024-2.048-4.096-6.144-6.144-10.24-6.144-53.248 4.096-104.448 12.288-155.648 24.576-4.096 0-4.096 4.096-2.048 6.144 61.44 61.44 145.408 102.4 235.52 110.592 4.096 0 6.144-2.048 4.096-6.144z" />
<glyph unicode="&#xe902;" glyph-name="feed" d="M930.555 960h-704.73c-54.51 0-97.338-42.829-97.338-97.338v-62.297h-31.148c-54.51 0-97.338-42.829-97.338-97.338v-642.433c0-70.084 58.403-128.487 128.487-128.487h767.027c70.084 0 128.487 58.403 128.487 128.487v802.068c0 54.51-42.829 97.338-93.445 97.338zM961.703 60.593c0-35.042-27.255-62.297-62.297-62.297h-770.92c-35.042 0-62.297 27.255-62.297 62.297v642.433c0 19.468 15.574 31.148 31.148 31.148h31.148v-642.433c0-19.468 15.574-31.148 31.148-31.148 19.468 0 31.148 15.574 31.148 31.148v770.92c0 19.468 15.574 31.148 31.148 31.148h704.73c19.468 0 31.148-15.574 31.148-31.148v-802.068zM626.859 543.392h256.973c7.787 0 15.574 7.787 15.574 15.574s-7.787 15.574-15.574 15.574h-256.973c-7.787 0-15.574-7.787-15.574-15.574-3.894-7.787 3.894-15.574 15.574-15.574zM626.859 640.73h256.973c7.787 0 15.574 7.787 15.574 15.574s-7.787 15.574-15.574 15.574h-256.973c-7.787 0-15.574-7.787-15.574-15.574-3.894-11.681 3.894-15.574 15.574-15.574zM626.859 734.175h256.973c7.787 0 15.574 7.787 15.574 15.574s-7.787 15.574-15.574 15.574h-256.973c-7.787 0-15.574-7.787-15.574-15.574-3.894-7.787 3.894-15.574 15.574-15.574zM529.521 95.635h-256.973c-7.787 0-15.574-7.787-15.574-15.574s7.787-15.574 15.574-15.574h256.973c7.787 0 15.574 7.787 15.574 15.574s-7.787 15.574-15.574 15.574zM529.521 189.080h-256.973c-7.787 0-15.574-7.787-15.574-15.574s7.787-15.574 15.574-15.574h256.973c7.787 0 15.574 7.787 15.574 15.574 0 11.681-7.787 15.574-15.574 15.574zM529.521 286.418h-256.973c-7.787 0-15.574-7.787-15.574-15.574s7.787-15.574 15.574-15.574h256.973c7.787 0 15.574 7.787 15.574 15.574s-7.787 15.574-15.574 15.574zM879.939 95.635h-256.973c-7.787 0-15.574-7.787-15.574-15.574s7.787-15.574 15.574-15.574h256.973c7.787 0 15.574 7.787 15.574 15.574s-3.894 15.574-15.574 15.574zM879.939 189.080h-256.973c-7.787 0-15.574-7.787-15.574-15.574s7.787-15.574 15.574-15.574h256.973c7.787 0 15.574 7.787 15.574 15.574 0 11.681-3.894 15.574-15.574 15.574zM879.939 286.418h-256.973c-7.787 0-15.574-7.787-15.574-15.574s7.787-15.574 15.574-15.574h256.973c7.787 0 15.574 7.787 15.574 15.574s-3.894 15.574-15.574 15.574zM879.939 477.202h-607.392c-7.787 0-15.574-7.787-15.574-15.574s7.787-15.574 15.574-15.574h607.392c7.787 0 15.574 7.787 15.574 15.574s-3.894 15.574-15.574 15.574zM879.939 383.757h-607.392c-7.787 0-15.574-7.787-15.574-15.574s7.787-15.574 15.574-15.574h607.392c7.787 0 15.574 7.787 15.574 15.574s-3.894 15.574-15.574 15.574zM288.122 543.392h225.825c19.468 0 31.148 15.574 31.148 31.148v225.825c0 19.468-15.574 31.148-31.148 31.148h-225.825c-15.574 0-31.148-15.574-31.148-31.148v-225.825c0-15.574 15.574-31.148 31.148-31.148zM319.27 769.217h159.635v-159.635h-159.635v159.635z" />
<glyph unicode="&#xe903;" glyph-name="employees" d="M614.4 269.824c-30.72 14.336-110.592 55.296-174.080 86.016l-20.48 59.392c28.672 18.432 49.152 47.104 53.248 81.92l12.288 100.352c10.24 81.92-47.104 157.696-126.976 157.696s-137.216-75.776-126.976-157.696l12.288-100.352c4.096-34.816 24.576-63.488 53.248-81.92l-20.48-59.392c-63.488-30.72-143.36-71.68-172.032-86.016-49.152-24.576-53.248-77.824-53.248-77.824v-51.2h614.4v51.2c0 0 0 51.2-51.2 77.824zM946.176 357.888c-14.336 8.192-55.296 28.672-86.016 45.056l-10.24 28.672c14.336 8.192 24.576 22.528 26.624 40.96l6.144 49.152c4.096 40.96-22.528 79.872-63.488 79.872s-67.584-38.912-63.488-79.872l6.144-49.152c2.048-18.432 12.288-32.768 26.624-40.96l-8.192-22.528c43.008-22.528 94.208-47.104 114.688-57.344 38.912-20.48 38.912-57.344 38.912-57.344h38.912v24.576c0 2.048 0 26.624-26.624 38.912zM819.2 314.88c-22.528 12.288-83.968 40.96-129.024 65.536l-14.336 45.056c20.48 12.288 36.864 34.816 38.912 61.44l8.192 73.728c8.192 61.44-34.816 118.784-94.208 118.784-61.44 0-102.4-57.344-94.208-118.784l8.192-73.728c4.096-26.624 18.432-49.152 38.912-61.44l-14.336-45.056c-2.048-2.048-6.144-2.048-8.192-4.096 53.248-26.624 108.544-55.296 133.12-67.584 51.2-26.624 51.2-77.824 51.2-77.824v-12.288h114.688v38.912c0-2.048 0 36.864-38.912 57.344z" />
<glyph unicode="&#xe904;" glyph-name="hamburger" d="M937.984 622.080h-851.968c-18.432 0-34.816 22.528-34.816 40.96s14.336 40.96 34.816 40.96h854.016c18.432 0 34.816-22.528 34.816-40.96s-16.384-40.96-36.864-40.96zM937.984 396.8h-716.8c-18.432 0-34.816 22.528-34.816 40.96s14.336 40.96 34.816 40.96h716.8c18.432 0 34.816-22.528 34.816-40.96s-14.336-40.96-34.816-40.96zM937.984 171.52h-544.768c-18.432 0-34.816 22.528-34.816 40.96s14.336 40.96 34.816 40.96h546.816c18.432 0 34.816-22.528 34.816-40.96s-16.384-40.96-36.864-40.96z" />
<glyph unicode="&#xe905;" glyph-name="scrollarrows" d="M512 112.128l-395.264 395.264-47.104-47.104 442.368-440.32 442.368 442.368-45.056 45.056-397.312-395.264zM954.368 830.976l-45.056 45.056-397.312-395.264-395.264 395.264-47.104-45.056 442.368-442.368 442.368 442.368z" />
<glyph unicode="&#xe906;" glyph-name="finance" d="M961.87 633.24l-147.272 149.573c-11.506 9.204-27.613 16.108-41.42 16.108h-522.355c-16.108 0-29.915-6.903-41.42-16.108l-147.272-149.573c-11.506-11.506-16.108-27.613-16.108-41.42s4.602-27.613 13.807-39.119l409.6-434.912c11.506-11.506 27.613-20.71 43.721-20.71s32.216 6.903 43.721 20.71l409.6 434.912c9.204 11.506 13.807 25.312 13.807 39.119 0 16.108-6.903 29.915-18.409 41.42zM577.582 594.121h-128.863l64.431 52.926 64.431-52.926zM533.861 667.757l80.539 66.733 59.829-59.829-73.636-62.13-66.733 55.227zM423.407 612.53l-73.636 62.13 59.829 59.829 80.539-66.733-66.733-55.227zM584.485 564.207l-73.636-363.578-73.636 363.578h147.272zM614.4 564.207h142.67l-214.004-358.975 71.335 358.975zM621.303 594.121l71.335 59.829 59.829-59.829h-131.164zM648.917 739.092h103.551l-55.227-46.022-48.324 46.022zM510.849 686.166l-64.431 52.926h128.863l-64.431-52.926zM326.76 693.070l-55.227 46.022h103.551l-48.324-46.022zM329.061 653.951l71.335-59.829h-131.164l59.829 59.829zM409.6 564.207l71.335-358.975-214.004 358.975h142.67zM416.503 258.157l-287.64 306.049h103.551l184.090-306.049zM791.587 564.207h103.551l-287.64-306.049 184.090 306.049zM796.189 594.121l-78.238 78.238 66.733 55.227 133.465-135.766h-121.96zM239.317 729.888l66.733-55.227-78.238-78.238h-124.261l135.766 133.465z" />
<glyph unicode="&#xe907;" glyph-name="chevron-thin-up" d="M132.198 261.581c-13.926-13.722-36.301-13.722-50.125 0s-13.875 35.891 0 49.613l404.89 400.896c13.824 13.722 36.198 13.722 50.125 0l404.89-400.896c13.824-13.722 13.824-35.891 0-49.613-13.875-13.722-36.301-13.722-50.074 0l-379.904 365.619-379.802-365.619z" />
<glyph unicode="&#xe908;" glyph-name="chevron-thin-right" d="M678.4 460.8l-365.619 379.904c-13.722 13.824-13.722 36.198 0 50.125 13.722 13.824 35.891 13.824 49.613 0l400.896-404.89c13.722-13.875 13.722-36.301 0-50.125l-400.896-404.89c-13.722-13.875-35.891-13.824-49.613 0-13.722 13.773-13.722 36.198 0 50.125l365.619 379.75z" />
<glyph unicode="&#xe909;" glyph-name="chevron-thin-left" d="M711.219 80.998c13.722-13.926 13.722-36.301 0-50.125s-35.891-13.875-49.613 0l-400.896 404.89c-13.722 13.824-13.722 36.198 0 50.125l400.896 404.89c13.722 13.824 35.891 13.824 49.613 0 13.722-13.875 13.722-36.301 0-50.125l-365.619-379.853 365.619-379.802z" />
<glyph unicode="&#xe90a;" glyph-name="chevron-thin-down" d="M891.802 660.019c13.926 13.722 36.301 13.722 50.125 0s13.875-35.891 0-49.613l-404.89-400.896c-13.824-13.722-36.198-13.722-50.125 0l-404.89 400.896c-13.824 13.722-13.824 35.891 0 49.613 13.875 13.722 36.301 13.722 50.125 0l379.853-365.619 379.802 365.619z" />
<glyph unicode="&#xe90b;" glyph-name="chevron-small-up" d="M336.998 351.181c-13.875-13.722-36.301-13.722-50.074 0s-13.926 35.891 0 49.613l200.090 196.096c13.824 13.722 36.198 13.722 50.125 0l200.090-196.096c13.824-13.67 13.824-35.891 0-49.613-13.875-13.722-36.301-13.722-50.125 0l-175.104 160.819-175.002-160.819z" />
<glyph unicode="&#xe90c;" glyph-name="chevron-small-right" d="M563.2 460.8l-160.819 175.104c-13.722 13.824-13.722 36.198 0 50.074 13.722 13.824 35.891 13.824 49.613 0l196.096-200.090c13.722-13.875 13.722-36.301 0-50.125l-196.096-200.090c-13.67-13.926-35.891-13.824-49.613 0-13.722 13.773-13.722 36.198 0 50.074l160.819 175.053z" />
<glyph unicode="&#xe90d;" glyph-name="chevron-small-left" d="M621.619 285.798c13.722-13.875 13.722-36.301 0-50.074-13.722-13.824-35.891-13.926-49.613 0l-196.096 200.090c-13.722 13.824-13.722 36.198 0 50.125l196.096 200.090c13.67 13.824 35.891 13.824 49.613 0 13.722-13.875 13.722-36.301 0-50.074l-160.819-175.155 160.819-175.002z" />
<glyph unicode="&#xe90e;" glyph-name="chevron-small-down" d="M687.002 570.419c13.875 13.722 36.301 13.722 50.074 0 13.824-13.722 13.926-35.891 0-49.613l-200.090-196.096c-13.824-13.722-36.198-13.722-50.125 0l-200.090 196.096c-13.824 13.67-13.824 35.891 0 49.613 13.875 13.722 36.301 13.722 50.074 0l175.155-160.819 175.002 160.819z" />
<glyph unicode="&#xe90f;" glyph-name="healthcare" d="M881.33 762.103c-101.249 101.249-264.629 103.551-368.18 9.204-105.852 94.346-266.93 92.045-368.18-9.204-105.852-103.551-105.852-271.533 0-375.083 29.915-29.915 308.351-306.049 308.351-306.049 32.216-32.216 87.443-32.216 119.658 0 0 0 306.049 303.748 308.351 306.049 103.551 103.551 103.551 271.533 0 375.083zM842.211 426.139l-310.652-306.049c-11.506-11.506-29.915-11.506-39.119 0l-310.652 306.049c-82.84 82.84-82.84 214.004 0 296.845 80.539 78.238 207.101 80.539 292.243 6.903l36.818-34.517 36.818 34.517c82.84 75.937 211.703 73.636 292.243-6.903 82.84-80.539 82.84-214.004 2.301-296.845zM322.157 699.973c0 0 0 0 0 0-66.733 0-119.658-52.926-119.658-119.658v0c0-6.903 6.903-13.807 13.807-13.807s13.807 6.903 13.807 13.807v0c0 50.625 41.42 92.045 92.045 92.045v0c6.903 0 13.807 6.903 13.807 13.807s-4.602 13.807-13.807 13.807z" />
<glyph unicode="&#xe910;" glyph-name="hr" d="M946.129 597.901l-280.335 280.335c-15.574 15.574-35.042 19.468-54.51 15.574-11.681-3.894-19.468-7.787-27.255-15.574s-11.681-15.574-15.574-23.361c-11.681-42.829-35.042-77.871-66.19-109.019-42.829-42.829-101.232-77.871-159.635-112.913-62.297-35.042-128.487-73.977-182.996-128.487-46.722-46.722-77.871-97.338-93.445-155.741-7.787-19.468 0-42.829 15.574-54.51l280.335-280.335c15.574-15.574 35.042-19.468 54.51-15.574 11.681 3.894 19.468 7.787 27.255 15.574s11.681 15.574 15.574 23.361c11.681 42.829 35.042 77.871 66.19 109.019 42.829 42.829 101.232 77.871 159.635 109.019 62.297 35.042 128.487 73.977 182.996 128.487 46.722 46.722 77.871 97.338 93.445 155.741 3.894 23.361 0 46.722-15.574 58.403zM401.034 52.806c-93.445 93.445-186.89 186.89-280.335 280.335 77.871 256.973 424.395 245.293 506.16 506.16 93.445-93.445 186.89-186.89 280.335-280.335-81.764-256.973-428.289-245.293-506.16-506.16zM611.285 477.202c-7.787 7.787-15.574 15.574-27.255 15.574-7.787 3.894-19.468 3.894-27.255 3.894s-19.468-3.894-27.255-7.787c-7.787-3.894-19.468-7.787-27.255-11.681-15.574 15.574-31.148 35.042-46.722 50.616 7.787 7.787 11.681 7.787 19.468 7.787s11.681 0 19.468 0c7.787 0 11.681-3.894 15.574-3.894s7.787 0 11.681 3.894c3.894 3.894 7.787 7.787 7.787 11.681s0 11.681-7.787 15.574c-7.787 7.787-11.681 11.681-23.361 11.681-7.787 0-15.574 0-27.255 0-7.787-3.894-15.574-3.894-23.361-11.681-7.787-3.894-15.574-7.787-19.468-15.574 0 0-3.894 3.894-3.894 3.894-3.894 0-3.894 3.894-7.787 3.894s-3.894 0-7.787-3.894-3.894-3.894-3.894-7.787 0-3.894 3.894-7.787c0 0 3.894-3.894 3.894-3.894-7.787-7.787-11.681-19.468-19.468-27.255-3.894-11.681-7.787-19.468-7.787-31.148s0-19.468 3.894-27.255c3.894-7.787 7.787-15.574 15.574-23.361 11.681-11.681 27.255-15.574 46.722-15.574s38.935 7.787 58.403 19.468c15.574-19.468 35.042-38.935 50.616-54.51-7.787-7.787-11.681-7.787-19.468-11.681-3.894 0-11.681 0-15.574 0s-7.787 3.894-11.681 7.787c-3.894 3.894-7.787 3.894-11.681 7.787-3.894 0-7.787 3.894-11.681 3.894s-7.787 0-11.681-3.894c-3.894-3.894-7.787-7.787-7.787-15.574 0-3.894 3.894-11.681 7.787-15.574s11.681-11.681 19.468-11.681c7.787-3.894 15.574-3.894 23.361-7.787 7.787 0 19.468 0 31.148 3.894s19.468 11.681 31.148 19.468c3.894-3.894 11.681-7.787 15.574-15.574 3.894 0 3.894-3.894 7.787-3.894s3.894 0 7.787 3.894 3.894 3.894 3.894 7.787 0 3.894-3.894 7.787-11.681 7.787-15.574 11.681c7.787 11.681 15.574 19.468 19.468 31.148s7.787 19.468 7.787 31.148c0 7.787 0 19.468-3.894 27.255 3.894 15.574-3.894 23.361-11.681 27.255zM455.544 457.734c-7.787 0-15.574 3.894-19.468 7.787s-3.894 3.894-3.894 7.787 0 7.787 0 11.681c0 3.894 0 7.787 3.894 11.681s3.894 7.787 7.787 11.681c15.574-15.574 27.255-31.148 42.829-46.722-11.681 0-23.361-3.894-31.148-3.894zM587.924 403.224c-3.894-3.894-3.894-7.787-7.787-11.681-15.574 15.574-31.148 35.042-46.722 50.616 3.894 0 7.787 3.894 11.681 3.894s7.787 3.894 15.574 3.894c3.894 0 7.787 0 15.574 0 3.894 0 7.787-3.894 11.681-7.787s7.787-7.787 7.787-11.681c0-3.894 0-7.787 0-15.574-3.894-3.894-3.894-7.787-7.787-11.681zM475.011 274.738v0c-19.468-11.681-35.042-27.255-50.616-42.829s-27.255-31.148-42.829-46.722l-19.468-27.255c-3.894-3.894-3.894-11.681 0-19.468 3.894-3.894 15.574-3.894 19.468 0 0 0 0 0 3.894 3.894l19.468 23.361c11.681 15.574 23.361 31.148 38.935 42.829 15.574 15.574 31.148 27.255 46.722 42.829v0c0 0 0 0 0 0 3.894 3.894 3.894 15.574 0 19.468 0 7.787-7.787 7.787-15.574 3.894zM580.137 679.665c-15.574-15.574-31.148-27.255-46.722-38.935 0 0-3.894 0-3.894-3.894-3.894-3.894-3.894-15.574 0-19.468 3.894-7.787 15.574-7.787 19.468 0v0c19.468 11.681 35.042 27.255 50.616 42.829s27.255 31.148 42.829 46.722l19.468 27.255c3.894 3.894 3.894 15.574 0 19.468s-15.574 3.894-19.468 0c0 0 0-3.894-3.894-3.894l-19.468-27.255c-11.681-15.574-27.255-27.255-38.935-42.829z" />
<glyph unicode="&#xe911;" glyph-name="sms" d="M720.252 863.353h-416.503c-43.721 0-78.238-34.517-78.238-78.238v-676.53c0-43.721 34.517-78.238 78.238-78.238h416.503c43.721 0 78.238 34.517 78.238 78.238v676.53c0 43.721-36.818 78.238-78.238 78.238zM745.564 110.885c0-13.807-11.506-25.312-25.312-25.312h-416.503c-13.807 0-25.312 11.506-25.312 25.312v52.926h467.128v-52.926zM745.564 189.124h-467.128v517.753h467.128v-517.753zM745.564 734.49h-467.128v50.625c0 13.807 11.506 25.312 25.312 25.312h416.503c13.807 0 25.312-11.506 25.312-25.312v-50.625zM563.775 773.609c0-6.903-6.903-13.807-13.807-13.807h-78.238c-6.903 0-13.807 6.903-13.807 13.807v0c0 6.903 6.903 13.807 13.807 13.807h78.238c6.903-2.301 13.807-6.903 13.807-13.807v0zM538.463 124.692c0-6.903-6.903-13.807-13.807-13.807h-25.312c-6.903 0-13.807 6.903-13.807 13.807v0c0 6.903 6.903 13.807 13.807 13.807h25.312c6.903-2.301 13.807-6.903 13.807-13.807v0z" />
<glyph unicode="&#xe912;" glyph-name="improvements" d="M513.947 928.852c-182.996 0-330.951-147.954-330.951-330.951 0-120.7 109.019-249.186 151.848-362.099 58.403-167.422 54.51-268.654 179.103-268.654 128.487 0 120.7 101.232 179.103 268.654 38.935 112.913 151.848 241.399 151.848 362.099 0 182.996-147.954 330.951-330.951 330.951zM591.817 111.209l-147.954-19.468c-3.894 15.574-11.681 35.042-19.468 58.403 0 0 0 0 0 0l186.89 23.361c-3.894-7.787-3.894-19.468-7.787-27.255-7.787-11.681-7.787-23.361-11.681-35.042zM416.608 181.293c-3.894 19.468-11.681 38.935-19.468 58.403h233.612c-3.894-11.681-7.787-23.361-11.681-31.148l-202.464-27.255zM513.947 25.551c-31.148 0-42.829 3.894-58.403 38.935l128.487 15.574c-23.361-50.616-35.042-54.51-70.084-54.51zM654.114 298.099h-280.335c-15.574 31.148-31.148 66.19-50.616 97.338-38.935 70.084-77.871 144.061-77.871 202.464 0 147.954 120.7 268.654 268.654 268.654s268.654-120.7 268.654-268.654c0-62.297-38.935-132.38-77.871-202.464-19.468-35.042-35.042-66.19-50.616-97.338zM513.947 777.004c-101.232 0-179.103-81.764-179.103-179.103 0-7.787 7.787-15.574 15.574-15.574s15.574 7.787 15.574 15.574c0 81.764 66.19 151.848 151.848 151.848 7.787 0 15.574 7.787 15.574 15.574-3.894 3.894-11.681 11.681-19.468 11.681z" />
<glyph unicode="&#xe913;" glyph-name="checkmark, tick, approve, submit" d="M927.936 687.008l-68.288 68.288c-12.608 12.576-32.96 12.576-45.536 0l-409.44-409.44-194.752 196.16c-12.576 12.576-32.928 12.576-45.536 0l-68.288-68.288c-12.576-12.608-12.576-32.96 0-45.536l285.568-287.488c12.576-12.576 32.96-12.576 45.536 0l500.736 500.768c12.576 12.544 12.576 32.96 0 45.536z" />
<glyph unicode="&#xe914;" glyph-name="check" d="M384 248.667l452 452 60-60-512-512-238 238 60 60z" />
<glyph unicode="&#xe915;" glyph-name="sign-out" d="M640 192h-256v576l-256 128h512v-192h64v256h-704v-832l384-192v192h320v320h-64v-256zM1024 576l-256 192v-128h-256v-128h256v-128l256 192z" />
<glyph unicode="&#xe916;" glyph-name="plus" d="M992 576h-352v352c0 17.672-14.328 32-32 32h-192c-17.672 0-32-14.328-32-32v-352h-352c-17.672 0-32-14.328-32-32v-192c0-17.672 14.328-32 32-32h352v-352c0-17.672 14.328-32 32-32h192c17.672 0 32 14.328 32 32v352h352c17.672 0 32 14.328 32 32v192c0 17.672-14.328 32-32 32z" />
<glyph unicode="&#xe917;" glyph-name="add" d="M810 384.667h-256v-256h-84v256h-256v84h256v256h84v-256h256v-84z" />
<glyph unicode="&#xe918;" glyph-name="plus2" d="M768 512h-170.667v170.667c0 47.104-38.229 85.333-85.333 85.333s-85.333-38.229-85.333-85.333l3.029-170.667h-173.696c-47.104 0-85.333-38.229-85.333-85.333s38.229-85.333 85.333-85.333l173.696 3.029-3.029-173.696c0-47.104 38.229-85.333 85.333-85.333s85.333 38.229 85.333 85.333v173.696l170.667-3.029c47.104 0 85.333 38.229 85.333 85.333s-38.229 85.333-85.333 85.333z" />
<glyph unicode="&#xe919;" glyph-name="media-pause-outline" d="M341.333 85.334c-70.571 0-128 57.429-128 128v384c0 70.571 57.429 128 128 128s128-57.429 128-128v-384c0-70.571-57.429-128-128-128zM341.333 640c-23.552 0-42.667-19.157-42.667-42.667v-384c0-23.509 19.115-42.667 42.667-42.667s42.667 19.157 42.667 42.667v384c0 23.509-19.115 42.667-42.667 42.667zM640 85.334c-70.571 0-128 57.429-128 128v384c0 70.571 57.429 128 128 128s128-57.429 128-128v-384c0-70.571-57.429-128-128-128zM640 640c-23.552 0-42.667-19.157-42.667-42.667v-384c0-23.509 19.115-42.667 42.667-42.667s42.667 19.157 42.667 42.667v384c0 23.509-19.115 42.667-42.667 42.667z" />
<glyph unicode="&#xe91a;" glyph-name="media-pause" d="M341.333 682.667c-47.104 0-85.333-38.229-85.333-85.333v-341.333c0-47.104 38.229-85.333 85.333-85.333s85.333 38.229 85.333 85.333v341.333c0 47.104-38.229 85.333-85.333 85.333zM640 682.667c-47.104 0-85.333-38.229-85.333-85.333v-341.333c0-47.104 38.229-85.333 85.333-85.333s85.333 38.229 85.333 85.333v341.333c0 47.104-38.229 85.333-85.333 85.333z" />
</font>
</defs>
</svg>
