<?xml version="1.0" encoding="utf-8"?>
<!-- Generator: Adobe Illustrator 16.0.0, SVG Export Plug-In . SVG Version: 6.00 Build 0)  -->
<!DOCTYPE svg PUBLIC "-//W3C//DTD SVG 1.1//EN" "http://www.w3.org/Graphics/SVG/1.1/DTD/svg11.dtd">
<svg version="1.1" id="athlete" xmlns="http://www.w3.org/2000/svg" xmlns:xlink="http://www.w3.org/1999/xlink" x="0px" y="0px"
	 width="792.5px" height="792px" viewBox="0 0 792.5 792" enable-background="new 0 0 792.5 792" xml:space="preserve" preserveAspectRatio="xMaxYMid">
<g>
	<g id="right-back-forearm">
		<g>
			<g>
				<defs>
					
						<rect id="SVGID_1_" x="457.962" y="329.281" transform="matrix(-0.8163 0.5777 -0.5777 -0.8163 1168.4857 325.8673)" width="148.918" height="38.949"/>
				</defs>
				<clipPath id="SVGID_2_">
					<use xlink:href="#SVGID_1_"  overflow="visible"/>
				</clipPath>
				<g transform="matrix(1 0 0 1 0 -6.103516e-05)" clip-path="url(#SVGID_2_)">
					
						<image overflow="visible" enable-background="new    " width="1000" height="667" xlink:href="athlete/parts/0Z4A5287.png"  transform="matrix(0.1308 -0.0926 0.0926 0.1308 439.627 348.9092)">
					</image>
				</g>
			</g>
		</g>
	</g>
	<g id="left-outer-forearm">
		<g>
			<g>
				<defs>
					
						<rect id="SVGID_3_" x="142.862" y="198.718" transform="matrix(-0.2391 0.971 -0.971 -0.2391 464.2938 78.847)" width="116.784" height="45.246"/>
				</defs>
				<clipPath id="SVGID_4_">
					<use xlink:href="#SVGID_3_"  overflow="visible"/>
				</clipPath>
				<g transform="matrix(1 -1.490116e-08 1.490116e-08 1 0 4.768372e-06)" clip-path="url(#SVGID_4_)">
					
						<image overflow="visible" enable-background="new    " width="1000" height="667" xlink:href="athlete/parts/0Z4A9676.png"  transform="matrix(-0.0836 0.3393 -0.3393 -0.0836 362.748 83.3525)">
					</image>
				</g>
			</g>
		</g>
	</g>
	<g id="left-inner-thigh">
		<g>
			<g>
				<defs>
					
						<rect id="SVGID_5_" x="44.983" y="427.319" transform="matrix(-0.1913 0.9815 -0.9815 -0.1913 641.0719 403.6496)" width="218.535" height="77.198"/>
				</defs>
				<clipPath id="SVGID_6_">
					<use xlink:href="#SVGID_5_"  overflow="visible"/>
				</clipPath>
				<g clip-path="url(#SVGID_6_)">
					
						<image overflow="visible" enable-background="new    " width="1000" height="563" xlink:href="athlete/parts/0Z4A9718.png"  transform="matrix(-0.0596 0.3059 -0.3059 -0.0596 279.0273 317.5938)">
					</image>
				</g>
			</g>
		</g>
	</g>
	<g id="left-inner-bicep">
		<g>
			<g>
				<defs>
					
						<rect id="SVGID_7_" x="250.202" y="156.019" transform="matrix(-0.555 0.8318 -0.8318 -0.555 589.1866 98.6743)" width="35.999" height="101.813"/>
				</defs>
				<clipPath id="SVGID_8_">
					<use xlink:href="#SVGID_7_"  overflow="visible"/>
				</clipPath>
				<g transform="matrix(1 2.980232e-08 -2.980232e-08 1 0 3.051758e-05)" clip-path="url(#SVGID_8_)">
					
						<image overflow="visible" enable-background="new    " width="1000" height="563" xlink:href="athlete/parts/0Z4A9718.png"  transform="matrix(-0.1208 -0.0806 0.0806 -0.1208 309.5664 287.1943)">
					</image>
				</g>
			</g>
		</g>
	</g>
	<g id="right-front-forearm">
		<g>
			<g>
				<defs>
					
						<rect id="SVGID_9_" x="459.001" y="347.328" transform="matrix(-0.7334 0.6798 -0.6798 -0.7334 1125.925 305.3331)" width="88.18" height="52.238"/>
				</defs>
				<clipPath id="SVGID_10_">
					<use xlink:href="#SVGID_9_"  overflow="visible"/>
				</clipPath>
				<g transform="matrix(1 -2.980232e-08 2.980232e-08 1 0 -6.103516e-05)" clip-path="url(#SVGID_10_)">
					
						<image overflow="visible" enable-background="new    " width="1000" height="667" xlink:href="athlete/parts/0Z4A9709.png"  transform="matrix(-0.1331 0.1234 -0.1234 -0.1331 611.6523 353.253)">
					</image>
				</g>
			</g>
		</g>
	</g>
	<g id="left-back-shin">
		<g>
			<g>
				<defs>
					
						<rect id="SVGID_11_" x="32.762" y="546.314" transform="matrix(-0.6858 0.7278 -0.7278 -0.6858 599.5182 882.8624)" width="152.843" height="49.06"/>
				</defs>
				<clipPath id="SVGID_12_">
					<use xlink:href="#SVGID_11_"  overflow="visible"/>
				</clipPath>
				<g transform="matrix(1 0 0 1 1.525879e-05 6.103516e-05)" clip-path="url(#SVGID_12_)">
					
						<image overflow="visible" enable-background="new    " width="1000" height="667" xlink:href="athlete/parts/0Z4A9689.png"  transform="matrix(0.3943 -0.4184 0.4184 0.3943 -251.8985 645.037)">
					</image>
				</g>
			</g>
		</g>
	</g>
	<g id="right-back-shin">
		<g>
			<g>
				<defs>
					
						<rect id="SVGID_13_" x="193.548" y="479.761" transform="matrix(-0.8212 0.5707 -0.5707 -0.8212 815.8498 790.4908)" width="181.046" height="86.622"/>
				</defs>
				<clipPath id="SVGID_14_">
					<use xlink:href="#SVGID_13_"  overflow="visible"/>
				</clipPath>
				<g transform="matrix(1 0 0 1 0 -6.103516e-05)" clip-path="url(#SVGID_14_)">
					
						<image overflow="visible" enable-background="new    " width="1000" height="667" xlink:href="athlete/parts/0Z4A9984.png"  transform="matrix(0.1686 -0.1171 0.1171 0.1686 162.6914 525.4913)">
					</image>
				</g>
			</g>
		</g>
	</g>
	<g id="left-back-bicep">
		<g>
			<g>
				<defs>
					
						<rect id="SVGID_15_" x="230.057" y="107.867" transform="matrix(-0.713 0.7011 -0.7011 -0.713 607.3746 148.1706)" width="86.616" height="181.032"/>
				</defs>
				<clipPath id="SVGID_16_">
					<use xlink:href="#SVGID_15_"  overflow="visible"/>
				</clipPath>
				<g transform="matrix(1 2.980232e-08 -2.980232e-08 1 -6.103516e-05 3.814697e-06)" clip-path="url(#SVGID_16_)">
					
						<image overflow="visible" enable-background="new    " width="1000" height="667" xlink:href="athlete/parts/0Z4A9984.png"  transform="matrix(0.1439 0.1464 -0.1464 0.1439 250.439 79.1885)">
					</image>
				</g>
			</g>
		</g>
	</g>
	<g id="right-back-bicep">
		<g>
			<g>
				<defs>
					
						<rect id="SVGID_17_" x="398.16" y="263.131" transform="matrix(-0.7834 0.6216 -0.6216 -0.7834 966.4036 366.9584)" width="42.185" height="177.524"/>
				</defs>
				<clipPath id="SVGID_18_">
					<use xlink:href="#SVGID_17_"  overflow="visible"/>
				</clipPath>
				<g transform="matrix(1 -2.980232e-08 2.980232e-08 1 0 -1.525879e-05)" clip-path="url(#SVGID_18_)">
					
						<image overflow="visible" enable-background="new    " width="1000" height="667" xlink:href="athlete/parts/0Z4A9720.png"  transform="matrix(0.124 0.1563 -0.1563 0.124 410.3574 234.1523)">
					</image>
				</g>
			</g>
		</g>
	</g>
	<g id="left-shoulder">
		<g>
			<g>
				<defs>
					
						<rect id="SVGID_19_" x="288.172" y="204.241" transform="matrix(-0.8392 0.5439 -0.5439 -0.8392 726.9117 278.1777)" width="68.305" height="84.659"/>
				</defs>
				<clipPath id="SVGID_20_">
					<use xlink:href="#SVGID_19_"  overflow="visible"/>
				</clipPath>
				<g transform="matrix(1 2.980232e-08 -2.980232e-08 1 0 7.629395e-06)" clip-path="url(#SVGID_20_)">
					
						<image overflow="visible" enable-background="new    " width="1000" height="667" xlink:href="athlete/parts/0Z4A9714.png"  transform="matrix(0.0819 0.1263 -0.1263 0.0819 325.1836 155.7222)">
					</image>
				</g>
			</g>
		</g>
	</g>
	<g id="middle-neck">
		<g>
			<g>
				<defs>
					
						<rect id="SVGID_21_" x="303.806" y="261.128" transform="matrix(-0.8406 0.5417 -0.5417 -0.8406 802.3374 345.5305)" width="93.035" height="59.404"/>
				</defs>
				<clipPath id="SVGID_22_">
					<use xlink:href="#SVGID_21_"  overflow="visible"/>
				</clipPath>
				<g transform="matrix(1 2.980232e-08 -2.980232e-08 1 -6.103516e-05 0)" clip-path="url(#SVGID_22_)">
					
						<image overflow="visible" enable-background="new    " width="1000" height="1000" xlink:href="athlete/parts/0Z4A9651.png"  transform="matrix(0.0811 0.1258 -0.1258 0.0811 365.3028 191.9766)">
					</image>
				</g>
			</g>
		</g>
	</g>
	<g id="right-back-thigh">
		<g>
			<g>
				<defs>
					
						<rect id="SVGID_23_" x="240.904" y="342.671" transform="matrix(-0.5835 0.8121 -0.8121 -0.5835 771.468 472.6342)" width="47.267" height="182.945"/>
				</defs>
				<clipPath id="SVGID_24_">
					<use xlink:href="#SVGID_23_"  overflow="visible"/>
				</clipPath>
				<g clip-path="url(#SVGID_24_)">
					
						<image overflow="visible" enable-background="new    " width="1000" height="667" xlink:href="athlete/parts/0Z4A9724.png"  transform="matrix(0.158 0.1135 -0.1135 0.158 226.8525 317.0381)">
					</image>
				</g>
			</g>
		</g>
	</g>
	<g id="right-foot">
		<g>
			<g>
				<defs>
					
						<rect id="SVGID_25_" x="188.271" y="505.654" transform="matrix(-0.9644 0.2645 -0.2645 -0.9644 642.6809 995.5028)" width="132.098" height="70.73"/>
				</defs>
				<clipPath id="SVGID_26_">
					<use xlink:href="#SVGID_25_"  overflow="visible"/>
				</clipPath>
				<g transform="matrix(1 0 0 1 0 0)" clip-path="url(#SVGID_26_)">
					
						<image overflow="visible" enable-background="new    " width="1000" height="1000" xlink:href="athlete/parts/0Z4A9646.png"  transform="matrix(0.0438 0.1597 0.1597 -0.0438 154.4956 471.2178)">
					</image>
				</g>
			</g>
		</g>
	</g>
	<g id="left-top-torso" class="rotate">
		<g>
			<g>
				<defs>
					<rect id="SVGID_27_" x="246.742" y="268.382" width="108.635" height="105.053"/>
				</defs>
				<clipPath id="SVGID_28_">
					<use xlink:href="#SVGID_27_"  overflow="visible"/>
				</clipPath>
				<g clip-path="url(#SVGID_28_)">
					
						<image overflow="visible" enable-background="new    " width="1000" height="667" xlink:href="athlete/parts/0Z4A9670.png"  transform="matrix(0.2539 0 0 0.2539 169.9072 241.0205)">
					</image>
				</g>
			</g>
		</g>
	</g>
	<g id="left-foot">
		<g>
			<g>
				<defs>
					<rect id="SVGID_29_" x="31.204" y="602.726" width="44.957" height="43.454"/>
				</defs>
				<clipPath id="SVGID_30_">
					<use xlink:href="#SVGID_29_"  overflow="visible"/>
				</clipPath>
				<g clip-path="url(#SVGID_30_)">
					
						<image overflow="visible" enable-background="new    " width="1000" height="667" xlink:href="athlete/parts/0Z4A9670.png"  transform="matrix(0.1051 0 0 0.1051 -0.5352 591.4316)">
					</image>
				</g>
			</g>
		</g>
	</g>
	<g id="right-ab">
		<g>
			<g>
				<defs>
					
						<rect id="SVGID_31_" x="242.929" y="326.98" transform="matrix(-0.9058 0.4238 -0.4238 -0.9058 790.0155 527.1147)" width="186.942" height="48.831"/>
				</defs>
				<clipPath id="SVGID_32_">
					<use xlink:href="#SVGID_31_"  overflow="visible"/>
				</clipPath>
				<g clip-path="url(#SVGID_32_)">
					
						<image overflow="visible" enable-background="new    " width="1000" height="667" xlink:href="athlete/parts/0Z4A5287.png"  transform="matrix(0.1822 -0.0852 0.0852 0.1822 221.7705 330.9141)">
					</image>
				</g>
			</g>
		</g>
	</g>
	<g id="left-inner-forearm">
		<g>
			<g>
				<defs>
					
						<rect id="SVGID_33_" x="140.099" y="215.046" transform="matrix(-0.2762 0.9611 -0.9611 -0.2762 483.9118 105.5328)" width="124.238" height="39.871"/>
				</defs>
				<clipPath id="SVGID_34_">
					<use xlink:href="#SVGID_33_"  overflow="visible"/>
				</clipPath>
				<g transform="matrix(1 2.980232e-08 -2.980232e-08 1 0 -1.525879e-05)" clip-path="url(#SVGID_34_)">
					
						<image overflow="visible" enable-background="new    " width="1000" height="667" xlink:href="athlete/parts/0Z4A9689.png"  transform="matrix(-0.129 0.4491 0.4491 0.129 104.3555 -48.1445)">
					</image>
				</g>
			</g>
		</g>
	</g>
	<g id="right-elbow">
		<g>
			<g>
				<defs>
					
						<rect id="SVGID_35_" x="435.771" y="359.458" transform="matrix(-0.9867 0.1628 -0.1628 -0.9867 997.8427 705.6246)" width="68.478" height="68.477"/>
				</defs>
				<clipPath id="SVGID_36_">
					<use xlink:href="#SVGID_35_"  overflow="visible"/>
				</clipPath>
				<g clip-path="url(#SVGID_36_)">
					
						<image overflow="visible" enable-background="new    " width="1000" height="667" xlink:href="athlete/parts/0Z4A9979.png"  transform="matrix(0.0336 0.2039 -0.2039 0.0336 523.0547 281.9873)">
					</image>
				</g>
			</g>
		</g>
	</g>
	<g id="head">
		<g>
			<g>
				<defs>
					
						<rect id="SVGID_37_" x="376.196" y="157.885" transform="matrix(-0.8667 0.4989 -0.4989 -0.8667 927.7274 198.3102)" width="122.335" height="130.483"/>
				</defs>
				<clipPath id="SVGID_38_">
					<use xlink:href="#SVGID_37_"  overflow="visible"/>
				</clipPath>
				<g transform="matrix(1 0 0 1 -6.103516e-05 0)" clip-path="url(#SVGID_38_)">
					
						<image overflow="visible" enable-background="new    " width="1000" height="563" xlink:href="athlete/parts/0Z4A9727.png"  transform="matrix(0.2224 -0.128 0.128 0.2224 295.1202 224.4893)">
					</image>
				</g>
			</g>
		</g>
	</g>
	<g id="left-bottom-torso">
		<g>
			<g>
				<defs>
					<rect id="SVGID_39_" x="191.384" y="315.881" width="97.31" height="95.923"/>
				</defs>
				<clipPath id="SVGID_40_">
					<use xlink:href="#SVGID_39_"  overflow="visible"/>
				</clipPath>
				<g transform="matrix(1 0 0 1 -3.051758e-05 0)" clip-path="url(#SVGID_40_)">
					
						<image overflow="visible" enable-background="new    " width="1000" height="667" xlink:href="athlete/parts/0Z4A9672.png"  transform="matrix(0.2291 0 0 0.2291 119.378 290.7646)">
					</image>
				</g>
			</g>
		</g>
	</g>
	<g id="left-heel">
		<g>
			<g>
				<defs>
					
						<rect id="SVGID_41_" x="4.712" y="571.608" transform="matrix(-0.4182 0.9084 -0.9084 -0.4182 632.7822 800.2633)" width="110.778" height="62.353"/>
				</defs>
				<clipPath id="SVGID_42_">
					<use xlink:href="#SVGID_41_"  overflow="visible"/>
				</clipPath>
				<g transform="matrix(1 2.980232e-08 -2.980232e-08 1 -1.907349e-05 0)" clip-path="url(#SVGID_42_)">
					
						<image overflow="visible" enable-background="new    " width="1000" height="563" xlink:href="athlete/parts/0Z4A9683.png"  transform="matrix(0.1883 -0.409 0.409 0.1883 -157.4375 752.9248)">
					</image>
				</g>
			</g>
		</g>
	</g>
	<g id="left-hip">
		<g>
			<g>
				<defs>
					
						<rect id="SVGID_43_" x="150.405" y="339.87" transform="matrix(-0.9331 0.3596 -0.3596 -0.9331 515.8835 672.8198)" width="89.913" height="89.046"/>
				</defs>
				<clipPath id="SVGID_44_">
					<use xlink:href="#SVGID_43_"  overflow="visible"/>
				</clipPath>
				<g clip-path="url(#SVGID_44_)">
					
						<image overflow="visible" enable-background="new    " width="1000" height="667" xlink:href="athlete/parts/0Z4A4992.png"  transform="matrix(0.0635 0.1647 -0.1647 0.0635 214.6113 276.4937)">
					</image>
				</g>
			</g>
		</g>
	</g>
	<g id="right-tricep">
		<g>
			<g>
				<defs>
					
						<rect id="SVGID_45_" x="391.622" y="296.889" transform="matrix(-0.6335 0.7738 -0.7738 -0.6335 943.456 271.0062)" width="31.841" height="124.127"/>
				</defs>
				<clipPath id="SVGID_46_">
					<use xlink:href="#SVGID_45_"  overflow="visible"/>
				</clipPath>
				<g transform="matrix(1 0 0 1 0 -3.051758e-05)" clip-path="url(#SVGID_46_)">
					
						<image overflow="visible" enable-background="new    " width="1000" height="667" xlink:href="athlete/parts/0Z4A5148.png"  transform="matrix(0.1282 0.105 -0.105 0.1282 374.5703 273.4678)">
					</image>
				</g>
			</g>
		</g>
	</g>
	<g id="left-hamstring">
		<g>
			<g>
				<defs>
					
						<rect id="SVGID_47_" x="19.655" y="450.981" transform="matrix(-0.3529 0.9357 -0.9357 -0.3529 613.3279 502.8603)" width="226.236" height="25.08"/>
				</defs>
				<clipPath id="SVGID_48_">
					<use xlink:href="#SVGID_47_"  overflow="visible"/>
				</clipPath>
				<g transform="matrix(1 -2.980232e-08 2.980232e-08 1 0 6.103516e-05)" clip-path="url(#SVGID_48_)">
					
						<image overflow="visible" enable-background="new    " width="1000" height="667" xlink:href="athlete/parts/0Z4A5271.png"  transform="matrix(0.0847 -0.2244 0.2244 0.0847 12.2617 543.6308)">
					</image>
				</g>
			</g>
		</g>
	</g>
	<g id="left-quad">
		<g>
			<g>
				<defs>
					
						<rect id="SVGID_49_" x="105.248" y="457.792" transform="matrix(-0.3756 0.9268 -0.9268 -0.3756 669.2482 491.4426)" width="127.649" height="26.755"/>
				</defs>
				<clipPath id="SVGID_50_">
					<use xlink:href="#SVGID_49_"  overflow="visible"/>
				</clipPath>
				<g clip-path="url(#SVGID_50_)">
					
						<image overflow="visible" enable-background="new    " width="1000" height="667" xlink:href="athlete/parts/0Z4A9721.png"  transform="matrix(0.0546 -0.1348 0.1348 0.0546 103.7886 523.96)">
					</image>
				</g>
			</g>
		</g>
	</g>
	<g id="left-calf">
		<g>
			<g>
				<defs>
					
						<rect id="SVGID_51_" x="40.61" y="534.3" transform="matrix(-0.3988 0.917 -0.917 -0.3988 638.748 724.2156)" width="82.745" height="74.367"/>
				</defs>
				<clipPath id="SVGID_52_">
					<use xlink:href="#SVGID_51_"  overflow="visible"/>
				</clipPath>
				<g id="_x30_Z4A9717.png" clip-path="url(#SVGID_52_)">
					<g id="_x30_Z4A9717.png_1_">
						
							<image overflow="visible" enable-background="new    " width="1000" height="667" id="_x30_Z4A9717" xlink:href="athlete/parts/0Z4A9717.png"  transform="matrix(-0.0641 0.1475 -0.1475 -0.0641 159.8447 524.3936)">
						</image>
					</g>
				</g>
			</g>
		</g>
	</g>
	<g id="right-front-thigh">
		<g>
			<g>
				<defs>
					
						<rect id="SVGID_53_" x="248.849" y="398.795" transform="matrix(-0.5922 0.8058 -0.8058 -0.5922 776.3246 488.5411)" width="31.378" height="83.846"/>
				</defs>
				<clipPath id="SVGID_54_">
					<use xlink:href="#SVGID_53_"  overflow="visible"/>
				</clipPath>
				<g transform="matrix(1 -2.980232e-08 2.980232e-08 1 0 0)" clip-path="url(#SVGID_54_)">
					
						<image overflow="visible" enable-background="new    " width="1000" height="667" xlink:href="athlete/parts/0Z4A9759.png"  transform="matrix(0.186 0.1367 -0.1367 0.186 217.0981 311.748)">
					</image>
				</g>
			</g>
		</g>
	</g>
	<g id="right-front-bicep">
		<g>
			<g>
				<defs>
					
						<rect id="SVGID_55_" x="376.688" y="287.215" transform="matrix(-0.9808 0.1949 -0.1949 -0.9808 885.4448 604.0297)" width="72.634" height="116.723"/>
				</defs>
				<clipPath id="SVGID_56_">
					<use xlink:href="#SVGID_55_"  overflow="visible"/>
				</clipPath>
				<g transform="matrix(1 1.490116e-08 -1.490116e-08 1 0 1.525879e-05)" clip-path="url(#SVGID_56_)">
					
						<image overflow="visible" enable-background="new    " width="1000" height="667" xlink:href="athlete/parts/0Z4A9744.png"  transform="matrix(0.045 0.2264 -0.2264 0.045 466.292 234.6514)">
					</image>
				</g>
			</g>
		</g>
	</g>
	<g id="left-elbow">
		<g>
			<g>
				<defs>
					<rect id="SVGID_57_" x="190.228" y="133.917" width="109.502" height="74.716"/>
				</defs>
				<clipPath id="SVGID_58_">
					<use xlink:href="#SVGID_57_"  overflow="visible"/>
				</clipPath>
				<g clip-path="url(#SVGID_58_)">
					
						<image overflow="visible" enable-background="new    " width="1000" height="667" xlink:href="athlete/parts/0Z4A4960.png"  transform="matrix(0.1623 0 0 0.1623 166.5732 115.8242)">
					</image>
				</g>
			</g>
		</g>
	</g>
	<g id="right-knee">
		<g>
			<g>
				<defs>
					
						<rect id="SVGID_59_" x="277.076" y="458.219" transform="matrix(-0.3269 0.9451 -0.9451 -0.3269 900.6245 349.5812)" width="97.488" height="74.604"/>
				</defs>
				<clipPath id="SVGID_60_">
					<use xlink:href="#SVGID_59_"  overflow="visible"/>
				</clipPath>
				<g transform="matrix(1 0 0 1 0 6.103516e-05)" clip-path="url(#SVGID_60_)">
					
						<image overflow="visible" enable-background="new    " width="1000" height="667" xlink:href="athlete/parts/HVAC Sub Assembly.png"  transform="matrix(-0.0453 0.1311 -0.1311 -0.0453 392.3965 443.2988)">
					</image>
				</g>
			</g>
		</g>
	</g>
	<g id="right-front-collar">
		<g>
			<g>
				<defs>
					<rect id="SVGID_61_" x="372.309" y="287.22" width="34.613" height="33.689"/>
				</defs>
				<clipPath id="SVGID_62_">
					<use xlink:href="#SVGID_61_"  overflow="visible"/>
				</clipPath>
				<g clip-path="url(#SVGID_62_)">
					
						<image overflow="visible" enable-background="new    " width="1000" height="667" xlink:href="athlete/parts/0Z4A9954.png"  transform="matrix(0.0799 0 0 0.0799 354.5391 276.8438)">
					</image>
				</g>
			</g>
		</g>
	</g>
	<g id="left-knee_1_">
		<g>
			<g>
				<defs>
					<rect id="SVGID_63_" x="90.896" y="479.182" width="75.698" height="79.743"/>
				</defs>
				<clipPath id="SVGID_64_">
					<use xlink:href="#SVGID_63_"  overflow="visible"/>
				</clipPath>
				<g transform="matrix(1 0 0 1 0 0)" clip-path="url(#SVGID_64_)">
					
						<image overflow="visible" enable-background="new    " width="1000" height="667" id="left-knee" xlink:href="athlete/parts/Alternator Cover.png"  transform="matrix(0.1814 0 0 0.1814 42.0171 456.9844)">
					</image>
				</g>
			</g>
		</g>
	</g>
</g>
</svg>
