<?xml version="1.0" encoding="utf-8"?>
<!-- Generator: Adobe Illustrator 20.1.0, SVG Export Plug-In . SVG Version: 6.00 Build 0)  -->
<svg version="1.1" id="Layer_1" xmlns="http://www.w3.org/2000/svg" xmlns:xlink="http://www.w3.org/1999/xlink" x="0px" y="0px"
	 viewBox="0 0 149 59.5" enable-background="new 0 0 149 59.5" xml:space="preserve">
<g>
	<g>
		<path fill="#0581FF" d="M26.9,59.2h-2.7l2-9l-5.5,9h-1.2l-1.5-9l-2,9h-2.6l2.7-12.4h3.6l1.3,7.8l4.7-7.8h3.8L26.9,59.2z"/>
		<path fill="#0581FF" d="M36.1,59.4c-1.8,0-3.2-0.5-4.4-1.5c-1.2-1-1.7-2.4-1.7-4c0-2,0.7-3.8,2.1-5.2s3.1-2.1,5.1-2.1
			c1.8,0,3.2,0.5,4.4,1.5c1.2,1,1.7,2.4,1.7,4c0,2-0.7,3.8-2.1,5.2C39.9,58.7,38.2,59.4,36.1,59.4z M36.3,57c1.2,0,2.2-0.5,3.1-1.4
			c0.8-0.9,1.2-2.1,1.2-3.4c0-1-0.3-1.9-1-2.5c-0.7-0.6-1.5-0.9-2.5-0.9c-1.2,0-2.2,0.5-3,1.4c-0.8,0.9-1.2,2.1-1.2,3.4
			c0,1,0.3,1.9,1,2.5C34.4,56.7,35.2,57,36.3,57z"/>
		<path fill="#0581FF" d="M54.8,59.2h-2.6l-4.1-8.2l-1.8,8.2h-2.6l2.7-12.4h2.7l4,7.9l1.8-7.9h2.6L54.8,59.2z"/>
		<path fill="#0581FF" d="M62.8,59.2h-2.7l2.2-10.1h-3.6l0.5-2.3h9.9l-0.5,2.3H65L62.8,59.2z"/>
		<path fill="#0581FF" d="M70.8,59.2h-2.6l2.7-12.4h2.6L70.8,59.2z"/>
		<path fill="#0581FF" d="M79.9,59.4c-1.8,0-3.2-0.5-4.4-1.5c-1.2-1-1.7-2.4-1.7-4c0-2.1,0.7-3.9,2.1-5.2c1.4-1.4,3.1-2,5.1-2
			c1.4,0,2.6,0.3,3.5,1c0.9,0.7,1.6,1.5,2,2.5L84,50.9c-0.2-0.6-0.6-1.1-1.2-1.5c-0.6-0.4-1.2-0.5-1.9-0.5c-1.2,0-2.2,0.5-3.1,1.4
			c-0.8,0.9-1.3,2-1.3,3.4c0,1,0.3,1.8,1,2.4c0.6,0.6,1.5,1,2.5,1c0.5,0,1.1-0.1,1.6-0.4c0.5-0.3,1-0.6,1.3-1L85,57
			c-0.7,0.8-1.4,1.5-2.4,1.8C81.8,59.2,80.8,59.4,79.9,59.4z"/>
		<path fill="#0581FF" d="M94.8,59.2H86l2.7-12.4h8.8L97,49.1h-6.1l-0.6,2.6h6L95.8,54h-6l-0.6,2.8h6.1L94.8,59.2z"/>
		<path fill="#0581FF" d="M104.7,59.2h-7.9l2.7-12.4h2.7l-2.2,10.1h5.3L104.7,59.2z"/>
		<path fill="#0581FF" d="M114.3,59.2h-7.9l2.7-12.4h2.7l-2.2,10.1h5.3L114.3,59.2z"/>
		<path fill="#0581FF" d="M122.3,59.4c-1.8,0-3.2-0.5-4.4-1.5c-1.2-1-1.7-2.4-1.7-4c0-2,0.7-3.8,2.1-5.2s3.1-2.1,5.1-2.1
			c1.8,0,3.2,0.5,4.4,1.5c1.2,1,1.7,2.4,1.7,4c0,2-0.7,3.8-2.1,5.2C126,58.7,124.3,59.4,122.3,59.4z M122.4,57
			c1.2,0,2.2-0.5,3.1-1.4c0.8-0.9,1.2-2.1,1.2-3.4c0-1-0.3-1.9-1-2.5c-0.7-0.6-1.5-0.9-2.5-0.9c-1.2,0-2.2,0.5-3,1.4
			c-0.8,0.9-1.2,2.1-1.2,3.4c0,1,0.3,1.9,1,2.5C120.6,56.7,121.4,57,122.4,57z"/>
	</g>
	<g>
		<g>
			<path fill="#0581FF" d="M1.4,38.2l16-0.1l1.2-6.8l-3.3,0l2.1-5.1l8.7,0l0.6,5l-4.2,0l-1.1,6.8l15.6-0.1l1.3-6.8l-2.6,0l-3-21.3
				l3.6,0l1.1-6.8l-24,0.1L12.3,10l3.5,0L6.1,31.4l-3.5,0L1.4,38.2z M19.8,20.3l4.5-10.9l1.2,10.9L19.8,20.3z M55.1,38l9.9,0l1.2-7
				l-2.6,0l4.6-28l-11.3,0l-1.2,6.8l2.8,0l-1.1,6.7c-1.3-1.5-3.3-2.2-5.8-2.2c-7.1,0-12.3,5.5-12.3,13.8c0,6.3,3.8,10.4,9.1,10.4
				c2.7,0,4.7-0.8,7-2.7L55.1,38z M52.7,21.4c2.3,0,3.7,1.6,3.8,4.1c0,3.1-1.8,5.4-4.4,5.4c-2.5,0-4-1.6-4-4.3
				C48,23.5,49.8,21.4,52.7,21.4L52.7,21.4z M65.5,38l11,0l1.8-10.3l0.4,0l4,4.8l-2.5,0l-0.8,5.4l12.4,0l1.1-7l-2.2,0l-4.3-5.1
				l5.2-4.2l2.5,0l1.1-6.8l-12,0l-0.9,5.6l2.3,0l-6.2,5L82.4,3L70.8,3l-1.1,6.8l3,0L68.9,31l-2.2,0L65.5,38z M111.5,29.8
				c-1.4,1.2-2.6,1.9-4.2,1.9c-2.6,0-4.2-1.5-4.2-4l15.9-0.1c0-0.8,0.1-1.4,0.1-2c0-7.3-4.4-11.6-11.4-11.6
				c-8.1,0-13.4,5.5-13.4,12.7c0,7.2,4.8,11.4,12.2,11.4c4.3,0,8.1-1.6,10.9-4.6L111.5,29.8z M103.3,24.2c0.6-2.5,2-3.9,4.2-3.9
				c2.1,0,3.5,1.3,3.6,3.4c0,0.1,0,0.3,0,0.5L103.3,24.2z M125.9,37.7l9,0l9.5-16.1l1.8,0l1.2-7l-12.4,0l-1.2,7l2.2,0l-4.4,8.5
				l-2.1-8.5l1.7,0l1.2-7l-12,0l-1.2,7l2.6,0L125.9,37.7z"/>
			<path fill="#0581FF" d="M144.8,8.9c0,0.8,0.6,1.4,1.4,1.4c0.8,0,1.4-0.6,1.4-1.4c0-0.8-0.6-1.4-1.5-1.4
				C145.4,7.5,144.8,8.1,144.8,8.9"/>
			<path fill="#0581FF" d="M141.8,6.4l2.2,0l0.5-2.9l-1.9,0L142.4,4c-0.6-0.5-1.2-0.7-2-0.7c-2,0-3.4,1.6-3.4,3.6
				c0,2.1,1.4,3.4,3.5,3.4c1.3,0,2.5-0.5,3.4-1.5L142,7.3c-0.3,0.5-0.8,0.7-1.2,0.7c-0.7,0-1.2-0.5-1.2-1.2c0-0.8,0.5-1.3,1.2-1.3
				C141.3,5.5,141.7,5.8,141.8,6.4"/>
			<path fill="#0581FF" d="M132.4,8.4l-0.7,0l0.3-1.9c0.1-0.7,0.5-1.1,1-1.1c0.4,0,0.6,0.1,0.6,0.4c0,0.1,0,0.2,0,0.2l-0.7,4.3
				l3.4,0l0.3-1.9l-0.8,0l0.4-2.3c0.1-0.6,0.2-1,0.2-1.2c0-0.9-0.6-1.4-1.6-1.4c-0.9,0-1.8,0.4-2.6,1.2l0.2-1.1l-3.1,0l-0.3,2.1
				l0.8,0l-0.5,2.7l-0.8,0l-0.3,1.9l4.1,0L132.4,8.4z"/>
			<polygon fill="#0581FF" points="127.4,8.4 126.4,8.4 127.5,2.2 128.5,2.2 128.8,0.1 124.2,0.1 123.8,2.2 124.8,2.2 123.8,8.4 
				122.7,8.4 122.4,10.4 127,10.4 			"/>
			<polygon fill-rule="evenodd" clip-rule="evenodd" fill="#0581FF" points="85.8,3 120.2,2.8 119,10.4 84.5,10.5 			"/>
		</g>
	</g>
</g>
<g>
	<g>
		<g opacity="0.7">
			<defs>
				<path id="SVGID_74_" opacity="0.7" d="M469.6,154.5c-14.9,0-28-2.3-39.5-6.9c-11.5-4.6-20.6-10.8-27.4-18.5l21.1-28.4
					c5.7,5.5,12.6,9.7,20.7,12.6c8.2,2.9,16,4.4,23.4,4.4c8.7,0,15.4-1.5,20.1-4.4c4.7-2.9,7-6.7,7-11.4c0-4.8-2.1-8.4-6.4-10.5
					c-4.3-2.2-11.8-3.3-22.4-3.3c-11.3,0-17.8,0.2-21.8,0.5V51.5c3,0.2,9.4,0.2,21.8,0.2c17.5,0,26.2-4.2,26.2-12.6
					c0-4.8-2.5-8.5-7.5-11c-5-2.5-11.6-3.8-19.6-3.8c-15.2,0-28.6,5.2-40.2,15.5l-20.1-26.2c15.8-17.5,37.4-26.2,64.7-26.2
					c20.4,0,36.2,4,47.4,12c11.2,8,16.8,18.8,16.8,32.4c0,9.2-3.4,17.2-10.3,23.9c-6.9,6.7-15.2,10.9-25.1,12.5
					c9.7,1,18.5,4.9,26.3,11.8c7.8,6.9,11.8,15.7,11.8,26.5c0,14.2-6.1,25.8-18.4,34.7C505.8,150,489.7,154.5,469.6,154.5z"/>
			</defs>
			<clipPath id="SVGID_2_">
				<use xlink:href="#SVGID_74_"  overflow="visible"/>
			</clipPath>
		</g>
	</g>
</g>
</svg>
