<?xml version="1.0" encoding="utf-8"?>
<!-- Generator: Adobe Illustrator 20.1.0, SVG Export Plug-In . SVG Version: 6.00 Build 0)  -->
<svg version="1.1" id="Layer_1" xmlns="http://www.w3.org/2000/svg" xmlns:xlink="http://www.w3.org/1999/xlink" x="0px" y="0px"
	 viewBox="0 0 116.5 53" enable-background="new 0 0 116.5 53" xml:space="preserve">
<g id="ZSzh24_2_">
	<g>
		<path fill="#859894" d="M12.5,45C9,45,5.5,45,2,45c0.1-0.7,0.2-1.4,0.3-2.2c0.5-3.1,0.9-6.3,1.4-9.4c0.4-2.7,0.8-5.5,1.2-8.2
			c0.1-0.6,0-1.1,0-1.7c-0.1-1.4-0.2-2.8-0.2-4.3c0.4-0.1,0.8,0,1.1-0.1c0.5-3.8,1.1-7.6,1.6-11.4c0,0,0,0,0.1,0c0,4.1,0,8.2,0,12.3
			c0.1,0.1,0.3,0.1,0.4,0c0.1-0.3,0-0.6,0-0.9c0.4,0,0.8,0,1.3,0c-0.2,3.2-0.3,6.4-0.5,9.6c0.6,0,1.1,0,1.7,0c0,0.3,0.1,0.5,0.1,0.8
			c-1,0-2,0-3,0c0,0.3,0,0.6,0,1c1,0,2.1,0,3.1,0c0.1,0.3,0.1,0.5,0.1,0.8c-1.1,0-2.1,0-3.2,0c0,0.3,0,0.6,0,1c1.1,0,2.2,0,3.3,0
			c0.1,0.3,0.1,0.5,0.1,0.8c-1.1,0-2.3,0-3.4,0c-0.1,0.3,0,0.6,0,1c1.2,0,2.4,0,3.6,0c0.1,0.3,0.1,0.5,0.2,0.8c-1.2,0-2.5,0-3.7,0
			c-0.1,0.3,0,0.6,0,1c1.3,0,2.6,0,3.8,0c0,0.3,0.1,0.5,0.1,0.8c-1.3,0-2.6,0-3.9,0c0,0.3,0,0.6,0,1c1.3,0,2.7,0,4,0
			c0,0.3,0.1,0.5,0.1,0.8c-1.4,0-2.8,0-4.2,0c-0.1,0.3,0,0.6,0,0.9c0.1,0.1,0.3,0.1,0.4,0.1c1.2,0,2.3,0,3.5,0
			c0.4,0,0.5,0.1,0.5,0.5c0,0.1,0,0.2,0,0.3c-1.5,0-2.9,0-4.4,0c0,0.3,0,0.6,0,1c1.5,0,3,0,4.6,0c0,0.3,0.1,0.5,0.1,0.8
			c-1.6,0-3.1,0-4.7,0c0,0.3,0,0.6,0,1c1.6,0,3.2,0,4.8,0c0,0.3,0.1,0.5,0.1,0.7c-1.6,0-3.3,0-4.9,0c0,0.3,0,0.6,0,0.9
			c0.1,0.1,0.3,0,0.4,0c1.4,0,2.8,0,4.2,0c0.4,0,0.6,0.1,0.5,0.5C12.5,44.8,12.5,44.9,12.5,45z M7.4,27.9c0,0.3,0,0.6,0,0.9
			c0.3,0,0.6,0,0.9,0c0-0.3,0-0.6-0.1-0.9C8,27.9,7.7,27.9,7.4,27.9z M7.4,26.1c0,0.3,0,0.6,0,0.9c0.3,0,0.5,0,0.8,0
			c0-0.3,0-0.6-0.1-0.9C7.9,26.1,7.6,26.1,7.4,26.1z M7.4,25.3c0.2,0.1,0.5,0.1,0.7,0c0-0.3,0-0.7-0.1-1c-0.2,0-0.4,0-0.7,0
			C7.4,24.7,7.4,25,7.4,25.3z M7.4,22.7c0,0.3,0,0.6,0,0.9c0.2,0,0.4,0.1,0.6,0C8,23.3,8,23,8,22.7C7.8,22.7,7.6,22.7,7.4,22.7z
			 M7.9,21.9c0-0.3,0-0.6,0-0.9c-0.2,0-0.3,0-0.5,0c0,0.3,0,0.6,0,0.9C7.6,21.9,7.7,21.9,7.9,21.9z"/>
		<path fill="#859894" d="M39.2,36.4c-0.1-0.3,0-0.4,0.3-0.3c0.5,0,1.1,0,1.6,0c0.2,0,0.3,0,0.4,0.1c1.3,1.7,2.8,3.2,4.2,4.7
			c0.6,0.7,1.2,1.3,1.8,2c0.1-0.1,0.1-0.2,0.1-0.3c0-1.6,0-3.2,0-4.9c0-0.2,0-0.3,0-0.5c-0.1-0.6-0.3-0.8-0.9-0.9
			c-0.2,0-0.4-0.1-0.6-0.1c-0.1-0.1,0-0.2,0-0.3c0.5,0,1,0,1.6,0c0.5,0,0.9,0,1.4,0c0.2,0,0.4,0.1,0.3,0.3c0,0,0,0-0.1,0
			c-0.9,0-1.1,0.3-1.1,1.3c0,1.4,0,2.8,0,4.3c0,1.1,0,2.1,0,3.1c-0.3,0.1-0.4,0-0.5-0.2c-2-2.2-4-4.5-6.1-6.7
			c-0.1-0.1-0.2-0.2-0.3-0.3c-0.1,0.1-0.1,0.3-0.1,0.4c0,1.5,0,3.1,0,4.6c0,0.3,0,0.6,0.1,0.9c0.1,0.6,0.3,0.8,0.9,0.9
			c0.2,0,0.3,0,0.5,0.1c0.1,0.1,0.1,0.2,0,0.3c-2.2,0-4.4,0-6.6,0c-0.1-0.1-0.1-0.2,0-0.3c1-0.1,1-0.2,0.7-1.2
			c-0.2-0.5-0.4-1.1-0.5-1.6c-0.1-0.2-0.2-0.3-0.4-0.3c-0.8,0-1.6,0-2.4,0c-0.2,0-0.3,0-0.3,0.2c-0.2,0.6-0.4,1.3-0.5,1.9
			c-0.1,0.7,0,0.8,0.7,0.9c0.1,0,0.3,0,0.4,0c0.1,0.1,0.1,0.2,0,0.3c-0.7,0-1.5,0-2.2,0c-0.4,0-0.9,0-1.3,0c-0.2,0-0.4-0.1-0.5-0.2
			c-0.9-1.1-1.7-2.3-2.4-3.5c-0.2-0.4-0.5-0.6-1-0.5c-0.1,0-0.3,0-0.5,0c0,0.5,0,0.9,0,1.4c0,0.5,0,1.1,0,1.6c0,0.6,0.2,0.8,0.8,0.9
			c0.1,0,0.2,0,0.3,0C27,44.9,27,45,26.7,45c-1,0-2-0.1-3,0c-0.2,0-0.2,0-0.2-0.3c0.1-0.1,0.2,0,0.3,0c0.6-0.1,0.8-0.3,0.8-0.9
			c0-2,0-4.1,0-6.1c0-1-0.1-1.1-1.1-1.2c-0.1-0.1-0.1-0.2,0-0.3c0,0,0,0,0.1,0c1.4,0.1,2.9-0.1,4.3,0.1c1.2,0.1,2,0.8,2.2,1.9
			c0.2,1-0.3,1.9-1.3,2.4c-0.1,0.1-0.2,0.1-0.4,0.2c0,0,0,0.1,0,0.1c0.7,1.1,1.4,2.2,2.2,3.3c0.2,0.2,0.4,0.4,0.6,0.5
			c0.2,0.2,0.4,0.1,0.6-0.1c0.2-0.2,0.3-0.5,0.4-0.7c0.7-2.1,1.5-4.2,2.2-6.3c0-0.1,0.1-0.2,0.1-0.3c0-0.5,0.2-0.9,0.6-1.2
			c0.3-0.2,0.3-0.2,0.4,0.1c0.9,2.4,1.7,4.8,2.6,7.2c0.1,0.3,0.2,0.5,0.3,0.7c0.3,0.7,1.4,1,2.1,0.6c0.2-0.2,0.3-0.4,0.4-0.6
			c0-0.2,0.1-0.5,0.1-0.8c0-1.7,0-3.5,0-5.2c0-0.4,0-0.9-0.4-1.2C40.1,36.4,39.6,36.4,39.2,36.4z M25.9,36.5c0,1.3,0,2.5,0,3.8
			c1,0.1,1.9,0.1,2.5-0.8c0.4-0.6,0.4-1.7,0-2.3C27.7,36.4,26.8,36.4,25.9,36.5z M34.7,37.3c-0.4,1.3-0.8,2.5-1.2,3.7
			c0.9,0,1.7,0,2.6,0C35.6,39.8,35.1,38.6,34.7,37.3z"/>
		<path fill="#859894" d="M69.9,43.2c0.5-0.9,0.9-1.8,1.3-2.7c0.7-1.4,1.4-2.8,2-4.2c0.1-0.1,0.1-0.2,0.3-0.2c0.6,0.1,1.3,0,1.9,0
			c0.1,0.1,0.1,0.2,0,0.3c0,0-0.1,0-0.1,0c-0.9,0.1-1,0.2-1,1.1c0,2,0.1,4.1,0.2,6.1c0,0.8,0.2,1,1.3,1.1c0.1,0.1,0.1,0.2,0,0.3
			c-0.5,0.1-1.1,0-1.6,0c-0.7,0-1.3,0-2,0c-0.2,0-0.4,0-0.3-0.3c0.2,0,0.4,0,0.7-0.1c0.3,0,0.5-0.2,0.6-0.6c0.1-0.6,0-1.3,0-1.9
			c0-1.2,0-2.3,0-3.5c0-0.3,0-0.6,0-0.9c0,0-0.1,0-0.1,0c-1.1,2.2-2.2,4.4-3.2,6.7c-0.1,0.1-0.1,0.3-0.2,0.4c0,0.1,0,0.2-0.2,0.2
			c-0.2,0-0.2-0.1-0.2-0.2c-0.3-0.7-0.7-1.5-1-2.2c-0.7-1.5-1.5-3-2.2-4.6c0-0.1,0-0.1-0.2-0.2c0,0.5,0,1,0,1.4
			c0,1.3-0.1,2.6-0.1,3.8c0,0.1,0,0.2,0,0.3c0,0.8,0.2,1,1,1.1c0.1,0,0.1,0,0.2,0c0.1,0.1,0.1,0.2,0,0.3c-2.1,0-4.2,0-6.4,0
			c-0.1-0.1-0.1-0.2,0-0.3c0.9-0.1,1-0.2,0.7-1.1c-0.2-0.6-0.4-1.1-0.6-1.7c-0.1-0.2-0.2-0.3-0.4-0.3c-0.8,0-1.6,0-2.4,0
			c-0.2,0-0.3,0-0.3,0.2c-0.2,0.6-0.4,1.2-0.5,1.8c-0.2,0.8,0,1,0.8,1c0.1,0,0.2,0,0.3,0c0.1,0.1,0,0.2,0,0.3c-1,0-2-0.1-3,0
			c-0.1-0.1-0.1-0.2,0-0.3c0,0,0.1,0,0.1,0c0.6,0,0.9-0.4,1.1-0.9c0.4-1.2,0.9-2.5,1.3-3.7c0.3-0.8,0.6-1.7,0.9-2.5
			c0.1-0.2,0.2-0.4,0.2-0.6c-0.1-0.6,0.4-0.8,0.7-1.1c0.2-0.2,0.3,0,0.3,0.2c0.3,0.9,0.6,1.8,0.9,2.6c0.6,1.7,1.2,3.5,1.8,5.2
			c0.2,0.7,0.5,1,1.6,0.9c0.5-0.1,0.8-0.4,0.9-1c0.2-0.8,0.1-1.5,0.2-2.3c0-1.2,0.1-2.5,0.1-3.7c0-1-0.1-1.1-1.1-1.3
			c-0.1-0.1,0-0.2,0-0.3c0,0,0.1,0,0.1,0c0.6,0,1.3,0,1.9,0c0.2,0,0.3,0.2,0.3,0.3c0.9,1.9,1.8,3.7,2.6,5.6
			C69.5,42.3,69.7,42.7,69.9,43.2z M59.2,37.5C59.2,37.5,59.1,37.5,59.2,37.5c-0.5,1.2-0.9,2.4-1.3,3.6c0.9,0,1.7,0,2.6,0
			C60.1,39.8,59.6,38.6,59.2,37.5z"/>
		<path fill="#859894" d="M89.1,40.5c0.8,1.2,1.5,2.4,2.4,3.4c0.5,0.5,1.1,0.8,1.8,0.6c0.3-0.1,0.5-0.2,0.6-0.6c0-0.2,0-0.3,0-0.5
			c0-2,0-3.9,0-5.9c0-1.1-0.1-1.1-1.1-1.3c-0.1-0.1,0-0.2,0-0.3c1.2,0,2.3,0,3.5,0c0.1,0.1,0.1,0.2,0,0.3c0,0,0,0,0,0
			c-0.9,0-1.1,0.2-1.1,1.2c0,1.9,0,3.9,0,5.8c0,1.1,0.1,1.1,1.1,1.3c0.1,0,0.1,0.1,0.1,0.2c0,0,0,0.1,0,0.2c-0.4,0.1-0.8,0-1.1,0
			c-1.4,0-2.8,0-4.2,0c-0.2,0-0.3-0.1-0.4-0.2c-0.7-0.9-1.4-1.8-2-2.8c-0.2-0.3-0.4-0.7-0.6-1c-0.1-0.2-0.2-0.3-0.5-0.3
			c-0.3,0-0.5,0-0.8,0c-0.1,0.1-0.1,0.3-0.1,0.4c0,0.8,0,1.6,0,2.4c0,0.8,0.1,0.9,0.9,1c0.1,0,0.1,0,0.2,0c0.1,0.2,0.1,0.3-0.2,0.3
			c-1.1,0-2.2-0.1-3.2,0c-0.1-0.1-0.1-0.2-0.1-0.3c0,0,0.1,0,0.1,0c0.7,0,1-0.3,1-1c0-2,0-4,0-6.1c0-1-0.1-1.1-1.1-1.2
			c-0.1-0.1,0-0.2,0-0.3c0.3-0.1,0.6,0,0.9,0c1.1,0,2.3-0.1,3.4,0c1.1,0.1,1.9,0.7,2.1,1.6c0.3,1.1-0.2,2.1-1.2,2.6
			C89.4,40.4,89.3,40.4,89.1,40.5z M86.7,40.3c1.2,0.2,2.1-0.1,2.5-0.9c0.4-0.7,0.3-1.7-0.1-2.3c-0.5-0.6-1.6-0.8-2.4-0.5
			C86.7,37.8,86.7,39,86.7,40.3z"/>
		<path fill="#859894" d="M22,44.5c0,0.2,0,0.3,0,0.5c-1.5,0-3.1-0.1-4.6,0c-0.1-0.2-0.1-0.3,0-0.4c0.2-0.1,0.5,0,0.7-0.1
			c0.5-0.1,0.7-0.3,0.8-0.8c0-0.1,0-0.2,0-0.3c0-3.1,0-6.2,0-9.4c0-0.1,0-0.1,0-0.2c-1,0-2.1-0.1-3.1,0.1c-0.4,0.1-0.6,0.3-0.7,0.7
			c-0.1,0.2-0.2,0.5-0.2,0.8c-0.1,0-0.3,0-0.4,0c0.1-0.9,0.1-1.8,0.2-2.7c0.2,0,0.3-0.1,0.4,0.1c0.2,0.3,0.4,0.4,0.7,0.4
			c0.8,0,1.5,0,2.3,0c1.8,0,3.7,0,5.5,0c0.5,0,0.9,0,1.2-0.4c0.1-0.1,0.2,0,0.4,0c-0.1,0.9-0.1,1.8-0.2,2.7c-0.2,0-0.3,0-0.4,0
			c-0.1-0.2-0.1-0.3-0.1-0.5c-0.1-0.7-0.3-1-1-1c-0.4,0-0.7,0-1.1,0c-0.6,0-1.2,0-1.7,0c-0.1,0.1-0.1,0.3-0.1,0.4c0,3,0,6,0,9
			c0,0.1,0,0.2,0,0.3c0,0.8,0.3,1.1,1.1,1.1C21.7,44.5,21.9,44.5,22,44.5z"/>
		<path fill="#859894" d="M79,36.5c0,1.2,0,2.4,0,3.6c0.6,0,1.3,0,1.9,0c0.5,0,0.7-0.3,0.8-0.8c0-0.1,0-0.4,0.3-0.3
			c0,0.6,0,1.2,0,1.8c0,0.3,0,0.5,0,0.8c0,0.1,0,0.3-0.2,0.2c0-0.2-0.1-0.4-0.1-0.6c-0.1-0.3-0.3-0.6-0.6-0.6c-0.7,0-1.4,0-2.1,0
			c0,0.8,0,1.6,0,2.4c0,0.3,0,0.5,0.1,0.8c0.1,0.5,0.3,0.7,0.7,0.7c0.7,0.1,1.3,0.1,2,0c0.8-0.1,1.2-0.6,1.5-1.3
			c0.1-0.2,0.2-0.3,0.4-0.2c-0.2,0.6-0.3,1.3-0.5,2c-0.6,0-1.1,0-1.7,0c-1.5,0-3,0-4.5,0c-0.2,0-0.5,0.1-0.4-0.3
			c1.1-0.2,1.2-0.2,1.2-1.4c0-1.9,0-3.7,0-5.6c0-1.2,0-1.2-1.2-1.3c-0.1-0.1-0.1-0.2,0-0.3c2,0,4.1,0,6.1,0c0,0.6,0,1.3,0,1.9
			c0,0-0.1,0-0.2,0.1c0,0,0,0-0.1-0.1c-0.3-1.1-0.7-1.4-1.8-1.5C80.1,36.4,79.6,36.5,79,36.5z"/>
		<path fill="#859894" d="M113.8,44.6c0.1,0.1,0,0.2,0,0.3c-1.1,0-2.2-0.1-3.2,0c-0.1-0.1-0.1-0.2,0-0.3c1-0.1,1-0.2,0.7-1.2
			c-0.2-0.5-0.4-1.1-0.6-1.6c-0.1-0.2-0.1-0.2-0.3-0.2c-0.8,0-1.6,0-2.5,0c-0.1,0-0.2,0-0.3,0.2c-0.2,0.6-0.4,1.3-0.5,1.9
			c-0.1,0.7,0,0.9,0.7,0.9c0.1,0,0.2,0,0.3,0c0.1,0.1,0,0.2,0,0.3c-1,0-2-0.1-3,0c-0.1-0.2-0.1-0.4,0.2-0.4c0.5,0,0.8-0.4,1-0.8
			c0.4-1.1,0.8-2.3,1.2-3.4c0.3-0.9,0.6-1.8,0.9-2.6c0.1-0.3,0.2-0.5,0.2-0.8c0.2-0.7,0.1-0.7,0.6-1.1c0.3-0.3,0.3-0.3,0.5,0.1
			c0.7,1.9,1.4,3.8,2,5.7c0.2,0.6,0.5,1.2,0.7,1.9C112.7,44.2,113,44.7,113.8,44.6z M109,37.3c-0.4,1.3-0.8,2.5-1.2,3.7
			c0.9,0,1.7,0,2.6,0C109.9,39.8,109.5,38.6,109,37.3z"/>
		<path fill="#859894" d="M105,38.3c-0.2,0.1-0.3,0.1-0.4-0.1c-0.3-1.7-2-2.1-3.3-1.9c-1.5,0.3-2.4,1.2-2.7,2.6
			c-0.4,1.8-0.1,3.4,1.2,4.8c1,1,2.5,1.3,3.5,0.7c0.7-0.4,1-0.8,1.4-1.9c0.2,0,0.3,0,0.3,0.3c-0.1,0.5-0.2,1-0.2,1.5
			c0,0.1-0.1,0.2-0.2,0.2c-1.8,0.8-4.3,1-5.9-0.5c-1.5-1.3-1.9-3-1.4-4.8c0.5-1.9,1.8-2.9,3.7-3.3c1.3-0.3,2.6,0.1,3.9,0.5
			c0.1,0,0.1,0.1,0.1,0.2C105,37.2,105,37.8,105,38.3z"/>
		<path fill="#859894" d="M49.9,42.9c0.3-0.1,0.3,0,0.4,0.2c0.1,0.4,0.3,0.7,0.5,1c0.5,0.6,1.1,0.8,1.8,0.6c0.7-0.2,1.1-0.6,1.2-1.3
			c0.1-0.7-0.1-1.4-0.7-1.8c-0.5-0.4-1-0.6-1.5-0.9c-0.9-0.5-1.5-1.3-1.5-2.4c0-1.3,0.9-2.3,2.2-2.4c0.6-0.1,1.3,0,1.9,0.1
			c0.1,0,0.2,0.1,0.2,0.2c0.1,0.5,0.1,1,0.2,1.4c-0.2,0.1-0.3,0-0.4-0.2c-0.2-0.7-0.7-1.1-1.4-1.2c-0.7,0-1.2,0.2-1.5,0.8
			c-0.3,0.7-0.2,1.5,0.2,2c0.3,0.4,0.8,0.6,1.2,0.8c0.3,0.2,0.6,0.3,0.9,0.5c1.1,0.6,1.5,1.5,1.3,2.6c-0.2,1.1-0.9,1.9-2.1,2.1
			c-0.9,0.2-1.8,0.1-2.6-0.3c-0.1-0.1-0.2-0.1-0.2-0.3C50.1,44,50,43.5,49.9,42.9z"/>
		<path fill="#859894" d="M111.8,37.1c0-0.8,0.6-1.4,1.4-1.4c0.8,0,1.4,0.7,1.4,1.4c0,0.8-0.6,1.4-1.4,1.4
			C112.4,38.5,111.8,37.9,111.8,37.1z M114.3,37.1c0-0.6-0.5-1.2-1.1-1.2c-0.6,0-1.2,0.5-1.2,1.1c0,0.6,0.5,1.2,1.2,1.2
			C113.8,38.3,114.3,37.7,114.3,37.1z"/>
		<path fill="#859894" d="M10,27c0,0.2,0.1,0.5,0.1,0.7c-0.3,0-0.5,0-0.8,0c-0.1-0.2,0-0.5,0-0.7C9.6,27,9.8,27,10,27z"/>
		<path fill="#859894" d="M9.9,26c-0.2,0-0.3,0-0.5,0c0-0.2,0-0.5,0-0.7c0.1-0.1,0.2-0.1,0.4,0C9.8,25.6,9.9,25.8,9.9,26z"/>
		<path fill="#859894" d="M112.7,36.4c0.1,0,0.2,0,0.4,0c0.6,0,0.6,0,0.5,0.6c0,0.2,0.1,0.5,0.1,0.7c-0.1,0.1-0.2,0.1-0.2-0.1
			c0-0.5-0.3-0.5-0.7-0.4c0,0.2,0,0.4,0,0.6c0,0-0.1,0-0.1,0C112.7,37.3,112.7,36.9,112.7,36.4z M112.8,36.6c0,0.2-0.1,0.3,0,0.4
			c0.2,0,0.4,0.1,0.6-0.1c0.1-0.1,0-0.2,0-0.2C113.2,36.5,113,36.6,112.8,36.6z"/>
	</g>
</g>
</svg>
