<?xml version="1.0" encoding="utf-8"?>
<!-- Generator: Adobe Illustrator 20.1.0, SVG Export Plug-In . SVG Version: 6.00 Build 0)  -->
<svg version="1.1" id="Layer_1" xmlns="http://www.w3.org/2000/svg" xmlns:xlink="http://www.w3.org/1999/xlink" x="0px" y="0px"
	 viewBox="0 0 196.3 753.4" enable-background="new 0 0 196.3 753.4" xml:space="preserve">
<g>
	<path d="M194,753.4v-82.3l-35-6.5v17l-26-11v-45l26-2.7v21.5l35,5.7v-80.5l-35-6.7v13.5L49,591.6v-18.5l-35-5.7v123.5l35,6v-18.2
		l110,50.5v18L194,753.4z M102,658.1l-56.2-23.5l56.2-6V658.1z M194,477v-51.2l-36-6.6v13.6l-144-24v58l35,6.2v-14.5l34.3,6
		c-7.7,6.7-11.6,16.7-11.6,30c0,36.5,28.2,63.5,70.9,63.5c32.7,0,53.7-19.5,53.7-46.8c0-13.7-4.3-24-13.8-36.2L194,477z
		 M108.6,488.7c0-12,8.2-19.2,21.2-19.2c15.7,0,27.7,9.2,27.7,23c0,13-8.2,20.7-22,20.7C119.3,513.2,108.6,503.7,108.6,488.7
		L108.6,488.7z M194,423.4v-56.5l-53-9.2v-2l25-20.7v12.7l28,4v-64l-36-6v11.3l-26.2,22.2l-21.8-27v-13l-35-6v61.7l29,5v-12
		l25.4,32.2L14,335.6v59.7l35,6v-15.2l109,19.2v11.5L194,423.4z M153,186.3c6.2,7,9.8,13.5,9.8,21.5c0,13.3-7.9,21.5-20.9,21.5
		v-81.7c-4-0.3-7.1-0.5-10.1-0.5c-37.7,0-60,22.2-60,58.2c0,41.7,28.1,69.3,65.3,69.3c37,0,58.9-24.3,58.9-62.5
		c0-22.2-8.1-41.7-23.5-56.2L153,186.3z M124,228c-13-3-20.2-10.3-20.2-21.7c0-11,6.9-18.2,17.6-18.2c0.7,0,1.6,0.3,2.6,0.3V228z
		 M194,111.9V65.4l-83-49.2V6.7L75,0.2v63.7l36,6.3V58.9l43.7,23L111,92.7v-9l-36-6.3v62l36,6.3v-13.5L194,111.9z"/>
	<path d="M45.7,14.4c4.2,0,7.1-3.3,7.1-7.3c0-4-3-7.1-7.1-7.1c-4.3,0-7.2,3.1-7.2,7.5C38.5,11.1,41.5,14.4,45.7,14.4"/>
	<path d="M33,29.5V18.4l-15-2.6v10l2.5,0.6c-2.5,2.9-3.8,6.3-3.8,10.3c0,10.3,8,17.6,18.4,17.6c10.6,0,17.8-7.2,17.8-17.7
		c0-6.8-2.7-13-7.8-17.5l-7.5,9.8c2.4,1.6,3.6,3.9,3.6,6.4c0,3.4-2.6,6-6.3,6c-4.1,0-6.9-2.5-6.9-6.2c0-2.8,1.5-4.8,4.5-5.9"/>
	<path d="M43,78.3V82l-10-1.6c-3.6-0.7-5.6-2.6-5.6-5.2c0-2,0.6-2.8,2.3-2.8c0.3,0,0.9,0,1.2,0.1L53,76.3V59l-10-1.8v4.2l-12-2
		c-3.1-0.5-5.3-0.9-6.3-0.9c-4.7,0-7.3,2.8-7.3,8.1c0,4.7,2.2,9,6.2,13.2L18,78.8V95l11,1.8v-4.1l14,2.4v4.2l10,1.8V80.2L43,78.3z"
		/>
	<polygon points="43,103.9 43,108.9 11,103.3 11,98.3 0,96.5 0,120.4 11,122.2 11,116.9 43,122.6 43,127.8 53,129.6 53,105.7 	"/>
	<polygon fill-rule="evenodd" clip-rule="evenodd" points="14,318.2 14,140.6 53,147.3 53,324.9 	"/>
</g>
</svg>
