<?xml version="1.0" encoding="utf-8"?>
<!-- Generator: Adobe Illustrator 20.1.0, SVG Export Plug-In . SVG Version: 6.00 Build 0)  -->
<svg version="1.1" id="Layer_1" xmlns="http://www.w3.org/2000/svg" xmlns:xlink="http://www.w3.org/1999/xlink" x="0px" y="0px"
	 viewBox="0 0 116.5 53" enable-background="new 0 0 116.5 53" xml:space="preserve">
<g id="GvPhCA_1_">
	<g>
		<path fill="#859894" d="M15.1,5c0-0.5,0-1,0-1.5c4.2,0,8.3,0,12.5,0c0,0.5,0,1,0,1.5c-0.4,0-0.9,0.1-1.3,0.2
			c-0.4,0.1-0.8,0.2-1.1,0.5C25,6,24.9,6.3,24.8,6.6c-0.1,0.7-0.1,1.4-0.1,2.1c0,4.8,0,9.6,0,14.5c0,1.5,0.2,3.1,0.8,4.5
			c0.5,1.2,1.3,2.2,2.6,2.7c1.3,0.5,2.6,0.5,3.9,0c1.3-0.5,2-1.5,2.5-2.7c0.4-1,0.6-2.1,0.7-3.2c0.1-1.3,0.1-2.6,0.1-4
			c0-4.5,0-9,0-13.5c0-0.9-0.3-1.4-1.2-1.7c-0.7-0.2-1.4-0.3-2.2-0.3c0-0.5,0-1,0-1.5c5.9,0,11.8,0,17.8,0c0.3,0.8,0.6,1.6,0.9,2.3
			c1.6,3.9,3.2,7.7,4.9,11.6c0.1,0.2,0.2,0.5,0.3,0.7c0.2,0.3,0.4,0.3,0.6,0c0.1-0.1,0.2-0.3,0.2-0.4c1.8-4.7,3.6-9.4,5.4-14
			c0.1-0.2,0.1-0.2,0.3-0.2c7.4,0,14.9,0,22.3,0c1.5,0,3.1,0.1,4.5,0.6c2.2,0.8,3.7,2.3,4.1,4.6c0.5,2.7-0.5,4.9-2.7,6.5
			c-0.7,0.5-1.5,0.9-2.3,1.2c0.3,0.5,0.5,1,0.8,1.6c0.9,1.9,1.8,3.8,2.9,5.6c0.7,1.1,1.4,2.1,2.3,3.1c0.6,0.7,1.5,1.2,2.4,1.5
			c0.2,0.1,0.2,0.1,0.2,0.3c0,0.8,0,1.7,0,2.5c-0.3,0-0.6,0-0.9,0c-1.5-0.1-2.9-0.3-4.3-0.8c-1.5-0.6-2.7-1.5-3.6-2.8
			c-1.3-1.8-2.4-3.6-3.4-5.6c-0.5-0.9-0.9-1.7-1.3-2.6c-0.4-0.8-1.1-1.5-2.3-1.3c-0.1,0.1,0,0.2,0,0.2c0,1.5,0,2.9,0,4.4
			c0,1,0,1.9,0.2,2.8c0,0.2,0.1,0.3,0.1,0.5c0.3,0.9,0.8,1.3,1.9,1.5c0.2,0,0.4,0.1,0.7,0.1c0,0.6,0.1,1.1,0.1,1.7
			c-3.7-0.3-7.4-0.2-11.1-0.1c0-0.5,0-1,0-1.5c0-0.1,0.1-0.1,0.1-0.1c0.1,0,0.3,0,0.4-0.1c1-0.2,1.4-0.7,1.6-1.7
			c0.1-0.7,0.1-1.3,0.1-2c0-4.9,0-9.9,0-14.8c0-0.6,0-1.2-0.2-1.8c-0.3-1.1-0.7-1.6-1.9-1.8c-0.9-0.1-1.7-0.1-2.6,0.1
			c-0.8,0.2-1.3,0.7-1.5,1.6c-0.1,0.4-0.1,0.7-0.1,1.1c0,0.1,0,0.1,0,0.2c0,5.4,0,10.9,0,16.3c0,0.4,0,0.8,0.1,1.2
			c0.1,1.1,0.6,1.5,1.7,1.7c0.2,0,0.3,0.1,0.5,0.1c0,0.3,0,0.5,0,0.8c0,0.3,0,0.5,0,0.8c-3.5,0.2-6.9,0.4-10.3,0.7
			c0-0.6,0-1.2,0-1.8c0.3,0,0.6-0.1,0.9-0.1c0.9-0.2,1.3-0.7,1.4-1.6c0-0.2,0-0.5,0-0.7c0-4.8,0-9.7,0-14.5c0-0.2,0-0.4-0.2-0.5
			c-0.3-0.1-0.3,0.2-0.4,0.4c-2.2,5.8-4.5,11.7-6.7,17.5c-0.1,0.1-0.1,0.2-0.3,0.2c-0.5,0.1-1.1,0.1-1.6,0.2c-0.2,0-0.3,0-0.3-0.2
			c-2.1-5.6-4.2-11.2-6.3-16.7c-0.2-0.4-0.3-0.8-0.5-1.2c-0.1-0.1-0.1-0.2-0.3-0.2c-0.2,0-0.2,0.1-0.2,0.3c0,0.1,0,0.1,0,0.2
			c0,2,0,4,0,6.1c0,3.1,0,6.1,0,9.2c0,0.7,0,1.4,0,2.2c0,0.5,0.3,0.8,0.7,0.9c0.4,0.2,0.9,0.2,1.4,0.2c0.1,0,0.1,0,0.2,0
			c0,0.6,0,1.1,0,1.7c-2.7,0.4-5.5,0.7-8.2,1.1c0-0.7,0.1-1.4,0.1-2.1c0.2,0,0.5-0.1,0.7-0.1c0.1,0,0.3-0.1,0.4-0.1
			c0.9-0.3,1.3-0.7,1.3-1.7c0-0.3,0-0.6,0-1c0-3,0-6.1,0-9.1c0-2.1,0-4.2,0-6.3c0-1.4,0-2.8,0-4.2c0-0.4,0-0.8-0.1-1.3
			c-0.1-0.8-0.6-1.2-1.4-1.3c-0.5-0.1-1-0.1-1.5,0.1c-0.7,0.2-1.2,0.8-1.2,1.6c0,0.1,0,0.2,0,0.4c0,5,0,10,0,15
			c0,1.8-0.2,3.7-0.8,5.4c-0.5,1.5-1.1,2.8-2.2,3.9c-1.1,1.2-2.5,1.9-4,2.3c-2.8,0.8-5.5,0.7-8.1-0.5c-1.7-0.7-3-1.9-4-3.5
			c-0.7-1.2-1-2.4-1.2-3.7c-0.2-1.2-0.2-2.4-0.2-3.6c0-4.4,0-8.8,0-13.2c0-0.9,0-1.7-0.2-2.6c-0.2-1-0.7-1.4-1.7-1.6
			C15.9,5.1,15.5,5.1,15.1,5z M80.9,15.7c0.4,0,0.7,0,1,0c0.7,0,1.3,0,2-0.3c1-0.3,1.8-1.1,2.4-2c1.1-1.7,1.2-3.6,0.5-5.4
			c-0.6-1.7-2.4-3.2-4.8-2.8c-0.6,0.1-0.9,0.4-1,1c-0.1,0.4-0.1,0.8-0.1,1.2c0,2.6,0,5.2,0,7.9C80.9,15.4,80.9,15.6,80.9,15.7z"/>
		<path fill="#859894" d="M99.6,49.5c-0.1-0.5-0.2-1-0.4-1.5c-0.7-2.4-2-4.3-3.9-5.9c-1.9-1.6-4.1-2.7-6.4-3.6c-2-0.7-4-1.2-6-1.5
			c-2.2-0.4-4.5-0.6-6.7-0.8c-1.1-0.1-2.2-0.1-3.3-0.1c-0.7,0-1.5,0-2.2,0c-2.4,0-4.8,0.1-7.2,0.3c-1.8,0.1-3.5,0.3-5.3,0.5
			c-1.9,0.2-3.7,0.4-5.6,0.7c-3.1,0.4-6.2,1-9.3,1.6c-3,0.6-6,1.2-9,1.9c-5.1,1.2-10.1,2.6-15.1,4.1c-1.4,0.4-2.8,0.9-4.2,1.4
			c0,0-0.1,0-0.2,0c0-0.1,0.1-0.2,0.1-0.4c0.8-2,1.6-4,2.4-6c0.1-0.1,0.1-0.2,0.3-0.2c2.7-0.5,5.4-1,8.1-1.5
			c2.1-0.4,4.2-0.7,6.3-1.1c1.9-0.3,3.7-0.6,5.6-0.9c1.7-0.3,3.4-0.5,5.2-0.8c1.5-0.2,3-0.4,4.6-0.7c1.4-0.2,2.9-0.4,4.3-0.6
			c1.5-0.2,2.9-0.4,4.4-0.5c1.2-0.1,2.4-0.3,3.6-0.4c1.4-0.1,2.8-0.3,4.2-0.4c1.1-0.1,2.1-0.2,3.2-0.2c1.7-0.1,3.3-0.2,5-0.3
			c0.8,0,1.5,0,2.3-0.1c1.3,0,2.7,0,4,0c2.2,0,4.4,0.1,6.6,0.3c2.6,0.2,5.1,0.6,7.6,1.2c1.8,0.5,3.5,1.1,5.1,2.1
			c1.3,0.8,2.5,1.8,3.2,3.2c0.6,1.2,0.9,2.6,0.7,3.9C101.5,45.6,100.7,47.5,99.6,49.5C99.6,49.4,99.6,49.5,99.6,49.5z"/>
		<path fill="#859894" d="M100.7,28.8c0,0.6,0.1,1.2,0.1,1.8c-0.1,0-0.2,0-0.3,0c0-0.4,0-0.7-0.1-1.1c0,0,0,0-0.1,0
			c-0.1,0.4-0.3,0.7-0.4,1.1c-0.1,0-0.2,0-0.2,0c-0.1-0.4-0.2-0.7-0.4-1c0,0,0,0-0.1,0c0,0.3,0,0.7-0.1,1c-0.1,0-0.2,0-0.3,0
			c0-0.6,0.1-1.2,0.1-1.8c0.4,0,0.4,0,0.5,0.3c0.1,0.3,0.2,0.6,0.3,1c0.1-0.3,0.2-0.7,0.3-1C100.4,28.7,100.4,28.7,100.7,28.8z"/>
		<path fill="#859894" d="M97.6,30.5c0-0.1,0.1-0.2,0.1-0.3c0.1,0,0.3,0.1,0.4,0.1c0.1,0,0.3,0,0.3-0.2c0-0.2,0-0.3-0.2-0.3
			c-0.1-0.1-0.2-0.1-0.3-0.2c-0.2-0.1-0.3-0.3-0.2-0.5c0-0.2,0.2-0.4,0.4-0.4c0.2,0,0.4,0,0.6,0.1c0,0.1-0.1,0.2-0.1,0.3
			c-0.1,0-0.2-0.1-0.3-0.1c-0.1,0-0.2,0-0.3,0.2c0,0.1,0,0.2,0.2,0.3c0.1,0.1,0.2,0.1,0.3,0.1c0.2,0.1,0.3,0.3,0.3,0.6
			c0,0.2-0.2,0.4-0.5,0.4C98,30.7,97.8,30.6,97.6,30.5z"/>
	</g>
</g>
</svg>
