<?xml version="1.0" encoding="utf-8"?>
<!-- Generator: Adobe Illustrator 21.0.0, SVG Export Plug-In . SVG Version: 6.00 Build 0)  -->
<svg version="1.1" id="Layer_1" xmlns="http://www.w3.org/2000/svg" xmlns:xlink="http://www.w3.org/1999/xlink" x="0px" y="0px"
	 viewBox="0 0 417.4 132.1" enable-background="new 0 0 417.4 132.1" xml:space="preserve">
<g>
	<rect x="74.8" y="79.9" fill="#CF0A2C" width="212.6" height="12.9"/>
	<rect x="318.7" y="79.9" fill="#CF0A2C" width="98.3" height="12.9"/>
	<rect x="399" fill="#111820" width="18.4" height="70.7"/>
	<path fill="#111820" d="M155.7,70.7l-11-27.1c6-2.8,6-6.9,6-6.9V12.9c0-10.6-14.2-10.6-14.2-10.6l-61.1,0v68.4h18.4V18.8h32.6
		c6,0,5.1,5.1,5.1,5.1v6.4c-0.5,4.6-6,4.6-6,4.6h-17.9l-8.7,15.2H124l9.6,20.7H155.7z"/>
	<path fill="#111820" d="M168.1,70.7h61.5V56.5h-48.2c-5.5,0-5.1-7.3-5.1-7.3V32.6c0.5-6,6.9-5.5,6.9-5.5h25.7
		c3.2,0,3.2,3.7,3.2,3.7v2.3c0,2.8-3.2,2.8-3.2,2.8h-21.1l-8.3,13.3h44.1c6.9-0.9,6.9-7.3,6.9-7.3V20.2c0-7.8-11.9-7.3-11.9-7.3
		h-52.3c-7.8,2.8-7.8,8.7-7.8,8.7v41.8C159.3,71.6,168.1,70.7,168.1,70.7z"/>
	<path fill="#111820" d="M242.9,70.7h40.4l7.3-14.7h-32.6c0,0-3.2,0-3.2-2.8V30.8c0,0,0-3.7,3.2-3.7h30.3c0,0,6.4-0.5,6.9,5.5v62
		c14.7-6,17.9-22.5,17.9-22.5V21.6c0,0,0-6-7.8-8.7h-56.9c0,0-11.9-0.5-11.9,7.3V62C236.5,62,236.5,68.4,242.9,70.7z"/>
	<path fill="#111820" d="M390.8,62V20.2c-0.9-8.3-9.6-7.3-9.6-7.3h-61.5v14.2h48.2c5.5,0,5.1,7.3,5.1,7.3V51c-0.5,6-6.9,5.5-6.9,5.5
		h-25.7c-3.2,0-3.2-3.7-3.2-3.7v-2.3c0-2.8,3.2-2.8,3.2-2.8h21.1l8.3-13.3h-44.1c-6.9,0.9-6.9,7.3-6.9,7.3v21.6
		c0,7.8,11.9,7.3,11.9,7.3H383C390.8,68,390.8,62,390.8,62z"/>
	<rect x="163.4" y="100.7" fill="#111820" width="8.3" height="31.4"/>
	<path fill="#111820" d="M207.9,100.7h-8.7v6.8h-18.3c0,0-6.9,0.5-6.9,7.3v10.1c0,0-0.9,6,5.1,6.9h22c0,0,6.9,0.5,6.9-7.3
		L207.9,100.7z M198.8,120.8c0,0,0,4.6-2.8,4.6h-8.7c0,0-3.7,0.5-4.1-3.7v-4.6c0,0,0.5-3.2,3.7-3.2h7.8c0,0,3.7,0,4.1,3.2V120.8z"/>
	<rect x="373.7" y="100.7" fill="#111820" width="8.2" height="31.4"/>
	<path fill="#111820" d="M410.4,107.5h-22.2c-3.3,1.2-3.3,3.7-3.3,3.7V129c0.4,3.5,4.1,3.1,4.1,3.1h26.2v-6.1h-20.5
		c-2.3,0-2.1-3.1-2.1-3.1h20.1c2.9-0.4,2.9-3.1,2.9-3.1v-9.2C415.5,107.3,410.4,107.5,410.4,107.5z M407.7,116.1
		c0,1.2-1.4,1.2-1.4,1.2h-13.9v-1.4c0.2-2.5,2.9-2.3,2.9-2.3h10.9c1.4,0,1.4,1.6,1.4,1.6V116.1z"/>
	<path fill="#111820" d="M245.8,107.5h-26.2v6h20.5c2.3,0,2.1,3.1,2.1,3.1h-20.1c-2.9,0.4-2.9,3.1-2.9,3.1v9.2
		c0,3.3,5.1,3.1,5.1,3.1h22.2c3.3-1.2,3.3-3.7,3.3-3.7v-17.8C249.5,107.1,245.8,107.5,245.8,107.5z M239.4,126.1h-10.9
		c-1.4,0-1.4-1.6-1.4-1.6v-1c0-1.2,1.4-1.2,1.4-1.2h13.9v1.4C242.1,126.3,239.4,126.1,239.4,126.1z"/>
	<path fill="#111820" d="M115.7,100.6l-40,0.1v31.4H84v-22.3c1.1-2.4,4.2-2.4,4.2-2.4h5.5c1.8,0,2.2,2.8,2.2,2.8v21.9h8.3v-23.5
		c1.4-1.2,3.3-1.2,3.3-1.2h5.5c1.8,0,2.2,2.8,2.2,2.8v21.9h8.3V107C122.9,100.1,115.7,100.6,115.7,100.6z"/>
	<path fill="#111820" d="M277.3,107.9h-21.1l0,0.1h-3.2v24.1h8.3V116c1.4-1.2,3.3-1.2,3.3-1.2h9.2c3.2,0,3.1,2.8,3.1,2.8v14.6h8.3
		v-17.8C284.5,107.5,277.3,107.9,277.3,107.9z"/>
	<path fill="#111820" d="M153.8,107.5h-20.2c0,0-6.9,0.5-6.9,7.3v10.1c0,0-0.9,6,5.1,6.9h22c0,0,6.9,0.5,6.9-7.3v-9.6
		C160.7,114.8,159.8,107.5,153.8,107.5z M151.5,120.8c0,0,0,4.6-2.8,4.6h-8.7c0,0-3.7,0.5-4.1-3.7v-4.6c0,0,0.5-3.2,3.7-3.2h7.8
		c0,0,3.7,0,4.1,3.2V120.8z"/>
	<path fill="#111820" d="M321.3,100.7h-8.7v6.8h-18.3c0,0-6.9,0.5-6.9,7.3v10.1c0,0-0.9,6,5.1,6.9h22c0,0,6.9,0.5,6.9-7.3
		L321.3,100.7z M312.2,120.8c0,0,0,4.6-2.8,4.6h-8.7c0,0-3.7,0.5-4.1-3.7v-4.6c0,0,0.5-3.2,3.7-3.2h7.8c0,0,3.7,0,4.1,3.2V120.8z"/>
	<path fill="#111820" d="M360,100.6h-20.7l-0.1,0.1h-5.9v31.4h9.1v-0.3h20.3c7.8,0,8.3-9.6,8.3-9.6v-13.8
		C370.6,100.1,360,100.6,360,100.6z M361.8,113v6.4c0,4.6-3.7,5.1-3.7,5.1h-15.7v-17h15.2C362.3,107.5,361.8,113,361.8,113z"/>
	<polygon fill="#CF0A2C" points="30.8,39.9 24.3,31.7 30.8,24.3 18.4,11.5 0,31.2 20.2,51.4 	"/>
	<path fill="#CF0A2C" d="M43.2,2.8L19.7,3.2l23.9,28.9L20.2,59.7l23,0.5l24.3-28.5L43.2,2.8z M26.2,6h16.1l20.2,24.8H47.3L26.2,6z"
		/>
</g>
<g>
</g>
<g>
</g>
<g>
</g>
<g>
</g>
<g>
</g>
<g>
</g>
<g>
</g>
<g>
</g>
<g>
</g>
<g>
</g>
<g>
</g>
<g>
</g>
<g>
</g>
<g>
</g>
<g>
</g>
</svg>
