<?xml version="1.0" encoding="utf-8"?>
<!-- Generator: Adobe Illustrator 20.1.0, SVG Export Plug-In . SVG Version: 6.00 Build 0)  -->
<svg version="1.1" id="Layer_1" xmlns="http://www.w3.org/2000/svg" xmlns:xlink="http://www.w3.org/1999/xlink" x="0px" y="0px"
	 viewBox="0 0 116.5 53" enable-background="new 0 0 116.5 53" xml:space="preserve">
<g id="iZa5zP_2_">
	<g>
		<path fill="#859894" d="M69.4,39.8c1.1-0.2,1.9,0.1,2.8,0.7c1.4,1,2.8,2,4.3,2.8c5.5,3,11.1,5.6,17.4,6.4c5,0.6,9.8-0.1,14.1-2.9
			c3.1-2,5.2-4.7,6.4-8.2c0.4-1.2,1.4-2,2.1-3c0,1-0.3,1.9-0.6,2.9c-0.8,2.8-2.1,5.4-3.9,7.7c-3.5,4.4-8.2,6.6-13.8,6.7
			c-6.1,0.2-11.7-1.6-17-4.4c-4.2-2.2-7.9-5-11.4-8.2C69.7,40.2,69.4,40.1,69.4,39.8z"/>
		<path fill="#859894" d="M4.7,15.2c0.6-3,1.6-5.6,3.2-8c2.2-3.3,5.1-5.6,8.9-6.6c3.7-1,7.4-0.7,11,0.6c5,1.8,9.4,4.6,13.7,7.7
			c2.5,1.8,4.8,3.8,7,5.8c0.2,0.2,0.4,0.3,0.6,0.6c-0.8,0-1.5,0.1-2.3-0.4c-4.9-3.4-10-6.4-15.4-8.7c-3.1-1.3-6.3-2.4-9.8-2.8
			c-6.4-0.7-12.3,3-14.4,9.1C6.8,13.7,5.8,14.4,4.7,15.2z"/>
		<path fill="#859894" d="M8,21.5c0.8,0,1.7,0,2.6,0c-0.3,0.6-0.5,1.2-0.7,1.8c0.2,0.2,0.3-0.1,0.4-0.2c1.9-1.7,4.1-2.3,6.5-1.9
			c2,0.3,3.3,2,3.1,4.2c-0.3,3.9-1.6,7.3-4.8,9.7c-1.9,1.4-4.1,1.8-6.4,1.3c-1.4-0.3-1.9-0.8-2.7-2.3c-1.1,2.8-2.2,5.5-3.2,8.2
			c-0.9,0-1.8,0-2.7,0C2.6,35.4,5.6,28.6,8,21.5z M7.4,31.4c0,1.9,1.2,3,3,3c1.2,0,2.1-0.5,3-1.2c2-1.8,3-4.1,3.4-6.7
			c0.3-2.1-1-3.4-3.1-3.2c-0.4,0-0.8,0.2-1.2,0.3C9.3,24.9,7.5,29,7.4,31.4z"/>
		<path fill="#859894" d="M70.5,26.2c0,4.9-3.5,9.3-8.1,10.3c-1.4,0.3-2.8,0.3-4.2-0.1c-2.3-0.6-3.5-2.2-3.5-4.8
			c0-4,2.7-9.2,8.3-10.3c1.2-0.2,2.3-0.3,3.5-0.1C69.1,21.7,70.5,23.5,70.5,26.2z M57.7,30.8c0,2.5,1.1,3.7,3.2,3.7
			c0.7,0,1.3-0.2,1.9-0.5c2.8-1.5,4.4-3.9,4.7-7c0.3-2.4-1.4-3.9-3.7-3.6c-0.7,0.1-1.4,0.3-2,0.7C59.2,25.8,58,28.3,57.7,30.8z"/>
		<path fill="#859894" d="M23.7,24.6c0.2-0.6,0.5-1.1,0.6-1.7c0.2-0.9,0.7-1.2,1.5-1.4c1.7-0.3,3.4-0.6,5.2-0.2
			c2.6,0.6,3.6,2.3,3,4.8c-0.5,1.9-1.3,3.7-2,5.6c-0.6,1.5-1.1,3-1.7,4.6c-0.8,0-1.6,0-2.5,0c0.1-0.6,0.5-1.2,0.6-1.9
			c-0.4,0.3-0.7,0.6-1,0.8c-1.7,1.3-3.6,1.9-5.7,1.3c-1.9-0.5-2.8-2-2.4-3.9c0.5-2.7,2.3-4.1,4.8-4.8c2.1-0.6,4.3-0.6,6.4-0.5
			c0.4,0,0.6-0.1,0.7-0.5c0.6-1.8-0.2-3.2-2.2-3.3c-1.6-0.1-3.1,0.3-4.5,0.9C24.3,24.4,24.1,24.5,23.7,24.6z M30,29.2
			c-1.2,0-2.4-0.1-3.6,0.1c-1.3,0.2-2.5,0.5-3.4,1.5c-0.7,0.8-1,2-0.7,2.7c0.4,0.7,1.4,1.1,2.6,0.9C27.2,34,29.7,31.5,30,29.2z"/>
		<path fill="#859894" d="M94.5,42.6c0.3-0.8,0.6-1.5,0.9-2.2c1.8,0.6,3.1-0.1,4.3-1.4c0.4-0.4,0.8-1,1.2-1.4
			c0.4-0.5,0.3-1.1,0.3-1.6c0.1-2.9,0.2-5.8,0.2-8.6c0.1-1.9,0.1-3.9,0.2-5.8c1,0,1.9,0,2.9,0c-0.1,3.9-0.3,7.8-0.4,11.8
			c0.3-0.4,0.5-0.6,0.7-0.9c2.5-3.5,5.1-7,7.6-10.5c0.2-0.3,0.4-0.5,0.9-0.5c0.8,0,1.5,0,2.4,0c-0.5,0.6-0.9,1.2-1.3,1.8
			c-4.1,5.4-8.2,10.8-12.3,16.2c-0.3,0.3-0.5,0.6-0.8,1C99.4,42.7,97.1,43.2,94.5,42.6z"/>
		<path fill="#859894" d="M30.4,42.6c0.3-0.8,0.6-1.5,0.8-2.2c2.5,0.3,4.6-0.9,5.7-3.2c0.2-0.4,0.1-0.8,0.1-1.2
			c0.1-4.8,0.3-9.6,0.4-14.4c0,0,0-0.1,0-0.2c0.9,0,1.8,0,2.8,0c-0.1,3.9-0.3,7.7-0.4,11.8c0.4-0.6,0.7-1,1-1.4
			c2.4-3.3,4.9-6.7,7.3-10c0.2-0.3,0.4-0.4,0.8-0.4c0.8,0,1.6,0,2.5,0c-0.9,1.2-1.7,2.3-2.6,3.4c-3.7,4.9-7.4,9.8-11.1,14.7
			c-0.1,0.2-0.3,0.4-0.4,0.6C35.6,42.5,33.3,43.3,30.4,42.6z"/>
		<path fill="#859894" d="M94.1,23.8c-1.1,0-2.1,0-3.2,0c0.3-0.7,0.5-1.4,0.7-2c0.1-0.3,0.3-0.2,0.5-0.2c0.8,0,1.6,0,2.4,0
			c0.4,0,0.5-0.1,0.7-0.5c0.3-0.9,0.7-1.7,1-2.6c0.1-0.3,0.3-0.5,0.6-0.6c0.9-0.2,1.7-0.6,2.7-0.9c-0.6,1.5-1.1,3-1.7,4.5
			c1.2,0,2.3,0,3.4,0c-0.3,0.7-0.5,1.3-0.7,2c-0.1,0.3-0.3,0.3-0.5,0.3c-0.9,0-1.7,0-2.6,0c-0.4,0-0.6,0.1-0.7,0.4
			c-1,2.6-2.1,5.2-3,7.8c-0.7,1.9,0,2.7,2,2.4c0.5-0.1,0.9-0.2,1.4-0.3c-0.3,0.7-0.5,1.4-0.7,2.1c-0.1,0.2-0.2,0.2-0.4,0.2
			c-1,0.2-2,0.3-3,0.2c-2-0.2-2.8-1.7-2.3-3.7c0.6-2.1,1.5-4.1,2.2-6.1C93.3,25.9,93.7,24.8,94.1,23.8z"/>
		<path fill="#859894" d="M80.5,33.8c-0.3,0.8-0.6,1.5-0.8,2.3c-0.1,0.2-0.2,0.3-0.4,0.4c-1.7,0.3-3.3,0.4-5,0
			c-2.4-0.7-3.5-2.5-3.2-5.2c0.4-3.4,1.9-6.3,4.7-8.4c2.7-2,5.7-2,8.9-1.1c-0.4,0.8-0.7,1.6-1.1,2.4c-4-2-7.7,0.9-9,4.4
			c-0.4,1-0.6,2-0.6,3c0,1.8,1.1,2.9,2.9,3C78.1,34.5,79.2,34.2,80.5,33.8z"/>
		<path fill="#859894" d="M46.9,36.3c2.9-7.3,5.7-14.6,8.6-21.8c0.9,0,1.8,0,2.8,0c-0.6,1.6-1.2,3.1-1.8,4.7
			c-2.2,5.5-4.4,11.1-6.5,16.6c-0.1,0.3-0.3,0.5-0.7,0.5C48.5,36.3,47.7,36.3,46.9,36.3z"/>
		<path fill="#859894" d="M81.5,36.3c0-0.1,0-0.2,0-0.2c1.9-4.8,3.8-9.7,5.7-14.6c0.9,0,1.8,0,2.8,0c-0.6,1.6-1.2,3.1-1.8,4.7
			c-1.3,3.2-2.5,6.4-3.8,9.6c-0.2,0.4-0.3,0.6-0.8,0.5C82.9,36.3,82.2,36.3,81.5,36.3z"/>
		<path fill="#859894" d="M88.3,18.2c0.4-1.1,0.8-2.1,1.2-3.1c1,0,2,0,3.1,0c-0.4,1.1-0.8,2.1-1.2,3.1
			C90.4,18.2,89.5,18.2,88.3,18.2z"/>
	</g>
</g>
</svg>
