<?xml version="1.0" encoding="utf-8"?>
<!-- Generator: Adobe Illustrator 20.1.0, SVG Export Plug-In . SVG Version: 6.00 Build 0)  -->
<svg version="1.1" id="Layer_1" xmlns="http://www.w3.org/2000/svg" xmlns:xlink="http://www.w3.org/1999/xlink" x="0px" y="0px"
	 viewBox="0 0 149 59.5" enable-background="new 0 0 149 59.5" xml:space="preserve">
<g>
	<g>
		<path fill="#0581FF" d="M25.1,59.5c-1.8,0-3.3-0.5-4.4-1.6c-1.2-1-1.8-2.4-1.8-4.1c0-2.1,0.7-3.9,2.2-5.3c1.4-1.4,3.3-2.1,5.5-2.1
			c1.3,0,2.3,0.3,3.2,0.9c0.9,0.6,1.6,1.3,2,2.2l-2.5,1.1c-0.2-0.5-0.6-1-1.2-1.3s-1.2-0.5-1.9-0.5c-1.2,0-2.2,0.5-3.1,1.4
			s-1.3,2.1-1.3,3.5c0,1,0.3,1.8,1,2.5c0.6,0.7,1.5,1,2.6,1c1,0,1.8-0.3,2.5-1l0.3-1.5h-3.4l0.5-2.4h6.1l-1.1,4.9
			C29,58.7,27.2,59.5,25.1,59.5z"/>
		<path fill="#0581FF" d="M38.8,59.5c-1.8,0-3.3-0.5-4.5-1.6c-1.2-1-1.8-2.4-1.8-4.1c0-2.1,0.7-3.8,2.1-5.3c1.4-1.4,3.2-2.2,5.2-2.2
			c1.8,0,3.3,0.5,4.5,1.6c1.2,1,1.8,2.4,1.8,4.1c0,2.1-0.7,3.8-2.1,5.3C42.6,58.7,40.9,59.5,38.8,59.5z M39,57.1
			c1.2,0,2.3-0.5,3.1-1.4c0.8-0.9,1.3-2.1,1.3-3.4c0-1.1-0.3-1.9-1-2.5s-1.5-0.9-2.6-0.9c-1.2,0-2.3,0.5-3.1,1.4
			c-0.8,0.9-1.3,2.1-1.3,3.4c0,1.1,0.3,1.9,1,2.5S37.9,57.1,39,57.1z"/>
		<path fill="#0581FF" d="M53.3,59.5c-1.8,0-3.3-0.5-4.5-1.6c-1.2-1-1.8-2.4-1.8-4.1c0-2.1,0.7-3.8,2.1-5.3c1.4-1.4,3.2-2.2,5.2-2.2
			c1.8,0,3.3,0.5,4.5,1.6c1.2,1,1.8,2.4,1.8,4.1c0,2.1-0.7,3.8-2.1,5.3C57.2,58.7,55.4,59.5,53.3,59.5z M53.5,57.1
			c1.2,0,2.3-0.5,3.1-1.4c0.8-0.9,1.3-2.1,1.3-3.4c0-1.1-0.3-1.9-1-2.5s-1.5-0.9-2.6-0.9c-1.2,0-2.3,0.5-3.1,1.4
			c-0.8,0.9-1.3,2.1-1.3,3.4c0,1.1,0.3,1.9,1,2.5S52.4,57.1,53.5,57.1z"/>
		<path fill="#0581FF" d="M66,59.2h-5l2.8-12.7h4.9c1.5,0,2.8,0.5,3.8,1.5s1.6,2.3,1.6,3.9c0,0.7-0.1,1.4-0.3,2
			c-0.2,0.7-0.5,1.3-0.9,1.9c-0.4,0.6-0.9,1.2-1.6,1.7c-0.6,0.5-1.4,0.9-2.3,1.2C68.2,59.1,67.2,59.2,66,59.2z M66,48.9l-1.7,7.9
			h2.2c1.5,0,2.7-0.5,3.6-1.4c0.9-0.9,1.3-2,1.3-3.3c0-0.9-0.3-1.7-0.9-2.3c-0.6-0.6-1.4-0.9-2.3-0.9H66z"/>
		<path fill="#0581FF" d="M82.6,59.2h-8.1l2.8-12.7h2.7l-2.3,10.3h5.4L82.6,59.2z"/>
		<path fill="#0581FF" d="M96.3,59.2h-2.9L93,57.1h-5.4l-1.3,2.1h-3.2l7.7-12.7h3.4L96.3,59.2z M92.8,54.7L92,49.3l-3.2,5.5H92.8z"
			/>
		<path fill="#0581FF" d="M108.8,59.2h-2.6l-4.2-8.4l-1.9,8.4h-2.7l2.8-12.7h2.8l4.1,8.1l1.8-8.1h2.7L108.8,59.2z"/>
		<path fill="#0581FF" d="M116.3,59.2h-5l2.8-12.7h4.9c1.5,0,2.8,0.5,3.8,1.5s1.6,2.3,1.6,3.9c0,0.7-0.1,1.4-0.3,2
			c-0.2,0.7-0.5,1.3-0.9,1.9c-0.4,0.6-0.9,1.2-1.6,1.7c-0.6,0.5-1.4,0.9-2.3,1.2C118.5,59.1,117.4,59.2,116.3,59.2z M116.3,48.9
			l-1.7,7.9h2.2c1.5,0,2.7-0.5,3.6-1.4c0.9-0.9,1.3-2,1.3-3.3c0-0.9-0.3-1.7-0.9-2.3c-0.6-0.6-1.4-0.9-2.3-0.9H116.3z"/>
	</g>
	<g>
		<g>
			<path fill="#0581FF" d="M0,38.9l16.3-0.1l1.3-6.9l-3.4,0l2.2-5.2l8.9,0l0.6,5.1l-4.3,0l-1.1,6.9l15.9-0.1l1.3-6.9l-2.7,0
				l-3.1-21.8l3.7,0l1.1-6.9L12.2,3.2l-1.2,6.9l3.6,0L4.8,31.9l-3.6,0L0,38.9z M18.8,20.6l4.6-11.1l1.2,11.1L18.8,20.6z M54.7,38.7
				l10.1,0l1.3-7.1l-2.7,0L68.1,3L56.6,3L55.4,10l2.9,0l-1.2,6.8c-1.3-1.5-3.3-2.3-5.9-2.3c-7.2,0-12.6,5.6-12.5,14.1
				c0,6.5,3.9,10.6,9.3,10.6c2.7,0,4.7-0.9,7.2-2.8L54.7,38.7z M52.3,21.8c2.4,0,3.8,1.6,3.8,4.2c0,3.1-1.8,5.5-4.5,5.5
				c-2.6,0-4.1-1.6-4.1-4.3C47.5,23.9,49.3,21.8,52.3,21.8L52.3,21.8z M65.3,38.6l11.2,0l1.8-10.5l0.4,0l4.1,4.9l-2.5,0l-0.8,5.5
				l12.7,0l1.2-7.1l-2.2,0l-4.4-5.2l5.3-4.3l2.6,0l1.2-6.9l-12.2,0l-1,5.7l2.4,0l-6.4,5.1l4-22.9L70.7,3l-1.2,6.9l3,0l-3.7,21.6
				l-2.3,0L65.3,38.6z M112.2,30.3c-1.4,1.2-2.7,2-4.2,2c-2.6,0-4.3-1.5-4.3-4.1l16.2-0.1c0-0.8,0.1-1.4,0.1-2
				c0-7.5-4.4-11.9-11.6-11.8c-8.3,0-13.7,5.6-13.7,13c0,7.3,4.9,11.6,12.4,11.6c4.4,0,8.3-1.6,11.1-4.7L112.2,30.3z M103.9,24.6
				c0.6-2.6,2-4,4.3-4c2.2,0,3.6,1.3,3.6,3.5c0,0.1,0,0.3,0,0.5L103.9,24.6z M126.9,38.4l9.2,0l9.7-16.5l1.9,0l1.3-7.1l-12.6,0
				l-1.2,7.1l2.2,0l-4.5,8.7l-2.2-8.6l1.8,0l1.2-7.1l-12.3,0l-1.2,7.1l2.7,0L126.9,38.4z"/>
			<path fill="#0581FF" d="M146.1,9c0,0.8,0.7,1.4,1.4,1.4c0.8,0,1.4-0.6,1.4-1.4c0-0.9-0.6-1.4-1.5-1.4
				C146.8,7.6,146.1,8.2,146.1,9"/>
			<path fill="#0581FF" d="M143.1,6.5l2.2,0l0.5-3l-2,0L143.8,4c-0.6-0.5-1.2-0.7-2-0.7c-2,0-3.5,1.6-3.5,3.6c0,2.1,1.4,3.5,3.5,3.5
				c1.4,0,2.6-0.5,3.5-1.6l-2-1.5c-0.3,0.5-0.8,0.7-1.3,0.7c-0.7,0-1.2-0.5-1.2-1.2c0-0.8,0.5-1.4,1.2-1.4
				C142.6,5.5,143,5.8,143.1,6.5"/>
			<path fill="#0581FF" d="M133.5,8.5l-0.7,0l0.3-2c0.1-0.7,0.5-1.1,1-1.1c0.4,0,0.6,0.1,0.6,0.5c0,0.1,0,0.2,0,0.2l-0.7,4.4l3.4,0
				l0.4-2l-0.8,0l0.4-2.4c0.1-0.6,0.2-1.1,0.2-1.3c0-0.9-0.6-1.4-1.6-1.4c-0.9,0-1.8,0.4-2.6,1.2l0.2-1.1l-3.2,0l-0.4,2.2l0.8,0
				l-0.5,2.8l-0.8,0l-0.4,2l4.1,0L133.5,8.5z"/>
			<polygon fill="#0581FF" points="128.4,8.5 127.4,8.5 128.5,2.2 129.5,2.2 129.8,0 125.1,0 124.8,2.2 125.8,2.2 124.7,8.5 
				123.7,8.5 123.3,10.5 128.1,10.5 			"/>
			<polygon fill-rule="evenodd" clip-rule="evenodd" fill="#0581FF" points="86,2.9 121.1,2.8 119.8,10.5 84.7,10.7 			"/>
		</g>
	</g>
</g>
<g>
	<g>
		<g opacity="0.7">
			<defs>
				<path id="SVGID_74_" opacity="0.7" d="M469.6,21.5c-14.9,0-28-2.3-39.5-6.9C418.6,10,409.5,3.8,402.7-3.9l21.1-28.4
					c5.7,5.5,12.6,9.7,20.7,12.6c8.2,2.9,16,4.4,23.4,4.4c8.7,0,15.4-1.5,20.1-4.4c4.7-2.9,7-6.7,7-11.4c0-4.8-2.1-8.4-6.4-10.5
					c-4.3-2.2-11.8-3.3-22.4-3.3c-11.3,0-17.8,0.2-21.8,0.5v-37.1c3,0.2,9.4,0.2,21.8,0.2c17.5,0,26.2-4.2,26.2-12.6
					c0-4.8-2.5-8.5-7.5-11c-5-2.5-11.6-3.8-19.6-3.8c-15.2,0-28.6,5.2-40.2,15.5l-20.1-26.2c15.8-17.5,37.4-26.2,64.7-26.2
					c20.4,0,36.2,4,47.4,12c11.2,8,16.8,18.8,16.8,32.4c0,9.2-3.4,17.2-10.3,23.9c-6.9,6.7-15.2,10.9-25.1,12.5
					c9.7,1,18.5,4.9,26.3,11.8c7.8,6.9,11.8,15.7,11.8,26.5c0,14.2-6.1,25.8-18.4,34.7C505.8,17.1,489.7,21.5,469.6,21.5z"/>
			</defs>
			<clipPath id="SVGID_2_">
				<use xlink:href="#SVGID_74_"  overflow="visible"/>
			</clipPath>
		</g>
	</g>
</g>
</svg>
