<?xml version="1.0" encoding="utf-8"?>
<!-- Generator: Adobe Illustrator 20.1.0, SVG Export Plug-In . SVG Version: 6.00 Build 0)  -->
<svg version="1.1" id="Layer_1" xmlns="http://www.w3.org/2000/svg" xmlns:xlink="http://www.w3.org/1999/xlink" x="0px" y="0px"
	 viewBox="0 0 144.5 130.7" enable-background="new 0 0 144.5 130.7" xml:space="preserve">
<g id="yHRIWQ.tif_2_" opacity="0.6">
	<g>
		<path fill="#FFFFFF" d="M31.4,92.4c-1,0-2.1,0-3.1,0c-1.4,0-2.8,0-4.2,0c-0.5,0-0.7-0.2-0.9-0.6c-2.5-6-3.8-12.3-4-18.8
			c-0.2-9,1.6-17.6,5.7-25.6c3.4-6.7,8-12.3,13.8-17.1c6.5-5.3,13.9-8.9,22.1-10.7c7.3-1.6,14.6-1.6,21.9-0.2
			c3.9,0.8,7.6,2,11.2,3.6c9,4.1,16.3,10.2,21.9,18.4c3.5,5,6,10.5,7.5,16.4c1,4,1.6,8,1.7,12.1c0.2,5.2-0.5,10.3-1.8,15.4
			c-0.6,2.2-1.3,4.3-2.2,6.4c-0.1,0.3-0.3,0.6-0.7,0.6c-2.4,0-4.7,0-7.1,0c-0.1,0-0.2,0-0.4-0.1c0-0.8,0.4-1.6,0.6-2.4
			c1.1-4.1,1.8-8.3,2-12.6c0.4-7-0.3-13.9-2.1-20.7c-2.4-8.6-6.4-16.4-12.5-22.9c-5-5.4-11-9.4-18.1-11.6
			c-7.2-2.2-14.4-2.2-21.6,0.1c-4.4,1.4-8.4,3.6-12.1,6.4c-6.3,4.8-11,10.9-14.4,18c-4.3,8.9-6.2,18.2-6,28.1
			c0.1,5.9,1,11.6,2.7,17.2C31.4,91.9,31.5,92.1,31.4,92.4z"/>
		<path fill="#FFFFFF" d="M69.5,85.5c5-4.3,10.6-7.2,16.9-8.6c8.1-1.9,16.2-1.5,24.4,0.7c-0.7,0.5-1.2,1-1.7,1.4
			c-6.4,5-13.6,7.6-21.6,8.3c-5.8,0.5-11.5,0-17.1-1.5C70.1,85.7,69.9,85.6,69.5,85.5z"/>
		<path fill="#FFFFFF" d="M66.6,92.3c-1.6,0-3,0-4.5,0C61.9,92,62,91.7,62,91.4c0.1-5.8,0.4-11.6,1.2-17.4c0.7-5.3,2.4-10.2,4.9-15
			c1.4-2.6,2.9-5.1,4.7-7.4c0.4-0.5,0.7-0.9,0.3-1.6c-1.1-2.5-0.4-5.3,1.7-7c2.1-1.7,4.9-1.7,7.1-0.2c2.3,1.6,3.1,4.6,2,7.2
			c-1.1,2.5-3.9,4-6.6,3.4c-0.5-0.1-0.8,0-1.1,0.4c-3,3.6-4.9,7.7-6.3,12.1c-2.3,7.2-3.3,14.6-3.3,22.1c0,1.2,0,2.4,0.1,3.7
			C66.6,91.8,66.6,92,66.6,92.3z"/>
		<path fill="#FFFFFF" d="M45.4,117.2c17.9,0,35.8,0,53.7,0c-7.1,4.3-14.8,6.7-23,7.3C65.1,125.2,54.8,122.8,45.4,117.2z"/>
		<path fill="#FFFFFF" d="M31.6,61.6c1.5-0.5,3-0.7,4.6-0.8c7.2-0.5,13.3,1.9,18.6,6.8c2.3,2.1,4.2,4.6,5.9,7.2
			c0.1,0.1,0.2,0.2,0.2,0.5c-4.7,1.1-9.4,1-14.1-0.4C39.8,72.7,35,68,31.6,61.6z"/>
		<path fill="#FFFFFF" d="M72.5,26c4.4,0,7.8,3.4,7.8,7.8c0,4.3-3.5,7.7-7.7,7.7c-4.3,0-7.7-3.4-7.7-7.7C64.8,29.5,68.2,26,72.5,26z
			"/>
		<path fill="#FFFFFF" d="M81.5,55c4.3,0,7.7,3.4,7.7,7.7c0,4.3-3.5,7.8-7.8,7.8c-4.4,0-7.7-3.5-7.7-7.9C73.7,58.4,77.2,55,81.5,55z
			"/>
		<path fill="#FFFFFF" d="M94.2,60c-4.4,0-7.8-3.5-7.7-7.9c0-4.1,3.5-7.6,7.6-7.6c4.4,0,7.8,3.5,7.8,7.8C102,56.6,98.4,60,94.2,60z"
			/>
		<path fill="#FFFFFF" d="M89.1,28.6c4.3,0,7.8,3.4,7.8,7.8c0,4.3-3.4,7.7-7.7,7.7c-4.4,0-7.8-3.4-7.8-7.7
			C81.4,32.1,84.7,28.6,89.1,28.6z"/>
		<path fill="#FFFFFF" d="M70.9,48.6c0,4.2-3.5,7.7-7.7,7.7c-4.5,0-7.8-3.6-7.8-7.7c0-4.3,3.4-7.8,7.7-7.8
			C67.5,40.8,70.9,44.2,70.9,48.6z"/>
		<path fill="#FFFFFF" d="M41.8,104.6c0-1.9,0.2-3.7,0.9-5.5c1.4-3.3,5-4.5,7.8-2.6c1.2,0.8,1.8,1.9,2.2,3.2c1,3.4,1,6.7-0.1,10.1
			c-1.2,3.4-4.7,4.9-7.7,3.1c-1.1-0.7-1.8-1.7-2.3-2.9C42,108.2,41.8,106.4,41.8,104.6z M46,104.7c0,0.8,0,1.7,0,2.5
			c0,0.8,0.1,1.6,0.4,2.3c0.2,0.6,0.6,0.8,1.2,0.9c0.6,0,1-0.3,1.3-0.8c0.2-0.4,0.3-0.8,0.3-1.3c0.2-2.2,0.2-4.5,0.1-6.7
			c0-0.7-0.1-1.3-0.4-1.9c-0.3-0.5-0.7-0.8-1.3-0.7c-0.6,0-1,0.3-1.2,0.8c-0.2,0.4-0.3,0.7-0.3,1.1C45.9,102.1,45.9,103.4,46,104.7z
			"/>
		<path fill="#FFFFFF" d="M84.5,104.7c0-2.1,0.1-4.1,1-6c1.2-2.7,4.3-3.7,6.8-2.2c1.2,0.8,1.9,2,2.2,3.3c0.8,3.2,0.9,6.4,0,9.6
			c-0.4,1.5-1.1,2.8-2.5,3.6c-2.1,1.3-5.1,0.5-6.3-1.6c-1-1.8-1.2-3.8-1.2-5.8C84.5,105.2,84.5,105,84.5,104.7z M88.5,104.1
			c0,1.8,0,3,0,4.3c0,0.6,0.1,1.1,0.4,1.6c0.2,0.4,0.5,0.6,1,0.6c0.4,0,0.7-0.3,0.9-0.7c0.3-0.6,0.4-1.3,0.4-2c0-2.1,0-4.2,0-6.4
			c0-0.5,0-0.9-0.1-1.4c-0.2-1-0.5-1.5-1.2-1.5c-0.7,0-1.1,0.4-1.2,1.5C88.3,101.7,88.5,103.2,88.5,104.1z"/>
		<path fill="#FFFFFF" d="M106.9,104.6c0,2.1-0.2,4.2-1.1,6.1c-1.2,2.5-3.7,3.5-6.2,2.5c-1.6-0.6-2.4-2-2.7-3.5
			c-0.8-3.5-0.9-7.1,0.2-10.6c0.8-2.4,2.9-3.6,5.4-3.2c1.7,0.3,2.8,1.4,3.4,3c0.3,0.6,0.5,1.3,0.6,2
			C106.8,102.1,106.9,103.3,106.9,104.6z M102.9,104.6C102.9,104.6,102.9,104.6,102.9,104.6c0-1,0-2.1,0-3.1c0-0.7-0.1-1.3-0.3-2
			c-0.2-0.5-0.5-0.8-1.1-0.8c-0.6,0-0.9,0.3-1.1,0.8c-0.2,0.6-0.3,1.1-0.3,1.7c0,2,0,4.1,0,6.1c0,0.8,0,1.5,0.3,2.2
			c0.2,0.5,0.5,0.9,1.1,0.9c0.6,0,0.9-0.4,1.1-0.9c0.1-0.4,0.2-0.9,0.2-1.4C102.9,107.1,102.9,105.8,102.9,104.6z"/>
		<path fill="#FFFFFF" d="M37.5,101c-0.3-0.6-0.5-1-0.9-1.4c-0.7-0.6-1.6-0.6-2.1-0.1c-0.6,0.7-0.4,1.6,0.3,2.2
			c0.9,0.7,1.9,1,2.9,1.5c3.8,1.9,4.4,6.7,1,9.4c-2.6,2.1-6.6,1.2-8.2-1.8c-0.8-1.6-0.9-1.3,0.7-2.1c0.6-0.3,1.1-0.5,1.7-0.8
			c0.3,0.5,0.5,1,0.8,1.4c0.3,0.5,0.8,0.9,1.4,1c0.7,0.1,1.5-0.1,1.8-0.7c0.3-0.6,0.2-1.4-0.3-2c-0.3-0.4-0.7-0.6-1.2-0.8
			c-0.9-0.4-1.8-0.8-2.7-1.3c-2-1.2-2.6-3.2-2.3-5.4c0.2-2,1.5-3.4,3.3-4c2.5-0.9,5.6,0.6,6.5,3.2c0.1,0.2,0.1,0.4-0.1,0.5
			C39.4,100.1,38.5,100.5,37.5,101z"/>
		<path fill="#FFFFFF" d="M83.3,106.4c0,0.8,0,1.6,0,2.4c0,0.2-0.1,0.3-0.4,0.3c0,0-0.1,0-0.1,0c-1.3,0.1-1.3,0.1-1.3,1.4
			c0,0.8,0,1.5,0,2.3c0,0.3,0,0.5-0.4,0.5c-1.1,0-2.1,0-3.1,0c-0.2-0.2-0.2-0.4-0.2-0.6c0-1,0-2,0-3c0-0.5-0.1-0.7-0.6-0.7
			c-1.4,0-2.7,0-4.1,0c-0.4,0-0.6-0.1-0.6-0.6c-0.1-1.4,0.2-2.7,0.9-4c1.5-2.6,2.8-5.3,4.2-8c0.2-0.4,0.4-0.5,0.8-0.5
			c0.8,0,1.7,0,2.5,0c0.5,0,0.6,0.2,0.6,0.6c0,3,0,5.9,0,8.9c0,0.7,0.2,0.9,0.8,0.8C82.6,106.3,83,106.2,83.3,106.4z M77.9,106.3
			c0-1.8,0-3.5,0-5.3c0,0-0.1,0-0.1,0c-0.9,1.7-1.7,3.5-2.6,5.3C76.2,106.3,77.1,106.3,77.9,106.3z"/>
		<path fill="#FFFFFF" d="M109.8,113.2c0-0.9,0-1.7,0-2.6c0-0.3,0.2-0.3,0.4-0.3c0.5,0,0.9,0,1.4,0c0.3,0,0.5-0.1,0.5-0.4
			c0-3.1,0-6.2,0-9.3c0-0.1,0-0.1-0.1-0.2c-0.7,0.2-1.4,0.4-2.2,0.6c0-0.9,0-1.8,0-2.7c0-0.2,0.2-0.3,0.4-0.3
			c1.1-0.4,2.3-0.9,3.2-1.7c0.1-0.1,0.2-0.1,0.4-0.1c0.6,0,1.2,0,1.8,0c0.2,0.3,0.1,0.6,0.1,0.8c0,4.3,0,8.6,0,12.8
			c0,0.6,0.2,0.7,0.7,0.7c1.5,0,1.5,0,1.5,1.5c0,1.4,0,1.4-1.4,1.4c-2,0-4,0-6,0C110.3,113.3,110.1,113.2,109.8,113.2z"/>
		<path fill="#FFFFFF" d="M64.6,100.4c-0.7,0.2-1.4,0.4-2.2,0.6c0-0.9,0-1.8,0-2.6c0-0.3,0.2-0.3,0.4-0.4c1.2-0.4,2.3-0.9,3.2-1.7
			c0.2-0.1,2-0.2,2.2-0.1c0.2,0.2,0.1,0.4,0.1,0.6c0,3.6,0,7.3,0,10.9c0,0.7,0,1.5,0,2.2c0,0.4,0.1,0.6,0.5,0.5c0.4,0,0.8,0,1.3,0
			c0.3,0,0.5,0.1,0.4,0.4c0,0.7,0,1.4,0,2.1c0,0.3-0.1,0.4-0.4,0.4c-2.5,0-5,0-7.6,0c0,0-0.1,0-0.2-0.1c0-0.8,0-1.6,0-2.5
			c0-0.3,0.2-0.3,0.4-0.3c0.5,0,0.9,0,1.4,0c0.3,0,0.5-0.1,0.5-0.4c0-3.1,0-6.2,0-9.3C64.7,100.6,64.6,100.5,64.6,100.4z"/>
		<path fill="#FFFFFF" d="M28.5,113.2c-1.3,0-2.5,0-3.7,0c-0.2-0.2-0.1-0.5-0.1-0.7c0-5.3,0-10.6,0-15.9c0-0.5,0.2-0.7,0.7-0.7
			c1,0,2,0,3.1,0C28.5,101.8,28.5,107.5,28.5,113.2z"/>
		<path fill="#FFFFFF" d="M24.2,30.3c0.2,1.1,0.5,2.3,0.8,3.4c-1.3,0.2-2.4,0.1-3.7,0.2c1.5,1.2,2.9,2.3,4.4,3.5
			c-0.1,0.3-0.4,0.6-0.7,0.9c-2-1.6-4-3.2-6-4.8c0.3-0.5,0.6-0.9,1.2-0.9c0.9,0,1.8,0,2.6,0c0.2,0,0.5,0,0.7-0.1
			c-0.2-1-0.4-2.1-0.7-3.2c-0.2-0.8-0.2-0.8,0.5-1.4c2,1.6,3.9,3.1,5.9,4.7c-0.1,0.4-0.4,0.6-0.6,0.9c-1.6-1-2.9-2.4-4.4-3.4
			C24.3,30.2,24.2,30.3,24.2,30.3z"/>
		<path fill="#FFFFFF" d="M107.6,25.8c-0.3-0.3-0.5-0.5-0.8-0.7c1.7-2,3.3-3.9,4.9-5.8c0.6,0.3,0.9,0.7,0.8,1.4
			c-0.1,1.1,0,2.1,0,3.3c1.1-0.2,2.2-0.4,3.2-0.6c0.7-0.2,1.1,0,1.5,0.6c-1.6,1.9-3.2,3.8-4.9,5.8c-0.4-0.2-0.6-0.4-0.9-0.7
			c1.2-1.4,2.4-2.9,3.6-4.3c0,0-0.1-0.1-0.1-0.1c-1,0.2-1.9,0.4-2.9,0.6c-0.7,0.1-0.7,0.1-0.7-0.6c0-1,0-1.9,0-3.1
			C110.1,22.9,108.9,24.3,107.6,25.8z"/>
		<path fill="#FFFFFF" d="M7.5,80c-0.3-0.6-0.1-1,0.3-1.4c1.5-1.5,3-3.1,4.6-4.6c0.1-0.1,0.2-0.2,0.3-0.5c-1.9,0.1-3.8,0.3-5.7,0.4
			c-0.2-0.3-0.1-0.6-0.2-1c2.6-0.2,5.1-0.4,7.7-0.6c0.3,0.6,0.2,1-0.2,1.4c-1.7,1.6-3.3,3.2-5.1,4.9c0.5,0.2,0.9,0.1,1.2,0.1
			c1.3-0.1,2.6-0.2,3.8-0.3c0.9-0.1,0.9,0,0.8,1C12.5,79.6,10,79.8,7.5,80z"/>
		<path fill="#FFFFFF" d="M80,14.2c-0.4,0-0.7,0-1-0.2c0.4-2.5,0.9-5,1.3-7.4c0.6-0.1,0.9,0.1,1.2,0.5c1,1.8,2.1,3.6,3.2,5.3
			c0.1,0.2,0.2,0.5,0.6,0.7c0.3-1.9,0.7-3.7,1-5.5c1-0.1,1.1,0,0.9,0.9c-0.4,2-0.7,4.1-1.1,6.1c0,0.2,0,0.4-0.2,0.6
			c-0.6,0.1-1-0.2-1.3-0.7c-1.1-1.9-2.2-3.7-3.3-5.6c-0.1-0.1-0.1-0.2-0.3-0.4C80.6,10.6,80.3,12.4,80,14.2z"/>
		<path fill="#FFFFFF" d="M38.6,22.4c-1.2-1.6-2.3-3.1-3.5-4.6c0.2-0.3,0.5-0.5,0.8-0.7c1.5,2,3,4,4.6,6.1c-0.4,0.5-0.8,0.7-1.4,0.5
			c-2-0.5-4-0.9-6-1.3c-0.2,0-0.4-0.1-0.7-0.1c0,0.3,0.2,0.4,0.4,0.6c0.8,1.1,1.6,2.2,2.4,3.3c0.5,0.7,0.4,0.8-0.4,1.2
			c-0.3-0.4-0.6-0.7-0.9-1.1c-1.1-1.5-2.3-3-3.4-4.5c-0.1-0.2-0.4-0.4-0.2-0.6c0.2-0.3,0.5-0.4,0.9-0.4c0.9,0.2,1.8,0.4,2.7,0.6
			c1.3,0.3,2.5,0.5,3.8,0.8C38,22.3,38.2,22.4,38.6,22.4z"/>
		<path fill="#FFFFFF" d="M117.4,35.2c2.1-1.5,4.1-2.9,6.2-4.4c0.5,0.4,0.6,0.7,0.5,1.3c-0.5,2.1-1,4.2-1.5,6.2c0,0.2-0.1,0.4,0,0.7
			c1.5-1.1,3-2.1,4.6-3.2c0.3,0.2,0.4,0.5,0.7,0.8c-2.1,1.5-4.2,3-6.2,4.4c-0.5-0.4-0.6-0.8-0.5-1.4c0.5-2,1-4,1.4-5.9
			c0.1-0.2,0.2-0.4,0.1-0.7c-0.3-0.1-0.4,0.1-0.5,0.2c-1.1,0.8-2.3,1.6-3.4,2.4C117.9,36.1,117.9,36.1,117.4,35.2z"/>
		<path fill="#FFFFFF" d="M134.9,82.5c-1.8-0.4-3.6-0.8-5.4-1.2c-0.1-1,0-1.1,1-0.9c1.9,0.4,3.9,0.8,5.9,1.2
			c0.3,0.1,0.5,0.1,0.8,0.2c0,0.7-0.2,1.1-0.8,1.4c-0.8,0.4-1.6,0.8-2.3,1.2c-0.2,0.1-0.4,0.1-0.5,0.4c0.7,0.9,1.4,1.8,2.2,2.7
			c0.2,0.2,0.2,0.5,0.2,0.8c-0.1,0.4-0.2,0.6-0.7,0.5c-2.1-0.5-4.2-0.9-6.3-1.3c-0.2,0-0.4,0-0.6-0.2c0-0.3,0-0.6,0.3-1
			c1.8,0.4,3.7,0.8,5.5,1.2c0,0,0.1-0.1,0.1-0.1c-0.4-0.4-0.7-0.9-1.1-1.3c-0.3-0.4-0.6-0.8-0.9-1.1c-0.3-0.4-0.2-0.6,0.2-0.8
			c0.9-0.4,1.8-0.9,2.7-1.4C134.9,82.6,134.9,82.5,134.9,82.5z"/>
		<path fill="#FFFFFF" d="M21.8,40c-1-0.6-1.8-1-2.6-1.5c-0.8-0.5-1.6-0.9-2.5-1.4c0.1-0.2,0.2-0.4,0.3-0.6c0.1-0.2,0.2-0.3,0.5-0.1
			c2.2,1.1,4.2,2.4,6.4,3.6c-0.2,0.6-0.4,0.9-1.1,1c-1.9,0.3-3.7,0.7-5.6,1.1c-0.4,0.1-0.7,0.1-1.2,0.4c1.7,0.9,3.2,1.9,4.8,2.8
			c0,0.4-0.3,0.6-0.4,1c-2.2-1.3-4.4-2.5-6.6-3.8c0.1-0.6,0.5-0.9,1-1c2.2-0.4,4.4-0.9,6.5-1.3C21.5,40.1,21.6,40,21.8,40z"/>
		<path fill="#FFFFFF" d="M18.6,49.9c0,2.5-1.8,4.4-4,4.4c-2.2,0-4-1.7-4-3.9c0-2.4,1.8-4.4,4.1-4.4C16.9,46,18.6,47.7,18.6,49.9z
			 M11.7,50.3c0,1.6,1.3,2.9,3,2.9c1.6,0,2.9-1.4,2.9-3.1c0-1.6-1.3-2.9-2.9-2.9C13,47.2,11.7,48.6,11.7,50.3z"/>
		<path fill="#FFFFFF" d="M61.3,7c0.7-0.3,1.2-0.2,1.6,0.3c0.7,0.8,1.5,1.6,2.3,2.4c0.7-1.1,1.3-2,1.8-2.9c0.4-0.7,0.5-0.7,1.4-0.6
			c0.3,2.5,0.6,5,0.9,7.4c-0.4,0.2-0.7,0.2-1.1,0.2c-0.2-1.9-0.4-3.8-0.7-5.6c0,0-0.1,0-0.1-0.1c-0.6,1-1.3,2-2,3.1
			c-0.9-0.9-1.7-1.7-2.6-2.5c-0.1,0-0.1,0-0.2,0.1c0.2,1.8,0.4,3.7,0.6,5.5c-0.3,0.2-0.7,0.2-1.1,0.2C61.9,12.1,61.6,9.6,61.3,7z"/>
		<path fill="#FFFFFF" d="M103.1,15.6c-0.6-0.8-1.2-1.5-2.1-1.9c-1.5-0.8-3.2-0.2-4,1.2c-0.8,1.5-0.3,3.1,1.2,4
			c0.1,0.1,0.2,0.1,0.3,0.1c1.4,0.6,1.7,0.5,2.2-1c-0.4-0.2-0.8-0.4-1.2-0.6c0.2-0.9,0.3-1,1.1-0.6c0.5,0.2,1,0.5,1.6,0.8
			c-0.4,0.9-0.9,1.8-1.3,2.7c-0.1,0.2-0.2,0.2-0.4,0.2c-1.8,0.1-4.2-1.3-4.8-2.9c-0.6-1.5-0.2-2.8,0.8-4c1-1.2,2.3-1.5,3.8-1.2
			c1.2,0.2,2.2,1,3,1.9C103.8,14.8,103.2,15.1,103.1,15.6z"/>
		<path fill="#FFFFFF" d="M16.7,55.4c0,1-0.1,1.2-0.9,1.5c-0.8,0.3-1.6,0.5-2.4,1c-0.5,0.3-0.8,0.7-0.9,1.4c1,0.2,2.1,0.5,3.1,0.7
			c0,1,0,1.1-1,0.9c-2-0.5-4-0.9-6-1.4c-0.2,0-0.4,0-0.6-0.2c0.2-0.9,0.3-1.9,0.8-2.7c0.4-0.7,1-1.2,1.8-1.1c0.8,0,1.6,0.3,1.8,1.2
			c0,0.1,0.2,0.2,0.3,0.3C14,56.3,15.4,56,16.7,55.4z M11.5,59.1c0.2-0.5,0.3-0.9,0.3-1.3c0-0.7-0.6-1.2-1.3-1.1
			c-0.7,0.1-1.4,1.1-1.2,1.7c0,0.1,0.1,0.2,0.3,0.2C10.2,58.8,10.8,58.9,11.5,59.1z"/>
		<path fill="#FFFFFF" d="M94.1,17.8c-1-0.1-1.1-0.2-1.2-1c0-0.1,0-0.1,0-0.2c0.1-1.2-0.4-1.8-1.6-2.1c-1.6-0.4-1.6-0.5-2.7,0.7
			C87.9,16,87.9,16,87,15.5c0.8-0.9,1.6-1.8,2.4-2.7c0.9-1.1,1.9-2.1,2.8-3.2c0.2-0.2,0.3-0.4,0.6-0.2c0.2,0.1,0.4,0.2,0.4,0.5
			C93.5,12.4,93.8,15.1,94.1,17.8z M92.3,11.2c-0.1,0-0.1,0-0.2-0.1c-0.6,0.7-1.1,1.3-1.8,2.1c0.8,0.3,1.5,0.5,2.2,0.7
			C92.5,13,92.4,12.1,92.3,11.2z"/>
		<path fill="#FFFFFF" d="M53,16.9c-0.6,0.6-0.9,0.6-1.4,0c-0.8-1-1.6-1.3-2.8-0.6c-1.4,0.8-1.5,0.6-1.5,2.2c0,1,0,1-1,1.3
			c-0.1-0.2-0.1-0.4-0.1-0.6c0-2.4,0-4.8,0-7.2c0-0.3,0-0.6,0.4-0.8c0.4-0.2,0.5,0.1,0.7,0.3c1.7,1.6,3.4,3.1,5.1,4.7
			C52.7,16.5,52.9,16.6,53,16.9z M47.4,15.9c0.7-0.3,1.4-0.6,2.1-0.9c-0.7-0.7-1.4-1.3-2.1-1.9C47.4,14,47.4,14.9,47.4,15.9z"/>
		<path fill="#FFFFFF" d="M113.4,30.9c1.9-1.8,3.7-3.5,5.7-5.2c1,1.1,2,2.1,2.9,3.1c-0.2,0.3-0.4,0.5-0.7,0.7
			c-0.7-0.8-1.4-1.5-2.1-2.3c-0.6,0.5-1.2,1-1.7,1.5c0.7,0.7,1.4,1.5,2,2.2c-0.1,0.3-0.4,0.5-0.7,0.7c-0.7-0.7-1.4-1.5-2.1-2.3
			c-0.6,0.5-1.1,1-1.7,1.6c0.8,0.8,1.5,1.6,2.2,2.4c-0.5,0.8-0.6,0.8-1.2,0.2C115.1,32.7,114.3,31.9,113.4,30.9z"/>
		<path fill="#FFFFFF" d="M28.5,23c0.3,0.2,0.5,0.4,0.7,0.7c-0.7,0.7-1.5,1.4-2.2,2.2c0.6,0.5,1.2,1,1.9,1.6
			c0.5-0.6,1.1-1.4,1.8-2.1c0.5,0.3,0.6,0.5,0.8,0.8c-0.7,0.7-1.5,1.4-2.2,2.2c0.6,0.5,1.2,1,1.8,1.6c0.7-0.6,1.5-1.4,2.2-2.1
			c0.3,0.2,0.5,0.4,0.6,0.6c-1,1.1-2,2.1-2.9,3c-1.3-1.2-2.5-2.3-3.7-3.5c-0.5-0.5-1-0.9-1.4-1.4c-0.2-0.2-0.4-0.5-0.1-0.8
			C26.6,24.8,27.5,23.9,28.5,23z"/>
		<path fill="#FFFFFF" d="M16.2,85c-2.5,0.5-5,1-7.5,1.5c-0.3-1.5-0.6-2.8-0.8-4.2c0.3-0.2,0.6-0.2,1-0.2c0.2,0.8,0.4,1.7,0.5,2.5
			c0.1,0.5,0.3,0.6,0.8,0.5c0.5-0.2,1.1-0.2,1.6-0.4c-0.2-1-0.4-2-0.6-2.9c0.3-0.2,0.6-0.3,1-0.2c0.2,0.8,0.3,1.6,0.5,2.4
			c0.1,0.4,0.2,0.6,0.7,0.5c0.6-0.2,1.2-0.2,1.7-0.4c-0.2-1.1-0.4-2.1-0.6-3.1c0.3-0.2,0.6-0.2,1-0.2C15.6,82.1,15.8,83.5,16.2,85z"
			/>
		<path fill="#FFFFFF" d="M106.3,23.5c-0.1,0.3-0.3,0.6-0.5,0.8c-1.2-0.8-2.4-1.6-3.7-2.4c1.4-2.2,2.7-4.3,4.2-6.5
			c1.2,0.8,2.4,1.6,3.6,2.3c-0.1,0.4-0.3,0.6-0.5,0.8c-0.9-0.5-1.7-1.1-2.7-1.7c-0.5,0.6-0.8,1.2-1.3,1.9c0.9,0.6,1.7,1.1,2.6,1.7
			c-0.1,0.3-0.2,0.6-0.5,0.8c-0.8-0.5-1.7-1.1-2.6-1.6c-0.4,0.7-0.8,1.3-1.3,1.9C104.4,22.3,105.3,22.9,106.3,23.5z"/>
		<path fill="#FFFFFF" d="M137.4,79.4c-0.4,0.1-0.7,0.1-1-0.1c0.1-0.9,0.1-1.7,0.2-2.6c0-0.4-0.1-0.6-0.5-0.6
			c-0.6,0-1.1-0.1-1.8-0.1c-0.1,0.8-0.1,1.6-0.2,2.3c-0.1,0.9-0.1,0.9-1.1,0.6c0.1-1,0.1-2,0.2-3.1c-0.7-0.1-1.4-0.1-2-0.2
			c-0.4,0-0.3,0.2-0.4,0.5c-0.1,0.7-0.1,1.4-0.2,2.1c-0.1,0.9-0.1,0.9-1,0.6c0.1-1.4,0.2-2.9,0.4-4.4c2.6,0.2,5.1,0.4,7.7,0.6
			C137.7,76.6,137.5,78,137.4,79.4z"/>
		<path fill="#FFFFFF" d="M70.3,13.7c0.8-1.7,1.6-3.4,2.3-5.1c0.3-0.7,0.7-1.4,1-2.2c0.1-0.3,0.3-0.3,0.6-0.3c0.2,0,0.4,0,0.5,0.2
			c0,0.2,0.1,0.3,0.2,0.5c0.9,2.3,1.9,4.7,2.8,7c-0.9,0.3-1,0.2-1.3-0.6c-0.7-1.7-0.7-1.6-2.4-1.7c-1.3-0.1-1.9,0.3-2.3,1.5
			C71.5,13.9,71.4,13.9,70.3,13.7z M74.2,7.8c-0.4,1-0.8,1.8-1.2,2.7c0.8,0,1.5,0.1,2.3,0C74.9,9.7,74.6,8.8,74.2,7.8z"/>
		<path fill="#FFFFFF" d="M136,65.5c0.1-0.3,0.2-0.5,0.3-0.8c0.2-0.4,0.2-0.8,0.1-1.2c-0.1-0.4-0.3-0.9-0.8-0.9
			c-0.5-0.1-0.8,0.2-1,0.6c-0.2,0.5-0.4,0.9-0.7,1.4c-0.3,0.6-0.6,1.1-1.2,1.5c-1.3,0.7-2.8,0.1-3.1-1.3c-0.1-0.3-0.1-0.7-0.1-1
			c0.1-1.3,0.3-1.6,1.7-1.6c0.1,0.2-0.1,0.3-0.2,0.4c-0.4,0.6-0.6,1.3-0.4,2c0.3,0.8,1.1,1,1.7,0.4c0.3-0.3,0.5-0.6,0.6-1
			c0.3-0.6,0.5-1.3,1-1.8c0.9-0.9,2.3-0.8,3,0.3c0.6,0.8,0.6,1.7,0.2,2.6C137.1,65.4,137,65.4,136,65.5z"/>
		<path fill="#FFFFFF" d="M128.2,50.4c-0.3,0.7-0.6,1.3-0.4,2c0.1,0.5,0.4,1,1,1.1c0.6,0.1,0.8-0.4,1.1-0.9c0.2-0.4,0.3-0.8,0.4-1.3
			c0-0.2,0.1-0.3,0.1-0.5c0.4-1.4,1.4-2.2,2.5-1.9c1.2,0.3,2,1.8,1.7,3.1c-0.2,0.6-0.7,0.5-1.1,0.6c-0.1-0.2,0-0.4,0.1-0.6
			c0.1-0.4,0.1-0.9-0.1-1.3c-0.2-0.5-0.4-0.9-1-0.9c-0.6,0-0.8,0.4-0.9,0.9c-0.2,0.5-0.2,1.1-0.4,1.7c-0.2,0.9-0.6,1.6-1.6,1.9
			c-1,0.3-2.1-0.1-2.5-1.1c-0.2-0.4-0.3-0.8-0.3-1.3C126.7,50.8,126.9,50.6,128.2,50.4z"/>
		<path fill="#FFFFFF" d="M6.9,70.8c-0.2-1-0.1-1.1,0.7-1.3c1.4-0.5,2.7-1,4.1-1.5c0.2-0.1,0.4-0.1,0.6-0.3
			c-1.2-0.6-2.4-1.2-3.5-1.8c-0.3-0.2-0.6-0.3-0.9-0.4c-0.7-0.4-0.8-0.5-0.5-1.4c2.5,1.2,4.9,2.5,7.4,3.7c0,0.1,0,0.2,0,0.2
			C12.2,68.9,9.5,69.9,6.9,70.8z"/>
		<path fill="#FFFFFF" d="M136.8,67c0.3-0.1,0.6-0.1,1,0c0,2.1,0,4.2,0,6.3c-0.9,0.2-0.9,0.1-0.9-0.7c0-0.4,0-0.9,0-1.3
			c0-0.5-0.2-0.6-0.6-0.6c-1.8,0.1-3.5,0.1-5.3,0.1c-0.3,0-0.5,0-0.8,0c-0.2-0.4-0.1-0.7,0-1.2c1.3,0,2.5,0,3.8,0
			c0.7,0,1.5-0.1,2.2,0c0.5,0,0.6-0.2,0.6-0.6C136.8,68.3,136.8,67.7,136.8,67z"/>
		<path fill="#FFFFFF" d="M131.9,44.1c-0.3,0.2-0.6,0.3-0.9,0.5c-0.4-0.8-0.8-1.6-1.3-2.4c-2,1-3.9,2.1-5.9,3.1
			c-0.2-0.2-0.3-0.4-0.4-0.5c-0.2-0.3-0.1-0.5,0.2-0.6c1.1-0.6,2.1-1.1,3.2-1.7c0.7-0.4,1.4-0.9,2.3-1.2c-0.4-0.8-0.8-1.6-1.2-2.4
			c0.3-0.2,0.5-0.3,0.9-0.5C129.9,40.3,130.9,42.2,131.9,44.1z"/>
		<path fill="#FFFFFF" d="M128.8,59.2c-0.2-0.4-0.2-0.7-0.2-1.1c1.1-0.2,2.1-0.5,3.2-0.7c0.5-0.1,0.9-0.4,1.2-0.8
			c0.8-1,1.5-1.9,2.3-2.9c0.4,0.8,0.4,1.4-0.3,2.1c-0.5,0.5-0.9,1.1-1.4,1.8c0.8,0.4,1.4,0.8,2.2,1c0.8,0.3,1,0.8,1.1,1.6
			c-0.5,0-1-0.3-1.4-0.6c-1.8-1.2-3.6-1.4-5.6-0.6C129.6,59.1,129.2,59.1,128.8,59.2z"/>
		<path fill="#FFFFFF" d="M44.8,20.8c-0.3,0.2-0.6,0.4-1,0.5c-1.1-2-2.2-3.9-3.2-5.8c-0.6,0.2-1.1,0.6-1.7,0.9
			c-0.7,0.4-0.7,0.3-1-0.5c1.8-1,3.6-2,5.5-3.1c0.6,0.8,0.6,0.9-0.1,1.2c-0.6,0.3-1.1,0.6-1.6,1C42.6,17,43.7,18.9,44.8,20.8z"/>
		<path fill="#FFFFFF" d="M54.8,15.5c0.9-0.3,1.7-0.5,2.5-0.7c0.9-0.3,0.9-0.3,1,0.8c-1.4,0.4-2.8,0.8-4.3,1.3
			c-0.7-2.5-1.5-4.9-2.2-7.3c0.4-0.2,0.7-0.3,1.1-0.3C53.6,11.2,54.2,13.3,54.8,15.5z"/>
		<path fill="#FFFFFF" d="M7.6,62.7c0.1-0.4,0.1-0.7,0.1-1.1c2.5,0.4,5,0.7,7.5,1.1c0.1,0.4,0,0.7-0.1,1.1
			C12.6,63.5,10.1,63.1,7.6,62.7z"/>
	</g>
</g>
</svg>
