<?xml version="1.0" encoding="utf-8"?>
<!-- Generator: Adobe Illustrator 20.1.0, SVG Export Plug-In . SVG Version: 6.00 Build 0)  -->
<svg version="1.1" id="Layer_1" xmlns="http://www.w3.org/2000/svg" xmlns:xlink="http://www.w3.org/1859894/xlink" x="0px" y="0px"
	 viewBox="0 0 198.2 53.1" enable-background="new 0 0 198.2 53.1" xml:space="preserve">
<g opacity="0.9">
	<path fill="#859894" d="M0,52h21.6l1.7-12h-4.5l2.9-4h11.8l0.7,4h-5.7l-1.5,12h21.2l1.8-12h-3.6l-4-25h4.9l1.5-11H16.5l-1.6,11h4.8
		L6.4,40H1.6L0,52z M25.1,28l6.2-14.8L32.8,28H25.1z M72.7,52h13.5l1.7-12h-3.6l6.3-36H75.4l-1.6,11h3.8L76,23.7
		c-1.8-2-4.4-3.2-7.9-3.2c-9.6,0-16.7,7.3-16.7,18.6c0,8.6,5.1,14.1,12.3,14.1c3.6,0,6.3-1.4,9.5-3.9L72.7,52z M69.6,30
		c3.2,0,5.1,2.2,5.1,5.6c0,4.1-2.4,7.3-6,7.3c-3.4,0-5.5-2.2-5.5-5.8C63.2,32.8,65.7,30,69.6,30L69.6,30z M86.8,52h14.9l2.4-14h0.5
		l5.5,6h-3.4l-1.1,8h16.8l1.6-12h-3l-5.9-6.1l7.1-4.9h3.4l1.6-10h-16.2l-1.3,9h3.2l-8.5,6.5L109.9,4H94.2l-1.6,11h4l-5.1,25h-3
		L86.8,52z M149.2,41.7c-1.8,1.6-3.6,2.2-5.7,2.2c-3.5,0-5.7-3.9-5.7-5.9h21.5c0.1,0,0.1-1.5,0.1-2.3c0-9.9-5.9-15.6-15.3-15.6
		c-11,0-18.2,7.5-18.2,17.3c0,9.7,6.4,15.5,16.4,15.5c5.9,0,11-2.1,14.8-6.2L149.2,41.7z M138.2,34c0.8-5,2.7-5.3,5.7-5.3
		c2.9,0,4.8,1.8,4.8,4.6c0,0.2-0.1-1.3-0.1,0.7H138.2z M168.7,52H181l13-23h2.5l1.7-10h-16.8l-1.6,10h3l-6.1,11.5L173.8,29h2.4
		l1.6-10h-16.3l-1.7,10h3.6L168.7,52z"/>
	<path fill="#859894" d="M194.4,13.5c0,1.1,0.9,1.9,1.9,1.9c1.1,0,1.9-0.8,1.9-1.9c0-1.1-0.8-1.9-2-1.9
		C195.3,11.6,194.4,12.4,194.4,13.5"/>
	<path fill="#859894" d="M192.3,10h1l0.7-6h-2.6l-0.2,1.8c-0.8-0.7-1.6-0.4-2.7-0.4c-2.7,0-4.6,2.4-4.6,5.1c0,2.8,1.9,4.8,4.7,4.8
		c1.8,0,3.4-0.6,4.6-2l-2.6-1.9c-0.4,0.6-1,1-1.7,1c-0.9,0-1.6-0.7-1.6-1.6c0-1.1,0.7-1.8,1.6-1.8c0.7,0,2.1,1.1,2.4,1.1"/>
	<path fill="#859894" d="M177.6,12h-1l0.4-2.3c0.2-1,0.7-1.3,1.4-1.3c0.5,0,0.7,0.2,0.7,0.7c0,0.1,0,0.1,0,0.2l-1,5.7h4.5l0.5-3H182
		l0.5-2.8c0.1-0.8,0.2-1.2,0.2-1.5c0-1.2-0.7-1.8-2.1-1.8c-1.2,0-2.4-0.5-3.5,0.6l0.2-2.5h-4.3l-0.5,6h1.1l-0.6,2H172l-0.5,3h5.5
		L177.6,12z"/>
	<polygon fill="#859894" points="170.8,12 169.5,12 171,4 172.3,4 172.8,0 166.5,0 166,4 167.4,4 165.9,12 164.6,12 164.1,15 
		170.4,15 	"/>
	<polygon fill-rule="evenodd" clip-rule="evenodd" fill="#859894" points="114.5,4 161.2,4 159.4,15 112.7,15 	"/>
</g>
<g>
	<g>
		<g opacity="0.7">
			<defs>
				<path id="SVGID_74_" opacity="0.7" d="M497.6-97.9c-14.9,0-28-2.3-39.5-6.9c-11.5-4.6-20.6-10.8-27.4-18.5l21.1-28.4
					c5.7,5.5,12.6,9.7,20.7,12.6c8.2,2.9,16,4.4,23.4,4.4c8.7,0,15.4-1.5,20.1-4.4c4.7-2.9,7-6.7,7-11.4c0-4.8-2.1-8.4-6.4-10.5
					c-4.3-2.2-11.8-3.3-22.4-3.3c-11.3,0-17.8,0.2-21.8,0.5v-37.1c3,0.2,9.4,0.2,21.8,0.2c17.5,0,26.2-4.2,26.2-12.6
					c0-4.8-2.5-8.5-7.5-11c-5-2.5-11.6-3.8-19.6-3.8c-15.2,0-28.6,5.2-40.2,15.5l-20.1-26.2c15.8-17.5,37.4-26.2,64.7-26.2
					c20.4,0,36.2,4,47.4,12c11.2,8,16.8,18.8,16.8,32.4c0,9.2-3.4,17.2-10.3,23.9c-6.9,6.7-15.2,10.9-25.1,12.5
					c9.7,1,18.5,4.9,26.3,11.8c7.8,6.9,11.8,15.7,11.8,26.5c0,14.2-6.1,25.8-18.4,34.7C533.8-102.4,517.6-97.9,497.6-97.9z"/>
			</defs>
			<clipPath id="SVGID_2_">
				<use xlink:href="#SVGID_74_"  overflow="visible"/>
			</clipPath>
		</g>
	</g>
</g>
</svg>
