<?xml version="1.0" encoding="utf-8"?>
<!-- Generator: Adobe Illustrator 20.1.0, SVG Export Plug-In . SVG Version: 6.00 Build 0)  -->
<svg version="1.1" id="Layer_1" xmlns="http://www.w3.org/2000/svg" xmlns:xlink="http://www.w3.org/1999/xlink" x="0px" y="0px"
	 viewBox="0 0 144.5 130.7" enable-background="new 0 0 144.5 130.7" xml:space="preserve">
<g opacity="0.6">
	<g>
		<path fill="#FFFFFF" d="M59.8,116.1H8V65C8,37,30.8,14.3,59.2,14.3c28.2,0,50.9,22.8,50.9,50.9C110.2,93.4,87.5,116.1,59.8,116.1z
			 M10,114.1h49.8c26.7,0,48.4-21.9,48.4-49S86.4,16,59.3,16C31.9,16,10,38,10,65V114.1z"/>
	</g>
	<g>
		<path fill="#FFFFFF" d="M23.8,92.2h-3.3V79.4h6.4c1.4,0,2.5,0.4,3.3,1.2c0.8,0.8,1.2,1.8,1.2,3c0,1.2-0.4,2.2-1.2,3
			c-0.8,0.8-1.9,1.2-3.3,1.2h-3.1V92.2z M26.4,85c0.5,0,0.8-0.1,1.1-0.4c0.3-0.2,0.5-0.6,0.5-1s-0.2-0.8-0.5-1
			c-0.3-0.3-0.7-0.4-1.1-0.4h-2.6V85H26.4z"/>
		<path fill="#FFFFFF" d="M36.2,92.2h-3.3V79.4h6.4c1.4,0,2.5,0.4,3.3,1.2c0.8,0.8,1.2,1.8,1.2,3c0,1.2-0.4,2.2-1.2,3
			c-0.8,0.8-1.9,1.2-3.3,1.2h-3.1V92.2z M38.8,85c0.5,0,0.8-0.1,1.1-0.4c0.3-0.2,0.5-0.6,0.5-1s-0.2-0.8-0.5-1
			c-0.3-0.3-0.7-0.4-1.1-0.4h-2.6V85H38.8z"/>
		<path fill="#FFFFFF" d="M56.4,92.2h-3.8L52,90.4h-5.1l-0.6,1.8h-3.8l4.8-12.8h4.2L56.4,92.2z M51.1,87.5l-1.6-4.8l-1.6,4.8H51.1z"
			/>
		<path fill="#FFFFFF" d="M60.6,92.2h-3.3V79.4h6.4c1.4,0,2.5,0.4,3.3,1.2c0.8,0.8,1.2,1.8,1.2,3c0,1.2-0.4,2.2-1.2,3
			c-0.8,0.8-1.9,1.2-3.3,1.2h-3.1V92.2z M63.2,85c0.5,0,0.8-0.1,1.1-0.4c0.3-0.2,0.5-0.6,0.5-1s-0.2-0.8-0.5-1
			c-0.3-0.3-0.7-0.4-1.1-0.4h-2.6V85H63.2z"/>
	</g>
	<g>
		<path fill="#FFFFFF" d="M24.9,105.9c-1.4,0-2.6-0.5-3.5-1.4c-0.9-0.9-1.4-2.1-1.4-3.5s0.5-2.6,1.4-3.5c0.9-0.9,2.1-1.4,3.5-1.4
			c1.7,0,2.9,0.7,3.8,2.1L27.3,99c-0.2-0.4-0.6-0.7-1-1c-0.4-0.3-0.9-0.4-1.4-0.4c-0.9,0-1.7,0.3-2.3,1c-0.6,0.6-0.9,1.5-0.9,2.4
			c0,1,0.3,1.8,0.9,2.4c0.6,0.6,1.4,1,2.3,1c0.5,0,1-0.1,1.4-0.4c0.4-0.3,0.8-0.6,1-1l1.4,0.7C27.8,105.2,26.5,105.9,24.9,105.9z"/>
		<path fill="#FFFFFF" d="M33.2,105.9c-1,0-1.9-0.3-2.6-1c-0.7-0.7-1-1.5-1-2.6c0-1,0.3-1.8,1-2.5c0.7-0.7,1.5-1,2.5-1
			c1,0,1.8,0.3,2.4,1c0.6,0.7,0.9,1.6,0.9,2.7v0.4h-5.3c0.1,0.5,0.3,1,0.7,1.3c0.4,0.4,0.9,0.5,1.5,0.5c0.8,0,1.4-0.3,2-0.8l0.7,1
			C35.2,105.6,34.3,105.9,33.2,105.9z M35,101.8c0-0.5-0.2-0.9-0.5-1.3c-0.3-0.4-0.8-0.5-1.4-0.5c-0.6,0-1,0.2-1.4,0.5
			c-0.3,0.4-0.5,0.8-0.5,1.3H35z"/>
		<path fill="#FFFFFF" d="M39.4,105.7h-1.5v-6.8h1.5v1c0.3-0.3,0.6-0.6,1-0.8c0.4-0.2,0.8-0.3,1.2-0.3v1.5c-0.1,0-0.3,0-0.5,0
			c-0.3,0-0.7,0.1-1,0.3c-0.4,0.2-0.6,0.4-0.8,0.6V105.7z"/>
		<path fill="#FFFFFF" d="M44.9,105.9c-1.2,0-1.8-0.6-1.8-1.8v-4H42v-1.3h1.1V97h1.5v1.9H46v1.3h-1.4v3.6c0,0.2,0.1,0.4,0.2,0.6
			c0.1,0.2,0.3,0.2,0.5,0.2c0.3,0,0.5-0.1,0.7-0.3l0.4,1.1C45.9,105.8,45.4,105.9,44.9,105.9z"/>
		<path fill="#FFFFFF" d="M48.7,97.8c-0.2,0.2-0.4,0.3-0.7,0.3c-0.3,0-0.5-0.1-0.7-0.3c-0.2-0.2-0.3-0.4-0.3-0.7
			c0-0.3,0.1-0.5,0.3-0.7s0.4-0.3,0.7-0.3c0.3,0,0.5,0.1,0.7,0.3s0.3,0.4,0.3,0.7C49,97.4,48.9,97.6,48.7,97.8z M48.8,105.7h-1.5
			v-6.8h1.5V105.7z"/>
		<path fill="#FFFFFF" d="M52.6,105.7h-1.5v-5.6H50v-1.3h1.1v-0.4c0-0.7,0.2-1.3,0.6-1.7s0.9-0.6,1.6-0.6c0.5,0,0.9,0.1,1.2,0.3
			l-0.3,1.1c-0.2-0.1-0.4-0.2-0.6-0.2c-0.6,0-0.9,0.4-0.9,1.1v0.4H54v1.3h-1.4V105.7z M56.5,97.8c-0.2,0.2-0.4,0.3-0.7,0.3
			c-0.3,0-0.5-0.1-0.7-0.3c-0.2-0.2-0.3-0.4-0.3-0.7c0-0.3,0.1-0.5,0.3-0.7c0.2-0.2,0.4-0.3,0.7-0.3c0.3,0,0.5,0.1,0.7,0.3
			s0.3,0.4,0.3,0.7C56.8,97.4,56.7,97.6,56.5,97.8z M56.6,105.7h-1.5v-6.8h1.5V105.7z"/>
		<path fill="#FFFFFF" d="M61.7,105.9c-1,0-1.9-0.3-2.6-1c-0.7-0.7-1-1.5-1-2.6c0-1,0.3-1.8,1-2.5c0.7-0.7,1.5-1,2.5-1
			c1,0,1.8,0.3,2.4,1c0.6,0.7,0.9,1.6,0.9,2.7v0.4h-5.3c0.1,0.5,0.3,1,0.7,1.3c0.4,0.4,0.9,0.5,1.5,0.5c0.8,0,1.4-0.3,2-0.8l0.7,1
			C63.7,105.6,62.8,105.9,61.7,105.9z M63.5,101.8c0-0.5-0.2-0.9-0.5-1.3c-0.3-0.4-0.8-0.5-1.4-0.5c-0.6,0-1,0.2-1.4,0.5
			c-0.3,0.4-0.5,0.8-0.5,1.3H63.5z"/>
		<path fill="#FFFFFF" d="M72.7,105.7h-1.5v-0.9c-0.6,0.7-1.3,1.1-2.2,1.1c-0.9,0-1.6-0.3-2.2-1c-0.6-0.6-0.8-1.5-0.8-2.6
			c0-1.1,0.3-2,0.8-2.6c0.6-0.7,1.3-1,2.2-1c0.9,0,1.6,0.4,2.2,1.1v-3.6h1.5V105.7z M69.5,104.6c0.3,0,0.7-0.1,1-0.3
			c0.3-0.2,0.6-0.4,0.8-0.7V101c-0.2-0.3-0.4-0.5-0.8-0.7c-0.3-0.2-0.7-0.3-1-0.3c-0.6,0-1.1,0.2-1.4,0.6c-0.4,0.4-0.5,1-0.5,1.6
			c0,0.7,0.2,1.2,0.5,1.6C68.4,104.4,68.9,104.6,69.5,104.6z"/>
	</g>
	<g id="Vrouw5.tif_2_">
		<g>
			<g>
				<path fill="#FFFFFF" d="M137,29.7c-0.7,1.9-1.8,3.5-3.1,5c-2.9,3.2-5.8,6.5-8.7,9.7c-10.9,12.1-20.3,25.2-28.7,39.2
					c-1.7,2.8-3.3,5.7-5,8.5c-1.3,2.2-3,3.6-5.6,3.7c0,0-0.1,0.1-0.1,0.1c-0.1,0-0.3,0-0.4,0c-0.1-0.2-0.3-0.1-0.4-0.2
					c-1.4-0.3-2.6-1-3.4-2.1c-0.6-0.8-1.1-1.7-1.4-2.6c-1.5-3.7-3.3-7.3-5.3-10.8c-2.4-4.2-5.1-8.2-8.5-11.7
					c-1.5-1.5-3.2-2.9-3.8-5.1c0-0.2,0-0.5,0-0.7c0.2-0.4,0.3-0.9,0.5-1.3c0.9-1.9,2.5-2.5,4.5-1.7c1.8,0.7,3.2,1.9,4.7,3.1
					c4.6,3.8,8.3,8.3,11.7,13.2c0.7,1.1,1.5,2.1,2.2,3.2c0.2,0,0.3-0.2,0.4-0.4c8.5-12.2,17.7-23.8,27.9-34.6
					c4.9-5.2,9.8-10.4,14.9-15.3c0.2-0.2,0.5-0.5,0.8-0.7c1.1-1,2.3-1.8,3.8-2.2c0.3,0,0.6,0,0.9,0c1.1,0.4,1.8,1.1,2.2,2.2
					C137,28.8,137,29.3,137,29.7z"/>
			</g>
		</g>
	</g>
</g>
</svg>
