<?xml version="1.0" encoding="utf-8"?>
<!-- Generator: Adobe Illustrator 20.1.0, SVG Export Plug-In . SVG Version: 6.00 Build 0)  -->
<svg version="1.1" id="Layer_1" xmlns="http://www.w3.org/2000/svg" xmlns:xlink="http://www.w3.org/1999/xlink" x="0px" y="0px"
	 viewBox="0 0 26.3 26.3" enable-background="new 0 0 26.3 26.3" xml:space="preserve">
<g id="news_6_">
	<path fill-rule="evenodd" clip-rule="evenodd" fill="#859894" d="M23.9,0H5.8C4.4,0,3.3,1.1,3.3,2.5v1.6H2.5C1.1,4.1,0,5.2,0,6.6
		v16.5c0,1.8,1.5,3.3,3.3,3.3H23c1.8,0,3.3-1.5,3.3-3.3V2.5C26.3,1.1,25.2,0,23.9,0z M24.7,23.1c0,0.9-0.7,1.6-1.6,1.6H3.3
		c-0.9,0-1.6-0.7-1.6-1.6V6.6c0-0.5,0.4-0.8,0.8-0.8h0.8v16.5c0,0.5,0.4,0.8,0.8,0.8c0.5,0,0.8-0.4,0.8-0.8V2.5
		c0-0.5,0.4-0.8,0.8-0.8h18.1c0.5,0,0.8,0.4,0.8,0.8V23.1z"/>
	<path fill-rule="evenodd" clip-rule="evenodd" fill="#859894" d="M16.1,10.7h6.6c0.2,0,0.4-0.2,0.4-0.4c0-0.2-0.2-0.4-0.4-0.4h-6.6
		c-0.2,0-0.4,0.2-0.4,0.4C15.6,10.5,15.8,10.7,16.1,10.7z"/>
	<path fill-rule="evenodd" clip-rule="evenodd" fill="#859894" d="M16.1,8.2h6.6c0.2,0,0.4-0.2,0.4-0.4c0-0.2-0.2-0.4-0.4-0.4h-6.6
		c-0.2,0-0.4,0.2-0.4,0.4C15.6,8.1,15.8,8.2,16.1,8.2z"/>
	<path fill-rule="evenodd" clip-rule="evenodd" fill="#859894" d="M16.1,5.8h6.6c0.2,0,0.4-0.2,0.4-0.4c0-0.2-0.2-0.4-0.4-0.4h-6.6
		c-0.2,0-0.4,0.2-0.4,0.4C15.6,5.6,15.8,5.8,16.1,5.8z"/>
	<path fill-rule="evenodd" clip-rule="evenodd" fill="#859894" d="M13.6,22.2H7c-0.2,0-0.4,0.2-0.4,0.4c0,0.2,0.2,0.4,0.4,0.4h6.6
		c0.2,0,0.4-0.2,0.4-0.4C14,22.4,13.8,22.2,13.6,22.2z"/>
	<path fill-rule="evenodd" clip-rule="evenodd" fill="#859894" d="M13.6,19.8H7c-0.2,0-0.4,0.2-0.4,0.4c0,0.2,0.2,0.4,0.4,0.4h6.6
		c0.2,0,0.4-0.2,0.4-0.4C14,19.9,13.8,19.8,13.6,19.8z"/>
	<path fill-rule="evenodd" clip-rule="evenodd" fill="#859894" d="M13.6,17.3H7c-0.2,0-0.4,0.2-0.4,0.4c0,0.2,0.2,0.4,0.4,0.4h6.6
		c0.2,0,0.4-0.2,0.4-0.4C14,17.5,13.8,17.3,13.6,17.3z"/>
	<path fill-rule="evenodd" clip-rule="evenodd" fill="#859894" d="M22.6,22.2h-6.6c-0.2,0-0.4,0.2-0.4,0.4c0,0.2,0.2,0.4,0.4,0.4
		h6.6c0.2,0,0.4-0.2,0.4-0.4C23,22.4,22.9,22.2,22.6,22.2z"/>
	<path fill-rule="evenodd" clip-rule="evenodd" fill="#859894" d="M22.6,19.8h-6.6c-0.2,0-0.4,0.2-0.4,0.4c0,0.2,0.2,0.4,0.4,0.4
		h6.6c0.2,0,0.4-0.2,0.4-0.4C23,19.9,22.9,19.8,22.6,19.8z"/>
	<path fill-rule="evenodd" clip-rule="evenodd" fill="#859894" d="M22.6,17.3h-6.6c-0.2,0-0.4,0.2-0.4,0.4c0,0.2,0.2,0.4,0.4,0.4
		h6.6c0.2,0,0.4-0.2,0.4-0.4C23,17.5,22.9,17.3,22.6,17.3z"/>
	<path fill-rule="evenodd" clip-rule="evenodd" fill="#859894" d="M22.6,12.4H7c-0.2,0-0.4,0.2-0.4,0.4s0.2,0.4,0.4,0.4h15.6
		c0.2,0,0.4-0.2,0.4-0.4S22.9,12.4,22.6,12.4z"/>
	<path fill-rule="evenodd" clip-rule="evenodd" fill="#859894" d="M22.6,14.8H7c-0.2,0-0.4,0.2-0.4,0.4c0,0.2,0.2,0.4,0.4,0.4h15.6
		c0.2,0,0.4-0.2,0.4-0.4C23,15,22.9,14.8,22.6,14.8z"/>
	<path fill-rule="evenodd" clip-rule="evenodd" fill="#859894" d="M7.4,10.7h5.8c0.5,0,0.8-0.4,0.8-0.8V4.1c0-0.5-0.4-0.8-0.8-0.8
		H7.4C7,3.3,6.6,3.7,6.6,4.1v5.8C6.6,10.3,7,10.7,7.4,10.7z M8.2,4.9h4.1v4.1H8.2V4.9z"/>
</g>
</svg>
