<?xml version="1.0" encoding="utf-8"?>
<!-- Generator: Adobe Illustrator 20.1.0, SVG Export Plug-In . SVG Version: 6.00 Build 0)  -->
<svg version="1.1" id="Layer_1" xmlns="http://www.w3.org/2000/svg" xmlns:xlink="http://www.w3.org/1999/xlink" x="0px" y="0px"
	 viewBox="0 0 44.5 44.5" enable-background="new 0 0 44.5 44.5" xml:space="preserve">
<path id="diamond_2_" fill="#0581FF" d="M41.8,14.2l-6.4-6.5C34.9,7.3,34.2,7,33.6,7H10.9c-0.7,0-1.3,0.3-1.8,0.7l-6.4,6.5
	c-0.5,0.5-0.7,1.2-0.7,1.8c0,0.6,0.2,1.2,0.6,1.7l17.8,18.9c0.5,0.5,1.2,0.9,1.9,0.9c0.7,0,1.4-0.3,1.9-0.9l17.8-18.9
	c0.4-0.5,0.6-1.1,0.6-1.7C42.6,15.3,42.3,14.7,41.8,14.2z M25.1,15.9h-5.6l2.8-2.3L25.1,15.9z M23.2,12.7l3.5-2.9l2.6,2.6l-3.2,2.7
	L23.2,12.7z M18.4,15.1l-3.2-2.7l2.6-2.6l3.5,2.9L18.4,15.1z M25.4,17.2L22.2,33l-3.2-15.8H25.4z M26.7,17.2h6.2l-9.3,15.6
	L26.7,17.2z M27,15.9l3.1-2.6l2.6,2.6H27z M28.2,9.6h4.5l-2.4,2L28.2,9.6z M22.2,11.9l-2.8-2.3h5.6L22.2,11.9z M14.2,11.6l-2.4-2
	h4.5L14.2,11.6z M14.3,13.3l3.1,2.6h-5.7L14.3,13.3z M17.8,17.2l3.1,15.6l-9.3-15.6H17.8z M18.1,30.5L5.6,17.2h4.5L18.1,30.5z
	 M34.4,17.2h4.5L26.4,30.5L34.4,17.2z M34.6,15.9l-3.4-3.4l2.9-2.4l5.8,5.9H34.6z M10.4,10l2.9,2.4l-3.4,3.4H4.5L10.4,10z"/>
</svg>
