<?xml version="1.0" encoding="utf-8"?>
<!-- Generator: Adobe Illustrator 20.1.0, SVG Export Plug-In . SVG Version: 6.00 Build 0)  -->
<svg version="1.1" id="Layer_1" xmlns="http://www.w3.org/2000/svg" xmlns:xlink="http://www.w3.org/1999/xlink" x="0px" y="0px"
	 viewBox="0 0 50 50" enable-background="new 0 0 50 50" xml:space="preserve">
<g>
	<g>
		<path fill="#333333" d="M45.8,16.5H4.2c-0.9,0-1.7-1.1-1.7-2s0.7-2,1.7-2h41.7c0.9,0,1.7,1.1,1.7,2S46.8,16.5,45.8,16.5z"/>
	</g>
	<g>
		<path fill="#333333" d="M45.8,27.5h-35c-0.9,0-1.7-1.1-1.7-2s0.7-2,1.7-2h35c0.9,0,1.7,1.1,1.7,2S46.8,27.5,45.8,27.5z"/>
	</g>
	<g>
		<path fill="#333333" d="M45.8,38.5H19.2c-0.9,0-1.7-1.1-1.7-2s0.7-2,1.7-2h26.7c0.9,0,1.7,1.1,1.7,2S46.8,38.5,45.8,38.5z"/>
	</g>
</g>
</svg>
