<?xml version="1.0" encoding="utf-8"?>
<!-- Generator: Adobe Illustrator 20.1.0, SVG Export Plug-In . SVG Version: 6.00 Build 0)  -->
<svg version="1.1" id="Layer_1" xmlns="http://www.w3.org/2000/svg" xmlns:xlink="http://www.w3.org/1999/xlink" x="0px" y="0px"
	 viewBox="0 0 44.5 44.5" enable-background="new 0 0 44.5 44.5" xml:space="preserve">
<g id="heart_2_">
	<path fill-rule="evenodd" clip-rule="evenodd" fill="#0581FF" d="M38.3,8.6c-4.4-4.4-11.5-4.5-16-0.4c-4.6-4.1-11.6-4-16,0.4
		c-4.6,4.5-4.6,11.8,0,16.3c1.3,1.3,13.4,13.3,13.4,13.3c1.4,1.4,3.8,1.4,5.2,0c0,0,13.3-13.2,13.4-13.3
		C42.8,20.4,42.8,13.1,38.3,8.6z M36.6,23.2L23.1,36.5c-0.5,0.5-1.3,0.5-1.7,0L7.9,23.2c-3.6-3.6-3.6-9.3,0-12.9
		c3.5-3.4,9-3.5,12.7-0.3l1.6,1.5l1.6-1.5c3.6-3.3,9.2-3.2,12.7,0.3C40.1,13.8,40.1,19.6,36.6,23.2z"/>
	<path fill-rule="evenodd" clip-rule="evenodd" fill="#0581FF" d="M14,11.3C14,11.3,14,11.3,14,11.3c-2.9,0-5.2,2.3-5.2,5.2l0,0
		c0,0.3,0.3,0.6,0.6,0.6c0.3,0,0.6-0.3,0.6-0.6v0c0-2.2,1.8-4,4-4h0c0.3,0,0.6-0.3,0.6-0.6C14.6,11.6,14.4,11.3,14,11.3z"/>
</g>
</svg>
