<?xml version="1.0" encoding="utf-8"?>
<!-- Generator: Adobe Illustrator 20.1.0, SVG Export Plug-In . SVG Version: 6.00 Build 0)  -->
<svg version="1.1" id="Layer_1" xmlns="http://www.w3.org/2000/svg" xmlns:xlink="http://www.w3.org/1999/xlink" x="0px" y="0px"
	 viewBox="0 0 26.3 26.3" enable-background="new 0 0 26.3 26.3" xml:space="preserve">
<g id="banknote_7_">
	<path fill-rule="evenodd" clip-rule="evenodd" fill="#859894" d="M24.3,9.3l-7.2-7.2c-0.4-0.4-0.9-0.5-1.4-0.4
		c-0.3,0.1-0.5,0.2-0.7,0.4c-0.2,0.2-0.3,0.4-0.4,0.6c-0.3,1.1-0.9,2-1.7,2.8c-1.1,1.1-2.6,2-4.1,2.9c-1.6,0.9-3.3,1.9-4.7,3.3
		c-1.2,1.2-2,2.5-2.4,4c-0.2,0.5,0,1.1,0.4,1.4l7.2,7.2c0.4,0.4,0.9,0.5,1.4,0.4c0.3-0.1,0.5-0.2,0.7-0.4c0.2-0.2,0.3-0.4,0.4-0.6
		c0.3-1.1,0.9-2,1.7-2.8c1.1-1.1,2.6-2,4.1-2.8c1.6-0.9,3.3-1.9,4.7-3.3c1.2-1.2,2-2.5,2.4-4C24.8,10.2,24.7,9.6,24.3,9.3z
		 M10.3,23.3c-2.4-2.4-4.8-4.8-7.2-7.2c2-6.6,10.9-6.3,13-13c2.4,2.4,4.8,4.8,7.2,7.2C21.2,16.9,12.3,16.6,10.3,23.3z"/>
	<path fill-rule="evenodd" clip-rule="evenodd" fill="#859894" d="M15.7,12.4C15.5,12.2,15.3,12,15,12c-0.2-0.1-0.5-0.1-0.7-0.1
		c-0.2,0-0.5,0.1-0.7,0.2c-0.2,0.1-0.5,0.2-0.7,0.3c-0.4-0.4-0.8-0.9-1.2-1.3c0.2-0.2,0.3-0.2,0.5-0.2c0.2,0,0.3,0,0.5,0
		c0.2,0,0.3,0.1,0.4,0.1c0.1,0,0.2,0,0.3-0.1c0.1-0.1,0.2-0.2,0.2-0.3c0-0.1,0-0.3-0.2-0.4c-0.2-0.2-0.3-0.3-0.6-0.3
		c-0.2,0-0.4,0-0.7,0c-0.2,0.1-0.4,0.1-0.6,0.3c-0.2,0.1-0.4,0.2-0.5,0.4c0,0-0.1-0.1-0.1-0.1c-0.1,0-0.1-0.1-0.2-0.1
		c-0.1,0-0.1,0-0.2,0.1c-0.1,0.1-0.1,0.1-0.1,0.2c0,0.1,0,0.1,0.1,0.2c0,0,0.1,0.1,0.1,0.1c-0.2,0.2-0.3,0.5-0.5,0.7
		c-0.1,0.3-0.2,0.5-0.2,0.8c0,0.3,0,0.5,0.1,0.7c0.1,0.2,0.2,0.4,0.4,0.6c0.3,0.3,0.7,0.4,1.2,0.4c0.5,0,1-0.2,1.5-0.5
		c0.4,0.5,0.9,1,1.3,1.4c-0.2,0.2-0.3,0.2-0.5,0.3c-0.1,0-0.3,0-0.4,0c-0.1,0-0.2-0.1-0.3-0.2c-0.1-0.1-0.2-0.1-0.3-0.2
		c-0.1,0-0.2-0.1-0.3-0.1c-0.1,0-0.2,0-0.3,0.1c-0.1,0.1-0.2,0.2-0.2,0.4c0,0.1,0.1,0.3,0.2,0.4c0.1,0.1,0.3,0.3,0.5,0.3
		c0.2,0.1,0.4,0.1,0.6,0.2c0.2,0,0.5,0,0.8-0.1c0.3-0.1,0.5-0.3,0.8-0.5c0.1,0.1,0.3,0.2,0.4,0.4c0.1,0,0.1,0.1,0.2,0.1
		c0.1,0,0.1,0,0.2-0.1c0.1-0.1,0.1-0.1,0.1-0.2c0-0.1,0-0.1-0.1-0.2c-0.1-0.1-0.3-0.2-0.4-0.3c0.2-0.3,0.4-0.5,0.5-0.8
		c0.1-0.3,0.2-0.5,0.2-0.8c0-0.2,0-0.5-0.1-0.7C16.1,12.7,15.9,12.5,15.7,12.4z M11.7,12.9c-0.2,0-0.4-0.1-0.5-0.2
		c-0.1-0.1-0.1-0.1-0.1-0.2c0-0.1,0-0.2,0-0.3c0-0.1,0-0.2,0.1-0.3c0.1-0.1,0.1-0.2,0.2-0.3c0.4,0.4,0.7,0.8,1.1,1.2
		C12.2,12.8,11.9,12.9,11.7,12.9z M15.1,14.3c-0.1,0.1-0.1,0.2-0.2,0.3c-0.4-0.4-0.8-0.9-1.2-1.3c0.1,0,0.2-0.1,0.3-0.1
		c0.1,0,0.2-0.1,0.4-0.1c0.1,0,0.2,0,0.4,0c0.1,0,0.2,0.1,0.3,0.2c0.1,0.1,0.2,0.2,0.2,0.3c0,0.1,0,0.2,0,0.4
		C15.2,14.1,15.2,14.2,15.1,14.3z"/>
	<path fill-rule="evenodd" clip-rule="evenodd" fill="#859894" d="M12.2,17.6L12.2,17.6c-0.5,0.3-0.9,0.7-1.3,1.1
		c-0.4,0.4-0.7,0.8-1.1,1.2l-0.5,0.7l0,0c-0.1,0.1-0.1,0.3,0,0.5c0.1,0.1,0.4,0.1,0.5,0c0,0,0,0,0.1-0.1l0.5-0.6
		c0.3-0.4,0.6-0.8,1-1.1c0.4-0.4,0.8-0.7,1.2-1.1l0,0c0,0,0,0,0,0c0.1-0.1,0.1-0.4,0-0.5C12.6,17.5,12.4,17.5,12.2,17.6z"/>
	<path fill-rule="evenodd" clip-rule="evenodd" fill="#859894" d="M14.9,7.2c-0.4,0.4-0.8,0.7-1.2,1c0,0-0.1,0-0.1,0.1
		c-0.1,0.1-0.1,0.4,0,0.5C13.7,9,14,9,14.1,8.8l0,0c0.5-0.3,0.9-0.7,1.3-1.1c0.4-0.4,0.7-0.8,1.1-1.2l0.5-0.7l0,0
		c0.1-0.1,0.1-0.4,0-0.5c-0.1-0.1-0.4-0.1-0.5,0c0,0,0,0.1-0.1,0.1l-0.5,0.7C15.6,6.5,15.2,6.8,14.9,7.2z"/>
</g>
</svg>
