<?xml version="1.0" encoding="utf-8"?>
<!-- Generator: Adobe Illustrator 20.1.0, SVG Export Plug-In . SVG Version: 6.00 Build 0)  -->
<svg version="1.1" id="Layer_1" xmlns="http://www.w3.org/2000/svg" xmlns:xlink="http://www.w3.org/1999/xlink" x="0px" y="0px"
	 viewBox="0 0 26.3 26.3" enable-background="new 0 0 26.3 26.3" xml:space="preserve">
<g id="bulb_4_">
	<path fill="#859894" d="M13.2,0.8c-4.7,0-8.5,3.8-8.5,8.5c0,3.1,2.8,6.4,3.9,9.3c1.5,4.3,1.4,6.9,4.6,6.9c3.3,0,3.1-2.6,4.6-6.9
		c1-2.9,3.9-6.2,3.9-9.3C21.7,4.6,17.9,0.8,13.2,0.8z M15.2,21.8l-3.8,0.5c-0.1-0.4-0.3-0.9-0.5-1.5c0,0,0,0,0,0l4.8-0.6
		c-0.1,0.2-0.1,0.5-0.2,0.7C15.3,21.2,15.3,21.5,15.2,21.8z M10.7,20c-0.1-0.5-0.3-1-0.5-1.5h6c-0.1,0.3-0.2,0.6-0.3,0.8L10.7,20z
		 M13.2,24c-0.8,0-1.1-0.1-1.5-1l3.3-0.4C14.4,23.9,14.1,24,13.2,24z M16.8,17H9.6c-0.4-0.8-0.8-1.7-1.3-2.5c-1-1.8-2-3.7-2-5.2
		c0-3.8,3.1-6.9,6.9-6.9c3.8,0,6.9,3.1,6.9,6.9c0,1.6-1,3.4-2,5.2C17.6,15.4,17.2,16.2,16.8,17z"/>
	<path fill="#859894" d="M13.2,4.7c-2.6,0-4.6,2.1-4.6,4.6c0,0.2,0.2,0.4,0.4,0.4c0.2,0,0.4-0.2,0.4-0.4c0-2.1,1.7-3.9,3.9-3.9
		c0.2,0,0.4-0.2,0.4-0.4C13.6,4.9,13.4,4.7,13.2,4.7z"/>
</g>
</svg>
