<?xml version="1.0" encoding="utf-8"?>
<!-- Generator: Adobe Illustrator 20.1.0, SVG Export Plug-In . SVG Version: 6.00 Build 0)  -->
<svg version="1.1" id="Layer_1" xmlns="http://www.w3.org/2000/svg" xmlns:xlink="http://www.w3.org/1999/xlink" x="0px" y="0px"
	 viewBox="0 0 44.5 44.5" enable-background="new 0 0 44.5 44.5" xml:space="preserve">
<g id="banknote_4_">
	<path fill-rule="evenodd" clip-rule="evenodd" fill="#0581FF" d="M42.7,15.1L29.4,1.8c-0.7-0.7-1.6-0.9-2.5-0.7
		c-0.5,0.1-0.9,0.4-1.2,0.7c-0.3,0.3-0.5,0.7-0.7,1.1c-0.6,1.9-1.6,3.6-3.2,5.2c-2,2-4.7,3.6-7.5,5.2c-3,1.7-6.1,3.5-8.6,6.1
		C3.5,21.6,2,24,1.2,26.8c-0.3,0.9,0,2,0.7,2.7l13.2,13.2c0.7,0.7,1.6,0.9,2.5,0.7c0.5-0.1,0.9-0.4,1.2-0.7c0.3-0.3,0.5-0.7,0.7-1.1
		c0.6-1.9,1.6-3.6,3.2-5.2c2-2,4.7-3.6,7.5-5.2c3-1.7,6.1-3.5,8.6-6.1c2.2-2.2,3.6-4.6,4.5-7.4C43.6,16.8,43.3,15.8,42.7,15.1z
		 M16.9,40.8c-4.4-4.4-8.9-8.9-13.2-13.2C7.5,15.4,23.8,15.9,27.5,3.7c4.4,4.4,8.9,8.9,13.2,13.2C37,29.1,20.7,28.6,16.9,40.8z"/>
	<path fill-rule="evenodd" clip-rule="evenodd" fill="#0581FF" d="M27,20.8c-0.4-0.4-0.9-0.6-1.3-0.7c-0.4-0.1-0.9-0.2-1.3-0.1
		c-0.4,0-0.9,0.1-1.3,0.3c-0.4,0.2-0.9,0.4-1.3,0.6c-0.7-0.8-1.4-1.6-2.1-2.4c0.3-0.3,0.6-0.4,0.9-0.4c0.3,0,0.6,0,0.9,0.1
		c0.3,0.1,0.5,0.1,0.8,0.2c0.2,0,0.4,0,0.6-0.2c0.2-0.2,0.3-0.4,0.3-0.6c0-0.3-0.1-0.5-0.3-0.8c-0.3-0.3-0.6-0.5-1-0.6
		c-0.4-0.1-0.8-0.1-1.2,0c-0.4,0.1-0.8,0.3-1.2,0.5c-0.4,0.2-0.7,0.4-0.9,0.7c-0.1-0.1-0.2-0.2-0.3-0.2c-0.1-0.1-0.2-0.1-0.4-0.1
		c-0.1,0-0.3,0.1-0.4,0.2c-0.1,0.1-0.1,0.2-0.1,0.4c0,0.1,0.1,0.3,0.2,0.3c0.1,0.1,0.2,0.1,0.3,0.2c-0.3,0.4-0.6,0.9-0.8,1.3
		c-0.2,0.5-0.4,1-0.4,1.4c-0.1,0.5,0,0.9,0.1,1.3c0.1,0.4,0.4,0.7,0.8,1.1c0.6,0.5,1.4,0.7,2.2,0.7c0.8-0.1,1.8-0.3,2.7-0.8
		c0.8,0.9,1.6,1.8,2.3,2.6c-0.3,0.3-0.6,0.4-0.9,0.5c-0.3,0.1-0.5,0-0.7,0c-0.2-0.1-0.4-0.2-0.6-0.3c-0.2-0.1-0.3-0.2-0.5-0.3
		c-0.2-0.1-0.3-0.1-0.5-0.1c-0.2,0-0.4,0.1-0.6,0.3c-0.2,0.2-0.3,0.4-0.3,0.7c0,0.2,0.1,0.5,0.3,0.8c0.2,0.3,0.5,0.5,0.9,0.6
		c0.4,0.2,0.8,0.3,1.2,0.3c0.4,0,0.9,0,1.4-0.2c0.5-0.2,1-0.5,1.5-1c0.2,0.2,0.5,0.4,0.7,0.6c0.1,0.1,0.2,0.1,0.4,0.1
		c0.1,0,0.3-0.1,0.4-0.2c0.1-0.1,0.1-0.3,0.1-0.4c0-0.1-0.1-0.2-0.2-0.3c-0.2-0.2-0.5-0.4-0.7-0.6c0.4-0.5,0.7-1,0.9-1.5
		c0.2-0.5,0.4-1,0.4-1.5c0-0.5,0-0.9-0.2-1.2C27.6,21.4,27.3,21.1,27,20.8z M19.6,21.7c-0.4,0-0.7-0.1-1-0.4
		c-0.1-0.1-0.2-0.3-0.3-0.4c-0.1-0.2-0.1-0.4-0.1-0.6c0-0.2,0.1-0.4,0.2-0.6c0.1-0.2,0.2-0.4,0.4-0.6c0.7,0.7,1.3,1.4,2,2.2
		C20.4,21.5,19.9,21.7,19.6,21.7z M25.8,24.3c-0.1,0.2-0.3,0.4-0.4,0.6c-0.7-0.8-1.5-1.6-2.2-2.4c0.2-0.1,0.4-0.2,0.6-0.3
		c0.2-0.1,0.4-0.1,0.6-0.2c0.2,0,0.4,0,0.7,0c0.2,0.1,0.4,0.2,0.6,0.4c0.2,0.2,0.3,0.4,0.4,0.6c0.1,0.2,0.1,0.4,0,0.6
		C26,23.9,25.9,24.1,25.8,24.3z"/>
	<path fill-rule="evenodd" clip-rule="evenodd" fill="#0581FF" d="M20.5,30.4L20.5,30.4c-0.8,0.6-1.6,1.3-2.4,2.1
		c-0.7,0.7-1.4,1.5-1.9,2.3L15.3,36l0,0c-0.2,0.3-0.1,0.6,0.1,0.8c0.3,0.3,0.7,0.3,0.9,0c0,0,0.1-0.1,0.1-0.1l0.8-1.2
		c0.5-0.7,1.1-1.4,1.8-2.1c0.7-0.7,1.4-1.3,2.3-2l0,0c0,0,0,0,0.1-0.1c0.3-0.3,0.3-0.7,0-0.9C21.2,30.2,20.8,30.2,20.5,30.4z"/>
	<path fill-rule="evenodd" clip-rule="evenodd" fill="#0581FF" d="M25.4,11.3c-0.7,0.7-1.4,1.3-2.2,1.9c-0.1,0-0.1,0.1-0.2,0.1
		c-0.3,0.3-0.3,0.7,0,0.9c0.3,0.3,0.7,0.3,0.9,0l0,0c0.8-0.6,1.6-1.3,2.4-2.1c0.7-0.7,1.4-1.5,1.9-2.2l0.9-1.2l0,0
		c0.2-0.3,0.2-0.7,0-0.9c-0.3-0.3-0.7-0.3-0.9,0c0,0-0.1,0.1-0.1,0.2l-0.9,1.2C26.7,9.9,26.1,10.6,25.4,11.3z"/>
</g>
</svg>
