<?xml version="1.0" encoding="utf-8"?>
<!-- Generator: Adobe Illustrator 20.1.0, SVG Export Plug-In . SVG Version: 6.00 Build 0)  -->
<svg version="1.1" id="Layer_1" xmlns="http://www.w3.org/2000/svg" xmlns:xlink="http://www.w3.org/1999/xlink" x="0px" y="0px"
	 viewBox="0 0 44.5 44.5" enable-background="new 0 0 44.5 44.5" xml:space="preserve">
<g id="iphone_1_">
	<path fill="#0581FF" d="M31.3,4.2l-18.1,0c-1.9,0-3.4,1.5-3.4,3.4v29.4c0,1.9,1.5,3.4,3.4,3.4l18.1,0c1.9,0,3.4-1.5,3.4-3.4V7.6
		C34.7,5.7,33.1,4.2,31.3,4.2z M32.4,36.9c0,0.6-0.5,1.1-1.1,1.1l-18.1,0c-0.6,0-1.1-0.5-1.1-1.1v-2.3l20.3,0V36.9z M32.4,33.5
		l-20.3,0V11l20.3,0V33.5z M32.4,9.8l-20.3,0V7.6c0-0.6,0.5-1.1,1.1-1.1l18.1,0c0.6,0,1.1,0.5,1.1,1.1V9.8z"/>
	<path fill="#0581FF" d="M24.5,8.1c0,0.3-0.3,0.6-0.6,0.6h-3.4c-0.3,0-0.6-0.3-0.6-0.6l0,0c0-0.3,0.3-0.6,0.6-0.6h3.4
		C24.2,7.6,24.5,7.8,24.5,8.1L24.5,8.1z"/>
	<path fill="#0581FF" d="M23.4,36.3c0,0.3-0.3,0.6-0.6,0.6h-1.1c-0.3,0-0.6-0.3-0.6-0.6l0,0c0-0.3,0.3-0.6,0.6-0.6h1.1
		C23.1,35.8,23.4,36,23.4,36.3L23.4,36.3z"/>
</g>
</svg>
