<?xml version="1.0" encoding="utf-8"?>
<!-- Generator: Adobe Illustrator 20.1.0, SVG Export Plug-In . SVG Version: 6.00 Build 0)  -->
<svg version="1.1" id="Layer_1" xmlns="http://www.w3.org/2000/svg" xmlns:xlink="http://www.w3.org/1999/xlink" x="0px" y="0px"
	 viewBox="0 0 144.5 130.7" enable-background="new 0 0 144.5 130.7" xml:space="preserve">
<g id="_x34_Dmnwc.tif_2_" opacity="0.6">
	<g>
		<path fill="#FFFFFF" d="M78.8,126.6c-4.6,0-9.3,0-13.9,0c-0.6-0.8-1.5-0.6-2.2-0.7c-26.4-4.1-47.3-25.3-51-51.5
			c-0.1-0.6,0.2-1.4-0.7-1.7c0-4.6,0-9.3,0-13.9c1.1-1.5,0.8-3.3,1.1-5C16.5,29.6,36.6,9.6,60.7,5.2c1.7-0.3,3.5,0,5-1.1
			c4.1,0,8.2,0,12.3,0c0.1,0.5,0.5,0.4,0.8,0.4c26.8,2.9,48.3,22.6,53.7,49c0.3,1.4-0.1,3,1.1,4.2c0,5,0,10.1,0,15.1
			c-0.8,0.6-0.6,1.6-0.7,2.4c-3.9,25-23.5,45.4-48.2,50.4C82.7,125.9,80.7,125.8,78.8,126.6z M122.3,72.5c2.7,0.7,5.3,1.4,8.1,2.2
			c0.3-1.2,0.5-2.2,0.8-3.3c-4.9-1.3-9.7-2.5-14.6-3.8c-0.5,1.7-0.9,3.2-1.3,4.8c2.5,1.3,4.9,2.5,7.2,3.7c0,0.1-0.1,0.2-0.1,0.3
			c-2.7-0.1-5.3-0.2-8.1-0.4c-0.4,1.7-1.1,3.2-1.1,5c4.9,1.3,9.6,2.5,14.4,3.7c0.5-1.2,0.8-2.1,0.8-3.3c-2.9-0.7-5.7-1.3-8.9-2.1
			c3.5-0.4,6.6,0.1,9.5-0.1c1.2-1.9,0.5-2.8-1.2-3.5c-2-0.8-3.8-2-5.8-3C122.1,72.7,122.2,72.6,122.3,72.5z M113.1,65.5
			c-0.1-23.1-18.3-41-41.6-40.9c-22,0.1-40.2,18.7-40,41.3c0.2,22.8,19.1,40.8,41.9,40.4C95,105.9,113.2,87.5,113.1,65.5z
			 M66.7,109.1c0,5,0,10,0,15c1,0,2.1,0,3.5,0c0-2,0-3.8,0-6c4,1.1,1.3,4.3,2.7,6.2c1.1-0.1,2.2,0.4,3.4,0.1
			c-0.2-6.2-0.2-6.2-1.4-7.5c1.5-1.8,2-4,1.1-5.8c-1-1.9-2.8-2-4.6-2C70,109.1,68.6,109.1,66.7,109.1z M13.8,69.5
			c0.1,1.3,0.1,2.5,0.6,3.6c1.9-0.3,3.8-0.5,5.5-0.8c0.5,0.6,0.6,1.2,0.3,1.5c-1.4,1.8-3.9,0.8-5.6,2c0.2,1.2,0.4,2.4,0.6,3.8
			c2.3-1.5,5.5-0.4,7.2-3.1c1.8,1.6,3.7,1.1,5.5,0.2c1.5-0.7,1.8-2.2,1.6-3.7c-0.2-1.9-0.6-3.7-0.9-5.8C23.7,68,18.9,68.7,13.8,69.5
			z M123.3,94.2c-1.8-1.1-3.4-2.1-5-3.1c1.1-2.3,2.4-1.2,3.6-0.5c2.8,1.5,2.8,1.6,4.4-1.3c0.1-0.2,0.4-0.4,0.1-0.8
			c-2.5-0.2-4.2-3.3-7.2-2.1c-0.6-2.1-2.2-3.6-4.2-3.9c-2-0.2-3.1,1.1-4,2.6c-0.8,1.4-1.7,2.8-2.6,4.3c4.4,2.7,8.7,5.3,13,7.9
			C122,96.2,122.6,95.3,123.3,94.2z M91.6,121.4c1.8-0.8,3.5-1.5,5.1-2.3c2.2-1.1,2.9-2.7,2-5c-1-2.4-2.1-4.7-3.2-7
			c-0.9-2-2.5-2.4-4.4-1.9c-1.9,0.6-3.8,1.4-5.7,2.5C87.5,112.2,89.5,116.8,91.6,121.4z M32.3,93c0.6,1,1.2,1.9,1.8,2.9
			c3.3-1.6,4.1-3.6,2.5-6.4c-1.7-3.1-3.9-3.8-6.9-2.1c-2,1.2-3.9,2.5-5.9,3.7c-1.4,0.9-2.5,2.1-2.2,3.8c0.3,1.9,1.3,3.3,3.3,3.7
			c-0.9,1.4,0.2,1.9,0.8,2.8c2.4-1.5,4.6-3,7-4.5c-1.1-1.4-1.6-2.9-2.8-3.9c-1.2,0.7-1.1,0.7-1.8,2.4c-0.3,0.7-1.2,1.1-2,1.1
			c-0.5,0-0.8-0.3-1-0.8c-0.3-0.9,0.2-1.3,0.8-1.6c2.1-1.3,4.1-2.6,6.2-3.9c0.7-0.4,1.2-0.5,1.8,0.2c0.6,0.7,0.3,1.2-0.3,1.7
			C33.3,92.3,32.9,92.6,32.3,93z M43.2,104c0.9,0.7,1.7,1.4,2.5,2c1.4-1.6,2-3.2,1-5c-0.9-1.8-2.4-3-4.5-2.9c-2.1,0.1-3.2,1.6-4,3.3
			c-0.6,1.4,0,2.8,0.4,4.1c0.3,0.8,0.7,1.6,0.6,2.6c-0.1,0.8-0.6,1.2-1.2,1.5c-0.5,0.2-1,0-1.3-0.4c-0.4-0.6-0.3-1.2,0.1-1.7
			c0.2-0.3,0.5-0.6,0.8-1c-0.9-0.7-1.7-1.4-2.6-2.1c-0.4,0.5-0.6,0.7-0.8,1c-1.7,2.2-1.5,4,0.5,5.9c2.1,2,4.4,2.1,6.3,0.3
			c1.8-1.7,2.2-3.6,1.3-5.9c-0.4-1-1-2-0.9-3.1c0.1-0.6,0.3-1,0.9-1.2c0.4-0.1,0.8-0.1,1.1,0.2c0.5,0.4,0.5,0.9,0.1,1.4
			C43.6,103.3,43.5,103.6,43.2,104z M54.1,121.7c2.8,0.8,5.4,1.5,8.1,2.2c0.4-1,0.8-1.9,0.7-2.9c-1.4-0.8-3-0.7-4.3-1.6
			c0.3-1,0.3-1.9,0.9-2.8c1.3,0.3,2.7,0.6,4.2,1c0.1-1.1,0.7-1.9,0.5-2.8c-1.2-0.8-2.8-0.6-4-1.5c0.5-0.7,0.2-1.6,0.9-2.3
			c1.3,0.3,2.7,0.7,4.1,1c0.5-1,0.8-1.8,0.7-2.9c-2.5-0.7-5-1.4-7.7-2.1C56.8,112,55.5,116.7,54.1,121.7z M85.2,110.5
			c-0.2-1.1-0.1-2.1-0.7-3c-2.6,0.5-5.1,0.9-7.9,1.4c0.9,5,1.8,9.9,2.7,15c2.8-0.5,5.5-1,8.3-1.5c-0.3-1.1-0.1-2.1-0.7-2.9
			c-1.5,0.2-3,0.5-4.5,0.7c-0.3-1.1-0.5-2-0.4-3.1c1.4-0.3,2.7-0.6,4.2-0.9c-0.2-1.1-0.4-2-0.7-2.9c-1.4,0.2-2.8,0.5-4.1,0.7
			c-0.4-0.9-0.7-1.6-0.5-2.6C82.3,111,83.7,110.7,85.2,110.5z M29.1,81.7c0.6,1.5,1.1,2.8,1.6,4.1c1-0.4,1.9-0.7,2.8-1.1
			c-1-2.6-1.9-5.1-2.9-7.6c-4.8,1.8-9.4,3.5-14.2,5.3c1,2.7,2,5.3,3,7.9c1.1-0.5,1.9-0.8,2.8-1.2c-0.5-1.6-1-2.9-1.5-4.4
			c0.9-0.6,1.9-0.9,2.9-1.1c0.5,1.3,1,2.6,1.6,4c1-0.4,2-0.4,2.7-1.3c-0.5-1.3-0.9-2.5-1.3-3.8C27.4,82.1,28.2,81.8,29.1,81.7z
			 M111.7,108.8c-1.4-1.6-2.8-3.2-4.2-4.8c1.1-1,2.1-2,3.1-2.9c-0.7-0.8-1.2-1.7-2.1-2.2c-1.2,0.8-2,2.1-3.3,2.7
			c-0.6-0.6-1-1.1-1.7-1.8c1.2-1.1,2.3-2.1,3.5-3.3c-0.7-0.8-1.4-1.5-2.1-2.3c-2.1,1.9-4.1,3.8-6.2,5.7c3.5,3.8,6.9,7.5,10.3,11.1
			C110.1,110.3,110.9,109.6,111.7,108.8z M57,106.7c-2.7-1.4-5.4-2.8-8.2-4.3c-0.5,1-0.9,1.9-1.3,2.7c0.9,0.5,1.6,1,2.3,1.4
			c-1.9,3.6-3.7,7.2-5.5,10.7c1.2,0.6,2.1,1,3.2,1.6c1.9-3.6,3.7-7.1,5.6-10.6c1,0.2,1.7,1,2.7,1C56.2,108.5,56.6,107.7,57,106.7z
			 M105.2,93.2c4,3.3,7.8,6.5,11.8,9.7c0.8-1,1.5-1.8,2.3-2.8c-3.9-3.2-7.8-6.4-11.7-9.7C106.8,91.4,106.1,92.2,105.2,93.2z
			 M39.2,93.7c-3.9,3.4-7.6,6.7-11.5,10.2c1.2,0.8,1.5,2,2.7,2.5c3.7-3.3,7.5-6.6,11.2-10C40.7,95.4,40,94.6,39.2,93.7z"/>
		<path fill="#FFFFFF" d="M23.1,72c-0.1,1.7,0.8,2.2,2.2,1.9c1.6-0.3,1.6-1.3,1.1-2.6C25.2,71.5,24.1,71.4,23.1,72z"/>
		<path fill="#FFFFFF" d="M115.7,89.9c1.2-1.3,1.1-2.2-0.3-3c-1.4-0.8-2.1-0.1-2.6,1.2C113.7,88.7,114.6,89.2,115.7,89.9z"/>
		<path fill="#FFFFFF" d="M63.6,38.6c3.2,0,6.1,0,9,0c0.6,0.5,0.3,1.1,0.3,1.6c0,8.6-0.1,17.3,0,25.9c0.2,10.4-5.7,13.6-14.4,13
			c-6.9-0.5-10.4-4-10.6-11.2c-0.3-9.6-0.1-19.2-0.1-28.8c0-0.1,0.1-0.2,0.2-0.4c2.9,0,5.9,0,8.9,0c0.5,0.7,0.2,1.5,0.2,2.2
			c0,9.1,0,18.2,0,27.3c0,2.5,0.7,3.5,2.6,3.7c2.3,0.3,3.8-1,3.9-3.6c0.1-2.6,0-5.3,0-8C63.6,53.2,63.6,46,63.6,38.6z"/>
		<path fill="#FFFFFF" d="M85.8,84.6c3.9,0,7.6,0,11.3,0c0,2.7,0,5.3,0,7.9c-6.8,0-13.6,0-20.5,0c0-13.2,0-26.3,0-39.5
			c3,0,6,0,9.2,0C85.8,63.5,85.8,73.9,85.8,84.6z"/>
		<path fill="#FFFFFF" d="M122,72.8c-0.3-0.1-0.7,0-1-0.4c0.4-0.2,0.9-0.3,1.3,0.1C122.2,72.6,122.1,72.7,122,72.8z"/>
		<path fill="#FFFFFF" d="M70.2,112.3c1.4-0.2,2.3-0.1,2.3,1.5c0,1.4-0.5,2.2-2.2,1.9C70,114.6,70.2,113.5,70.2,112.3z"/>
		<path fill="#FFFFFF" d="M23.1,72c1.1-0.6,2.2-0.5,3.3-0.6c0.5,1.2,0.5,2.2-1.1,2.6C23.8,74.2,23,73.7,23.1,72z"/>
		<path fill="#FFFFFF" d="M115.7,89.9c-1.1-0.6-2-1.2-2.9-1.8c0.5-1.4,1.2-2,2.6-1.2C116.7,87.7,116.8,88.6,115.7,89.9z"/>
		<path fill="#FFFFFF" d="M93.7,117.3c-1.3-2.9-2.5-5.8-3.8-8.6c1.4-0.9,2.3-0.5,2.8,0.8c0.8,1.8,1.6,3.6,2.4,5.4
			C95.7,116.1,95.2,116.9,93.7,117.3z"/>
	</g>
</g>
</svg>
