<?xml version="1.0" encoding="utf-8"?>
<!-- Generator: Adobe Illustrator 20.1.0, SVG Export Plug-In . SVG Version: 6.00 Build 0)  -->
<svg version="1.1" id="Layer_1" xmlns="http://www.w3.org/2000/svg" xmlns:xlink="http://www.w3.org/1999/xlink" x="0px" y="0px"
	 viewBox="0 0 144.5 130.7" enable-background="new 0 0 144.5 130.7" xml:space="preserve">
<g>
	<g id="pnxTwE.tif_2_" opacity="0.6">
		<g>
			<g>
				<path fill="#FFFFFF" d="M125.2,53.7c-0.1,0.7-0.2,1.5-0.3,2.2c-0.4,2.9-1.3,5.6-2.8,8.1c-1.6,2.7-4,4.6-6.8,5.7
					c-6.6,2.7-13.3,3-20,0.5c-2.3-0.9-4.4-2.1-6.2-3.7c-2-1.8-3.3-4.2-4.2-6.8c-0.7-2.1-1-4.4-1.1-6.6c-0.1-3,0.1-6,1-9
					c1.4-4.5,4.1-7.9,8.4-10c3.5-1.6,7.2-2.4,11-2.4c5.3,0,10.3,1.3,14.7,4.5c2.7,2,4.3,4.7,5.2,7.9c0.5,1.9,0.9,3.7,1,5.7
					c0,0.1,0,0.2,0.1,0.3C125.2,51.3,125.2,52.5,125.2,53.7z M111,51.1c0-1.7-0.1-3.6-0.5-5.4c-0.4-2.2-1.6-3.5-3.7-4
					c-1.3-0.3-2.6-0.3-4-0.1c-0.9,0.2-1.8,0.4-2.5,0.9c-1.4,0.9-1.8,2.4-2,3.9c-0.2,1.5-0.2,3-0.2,4.5c-0.1,2.3-0.1,4.7,0.5,7
					c0.6,2.5,1.7,3.7,4.2,4.1c1.2,0.2,2.5,0.2,3.7-0.1c2.7-0.6,4-2,4.3-4.8C110.9,55.2,111,53.3,111,51.1z"/>
			</g>
			<g>
				<path fill="#FFFFFF" d="M19.5,32.2c0.2,0,0.4,0,0.6,0c7.6,0,15.2,0,22.9,0c0.4,0,0.8,0,1.2,0c0,3.2,0,6.3,0,9.5
					c-1.9,0-3.7,0-5.6,0c0,6.7,0,13.2,0,19.9c1.9,0,3.7,0,5.6,0c0,3.1,0,6.2,0,9.3C44,71.1,43.8,71,43.7,71c-8,0-15.9,0-23.9,0
					c-0.1,0-0.2,0-0.3,0c0-3.1,0-6.2,0-9.3c1.8,0,3.7,0,5.5,0c0-6.7,0-13.3,0-20c-0.2,0-0.3,0-0.5,0c-1.6,0-3.1,0-4.7,0
					c-0.2,0-0.3,0-0.5,0c0-2.6,0-5.1,0-7.7C19.6,33.5,19.4,32.9,19.5,32.2z"/>
			</g>
			<g>
				<path fill="#FFFFFF" d="M72.9,7.9c0.6,0.2,1.1,0.1,1.7,0.2c10.2,1,19,4.9,26.5,12c2.4,2.2,4.5,4.7,6.3,7.4
					c0.1,0.1,0.2,0.2,0.2,0.4c-0.6,0.2-1.1,0.1-1.7,0c-0.2,0-0.2-0.2-0.3-0.3c-2.3-3.3-5-6.1-8.1-8.6c-0.4-0.3-0.8-0.4-1.2-0.1
					c-1,0.7-2.1,1.3-3.2,1.9c-0.4,0.2-0.5,0.4-0.2,0.8c0.1,0.2,0.2,0.3,0.4,0.5c1.6,1.7,2.8,3.7,4.1,5.7c0,0,0,0.1,0,0.2
					c-0.5,0.2-1,0.1-1.5,0.1c-0.2,0-0.3-0.2-0.4-0.4c-1.3-1.9-2.6-3.7-4.2-5.4C91,22,90.9,22,90.5,22.1c-2.3,0.9-4.6,1.8-7,2.5
					c0.1,1.3,0.9,2.2,1.2,3.5c-0.5,0-1,0-1.4,0c-0.2,0-0.3-0.2-0.4-0.3c-0.4-0.7-0.7-1.5-1.1-2.2c-0.1-0.3-0.3-0.4-0.7-0.3
					c-3,0.7-6,1-9.1,1.2c-0.4,0-0.5,0.2-0.5,0.5c0,0.2,0,0.5,0,0.7c0.1,0.4-0.2,0.5-0.5,0.5c-0.3,0-0.6,0-0.9,0
					c-0.3,0-0.3-0.2-0.3-0.4c0-0.3,0-0.6,0-0.9c0-0.3-0.1-0.5-0.5-0.5c-3.3-0.1-6.6-0.5-9.8-1.2c-0.4,0.7-0.8,1.4-1.1,2.1
					c-0.3,0.7-0.7,1-1.4,0.9c-0.2,0-0.4,0-0.7,0c0.3-1.2,1.1-2.1,1.3-3.4c-0.9-0.3-1.9-0.6-2.8-1c-1.4-0.5-2.7-1-4.1-1.5
					c-0.4-0.2-0.6-0.1-0.9,0.2c-1.4,1.5-2.6,3.2-3.8,4.9c-0.6,0.8-1.2,1-2.2,0.7c0.8-1.5,1.8-3,2.9-4.3c0.5-0.7,1.1-1.4,1.6-2
					c0.3-0.3,0.2-0.5-0.1-0.7c-1.2-0.6-2.4-1.3-3.5-2c-0.4-0.3-0.7-0.2-1,0c-2.1,1.7-4,3.5-5.7,5.6c-0.9,1-1.7,2.1-2.5,3.2
					c-0.2,0.2-0.3,0.3-0.6,0.3c-0.4,0-0.9,0-1.3,0c-0.1-0.2,0.1-0.3,0.2-0.4C40.5,18,49.4,11.8,60.7,9.1c2.3-0.6,4.6-0.9,7-1.1
					c0.1,0,0.2,0,0.2-0.1C69.6,7.9,71.2,7.9,72.9,7.9z M69.8,15.3c-0.1,0-0.1-0.1-0.1-0.1c-1.1-0.1-2.2-0.3-3.3-0.4
					c-0.2,0-0.3,0.1-0.4,0.2c-2,2.5-3.8,5.1-5.3,7.9c-0.1,0.2-0.2,0.5-0.1,0.8c3,0.6,6.1,1.1,9.3,0.9C69.9,21.5,70,18.4,69.8,15.3z
					 M71.7,24.7c3.1-0.1,6.2-0.4,9.1-1.2c0-0.1,0-0.2-0.1-0.2c-1.5-3-3.4-5.7-5.5-8.3c-0.1-0.1-0.2-0.2-0.3-0.2
					c-1.1,0.2-2.2,0.3-3.3,0.5C71.6,18.4,71.5,21.5,71.7,24.7z M82.6,23.1c2.3-0.5,4.4-1.2,6.4-2.1c0.6-0.2,0.6-0.4,0.1-0.9
					c-1.6-1.5-3.2-2.9-5-4.2c-1.4-1-2.8-1.9-4.4-2.6c-0.2-0.1-0.4-0.2-0.7-0.1c-0.6,0.3-1.2,0.5-1.9,0.8c-0.3,0.1-0.3,0.3-0.2,0.6
					C79.1,17.3,80.9,20.1,82.6,23.1z M64.3,14.1c-0.7-0.3-1.4-0.6-2.1-0.9c-0.2-0.1-0.3-0.1-0.5,0c-3.5,1.9-6.6,4.3-9.5,7
					c-0.4,0.3-0.3,0.6,0.2,0.8c1.9,0.8,3.8,1.4,5.8,2c0.4,0.1,0.6,0.1,0.9-0.3c1.5-2.7,3.1-5.4,5-7.8C64.2,14.7,64.3,14.4,64.3,14.1
					z M79.8,10.5c-0.2,0-0.4-0.1-0.6-0.1c-3.8-0.8-7.6-1-11.4-0.8c-2,0.1-4,0.4-6,0.8c-0.2,0-0.3,0-0.4,0.2c0,0.2,0.1,0.3,0.3,0.4
					c0.7,0.4,1.4,0.9,2.2,1.2c3,1.3,6.1,1.6,9.3,1.1c2.3-0.3,4.4-1,6.3-2.3C79.8,11,79.9,10.8,79.8,10.5z M50.1,19.9
					c0.2,0.1,0.3-0.1,0.4-0.2c1.5-1.5,3.1-2.8,4.7-4c1.5-1.1,3-2.1,4.5-3.1c0.2-0.1,0.4-0.3,0.3-0.5c-0.1-0.4-1-0.8-1.4-0.8
					c-0.6,0.1-1.1,0.3-1.6,0.5c-3.6,1.3-7.1,2.9-10.3,5.1c-0.2,0.1-0.3,0.2-0.5,0.4c-0.3,0.3-0.3,0.5,0.1,0.7c1,0.6,2.1,1.2,3.1,1.8
					C49.7,19.8,49.9,19.9,50.1,19.9z M91.4,19.8c0.2,0,0.3,0,0.4-0.1c1.1-0.6,2.2-1.2,3.2-1.9c0.3-0.2,0.4-0.4,0-0.6
					c-0.4-0.3-0.8-0.6-1.3-0.9c-3.4-2.2-7.1-4-11-5c-0.4-0.1-1.1,0.2-1.3,0.6c-0.1,0.2-0.1,0.4,0.2,0.6c3.4,2,6.5,4.4,9.3,7.2
					C91,19.7,91.2,19.8,91.4,19.8z"/>
			</g>
			<g>
				<path fill="#FFFFFF" d="M19.4,61.7C19.4,61.7,19.4,61.7,19.4,61.7c0.1,3.1,0.1,6.2,0.1,9.4c0,0-0.1,0-0.1,0
					C19.4,67.9,19.4,64.8,19.4,61.7z"/>
			</g>
			<g>
				<path fill="#FFFFFF" d="M19.5,32.2c-0.1,0.6,0.1,1.2-0.1,1.8C19.4,33.5,19.4,32.9,19.5,32.2C19.4,32.2,19.4,32.2,19.5,32.2z"/>
			</g>
			<g>
				<path fill="#FFFFFF" d="M71.7,95.4C71.6,95.5,71.6,95.5,71.7,95.4c-0.5,0.1-1,0.1-1.5,0.1c0,0,0-0.1,0-0.1
					C70.7,95.4,71.2,95.4,71.7,95.4z"/>
			</g>
			<g>
				<path fill="#FFFFFF" d="M73.2,35c0-0.7,0-1.4,0-2.1c2.8,0,5.5,0,8.3,0c0,4.4,0,8.8,0,13.1c-0.1,0.1-0.2,0.1-0.3,0.1
					c-2.4,0-4.9,0-7.3,0c-0.2,0-0.4,0-0.5-0.2c-1.7-2.5-4.2-3.9-7.1-4.7c-1.9-0.6-3.9-0.7-5.9-0.7c-0.8,0-1.6,0.2-2.2,0.9
					c-0.6,0.6-0.4,1.5,0.4,2c0.9,0.5,1.9,0.7,2.8,1c4.1,1.2,8.2,2.3,12.2,3.6c3.9,1.3,6.9,3.8,8.4,7.7c2.1,5.4-0.3,11.8-5.8,14.4
					c-3.2,1.5-6.5,2-10,1.8c-3.1-0.2-6-0.9-8.8-2.2c-0.6-0.3-1.2-0.7-1.9-1c-0.2-0.1-0.4-0.2-0.6-0.1c0,0.8,0,1.6,0,2.5
					c-2.9,0-5.7,0-8.5,0c0-4.7,0-9.4,0-14.2c0.2,0,0.5,0,0.7,0c2.2,0,4.4,0,6.7,0c0.2,0,0.4,0,0.5,0.2c1.4,2.5,3.6,4,6.3,4.9
					c2.9,1,5.9,1.1,8.9,0.4c0.3-0.1,0.6-0.2,0.8-0.3c0.7-0.4,0.8-1.1,0.2-1.6c-0.6-0.6-1.3-0.7-2-1c-4.3-1.3-8.7-2.6-13-3.9
					c-3-0.9-5.5-2.6-7.4-5.1c-1.7-2.2-2.2-4.7-2-7.3c0.2-3,1.2-5.6,3.5-7.6c1.9-1.7,4.2-2.6,6.7-3.1c4.3-0.9,8.6-0.5,12.7,0.8
					c1.2,0.4,2.3,1.1,3.5,1.8C72.7,35,72.9,35.1,73.2,35z"/>
			</g>
			<g>
				<path fill="#FFFFFF" d="M71.7,95.4c-0.5,0-1,0-1.5,0c-2.7-0.1-5.4-0.3-8-0.9c-3.8-0.8-7.5-2-11-3.8c-6.9-3.5-12.6-8.5-17-15
					c-0.1-0.1-0.2-0.3-0.3-0.4c0,0,0-0.1,0-0.2c0.6-0.1,1.1-0.1,1.7,0c0.2,0,0.3,0.2,0.4,0.4c2.3,3.3,5,6.2,8.2,8.7
					c0.4,0.3,0.7,0.3,1.1,0.1c1.1-0.7,2.2-1.3,3.3-1.9c0.5-0.3,0.6-0.5,0.2-1c-1.5-1.8-3-3.6-4.2-5.7c-0.1-0.2-0.2-0.4-0.3-0.6
					c0.5-0.2,1.1-0.1,1.6-0.1c0.2,0,0.2,0.2,0.3,0.3c1.2,1.9,2.6,3.6,4.1,5.3c0.3,0.4,0.6,0.5,1.1,0.3c2.1-0.9,4.3-1.6,6.5-2.3
					c0.1,0,0.3-0.1,0.5-0.2c-0.3-1.2-1.1-2.2-1.4-3.4c0.1,0,0.2,0,0.3,0c1.1-0.1,1.2-0.1,1.7,0.9c0.3,0.6,0.6,1.2,0.9,1.8
					c0.1,0.2,0.2,0.3,0.5,0.3c2.4-0.5,4.8-0.8,7.2-1c0.7-0.1,1.4-0.1,2.1-0.1c0.4,0,0.5-0.2,0.5-0.5c0-0.4-0.1-0.8,0-1.2
					c0.4,0,0.9,0,1.3,0c0.3,0,0.3,0.2,0.3,0.4c0,0.4,0,0.8,0,1.2c1.8,0.1,3.5,0.3,5.2,0.5c1.7,0.2,3.4,0.5,5.1,0.9
					c0.4-0.8,0.9-1.7,1.3-2.6c0.2-0.3,0.4-0.5,0.7-0.4c0.3,0,0.7,0,1,0c-0.2,1.2-0.9,2.2-1.2,3.3c0.2,0.2,0.5,0.2,0.7,0.3
					c2.1,0.7,4.2,1.5,6.2,2.3c0.4,0.1,0.6,0.1,0.8-0.2c1.5-1.7,2.9-3.5,4.1-5.4c0.2-0.2,0.3-0.3,0.6-0.3c0.4,0,0.9,0,1.4,0
					c-0.5,0.9-1,1.7-1.6,2.5c-0.9,1.3-1.9,2.6-2.9,3.8c-0.4,0.4-0.3,0.6,0.1,0.8c1.2,0.7,2.3,1.3,3.5,2c0.5,0.3,0.8,0.2,1.2-0.1
					c2.6-2.1,4.8-4.5,6.8-7.2c0.4-0.5,0.8-1.1,1.2-1.6c0.1-0.2,0.3-0.3,0.5-0.3c0.4,0,0.9,0,1.3,0c0.1,0.3-0.1,0.4-0.2,0.5
					c-6.6,9.9-15.7,16.2-27.4,18.8C77.4,95.1,74.5,95.4,71.7,95.4z M71.8,78.6c-0.2,3.2,0,6.4,0,9.5c1.1,0.2,2.2,0.3,3.2,0.5
					c0.2,0,0.5,0.1,0.7-0.2c2-2.6,3.8-5.3,5.3-8.2c0.2-0.4,0.1-0.5-0.3-0.6c-0.9-0.2-1.8-0.4-2.7-0.5C76,78.7,74,78.6,71.8,78.6z
					 M70.1,78.5c-0.4,0-0.8,0-1.1,0.1c-2.6,0.1-5.2,0.4-7.8,1c-0.5,0.1-0.5,0.2-0.3,0.6c1.5,2.9,3.3,5.5,5.3,8.1
					c0.2,0.2,0.4,0.3,0.7,0.3c0.9-0.3,1.8-0.3,2.8-0.4c0.4-0.1,0.4-0.2,0.4-0.5c0-2.6,0-5.1,0-7.7C70.1,79.5,70.1,79,70.1,78.5z
					 M64.7,89.1c0-0.3-0.1-0.4-0.3-0.6c-1.9-2.6-3.6-5.3-5.1-8.1c-0.2-0.3-0.4-0.4-0.7-0.3c-2,0.6-4,1.2-6,2.1
					c-0.6,0.3-0.6,0.5-0.1,0.9c0.6,0.6,1.3,1.2,1.9,1.7c2.3,1.9,4.7,3.7,7.3,5.1c0.2,0.1,0.3,0.2,0.5,0.1
					C63,89.9,63.9,89.5,64.7,89.1z M77.4,89.2c0.7,0.3,1.3,0.5,2,0.8c0.3,0.1,0.5,0.1,0.8-0.1c1.5-0.8,3-1.7,4.4-2.8
					c1.8-1.3,3.4-2.7,4.9-4.3c0.3-0.4,0.3-0.5-0.2-0.7c-0.8-0.3-1.5-0.6-2.3-0.9c-1.4-0.5-2.7-0.9-4.1-1.2c-1.6,2.9-3.4,5.7-5.4,8.4
					C77.4,88.8,77.4,89,77.4,89.2z M80.2,92.8c0.1-0.3,0-0.5-0.2-0.6c-0.6-0.4-1.3-0.8-1.9-1.1c-2.9-1.3-6-1.7-9.2-1.3
					c-2.4,0.3-4.6,1-6.7,2.3c-0.2,0.1-0.4,0.2-0.3,0.5c0.1,0.3,0.3,0.2,0.5,0.3c2.8,0.6,5.6,0.9,8.5,0.9c1.7,0,3.5-0.1,5.2-0.3
					C77.4,93.4,78.8,93.2,80.2,92.8z M82.8,92.1c0.1,0,0.2,0,0.2-0.1c3.6-1,7-2.5,10.2-4.5c0.8-0.5,1.5-0.9,2.2-1.5
					c0.3-0.3,0.3-0.5,0-0.7c-1.1-0.6-2.2-1.3-3.4-1.9c-0.4-0.2-0.7-0.2-1,0.1c-1.7,1.5-3.2,3.1-5,4.4c-1.3,1-2.7,1.9-4.1,2.8
					c-0.2,0.1-0.4,0.2-0.3,0.5C81.8,91.6,82.5,92.1,82.8,92.1z M46.4,85.7c0,0.3,0,0.3,0.4,0.6c3.7,2.5,7.6,4.5,11.9,5.7
					c0.5,0.2,0.9,0.1,1.3-0.2c0.5-0.3,0.4-0.6,0-0.9c-3.3-2-6.4-4.3-9.1-7.1c-0.3-0.4-0.6-0.4-1.1-0.2c-1.1,0.5-2.2,1.2-3.2,1.8
					C46.4,85.5,46.3,85.6,46.4,85.7z"/>
			</g>
		</g>
	</g>
	<g opacity="0.6">
		<path fill="#FFFFFF" d="M33.2,122.5h-2v-14.6H26v-1.8h12.5v1.8h-5.2V122.5z"/>
		<path fill="#FFFFFF" d="M46.4,122.8c-2.7,0-4.8-0.9-6.3-2.6l1.2-1.6c1.4,1.6,3.1,2.4,5.1,2.4c1.3,0,2.3-0.3,2.9-0.9
			c0.6-0.6,0.9-1.2,0.9-2c0-0.7-0.2-1.2-0.7-1.6c-0.5-0.4-1.1-0.8-1.8-0.9c-0.7-0.2-1.5-0.4-2.3-0.7c-0.8-0.3-1.6-0.5-2.3-0.8
			c-0.7-0.3-1.3-0.7-1.8-1.4c-0.5-0.6-0.7-1.4-0.7-2.3c0-1.3,0.5-2.4,1.6-3.3c1.1-0.9,2.4-1.3,4.1-1.3c2.4,0,4.4,0.8,5.8,2.3
			l-1.2,1.5c-1.2-1.3-2.8-2-4.8-2c-1,0-1.8,0.2-2.4,0.7c-0.6,0.5-0.9,1.1-0.9,1.9c0,0.6,0.2,1.1,0.7,1.4c0.5,0.4,1.1,0.7,1.8,0.8
			c0.7,0.2,1.5,0.4,2.3,0.7c0.8,0.3,1.6,0.6,2.3,0.9c0.7,0.3,1.3,0.8,1.8,1.5c0.5,0.7,0.7,1.5,0.7,2.4c0,1.3-0.5,2.5-1.5,3.4
			C50,122.3,48.5,122.8,46.4,122.8z"/>
		<path fill="#FFFFFF" d="M60,122.5h-2v-13.7l-2.6,2.8l-1.2-1.3l4.1-4.2H60V122.5z"/>
		<path fill="#FFFFFF" d="M69.6,122.8c-1.1,0-2.1-0.2-2.9-0.7c-0.8-0.5-1.5-1.1-2-1.9c-0.5-0.8-0.8-1.7-1.1-2.7
			c-0.2-1-0.4-2.1-0.4-3.2c0-2.4,0.6-4.4,1.7-6c1.1-1.6,2.8-2.4,5-2.4c1.9,0,3.4,0.7,4.5,2l-1,1.5c-1-1.1-2.1-1.7-3.5-1.7
			c-1.5,0-2.6,0.6-3.4,1.9c-0.8,1.3-1.2,2.8-1.2,4.6v0.6c0.4-0.7,1-1.2,1.9-1.8c0.9-0.5,1.8-0.8,2.7-0.8c1.6,0,2.8,0.5,3.9,1.4
			c1,0.9,1.5,2.2,1.5,3.9c0,1.5-0.5,2.7-1.6,3.8C72.7,122.3,71.3,122.8,69.6,122.8z M69.5,121c1.2,0,2.1-0.4,2.8-1.1
			c0.7-0.7,1-1.5,1-2.4c0-1.1-0.4-2-1.1-2.6c-0.7-0.6-1.6-0.9-2.7-0.9c-0.8,0-1.6,0.2-2.3,0.7c-0.7,0.5-1.3,1-1.8,1.8
			c0.1,1.2,0.5,2.3,1.2,3.2C67.2,120.5,68.2,121,69.5,121z"/>
		<path fill="#FFFFFF" d="M83.1,122.8c-1.9,0-3.4-0.7-4.6-2l1-1.5c1,1.1,2.1,1.7,3.5,1.7c1.1,0,1.9-0.3,2.7-1
			c0.7-0.7,1.2-1.5,1.5-2.4c0.3-0.9,0.4-2,0.4-3.1c0-0.3,0-0.5,0-0.6c-0.4,0.7-1,1.2-1.9,1.8c-0.9,0.5-1.8,0.8-2.7,0.8
			c-1.6,0-2.8-0.5-3.9-1.4c-1-0.9-1.5-2.2-1.5-3.9c0-1.5,0.5-2.7,1.6-3.8s2.4-1.6,4.2-1.6c1.1,0,2.1,0.2,2.9,0.7
			c0.8,0.5,1.5,1.1,2,1.9c0.5,0.8,0.9,1.7,1.1,2.7c0.2,1,0.4,2.1,0.4,3.2c0,1.5-0.2,2.9-0.7,4.2c-0.5,1.2-1.2,2.3-2.2,3.1
			C85.9,122.3,84.6,122.8,83.1,122.8z M83.6,114.6c0.8,0,1.6-0.2,2.3-0.7c0.7-0.5,1.3-1,1.8-1.8c0-0.5-0.2-1.1-0.3-1.6
			c-0.2-0.5-0.4-1-0.7-1.5c-0.3-0.5-0.7-0.8-1.3-1.1c-0.5-0.3-1.1-0.4-1.8-0.4c-1.2,0-2.1,0.4-2.8,1.1c-0.7,0.7-1,1.5-1,2.4
			c0,1.1,0.4,2,1.1,2.6S82.5,114.6,83.6,114.6z"/>
		<path fill="#FFFFFF" d="M101.7,122.5h-2v-4.2h-7.8v-1.7l7-10.6h2.8v10.5h2.3v1.8h-2.3V122.5z M99.6,116.5V108l-5.8,8.6H99.6z"/>
		<path fill="#FFFFFF" d="M111.4,122.8c-1.9,0-3.4-0.7-4.6-2l1-1.5c1,1.1,2.1,1.7,3.5,1.7c1.1,0,1.9-0.3,2.7-1
			c0.7-0.7,1.2-1.5,1.5-2.4c0.3-0.9,0.4-2,0.4-3.1c0-0.3,0-0.5,0-0.6c-0.4,0.7-1,1.2-1.9,1.8c-0.9,0.5-1.8,0.8-2.7,0.8
			c-1.6,0-2.8-0.5-3.9-1.4c-1-0.9-1.5-2.2-1.5-3.9c0-1.5,0.5-2.7,1.6-3.8s2.4-1.6,4.2-1.6c1.1,0,2.1,0.2,2.9,0.7
			c0.8,0.5,1.5,1.1,2,1.9c0.5,0.8,0.9,1.7,1.1,2.7c0.2,1,0.4,2.1,0.4,3.2c0,1.5-0.2,2.9-0.7,4.2c-0.5,1.2-1.2,2.3-2.2,3.1
			C114.2,122.3,112.9,122.8,111.4,122.8z M111.9,114.6c0.8,0,1.6-0.2,2.3-0.7c0.7-0.5,1.3-1,1.8-1.8c0-0.5-0.2-1.1-0.3-1.6
			c-0.2-0.5-0.4-1-0.7-1.5c-0.3-0.5-0.7-0.8-1.3-1.1c-0.5-0.3-1.1-0.4-1.8-0.4c-1.2,0-2.1,0.4-2.8,1.1c-0.7,0.7-1,1.5-1,2.4
			c0,1.1,0.4,2,1.1,2.6S110.7,114.6,111.9,114.6z"/>
	</g>
</g>
</svg>
